%TF.GenerationSoftware,KiCad,Pcbnew,10.0.3-10.0.3~ubuntu24.04.1*%
%TF.CreationDate,2026-05-19T22:17:26-05:00*%
%TF.ProjectId,androphage_switch,616e6472-6f70-4686-9167-655f73776974,rev?*%
%TF.SameCoordinates,Original*%
%TF.FileFunction,Legend,Bot*%
%TF.FilePolarity,Positive*%
%FSLAX46Y46*%
G04 Gerber Fmt 4.6, Leading zero omitted, Abs format (unit mm)*
G04 Created by KiCad (PCBNEW 10.0.3-10.0.3~ubuntu24.04.1) date 2026-05-19 22:17:26*
%MOMM*%
%LPD*%
G01*
G04 APERTURE LIST*
%ADD10C,0.150000*%
%ADD11C,0.100000*%
%ADD12C,0.120000*%
G04 APERTURE END LIST*
D10*
X127585942Y-73074405D02*
X127919275Y-72598214D01*
X128157370Y-73074405D02*
X128157370Y-72074405D01*
X128157370Y-72074405D02*
X127776418Y-72074405D01*
X127776418Y-72074405D02*
X127681180Y-72122024D01*
X127681180Y-72122024D02*
X127633561Y-72169643D01*
X127633561Y-72169643D02*
X127585942Y-72264881D01*
X127585942Y-72264881D02*
X127585942Y-72407738D01*
X127585942Y-72407738D02*
X127633561Y-72502976D01*
X127633561Y-72502976D02*
X127681180Y-72550595D01*
X127681180Y-72550595D02*
X127776418Y-72598214D01*
X127776418Y-72598214D02*
X128157370Y-72598214D01*
X127395466Y-73169643D02*
X126633561Y-73169643D01*
X126395465Y-73074405D02*
X126395465Y-72074405D01*
X126395465Y-72074405D02*
X126062132Y-72788690D01*
X126062132Y-72788690D02*
X125728799Y-72074405D01*
X125728799Y-72074405D02*
X125728799Y-73074405D01*
X125300227Y-72788690D02*
X124824037Y-72788690D01*
X125395465Y-73074405D02*
X125062132Y-72074405D01*
X125062132Y-72074405D02*
X124728799Y-73074405D01*
X124538322Y-72074405D02*
X123966894Y-72074405D01*
X124252608Y-73074405D02*
X124252608Y-72074405D01*
X123871656Y-73169643D02*
X123109751Y-73169643D01*
X122681179Y-72074405D02*
X122585941Y-72074405D01*
X122585941Y-72074405D02*
X122490703Y-72122024D01*
X122490703Y-72122024D02*
X122443084Y-72169643D01*
X122443084Y-72169643D02*
X122395465Y-72264881D01*
X122395465Y-72264881D02*
X122347846Y-72455357D01*
X122347846Y-72455357D02*
X122347846Y-72693452D01*
X122347846Y-72693452D02*
X122395465Y-72883928D01*
X122395465Y-72883928D02*
X122443084Y-72979166D01*
X122443084Y-72979166D02*
X122490703Y-73026786D01*
X122490703Y-73026786D02*
X122585941Y-73074405D01*
X122585941Y-73074405D02*
X122681179Y-73074405D01*
X122681179Y-73074405D02*
X122776417Y-73026786D01*
X122776417Y-73026786D02*
X122824036Y-72979166D01*
X122824036Y-72979166D02*
X122871655Y-72883928D01*
X122871655Y-72883928D02*
X122919274Y-72693452D01*
X122919274Y-72693452D02*
X122919274Y-72455357D01*
X122919274Y-72455357D02*
X122871655Y-72264881D01*
X122871655Y-72264881D02*
X122824036Y-72169643D01*
X122824036Y-72169643D02*
X122776417Y-72122024D01*
X122776417Y-72122024D02*
X122681179Y-72074405D01*
X121395465Y-73074405D02*
X121966893Y-73074405D01*
X121681179Y-73074405D02*
X121681179Y-72074405D01*
X121681179Y-72074405D02*
X121776417Y-72217262D01*
X121776417Y-72217262D02*
X121871655Y-72312500D01*
X121871655Y-72312500D02*
X121966893Y-72360119D01*
X149871656Y-43550595D02*
X150204989Y-43550595D01*
X150204989Y-44074405D02*
X150204989Y-43074405D01*
X150204989Y-43074405D02*
X149728799Y-43074405D01*
X149014513Y-43550595D02*
X148871656Y-43598214D01*
X148871656Y-43598214D02*
X148824037Y-43645833D01*
X148824037Y-43645833D02*
X148776418Y-43741071D01*
X148776418Y-43741071D02*
X148776418Y-43883928D01*
X148776418Y-43883928D02*
X148824037Y-43979166D01*
X148824037Y-43979166D02*
X148871656Y-44026786D01*
X148871656Y-44026786D02*
X148966894Y-44074405D01*
X148966894Y-44074405D02*
X149347846Y-44074405D01*
X149347846Y-44074405D02*
X149347846Y-43074405D01*
X149347846Y-43074405D02*
X149014513Y-43074405D01*
X149014513Y-43074405D02*
X148919275Y-43122024D01*
X148919275Y-43122024D02*
X148871656Y-43169643D01*
X148871656Y-43169643D02*
X148824037Y-43264881D01*
X148824037Y-43264881D02*
X148824037Y-43360119D01*
X148824037Y-43360119D02*
X148871656Y-43455357D01*
X148871656Y-43455357D02*
X148919275Y-43502976D01*
X148919275Y-43502976D02*
X149014513Y-43550595D01*
X149014513Y-43550595D02*
X149347846Y-43550595D01*
X148585942Y-44169643D02*
X147824037Y-44169643D01*
X147585941Y-43074405D02*
X147585941Y-43883928D01*
X147585941Y-43883928D02*
X147538322Y-43979166D01*
X147538322Y-43979166D02*
X147490703Y-44026786D01*
X147490703Y-44026786D02*
X147395465Y-44074405D01*
X147395465Y-44074405D02*
X147204989Y-44074405D01*
X147204989Y-44074405D02*
X147109751Y-44026786D01*
X147109751Y-44026786D02*
X147062132Y-43979166D01*
X147062132Y-43979166D02*
X147014513Y-43883928D01*
X147014513Y-43883928D02*
X147014513Y-43074405D01*
X146585941Y-44026786D02*
X146443084Y-44074405D01*
X146443084Y-44074405D02*
X146204989Y-44074405D01*
X146204989Y-44074405D02*
X146109751Y-44026786D01*
X146109751Y-44026786D02*
X146062132Y-43979166D01*
X146062132Y-43979166D02*
X146014513Y-43883928D01*
X146014513Y-43883928D02*
X146014513Y-43788690D01*
X146014513Y-43788690D02*
X146062132Y-43693452D01*
X146062132Y-43693452D02*
X146109751Y-43645833D01*
X146109751Y-43645833D02*
X146204989Y-43598214D01*
X146204989Y-43598214D02*
X146395465Y-43550595D01*
X146395465Y-43550595D02*
X146490703Y-43502976D01*
X146490703Y-43502976D02*
X146538322Y-43455357D01*
X146538322Y-43455357D02*
X146585941Y-43360119D01*
X146585941Y-43360119D02*
X146585941Y-43264881D01*
X146585941Y-43264881D02*
X146538322Y-43169643D01*
X146538322Y-43169643D02*
X146490703Y-43122024D01*
X146490703Y-43122024D02*
X146395465Y-43074405D01*
X146395465Y-43074405D02*
X146157370Y-43074405D01*
X146157370Y-43074405D02*
X146014513Y-43122024D01*
X145252608Y-43550595D02*
X145109751Y-43598214D01*
X145109751Y-43598214D02*
X145062132Y-43645833D01*
X145062132Y-43645833D02*
X145014513Y-43741071D01*
X145014513Y-43741071D02*
X145014513Y-43883928D01*
X145014513Y-43883928D02*
X145062132Y-43979166D01*
X145062132Y-43979166D02*
X145109751Y-44026786D01*
X145109751Y-44026786D02*
X145204989Y-44074405D01*
X145204989Y-44074405D02*
X145585941Y-44074405D01*
X145585941Y-44074405D02*
X145585941Y-43074405D01*
X145585941Y-43074405D02*
X145252608Y-43074405D01*
X145252608Y-43074405D02*
X145157370Y-43122024D01*
X145157370Y-43122024D02*
X145109751Y-43169643D01*
X145109751Y-43169643D02*
X145062132Y-43264881D01*
X145062132Y-43264881D02*
X145062132Y-43360119D01*
X145062132Y-43360119D02*
X145109751Y-43455357D01*
X145109751Y-43455357D02*
X145157370Y-43502976D01*
X145157370Y-43502976D02*
X145252608Y-43550595D01*
X145252608Y-43550595D02*
X145585941Y-43550595D01*
X144824037Y-44169643D02*
X144062132Y-44169643D01*
X143633560Y-43074405D02*
X143538322Y-43074405D01*
X143538322Y-43074405D02*
X143443084Y-43122024D01*
X143443084Y-43122024D02*
X143395465Y-43169643D01*
X143395465Y-43169643D02*
X143347846Y-43264881D01*
X143347846Y-43264881D02*
X143300227Y-43455357D01*
X143300227Y-43455357D02*
X143300227Y-43693452D01*
X143300227Y-43693452D02*
X143347846Y-43883928D01*
X143347846Y-43883928D02*
X143395465Y-43979166D01*
X143395465Y-43979166D02*
X143443084Y-44026786D01*
X143443084Y-44026786D02*
X143538322Y-44074405D01*
X143538322Y-44074405D02*
X143633560Y-44074405D01*
X143633560Y-44074405D02*
X143728798Y-44026786D01*
X143728798Y-44026786D02*
X143776417Y-43979166D01*
X143776417Y-43979166D02*
X143824036Y-43883928D01*
X143824036Y-43883928D02*
X143871655Y-43693452D01*
X143871655Y-43693452D02*
X143871655Y-43455357D01*
X143871655Y-43455357D02*
X143824036Y-43264881D01*
X143824036Y-43264881D02*
X143776417Y-43169643D01*
X143776417Y-43169643D02*
X143728798Y-43122024D01*
X143728798Y-43122024D02*
X143633560Y-43074405D01*
X142347846Y-44074405D02*
X142919274Y-44074405D01*
X142633560Y-44074405D02*
X142633560Y-43074405D01*
X142633560Y-43074405D02*
X142728798Y-43217262D01*
X142728798Y-43217262D02*
X142824036Y-43312500D01*
X142824036Y-43312500D02*
X142919274Y-43360119D01*
X259243632Y-44051721D02*
X259243632Y-44766006D01*
X259243632Y-44766006D02*
X259291251Y-44908863D01*
X259291251Y-44908863D02*
X259386489Y-45004102D01*
X259386489Y-45004102D02*
X259529346Y-45051721D01*
X259529346Y-45051721D02*
X259624584Y-45051721D01*
X258815060Y-44146959D02*
X258767441Y-44099340D01*
X258767441Y-44099340D02*
X258672203Y-44051721D01*
X258672203Y-44051721D02*
X258434108Y-44051721D01*
X258434108Y-44051721D02*
X258338870Y-44099340D01*
X258338870Y-44099340D02*
X258291251Y-44146959D01*
X258291251Y-44146959D02*
X258243632Y-44242197D01*
X258243632Y-44242197D02*
X258243632Y-44337435D01*
X258243632Y-44337435D02*
X258291251Y-44480292D01*
X258291251Y-44480292D02*
X258862679Y-45051721D01*
X258862679Y-45051721D02*
X258243632Y-45051721D01*
X127585942Y-75074405D02*
X127919275Y-74598214D01*
X128157370Y-75074405D02*
X128157370Y-74074405D01*
X128157370Y-74074405D02*
X127776418Y-74074405D01*
X127776418Y-74074405D02*
X127681180Y-74122024D01*
X127681180Y-74122024D02*
X127633561Y-74169643D01*
X127633561Y-74169643D02*
X127585942Y-74264881D01*
X127585942Y-74264881D02*
X127585942Y-74407738D01*
X127585942Y-74407738D02*
X127633561Y-74502976D01*
X127633561Y-74502976D02*
X127681180Y-74550595D01*
X127681180Y-74550595D02*
X127776418Y-74598214D01*
X127776418Y-74598214D02*
X128157370Y-74598214D01*
X127395466Y-75169643D02*
X126633561Y-75169643D01*
X126395465Y-75074405D02*
X126395465Y-74074405D01*
X126395465Y-74074405D02*
X126062132Y-74788690D01*
X126062132Y-74788690D02*
X125728799Y-74074405D01*
X125728799Y-74074405D02*
X125728799Y-75074405D01*
X125300227Y-74788690D02*
X124824037Y-74788690D01*
X125395465Y-75074405D02*
X125062132Y-74074405D01*
X125062132Y-74074405D02*
X124728799Y-75074405D01*
X124538322Y-74074405D02*
X123966894Y-74074405D01*
X124252608Y-75074405D02*
X124252608Y-74074405D01*
X123871656Y-75169643D02*
X123109751Y-75169643D01*
X122919274Y-74169643D02*
X122871655Y-74122024D01*
X122871655Y-74122024D02*
X122776417Y-74074405D01*
X122776417Y-74074405D02*
X122538322Y-74074405D01*
X122538322Y-74074405D02*
X122443084Y-74122024D01*
X122443084Y-74122024D02*
X122395465Y-74169643D01*
X122395465Y-74169643D02*
X122347846Y-74264881D01*
X122347846Y-74264881D02*
X122347846Y-74360119D01*
X122347846Y-74360119D02*
X122395465Y-74502976D01*
X122395465Y-74502976D02*
X122966893Y-75074405D01*
X122966893Y-75074405D02*
X122347846Y-75074405D01*
X121395465Y-75074405D02*
X121966893Y-75074405D01*
X121681179Y-75074405D02*
X121681179Y-74074405D01*
X121681179Y-74074405D02*
X121776417Y-74217262D01*
X121776417Y-74217262D02*
X121871655Y-74312500D01*
X121871655Y-74312500D02*
X121966893Y-74360119D01*
X127585942Y-74074405D02*
X127919275Y-73598214D01*
X128157370Y-74074405D02*
X128157370Y-73074405D01*
X128157370Y-73074405D02*
X127776418Y-73074405D01*
X127776418Y-73074405D02*
X127681180Y-73122024D01*
X127681180Y-73122024D02*
X127633561Y-73169643D01*
X127633561Y-73169643D02*
X127585942Y-73264881D01*
X127585942Y-73264881D02*
X127585942Y-73407738D01*
X127585942Y-73407738D02*
X127633561Y-73502976D01*
X127633561Y-73502976D02*
X127681180Y-73550595D01*
X127681180Y-73550595D02*
X127776418Y-73598214D01*
X127776418Y-73598214D02*
X128157370Y-73598214D01*
X127395466Y-74169643D02*
X126633561Y-74169643D01*
X126395465Y-74074405D02*
X126395465Y-73074405D01*
X126395465Y-73074405D02*
X126062132Y-73788690D01*
X126062132Y-73788690D02*
X125728799Y-73074405D01*
X125728799Y-73074405D02*
X125728799Y-74074405D01*
X125300227Y-73788690D02*
X124824037Y-73788690D01*
X125395465Y-74074405D02*
X125062132Y-73074405D01*
X125062132Y-73074405D02*
X124728799Y-74074405D01*
X124538322Y-73074405D02*
X123966894Y-73074405D01*
X124252608Y-74074405D02*
X124252608Y-73074405D01*
X123871656Y-74169643D02*
X123109751Y-74169643D01*
X122347846Y-74074405D02*
X122919274Y-74074405D01*
X122633560Y-74074405D02*
X122633560Y-73074405D01*
X122633560Y-73074405D02*
X122728798Y-73217262D01*
X122728798Y-73217262D02*
X122824036Y-73312500D01*
X122824036Y-73312500D02*
X122919274Y-73360119D01*
X121395465Y-74074405D02*
X121966893Y-74074405D01*
X121681179Y-74074405D02*
X121681179Y-73074405D01*
X121681179Y-73074405D02*
X121776417Y-73217262D01*
X121776417Y-73217262D02*
X121871655Y-73312500D01*
X121871655Y-73312500D02*
X121966893Y-73360119D01*
X122585942Y-74074405D02*
X122919275Y-73598214D01*
X123157370Y-74074405D02*
X123157370Y-73074405D01*
X123157370Y-73074405D02*
X122776418Y-73074405D01*
X122776418Y-73074405D02*
X122681180Y-73122024D01*
X122681180Y-73122024D02*
X122633561Y-73169643D01*
X122633561Y-73169643D02*
X122585942Y-73264881D01*
X122585942Y-73264881D02*
X122585942Y-73407738D01*
X122585942Y-73407738D02*
X122633561Y-73502976D01*
X122633561Y-73502976D02*
X122681180Y-73550595D01*
X122681180Y-73550595D02*
X122776418Y-73598214D01*
X122776418Y-73598214D02*
X123157370Y-73598214D01*
X122395466Y-74169643D02*
X121633561Y-74169643D01*
X121395465Y-74074405D02*
X121395465Y-73074405D01*
X121395465Y-73074405D02*
X121062132Y-73788690D01*
X121062132Y-73788690D02*
X120728799Y-73074405D01*
X120728799Y-73074405D02*
X120728799Y-74074405D01*
X120300227Y-73788690D02*
X119824037Y-73788690D01*
X120395465Y-74074405D02*
X120062132Y-73074405D01*
X120062132Y-73074405D02*
X119728799Y-74074405D01*
X119538322Y-73074405D02*
X118966894Y-73074405D01*
X119252608Y-74074405D02*
X119252608Y-73074405D01*
X118871656Y-74169643D02*
X118109751Y-74169643D01*
X117347846Y-74074405D02*
X117919274Y-74074405D01*
X117633560Y-74074405D02*
X117633560Y-73074405D01*
X117633560Y-73074405D02*
X117728798Y-73217262D01*
X117728798Y-73217262D02*
X117824036Y-73312500D01*
X117824036Y-73312500D02*
X117919274Y-73360119D01*
X116966893Y-73169643D02*
X116919274Y-73122024D01*
X116919274Y-73122024D02*
X116824036Y-73074405D01*
X116824036Y-73074405D02*
X116585941Y-73074405D01*
X116585941Y-73074405D02*
X116490703Y-73122024D01*
X116490703Y-73122024D02*
X116443084Y-73169643D01*
X116443084Y-73169643D02*
X116395465Y-73264881D01*
X116395465Y-73264881D02*
X116395465Y-73360119D01*
X116395465Y-73360119D02*
X116443084Y-73502976D01*
X116443084Y-73502976D02*
X117014512Y-74074405D01*
X117014512Y-74074405D02*
X116395465Y-74074405D01*
X122493442Y-76074405D02*
X122826775Y-75598214D01*
X123064870Y-76074405D02*
X123064870Y-75074405D01*
X123064870Y-75074405D02*
X122683918Y-75074405D01*
X122683918Y-75074405D02*
X122588680Y-75122024D01*
X122588680Y-75122024D02*
X122541061Y-75169643D01*
X122541061Y-75169643D02*
X122493442Y-75264881D01*
X122493442Y-75264881D02*
X122493442Y-75407738D01*
X122493442Y-75407738D02*
X122541061Y-75502976D01*
X122541061Y-75502976D02*
X122588680Y-75550595D01*
X122588680Y-75550595D02*
X122683918Y-75598214D01*
X122683918Y-75598214D02*
X123064870Y-75598214D01*
X122302966Y-76169643D02*
X121541061Y-76169643D01*
X121302965Y-76074405D02*
X121302965Y-75074405D01*
X121302965Y-75074405D02*
X120969632Y-75788690D01*
X120969632Y-75788690D02*
X120636299Y-75074405D01*
X120636299Y-75074405D02*
X120636299Y-76074405D01*
X120207727Y-75788690D02*
X119731537Y-75788690D01*
X120302965Y-76074405D02*
X119969632Y-75074405D01*
X119969632Y-75074405D02*
X119636299Y-76074405D01*
X119445822Y-75074405D02*
X118874394Y-75074405D01*
X119160108Y-76074405D02*
X119160108Y-75074405D01*
X118779156Y-76169643D02*
X118017251Y-76169643D01*
X117874393Y-75074405D02*
X117255346Y-75074405D01*
X117255346Y-75074405D02*
X117588679Y-75455357D01*
X117588679Y-75455357D02*
X117445822Y-75455357D01*
X117445822Y-75455357D02*
X117350584Y-75502976D01*
X117350584Y-75502976D02*
X117302965Y-75550595D01*
X117302965Y-75550595D02*
X117255346Y-75645833D01*
X117255346Y-75645833D02*
X117255346Y-75883928D01*
X117255346Y-75883928D02*
X117302965Y-75979166D01*
X117302965Y-75979166D02*
X117350584Y-76026786D01*
X117350584Y-76026786D02*
X117445822Y-76074405D01*
X117445822Y-76074405D02*
X117731536Y-76074405D01*
X117731536Y-76074405D02*
X117826774Y-76026786D01*
X117826774Y-76026786D02*
X117874393Y-75979166D01*
X116302965Y-76074405D02*
X116874393Y-76074405D01*
X116588679Y-76074405D02*
X116588679Y-75074405D01*
X116588679Y-75074405D02*
X116683917Y-75217262D01*
X116683917Y-75217262D02*
X116779155Y-75312500D01*
X116779155Y-75312500D02*
X116874393Y-75360119D01*
X175530957Y-88421125D02*
X175427426Y-88311777D01*
X175427426Y-88311777D02*
X175326802Y-88095989D01*
X175326802Y-88095989D02*
X175329710Y-87989550D01*
X175329710Y-87989550D02*
X175352743Y-87926268D01*
X175352743Y-87926268D02*
X175418934Y-87842861D01*
X175418934Y-87842861D02*
X175505249Y-87802611D01*
X175505249Y-87802611D02*
X175611688Y-87805519D01*
X175611688Y-87805519D02*
X175674970Y-87828552D01*
X175674970Y-87828552D02*
X175758377Y-87894743D01*
X175758377Y-87894743D02*
X175882034Y-88047248D01*
X175882034Y-88047248D02*
X175965440Y-88113438D01*
X175965440Y-88113438D02*
X176028723Y-88136471D01*
X176028723Y-88136471D02*
X176135162Y-88139379D01*
X176135162Y-88139379D02*
X176221477Y-88099130D01*
X176221477Y-88099130D02*
X176287668Y-88015723D01*
X176287668Y-88015723D02*
X176310701Y-87952441D01*
X176310701Y-87952441D02*
X176313609Y-87846001D01*
X176313609Y-87846001D02*
X176212985Y-87630214D01*
X176212985Y-87630214D02*
X176109454Y-87520866D01*
X176011739Y-87198638D02*
X175004807Y-87405469D01*
X175004807Y-87405469D02*
X175571671Y-86930969D01*
X175571671Y-86930969D02*
X174843810Y-87060209D01*
X174843810Y-87060209D02*
X175649494Y-86421803D01*
X174596497Y-86755198D02*
X174274503Y-86064678D01*
X174018698Y-85290751D02*
X174591146Y-85391607D01*
X174260194Y-85808641D02*
X175166502Y-85386023D01*
X175166502Y-85386023D02*
X175005505Y-85040763D01*
X175005505Y-85040763D02*
X174922098Y-84974572D01*
X174922098Y-84974572D02*
X174858815Y-84951540D01*
X174858815Y-84951540D02*
X174752376Y-84948631D01*
X174752376Y-84948631D02*
X174622903Y-85009005D01*
X174622903Y-85009005D02*
X174556713Y-85092412D01*
X174556713Y-85092412D02*
X174533680Y-85155694D01*
X174533680Y-85155694D02*
X174530772Y-85262134D01*
X174530772Y-85262134D02*
X174691769Y-85607394D01*
X173900858Y-84925366D02*
X173797327Y-84816018D01*
X173797327Y-84816018D02*
X173696703Y-84600231D01*
X173696703Y-84600231D02*
X173699611Y-84493791D01*
X173699611Y-84493791D02*
X173722644Y-84430509D01*
X173722644Y-84430509D02*
X173788834Y-84347102D01*
X173788834Y-84347102D02*
X173875150Y-84306853D01*
X173875150Y-84306853D02*
X173981589Y-84309761D01*
X173981589Y-84309761D02*
X174044871Y-84332794D01*
X174044871Y-84332794D02*
X174128278Y-84398984D01*
X174128278Y-84398984D02*
X174251935Y-84551489D01*
X174251935Y-84551489D02*
X174335341Y-84617680D01*
X174335341Y-84617680D02*
X174398624Y-84640712D01*
X174398624Y-84640712D02*
X174505063Y-84643621D01*
X174505063Y-84643621D02*
X174591378Y-84603371D01*
X174591378Y-84603371D02*
X174657569Y-84519964D01*
X174657569Y-84519964D02*
X174680601Y-84456682D01*
X174680601Y-84456682D02*
X174683510Y-84350243D01*
X174683510Y-84350243D02*
X174582886Y-84134455D01*
X174582886Y-84134455D02*
X174479355Y-84025107D01*
X174401764Y-83746037D02*
X174160268Y-83228147D01*
X173374708Y-83909710D02*
X174281016Y-83487092D01*
X173127396Y-83604699D02*
X172805401Y-82914179D01*
X173616901Y-82062894D02*
X173576652Y-81976579D01*
X173576652Y-81976579D02*
X173493245Y-81910388D01*
X173493245Y-81910388D02*
X173429963Y-81887356D01*
X173429963Y-81887356D02*
X173323523Y-81884447D01*
X173323523Y-81884447D02*
X173130769Y-81921789D01*
X173130769Y-81921789D02*
X172914981Y-82022412D01*
X172914981Y-82022412D02*
X172762476Y-82146068D01*
X172762476Y-82146068D02*
X172696285Y-82229475D01*
X172696285Y-82229475D02*
X172673252Y-82292757D01*
X172673252Y-82292757D02*
X172670344Y-82399197D01*
X172670344Y-82399197D02*
X172710594Y-82485512D01*
X172710594Y-82485512D02*
X172794001Y-82551702D01*
X172794001Y-82551702D02*
X172857283Y-82574735D01*
X172857283Y-82574735D02*
X172963722Y-82577643D01*
X172963722Y-82577643D02*
X173156477Y-82540302D01*
X173156477Y-82540302D02*
X173372265Y-82439679D01*
X173372265Y-82439679D02*
X173524770Y-82316023D01*
X173524770Y-82316023D02*
X173590960Y-82232616D01*
X173590960Y-82232616D02*
X173613993Y-82169334D01*
X173613993Y-82169334D02*
X173616901Y-82062894D01*
X172167227Y-81320259D02*
X172408723Y-81838149D01*
X172287975Y-81579204D02*
X173194283Y-81156586D01*
X173194283Y-81156586D02*
X173105060Y-81303275D01*
X173105060Y-81303275D02*
X173058994Y-81429839D01*
X173058994Y-81429839D02*
X173056086Y-81536279D01*
X122585942Y-73074405D02*
X122919275Y-72598214D01*
X123157370Y-73074405D02*
X123157370Y-72074405D01*
X123157370Y-72074405D02*
X122776418Y-72074405D01*
X122776418Y-72074405D02*
X122681180Y-72122024D01*
X122681180Y-72122024D02*
X122633561Y-72169643D01*
X122633561Y-72169643D02*
X122585942Y-72264881D01*
X122585942Y-72264881D02*
X122585942Y-72407738D01*
X122585942Y-72407738D02*
X122633561Y-72502976D01*
X122633561Y-72502976D02*
X122681180Y-72550595D01*
X122681180Y-72550595D02*
X122776418Y-72598214D01*
X122776418Y-72598214D02*
X123157370Y-72598214D01*
X122395466Y-73169643D02*
X121633561Y-73169643D01*
X121395465Y-73074405D02*
X121395465Y-72074405D01*
X121395465Y-72074405D02*
X121062132Y-72788690D01*
X121062132Y-72788690D02*
X120728799Y-72074405D01*
X120728799Y-72074405D02*
X120728799Y-73074405D01*
X120300227Y-72788690D02*
X119824037Y-72788690D01*
X120395465Y-73074405D02*
X120062132Y-72074405D01*
X120062132Y-72074405D02*
X119728799Y-73074405D01*
X119538322Y-72074405D02*
X118966894Y-72074405D01*
X119252608Y-73074405D02*
X119252608Y-72074405D01*
X118871656Y-73169643D02*
X118109751Y-73169643D01*
X117681179Y-72074405D02*
X117585941Y-72074405D01*
X117585941Y-72074405D02*
X117490703Y-72122024D01*
X117490703Y-72122024D02*
X117443084Y-72169643D01*
X117443084Y-72169643D02*
X117395465Y-72264881D01*
X117395465Y-72264881D02*
X117347846Y-72455357D01*
X117347846Y-72455357D02*
X117347846Y-72693452D01*
X117347846Y-72693452D02*
X117395465Y-72883928D01*
X117395465Y-72883928D02*
X117443084Y-72979166D01*
X117443084Y-72979166D02*
X117490703Y-73026786D01*
X117490703Y-73026786D02*
X117585941Y-73074405D01*
X117585941Y-73074405D02*
X117681179Y-73074405D01*
X117681179Y-73074405D02*
X117776417Y-73026786D01*
X117776417Y-73026786D02*
X117824036Y-72979166D01*
X117824036Y-72979166D02*
X117871655Y-72883928D01*
X117871655Y-72883928D02*
X117919274Y-72693452D01*
X117919274Y-72693452D02*
X117919274Y-72455357D01*
X117919274Y-72455357D02*
X117871655Y-72264881D01*
X117871655Y-72264881D02*
X117824036Y-72169643D01*
X117824036Y-72169643D02*
X117776417Y-72122024D01*
X117776417Y-72122024D02*
X117681179Y-72074405D01*
X116966893Y-72169643D02*
X116919274Y-72122024D01*
X116919274Y-72122024D02*
X116824036Y-72074405D01*
X116824036Y-72074405D02*
X116585941Y-72074405D01*
X116585941Y-72074405D02*
X116490703Y-72122024D01*
X116490703Y-72122024D02*
X116443084Y-72169643D01*
X116443084Y-72169643D02*
X116395465Y-72264881D01*
X116395465Y-72264881D02*
X116395465Y-72360119D01*
X116395465Y-72360119D02*
X116443084Y-72502976D01*
X116443084Y-72502976D02*
X117014512Y-73074405D01*
X117014512Y-73074405D02*
X116395465Y-73074405D01*
X122585942Y-75074405D02*
X122919275Y-74598214D01*
X123157370Y-75074405D02*
X123157370Y-74074405D01*
X123157370Y-74074405D02*
X122776418Y-74074405D01*
X122776418Y-74074405D02*
X122681180Y-74122024D01*
X122681180Y-74122024D02*
X122633561Y-74169643D01*
X122633561Y-74169643D02*
X122585942Y-74264881D01*
X122585942Y-74264881D02*
X122585942Y-74407738D01*
X122585942Y-74407738D02*
X122633561Y-74502976D01*
X122633561Y-74502976D02*
X122681180Y-74550595D01*
X122681180Y-74550595D02*
X122776418Y-74598214D01*
X122776418Y-74598214D02*
X123157370Y-74598214D01*
X122395466Y-75169643D02*
X121633561Y-75169643D01*
X121395465Y-75074405D02*
X121395465Y-74074405D01*
X121395465Y-74074405D02*
X121062132Y-74788690D01*
X121062132Y-74788690D02*
X120728799Y-74074405D01*
X120728799Y-74074405D02*
X120728799Y-75074405D01*
X120300227Y-74788690D02*
X119824037Y-74788690D01*
X120395465Y-75074405D02*
X120062132Y-74074405D01*
X120062132Y-74074405D02*
X119728799Y-75074405D01*
X119538322Y-74074405D02*
X118966894Y-74074405D01*
X119252608Y-75074405D02*
X119252608Y-74074405D01*
X118871656Y-75169643D02*
X118109751Y-75169643D01*
X117919274Y-74169643D02*
X117871655Y-74122024D01*
X117871655Y-74122024D02*
X117776417Y-74074405D01*
X117776417Y-74074405D02*
X117538322Y-74074405D01*
X117538322Y-74074405D02*
X117443084Y-74122024D01*
X117443084Y-74122024D02*
X117395465Y-74169643D01*
X117395465Y-74169643D02*
X117347846Y-74264881D01*
X117347846Y-74264881D02*
X117347846Y-74360119D01*
X117347846Y-74360119D02*
X117395465Y-74502976D01*
X117395465Y-74502976D02*
X117966893Y-75074405D01*
X117966893Y-75074405D02*
X117347846Y-75074405D01*
X116966893Y-74169643D02*
X116919274Y-74122024D01*
X116919274Y-74122024D02*
X116824036Y-74074405D01*
X116824036Y-74074405D02*
X116585941Y-74074405D01*
X116585941Y-74074405D02*
X116490703Y-74122024D01*
X116490703Y-74122024D02*
X116443084Y-74169643D01*
X116443084Y-74169643D02*
X116395465Y-74264881D01*
X116395465Y-74264881D02*
X116395465Y-74360119D01*
X116395465Y-74360119D02*
X116443084Y-74502976D01*
X116443084Y-74502976D02*
X117014512Y-75074405D01*
X117014512Y-75074405D02*
X116395465Y-75074405D01*
%TO.C,S_MAT_10*%
D11*
X22025228Y-66344586D02*
X22025228Y-62394586D01*
X22400228Y-62019586D02*
X25875228Y-62019586D01*
X22400228Y-66719586D02*
X24700033Y-66719586D01*
X26825228Y-68819586D02*
X26325228Y-68319586D01*
X27975228Y-64119586D02*
X31075228Y-64119586D01*
X31075228Y-68819586D02*
X26825228Y-68819586D01*
X31575228Y-64619586D02*
X31075228Y-64119586D01*
X31575228Y-64619586D02*
X31575228Y-68319586D01*
X31575228Y-68319586D02*
X31075228Y-68819586D01*
D12*
X36800229Y-62569586D02*
X32790229Y-62569586D01*
X36800229Y-62569586D02*
X36800229Y-64569586D01*
X36800229Y-64569586D02*
X32790229Y-64569586D01*
D11*
X22025228Y-62394586D02*
G75*
G02*
X22400228Y-62019586I375000J0D01*
G01*
X22400228Y-66719586D02*
G75*
G02*
X22025228Y-66344586I0J375000D01*
G01*
X24700033Y-66719586D02*
G75*
G02*
X26325227Y-68319586I25000J-1599999D01*
G01*
X25875228Y-62019586D02*
G75*
G02*
X26250228Y-62394586I0J-375000D01*
G01*
X27975228Y-64119586D02*
G75*
G02*
X26250228Y-62394586I1J1725001D01*
G01*
%TO.C,S_MAT_34*%
X96291807Y-101786029D02*
X97961150Y-98206112D01*
X96473191Y-102284375D02*
X98557522Y-103256314D01*
X98459497Y-98024728D02*
X101608916Y-99493327D01*
X99596105Y-106057707D02*
X99354260Y-105393244D01*
X102624663Y-102284071D02*
X105434218Y-103594188D01*
X103447913Y-107853835D02*
X99596105Y-106057707D01*
X104112376Y-107611990D02*
X103447913Y-107853835D01*
X105676063Y-104258651D02*
X104112376Y-107611990D01*
X105676063Y-104258651D02*
X105434218Y-103594188D01*
D12*
X110432653Y-106421517D02*
X106798359Y-104726817D01*
X111277890Y-104608901D02*
X107643596Y-102914202D01*
X111277890Y-104608901D02*
X110432653Y-106421517D01*
D11*
X96473191Y-102284375D02*
G75*
G02*
X96291806Y-101786029I158482J339866D01*
G01*
X97961150Y-98206112D02*
G75*
G02*
X98459497Y-98024729I339865J-158482D01*
G01*
X98557522Y-103256314D02*
G75*
G02*
X99354259Y-105393244I-653531J-1460657D01*
G01*
X101608916Y-99493327D02*
G75*
G02*
X101790300Y-99991674I-158481J-339865D01*
G01*
X102624663Y-102284071D02*
G75*
G02*
X101790300Y-99991674I729019J1563381D01*
G01*
%TO.C,FB_USB_01*%
D12*
X145900606Y-41509586D02*
X146699850Y-41509586D01*
X145900606Y-42629586D02*
X146699850Y-42629586D01*
%TO.C,J2*%
X257530299Y-48246902D02*
X257530299Y-55976902D01*
X260290299Y-45596902D02*
X258910299Y-45596902D01*
X260290299Y-46976902D02*
X260290299Y-45596902D01*
X260290299Y-48246902D02*
X257530299Y-48246902D01*
X260290299Y-48246902D02*
X260290299Y-55976902D01*
X260290299Y-55976902D02*
X257530299Y-55976902D01*
%TO.C,S_MAT_23*%
D11*
X83045203Y-80206377D02*
X84067538Y-76390970D01*
X83310368Y-80665656D02*
X85531809Y-81260890D01*
X84526817Y-76125805D02*
X87883409Y-77025201D01*
X87041069Y-83839375D02*
X86687516Y-83227002D01*
X89368334Y-79597164D02*
X92362704Y-80399504D01*
X91146254Y-84939356D02*
X87041069Y-83839375D01*
X91758627Y-84585802D02*
X91146254Y-84939356D01*
X92716257Y-81011877D02*
X91758627Y-84585802D01*
X92716257Y-81011877D02*
X92362704Y-80399504D01*
D12*
X97776161Y-82315910D02*
X93902799Y-81278046D01*
X98293800Y-80384059D02*
X94420437Y-79346194D01*
X98293800Y-80384059D02*
X97776161Y-82315910D01*
D11*
X83310368Y-80665656D02*
G75*
G02*
X83045203Y-80206377I97057J362222D01*
G01*
X84067538Y-76390970D02*
G75*
G02*
X84526817Y-76125805I362222J-97057D01*
G01*
X85531809Y-81260890D02*
G75*
G02*
X86687516Y-83227002I-389962J-1551951D01*
G01*
X87883409Y-77025201D02*
G75*
G02*
X88148573Y-77484482I-97057J-362222D01*
G01*
X89368334Y-79597164D02*
G75*
G02*
X88148575Y-77484482I446462J1666221D01*
G01*
%TO.C,S_MAT_01*%
X50567446Y-37993560D02*
X51253357Y-34103570D01*
X50871631Y-38427981D02*
X53136497Y-38827338D01*
X51687778Y-33799385D02*
X55109985Y-34402812D01*
X54864744Y-41264471D02*
X54459165Y-40685243D01*
X56813420Y-36835570D02*
X59866324Y-37373879D01*
X59050177Y-42002475D02*
X54864744Y-41264471D01*
X59629405Y-41596896D02*
X59050177Y-42002475D01*
X60271904Y-37953107D02*
X59629405Y-41596896D01*
X60271904Y-37953107D02*
X59866324Y-37373879D01*
D12*
X65426207Y-38811180D02*
X61477128Y-38114849D01*
X65773504Y-36841563D02*
X61824425Y-36145234D01*
X65773504Y-36841563D02*
X65426207Y-38811180D01*
D11*
X50871631Y-38427981D02*
G75*
G02*
X50567446Y-37993560I65118J369303D01*
G01*
X51253357Y-34103570D02*
G75*
G02*
X51687778Y-33799385I369303J-65118D01*
G01*
X53136497Y-38827338D02*
G75*
G02*
X54459164Y-40685243I-253217J-1580033D01*
G01*
X55109985Y-34402812D02*
G75*
G02*
X55414170Y-34837233I-65118J-369303D01*
G01*
X56813420Y-36835570D02*
G75*
G02*
X55414170Y-34837233I299544J1698794D01*
G01*
%TO.C,S_MAT_21*%
X44663407Y-71477022D02*
X45349318Y-67587032D01*
X44967592Y-71911443D02*
X47232458Y-72310800D01*
X45783739Y-67282847D02*
X49205946Y-67886274D01*
X48960705Y-74747933D02*
X48555126Y-74168705D01*
X50909381Y-70319032D02*
X53962285Y-70857341D01*
X53146138Y-75485937D02*
X48960705Y-74747933D01*
X53725366Y-75080358D02*
X53146138Y-75485937D01*
X54367865Y-71436569D02*
X53725366Y-75080358D01*
X54367865Y-71436569D02*
X53962285Y-70857341D01*
D12*
X59522168Y-72294642D02*
X55573089Y-71598311D01*
X59869465Y-70325025D02*
X55920386Y-69628696D01*
X59869465Y-70325025D02*
X59522168Y-72294642D01*
D11*
X44967592Y-71911443D02*
G75*
G02*
X44663407Y-71477022I65118J369303D01*
G01*
X45349318Y-67587032D02*
G75*
G02*
X45783739Y-67282847I369303J-65118D01*
G01*
X47232458Y-72310800D02*
G75*
G02*
X48555125Y-74168705I-253217J-1580033D01*
G01*
X49205946Y-67886274D02*
G75*
G02*
X49510131Y-68320695I-65118J-369303D01*
G01*
X50909381Y-70319032D02*
G75*
G02*
X49510131Y-68320695I299544J1698794D01*
G01*
%TO.C,S_MAT_15*%
X122644392Y-95960417D02*
X124910019Y-92724767D01*
X122736483Y-96482691D02*
X124620373Y-97801805D01*
X125156720Y-100740986D02*
X125033932Y-100044621D01*
X125432292Y-92632676D02*
X128278845Y-94625854D01*
X128638116Y-103178686D02*
X125156720Y-100740986D01*
X128794554Y-97550584D02*
X131333926Y-99328671D01*
X129334481Y-103055898D02*
X128638116Y-103178686D01*
X131456713Y-100025035D02*
X129334481Y-103055898D01*
X131456713Y-100025035D02*
X131333926Y-99328671D01*
D12*
X135765462Y-102981015D02*
X132480664Y-100680974D01*
X136912615Y-101342711D02*
X133627816Y-99042669D01*
X136912615Y-101342711D02*
X135765462Y-102981015D01*
D11*
X122736483Y-96482691D02*
G75*
G02*
X122644392Y-95960417I215091J307182D01*
G01*
X124620373Y-97801805D02*
G75*
G02*
X125033931Y-100044620I-897243J-1324981D01*
G01*
X124910019Y-92724767D02*
G75*
G02*
X125432292Y-92632676I307182J-215091D01*
G01*
X128278845Y-94625854D02*
G75*
G02*
X128370936Y-95148127I-215091J-307182D01*
G01*
X128794554Y-97550584D02*
G75*
G02*
X128370936Y-95148127I989421J1413038D01*
G01*
%TO.C,S_MAT_02*%
X75495050Y-38614899D02*
X76517385Y-34799492D01*
X75760215Y-39074178D02*
X77981656Y-39669412D01*
X76976664Y-34534327D02*
X80333256Y-35433723D01*
X79490916Y-42247897D02*
X79137363Y-41635524D01*
X81818181Y-38005686D02*
X84812551Y-38808026D01*
X83596101Y-43347878D02*
X79490916Y-42247897D01*
X84208474Y-42994324D02*
X83596101Y-43347878D01*
X85166104Y-39420399D02*
X84208474Y-42994324D01*
X85166104Y-39420399D02*
X84812551Y-38808026D01*
D12*
X90226008Y-40724432D02*
X86352646Y-39686568D01*
X90743647Y-38792581D02*
X86870284Y-37754716D01*
X90743647Y-38792581D02*
X90226008Y-40724432D01*
D11*
X75760215Y-39074178D02*
G75*
G02*
X75495050Y-38614899I97057J362222D01*
G01*
X76517385Y-34799492D02*
G75*
G02*
X76976664Y-34534327I362222J-97057D01*
G01*
X77981656Y-39669412D02*
G75*
G02*
X79137363Y-41635524I-389962J-1551951D01*
G01*
X80333256Y-35433723D02*
G75*
G02*
X80598420Y-35893004I-97057J-362222D01*
G01*
X81818181Y-38005686D02*
G75*
G02*
X80598422Y-35893004I446462J1666221D01*
G01*
%TO.C,S_MAT_24*%
X100345203Y-84906377D02*
X101367538Y-81090970D01*
X100610368Y-85365656D02*
X102831809Y-85960890D01*
X101826817Y-80825805D02*
X105183409Y-81725201D01*
X104341069Y-88539375D02*
X103987516Y-87927002D01*
X106668334Y-84297164D02*
X109662704Y-85099504D01*
X108446254Y-89639356D02*
X104341069Y-88539375D01*
X109058627Y-89285802D02*
X108446254Y-89639356D01*
X110016257Y-85711877D02*
X109058627Y-89285802D01*
X110016257Y-85711877D02*
X109662704Y-85099504D01*
D12*
X115076161Y-87015910D02*
X111202799Y-85978046D01*
X115593800Y-85084059D02*
X111720437Y-84046194D01*
X115593800Y-85084059D02*
X115076161Y-87015910D01*
D11*
X100610368Y-85365656D02*
G75*
G02*
X100345203Y-84906377I97057J362222D01*
G01*
X101367538Y-81090970D02*
G75*
G02*
X101826817Y-80825805I362222J-97057D01*
G01*
X102831809Y-85960890D02*
G75*
G02*
X103987516Y-87927002I-389962J-1551951D01*
G01*
X105183409Y-81725201D02*
G75*
G02*
X105448573Y-82184482I-97057J-362222D01*
G01*
X106668334Y-84297164D02*
G75*
G02*
X105448575Y-82184482I446462J1666221D01*
G01*
%TO.C,S_MAT_33*%
X78645279Y-96627116D02*
X79667614Y-92811709D01*
X78910444Y-97086395D02*
X81131885Y-97681629D01*
X80126893Y-92546544D02*
X83483485Y-93445940D01*
X82641145Y-100260114D02*
X82287592Y-99647741D01*
X84968410Y-96017903D02*
X87962780Y-96820243D01*
X86746330Y-101360095D02*
X82641145Y-100260114D01*
X87358703Y-101006541D02*
X86746330Y-101360095D01*
X88316333Y-97432616D02*
X87358703Y-101006541D01*
X88316333Y-97432616D02*
X87962780Y-96820243D01*
D12*
X93376237Y-98736649D02*
X89502875Y-97698785D01*
X93893876Y-96804798D02*
X90020513Y-95766933D01*
X93893876Y-96804798D02*
X93376237Y-98736649D01*
D11*
X78910444Y-97086395D02*
G75*
G02*
X78645279Y-96627116I97057J362222D01*
G01*
X79667614Y-92811709D02*
G75*
G02*
X80126893Y-92546544I362222J-97057D01*
G01*
X81131885Y-97681629D02*
G75*
G02*
X82287592Y-99647741I-389962J-1551951D01*
G01*
X83483485Y-93445940D02*
G75*
G02*
X83748649Y-93905221I-97057J-362222D01*
G01*
X84968410Y-96017903D02*
G75*
G02*
X83748651Y-93905221I446462J1666221D01*
G01*
%TO.C,S_MAT_13*%
X87445126Y-63785638D02*
X88467461Y-59970231D01*
X87710291Y-64244917D02*
X89931732Y-64840151D01*
X88926740Y-59705066D02*
X92283332Y-60604462D01*
X91440992Y-67418636D02*
X91087439Y-66806263D01*
X93768257Y-63176425D02*
X96762627Y-63978765D01*
X95546177Y-68518617D02*
X91440992Y-67418636D01*
X96158550Y-68165063D02*
X95546177Y-68518617D01*
X97116180Y-64591138D02*
X96158550Y-68165063D01*
X97116180Y-64591138D02*
X96762627Y-63978765D01*
D12*
X102176084Y-65895171D02*
X98302722Y-64857307D01*
X102693723Y-63963320D02*
X98820360Y-62925455D01*
X102693723Y-63963320D02*
X102176084Y-65895171D01*
D11*
X87710291Y-64244917D02*
G75*
G02*
X87445126Y-63785638I97057J362222D01*
G01*
X88467461Y-59970231D02*
G75*
G02*
X88926740Y-59705066I362222J-97057D01*
G01*
X89931732Y-64840151D02*
G75*
G02*
X91087439Y-66806263I-389962J-1551951D01*
G01*
X92283332Y-60604462D02*
G75*
G02*
X92548496Y-61063743I-97057J-362222D01*
G01*
X93768257Y-63176425D02*
G75*
G02*
X92548498Y-61063743I446462J1666221D01*
G01*
%TO.C,S_MAT_00*%
X22025228Y-49344587D02*
X22025228Y-45394587D01*
X22400228Y-45019587D02*
X25875228Y-45019587D01*
X22400228Y-49719587D02*
X24700033Y-49719587D01*
X26825228Y-51819587D02*
X26325228Y-51319587D01*
X27975228Y-47119587D02*
X31075228Y-47119587D01*
X31075228Y-51819587D02*
X26825228Y-51819587D01*
X31575228Y-47619587D02*
X31075228Y-47119587D01*
X31575228Y-47619587D02*
X31575228Y-51319587D01*
X31575228Y-51319587D02*
X31075228Y-51819587D01*
D12*
X36800229Y-45569587D02*
X32790229Y-45569587D01*
X36800229Y-45569587D02*
X36800229Y-47569587D01*
X36800229Y-47569587D02*
X32790229Y-47569587D01*
D11*
X22025228Y-45394587D02*
G75*
G02*
X22400228Y-45019587I375000J0D01*
G01*
X22400228Y-49719587D02*
G75*
G02*
X22025228Y-49344587I0J375000D01*
G01*
X24700033Y-49719587D02*
G75*
G02*
X26325227Y-51319587I25000J-1599999D01*
G01*
X25875228Y-45019587D02*
G75*
G02*
X26250228Y-45394587I0J-375000D01*
G01*
X27975228Y-47119587D02*
G75*
G02*
X26250228Y-45394587I1J1725001D01*
G01*
%TO.C,S_MAT_14*%
X104745126Y-68485638D02*
X105767461Y-64670231D01*
X105010291Y-68944917D02*
X107231732Y-69540151D01*
X106226740Y-64405066D02*
X109583332Y-65304462D01*
X108740992Y-72118636D02*
X108387439Y-71506263D01*
X111068257Y-67876425D02*
X114062627Y-68678765D01*
X112846177Y-73218617D02*
X108740992Y-72118636D01*
X113458550Y-72865063D02*
X112846177Y-73218617D01*
X114416180Y-69291138D02*
X113458550Y-72865063D01*
X114416180Y-69291138D02*
X114062627Y-68678765D01*
D12*
X119476084Y-70595171D02*
X115602722Y-69557307D01*
X119993723Y-68663320D02*
X116120360Y-67625455D01*
X119993723Y-68663320D02*
X119476084Y-70595171D01*
D11*
X105010291Y-68944917D02*
G75*
G02*
X104745126Y-68485638I97057J362222D01*
G01*
X105767461Y-64670231D02*
G75*
G02*
X106226740Y-64405066I362222J-97057D01*
G01*
X107231732Y-69540151D02*
G75*
G02*
X108387439Y-71506263I-389962J-1551951D01*
G01*
X109583332Y-65304462D02*
G75*
G02*
X109848496Y-65763743I-97057J-362222D01*
G01*
X111068257Y-67876425D02*
G75*
G02*
X109848498Y-65763743I446462J1666221D01*
G01*
%TO.C,S_MAT_20*%
X22025228Y-83344587D02*
X22025228Y-79394587D01*
X22400228Y-79019587D02*
X25875228Y-79019587D01*
X22400228Y-83719587D02*
X24700033Y-83719587D01*
X26825228Y-85819587D02*
X26325228Y-85319587D01*
X27975228Y-81119587D02*
X31075228Y-81119587D01*
X31075228Y-85819587D02*
X26825228Y-85819587D01*
X31575228Y-81619587D02*
X31075228Y-81119587D01*
X31575228Y-81619587D02*
X31575228Y-85319587D01*
X31575228Y-85319587D02*
X31075228Y-85819587D01*
D12*
X36800229Y-79569587D02*
X32790229Y-79569587D01*
X36800229Y-79569587D02*
X36800229Y-81569587D01*
X36800229Y-81569587D02*
X32790229Y-81569587D01*
D11*
X22025228Y-79394587D02*
G75*
G02*
X22400228Y-79019587I375000J0D01*
G01*
X22400228Y-83719587D02*
G75*
G02*
X22025228Y-83344587I0J375000D01*
G01*
X24700033Y-83719587D02*
G75*
G02*
X26325227Y-85319587I25000J-1599999D01*
G01*
X25875228Y-79019587D02*
G75*
G02*
X26250228Y-79394587I0J-375000D01*
G01*
X27975228Y-81119587D02*
G75*
G02*
X26250228Y-79394587I1J1725001D01*
G01*
%TO.C,S_MAT_04*%
X109145050Y-52064899D02*
X110167385Y-48249492D01*
X109410215Y-52524178D02*
X111631656Y-53119412D01*
X110626664Y-47984327D02*
X113983256Y-48883723D01*
X113140916Y-55697897D02*
X112787363Y-55085524D01*
X115468181Y-51455686D02*
X118462551Y-52258026D01*
X117246101Y-56797878D02*
X113140916Y-55697897D01*
X117858474Y-56444324D02*
X117246101Y-56797878D01*
X118816104Y-52870399D02*
X117858474Y-56444324D01*
X118816104Y-52870399D02*
X118462551Y-52258026D01*
D12*
X123876008Y-54174432D02*
X120002646Y-53136568D01*
X124393647Y-52242581D02*
X120520284Y-51204716D01*
X124393647Y-52242581D02*
X123876008Y-54174432D01*
D11*
X109410215Y-52524178D02*
G75*
G02*
X109145050Y-52064899I97057J362222D01*
G01*
X110167385Y-48249492D02*
G75*
G02*
X110626664Y-47984327I362222J-97057D01*
G01*
X111631656Y-53119412D02*
G75*
G02*
X112787363Y-55085524I-389962J-1551951D01*
G01*
X113983256Y-48883723D02*
G75*
G02*
X114248420Y-49343004I-97057J-362222D01*
G01*
X115468181Y-51455686D02*
G75*
G02*
X114248422Y-49343004I446462J1666221D01*
G01*
%TO.C,S_MAT_31*%
X41674459Y-88212241D02*
X42360370Y-84322251D01*
X41978644Y-88646662D02*
X44243510Y-89046019D01*
X42794791Y-84018066D02*
X46216998Y-84621493D01*
X45971757Y-91483152D02*
X45566178Y-90903924D01*
X47920433Y-87054251D02*
X50973337Y-87592560D01*
X50157190Y-92221156D02*
X45971757Y-91483152D01*
X50736418Y-91815577D02*
X50157190Y-92221156D01*
X51378917Y-88171788D02*
X50736418Y-91815577D01*
X51378917Y-88171788D02*
X50973337Y-87592560D01*
D12*
X56533220Y-89029861D02*
X52584141Y-88333530D01*
X56880517Y-87060244D02*
X52931438Y-86363915D01*
X56880517Y-87060244D02*
X56533220Y-89029861D01*
D11*
X41978644Y-88646662D02*
G75*
G02*
X41674459Y-88212241I65118J369303D01*
G01*
X42360370Y-84322251D02*
G75*
G02*
X42794791Y-84018066I369303J-65118D01*
G01*
X44243510Y-89046019D02*
G75*
G02*
X45566177Y-90903924I-253217J-1580033D01*
G01*
X46216998Y-84621493D02*
G75*
G02*
X46521183Y-85055914I-65118J-369303D01*
G01*
X47920433Y-87054251D02*
G75*
G02*
X46521183Y-85055914I299544J1698794D01*
G01*
%TO.C,SW_RST_01*%
D12*
X173790596Y-81477498D02*
X173881227Y-81435237D01*
X173790596Y-81477498D02*
X176410829Y-87096607D01*
X175240689Y-80801309D02*
X177959612Y-79533454D01*
X176501460Y-87054345D02*
X176410829Y-87096607D01*
X177860922Y-86420418D02*
X180579845Y-85152563D01*
X179409705Y-78857265D02*
X179319074Y-78899527D01*
X179409705Y-78857265D02*
X182029938Y-84476374D01*
X182029938Y-84476374D02*
X181939307Y-84518635D01*
%TO.C,S_MAT_12*%
D11*
X71095126Y-55035638D02*
X72117461Y-51220231D01*
X71360291Y-55494917D02*
X73581732Y-56090151D01*
X72576740Y-50955066D02*
X75933332Y-51854462D01*
X75090992Y-58668636D02*
X74737439Y-58056263D01*
X77418257Y-54426425D02*
X80412627Y-55228765D01*
X79196177Y-59768617D02*
X75090992Y-58668636D01*
X79808550Y-59415063D02*
X79196177Y-59768617D01*
X80766180Y-55841138D02*
X79808550Y-59415063D01*
X80766180Y-55841138D02*
X80412627Y-55228765D01*
D12*
X85826084Y-57145171D02*
X81952722Y-56107307D01*
X86343723Y-55213320D02*
X82470360Y-54175455D01*
X86343723Y-55213320D02*
X85826084Y-57145171D01*
D11*
X71360291Y-55494917D02*
G75*
G02*
X71095126Y-55035638I97057J362222D01*
G01*
X72117461Y-51220231D02*
G75*
G02*
X72576740Y-50955066I362222J-97057D01*
G01*
X73581732Y-56090151D02*
G75*
G02*
X74737439Y-58056263I-389962J-1551951D01*
G01*
X75933332Y-51854462D02*
G75*
G02*
X76198496Y-52313743I-97057J-362222D01*
G01*
X77418257Y-54426425D02*
G75*
G02*
X76198498Y-52313743I446462J1666221D01*
G01*
%TO.C,S_MAT_35*%
X127822485Y-120708926D02*
X130615556Y-117915854D01*
X127822485Y-121239256D02*
X129448692Y-122865464D01*
X129466508Y-125853128D02*
X129466508Y-125146021D01*
X131145886Y-117915854D02*
X133603082Y-120373050D01*
X132471712Y-128858331D02*
X129466508Y-125853128D01*
X133178818Y-128858331D02*
X132471712Y-128858331D01*
X133603082Y-123342899D02*
X135795113Y-125534930D01*
X135795113Y-126242036D02*
X133178818Y-128858331D01*
X135795113Y-126242036D02*
X135795113Y-125534930D01*
D12*
X139525102Y-129901315D02*
X136689604Y-127065816D01*
X140939316Y-128487101D02*
X138103818Y-125651603D01*
X140939316Y-128487101D02*
X139525102Y-129901315D01*
D11*
X127822485Y-121239256D02*
G75*
G02*
X127822485Y-120708926I265165J265165D01*
G01*
X129448692Y-122865464D02*
G75*
G02*
X129466507Y-125146020I-1113692J-1149047D01*
G01*
X130615556Y-117915854D02*
G75*
G02*
X131145886Y-117915854I265165J-265165D01*
G01*
X133603082Y-120373050D02*
G75*
G02*
X133603082Y-120903380I-265165J-265165D01*
G01*
X133603082Y-123342899D02*
G75*
G02*
X133603082Y-120903380I1219762J1219759D01*
G01*
%TO.C,S_MAT_03*%
X91845050Y-47364899D02*
X92867385Y-43549492D01*
X92110215Y-47824178D02*
X94331656Y-48419412D01*
X93326664Y-43284327D02*
X96683256Y-44183723D01*
X95840916Y-50997897D02*
X95487363Y-50385524D01*
X98168181Y-46755686D02*
X101162551Y-47558026D01*
X99946101Y-52097878D02*
X95840916Y-50997897D01*
X100558474Y-51744324D02*
X99946101Y-52097878D01*
X101516104Y-48170399D02*
X100558474Y-51744324D01*
X101516104Y-48170399D02*
X101162551Y-47558026D01*
D12*
X106576008Y-49474432D02*
X102702646Y-48436568D01*
X107093647Y-47542581D02*
X103220284Y-46504716D01*
X107093647Y-47542581D02*
X106576008Y-49474432D01*
D11*
X92110215Y-47824178D02*
G75*
G02*
X91845050Y-47364899I97057J362222D01*
G01*
X92867385Y-43549492D02*
G75*
G02*
X93326664Y-43284327I362222J-97057D01*
G01*
X94331656Y-48419412D02*
G75*
G02*
X95487363Y-50385524I-389962J-1551951D01*
G01*
X96683256Y-44183723D02*
G75*
G02*
X96948420Y-44643004I-97057J-362222D01*
G01*
X98168181Y-46755686D02*
G75*
G02*
X96948422Y-44643004I446462J1666221D01*
G01*
%TO.C,S_MAT_22*%
X66695203Y-71456377D02*
X67717538Y-67640970D01*
X66960368Y-71915656D02*
X69181809Y-72510890D01*
X68176817Y-67375805D02*
X71533409Y-68275201D01*
X70691069Y-75089375D02*
X70337516Y-74477002D01*
X73018334Y-70847164D02*
X76012704Y-71649504D01*
X74796254Y-76189356D02*
X70691069Y-75089375D01*
X75408627Y-75835802D02*
X74796254Y-76189356D01*
X76366257Y-72261877D02*
X75408627Y-75835802D01*
X76366257Y-72261877D02*
X76012704Y-71649504D01*
D12*
X81426161Y-73565910D02*
X77552799Y-72528046D01*
X81943800Y-71634059D02*
X78070437Y-70596194D01*
X81943800Y-71634059D02*
X81426161Y-73565910D01*
D11*
X66960368Y-71915656D02*
G75*
G02*
X66695203Y-71456377I97057J362222D01*
G01*
X67717538Y-67640970D02*
G75*
G02*
X68176817Y-67375805I362222J-97057D01*
G01*
X69181809Y-72510890D02*
G75*
G02*
X70337516Y-74477002I-389962J-1551951D01*
G01*
X71533409Y-68275201D02*
G75*
G02*
X71798573Y-68734482I-97057J-362222D01*
G01*
X73018334Y-70847164D02*
G75*
G02*
X71798575Y-68734482I446462J1666221D01*
G01*
%TO.C,S_MAT_11*%
X47615427Y-54735292D02*
X48301338Y-50845302D01*
X47919612Y-55169713D02*
X50184478Y-55569070D01*
X48735759Y-50541117D02*
X52157966Y-51144544D01*
X51912725Y-58006203D02*
X51507146Y-57426975D01*
X53861401Y-53577302D02*
X56914305Y-54115611D01*
X56098158Y-58744207D02*
X51912725Y-58006203D01*
X56677386Y-58338628D02*
X56098158Y-58744207D01*
X57319885Y-54694839D02*
X56677386Y-58338628D01*
X57319885Y-54694839D02*
X56914305Y-54115611D01*
D12*
X62474188Y-55552912D02*
X58525109Y-54856581D01*
X62821485Y-53583295D02*
X58872406Y-52886966D01*
X62821485Y-53583295D02*
X62474188Y-55552912D01*
D11*
X47919612Y-55169713D02*
G75*
G02*
X47615427Y-54735292I65118J369303D01*
G01*
X48301338Y-50845302D02*
G75*
G02*
X48735759Y-50541117I369303J-65118D01*
G01*
X50184478Y-55569070D02*
G75*
G02*
X51507145Y-57426975I-253217J-1580033D01*
G01*
X52157966Y-51144544D02*
G75*
G02*
X52462151Y-51578965I-65118J-369303D01*
G01*
X53861401Y-53577302D02*
G75*
G02*
X52462151Y-51578965I299544J1698794D01*
G01*
%TO.C,S_MAT_25*%
X112894662Y-109858080D02*
X115160289Y-106622430D01*
X112986753Y-110380354D02*
X114870643Y-111699468D01*
X115406990Y-114638649D02*
X115284202Y-113942284D01*
X115682562Y-106530339D02*
X118529115Y-108523517D01*
X118888386Y-117076349D02*
X115406990Y-114638649D01*
X119044824Y-111448247D02*
X121584196Y-113226334D01*
X119584751Y-116953561D02*
X118888386Y-117076349D01*
X121706983Y-113922698D02*
X119584751Y-116953561D01*
X121706983Y-113922698D02*
X121584196Y-113226334D01*
D12*
X126015732Y-116878678D02*
X122730934Y-114578637D01*
X127162885Y-115240374D02*
X123878086Y-112940332D01*
X127162885Y-115240374D02*
X126015732Y-116878678D01*
D11*
X112986753Y-110380354D02*
G75*
G02*
X112894662Y-109858080I215091J307182D01*
G01*
X114870643Y-111699468D02*
G75*
G02*
X115284201Y-113942283I-897243J-1324981D01*
G01*
X115160289Y-106622430D02*
G75*
G02*
X115682562Y-106530339I307182J-215091D01*
G01*
X118529115Y-108523517D02*
G75*
G02*
X118621206Y-109045790I-215091J-307182D01*
G01*
X119044824Y-111448247D02*
G75*
G02*
X118621206Y-109045790I989421J1413038D01*
G01*
%TO.C,S_MAT_32*%
X62295279Y-87877116D02*
X63317614Y-84061709D01*
X62560444Y-88336395D02*
X64781885Y-88931629D01*
X63776893Y-83796544D02*
X67133485Y-84695940D01*
X66291145Y-91510114D02*
X65937592Y-90897741D01*
X68618410Y-87267903D02*
X71612780Y-88070243D01*
X70396330Y-92610095D02*
X66291145Y-91510114D01*
X71008703Y-92256541D02*
X70396330Y-92610095D01*
X71966333Y-88682616D02*
X71008703Y-92256541D01*
X71966333Y-88682616D02*
X71612780Y-88070243D01*
D12*
X77026237Y-89986649D02*
X73152875Y-88948785D01*
X77543876Y-88054798D02*
X73670513Y-87016933D01*
X77543876Y-88054798D02*
X77026237Y-89986649D01*
D11*
X62560444Y-88336395D02*
G75*
G02*
X62295279Y-87877116I97057J362222D01*
G01*
X63317614Y-84061709D02*
G75*
G02*
X63776893Y-83796544I362222J-97057D01*
G01*
X64781885Y-88931629D02*
G75*
G02*
X65937592Y-90897741I-389962J-1551951D01*
G01*
X67133485Y-84695940D02*
G75*
G02*
X67398649Y-85155221I-97057J-362222D01*
G01*
X68618410Y-87267903D02*
G75*
G02*
X67398651Y-85155221I446462J1666221D01*
G01*
%TD*%
M02*
