M48
; DRILL file KiCad 10.0.3-10.0.3~ubuntu24.04.1 date 2026-05-19T22:17:19
; FORMAT={-:-/ absolute / metric / decimal}
; #@! TF.CreationDate,2026-05-19T22:17:19-05:00
; #@! TF.GenerationSoftware,Kicad,Pcbnew,10.0.3-10.0.3~ubuntu24.04.1
; #@! TF.FileFunction,NonPlated,1,2,NPTH
FMAT,2
METRIC
; #@! TA.AperFunction,NonPlated,NPTH,ComponentDrill
T1C0.500
; #@! TA.AperFunction,NonPlated,NPTH,ComponentDrill
T2C0.650
; #@! TA.AperFunction,NonPlated,NPTH,ComponentDrill
T3C5.000
%
G90
G05
T1
X149.05Y-91.95
X149.05Y-92.8
X149.05Y-93.65
X149.05Y-94.5
X149.05Y-95.35
X149.05Y-109.95
X149.05Y-110.8
X149.05Y-111.65
X149.05Y-112.5
X149.05Y-113.35
X149.05Y-129.95
X149.05Y-130.8
X149.05Y-131.65
X149.05Y-132.5
X149.05Y-133.35
X151.55Y-91.95
X151.55Y-92.8
X151.55Y-93.65
X151.55Y-94.5
X151.55Y-95.35
X151.55Y-109.95
X151.55Y-110.8
X151.55Y-111.65
X151.55Y-112.5
X151.55Y-113.35
X151.55Y-129.95
X151.55Y-130.8
X151.55Y-131.65
X151.55Y-132.5
X151.55Y-133.35
T2
X136.41Y-42.07
X142.19Y-42.07
T3
X29.3Y-43.57
X29.3Y-60.57
X29.3Y-77.57
X49.842Y-83.788
X52.831Y-67.053
X55.783Y-50.311
X58.735Y-33.57
X70.817Y-84.182
X75.217Y-67.761
X79.617Y-51.34
X84.017Y-34.92
X87.167Y-92.932
X91.567Y-76.511
X95.967Y-60.09
X100.367Y-43.67
X105.326Y-99.627
X108.867Y-81.211
X113.267Y-64.79
X117.667Y-48.37
X122.166Y-109.3
X131.916Y-95.403
X137.05Y-121.77
M30
