%TF.GenerationSoftware,KiCad,Pcbnew,10.0.3-10.0.3~ubuntu24.04.1*%
%TF.CreationDate,2026-05-19T22:17:26-05:00*%
%TF.ProjectId,androphage_switch,616e6472-6f70-4686-9167-655f73776974,rev?*%
%TF.SameCoordinates,Original*%
%TF.FileFunction,Legend,Top*%
%TF.FilePolarity,Positive*%
%FSLAX46Y46*%
G04 Gerber Fmt 4.6, Leading zero omitted, Abs format (unit mm)*
G04 Created by KiCad (PCBNEW 10.0.3-10.0.3~ubuntu24.04.1) date 2026-05-19 22:17:26*
%MOMM*%
%LPD*%
G01*
G04 APERTURE LIST*
%ADD10C,0.150000*%
%ADD11C,0.254000*%
%ADD12C,0.100000*%
%ADD13C,0.140000*%
%ADD14C,0.120000*%
%ADD15C,0.200000*%
G04 APERTURE END LIST*
D10*
X128300228Y-44924405D02*
X128300228Y-45733928D01*
X128300228Y-45733928D02*
X128347847Y-45829166D01*
X128347847Y-45829166D02*
X128395466Y-45876786D01*
X128395466Y-45876786D02*
X128490704Y-45924405D01*
X128490704Y-45924405D02*
X128681180Y-45924405D01*
X128681180Y-45924405D02*
X128776418Y-45876786D01*
X128776418Y-45876786D02*
X128824037Y-45829166D01*
X128824037Y-45829166D02*
X128871656Y-45733928D01*
X128871656Y-45733928D02*
X128871656Y-44924405D01*
X129109752Y-46019643D02*
X129871656Y-46019643D01*
X130109752Y-44924405D02*
X130109752Y-45733928D01*
X130109752Y-45733928D02*
X130157371Y-45829166D01*
X130157371Y-45829166D02*
X130204990Y-45876786D01*
X130204990Y-45876786D02*
X130300228Y-45924405D01*
X130300228Y-45924405D02*
X130490704Y-45924405D01*
X130490704Y-45924405D02*
X130585942Y-45876786D01*
X130585942Y-45876786D02*
X130633561Y-45829166D01*
X130633561Y-45829166D02*
X130681180Y-45733928D01*
X130681180Y-45733928D02*
X130681180Y-44924405D01*
X131109752Y-45876786D02*
X131252609Y-45924405D01*
X131252609Y-45924405D02*
X131490704Y-45924405D01*
X131490704Y-45924405D02*
X131585942Y-45876786D01*
X131585942Y-45876786D02*
X131633561Y-45829166D01*
X131633561Y-45829166D02*
X131681180Y-45733928D01*
X131681180Y-45733928D02*
X131681180Y-45638690D01*
X131681180Y-45638690D02*
X131633561Y-45543452D01*
X131633561Y-45543452D02*
X131585942Y-45495833D01*
X131585942Y-45495833D02*
X131490704Y-45448214D01*
X131490704Y-45448214D02*
X131300228Y-45400595D01*
X131300228Y-45400595D02*
X131204990Y-45352976D01*
X131204990Y-45352976D02*
X131157371Y-45305357D01*
X131157371Y-45305357D02*
X131109752Y-45210119D01*
X131109752Y-45210119D02*
X131109752Y-45114881D01*
X131109752Y-45114881D02*
X131157371Y-45019643D01*
X131157371Y-45019643D02*
X131204990Y-44972024D01*
X131204990Y-44972024D02*
X131300228Y-44924405D01*
X131300228Y-44924405D02*
X131538323Y-44924405D01*
X131538323Y-44924405D02*
X131681180Y-44972024D01*
X132443085Y-45400595D02*
X132585942Y-45448214D01*
X132585942Y-45448214D02*
X132633561Y-45495833D01*
X132633561Y-45495833D02*
X132681180Y-45591071D01*
X132681180Y-45591071D02*
X132681180Y-45733928D01*
X132681180Y-45733928D02*
X132633561Y-45829166D01*
X132633561Y-45829166D02*
X132585942Y-45876786D01*
X132585942Y-45876786D02*
X132490704Y-45924405D01*
X132490704Y-45924405D02*
X132109752Y-45924405D01*
X132109752Y-45924405D02*
X132109752Y-44924405D01*
X132109752Y-44924405D02*
X132443085Y-44924405D01*
X132443085Y-44924405D02*
X132538323Y-44972024D01*
X132538323Y-44972024D02*
X132585942Y-45019643D01*
X132585942Y-45019643D02*
X132633561Y-45114881D01*
X132633561Y-45114881D02*
X132633561Y-45210119D01*
X132633561Y-45210119D02*
X132585942Y-45305357D01*
X132585942Y-45305357D02*
X132538323Y-45352976D01*
X132538323Y-45352976D02*
X132443085Y-45400595D01*
X132443085Y-45400595D02*
X132109752Y-45400595D01*
X132871657Y-46019643D02*
X133633561Y-46019643D01*
X134062133Y-44924405D02*
X134157371Y-44924405D01*
X134157371Y-44924405D02*
X134252609Y-44972024D01*
X134252609Y-44972024D02*
X134300228Y-45019643D01*
X134300228Y-45019643D02*
X134347847Y-45114881D01*
X134347847Y-45114881D02*
X134395466Y-45305357D01*
X134395466Y-45305357D02*
X134395466Y-45543452D01*
X134395466Y-45543452D02*
X134347847Y-45733928D01*
X134347847Y-45733928D02*
X134300228Y-45829166D01*
X134300228Y-45829166D02*
X134252609Y-45876786D01*
X134252609Y-45876786D02*
X134157371Y-45924405D01*
X134157371Y-45924405D02*
X134062133Y-45924405D01*
X134062133Y-45924405D02*
X133966895Y-45876786D01*
X133966895Y-45876786D02*
X133919276Y-45829166D01*
X133919276Y-45829166D02*
X133871657Y-45733928D01*
X133871657Y-45733928D02*
X133824038Y-45543452D01*
X133824038Y-45543452D02*
X133824038Y-45305357D01*
X133824038Y-45305357D02*
X133871657Y-45114881D01*
X133871657Y-45114881D02*
X133919276Y-45019643D01*
X133919276Y-45019643D02*
X133966895Y-44972024D01*
X133966895Y-44972024D02*
X134062133Y-44924405D01*
X135347847Y-45924405D02*
X134776419Y-45924405D01*
X135062133Y-45924405D02*
X135062133Y-44924405D01*
X135062133Y-44924405D02*
X134966895Y-45067262D01*
X134966895Y-45067262D02*
X134871657Y-45162500D01*
X134871657Y-45162500D02*
X134776419Y-45210119D01*
X127300227Y-46974405D02*
X126966894Y-46498214D01*
X126728799Y-46974405D02*
X126728799Y-45974405D01*
X126728799Y-45974405D02*
X127109751Y-45974405D01*
X127109751Y-45974405D02*
X127204989Y-46022024D01*
X127204989Y-46022024D02*
X127252608Y-46069643D01*
X127252608Y-46069643D02*
X127300227Y-46164881D01*
X127300227Y-46164881D02*
X127300227Y-46307738D01*
X127300227Y-46307738D02*
X127252608Y-46402976D01*
X127252608Y-46402976D02*
X127204989Y-46450595D01*
X127204989Y-46450595D02*
X127109751Y-46498214D01*
X127109751Y-46498214D02*
X126728799Y-46498214D01*
X127490704Y-47069643D02*
X128252608Y-47069643D01*
X128490704Y-46974405D02*
X128490704Y-45974405D01*
X128490704Y-45974405D02*
X128871656Y-45974405D01*
X128871656Y-45974405D02*
X128966894Y-46022024D01*
X128966894Y-46022024D02*
X129014513Y-46069643D01*
X129014513Y-46069643D02*
X129062132Y-46164881D01*
X129062132Y-46164881D02*
X129062132Y-46307738D01*
X129062132Y-46307738D02*
X129014513Y-46402976D01*
X129014513Y-46402976D02*
X128966894Y-46450595D01*
X128966894Y-46450595D02*
X128871656Y-46498214D01*
X128871656Y-46498214D02*
X128490704Y-46498214D01*
X129681180Y-45974405D02*
X129871656Y-45974405D01*
X129871656Y-45974405D02*
X129966894Y-46022024D01*
X129966894Y-46022024D02*
X130062132Y-46117262D01*
X130062132Y-46117262D02*
X130109751Y-46307738D01*
X130109751Y-46307738D02*
X130109751Y-46641071D01*
X130109751Y-46641071D02*
X130062132Y-46831547D01*
X130062132Y-46831547D02*
X129966894Y-46926786D01*
X129966894Y-46926786D02*
X129871656Y-46974405D01*
X129871656Y-46974405D02*
X129681180Y-46974405D01*
X129681180Y-46974405D02*
X129585942Y-46926786D01*
X129585942Y-46926786D02*
X129490704Y-46831547D01*
X129490704Y-46831547D02*
X129443085Y-46641071D01*
X129443085Y-46641071D02*
X129443085Y-46307738D01*
X129443085Y-46307738D02*
X129490704Y-46117262D01*
X129490704Y-46117262D02*
X129585942Y-46022024D01*
X129585942Y-46022024D02*
X129681180Y-45974405D01*
X130443085Y-45974405D02*
X130681180Y-46974405D01*
X130681180Y-46974405D02*
X130871656Y-46260119D01*
X130871656Y-46260119D02*
X131062132Y-46974405D01*
X131062132Y-46974405D02*
X131300228Y-45974405D01*
X131443085Y-47069643D02*
X132204989Y-47069643D01*
X132633561Y-45974405D02*
X132728799Y-45974405D01*
X132728799Y-45974405D02*
X132824037Y-46022024D01*
X132824037Y-46022024D02*
X132871656Y-46069643D01*
X132871656Y-46069643D02*
X132919275Y-46164881D01*
X132919275Y-46164881D02*
X132966894Y-46355357D01*
X132966894Y-46355357D02*
X132966894Y-46593452D01*
X132966894Y-46593452D02*
X132919275Y-46783928D01*
X132919275Y-46783928D02*
X132871656Y-46879166D01*
X132871656Y-46879166D02*
X132824037Y-46926786D01*
X132824037Y-46926786D02*
X132728799Y-46974405D01*
X132728799Y-46974405D02*
X132633561Y-46974405D01*
X132633561Y-46974405D02*
X132538323Y-46926786D01*
X132538323Y-46926786D02*
X132490704Y-46879166D01*
X132490704Y-46879166D02*
X132443085Y-46783928D01*
X132443085Y-46783928D02*
X132395466Y-46593452D01*
X132395466Y-46593452D02*
X132395466Y-46355357D01*
X132395466Y-46355357D02*
X132443085Y-46164881D01*
X132443085Y-46164881D02*
X132490704Y-46069643D01*
X132490704Y-46069643D02*
X132538323Y-46022024D01*
X132538323Y-46022024D02*
X132633561Y-45974405D01*
X133919275Y-46974405D02*
X133347847Y-46974405D01*
X133633561Y-46974405D02*
X133633561Y-45974405D01*
X133633561Y-45974405D02*
X133538323Y-46117262D01*
X133538323Y-46117262D02*
X133443085Y-46212500D01*
X133443085Y-46212500D02*
X133347847Y-46260119D01*
X136228798Y-44569405D02*
X136228798Y-45283690D01*
X136228798Y-45283690D02*
X136181179Y-45426547D01*
X136181179Y-45426547D02*
X136085941Y-45521786D01*
X136085941Y-45521786D02*
X135943084Y-45569405D01*
X135943084Y-45569405D02*
X135847846Y-45569405D01*
X136466894Y-45664643D02*
X137228798Y-45664643D01*
X137466894Y-44569405D02*
X137466894Y-45378928D01*
X137466894Y-45378928D02*
X137514513Y-45474166D01*
X137514513Y-45474166D02*
X137562132Y-45521786D01*
X137562132Y-45521786D02*
X137657370Y-45569405D01*
X137657370Y-45569405D02*
X137847846Y-45569405D01*
X137847846Y-45569405D02*
X137943084Y-45521786D01*
X137943084Y-45521786D02*
X137990703Y-45474166D01*
X137990703Y-45474166D02*
X138038322Y-45378928D01*
X138038322Y-45378928D02*
X138038322Y-44569405D01*
X138466894Y-45521786D02*
X138609751Y-45569405D01*
X138609751Y-45569405D02*
X138847846Y-45569405D01*
X138847846Y-45569405D02*
X138943084Y-45521786D01*
X138943084Y-45521786D02*
X138990703Y-45474166D01*
X138990703Y-45474166D02*
X139038322Y-45378928D01*
X139038322Y-45378928D02*
X139038322Y-45283690D01*
X139038322Y-45283690D02*
X138990703Y-45188452D01*
X138990703Y-45188452D02*
X138943084Y-45140833D01*
X138943084Y-45140833D02*
X138847846Y-45093214D01*
X138847846Y-45093214D02*
X138657370Y-45045595D01*
X138657370Y-45045595D02*
X138562132Y-44997976D01*
X138562132Y-44997976D02*
X138514513Y-44950357D01*
X138514513Y-44950357D02*
X138466894Y-44855119D01*
X138466894Y-44855119D02*
X138466894Y-44759881D01*
X138466894Y-44759881D02*
X138514513Y-44664643D01*
X138514513Y-44664643D02*
X138562132Y-44617024D01*
X138562132Y-44617024D02*
X138657370Y-44569405D01*
X138657370Y-44569405D02*
X138895465Y-44569405D01*
X138895465Y-44569405D02*
X139038322Y-44617024D01*
X139800227Y-45045595D02*
X139943084Y-45093214D01*
X139943084Y-45093214D02*
X139990703Y-45140833D01*
X139990703Y-45140833D02*
X140038322Y-45236071D01*
X140038322Y-45236071D02*
X140038322Y-45378928D01*
X140038322Y-45378928D02*
X139990703Y-45474166D01*
X139990703Y-45474166D02*
X139943084Y-45521786D01*
X139943084Y-45521786D02*
X139847846Y-45569405D01*
X139847846Y-45569405D02*
X139466894Y-45569405D01*
X139466894Y-45569405D02*
X139466894Y-44569405D01*
X139466894Y-44569405D02*
X139800227Y-44569405D01*
X139800227Y-44569405D02*
X139895465Y-44617024D01*
X139895465Y-44617024D02*
X139943084Y-44664643D01*
X139943084Y-44664643D02*
X139990703Y-44759881D01*
X139990703Y-44759881D02*
X139990703Y-44855119D01*
X139990703Y-44855119D02*
X139943084Y-44950357D01*
X139943084Y-44950357D02*
X139895465Y-44997976D01*
X139895465Y-44997976D02*
X139800227Y-45045595D01*
X139800227Y-45045595D02*
X139466894Y-45045595D01*
X140228799Y-45664643D02*
X140990703Y-45664643D01*
X141419275Y-44569405D02*
X141514513Y-44569405D01*
X141514513Y-44569405D02*
X141609751Y-44617024D01*
X141609751Y-44617024D02*
X141657370Y-44664643D01*
X141657370Y-44664643D02*
X141704989Y-44759881D01*
X141704989Y-44759881D02*
X141752608Y-44950357D01*
X141752608Y-44950357D02*
X141752608Y-45188452D01*
X141752608Y-45188452D02*
X141704989Y-45378928D01*
X141704989Y-45378928D02*
X141657370Y-45474166D01*
X141657370Y-45474166D02*
X141609751Y-45521786D01*
X141609751Y-45521786D02*
X141514513Y-45569405D01*
X141514513Y-45569405D02*
X141419275Y-45569405D01*
X141419275Y-45569405D02*
X141324037Y-45521786D01*
X141324037Y-45521786D02*
X141276418Y-45474166D01*
X141276418Y-45474166D02*
X141228799Y-45378928D01*
X141228799Y-45378928D02*
X141181180Y-45188452D01*
X141181180Y-45188452D02*
X141181180Y-44950357D01*
X141181180Y-44950357D02*
X141228799Y-44759881D01*
X141228799Y-44759881D02*
X141276418Y-44664643D01*
X141276418Y-44664643D02*
X141324037Y-44617024D01*
X141324037Y-44617024D02*
X141419275Y-44569405D01*
X142704989Y-45569405D02*
X142133561Y-45569405D01*
X142419275Y-45569405D02*
X142419275Y-44569405D01*
X142419275Y-44569405D02*
X142324037Y-44712262D01*
X142324037Y-44712262D02*
X142228799Y-44807500D01*
X142228799Y-44807500D02*
X142133561Y-44855119D01*
X41362394Y-43798505D02*
X41362394Y-44512790D01*
X41362394Y-44512790D02*
X41314775Y-44655647D01*
X41314775Y-44655647D02*
X41219537Y-44750886D01*
X41219537Y-44750886D02*
X41076680Y-44798505D01*
X41076680Y-44798505D02*
X40981442Y-44798505D01*
X42362394Y-44798505D02*
X41790966Y-44798505D01*
X42076680Y-44798505D02*
X42076680Y-43798505D01*
X42076680Y-43798505D02*
X41981442Y-43941362D01*
X41981442Y-43941362D02*
X41886204Y-44036600D01*
X41886204Y-44036600D02*
X41790966Y-44084219D01*
X129395465Y-39074405D02*
X129062132Y-38598214D01*
X128824037Y-39074405D02*
X128824037Y-38074405D01*
X128824037Y-38074405D02*
X129204989Y-38074405D01*
X129204989Y-38074405D02*
X129300227Y-38122024D01*
X129300227Y-38122024D02*
X129347846Y-38169643D01*
X129347846Y-38169643D02*
X129395465Y-38264881D01*
X129395465Y-38264881D02*
X129395465Y-38407738D01*
X129395465Y-38407738D02*
X129347846Y-38502976D01*
X129347846Y-38502976D02*
X129300227Y-38550595D01*
X129300227Y-38550595D02*
X129204989Y-38598214D01*
X129204989Y-38598214D02*
X128824037Y-38598214D01*
X129585942Y-39169643D02*
X130347846Y-39169643D01*
X130585942Y-38074405D02*
X130585942Y-38883928D01*
X130585942Y-38883928D02*
X130633561Y-38979166D01*
X130633561Y-38979166D02*
X130681180Y-39026786D01*
X130681180Y-39026786D02*
X130776418Y-39074405D01*
X130776418Y-39074405D02*
X130966894Y-39074405D01*
X130966894Y-39074405D02*
X131062132Y-39026786D01*
X131062132Y-39026786D02*
X131109751Y-38979166D01*
X131109751Y-38979166D02*
X131157370Y-38883928D01*
X131157370Y-38883928D02*
X131157370Y-38074405D01*
X131585942Y-39026786D02*
X131728799Y-39074405D01*
X131728799Y-39074405D02*
X131966894Y-39074405D01*
X131966894Y-39074405D02*
X132062132Y-39026786D01*
X132062132Y-39026786D02*
X132109751Y-38979166D01*
X132109751Y-38979166D02*
X132157370Y-38883928D01*
X132157370Y-38883928D02*
X132157370Y-38788690D01*
X132157370Y-38788690D02*
X132109751Y-38693452D01*
X132109751Y-38693452D02*
X132062132Y-38645833D01*
X132062132Y-38645833D02*
X131966894Y-38598214D01*
X131966894Y-38598214D02*
X131776418Y-38550595D01*
X131776418Y-38550595D02*
X131681180Y-38502976D01*
X131681180Y-38502976D02*
X131633561Y-38455357D01*
X131633561Y-38455357D02*
X131585942Y-38360119D01*
X131585942Y-38360119D02*
X131585942Y-38264881D01*
X131585942Y-38264881D02*
X131633561Y-38169643D01*
X131633561Y-38169643D02*
X131681180Y-38122024D01*
X131681180Y-38122024D02*
X131776418Y-38074405D01*
X131776418Y-38074405D02*
X132014513Y-38074405D01*
X132014513Y-38074405D02*
X132157370Y-38122024D01*
X132919275Y-38550595D02*
X133062132Y-38598214D01*
X133062132Y-38598214D02*
X133109751Y-38645833D01*
X133109751Y-38645833D02*
X133157370Y-38741071D01*
X133157370Y-38741071D02*
X133157370Y-38883928D01*
X133157370Y-38883928D02*
X133109751Y-38979166D01*
X133109751Y-38979166D02*
X133062132Y-39026786D01*
X133062132Y-39026786D02*
X132966894Y-39074405D01*
X132966894Y-39074405D02*
X132585942Y-39074405D01*
X132585942Y-39074405D02*
X132585942Y-38074405D01*
X132585942Y-38074405D02*
X132919275Y-38074405D01*
X132919275Y-38074405D02*
X133014513Y-38122024D01*
X133014513Y-38122024D02*
X133062132Y-38169643D01*
X133062132Y-38169643D02*
X133109751Y-38264881D01*
X133109751Y-38264881D02*
X133109751Y-38360119D01*
X133109751Y-38360119D02*
X133062132Y-38455357D01*
X133062132Y-38455357D02*
X133014513Y-38502976D01*
X133014513Y-38502976D02*
X132919275Y-38550595D01*
X132919275Y-38550595D02*
X132585942Y-38550595D01*
X133347847Y-39169643D02*
X134109751Y-39169643D01*
X134538323Y-38074405D02*
X134633561Y-38074405D01*
X134633561Y-38074405D02*
X134728799Y-38122024D01*
X134728799Y-38122024D02*
X134776418Y-38169643D01*
X134776418Y-38169643D02*
X134824037Y-38264881D01*
X134824037Y-38264881D02*
X134871656Y-38455357D01*
X134871656Y-38455357D02*
X134871656Y-38693452D01*
X134871656Y-38693452D02*
X134824037Y-38883928D01*
X134824037Y-38883928D02*
X134776418Y-38979166D01*
X134776418Y-38979166D02*
X134728799Y-39026786D01*
X134728799Y-39026786D02*
X134633561Y-39074405D01*
X134633561Y-39074405D02*
X134538323Y-39074405D01*
X134538323Y-39074405D02*
X134443085Y-39026786D01*
X134443085Y-39026786D02*
X134395466Y-38979166D01*
X134395466Y-38979166D02*
X134347847Y-38883928D01*
X134347847Y-38883928D02*
X134300228Y-38693452D01*
X134300228Y-38693452D02*
X134300228Y-38455357D01*
X134300228Y-38455357D02*
X134347847Y-38264881D01*
X134347847Y-38264881D02*
X134395466Y-38169643D01*
X134395466Y-38169643D02*
X134443085Y-38122024D01*
X134443085Y-38122024D02*
X134538323Y-38074405D01*
X135824037Y-39074405D02*
X135252609Y-39074405D01*
X135538323Y-39074405D02*
X135538323Y-38074405D01*
X135538323Y-38074405D02*
X135443085Y-38217262D01*
X135443085Y-38217262D02*
X135347847Y-38312500D01*
X135347847Y-38312500D02*
X135252609Y-38360119D01*
G36*
X139706047Y-108671185D02*
G01*
X138334119Y-108671185D01*
X138334119Y-107809617D01*
X138445636Y-107809617D01*
X138447711Y-107838807D01*
X138460797Y-107864980D01*
X138482904Y-107884154D01*
X138496330Y-107890148D01*
X139282876Y-108152330D01*
X138496330Y-108414512D01*
X138482904Y-108420506D01*
X138460797Y-108439680D01*
X138447711Y-108465853D01*
X138445636Y-108495043D01*
X138454890Y-108522806D01*
X138474064Y-108544913D01*
X138500237Y-108557999D01*
X138529427Y-108560074D01*
X138543764Y-108556814D01*
X139543764Y-108223481D01*
X139557189Y-108217487D01*
X139561236Y-108213976D01*
X139566030Y-108211580D01*
X139572194Y-108204472D01*
X139579296Y-108198313D01*
X139581691Y-108193521D01*
X139585204Y-108189472D01*
X139588178Y-108180549D01*
X139592383Y-108172140D01*
X139592762Y-108166795D01*
X139594458Y-108161710D01*
X139593791Y-108152330D01*
X139594458Y-108142950D01*
X139592762Y-108137864D01*
X139592383Y-108132520D01*
X139588178Y-108124110D01*
X139585204Y-108115188D01*
X139581691Y-108111138D01*
X139579296Y-108106347D01*
X139572194Y-108100187D01*
X139566030Y-108093080D01*
X139561236Y-108090683D01*
X139557189Y-108087173D01*
X139543764Y-108081179D01*
X138543764Y-107747846D01*
X138529427Y-107744586D01*
X138500237Y-107746661D01*
X138474064Y-107759747D01*
X138454890Y-107781854D01*
X138445636Y-107809617D01*
X138334119Y-107809617D01*
X138334119Y-107471031D01*
X138446488Y-107471031D01*
X138446488Y-107500295D01*
X138457687Y-107527331D01*
X138478379Y-107548023D01*
X138505415Y-107559222D01*
X138520047Y-107560663D01*
X139520047Y-107560663D01*
X139534679Y-107559222D01*
X139561715Y-107548023D01*
X139582407Y-107527331D01*
X139593606Y-107500295D01*
X139593606Y-107471031D01*
X139582407Y-107443995D01*
X139561715Y-107423303D01*
X139534679Y-107412104D01*
X139520047Y-107410663D01*
X138520047Y-107410663D01*
X138505415Y-107412104D01*
X138478379Y-107423303D01*
X138457687Y-107443995D01*
X138446488Y-107471031D01*
X138334119Y-107471031D01*
X138334119Y-106423414D01*
X138446488Y-106423414D01*
X138446488Y-106452676D01*
X138457687Y-106479713D01*
X138467014Y-106491078D01*
X138910409Y-106934473D01*
X138520047Y-106934473D01*
X138505415Y-106935914D01*
X138478379Y-106947113D01*
X138457687Y-106967805D01*
X138446488Y-106994841D01*
X138446488Y-107024105D01*
X138457687Y-107051141D01*
X138478379Y-107071833D01*
X138505415Y-107083032D01*
X138520047Y-107084473D01*
X139520047Y-107084473D01*
X139534679Y-107083032D01*
X139561715Y-107071833D01*
X139582407Y-107051141D01*
X139593606Y-107024105D01*
X139593606Y-106994841D01*
X139582407Y-106967805D01*
X139561715Y-106947113D01*
X139534679Y-106935914D01*
X139520047Y-106934473D01*
X139122541Y-106934473D01*
X139062798Y-106874730D01*
X139565047Y-106498045D01*
X139575888Y-106488113D01*
X139590798Y-106462932D01*
X139594936Y-106433963D01*
X139587674Y-106405615D01*
X139570115Y-106382204D01*
X139544934Y-106367295D01*
X139515966Y-106363156D01*
X139487617Y-106370418D01*
X139475047Y-106378045D01*
X138955655Y-106767587D01*
X138573080Y-106385012D01*
X138561715Y-106375685D01*
X138534678Y-106364486D01*
X138505416Y-106364486D01*
X138478379Y-106375685D01*
X138457687Y-106396377D01*
X138446488Y-106423414D01*
X138334119Y-106423414D01*
X138334119Y-105232936D01*
X138446488Y-105232936D01*
X138446488Y-105262200D01*
X138457687Y-105289236D01*
X138478379Y-105309928D01*
X138505415Y-105321127D01*
X138520047Y-105322568D01*
X139520047Y-105322568D01*
X139534679Y-105321127D01*
X139561715Y-105309928D01*
X139582407Y-105289236D01*
X139593606Y-105262200D01*
X139593606Y-105232936D01*
X139582407Y-105205900D01*
X139561715Y-105185208D01*
X139534679Y-105174009D01*
X139520047Y-105172568D01*
X138520047Y-105172568D01*
X138505415Y-105174009D01*
X138478379Y-105185208D01*
X138457687Y-105205900D01*
X138446488Y-105232936D01*
X138334119Y-105232936D01*
X138334119Y-104766139D01*
X138445230Y-104766139D01*
X138446488Y-104776035D01*
X138446488Y-104786010D01*
X138448317Y-104790425D01*
X138448920Y-104795169D01*
X138453870Y-104803833D01*
X138457687Y-104813046D01*
X138461065Y-104816424D01*
X138463439Y-104820578D01*
X138471328Y-104826687D01*
X138478379Y-104833738D01*
X138482795Y-104835567D01*
X138486576Y-104838495D01*
X138496199Y-104841119D01*
X138505415Y-104844937D01*
X138512897Y-104845673D01*
X138514808Y-104846195D01*
X138516283Y-104846007D01*
X138520047Y-104846378D01*
X139520047Y-104846378D01*
X139534679Y-104844937D01*
X139561715Y-104833738D01*
X139582407Y-104813046D01*
X139593606Y-104786010D01*
X139593606Y-104756746D01*
X139582407Y-104729710D01*
X139561715Y-104709018D01*
X139534679Y-104697819D01*
X139520047Y-104696378D01*
X138802464Y-104696378D01*
X139557258Y-104265068D01*
X139560342Y-104262878D01*
X139561715Y-104262310D01*
X139563112Y-104260912D01*
X139569247Y-104256558D01*
X139575355Y-104248669D01*
X139582407Y-104241618D01*
X139584237Y-104237199D01*
X139587164Y-104233420D01*
X139589788Y-104223798D01*
X139593606Y-104214582D01*
X139593606Y-104209801D01*
X139594864Y-104205189D01*
X139593606Y-104195292D01*
X139593606Y-104185318D01*
X139591776Y-104180902D01*
X139591174Y-104176159D01*
X139586223Y-104167494D01*
X139582407Y-104158282D01*
X139579028Y-104154903D01*
X139576655Y-104150750D01*
X139568765Y-104144640D01*
X139561715Y-104137590D01*
X139557298Y-104135760D01*
X139553518Y-104132833D01*
X139543894Y-104130208D01*
X139534679Y-104126391D01*
X139527196Y-104125654D01*
X139525286Y-104125133D01*
X139523810Y-104125320D01*
X139520047Y-104124950D01*
X138520047Y-104124950D01*
X138505415Y-104126391D01*
X138478379Y-104137590D01*
X138457687Y-104158282D01*
X138446488Y-104185318D01*
X138446488Y-104214582D01*
X138457687Y-104241618D01*
X138478379Y-104262310D01*
X138505415Y-104273509D01*
X138520047Y-104274950D01*
X139237630Y-104274950D01*
X138482837Y-104706260D01*
X138479753Y-104708448D01*
X138478379Y-104709018D01*
X138476979Y-104710417D01*
X138470847Y-104714770D01*
X138464737Y-104722659D01*
X138457687Y-104729710D01*
X138455857Y-104734126D01*
X138452930Y-104737907D01*
X138450305Y-104747530D01*
X138446488Y-104756746D01*
X138446488Y-104761526D01*
X138445230Y-104766139D01*
X138334119Y-104766139D01*
X138334119Y-104013839D01*
X139706047Y-104013839D01*
X139706047Y-108671185D01*
G37*
X139520642Y-102813759D02*
X139520642Y-102349473D01*
X139520642Y-102349473D02*
X139806356Y-102599473D01*
X139806356Y-102599473D02*
X139806356Y-102492330D01*
X139806356Y-102492330D02*
X139842070Y-102420902D01*
X139842070Y-102420902D02*
X139877785Y-102385187D01*
X139877785Y-102385187D02*
X139949213Y-102349473D01*
X139949213Y-102349473D02*
X140127785Y-102349473D01*
X140127785Y-102349473D02*
X140199213Y-102385187D01*
X140199213Y-102385187D02*
X140234928Y-102420902D01*
X140234928Y-102420902D02*
X140270642Y-102492330D01*
X140270642Y-102492330D02*
X140270642Y-102706616D01*
X140270642Y-102706616D02*
X140234928Y-102778044D01*
X140234928Y-102778044D02*
X140199213Y-102813759D01*
X139770642Y-102099473D02*
X140270642Y-101920901D01*
X140270642Y-101920901D02*
X139770642Y-101742330D01*
X139520642Y-101528044D02*
X139520642Y-101063758D01*
X139520642Y-101063758D02*
X139806356Y-101313758D01*
X139806356Y-101313758D02*
X139806356Y-101206615D01*
X139806356Y-101206615D02*
X139842070Y-101135187D01*
X139842070Y-101135187D02*
X139877785Y-101099472D01*
X139877785Y-101099472D02*
X139949213Y-101063758D01*
X139949213Y-101063758D02*
X140127785Y-101063758D01*
X140127785Y-101063758D02*
X140199213Y-101099472D01*
X140199213Y-101099472D02*
X140234928Y-101135187D01*
X140234928Y-101135187D02*
X140270642Y-101206615D01*
X140270642Y-101206615D02*
X140270642Y-101420901D01*
X140270642Y-101420901D02*
X140234928Y-101492329D01*
X140234928Y-101492329D02*
X140199213Y-101528044D01*
X36655047Y-32950538D02*
X37369332Y-32950538D01*
X37369332Y-32950538D02*
X37512189Y-32998157D01*
X37512189Y-32998157D02*
X37607428Y-33093395D01*
X37607428Y-33093395D02*
X37655047Y-33236252D01*
X37655047Y-33236252D02*
X37655047Y-33331490D01*
X37750285Y-32712443D02*
X37750285Y-31950538D01*
X37131237Y-31379109D02*
X37178856Y-31236252D01*
X37178856Y-31236252D02*
X37226475Y-31188633D01*
X37226475Y-31188633D02*
X37321713Y-31141014D01*
X37321713Y-31141014D02*
X37464570Y-31141014D01*
X37464570Y-31141014D02*
X37559808Y-31188633D01*
X37559808Y-31188633D02*
X37607428Y-31236252D01*
X37607428Y-31236252D02*
X37655047Y-31331490D01*
X37655047Y-31331490D02*
X37655047Y-31712442D01*
X37655047Y-31712442D02*
X36655047Y-31712442D01*
X36655047Y-31712442D02*
X36655047Y-31379109D01*
X36655047Y-31379109D02*
X36702666Y-31283871D01*
X36702666Y-31283871D02*
X36750285Y-31236252D01*
X36750285Y-31236252D02*
X36845523Y-31188633D01*
X36845523Y-31188633D02*
X36940761Y-31188633D01*
X36940761Y-31188633D02*
X37035999Y-31236252D01*
X37035999Y-31236252D02*
X37083618Y-31283871D01*
X37083618Y-31283871D02*
X37131237Y-31379109D01*
X37131237Y-31379109D02*
X37131237Y-31712442D01*
X37369332Y-30760061D02*
X37369332Y-30283871D01*
X37655047Y-30855299D02*
X36655047Y-30521966D01*
X36655047Y-30521966D02*
X37655047Y-30188633D01*
X36655047Y-29998156D02*
X36655047Y-29426728D01*
X37655047Y-29712442D02*
X36655047Y-29712442D01*
X37750285Y-29331490D02*
X37750285Y-28569585D01*
X36655047Y-28141013D02*
X36655047Y-28045775D01*
X36655047Y-28045775D02*
X36702666Y-27950537D01*
X36702666Y-27950537D02*
X36750285Y-27902918D01*
X36750285Y-27902918D02*
X36845523Y-27855299D01*
X36845523Y-27855299D02*
X37035999Y-27807680D01*
X37035999Y-27807680D02*
X37274094Y-27807680D01*
X37274094Y-27807680D02*
X37464570Y-27855299D01*
X37464570Y-27855299D02*
X37559808Y-27902918D01*
X37559808Y-27902918D02*
X37607428Y-27950537D01*
X37607428Y-27950537D02*
X37655047Y-28045775D01*
X37655047Y-28045775D02*
X37655047Y-28141013D01*
X37655047Y-28141013D02*
X37607428Y-28236251D01*
X37607428Y-28236251D02*
X37559808Y-28283870D01*
X37559808Y-28283870D02*
X37464570Y-28331489D01*
X37464570Y-28331489D02*
X37274094Y-28379108D01*
X37274094Y-28379108D02*
X37035999Y-28379108D01*
X37035999Y-28379108D02*
X36845523Y-28331489D01*
X36845523Y-28331489D02*
X36750285Y-28283870D01*
X36750285Y-28283870D02*
X36702666Y-28236251D01*
X36702666Y-28236251D02*
X36655047Y-28141013D01*
X37655047Y-26855299D02*
X37655047Y-27426727D01*
X37655047Y-27141013D02*
X36655047Y-27141013D01*
X36655047Y-27141013D02*
X36797904Y-27236251D01*
X36797904Y-27236251D02*
X36893142Y-27331489D01*
X36893142Y-27331489D02*
X36940761Y-27426727D01*
X130205047Y-65027323D02*
X131014570Y-65027323D01*
X131014570Y-65027323D02*
X131109808Y-64979704D01*
X131109808Y-64979704D02*
X131157428Y-64932085D01*
X131157428Y-64932085D02*
X131205047Y-64836847D01*
X131205047Y-64836847D02*
X131205047Y-64646371D01*
X131205047Y-64646371D02*
X131157428Y-64551133D01*
X131157428Y-64551133D02*
X131109808Y-64503514D01*
X131109808Y-64503514D02*
X131014570Y-64455895D01*
X131014570Y-64455895D02*
X130205047Y-64455895D01*
X131300285Y-64217800D02*
X131300285Y-63455895D01*
X131205047Y-63217799D02*
X130205047Y-63217799D01*
X130205047Y-63217799D02*
X130205047Y-62836847D01*
X130205047Y-62836847D02*
X130252666Y-62741609D01*
X130252666Y-62741609D02*
X130300285Y-62693990D01*
X130300285Y-62693990D02*
X130395523Y-62646371D01*
X130395523Y-62646371D02*
X130538380Y-62646371D01*
X130538380Y-62646371D02*
X130633618Y-62693990D01*
X130633618Y-62693990D02*
X130681237Y-62741609D01*
X130681237Y-62741609D02*
X130728856Y-62836847D01*
X130728856Y-62836847D02*
X130728856Y-63217799D01*
X130205047Y-62027323D02*
X130205047Y-61836847D01*
X130205047Y-61836847D02*
X130252666Y-61741609D01*
X130252666Y-61741609D02*
X130347904Y-61646371D01*
X130347904Y-61646371D02*
X130538380Y-61598752D01*
X130538380Y-61598752D02*
X130871713Y-61598752D01*
X130871713Y-61598752D02*
X131062189Y-61646371D01*
X131062189Y-61646371D02*
X131157428Y-61741609D01*
X131157428Y-61741609D02*
X131205047Y-61836847D01*
X131205047Y-61836847D02*
X131205047Y-62027323D01*
X131205047Y-62027323D02*
X131157428Y-62122561D01*
X131157428Y-62122561D02*
X131062189Y-62217799D01*
X131062189Y-62217799D02*
X130871713Y-62265418D01*
X130871713Y-62265418D02*
X130538380Y-62265418D01*
X130538380Y-62265418D02*
X130347904Y-62217799D01*
X130347904Y-62217799D02*
X130252666Y-62122561D01*
X130252666Y-62122561D02*
X130205047Y-62027323D01*
X130205047Y-61265418D02*
X131205047Y-61027323D01*
X131205047Y-61027323D02*
X130490761Y-60836847D01*
X130490761Y-60836847D02*
X131205047Y-60646371D01*
X131205047Y-60646371D02*
X130205047Y-60408276D01*
X131300285Y-60265419D02*
X131300285Y-59503514D01*
X130205047Y-59074942D02*
X130205047Y-58979704D01*
X130205047Y-58979704D02*
X130252666Y-58884466D01*
X130252666Y-58884466D02*
X130300285Y-58836847D01*
X130300285Y-58836847D02*
X130395523Y-58789228D01*
X130395523Y-58789228D02*
X130585999Y-58741609D01*
X130585999Y-58741609D02*
X130824094Y-58741609D01*
X130824094Y-58741609D02*
X131014570Y-58789228D01*
X131014570Y-58789228D02*
X131109808Y-58836847D01*
X131109808Y-58836847D02*
X131157428Y-58884466D01*
X131157428Y-58884466D02*
X131205047Y-58979704D01*
X131205047Y-58979704D02*
X131205047Y-59074942D01*
X131205047Y-59074942D02*
X131157428Y-59170180D01*
X131157428Y-59170180D02*
X131109808Y-59217799D01*
X131109808Y-59217799D02*
X131014570Y-59265418D01*
X131014570Y-59265418D02*
X130824094Y-59313037D01*
X130824094Y-59313037D02*
X130585999Y-59313037D01*
X130585999Y-59313037D02*
X130395523Y-59265418D01*
X130395523Y-59265418D02*
X130300285Y-59217799D01*
X130300285Y-59217799D02*
X130252666Y-59170180D01*
X130252666Y-59170180D02*
X130205047Y-59074942D01*
X131205047Y-57789228D02*
X131205047Y-58360656D01*
X131205047Y-58074942D02*
X130205047Y-58074942D01*
X130205047Y-58074942D02*
X130347904Y-58170180D01*
X130347904Y-58170180D02*
X130443142Y-58265418D01*
X130443142Y-58265418D02*
X130490761Y-58360656D01*
D11*
X252140603Y-32579274D02*
X252326612Y-32623708D01*
X252326612Y-32623708D02*
X252627842Y-32597353D01*
X252627842Y-32597353D02*
X252743064Y-32526566D01*
X252743064Y-32526566D02*
X252798039Y-32461049D01*
X252798039Y-32461049D02*
X252847743Y-32335286D01*
X252847743Y-32335286D02*
X252837202Y-32214794D01*
X252837202Y-32214794D02*
X252766414Y-32099572D01*
X252766414Y-32099572D02*
X252700897Y-32044597D01*
X252700897Y-32044597D02*
X252575134Y-31994893D01*
X252575134Y-31994893D02*
X252328879Y-31955730D01*
X252328879Y-31955730D02*
X252203116Y-31906026D01*
X252203116Y-31906026D02*
X252137599Y-31851051D01*
X252137599Y-31851051D02*
X252066811Y-31735829D01*
X252066811Y-31735829D02*
X252056270Y-31615337D01*
X252056270Y-31615337D02*
X252105974Y-31489574D01*
X252105974Y-31489574D02*
X252160949Y-31424057D01*
X252160949Y-31424057D02*
X252276170Y-31353270D01*
X252276170Y-31353270D02*
X252577401Y-31326915D01*
X252577401Y-31326915D02*
X252763410Y-31371349D01*
X253179862Y-31274207D02*
X253591780Y-32513020D01*
X253591780Y-32513020D02*
X253753701Y-31588246D01*
X253753701Y-31588246D02*
X254073748Y-32470853D01*
X254073748Y-32470853D02*
X254264291Y-31179332D01*
X254566259Y-32549178D02*
X255530196Y-32464845D01*
X256184627Y-31618396D02*
X256370636Y-31662829D01*
X256370636Y-31662829D02*
X256436153Y-31717805D01*
X256436153Y-31717805D02*
X256506941Y-31833026D01*
X256506941Y-31833026D02*
X256522754Y-32013764D01*
X256522754Y-32013764D02*
X256473049Y-32139527D01*
X256473049Y-32139527D02*
X256418074Y-32205044D01*
X256418074Y-32205044D02*
X256302853Y-32275832D01*
X256302853Y-32275832D02*
X255820884Y-32317999D01*
X255820884Y-32317999D02*
X255710196Y-31052831D01*
X255710196Y-31052831D02*
X256131919Y-31015935D01*
X256131919Y-31015935D02*
X256257682Y-31065640D01*
X256257682Y-31065640D02*
X256323199Y-31120615D01*
X256323199Y-31120615D02*
X256393987Y-31235836D01*
X256393987Y-31235836D02*
X256404528Y-31356328D01*
X256404528Y-31356328D02*
X256354824Y-31482091D01*
X256354824Y-31482091D02*
X256299849Y-31547608D01*
X256299849Y-31547608D02*
X256184627Y-31618396D01*
X256184627Y-31618396D02*
X255762905Y-31655292D01*
X256994180Y-31851105D02*
X257596641Y-31798397D01*
X256905313Y-32223123D02*
X257216348Y-30921060D01*
X257216348Y-30921060D02*
X257748758Y-32149331D01*
X257879054Y-30863081D02*
X258602007Y-30799831D01*
X258351218Y-32096623D02*
X258240531Y-30831456D01*
X258843728Y-32174948D02*
X259807665Y-32090615D01*
X260228650Y-30657518D02*
X260349143Y-30646976D01*
X260349143Y-30646976D02*
X260474906Y-30696680D01*
X260474906Y-30696680D02*
X260540422Y-30751656D01*
X260540422Y-30751656D02*
X260611210Y-30866877D01*
X260611210Y-30866877D02*
X260692540Y-31102590D01*
X260692540Y-31102590D02*
X260718894Y-31403821D01*
X260718894Y-31403821D02*
X260679731Y-31650076D01*
X260679731Y-31650076D02*
X260630027Y-31775839D01*
X260630027Y-31775839D02*
X260575052Y-31841356D01*
X260575052Y-31841356D02*
X260459830Y-31912143D01*
X260459830Y-31912143D02*
X260339338Y-31922685D01*
X260339338Y-31922685D02*
X260213575Y-31872981D01*
X260213575Y-31872981D02*
X260148058Y-31818005D01*
X260148058Y-31818005D02*
X260077271Y-31702784D01*
X260077271Y-31702784D02*
X259995941Y-31467071D01*
X259995941Y-31467071D02*
X259969587Y-31165840D01*
X259969587Y-31165840D02*
X260008750Y-30919585D01*
X260008750Y-30919585D02*
X260058454Y-30793822D01*
X260058454Y-30793822D02*
X260113429Y-30728306D01*
X260113429Y-30728306D02*
X260228650Y-30657518D01*
X261965982Y-31780372D02*
X261243029Y-31843622D01*
X261604506Y-31811997D02*
X261493818Y-30546830D01*
X261493818Y-30546830D02*
X261389138Y-30738110D01*
X261389138Y-30738110D02*
X261279188Y-30869144D01*
X261279188Y-30869144D02*
X261163967Y-30939931D01*
D10*
X122419275Y-81074405D02*
X122419275Y-81883928D01*
X122419275Y-81883928D02*
X122466894Y-81979166D01*
X122466894Y-81979166D02*
X122514513Y-82026786D01*
X122514513Y-82026786D02*
X122609751Y-82074405D01*
X122609751Y-82074405D02*
X122800227Y-82074405D01*
X122800227Y-82074405D02*
X122895465Y-82026786D01*
X122895465Y-82026786D02*
X122943084Y-81979166D01*
X122943084Y-81979166D02*
X122990703Y-81883928D01*
X122990703Y-81883928D02*
X122990703Y-81074405D01*
X123228799Y-82169643D02*
X123990703Y-82169643D01*
X124228799Y-82074405D02*
X124228799Y-81074405D01*
X124228799Y-81074405D02*
X124562132Y-81788690D01*
X124562132Y-81788690D02*
X124895465Y-81074405D01*
X124895465Y-81074405D02*
X124895465Y-82074405D01*
X125324037Y-81788690D02*
X125800227Y-81788690D01*
X125228799Y-82074405D02*
X125562132Y-81074405D01*
X125562132Y-81074405D02*
X125895465Y-82074405D01*
X126085942Y-81074405D02*
X126657370Y-81074405D01*
X126371656Y-82074405D02*
X126371656Y-81074405D01*
X126752609Y-82169643D02*
X127514513Y-82169643D01*
X127943085Y-81074405D02*
X128038323Y-81074405D01*
X128038323Y-81074405D02*
X128133561Y-81122024D01*
X128133561Y-81122024D02*
X128181180Y-81169643D01*
X128181180Y-81169643D02*
X128228799Y-81264881D01*
X128228799Y-81264881D02*
X128276418Y-81455357D01*
X128276418Y-81455357D02*
X128276418Y-81693452D01*
X128276418Y-81693452D02*
X128228799Y-81883928D01*
X128228799Y-81883928D02*
X128181180Y-81979166D01*
X128181180Y-81979166D02*
X128133561Y-82026786D01*
X128133561Y-82026786D02*
X128038323Y-82074405D01*
X128038323Y-82074405D02*
X127943085Y-82074405D01*
X127943085Y-82074405D02*
X127847847Y-82026786D01*
X127847847Y-82026786D02*
X127800228Y-81979166D01*
X127800228Y-81979166D02*
X127752609Y-81883928D01*
X127752609Y-81883928D02*
X127704990Y-81693452D01*
X127704990Y-81693452D02*
X127704990Y-81455357D01*
X127704990Y-81455357D02*
X127752609Y-81264881D01*
X127752609Y-81264881D02*
X127800228Y-81169643D01*
X127800228Y-81169643D02*
X127847847Y-81122024D01*
X127847847Y-81122024D02*
X127943085Y-81074405D01*
X129228799Y-82074405D02*
X128657371Y-82074405D01*
X128943085Y-82074405D02*
X128943085Y-81074405D01*
X128943085Y-81074405D02*
X128847847Y-81217262D01*
X128847847Y-81217262D02*
X128752609Y-81312500D01*
X128752609Y-81312500D02*
X128657371Y-81360119D01*
X129487965Y-40074405D02*
X129154632Y-39598214D01*
X128916537Y-40074405D02*
X128916537Y-39074405D01*
X128916537Y-39074405D02*
X129297489Y-39074405D01*
X129297489Y-39074405D02*
X129392727Y-39122024D01*
X129392727Y-39122024D02*
X129440346Y-39169643D01*
X129440346Y-39169643D02*
X129487965Y-39264881D01*
X129487965Y-39264881D02*
X129487965Y-39407738D01*
X129487965Y-39407738D02*
X129440346Y-39502976D01*
X129440346Y-39502976D02*
X129392727Y-39550595D01*
X129392727Y-39550595D02*
X129297489Y-39598214D01*
X129297489Y-39598214D02*
X128916537Y-39598214D01*
X129678442Y-40169643D02*
X130440346Y-40169643D01*
X130678442Y-39074405D02*
X130678442Y-39883928D01*
X130678442Y-39883928D02*
X130726061Y-39979166D01*
X130726061Y-39979166D02*
X130773680Y-40026786D01*
X130773680Y-40026786D02*
X130868918Y-40074405D01*
X130868918Y-40074405D02*
X131059394Y-40074405D01*
X131059394Y-40074405D02*
X131154632Y-40026786D01*
X131154632Y-40026786D02*
X131202251Y-39979166D01*
X131202251Y-39979166D02*
X131249870Y-39883928D01*
X131249870Y-39883928D02*
X131249870Y-39074405D01*
X131678442Y-40026786D02*
X131821299Y-40074405D01*
X131821299Y-40074405D02*
X132059394Y-40074405D01*
X132059394Y-40074405D02*
X132154632Y-40026786D01*
X132154632Y-40026786D02*
X132202251Y-39979166D01*
X132202251Y-39979166D02*
X132249870Y-39883928D01*
X132249870Y-39883928D02*
X132249870Y-39788690D01*
X132249870Y-39788690D02*
X132202251Y-39693452D01*
X132202251Y-39693452D02*
X132154632Y-39645833D01*
X132154632Y-39645833D02*
X132059394Y-39598214D01*
X132059394Y-39598214D02*
X131868918Y-39550595D01*
X131868918Y-39550595D02*
X131773680Y-39502976D01*
X131773680Y-39502976D02*
X131726061Y-39455357D01*
X131726061Y-39455357D02*
X131678442Y-39360119D01*
X131678442Y-39360119D02*
X131678442Y-39264881D01*
X131678442Y-39264881D02*
X131726061Y-39169643D01*
X131726061Y-39169643D02*
X131773680Y-39122024D01*
X131773680Y-39122024D02*
X131868918Y-39074405D01*
X131868918Y-39074405D02*
X132107013Y-39074405D01*
X132107013Y-39074405D02*
X132249870Y-39122024D01*
X133011775Y-39550595D02*
X133154632Y-39598214D01*
X133154632Y-39598214D02*
X133202251Y-39645833D01*
X133202251Y-39645833D02*
X133249870Y-39741071D01*
X133249870Y-39741071D02*
X133249870Y-39883928D01*
X133249870Y-39883928D02*
X133202251Y-39979166D01*
X133202251Y-39979166D02*
X133154632Y-40026786D01*
X133154632Y-40026786D02*
X133059394Y-40074405D01*
X133059394Y-40074405D02*
X132678442Y-40074405D01*
X132678442Y-40074405D02*
X132678442Y-39074405D01*
X132678442Y-39074405D02*
X133011775Y-39074405D01*
X133011775Y-39074405D02*
X133107013Y-39122024D01*
X133107013Y-39122024D02*
X133154632Y-39169643D01*
X133154632Y-39169643D02*
X133202251Y-39264881D01*
X133202251Y-39264881D02*
X133202251Y-39360119D01*
X133202251Y-39360119D02*
X133154632Y-39455357D01*
X133154632Y-39455357D02*
X133107013Y-39502976D01*
X133107013Y-39502976D02*
X133011775Y-39550595D01*
X133011775Y-39550595D02*
X132678442Y-39550595D01*
X133440347Y-40169643D02*
X134202251Y-40169643D01*
X134630823Y-39074405D02*
X134726061Y-39074405D01*
X134726061Y-39074405D02*
X134821299Y-39122024D01*
X134821299Y-39122024D02*
X134868918Y-39169643D01*
X134868918Y-39169643D02*
X134916537Y-39264881D01*
X134916537Y-39264881D02*
X134964156Y-39455357D01*
X134964156Y-39455357D02*
X134964156Y-39693452D01*
X134964156Y-39693452D02*
X134916537Y-39883928D01*
X134916537Y-39883928D02*
X134868918Y-39979166D01*
X134868918Y-39979166D02*
X134821299Y-40026786D01*
X134821299Y-40026786D02*
X134726061Y-40074405D01*
X134726061Y-40074405D02*
X134630823Y-40074405D01*
X134630823Y-40074405D02*
X134535585Y-40026786D01*
X134535585Y-40026786D02*
X134487966Y-39979166D01*
X134487966Y-39979166D02*
X134440347Y-39883928D01*
X134440347Y-39883928D02*
X134392728Y-39693452D01*
X134392728Y-39693452D02*
X134392728Y-39455357D01*
X134392728Y-39455357D02*
X134440347Y-39264881D01*
X134440347Y-39264881D02*
X134487966Y-39169643D01*
X134487966Y-39169643D02*
X134535585Y-39122024D01*
X134535585Y-39122024D02*
X134630823Y-39074405D01*
X135345109Y-39169643D02*
X135392728Y-39122024D01*
X135392728Y-39122024D02*
X135487966Y-39074405D01*
X135487966Y-39074405D02*
X135726061Y-39074405D01*
X135726061Y-39074405D02*
X135821299Y-39122024D01*
X135821299Y-39122024D02*
X135868918Y-39169643D01*
X135868918Y-39169643D02*
X135916537Y-39264881D01*
X135916537Y-39264881D02*
X135916537Y-39360119D01*
X135916537Y-39360119D02*
X135868918Y-39502976D01*
X135868918Y-39502976D02*
X135297490Y-40074405D01*
X135297490Y-40074405D02*
X135916537Y-40074405D01*
X124728799Y-48174405D02*
X124728799Y-47174405D01*
X124728799Y-47174405D02*
X124966894Y-47174405D01*
X124966894Y-47174405D02*
X125109751Y-47222024D01*
X125109751Y-47222024D02*
X125204989Y-47317262D01*
X125204989Y-47317262D02*
X125252608Y-47412500D01*
X125252608Y-47412500D02*
X125300227Y-47602976D01*
X125300227Y-47602976D02*
X125300227Y-47745833D01*
X125300227Y-47745833D02*
X125252608Y-47936309D01*
X125252608Y-47936309D02*
X125204989Y-48031547D01*
X125204989Y-48031547D02*
X125109751Y-48126786D01*
X125109751Y-48126786D02*
X124966894Y-48174405D01*
X124966894Y-48174405D02*
X124728799Y-48174405D01*
X125490704Y-48269643D02*
X126252608Y-48269643D01*
X126490704Y-48174405D02*
X126490704Y-47174405D01*
X126490704Y-47174405D02*
X126871656Y-47174405D01*
X126871656Y-47174405D02*
X126966894Y-47222024D01*
X126966894Y-47222024D02*
X127014513Y-47269643D01*
X127014513Y-47269643D02*
X127062132Y-47364881D01*
X127062132Y-47364881D02*
X127062132Y-47507738D01*
X127062132Y-47507738D02*
X127014513Y-47602976D01*
X127014513Y-47602976D02*
X126966894Y-47650595D01*
X126966894Y-47650595D02*
X126871656Y-47698214D01*
X126871656Y-47698214D02*
X126490704Y-47698214D01*
X127681180Y-47174405D02*
X127871656Y-47174405D01*
X127871656Y-47174405D02*
X127966894Y-47222024D01*
X127966894Y-47222024D02*
X128062132Y-47317262D01*
X128062132Y-47317262D02*
X128109751Y-47507738D01*
X128109751Y-47507738D02*
X128109751Y-47841071D01*
X128109751Y-47841071D02*
X128062132Y-48031547D01*
X128062132Y-48031547D02*
X127966894Y-48126786D01*
X127966894Y-48126786D02*
X127871656Y-48174405D01*
X127871656Y-48174405D02*
X127681180Y-48174405D01*
X127681180Y-48174405D02*
X127585942Y-48126786D01*
X127585942Y-48126786D02*
X127490704Y-48031547D01*
X127490704Y-48031547D02*
X127443085Y-47841071D01*
X127443085Y-47841071D02*
X127443085Y-47507738D01*
X127443085Y-47507738D02*
X127490704Y-47317262D01*
X127490704Y-47317262D02*
X127585942Y-47222024D01*
X127585942Y-47222024D02*
X127681180Y-47174405D01*
X128443085Y-47174405D02*
X128681180Y-48174405D01*
X128681180Y-48174405D02*
X128871656Y-47460119D01*
X128871656Y-47460119D02*
X129062132Y-48174405D01*
X129062132Y-48174405D02*
X129300228Y-47174405D01*
X129443085Y-48269643D02*
X130204989Y-48269643D01*
X130633561Y-47174405D02*
X130728799Y-47174405D01*
X130728799Y-47174405D02*
X130824037Y-47222024D01*
X130824037Y-47222024D02*
X130871656Y-47269643D01*
X130871656Y-47269643D02*
X130919275Y-47364881D01*
X130919275Y-47364881D02*
X130966894Y-47555357D01*
X130966894Y-47555357D02*
X130966894Y-47793452D01*
X130966894Y-47793452D02*
X130919275Y-47983928D01*
X130919275Y-47983928D02*
X130871656Y-48079166D01*
X130871656Y-48079166D02*
X130824037Y-48126786D01*
X130824037Y-48126786D02*
X130728799Y-48174405D01*
X130728799Y-48174405D02*
X130633561Y-48174405D01*
X130633561Y-48174405D02*
X130538323Y-48126786D01*
X130538323Y-48126786D02*
X130490704Y-48079166D01*
X130490704Y-48079166D02*
X130443085Y-47983928D01*
X130443085Y-47983928D02*
X130395466Y-47793452D01*
X130395466Y-47793452D02*
X130395466Y-47555357D01*
X130395466Y-47555357D02*
X130443085Y-47364881D01*
X130443085Y-47364881D02*
X130490704Y-47269643D01*
X130490704Y-47269643D02*
X130538323Y-47222024D01*
X130538323Y-47222024D02*
X130633561Y-47174405D01*
X131919275Y-48174405D02*
X131347847Y-48174405D01*
X131633561Y-48174405D02*
X131633561Y-47174405D01*
X131633561Y-47174405D02*
X131538323Y-47317262D01*
X131538323Y-47317262D02*
X131443085Y-47412500D01*
X131443085Y-47412500D02*
X131347847Y-47460119D01*
X131250285Y-55498157D02*
X131202666Y-55593395D01*
X131202666Y-55593395D02*
X131107428Y-55688633D01*
X131107428Y-55688633D02*
X130964570Y-55831490D01*
X130964570Y-55831490D02*
X130916951Y-55926728D01*
X130916951Y-55926728D02*
X130916951Y-56021966D01*
X131155047Y-55974347D02*
X131107428Y-56069585D01*
X131107428Y-56069585D02*
X131012189Y-56164823D01*
X131012189Y-56164823D02*
X130821713Y-56212442D01*
X130821713Y-56212442D02*
X130488380Y-56212442D01*
X130488380Y-56212442D02*
X130297904Y-56164823D01*
X130297904Y-56164823D02*
X130202666Y-56069585D01*
X130202666Y-56069585D02*
X130155047Y-55974347D01*
X130155047Y-55974347D02*
X130155047Y-55783871D01*
X130155047Y-55783871D02*
X130202666Y-55688633D01*
X130202666Y-55688633D02*
X130297904Y-55593395D01*
X130297904Y-55593395D02*
X130488380Y-55545776D01*
X130488380Y-55545776D02*
X130821713Y-55545776D01*
X130821713Y-55545776D02*
X131012189Y-55593395D01*
X131012189Y-55593395D02*
X131107428Y-55688633D01*
X131107428Y-55688633D02*
X131155047Y-55783871D01*
X131155047Y-55783871D02*
X131155047Y-55974347D01*
X131250285Y-55355300D02*
X131250285Y-54593395D01*
X131155047Y-54355299D02*
X130155047Y-54355299D01*
X130155047Y-54355299D02*
X130155047Y-53974347D01*
X130155047Y-53974347D02*
X130202666Y-53879109D01*
X130202666Y-53879109D02*
X130250285Y-53831490D01*
X130250285Y-53831490D02*
X130345523Y-53783871D01*
X130345523Y-53783871D02*
X130488380Y-53783871D01*
X130488380Y-53783871D02*
X130583618Y-53831490D01*
X130583618Y-53831490D02*
X130631237Y-53879109D01*
X130631237Y-53879109D02*
X130678856Y-53974347D01*
X130678856Y-53974347D02*
X130678856Y-54355299D01*
X130155047Y-53164823D02*
X130155047Y-52974347D01*
X130155047Y-52974347D02*
X130202666Y-52879109D01*
X130202666Y-52879109D02*
X130297904Y-52783871D01*
X130297904Y-52783871D02*
X130488380Y-52736252D01*
X130488380Y-52736252D02*
X130821713Y-52736252D01*
X130821713Y-52736252D02*
X131012189Y-52783871D01*
X131012189Y-52783871D02*
X131107428Y-52879109D01*
X131107428Y-52879109D02*
X131155047Y-52974347D01*
X131155047Y-52974347D02*
X131155047Y-53164823D01*
X131155047Y-53164823D02*
X131107428Y-53260061D01*
X131107428Y-53260061D02*
X131012189Y-53355299D01*
X131012189Y-53355299D02*
X130821713Y-53402918D01*
X130821713Y-53402918D02*
X130488380Y-53402918D01*
X130488380Y-53402918D02*
X130297904Y-53355299D01*
X130297904Y-53355299D02*
X130202666Y-53260061D01*
X130202666Y-53260061D02*
X130155047Y-53164823D01*
X130155047Y-52402918D02*
X131155047Y-52164823D01*
X131155047Y-52164823D02*
X130440761Y-51974347D01*
X130440761Y-51974347D02*
X131155047Y-51783871D01*
X131155047Y-51783871D02*
X130155047Y-51545776D01*
X131250285Y-51402919D02*
X131250285Y-50641014D01*
X130155047Y-50212442D02*
X130155047Y-50117204D01*
X130155047Y-50117204D02*
X130202666Y-50021966D01*
X130202666Y-50021966D02*
X130250285Y-49974347D01*
X130250285Y-49974347D02*
X130345523Y-49926728D01*
X130345523Y-49926728D02*
X130535999Y-49879109D01*
X130535999Y-49879109D02*
X130774094Y-49879109D01*
X130774094Y-49879109D02*
X130964570Y-49926728D01*
X130964570Y-49926728D02*
X131059808Y-49974347D01*
X131059808Y-49974347D02*
X131107428Y-50021966D01*
X131107428Y-50021966D02*
X131155047Y-50117204D01*
X131155047Y-50117204D02*
X131155047Y-50212442D01*
X131155047Y-50212442D02*
X131107428Y-50307680D01*
X131107428Y-50307680D02*
X131059808Y-50355299D01*
X131059808Y-50355299D02*
X130964570Y-50402918D01*
X130964570Y-50402918D02*
X130774094Y-50450537D01*
X130774094Y-50450537D02*
X130535999Y-50450537D01*
X130535999Y-50450537D02*
X130345523Y-50402918D01*
X130345523Y-50402918D02*
X130250285Y-50355299D01*
X130250285Y-50355299D02*
X130202666Y-50307680D01*
X130202666Y-50307680D02*
X130155047Y-50212442D01*
X131155047Y-48926728D02*
X131155047Y-49498156D01*
X131155047Y-49212442D02*
X130155047Y-49212442D01*
X130155047Y-49212442D02*
X130297904Y-49307680D01*
X130297904Y-49307680D02*
X130393142Y-49402918D01*
X130393142Y-49402918D02*
X130440761Y-49498156D01*
X129228799Y-41650595D02*
X128895466Y-41650595D01*
X128895466Y-42174405D02*
X128895466Y-41174405D01*
X128895466Y-41174405D02*
X129371656Y-41174405D01*
X129514514Y-42269643D02*
X130276418Y-42269643D01*
X130514514Y-41174405D02*
X130514514Y-41983928D01*
X130514514Y-41983928D02*
X130562133Y-42079166D01*
X130562133Y-42079166D02*
X130609752Y-42126786D01*
X130609752Y-42126786D02*
X130704990Y-42174405D01*
X130704990Y-42174405D02*
X130895466Y-42174405D01*
X130895466Y-42174405D02*
X130990704Y-42126786D01*
X130990704Y-42126786D02*
X131038323Y-42079166D01*
X131038323Y-42079166D02*
X131085942Y-41983928D01*
X131085942Y-41983928D02*
X131085942Y-41174405D01*
X131514514Y-42126786D02*
X131657371Y-42174405D01*
X131657371Y-42174405D02*
X131895466Y-42174405D01*
X131895466Y-42174405D02*
X131990704Y-42126786D01*
X131990704Y-42126786D02*
X132038323Y-42079166D01*
X132038323Y-42079166D02*
X132085942Y-41983928D01*
X132085942Y-41983928D02*
X132085942Y-41888690D01*
X132085942Y-41888690D02*
X132038323Y-41793452D01*
X132038323Y-41793452D02*
X131990704Y-41745833D01*
X131990704Y-41745833D02*
X131895466Y-41698214D01*
X131895466Y-41698214D02*
X131704990Y-41650595D01*
X131704990Y-41650595D02*
X131609752Y-41602976D01*
X131609752Y-41602976D02*
X131562133Y-41555357D01*
X131562133Y-41555357D02*
X131514514Y-41460119D01*
X131514514Y-41460119D02*
X131514514Y-41364881D01*
X131514514Y-41364881D02*
X131562133Y-41269643D01*
X131562133Y-41269643D02*
X131609752Y-41222024D01*
X131609752Y-41222024D02*
X131704990Y-41174405D01*
X131704990Y-41174405D02*
X131943085Y-41174405D01*
X131943085Y-41174405D02*
X132085942Y-41222024D01*
X132847847Y-41650595D02*
X132990704Y-41698214D01*
X132990704Y-41698214D02*
X133038323Y-41745833D01*
X133038323Y-41745833D02*
X133085942Y-41841071D01*
X133085942Y-41841071D02*
X133085942Y-41983928D01*
X133085942Y-41983928D02*
X133038323Y-42079166D01*
X133038323Y-42079166D02*
X132990704Y-42126786D01*
X132990704Y-42126786D02*
X132895466Y-42174405D01*
X132895466Y-42174405D02*
X132514514Y-42174405D01*
X132514514Y-42174405D02*
X132514514Y-41174405D01*
X132514514Y-41174405D02*
X132847847Y-41174405D01*
X132847847Y-41174405D02*
X132943085Y-41222024D01*
X132943085Y-41222024D02*
X132990704Y-41269643D01*
X132990704Y-41269643D02*
X133038323Y-41364881D01*
X133038323Y-41364881D02*
X133038323Y-41460119D01*
X133038323Y-41460119D02*
X132990704Y-41555357D01*
X132990704Y-41555357D02*
X132943085Y-41602976D01*
X132943085Y-41602976D02*
X132847847Y-41650595D01*
X132847847Y-41650595D02*
X132514514Y-41650595D01*
X133276419Y-42269643D02*
X134038323Y-42269643D01*
X134466895Y-41174405D02*
X134562133Y-41174405D01*
X134562133Y-41174405D02*
X134657371Y-41222024D01*
X134657371Y-41222024D02*
X134704990Y-41269643D01*
X134704990Y-41269643D02*
X134752609Y-41364881D01*
X134752609Y-41364881D02*
X134800228Y-41555357D01*
X134800228Y-41555357D02*
X134800228Y-41793452D01*
X134800228Y-41793452D02*
X134752609Y-41983928D01*
X134752609Y-41983928D02*
X134704990Y-42079166D01*
X134704990Y-42079166D02*
X134657371Y-42126786D01*
X134657371Y-42126786D02*
X134562133Y-42174405D01*
X134562133Y-42174405D02*
X134466895Y-42174405D01*
X134466895Y-42174405D02*
X134371657Y-42126786D01*
X134371657Y-42126786D02*
X134324038Y-42079166D01*
X134324038Y-42079166D02*
X134276419Y-41983928D01*
X134276419Y-41983928D02*
X134228800Y-41793452D01*
X134228800Y-41793452D02*
X134228800Y-41555357D01*
X134228800Y-41555357D02*
X134276419Y-41364881D01*
X134276419Y-41364881D02*
X134324038Y-41269643D01*
X134324038Y-41269643D02*
X134371657Y-41222024D01*
X134371657Y-41222024D02*
X134466895Y-41174405D01*
X135181181Y-41269643D02*
X135228800Y-41222024D01*
X135228800Y-41222024D02*
X135324038Y-41174405D01*
X135324038Y-41174405D02*
X135562133Y-41174405D01*
X135562133Y-41174405D02*
X135657371Y-41222024D01*
X135657371Y-41222024D02*
X135704990Y-41269643D01*
X135704990Y-41269643D02*
X135752609Y-41364881D01*
X135752609Y-41364881D02*
X135752609Y-41460119D01*
X135752609Y-41460119D02*
X135704990Y-41602976D01*
X135704990Y-41602976D02*
X135133562Y-42174405D01*
X135133562Y-42174405D02*
X135752609Y-42174405D01*
%TO.C,S_MAT_10*%
D12*
X22025228Y-54794586D02*
X22025228Y-58744586D01*
X22400228Y-54419586D02*
X24700033Y-54419586D01*
X22400228Y-59119586D02*
X25875228Y-59119586D01*
D13*
X22800228Y-55069586D02*
X22800228Y-54069586D01*
X22800228Y-67069586D02*
X22800228Y-66069586D01*
X22800228Y-67069586D02*
X23800228Y-67069586D01*
X23800228Y-54069586D02*
X22800228Y-54069586D01*
D12*
X26825228Y-52319586D02*
X26325228Y-52819586D01*
X27975228Y-57019586D02*
X31075228Y-57019586D01*
X31075228Y-52319586D02*
X26825228Y-52319586D01*
X31575228Y-52819586D02*
X31075228Y-52319586D01*
X31575228Y-56519586D02*
X31075228Y-57019586D01*
X31575228Y-56519586D02*
X31575228Y-52819586D01*
D13*
X34800228Y-67069586D02*
X35800228Y-67069586D01*
X35800228Y-54069586D02*
X34800228Y-54069586D01*
X35800228Y-54069586D02*
X35800228Y-55069586D01*
X35800228Y-66069586D02*
X35800228Y-67069586D01*
D14*
X36810228Y-56569586D02*
X32800228Y-56569586D01*
X36810228Y-58569586D02*
X32800228Y-58569586D01*
X36810228Y-58569586D02*
X36810228Y-56569586D01*
D12*
X22025228Y-54794586D02*
G75*
G02*
X22400228Y-54419586I375000J0D01*
G01*
X22400228Y-59119586D02*
G75*
G02*
X22025228Y-58744586I0J375000D01*
G01*
X26250228Y-58744586D02*
G75*
G02*
X25875228Y-59119586I-375000J0D01*
G01*
X26250228Y-58744586D02*
G75*
G02*
X27975228Y-57019586I1725001J-1D01*
G01*
X26325228Y-52819586D02*
G75*
G02*
X24700033Y-54419587I-1600195J-1D01*
G01*
%TO.C,S_MAT_34*%
D13*
X96687798Y-102770630D02*
X97110416Y-101864322D01*
X96687798Y-102770630D02*
X97594105Y-103193248D01*
D12*
X99685090Y-95396436D02*
X102834509Y-96865034D01*
X101173048Y-91318173D02*
X99503706Y-94898088D01*
X101671396Y-91136789D02*
X103755727Y-92108729D01*
D13*
X101759217Y-91894936D02*
X102181835Y-90988629D01*
X103088143Y-91411247D02*
X102181835Y-90988629D01*
D12*
X105625254Y-95849286D02*
X108434808Y-97159403D01*
X106569306Y-91103629D02*
X105904843Y-91345473D01*
D13*
X107563491Y-107842049D02*
X108469799Y-108264667D01*
X108892417Y-107358360D02*
X108469799Y-108264667D01*
D12*
X109099271Y-96917558D02*
X108434808Y-97159403D01*
X109099271Y-96917558D02*
X110662959Y-93564219D01*
X110421114Y-92899756D02*
X106569306Y-91103629D01*
X110662959Y-93564219D02*
X110421114Y-92899756D01*
D14*
X112977425Y-100987896D02*
X109343131Y-99293196D01*
X112977425Y-100987896D02*
X113822662Y-99175280D01*
X113822662Y-99175280D02*
X110188367Y-97480581D01*
D13*
X113963836Y-96482666D02*
X113057529Y-96060048D01*
X113963836Y-96482666D02*
X113541218Y-97388974D01*
D12*
X99685090Y-95396436D02*
G75*
G02*
X99503706Y-94898088I158482J339866D01*
G01*
X101173048Y-91318173D02*
G75*
G02*
X101671396Y-91136789I339866J-158482D01*
G01*
X103332857Y-96683651D02*
G75*
G02*
X102834509Y-96865034I-339867J158487D01*
G01*
X103332857Y-96683651D02*
G75*
G02*
X105625254Y-95849286I1563381J-729015D01*
G01*
X105904843Y-91345473D02*
G75*
G02*
X103755727Y-92108730I-1450270J676270D01*
G01*
%TO.C,U_USB_01*%
D14*
X130890228Y-41509586D02*
X132710228Y-41509586D01*
X130890228Y-41559586D02*
X130890228Y-41509586D01*
X130890228Y-44629586D02*
X130890228Y-44579586D01*
X132710228Y-41509586D02*
X132710228Y-41559586D01*
X132710228Y-44579586D02*
X132710228Y-44629586D01*
X132710228Y-44629586D02*
X130890228Y-44629586D01*
X133250228Y-44579586D02*
X133490228Y-44909586D01*
X133010228Y-44909586D01*
X133250228Y-44579586D01*
G36*
X133490228Y-44909586D02*
G01*
X133010228Y-44909586D01*
X133250228Y-44579586D01*
X133490228Y-44909586D01*
G37*
%TO.C,S_MAT_23*%
D13*
X83606151Y-81107258D02*
X83864970Y-80141332D01*
X83606151Y-81107258D02*
X84572077Y-81366077D01*
D12*
X85277392Y-73324620D02*
X88633985Y-74224016D01*
X86034563Y-69049934D02*
X85012227Y-72865341D01*
X86493842Y-68784769D02*
X88715283Y-69380002D01*
D13*
X86711980Y-69516148D02*
X86970799Y-68550222D01*
X87936725Y-68809041D02*
X86970799Y-68550222D01*
D12*
X91205949Y-72739092D02*
X94200319Y-73541431D01*
X91311584Y-67901599D02*
X90699211Y-68255152D01*
X94812691Y-73187878D02*
X94200319Y-73541431D01*
X94812691Y-73187878D02*
X95770322Y-69613952D01*
D13*
X95197261Y-84213087D02*
X96163187Y-84471906D01*
D12*
X95416768Y-69001580D02*
X91311584Y-67901599D01*
X95770322Y-69613952D02*
X95416768Y-69001580D01*
D13*
X96422006Y-83505980D02*
X96163187Y-84471906D01*
D14*
X99338734Y-76522943D02*
X95465371Y-75485079D01*
X99338734Y-76522943D02*
X99856372Y-74591092D01*
D13*
X99527835Y-71914870D02*
X98561909Y-71656051D01*
X99527835Y-71914870D02*
X99269016Y-72880796D01*
D14*
X99856372Y-74591092D02*
X95983010Y-73553227D01*
D12*
X85277392Y-73324620D02*
G75*
G02*
X85012228Y-72865341I97058J362222D01*
G01*
X86034563Y-69049934D02*
G75*
G02*
X86493842Y-68784769I362220J-97054D01*
G01*
X89093264Y-73958851D02*
G75*
G02*
X88633985Y-74224016I-362222J97057D01*
G01*
X89093264Y-73958851D02*
G75*
G02*
X91205949Y-72739092I1666223J-446464D01*
G01*
X90699211Y-68255152D02*
G75*
G02*
X88715283Y-69380003I-1545670J414160D01*
G01*
%TO.C,J_USB_01*%
D14*
X134600228Y-37469586D02*
X134600228Y-35569586D01*
X134600228Y-41369586D02*
X134600228Y-39369586D01*
X144000228Y-35569586D02*
X134600228Y-35569586D01*
X144000228Y-37469586D02*
X144000228Y-35569586D01*
X144000228Y-41369586D02*
X144000228Y-39369586D01*
%TO.C,J1*%
X40315728Y-45343686D02*
X41695728Y-45343686D01*
X40315728Y-46723686D02*
X40315728Y-45343686D01*
X40315728Y-47993686D02*
X40315728Y-55723686D01*
X40315728Y-47993686D02*
X43075728Y-47993686D01*
X40315728Y-55723686D02*
X43075728Y-55723686D01*
X43075728Y-47993686D02*
X43075728Y-55723686D01*
%TO.C,S_MAT_01*%
D13*
X51204777Y-38842123D02*
X51378426Y-37857315D01*
X51204777Y-38842123D02*
X52189585Y-39015771D01*
D12*
X52191357Y-30943442D02*
X55613564Y-31546870D01*
X52573083Y-26619031D02*
X51887173Y-30509021D01*
X53007504Y-26314846D02*
X55272370Y-26714203D01*
D13*
X53288556Y-27024430D02*
X53462204Y-26039622D01*
X54447012Y-26213271D02*
X53462204Y-26039622D01*
D12*
X57729939Y-25015143D02*
X57150711Y-25420723D01*
X58046322Y-29843435D02*
X61099226Y-30381744D01*
X61678454Y-29976164D02*
X61099226Y-30381744D01*
X61678454Y-29976164D02*
X62320952Y-26332376D01*
X61915372Y-25753148D02*
X57729939Y-25015143D01*
X62320952Y-26332376D02*
X61915372Y-25753148D01*
D13*
X63022470Y-40925901D02*
X64007278Y-41099550D01*
X64180926Y-40114742D02*
X64007278Y-41099550D01*
X66264705Y-28297049D02*
X65279897Y-28123401D01*
X66264705Y-28297049D02*
X66091056Y-29281857D01*
D14*
X66477944Y-32904068D02*
X62528864Y-32207739D01*
X66477944Y-32904068D02*
X66825240Y-30934453D01*
X66825240Y-30934453D02*
X62876161Y-30238124D01*
D12*
X52191357Y-30943442D02*
G75*
G02*
X51887173Y-30509021I65115J369300D01*
G01*
X52573083Y-26619031D02*
G75*
G02*
X53007504Y-26314846I369303J-65118D01*
G01*
X56047985Y-31242685D02*
G75*
G02*
X55613564Y-31546870I-369303J65118D01*
G01*
X56047985Y-31242685D02*
G75*
G02*
X58046322Y-29843435I1698794J-299544D01*
G01*
X57150711Y-25420723D02*
G75*
G02*
X55272370Y-26714203I-1575884J277870D01*
G01*
%TO.C,S_MAT_21*%
D13*
X45300738Y-72325585D02*
X45474387Y-71340777D01*
X45300738Y-72325585D02*
X46285546Y-72499233D01*
D12*
X46287318Y-64426904D02*
X49709525Y-65030332D01*
X46669044Y-60102493D02*
X45983134Y-63992483D01*
X47103465Y-59798308D02*
X49368331Y-60197665D01*
D13*
X47384517Y-60507892D02*
X47558165Y-59523084D01*
X48542973Y-59696733D02*
X47558165Y-59523084D01*
D12*
X51825900Y-58498605D02*
X51246672Y-58904185D01*
X52142283Y-63326897D02*
X55195187Y-63865206D01*
X55774415Y-63459626D02*
X55195187Y-63865206D01*
X55774415Y-63459626D02*
X56416913Y-59815838D01*
X56011333Y-59236610D02*
X51825900Y-58498605D01*
X56416913Y-59815838D02*
X56011333Y-59236610D01*
D13*
X57118431Y-74409363D02*
X58103239Y-74583012D01*
X58276887Y-73598204D02*
X58103239Y-74583012D01*
X60360666Y-61780511D02*
X59375858Y-61606863D01*
X60360666Y-61780511D02*
X60187017Y-62765319D01*
D14*
X60573905Y-66387530D02*
X56624825Y-65691201D01*
X60573905Y-66387530D02*
X60921201Y-64417915D01*
X60921201Y-64417915D02*
X56972122Y-63721586D01*
D12*
X46287318Y-64426904D02*
G75*
G02*
X45983134Y-63992483I65115J369300D01*
G01*
X46669044Y-60102493D02*
G75*
G02*
X47103465Y-59798308I369303J-65118D01*
G01*
X50143946Y-64726147D02*
G75*
G02*
X49709525Y-65030332I-369303J65118D01*
G01*
X50143946Y-64726147D02*
G75*
G02*
X52142283Y-63326897I1698794J-299544D01*
G01*
X51246672Y-58904185D02*
G75*
G02*
X49368331Y-60197665I-1575884J277870D01*
G01*
%TO.C,S_MAT_15*%
D13*
X122863392Y-96998824D02*
X123436968Y-96179672D01*
X122863392Y-96998824D02*
X123682544Y-97572401D01*
D12*
X127095664Y-90257135D02*
X129942217Y-92250313D01*
X129269200Y-86499211D02*
X127003573Y-89734862D01*
D13*
X129746309Y-87169000D02*
X130319886Y-86349848D01*
D12*
X129791473Y-86407121D02*
X131675363Y-87726234D01*
D13*
X131139038Y-86923424D02*
X130319886Y-86349848D01*
X132693216Y-103881742D02*
X133512368Y-104455318D01*
D12*
X132866947Y-91734604D02*
X135406318Y-93512691D01*
D13*
X134085945Y-103636166D02*
X133512368Y-104455318D01*
D12*
X134620731Y-87224977D02*
X133924367Y-87347765D01*
X136102682Y-93389904D02*
X135406318Y-93512691D01*
X136102682Y-93389904D02*
X138224915Y-90359041D01*
X138102127Y-89662677D02*
X134620731Y-87224977D01*
X138224915Y-90359041D02*
X138102127Y-89662677D01*
D14*
X139215112Y-98071838D02*
X135930312Y-95771796D01*
X139215112Y-98071838D02*
X140362265Y-96433534D01*
X140362265Y-96433534D02*
X137077465Y-94133492D01*
D13*
X140968862Y-93806342D02*
X140149710Y-93232765D01*
X140968862Y-93806342D02*
X140395286Y-94625494D01*
D12*
X127095664Y-90257135D02*
G75*
G02*
X127003573Y-89734862I215091J307182D01*
G01*
X129269200Y-86499211D02*
G75*
G02*
X129791473Y-86407121I307182J-215092D01*
G01*
X130464490Y-92158222D02*
G75*
G02*
X129942217Y-92250313I-307182J215091D01*
G01*
X130464490Y-92158222D02*
G75*
G02*
X132866947Y-91734604I1413038J-989423D01*
G01*
X133924367Y-87347765D02*
G75*
G02*
X131675362Y-87726235I-1310804J917834D01*
G01*
%TO.C,S_MAT_02*%
D13*
X76055998Y-39515780D02*
X76314817Y-38549854D01*
X76055998Y-39515780D02*
X77021924Y-39774599D01*
D12*
X77727239Y-31733142D02*
X81083832Y-32632538D01*
X78484410Y-27458456D02*
X77462074Y-31273863D01*
X78943689Y-27193291D02*
X81165130Y-27788524D01*
D13*
X79161827Y-27924670D02*
X79420646Y-26958744D01*
X80386572Y-27217563D02*
X79420646Y-26958744D01*
D12*
X83655796Y-31147614D02*
X86650166Y-31949953D01*
X83761431Y-26310121D02*
X83149058Y-26663674D01*
X87262538Y-31596400D02*
X86650166Y-31949953D01*
X87262538Y-31596400D02*
X88220169Y-28022474D01*
D13*
X87647108Y-42621609D02*
X88613034Y-42880428D01*
D12*
X87866615Y-27410102D02*
X83761431Y-26310121D01*
X88220169Y-28022474D02*
X87866615Y-27410102D01*
D13*
X88871853Y-41914502D02*
X88613034Y-42880428D01*
D14*
X91788581Y-34931465D02*
X87915218Y-33893601D01*
X91788581Y-34931465D02*
X92306219Y-32999614D01*
D13*
X91977682Y-30323392D02*
X91011756Y-30064573D01*
X91977682Y-30323392D02*
X91718863Y-31289318D01*
D14*
X92306219Y-32999614D02*
X88432857Y-31961749D01*
D12*
X77727239Y-31733142D02*
G75*
G02*
X77462075Y-31273863I97058J362222D01*
G01*
X78484410Y-27458456D02*
G75*
G02*
X78943689Y-27193291I362220J-97054D01*
G01*
X81543111Y-32367373D02*
G75*
G02*
X81083832Y-32632538I-362222J97057D01*
G01*
X81543111Y-32367373D02*
G75*
G02*
X83655796Y-31147614I1666223J-446464D01*
G01*
X83149058Y-26663674D02*
G75*
G02*
X81165130Y-27788525I-1545670J414160D01*
G01*
%TO.C,J_VIK_IN_SW_01*%
D11*
X140870228Y-100819586D02*
X140870228Y-103188586D01*
X140870228Y-111819586D02*
X140870228Y-109450586D01*
X142531228Y-100819586D02*
X140870228Y-100819586D01*
X142531228Y-111819586D02*
X140870228Y-111819586D01*
X147365228Y-100819586D02*
X144982228Y-100819586D01*
X147365228Y-100819586D02*
X147365228Y-111819586D01*
X147365228Y-111819586D02*
X144982228Y-111819586D01*
X140489228Y-109748586D02*
G75*
G02*
X140235228Y-109748586I-127000J0D01*
G01*
X140235228Y-109748586D02*
G75*
G02*
X140489228Y-109748586I127000J0D01*
G01*
%TO.C,S_MAT_24*%
D13*
X100906151Y-85807258D02*
X101164970Y-84841332D01*
X100906151Y-85807258D02*
X101872077Y-86066077D01*
D12*
X102577392Y-78024620D02*
X105933985Y-78924016D01*
X103334563Y-73749934D02*
X102312227Y-77565341D01*
X103793842Y-73484769D02*
X106015283Y-74080002D01*
D13*
X104011980Y-74216148D02*
X104270799Y-73250222D01*
X105236725Y-73509041D02*
X104270799Y-73250222D01*
D12*
X108505949Y-77439092D02*
X111500319Y-78241431D01*
X108611584Y-72601599D02*
X107999211Y-72955152D01*
X112112691Y-77887878D02*
X111500319Y-78241431D01*
X112112691Y-77887878D02*
X113070322Y-74313952D01*
D13*
X112497261Y-88913087D02*
X113463187Y-89171906D01*
D12*
X112716768Y-73701580D02*
X108611584Y-72601599D01*
X113070322Y-74313952D02*
X112716768Y-73701580D01*
D13*
X113722006Y-88205980D02*
X113463187Y-89171906D01*
D14*
X116638734Y-81222943D02*
X112765371Y-80185079D01*
X116638734Y-81222943D02*
X117156372Y-79291092D01*
D13*
X116827835Y-76614870D02*
X115861909Y-76356051D01*
X116827835Y-76614870D02*
X116569016Y-77580796D01*
D14*
X117156372Y-79291092D02*
X113283010Y-78253227D01*
D12*
X102577392Y-78024620D02*
G75*
G02*
X102312228Y-77565341I97058J362222D01*
G01*
X103334563Y-73749934D02*
G75*
G02*
X103793842Y-73484769I362220J-97054D01*
G01*
X106393264Y-78658851D02*
G75*
G02*
X105933985Y-78924016I-362222J97057D01*
G01*
X106393264Y-78658851D02*
G75*
G02*
X108505949Y-77439092I1666223J-446464D01*
G01*
X107999211Y-72955152D02*
G75*
G02*
X106015283Y-74080003I-1545670J414160D01*
G01*
%TO.C,S_MAT_33*%
D13*
X79206227Y-97527997D02*
X79465046Y-96562071D01*
X79206227Y-97527997D02*
X80172153Y-97786816D01*
D12*
X80877468Y-89745359D02*
X84234061Y-90644755D01*
X81634639Y-85470673D02*
X80612303Y-89286080D01*
X82093918Y-85205508D02*
X84315359Y-85800741D01*
D13*
X82312056Y-85936887D02*
X82570875Y-84970961D01*
X83536801Y-85229780D02*
X82570875Y-84970961D01*
D12*
X86806025Y-89159831D02*
X89800395Y-89962170D01*
X86911660Y-84322338D02*
X86299287Y-84675891D01*
X90412767Y-89608617D02*
X89800395Y-89962170D01*
X90412767Y-89608617D02*
X91370398Y-86034691D01*
D13*
X90797337Y-100633826D02*
X91763263Y-100892645D01*
D12*
X91016844Y-85422319D02*
X86911660Y-84322338D01*
X91370398Y-86034691D02*
X91016844Y-85422319D01*
D13*
X92022082Y-99926719D02*
X91763263Y-100892645D01*
D14*
X94938810Y-92943682D02*
X91065447Y-91905818D01*
X94938810Y-92943682D02*
X95456448Y-91011831D01*
D13*
X95127911Y-88335609D02*
X94161985Y-88076790D01*
X95127911Y-88335609D02*
X94869092Y-89301535D01*
D14*
X95456448Y-91011831D02*
X91583086Y-89973966D01*
D12*
X80877468Y-89745359D02*
G75*
G02*
X80612304Y-89286080I97058J362222D01*
G01*
X81634639Y-85470673D02*
G75*
G02*
X82093918Y-85205508I362220J-97054D01*
G01*
X84693340Y-90379590D02*
G75*
G02*
X84234061Y-90644755I-362222J97057D01*
G01*
X84693340Y-90379590D02*
G75*
G02*
X86806025Y-89159831I1666223J-446464D01*
G01*
X86299287Y-84675891D02*
G75*
G02*
X84315359Y-85800742I-1545670J414160D01*
G01*
%TO.C,J_BAT_01*%
D14*
X30740228Y-28354586D02*
X30740228Y-31784586D01*
X33560228Y-27084586D02*
X35010228Y-27084586D01*
X33560228Y-33054586D02*
X35010228Y-33054586D01*
X35010228Y-27084586D02*
X35010228Y-28884586D01*
X35010228Y-28884586D02*
X36000228Y-28884586D01*
X35010228Y-33054586D02*
X35010228Y-31254586D01*
%TO.C,U_POW_01*%
X126790228Y-60522086D02*
X126840228Y-60522086D01*
X126790228Y-62342086D02*
X126790228Y-60522086D01*
X126840228Y-62342086D02*
X126790228Y-62342086D01*
X128740228Y-62342086D02*
X127960228Y-62342086D01*
X129860228Y-60522086D02*
X129910228Y-60522086D01*
X129910228Y-60522086D02*
X129910228Y-62342086D01*
X129910228Y-62342086D02*
X129860228Y-62342086D01*
X129860228Y-59982086D02*
X130190228Y-59742086D01*
X130190228Y-60222086D01*
X129860228Y-59982086D01*
G36*
X130190228Y-60222086D02*
G01*
X129860228Y-59982086D01*
X130190228Y-59742086D01*
X130190228Y-60222086D01*
G37*
%TO.C,S_MAT_13*%
D13*
X88006074Y-64686519D02*
X88264893Y-63720593D01*
X88006074Y-64686519D02*
X88972000Y-64945338D01*
D12*
X89677315Y-56903881D02*
X93033908Y-57803277D01*
X90434486Y-52629195D02*
X89412150Y-56444602D01*
X90893765Y-52364030D02*
X93115206Y-52959263D01*
D13*
X91111903Y-53095409D02*
X91370722Y-52129483D01*
X92336648Y-52388302D02*
X91370722Y-52129483D01*
D12*
X95605872Y-56318353D02*
X98600242Y-57120692D01*
X95711507Y-51480860D02*
X95099134Y-51834413D01*
X99212614Y-56767139D02*
X98600242Y-57120692D01*
X99212614Y-56767139D02*
X100170245Y-53193213D01*
D13*
X99597184Y-67792348D02*
X100563110Y-68051167D01*
D12*
X99816691Y-52580841D02*
X95711507Y-51480860D01*
X100170245Y-53193213D02*
X99816691Y-52580841D01*
D13*
X100821929Y-67085241D02*
X100563110Y-68051167D01*
D14*
X103738657Y-60102204D02*
X99865294Y-59064340D01*
X103738657Y-60102204D02*
X104256295Y-58170353D01*
D13*
X103927758Y-55494131D02*
X102961832Y-55235312D01*
X103927758Y-55494131D02*
X103668939Y-56460057D01*
D14*
X104256295Y-58170353D02*
X100382933Y-57132488D01*
D12*
X89677315Y-56903881D02*
G75*
G02*
X89412151Y-56444602I97058J362222D01*
G01*
X90434486Y-52629195D02*
G75*
G02*
X90893765Y-52364030I362220J-97054D01*
G01*
X93493187Y-57538112D02*
G75*
G02*
X93033908Y-57803277I-362222J97057D01*
G01*
X93493187Y-57538112D02*
G75*
G02*
X95605872Y-56318353I1666223J-446464D01*
G01*
X95099134Y-51834413D02*
G75*
G02*
X93115206Y-52959264I-1545670J414160D01*
G01*
%TO.C,S_MAT_00*%
X22025228Y-37794587D02*
X22025228Y-41744587D01*
X22400228Y-37419587D02*
X24700033Y-37419587D01*
X22400228Y-42119587D02*
X25875228Y-42119587D01*
D13*
X22800228Y-38069587D02*
X22800228Y-37069587D01*
X22800228Y-50069587D02*
X22800228Y-49069587D01*
X22800228Y-50069587D02*
X23800228Y-50069587D01*
X23800228Y-37069587D02*
X22800228Y-37069587D01*
D12*
X26825228Y-35319587D02*
X26325228Y-35819587D01*
X27975228Y-40019587D02*
X31075228Y-40019587D01*
X31075228Y-35319587D02*
X26825228Y-35319587D01*
X31575228Y-35819587D02*
X31075228Y-35319587D01*
X31575228Y-39519587D02*
X31075228Y-40019587D01*
X31575228Y-39519587D02*
X31575228Y-35819587D01*
D13*
X34800228Y-50069587D02*
X35800228Y-50069587D01*
X35800228Y-37069587D02*
X34800228Y-37069587D01*
X35800228Y-37069587D02*
X35800228Y-38069587D01*
X35800228Y-49069587D02*
X35800228Y-50069587D01*
D14*
X36810228Y-39569587D02*
X32800228Y-39569587D01*
X36810228Y-41569587D02*
X32800228Y-41569587D01*
X36810228Y-41569587D02*
X36810228Y-39569587D01*
D12*
X22025228Y-37794587D02*
G75*
G02*
X22400228Y-37419587I375000J0D01*
G01*
X22400228Y-42119587D02*
G75*
G02*
X22025228Y-41744587I0J375000D01*
G01*
X26250228Y-41744587D02*
G75*
G02*
X25875228Y-42119587I-375000J0D01*
G01*
X26250228Y-41744587D02*
G75*
G02*
X27975228Y-40019587I1725001J-1D01*
G01*
X26325228Y-35819587D02*
G75*
G02*
X24700033Y-37419588I-1600195J-1D01*
G01*
%TO.C,SW_BAT_01*%
X251625552Y-26361662D02*
X252980377Y-26243131D01*
X252418669Y-35427034D02*
X251625552Y-26361662D01*
D15*
X252702698Y-25363986D02*
X252702698Y-25363986D01*
X252720129Y-25563225D02*
X252720129Y-25563225D01*
D12*
X259953740Y-25633040D02*
X261388260Y-25507536D01*
X261388260Y-25507536D02*
X262181377Y-34572908D01*
X262181377Y-34572908D02*
X252418669Y-35427034D01*
D15*
X252702698Y-25363986D02*
G75*
G02*
X252720129Y-25563226I8714J-99620D01*
G01*
X252720129Y-25563225D02*
G75*
G02*
X252702698Y-25363987I-8717J99619D01*
G01*
%TO.C,U_MAT_01*%
D14*
X123040228Y-70359586D02*
X128560228Y-70359586D01*
X123040228Y-70884586D02*
X123040228Y-70359586D01*
X123040228Y-80779586D02*
X123040228Y-80254586D01*
X128560228Y-70359586D02*
X128560228Y-70884586D01*
X128560228Y-80254586D02*
X128560228Y-80779586D01*
X128560228Y-80779586D02*
X123040228Y-80779586D01*
X129300228Y-80259586D02*
X129640228Y-80729586D01*
X128960228Y-80729586D01*
X129300228Y-80259586D01*
G36*
X129640228Y-80729586D02*
G01*
X128960228Y-80729586D01*
X129300228Y-80259586D01*
X129640228Y-80729586D01*
G37*
%TO.C,S_MAT_14*%
D13*
X105306074Y-69386519D02*
X105564893Y-68420593D01*
X105306074Y-69386519D02*
X106272000Y-69645338D01*
D12*
X106977315Y-61603881D02*
X110333908Y-62503277D01*
X107734486Y-57329195D02*
X106712150Y-61144602D01*
X108193765Y-57064030D02*
X110415206Y-57659263D01*
D13*
X108411903Y-57795409D02*
X108670722Y-56829483D01*
X109636648Y-57088302D02*
X108670722Y-56829483D01*
D12*
X112905872Y-61018353D02*
X115900242Y-61820692D01*
X113011507Y-56180860D02*
X112399134Y-56534413D01*
X116512614Y-61467139D02*
X115900242Y-61820692D01*
X116512614Y-61467139D02*
X117470245Y-57893213D01*
D13*
X116897184Y-72492348D02*
X117863110Y-72751167D01*
D12*
X117116691Y-57280841D02*
X113011507Y-56180860D01*
X117470245Y-57893213D02*
X117116691Y-57280841D01*
D13*
X118121929Y-71785241D02*
X117863110Y-72751167D01*
D14*
X121038657Y-64802204D02*
X117165294Y-63764340D01*
X121038657Y-64802204D02*
X121556295Y-62870353D01*
D13*
X121227758Y-60194131D02*
X120261832Y-59935312D01*
X121227758Y-60194131D02*
X120968939Y-61160057D01*
D14*
X121556295Y-62870353D02*
X117682933Y-61832488D01*
D12*
X106977315Y-61603881D02*
G75*
G02*
X106712151Y-61144602I97058J362222D01*
G01*
X107734486Y-57329195D02*
G75*
G02*
X108193765Y-57064030I362220J-97054D01*
G01*
X110793187Y-62238112D02*
G75*
G02*
X110333908Y-62503277I-362222J97057D01*
G01*
X110793187Y-62238112D02*
G75*
G02*
X112905872Y-61018353I1666223J-446464D01*
G01*
X112399134Y-56534413D02*
G75*
G02*
X110415206Y-57659264I-1545670J414160D01*
G01*
%TO.C,S_MAT_20*%
X22025228Y-71794587D02*
X22025228Y-75744587D01*
X22400228Y-71419587D02*
X24700033Y-71419587D01*
X22400228Y-76119587D02*
X25875228Y-76119587D01*
D13*
X22800228Y-72069587D02*
X22800228Y-71069587D01*
X22800228Y-84069587D02*
X22800228Y-83069587D01*
X22800228Y-84069587D02*
X23800228Y-84069587D01*
X23800228Y-71069587D02*
X22800228Y-71069587D01*
D12*
X26825228Y-69319587D02*
X26325228Y-69819587D01*
X27975228Y-74019587D02*
X31075228Y-74019587D01*
X31075228Y-69319587D02*
X26825228Y-69319587D01*
X31575228Y-69819587D02*
X31075228Y-69319587D01*
X31575228Y-73519587D02*
X31075228Y-74019587D01*
X31575228Y-73519587D02*
X31575228Y-69819587D01*
D13*
X34800228Y-84069587D02*
X35800228Y-84069587D01*
X35800228Y-71069587D02*
X34800228Y-71069587D01*
X35800228Y-71069587D02*
X35800228Y-72069587D01*
X35800228Y-83069587D02*
X35800228Y-84069587D01*
D14*
X36810228Y-73569587D02*
X32800228Y-73569587D01*
X36810228Y-75569587D02*
X32800228Y-75569587D01*
X36810228Y-75569587D02*
X36810228Y-73569587D01*
D12*
X22025228Y-71794587D02*
G75*
G02*
X22400228Y-71419587I375000J0D01*
G01*
X22400228Y-76119587D02*
G75*
G02*
X22025228Y-75744587I0J375000D01*
G01*
X26250228Y-75744587D02*
G75*
G02*
X25875228Y-76119587I-375000J0D01*
G01*
X26250228Y-75744587D02*
G75*
G02*
X27975228Y-74019587I1725001J-1D01*
G01*
X26325228Y-69819587D02*
G75*
G02*
X24700033Y-71419588I-1600195J-1D01*
G01*
%TO.C,D_POW_01*%
D14*
X126690228Y-48719586D02*
X126690228Y-50419586D01*
X126690228Y-48719586D02*
X129350228Y-48719586D01*
X126690228Y-50419586D02*
X129350228Y-50419586D01*
%TO.C,S_MAT_04*%
D13*
X109705998Y-52965780D02*
X109964817Y-51999854D01*
X109705998Y-52965780D02*
X110671924Y-53224599D01*
D12*
X111377239Y-45183142D02*
X114733832Y-46082538D01*
X112134410Y-40908456D02*
X111112074Y-44723863D01*
X112593689Y-40643291D02*
X114815130Y-41238524D01*
D13*
X112811827Y-41374670D02*
X113070646Y-40408744D01*
X114036572Y-40667563D02*
X113070646Y-40408744D01*
D12*
X117305796Y-44597614D02*
X120300166Y-45399953D01*
X117411431Y-39760121D02*
X116799058Y-40113674D01*
X120912538Y-45046400D02*
X120300166Y-45399953D01*
X120912538Y-45046400D02*
X121870169Y-41472474D01*
D13*
X121297108Y-56071609D02*
X122263034Y-56330428D01*
D12*
X121516615Y-40860102D02*
X117411431Y-39760121D01*
X121870169Y-41472474D02*
X121516615Y-40860102D01*
D13*
X122521853Y-55364502D02*
X122263034Y-56330428D01*
D14*
X125438581Y-48381465D02*
X121565218Y-47343601D01*
X125438581Y-48381465D02*
X125956219Y-46449614D01*
D13*
X125627682Y-43773392D02*
X124661756Y-43514573D01*
X125627682Y-43773392D02*
X125368863Y-44739318D01*
D14*
X125956219Y-46449614D02*
X122082857Y-45411749D01*
D12*
X111377239Y-45183142D02*
G75*
G02*
X111112075Y-44723863I97058J362222D01*
G01*
X112134410Y-40908456D02*
G75*
G02*
X112593689Y-40643291I362220J-97054D01*
G01*
X115193111Y-45817373D02*
G75*
G02*
X114733832Y-46082538I-362222J97057D01*
G01*
X115193111Y-45817373D02*
G75*
G02*
X117305796Y-44597614I1666223J-446464D01*
G01*
X116799058Y-40113674D02*
G75*
G02*
X114815130Y-41238525I-1545670J414160D01*
G01*
%TO.C,S_MAT_31*%
D13*
X42311790Y-89060804D02*
X42485439Y-88075996D01*
X42311790Y-89060804D02*
X43296598Y-89234452D01*
D12*
X43298370Y-81162123D02*
X46720577Y-81765551D01*
X43680096Y-76837712D02*
X42994186Y-80727702D01*
X44114517Y-76533527D02*
X46379383Y-76932884D01*
D13*
X44395569Y-77243111D02*
X44569217Y-76258303D01*
X45554025Y-76431952D02*
X44569217Y-76258303D01*
D12*
X48836952Y-75233824D02*
X48257724Y-75639404D01*
X49153335Y-80062116D02*
X52206239Y-80600425D01*
X52785467Y-80194845D02*
X52206239Y-80600425D01*
X52785467Y-80194845D02*
X53427965Y-76551057D01*
X53022385Y-75971829D02*
X48836952Y-75233824D01*
X53427965Y-76551057D02*
X53022385Y-75971829D01*
D13*
X54129483Y-91144582D02*
X55114291Y-91318231D01*
X55287939Y-90333423D02*
X55114291Y-91318231D01*
X57371718Y-78515730D02*
X56386910Y-78342082D01*
X57371718Y-78515730D02*
X57198069Y-79500538D01*
D14*
X57584957Y-83122749D02*
X53635877Y-82426420D01*
X57584957Y-83122749D02*
X57932253Y-81153134D01*
X57932253Y-81153134D02*
X53983174Y-80456805D01*
D12*
X43298370Y-81162123D02*
G75*
G02*
X42994186Y-80727702I65115J369300D01*
G01*
X43680096Y-76837712D02*
G75*
G02*
X44114517Y-76533527I369303J-65118D01*
G01*
X47154998Y-81461366D02*
G75*
G02*
X46720577Y-81765551I-369303J65118D01*
G01*
X47154998Y-81461366D02*
G75*
G02*
X49153335Y-80062116I1698794J-299544D01*
G01*
X48257724Y-75639404D02*
G75*
G02*
X46379383Y-76932884I-1575884J277870D01*
G01*
%TO.C,Q_POW_01*%
D14*
X126740228Y-51809586D02*
X126790228Y-51809586D01*
X126740228Y-53329586D02*
X126740228Y-51809586D01*
X127740228Y-53329586D02*
X126740228Y-53329586D01*
X127910228Y-51809586D02*
X128690228Y-51809586D01*
X129810228Y-51809586D02*
X129860228Y-51809586D01*
X129860228Y-51809586D02*
X129860228Y-53329586D01*
X129860228Y-53329586D02*
X128860228Y-53329586D01*
X128680228Y-51269586D02*
X128350228Y-51509586D01*
X128350228Y-51029586D01*
X128680228Y-51269586D01*
G36*
X128680228Y-51269586D02*
G01*
X128350228Y-51509586D01*
X128350228Y-51029586D01*
X128680228Y-51269586D01*
G37*
%TO.C,S_MAT_12*%
D13*
X71656074Y-55936519D02*
X71914893Y-54970593D01*
X71656074Y-55936519D02*
X72622000Y-56195338D01*
D12*
X73327315Y-48153881D02*
X76683908Y-49053277D01*
X74084486Y-43879195D02*
X73062150Y-47694602D01*
X74543765Y-43614030D02*
X76765206Y-44209263D01*
D13*
X74761903Y-44345409D02*
X75020722Y-43379483D01*
X75986648Y-43638302D02*
X75020722Y-43379483D01*
D12*
X79255872Y-47568353D02*
X82250242Y-48370692D01*
X79361507Y-42730860D02*
X78749134Y-43084413D01*
X82862614Y-48017139D02*
X82250242Y-48370692D01*
X82862614Y-48017139D02*
X83820245Y-44443213D01*
D13*
X83247184Y-59042348D02*
X84213110Y-59301167D01*
D12*
X83466691Y-43830841D02*
X79361507Y-42730860D01*
X83820245Y-44443213D02*
X83466691Y-43830841D01*
D13*
X84471929Y-58335241D02*
X84213110Y-59301167D01*
D14*
X87388657Y-51352204D02*
X83515294Y-50314340D01*
X87388657Y-51352204D02*
X87906295Y-49420353D01*
D13*
X87577758Y-46744131D02*
X86611832Y-46485312D01*
X87577758Y-46744131D02*
X87318939Y-47710057D01*
D14*
X87906295Y-49420353D02*
X84032933Y-48382488D01*
D12*
X73327315Y-48153881D02*
G75*
G02*
X73062151Y-47694602I97058J362222D01*
G01*
X74084486Y-43879195D02*
G75*
G02*
X74543765Y-43614030I362220J-97054D01*
G01*
X77143187Y-48788112D02*
G75*
G02*
X76683908Y-49053277I-362222J97057D01*
G01*
X77143187Y-48788112D02*
G75*
G02*
X79255872Y-47568353I1666223J-446464D01*
G01*
X78749134Y-43084413D02*
G75*
G02*
X76765206Y-44209264I-1545670J414160D01*
G01*
%TO.C,S_MAT_35*%
D13*
X127857840Y-121769586D02*
X128564947Y-121062479D01*
X127857840Y-121769586D02*
X128564947Y-122476693D01*
D12*
X133196496Y-115865244D02*
X135653692Y-118322440D01*
X135989568Y-112541843D02*
X133196496Y-115334914D01*
D13*
X136343121Y-113284305D02*
X137050228Y-112577198D01*
X136343121Y-130254867D02*
X137050228Y-130961974D01*
D12*
X136519898Y-112541843D02*
X138146106Y-114168050D01*
D13*
X137757335Y-113284305D02*
X137050228Y-112577198D01*
X137757335Y-130254867D02*
X137050228Y-130961974D01*
D12*
X138623541Y-118322440D02*
X140815572Y-120514471D01*
X141133770Y-114185866D02*
X140426663Y-114185866D01*
X141522678Y-120514471D02*
X140815572Y-120514471D01*
X141522678Y-120514471D02*
X144138973Y-117898176D01*
D14*
X143774813Y-125665744D02*
X140939315Y-122830246D01*
X143774813Y-125665744D02*
X145189027Y-124251531D01*
D12*
X144138973Y-117191070D02*
X141133770Y-114185866D01*
X144138973Y-117898176D02*
X144138973Y-117191070D01*
D14*
X145189027Y-124251531D02*
X142353529Y-121416033D01*
D13*
X146242616Y-121769586D02*
X145535509Y-121062479D01*
X146242616Y-121769586D02*
X145535509Y-122476693D01*
D12*
X133196496Y-115865244D02*
G75*
G02*
X133196496Y-115334914I265165J265165D01*
G01*
X135989568Y-112541843D02*
G75*
G02*
X136519898Y-112541843I265165J-265165D01*
G01*
X136184022Y-118322440D02*
G75*
G02*
X135653692Y-118322440I-265165J265165D01*
G01*
X136184022Y-118322440D02*
G75*
G02*
X138623541Y-118322439I1219760J-1219762D01*
G01*
X140426663Y-114185866D02*
G75*
G02*
X138146105Y-114168051I-1131510J1131508D01*
G01*
%TO.C,S_MAT_03*%
D13*
X92405998Y-48265780D02*
X92664817Y-47299854D01*
X92405998Y-48265780D02*
X93371924Y-48524599D01*
D12*
X94077239Y-40483142D02*
X97433832Y-41382538D01*
X94834410Y-36208456D02*
X93812074Y-40023863D01*
X95293689Y-35943291D02*
X97515130Y-36538524D01*
D13*
X95511827Y-36674670D02*
X95770646Y-35708744D01*
X96736572Y-35967563D02*
X95770646Y-35708744D01*
D12*
X100005796Y-39897614D02*
X103000166Y-40699953D01*
X100111431Y-35060121D02*
X99499058Y-35413674D01*
X103612538Y-40346400D02*
X103000166Y-40699953D01*
X103612538Y-40346400D02*
X104570169Y-36772474D01*
D13*
X103997108Y-51371609D02*
X104963034Y-51630428D01*
D12*
X104216615Y-36160102D02*
X100111431Y-35060121D01*
X104570169Y-36772474D02*
X104216615Y-36160102D01*
D13*
X105221853Y-50664502D02*
X104963034Y-51630428D01*
D14*
X108138581Y-43681465D02*
X104265218Y-42643601D01*
X108138581Y-43681465D02*
X108656219Y-41749614D01*
D13*
X108327682Y-39073392D02*
X107361756Y-38814573D01*
X108327682Y-39073392D02*
X108068863Y-40039318D01*
D14*
X108656219Y-41749614D02*
X104782857Y-40711749D01*
D12*
X94077239Y-40483142D02*
G75*
G02*
X93812075Y-40023863I97058J362222D01*
G01*
X94834410Y-36208456D02*
G75*
G02*
X95293689Y-35943291I362220J-97054D01*
G01*
X97893111Y-41117373D02*
G75*
G02*
X97433832Y-41382538I-362222J97057D01*
G01*
X97893111Y-41117373D02*
G75*
G02*
X100005796Y-39897614I1666223J-446464D01*
G01*
X99499058Y-35413674D02*
G75*
G02*
X97515130Y-36538525I-1545670J414160D01*
G01*
%TO.C,F_USB_02*%
D14*
X132558806Y-39359586D02*
X132041650Y-39359586D01*
X132558806Y-40779586D02*
X132041650Y-40779586D01*
%TO.C,S_MAT_22*%
D13*
X67256151Y-72357258D02*
X67514970Y-71391332D01*
X67256151Y-72357258D02*
X68222077Y-72616077D01*
D12*
X68927392Y-64574620D02*
X72283985Y-65474016D01*
X69684563Y-60299934D02*
X68662227Y-64115341D01*
X70143842Y-60034769D02*
X72365283Y-60630002D01*
D13*
X70361980Y-60766148D02*
X70620799Y-59800222D01*
X71586725Y-60059041D02*
X70620799Y-59800222D01*
D12*
X74855949Y-63989092D02*
X77850319Y-64791431D01*
X74961584Y-59151599D02*
X74349211Y-59505152D01*
X78462691Y-64437878D02*
X77850319Y-64791431D01*
X78462691Y-64437878D02*
X79420322Y-60863952D01*
D13*
X78847261Y-75463087D02*
X79813187Y-75721906D01*
D12*
X79066768Y-60251580D02*
X74961584Y-59151599D01*
X79420322Y-60863952D02*
X79066768Y-60251580D01*
D13*
X80072006Y-74755980D02*
X79813187Y-75721906D01*
D14*
X82988734Y-67772943D02*
X79115371Y-66735079D01*
X82988734Y-67772943D02*
X83506372Y-65841092D01*
D13*
X83177835Y-63164870D02*
X82211909Y-62906051D01*
X83177835Y-63164870D02*
X82919016Y-64130796D01*
D14*
X83506372Y-65841092D02*
X79633010Y-64803227D01*
D12*
X68927392Y-64574620D02*
G75*
G02*
X68662228Y-64115341I97058J362222D01*
G01*
X69684563Y-60299934D02*
G75*
G02*
X70143842Y-60034769I362220J-97054D01*
G01*
X72743264Y-65208851D02*
G75*
G02*
X72283985Y-65474016I-362222J97057D01*
G01*
X72743264Y-65208851D02*
G75*
G02*
X74855949Y-63989092I1666223J-446464D01*
G01*
X74349211Y-59505152D02*
G75*
G02*
X72365283Y-60630003I-1545670J414160D01*
G01*
%TO.C,S_MAT_11*%
D13*
X48252758Y-55583855D02*
X48426407Y-54599047D01*
X48252758Y-55583855D02*
X49237566Y-55757503D01*
D12*
X49239338Y-47685174D02*
X52661545Y-48288602D01*
X49621064Y-43360763D02*
X48935154Y-47250753D01*
X50055485Y-43056578D02*
X52320351Y-43455935D01*
D13*
X50336537Y-43766162D02*
X50510185Y-42781354D01*
X51494993Y-42955003D02*
X50510185Y-42781354D01*
D12*
X54777920Y-41756875D02*
X54198692Y-42162455D01*
X55094303Y-46585167D02*
X58147207Y-47123476D01*
X58726435Y-46717896D02*
X58147207Y-47123476D01*
X58726435Y-46717896D02*
X59368933Y-43074108D01*
X58963353Y-42494880D02*
X54777920Y-41756875D01*
X59368933Y-43074108D02*
X58963353Y-42494880D01*
D13*
X60070451Y-57667633D02*
X61055259Y-57841282D01*
X61228907Y-56856474D02*
X61055259Y-57841282D01*
X63312686Y-45038781D02*
X62327878Y-44865133D01*
X63312686Y-45038781D02*
X63139037Y-46023589D01*
D14*
X63525925Y-49645800D02*
X59576845Y-48949471D01*
X63525925Y-49645800D02*
X63873221Y-47676185D01*
X63873221Y-47676185D02*
X59924142Y-46979856D01*
D12*
X49239338Y-47685174D02*
G75*
G02*
X48935154Y-47250753I65115J369300D01*
G01*
X49621064Y-43360763D02*
G75*
G02*
X50055485Y-43056578I369303J-65118D01*
G01*
X53095966Y-47984417D02*
G75*
G02*
X52661545Y-48288602I-369303J65118D01*
G01*
X53095966Y-47984417D02*
G75*
G02*
X55094303Y-46585167I1698794J-299544D01*
G01*
X54198692Y-42162455D02*
G75*
G02*
X52320351Y-43455935I-1575884J277870D01*
G01*
%TO.C,S_MAT_25*%
D13*
X113113662Y-110896487D02*
X113687238Y-110077335D01*
X113113662Y-110896487D02*
X113932814Y-111470064D01*
D12*
X117345934Y-104154798D02*
X120192487Y-106147976D01*
X119519470Y-100396874D02*
X117253843Y-103632525D01*
D13*
X119996579Y-101066663D02*
X120570156Y-100247511D01*
D12*
X120041743Y-100304784D02*
X121925633Y-101623897D01*
D13*
X121389308Y-100821087D02*
X120570156Y-100247511D01*
X122943486Y-117779405D02*
X123762638Y-118352981D01*
D12*
X123117217Y-105632267D02*
X125656588Y-107410354D01*
D13*
X124336215Y-117533829D02*
X123762638Y-118352981D01*
D12*
X124871001Y-101122640D02*
X124174637Y-101245428D01*
X126352952Y-107287567D02*
X125656588Y-107410354D01*
X126352952Y-107287567D02*
X128475185Y-104256704D01*
X128352397Y-103560340D02*
X124871001Y-101122640D01*
X128475185Y-104256704D02*
X128352397Y-103560340D01*
D14*
X129465382Y-111969501D02*
X126180582Y-109669459D01*
X129465382Y-111969501D02*
X130612535Y-110331197D01*
X130612535Y-110331197D02*
X127327735Y-108031155D01*
D13*
X131219132Y-107704005D02*
X130399980Y-107130428D01*
X131219132Y-107704005D02*
X130645556Y-108523157D01*
D12*
X117345934Y-104154798D02*
G75*
G02*
X117253843Y-103632525I215091J307182D01*
G01*
X119519470Y-100396874D02*
G75*
G02*
X120041743Y-100304784I307182J-215092D01*
G01*
X120714760Y-106055885D02*
G75*
G02*
X120192487Y-106147976I-307182J215091D01*
G01*
X120714760Y-106055885D02*
G75*
G02*
X123117217Y-105632267I1413038J-989423D01*
G01*
X124174637Y-101245428D02*
G75*
G02*
X121925632Y-101623898I-1310804J917834D01*
G01*
%TO.C,S_MAT_32*%
D13*
X62856227Y-88777997D02*
X63115046Y-87812071D01*
X62856227Y-88777997D02*
X63822153Y-89036816D01*
D12*
X64527468Y-80995359D02*
X67884061Y-81894755D01*
X65284639Y-76720673D02*
X64262303Y-80536080D01*
X65743918Y-76455508D02*
X67965359Y-77050741D01*
D13*
X65962056Y-77186887D02*
X66220875Y-76220961D01*
X67186801Y-76479780D02*
X66220875Y-76220961D01*
D12*
X70456025Y-80409831D02*
X73450395Y-81212170D01*
X70561660Y-75572338D02*
X69949287Y-75925891D01*
X74062767Y-80858617D02*
X73450395Y-81212170D01*
X74062767Y-80858617D02*
X75020398Y-77284691D01*
D13*
X74447337Y-91883826D02*
X75413263Y-92142645D01*
D12*
X74666844Y-76672319D02*
X70561660Y-75572338D01*
X75020398Y-77284691D02*
X74666844Y-76672319D01*
D13*
X75672082Y-91176719D02*
X75413263Y-92142645D01*
D14*
X78588810Y-84193682D02*
X74715447Y-83155818D01*
X78588810Y-84193682D02*
X79106448Y-82261831D01*
D13*
X78777911Y-79585609D02*
X77811985Y-79326790D01*
X78777911Y-79585609D02*
X78519092Y-80551535D01*
D14*
X79106448Y-82261831D02*
X75233086Y-81223966D01*
D12*
X64527468Y-80995359D02*
G75*
G02*
X64262304Y-80536080I97058J362222D01*
G01*
X65284639Y-76720673D02*
G75*
G02*
X65743918Y-76455508I362220J-97054D01*
G01*
X68343340Y-81629590D02*
G75*
G02*
X67884061Y-81894755I-362222J97057D01*
G01*
X68343340Y-81629590D02*
G75*
G02*
X70456025Y-80409831I1666223J-446464D01*
G01*
X69949287Y-75925891D02*
G75*
G02*
X67965359Y-77050742I-1545670J414160D01*
G01*
%TD*%
M02*
