%TF.GenerationSoftware,KiCad,Pcbnew,10.0.3-10.0.3~ubuntu24.04.1*%
%TF.CreationDate,2026-05-19T22:17:26-05:00*%
%TF.ProjectId,androphage_switch,616e6472-6f70-4686-9167-655f73776974,rev?*%
%TF.SameCoordinates,Original*%
%TF.FileFunction,Paste,Bot*%
%TF.FilePolarity,Positive*%
%FSLAX46Y46*%
G04 Gerber Fmt 4.6, Leading zero omitted, Abs format (unit mm)*
G04 Created by KiCad (PCBNEW 10.0.3-10.0.3~ubuntu24.04.1) date 2026-05-19 22:17:26*
%MOMM*%
%LPD*%
G01*
G04 APERTURE LIST*
G04 Aperture macros list*
%AMRoundRect*
0 Rectangle with rounded corners*
0 $1 Rounding radius*
0 $2 $3 $4 $5 $6 $7 $8 $9 X,Y pos of 4 corners*
0 Add a 4 corners polygon primitive as box body*
4,1,4,$2,$3,$4,$5,$6,$7,$8,$9,$2,$3,0*
0 Add four circle primitives for the rounded corners*
1,1,$1+$1,$2,$3*
1,1,$1+$1,$4,$5*
1,1,$1+$1,$6,$7*
1,1,$1+$1,$8,$9*
0 Add four rect primitives between the rounded corners*
20,1,$1+$1,$2,$3,$4,$5,0*
20,1,$1+$1,$4,$5,$6,$7,0*
20,1,$1+$1,$6,$7,$8,$9,0*
20,1,$1+$1,$8,$9,$2,$3,0*%
G04 Aperture macros list end*
%ADD10RoundRect,0.225000X-0.225000X-0.375000X0.225000X-0.375000X0.225000X0.375000X-0.225000X0.375000X0*%
%ADD11RoundRect,0.520000X-0.780000X-0.780000X0.780000X-0.780000X0.780000X0.780000X-0.780000X0.780000X0*%
%ADD12RoundRect,0.090000X-0.139000X-0.090000X0.139000X-0.090000X0.139000X0.090000X-0.139000X0.090000X0*%
%ADD13RoundRect,0.225000X-0.362401X-0.244776X0.045437X-0.434955X0.362401X0.244776X-0.045437X0.434955X0*%
%ADD14RoundRect,0.520000X-1.036562X-0.377278X0.377278X-1.036562X1.036562X0.377278X-0.377278X1.036562X0*%
%ADD15RoundRect,0.218750X-0.218750X-0.381250X0.218750X-0.381250X0.218750X0.381250X-0.218750X0.381250X0*%
%ADD16RoundRect,0.225000X-0.314390X-0.303988X0.120276X-0.420456X0.314390X0.303988X-0.120276X0.420456X0*%
%ADD17RoundRect,0.520000X-0.955301X-0.551543X0.551543X-0.955301X0.955301X0.551543X-0.551543X0.955301X0*%
%ADD18RoundRect,0.225000X-0.286700X-0.330232X0.156464X-0.408374X0.286700X0.330232X-0.156464X0.408374X0*%
%ADD19RoundRect,0.520000X-0.903596X-0.632704X0.632704X-0.903596X0.903596X0.632704X-0.632704X0.903596X0*%
%ADD20RoundRect,0.225000X-0.399400X-0.178127X-0.030782X-0.436237X0.399400X0.178127X0.030782X0.436237X0*%
%ADD21RoundRect,0.520000X-1.086328X-0.191549X0.191549X-1.086328X1.086328X0.191549X-0.191549X1.086328X0*%
%ADD22RoundRect,0.250000X-0.745933X0.534868X-0.069744X-0.915224X0.745933X-0.534868X0.069744X0.915224X0*%
%ADD23RoundRect,0.225000X-0.424264X-0.106066X-0.106066X-0.424264X0.424264X0.106066X0.106066X0.424264X0*%
%ADD24RoundRect,0.520000X-1.103087X0.000000X0.000000X-1.103087X1.103087X0.000000X0.000000X1.103087X0*%
G04 APERTURE END LIST*
D10*
%TO.C,S_MAT_10*%
X32790229Y-63569586D03*
D11*
X33000228Y-66469586D03*
X20600228Y-64369586D03*
D10*
X36090229Y-63569586D03*
%TD*%
D12*
%TO.C,R_MAT_01*%
X124367728Y-71569586D03*
X125232728Y-71569586D03*
%TD*%
D13*
%TO.C,S_MAT_34*%
X107220977Y-103820510D03*
D14*
X106185708Y-106537552D03*
X95834990Y-99393839D03*
D13*
X110211793Y-105215150D03*
%TD*%
D15*
%TO.C,FB_USB_01*%
X145237728Y-42069586D03*
X147362728Y-42069586D03*
%TD*%
D12*
%TO.C,R_MAT_21*%
X124367728Y-73569586D03*
X125232728Y-73569586D03*
%TD*%
%TO.C,R_MAT_11*%
X124367728Y-72569586D03*
X125232728Y-72569586D03*
%TD*%
D16*
%TO.C,S_MAT_23*%
X94161618Y-80312120D03*
D17*
X93613886Y-83167657D03*
X82179926Y-77929856D03*
D16*
X97349173Y-81166223D03*
%TD*%
D18*
%TO.C,S_MAT_01*%
X61650777Y-37130042D03*
D19*
X61354005Y-40022450D03*
X49507049Y-35801116D03*
D18*
X64900642Y-37703081D03*
%TD*%
%TO.C,S_MAT_21*%
X55746738Y-70613504D03*
D19*
X55449966Y-73505912D03*
X43603010Y-69284578D03*
D18*
X58996603Y-71186543D03*
%TD*%
D20*
%TO.C,S_MAT_15*%
X133054239Y-99861821D03*
D21*
X131562889Y-102357813D03*
X122609914Y-93525246D03*
D20*
X135757441Y-101754624D03*
%TD*%
D16*
%TO.C,S_MAT_02*%
X86611465Y-38720642D03*
D17*
X86063733Y-41576179D03*
X74629773Y-36338378D03*
D16*
X89799020Y-39574745D03*
%TD*%
%TO.C,S_MAT_24*%
X111461618Y-85012120D03*
D17*
X110913886Y-87867657D03*
X99479926Y-82629856D03*
D16*
X114649173Y-85866223D03*
%TD*%
%TO.C,S_MAT_33*%
X89761694Y-96732859D03*
D17*
X89213962Y-99588396D03*
X77780002Y-94350595D03*
D16*
X92949249Y-97586962D03*
%TD*%
D12*
%TO.C,R_MAT_12*%
X119367728Y-72569586D03*
X120232728Y-72569586D03*
%TD*%
%TO.C,R_MAT_31*%
X119275228Y-74569586D03*
X120140228Y-74569586D03*
%TD*%
D16*
%TO.C,S_MAT_13*%
X98561541Y-63891381D03*
D17*
X98013809Y-66746918D03*
X86579849Y-61509117D03*
D16*
X101749096Y-64745484D03*
%TD*%
D10*
%TO.C,S_MAT_00*%
X32790229Y-46569587D03*
D11*
X33000228Y-49469587D03*
X20600228Y-47369587D03*
D10*
X36090229Y-46569587D03*
%TD*%
D16*
%TO.C,S_MAT_14*%
X115861541Y-68591381D03*
D17*
X115313809Y-71446918D03*
X103879849Y-66209117D03*
D16*
X119049096Y-69445484D03*
%TD*%
D10*
%TO.C,S_MAT_20*%
X32790229Y-80569587D03*
D11*
X33000228Y-83469587D03*
X20600228Y-81369587D03*
D10*
X36090229Y-80569587D03*
%TD*%
D16*
%TO.C,S_MAT_04*%
X120261465Y-52170642D03*
D17*
X119713733Y-55026179D03*
X108279773Y-49788378D03*
D16*
X123449020Y-53024745D03*
%TD*%
D18*
%TO.C,S_MAT_31*%
X52757790Y-87348723D03*
D19*
X52461018Y-90241131D03*
X40614062Y-86019797D03*
D18*
X56007655Y-87921762D03*
%TD*%
D22*
%TO.C,SW_RST_01*%
X173948161Y-79804127D03*
X177793988Y-88051528D03*
X178026546Y-77902344D03*
X181872373Y-86149745D03*
%TD*%
D16*
%TO.C,S_MAT_12*%
X82211541Y-55141381D03*
D17*
X81663809Y-57996918D03*
X70229849Y-52759117D03*
D16*
X85399096Y-55995484D03*
%TD*%
D23*
%TO.C,S_MAT_35*%
X137396711Y-126358710D03*
D24*
X135494593Y-128557811D03*
X128211393Y-118304763D03*
D23*
X139730163Y-128692162D03*
%TD*%
D12*
%TO.C,R_MAT_02*%
X119367728Y-71569586D03*
X120232728Y-71569586D03*
%TD*%
D16*
%TO.C,S_MAT_03*%
X102961465Y-47470642D03*
D17*
X102413733Y-50326179D03*
X90979773Y-45088378D03*
D16*
X106149020Y-48324745D03*
%TD*%
%TO.C,S_MAT_22*%
X77811618Y-71562120D03*
D17*
X77263886Y-74417657D03*
X65829926Y-69179856D03*
D16*
X80999173Y-72416223D03*
%TD*%
D18*
%TO.C,S_MAT_11*%
X58698758Y-53871774D03*
D19*
X58401986Y-56764182D03*
X46555030Y-52542848D03*
D18*
X61948623Y-54444813D03*
%TD*%
D20*
%TO.C,S_MAT_25*%
X123304509Y-113759484D03*
D21*
X121813159Y-116255476D03*
X112860184Y-107422909D03*
D20*
X126007711Y-115652287D03*
%TD*%
D12*
%TO.C,R_MAT_22*%
X119367728Y-73569586D03*
X120232728Y-73569586D03*
%TD*%
D16*
%TO.C,S_MAT_32*%
X73411694Y-87982859D03*
D17*
X72863962Y-90838396D03*
X61430002Y-85600595D03*
D16*
X76599249Y-88836962D03*
%TD*%
M02*
