%TF.GenerationSoftware,KiCad,Pcbnew,10.0.2*%
%TF.CreationDate,2026-05-21T15:46:53-05:00*%
%TF.ProjectId,pcb_plate,7063625f-706c-4617-9465-2e6b69636164,rev?*%
%TF.SameCoordinates,Original*%
%TF.FileFunction,Soldermask,Bot*%
%TF.FilePolarity,Negative*%
%FSLAX46Y46*%
G04 Gerber Fmt 4.6, Leading zero omitted, Abs format (unit mm)*
G04 Created by KiCad (PCBNEW 10.0.2) date 2026-05-21 15:46:53*
%MOMM*%
%LPD*%
G01*
G04 APERTURE LIST*
G04 Aperture macros list*
%AMRoundRect*
0 Rectangle with rounded corners*
0 $1 Rounding radius*
0 $2 $3 $4 $5 $6 $7 $8 $9 X,Y pos of 4 corners*
0 Add a 4 corners polygon primitive as box body*
4,1,4,$2,$3,$4,$5,$6,$7,$8,$9,$2,$3,0*
0 Add four circle primitives for the rounded corners*
1,1,$1+$1,$2,$3*
1,1,$1+$1,$4,$5*
1,1,$1+$1,$6,$7*
1,1,$1+$1,$8,$9*
0 Add four rect primitives between the rounded corners*
20,1,$1+$1,$2,$3,$4,$5,0*
20,1,$1+$1,$4,$5,$6,$7,0*
20,1,$1+$1,$6,$7,$8,$9,0*
20,1,$1+$1,$8,$9,$2,$3,0*%
G04 Aperture macros list end*
%ADD10RoundRect,0.250000X-0.300000X-0.300000X0.300000X-0.300000X0.300000X0.300000X-0.300000X0.300000X0*%
%ADD11C,1.701800*%
%ADD12C,5.250000*%
%ADD13C,4.000000*%
%ADD14RoundRect,0.520000X-0.780000X-0.780000X0.780000X-0.780000X0.780000X0.780000X-0.780000X0.780000X0*%
%ADD15RoundRect,0.500000X0.750000X0.775000X-0.750000X0.775000X-0.750000X-0.775000X0.750000X-0.775000X0*%
%ADD16C,0.500000*%
%ADD17RoundRect,0.250000X-0.367423X-0.212132X0.212132X-0.367423X0.367423X0.212132X-0.212132X0.367423X0*%
%ADD18RoundRect,0.520000X-0.955301X-0.551543X0.551543X-0.955301X0.955301X0.551543X-0.551543X0.955301X0*%
%ADD19RoundRect,0.500000X0.925029X0.554478X-0.523860X0.942707X-0.925029X-0.554478X0.523860X-0.942707X0*%
%ADD20RoundRect,0.250000X-0.347537X-0.243348X0.243348X-0.347537X0.347537X0.243348X-0.243348X0.347537X0*%
%ADD21RoundRect,0.520000X-0.903596X-0.632704X0.632704X-0.903596X0.903596X0.632704X-0.632704X0.903596X0*%
%ADD22RoundRect,0.500000X0.873183X0.632990X-0.604028X0.893462X-0.873183X-0.632990X0.604028X-0.893462X0*%
%ADD23RoundRect,0.250000X-0.417819X-0.073673X0.073673X-0.417819X0.417819X0.073673X-0.073673X0.417819X0*%
%ADD24RoundRect,0.520000X-1.086328X-0.191549X0.191549X-1.086328X1.086328X0.191549X-0.191549X1.086328X0*%
%ADD25RoundRect,0.500000X1.058886X0.204661X-0.169842X1.065025X-1.058886X-0.204661X0.169842X-1.065025X0*%
%ADD26RoundRect,0.250000X-0.424264X0.000000X0.000000X-0.424264X0.424264X0.000000X0.000000X0.424264X0*%
%ADD27RoundRect,0.520000X-1.103087X0.000000X0.000000X-1.103087X1.103087X0.000000X0.000000X1.103087X0*%
%ADD28RoundRect,0.500000X1.078338X0.017678X0.017678X1.078338X-1.078338X-0.017678X-0.017678X-1.078338X0*%
%ADD29RoundRect,0.250000X-0.398678X-0.145107X0.145107X-0.398678X0.398678X0.145107X-0.145107X0.398678X0*%
%ADD30RoundRect,0.520000X-1.036562X-0.377278X0.377278X-1.036562X1.036562X0.377278X-0.377278X1.036562X0*%
%ADD31RoundRect,0.500000X1.007260X0.385425X-0.352202X1.019352X-1.007260X-0.385425X0.352202X-1.019352X0*%
%ADD32RoundRect,0.250000X-0.212132X-0.367423X0.367423X-0.212132X0.212132X0.367423X-0.367423X0.212132X0*%
%ADD33RoundRect,0.520000X-0.551543X-0.955301X0.955301X-0.551543X0.551543X0.955301X-0.955301X0.551543X0*%
%ADD34RoundRect,0.500000X0.523860X0.942707X-0.925029X0.554478X-0.523860X-0.942707X0.925029X-0.554478X0*%
%ADD35RoundRect,0.250000X-0.243348X-0.347537X0.347537X-0.243348X0.243348X0.347537X-0.347537X0.243348X0*%
%ADD36RoundRect,0.520000X-0.632704X-0.903596X0.903596X-0.632704X0.632704X0.903596X-0.903596X0.632704X0*%
%ADD37RoundRect,0.500000X0.604028X0.893462X-0.873183X0.632990X-0.604028X-0.893462X0.873183X-0.632990X0*%
%ADD38RoundRect,0.250000X-0.073673X-0.417819X0.417819X-0.073673X0.073673X0.417819X-0.417819X0.073673X0*%
%ADD39RoundRect,0.520000X-0.191549X-1.086328X1.086328X-0.191549X0.191549X1.086328X-1.086328X0.191549X0*%
%ADD40RoundRect,0.500000X0.169842X1.065025X-1.058886X0.204661X-0.169842X-1.065025X1.058886X-0.204661X0*%
%ADD41RoundRect,0.250000X-0.145107X-0.398678X0.398678X-0.145107X0.145107X0.398678X-0.398678X0.145107X0*%
%ADD42RoundRect,0.520000X-0.377278X-1.036562X1.036562X-0.377278X0.377278X1.036562X-1.036562X0.377278X0*%
%ADD43RoundRect,0.500000X0.352202X1.019352X-1.007260X0.385425X-0.352202X-1.019352X1.007260X-0.385425X0*%
%ADD44RoundRect,0.250000X0.000000X-0.424264X0.424264X0.000000X0.000000X0.424264X-0.424264X0.000000X0*%
%ADD45RoundRect,0.520000X0.000000X-1.103087X1.103087X0.000000X0.000000X1.103087X-1.103087X0.000000X0*%
%ADD46RoundRect,0.500000X-0.017678X1.078338X-1.078338X0.017678X0.017678X-1.078338X1.078338X-0.017678X0*%
G04 APERTURE END LIST*
D10*
%TO.C,S_MAT_L00*%
X32600000Y-45600001D03*
X35400000Y-45600001D03*
D11*
X23400000Y-42800001D03*
D12*
X28900000Y-42800000D03*
D11*
X34400000Y-42800001D03*
D13*
X28900000Y-48700001D03*
D14*
X32600000Y-48700001D03*
D13*
X33300000Y-38100000D03*
D15*
X36975000Y-38100000D03*
D14*
X20200000Y-46600001D03*
D15*
X22625000Y-37050000D03*
D13*
X23900000Y-46600001D03*
X26300000Y-37050000D03*
%TD*%
D16*
%TO.C,REF\u002A\u002A*%
X148750000Y-132200000D03*
X151250000Y-132200000D03*
X148750000Y-131350000D03*
X151250000Y-131350000D03*
X148750000Y-130500000D03*
X151250000Y-130500000D03*
X148750000Y-129650000D03*
X151250000Y-129650000D03*
X148750000Y-128800000D03*
X151250000Y-128800000D03*
%TD*%
%TO.C,REF\u002A\u002A*%
X148750000Y-112700000D03*
X151250000Y-112700000D03*
X148750000Y-111850000D03*
X151250000Y-111850000D03*
X148750000Y-111000000D03*
X151250000Y-111000000D03*
X148750000Y-110150000D03*
X151250000Y-110150000D03*
X148750000Y-109300000D03*
X151250000Y-109300000D03*
%TD*%
D10*
%TO.C,S_MAT_L10*%
X32600000Y-62600001D03*
X35400000Y-62600001D03*
D11*
X23400000Y-59800001D03*
D12*
X28900000Y-59800000D03*
D11*
X34400000Y-59800001D03*
D13*
X28900000Y-65700001D03*
D14*
X32600000Y-65700001D03*
D13*
X33300000Y-55100000D03*
D15*
X36975000Y-55100000D03*
D14*
X20200000Y-63600001D03*
D15*
X22625000Y-54050000D03*
D13*
X23900000Y-63600001D03*
X26300000Y-54050000D03*
%TD*%
D17*
%TO.C,S_MAT_L02*%
X86476977Y-37848359D03*
X89181570Y-38573052D03*
D11*
X78315153Y-32762631D03*
D12*
X83627745Y-34186135D03*
D11*
X88940337Y-35609641D03*
D13*
X82100713Y-39885098D03*
D18*
X85674638Y-40842729D03*
D13*
X89094268Y-30785087D03*
D19*
X92644046Y-31736247D03*
D18*
X74240678Y-35604928D03*
D19*
X79054770Y-27007972D03*
D13*
X77814603Y-36562559D03*
X82604548Y-27959132D03*
%TD*%
D20*
%TO.C,S_MAT_L01*%
X61474017Y-36255025D03*
X64231478Y-36741240D03*
D11*
X52900000Y-31900000D03*
D12*
X58316443Y-32855064D03*
D11*
X63732886Y-33810130D03*
D13*
X57291919Y-38665431D03*
D21*
X60935707Y-39307929D03*
D13*
X63465744Y-28990520D03*
D22*
X67084912Y-29628677D03*
D21*
X49088752Y-35086595D03*
D22*
X53135252Y-26102777D03*
D13*
X52732541Y-35729094D03*
X56754420Y-26740934D03*
%TD*%
D17*
%TO.C,S_MAT_L03*%
X102729884Y-46597151D03*
X105434477Y-47321844D03*
D11*
X94568060Y-41511423D03*
D12*
X99880652Y-42934927D03*
D11*
X105193244Y-44358433D03*
D13*
X98353620Y-48633890D03*
D18*
X101927545Y-49591521D03*
D13*
X105347175Y-39533879D03*
D19*
X108896953Y-40485039D03*
D18*
X90493585Y-44353720D03*
D19*
X95307677Y-35756764D03*
D13*
X94067510Y-45311351D03*
X98857455Y-36707924D03*
%TD*%
D17*
%TO.C,S_MAT_L04*%
X120136640Y-51238718D03*
X122841233Y-51963411D03*
D11*
X111974816Y-46152990D03*
D12*
X117287408Y-47576494D03*
D11*
X122600000Y-49000000D03*
D13*
X115760376Y-53275457D03*
D18*
X119334301Y-54233088D03*
D13*
X122753931Y-44175446D03*
D19*
X126303709Y-45126606D03*
D18*
X107900341Y-48995287D03*
D19*
X112714433Y-40398331D03*
D13*
X111474266Y-49952918D03*
X116264211Y-41349491D03*
%TD*%
D17*
%TO.C,S_MAT_L14*%
X115736640Y-67704379D03*
X118441233Y-68429072D03*
D11*
X107574816Y-62618651D03*
D12*
X112887408Y-64042155D03*
D11*
X118200000Y-65465661D03*
D13*
X111360376Y-69741118D03*
D18*
X114934301Y-70698749D03*
D13*
X118353931Y-60641107D03*
D19*
X121903709Y-61592267D03*
D18*
X103500341Y-65460948D03*
D19*
X108314433Y-56863992D03*
D13*
X107074266Y-66418579D03*
X111864211Y-57815152D03*
%TD*%
D23*
%TO.C,S_MAT_L15*%
X132936316Y-99101517D03*
X135229941Y-100707531D03*
D11*
X127006131Y-91530988D03*
D12*
X131511468Y-94685657D03*
D11*
X136016803Y-97840328D03*
D13*
X128127366Y-99518655D03*
D24*
X131158229Y-101640888D03*
D13*
X137811546Y-93359379D03*
D25*
X140821930Y-95467272D03*
D24*
X122205254Y-92808321D03*
D25*
X129669353Y-86376341D03*
D13*
X125236116Y-94930554D03*
X132679737Y-88484234D03*
%TD*%
D17*
%TO.C,S_MAT_L12*%
X82082079Y-54285472D03*
X84786672Y-55010165D03*
D11*
X73920255Y-49199744D03*
D12*
X79232847Y-50623248D03*
D11*
X84545439Y-52046754D03*
D13*
X77705815Y-56322211D03*
D18*
X81279740Y-57279842D03*
D13*
X84699370Y-47222200D03*
D19*
X88249148Y-48173360D03*
D18*
X69845780Y-52042041D03*
D19*
X74659872Y-43445085D03*
D13*
X73419705Y-52999672D03*
X78209650Y-44396245D03*
%TD*%
D10*
%TO.C,S_MAT_L20*%
X32600000Y-79626657D03*
X35400000Y-79626657D03*
D11*
X23400000Y-76826657D03*
D12*
X28900000Y-76826656D03*
D11*
X34400000Y-76826657D03*
D13*
X28900000Y-82726657D03*
D14*
X32600000Y-82726657D03*
D13*
X33300000Y-72126656D03*
D15*
X36975000Y-72126656D03*
D14*
X20200000Y-80626657D03*
D15*
X22625000Y-71076656D03*
D13*
X23900000Y-80626657D03*
X26300000Y-71076656D03*
%TD*%
D20*
%TO.C,S_MAT_L11*%
X58557574Y-52999960D03*
X61315035Y-53486175D03*
D11*
X49983557Y-48644935D03*
D12*
X55400000Y-49599999D03*
D11*
X60816443Y-50555065D03*
D13*
X54375476Y-55410366D03*
D21*
X58019264Y-56052864D03*
D13*
X60549301Y-45735455D03*
D22*
X64168469Y-46373612D03*
D21*
X46172309Y-51831530D03*
D22*
X50218809Y-42847712D03*
D13*
X49816098Y-52474029D03*
X53837977Y-43485869D03*
%TD*%
D17*
%TO.C,S_MAT_L13*%
X98349548Y-63059022D03*
X101054141Y-63783715D03*
D11*
X90187724Y-57973294D03*
D12*
X95500316Y-59396798D03*
D11*
X100812908Y-60820304D03*
D13*
X93973284Y-65095761D03*
D18*
X97547209Y-66053392D03*
D13*
X100966839Y-55995750D03*
D19*
X104516617Y-56946910D03*
D18*
X86113249Y-60815591D03*
D19*
X90927341Y-52218635D03*
D13*
X89687174Y-61773222D03*
X94477119Y-53169795D03*
%TD*%
D23*
%TO.C,S_MAT_L25*%
X123194567Y-112938419D03*
X125488192Y-114544433D03*
D11*
X117264382Y-105367890D03*
D12*
X121769719Y-108522559D03*
D11*
X126275054Y-111677230D03*
D13*
X118385617Y-113355557D03*
D24*
X121416480Y-115477790D03*
D13*
X128069797Y-107196281D03*
D25*
X131080181Y-109304174D03*
D24*
X112463505Y-106645223D03*
D25*
X119927604Y-100213243D03*
D13*
X115494367Y-108767456D03*
X122937988Y-102321136D03*
%TD*%
D20*
%TO.C,S_MAT_L21*%
X55557574Y-69699960D03*
X58315035Y-70186175D03*
D11*
X46983557Y-65344935D03*
D12*
X52400000Y-66299999D03*
D11*
X57816443Y-67255065D03*
D13*
X51375476Y-72110366D03*
D21*
X55019264Y-72752864D03*
D13*
X57549301Y-62435455D03*
D22*
X61168469Y-63073612D03*
D21*
X43172309Y-68531530D03*
D22*
X47218809Y-59547712D03*
D13*
X46816098Y-69174029D03*
X50837977Y-60185869D03*
%TD*%
D17*
%TO.C,S_MAT_L24*%
X111316623Y-84107956D03*
X114021216Y-84832649D03*
D11*
X103154799Y-79022228D03*
D12*
X108467391Y-80445732D03*
D11*
X113779983Y-81869238D03*
D13*
X106940359Y-86144695D03*
D18*
X110514284Y-87102326D03*
D13*
X113933914Y-77044684D03*
D19*
X117483692Y-77995844D03*
D18*
X99080324Y-81864525D03*
D19*
X103894416Y-73267569D03*
D13*
X102654249Y-82822156D03*
X107444194Y-74218729D03*
%TD*%
D17*
%TO.C,S_MAT_L22*%
X77671717Y-70704149D03*
X80376310Y-71428842D03*
D11*
X69509893Y-65618421D03*
D12*
X74822485Y-67041925D03*
D11*
X80135077Y-68465431D03*
D13*
X73295453Y-72740888D03*
D18*
X76869378Y-73698519D03*
D13*
X80289008Y-63640877D03*
D19*
X83838786Y-64592037D03*
D18*
X65435418Y-68460718D03*
D19*
X70249510Y-59863762D03*
D13*
X69009343Y-69418349D03*
X73799288Y-60814922D03*
%TD*%
D17*
%TO.C,S_MAT_L23*%
X93968087Y-79446867D03*
X96672680Y-80171560D03*
D11*
X85806263Y-74361139D03*
D12*
X91118855Y-75784643D03*
D11*
X96431447Y-77208149D03*
D13*
X89591823Y-81483606D03*
D18*
X93165748Y-82441237D03*
D13*
X96585378Y-72383595D03*
D19*
X100135156Y-73334755D03*
D18*
X81731788Y-77203436D03*
D19*
X86545880Y-68606480D03*
D13*
X85305713Y-78161067D03*
X90095658Y-69557640D03*
%TD*%
D20*
%TO.C,S_MAT_L31*%
X52661605Y-86452656D03*
X55419066Y-86938871D03*
D11*
X44087588Y-82097631D03*
D12*
X49504031Y-83052695D03*
D11*
X54920474Y-84007761D03*
D13*
X48479507Y-88863062D03*
D21*
X52123295Y-89505560D03*
D13*
X54653332Y-79188151D03*
D22*
X58272500Y-79826308D03*
D21*
X40276340Y-85284226D03*
D22*
X44322840Y-76300408D03*
D13*
X43920129Y-85926725D03*
X47942008Y-76938565D03*
%TD*%
D26*
%TO.C,S_MAT_L35*%
X137261993Y-125646177D03*
X139241892Y-127626076D03*
D11*
X132736510Y-117160896D03*
D12*
X136625598Y-121049982D03*
D11*
X140514684Y-124939070D03*
D13*
X132453667Y-125221913D03*
D27*
X135069962Y-127838208D03*
D13*
X143060269Y-120837850D03*
D28*
X145658887Y-123436468D03*
D27*
X127786762Y-117585160D03*
D28*
X136254367Y-112547023D03*
D13*
X130403057Y-120201455D03*
X138852984Y-115145641D03*
%TD*%
D17*
%TO.C,S_MAT_L32*%
X73234115Y-87106339D03*
X75938708Y-87831032D03*
D11*
X65072291Y-82020611D03*
D12*
X70384883Y-83444115D03*
D11*
X75697475Y-84867621D03*
D13*
X68857851Y-89143078D03*
D18*
X72431776Y-90100709D03*
D13*
X75851406Y-80043067D03*
D19*
X79401184Y-80994227D03*
D18*
X60997816Y-84862908D03*
D19*
X65811908Y-76265952D03*
D13*
X64571741Y-85820539D03*
X69361686Y-77217112D03*
%TD*%
D29*
%TO.C,S_MAT_L34*%
X107096353Y-103011427D03*
X109634014Y-104194759D03*
D11*
X99941652Y-96585678D03*
D12*
X104926345Y-98910077D03*
D11*
X109911038Y-101234478D03*
D13*
X102432897Y-104257294D03*
D30*
X105786236Y-105820982D03*
D13*
X110900406Y-96509951D03*
D31*
X114231087Y-98063073D03*
D30*
X95435518Y-98677269D03*
D31*
X101669319Y-91046878D03*
D13*
X98788857Y-100240956D03*
X105000000Y-92600000D03*
%TD*%
D17*
%TO.C,S_MAT_L33*%
X89574145Y-95868113D03*
X92278738Y-96592806D03*
D11*
X81412321Y-90782385D03*
D12*
X86724913Y-92205889D03*
D11*
X92037505Y-93629395D03*
D13*
X85197881Y-97904852D03*
D18*
X88771806Y-98862483D03*
D13*
X92191436Y-88804841D03*
D19*
X95741214Y-89756001D03*
D18*
X77337846Y-93624682D03*
D19*
X82151938Y-85027726D03*
D13*
X80911771Y-94582313D03*
X85701716Y-85978886D03*
%TD*%
D16*
%TO.C,REF\u002A\u002A*%
X148750000Y-94700000D03*
X151250000Y-94700000D03*
X148750000Y-93850000D03*
X151250000Y-93850000D03*
X148750000Y-93000000D03*
X151250000Y-93000000D03*
X148750000Y-92150000D03*
X151250000Y-92150000D03*
X148750000Y-91300000D03*
X151250000Y-91300000D03*
%TD*%
D32*
%TO.C,S_MAT_R02*%
X220692057Y-35939179D03*
X223396649Y-35214486D03*
D11*
X211080846Y-35615722D03*
D12*
X216393438Y-34192216D03*
D11*
X221706030Y-32768712D03*
D13*
X217920470Y-39891179D03*
D33*
X221494396Y-38933549D03*
D13*
X219427062Y-28513561D03*
D34*
X222976839Y-27562401D03*
D33*
X208973396Y-40114461D03*
D34*
X208844044Y-30262232D03*
D13*
X212547321Y-39156830D03*
X212393821Y-29311072D03*
%TD*%
D10*
%TO.C,S_MAT_R00*%
X274800000Y-45671320D03*
X277600000Y-45671320D03*
D11*
X265600000Y-42871320D03*
D12*
X271100000Y-42871319D03*
D11*
X276600000Y-42871320D03*
D13*
X271100000Y-48771320D03*
D14*
X274800000Y-48771320D03*
D13*
X275500000Y-38171319D03*
D15*
X279175000Y-38171319D03*
D14*
X262400000Y-46671320D03*
D15*
X264825000Y-37121319D03*
D13*
X266100000Y-46671320D03*
X268500000Y-37121319D03*
%TD*%
D35*
%TO.C,S_MAT_R01*%
X245821499Y-35009485D03*
X248578960Y-34523271D03*
D11*
X236275052Y-33849587D03*
D12*
X241691495Y-32894521D03*
D11*
X247107938Y-31939457D03*
D13*
X242716019Y-38704888D03*
D36*
X246359808Y-38062389D03*
D13*
X245208503Y-27501873D03*
D37*
X248827671Y-26863716D03*
D36*
X233783531Y-38147531D03*
D37*
X234513349Y-28321519D03*
D13*
X237427319Y-37505032D03*
X238132518Y-27683362D03*
%TD*%
D32*
%TO.C,S_MAT_R03*%
X204427361Y-44727135D03*
X207131953Y-44002442D03*
D11*
X194816150Y-44403678D03*
D12*
X200128742Y-42980172D03*
D11*
X205441334Y-41556668D03*
D13*
X201655774Y-48679135D03*
D33*
X205229700Y-47721505D03*
D13*
X203162366Y-37301517D03*
D34*
X206712143Y-36350357D03*
D33*
X192708700Y-48902417D03*
D34*
X192579348Y-39050188D03*
D13*
X196282625Y-47944786D03*
X196129125Y-38099028D03*
%TD*%
D10*
%TO.C,S_MAT_R10*%
X274815196Y-62649969D03*
X277615196Y-62649969D03*
D11*
X265615196Y-59849969D03*
D12*
X271115196Y-59849968D03*
D11*
X276615196Y-59849969D03*
D13*
X271115196Y-65749969D03*
D14*
X274815196Y-65749969D03*
D13*
X275515196Y-55149968D03*
D15*
X279190196Y-55149968D03*
D14*
X262415196Y-63649969D03*
D15*
X264840196Y-54099968D03*
D13*
X266115196Y-63649969D03*
X268515196Y-54099968D03*
%TD*%
D32*
%TO.C,S_MAT_R04*%
X187021780Y-49359536D03*
X189726372Y-48634843D03*
D11*
X177410569Y-49036079D03*
D12*
X182723161Y-47612573D03*
D11*
X188035753Y-46189069D03*
D13*
X184250193Y-53311536D03*
D33*
X187824119Y-52353906D03*
D13*
X185756785Y-41933918D03*
D34*
X189306562Y-40982758D03*
D33*
X175303119Y-53534818D03*
D34*
X175173767Y-43682589D03*
D13*
X178877044Y-52577187D03*
X178723544Y-42731429D03*
%TD*%
D35*
%TO.C,S_MAT_R11*%
X248767280Y-51674854D03*
X251524741Y-51188640D03*
D11*
X239220833Y-50514956D03*
D12*
X244637276Y-49559890D03*
D11*
X250053719Y-48604826D03*
D13*
X245661800Y-55370257D03*
D36*
X249305589Y-54727758D03*
D13*
X248154284Y-44167242D03*
D37*
X251773452Y-43529085D03*
D36*
X236729312Y-54812900D03*
D37*
X237459130Y-44986888D03*
D13*
X240373100Y-54170401D03*
X241078299Y-44348731D03*
%TD*%
D32*
%TO.C,S_MAT_R12*%
X225069534Y-52381515D03*
X227774126Y-51656822D03*
D11*
X215458323Y-52058058D03*
D12*
X220770915Y-50634552D03*
D11*
X226083507Y-49211048D03*
D13*
X222297947Y-56333515D03*
D33*
X225871873Y-55375885D03*
D13*
X223804539Y-44955897D03*
D34*
X227354316Y-44004737D03*
D33*
X213350873Y-56556797D03*
D34*
X213221521Y-46704568D03*
D13*
X216924798Y-55599166D03*
X216771298Y-45753408D03*
%TD*%
D32*
%TO.C,S_MAT_R13*%
X208809707Y-61083745D03*
X211514299Y-60359052D03*
D11*
X199198496Y-60760288D03*
D12*
X204511088Y-59336782D03*
D11*
X209823680Y-57913278D03*
D13*
X206038120Y-65035745D03*
D33*
X209612046Y-64078115D03*
D13*
X207544712Y-53658127D03*
D34*
X211094489Y-52706967D03*
D33*
X197091046Y-65259027D03*
D34*
X196961694Y-55406798D03*
D13*
X200664971Y-64301396D03*
X200511471Y-54455638D03*
%TD*%
D32*
%TO.C,S_MAT_R23*%
X213225944Y-77574144D03*
X215930536Y-76849451D03*
D11*
X203614733Y-77250687D03*
D12*
X208927325Y-75827181D03*
D11*
X214239917Y-74403677D03*
D13*
X210454357Y-81526144D03*
D33*
X214028283Y-80568514D03*
D13*
X211960949Y-70148526D03*
D34*
X215510726Y-69197366D03*
D33*
X201507283Y-81749426D03*
D34*
X201377931Y-71897197D03*
D13*
X205081208Y-80791795D03*
X204927708Y-70946037D03*
%TD*%
D32*
%TO.C,S_MAT_R24*%
X195824134Y-82203795D03*
X198528726Y-81479102D03*
D11*
X186212923Y-81880338D03*
D12*
X191525515Y-80456832D03*
D11*
X196838107Y-79033328D03*
D13*
X193052547Y-86155795D03*
D33*
X196626473Y-85198165D03*
D13*
X194559139Y-74778177D03*
D34*
X198108916Y-73827017D03*
D33*
X184105473Y-86379077D03*
D34*
X183976121Y-76526848D03*
D13*
X187679398Y-85421446D03*
X187525898Y-75575688D03*
%TD*%
D32*
%TO.C,S_MAT_R14*%
X191440452Y-65773739D03*
X194145044Y-65049046D03*
D11*
X181829241Y-65450282D03*
D12*
X187141833Y-64026776D03*
D11*
X192454425Y-62603272D03*
D13*
X188668865Y-69725739D03*
D33*
X192242791Y-68768109D03*
D13*
X190175457Y-58348121D03*
D34*
X193725234Y-57396961D03*
D33*
X179721791Y-69949021D03*
D34*
X179592439Y-60096792D03*
D13*
X183295716Y-68991390D03*
X183142216Y-59145632D03*
%TD*%
D10*
%TO.C,S_MAT_R20*%
X274800000Y-79600001D03*
X277600000Y-79600001D03*
D11*
X265600000Y-76800001D03*
D12*
X271100000Y-76800000D03*
D11*
X276600000Y-76800001D03*
D13*
X271100000Y-82700001D03*
D14*
X274800000Y-82700001D03*
D13*
X275500000Y-72100000D03*
D15*
X279175000Y-72100000D03*
D14*
X262400000Y-80600001D03*
D15*
X264825000Y-71050000D03*
D13*
X266100000Y-80600001D03*
X268500000Y-71050000D03*
%TD*%
D38*
%TO.C,S_MAT_R15*%
X173147420Y-94854447D03*
X175441045Y-93248433D03*
D11*
X164005207Y-97837724D03*
D12*
X168510542Y-94683053D03*
D11*
X173015879Y-91528384D03*
D13*
X171894644Y-99516051D03*
D39*
X174925507Y-97393818D03*
D13*
X169419002Y-88309302D03*
D40*
X172429386Y-86201409D03*
D39*
X163563511Y-102785947D03*
D40*
X160072299Y-93572121D03*
D13*
X166594373Y-100663714D03*
X163082683Y-91464228D03*
%TD*%
D32*
%TO.C,S_MAT_R22*%
X229488206Y-68805019D03*
X232192798Y-68080326D03*
D11*
X219876995Y-68481562D03*
D12*
X225189587Y-67058056D03*
D11*
X230502179Y-65634552D03*
D13*
X226716619Y-72757019D03*
D33*
X230290545Y-71799389D03*
D13*
X228223211Y-61379401D03*
D34*
X231772988Y-60428241D03*
D33*
X217769545Y-72980301D03*
D34*
X217640193Y-63128072D03*
D13*
X221343470Y-72022670D03*
X221189970Y-62176912D03*
%TD*%
D35*
%TO.C,S_MAT_R21*%
X251734767Y-68485960D03*
X254492228Y-67999746D03*
D11*
X242188320Y-67326062D03*
D12*
X247604763Y-66370996D03*
D11*
X253021206Y-65415932D03*
D13*
X248629287Y-72181363D03*
D36*
X252273076Y-71538864D03*
D13*
X251121771Y-60978348D03*
D37*
X254740939Y-60340191D03*
D36*
X239696799Y-71624006D03*
D37*
X240426617Y-61797994D03*
D13*
X243340587Y-70981507D03*
X244045786Y-61159837D03*
%TD*%
D38*
%TO.C,S_MAT_R25*%
X182876250Y-108730627D03*
X185169875Y-107124613D03*
D11*
X173734037Y-111713904D03*
D12*
X178239372Y-108559233D03*
D11*
X182744709Y-105404564D03*
D13*
X181623474Y-113392231D03*
D39*
X184654337Y-111269998D03*
D13*
X179147832Y-102185482D03*
D40*
X182158216Y-100077589D03*
D39*
X173292341Y-116662127D03*
D40*
X169801129Y-107448301D03*
D13*
X176323203Y-114539894D03*
X172811513Y-105340408D03*
%TD*%
D41*
%TO.C,S_MAT_R34*%
X199624359Y-99872595D03*
X202162021Y-98689264D03*
D11*
X190102996Y-101223021D03*
D12*
X195087689Y-98898620D03*
D11*
X200072382Y-96574221D03*
D13*
X197581137Y-104245837D03*
D42*
X200934476Y-102682149D03*
D13*
X197089137Y-92779453D03*
D43*
X200419818Y-91226331D03*
D42*
X188808761Y-106019369D03*
D43*
X186970552Y-96339280D03*
D13*
X192162099Y-104455682D03*
X190301233Y-94786158D03*
%TD*%
D44*
%TO.C,S_MAT_R35*%
X167990381Y-120422252D03*
X169970280Y-118442353D03*
D11*
X159505100Y-124947735D03*
D12*
X163394186Y-121058647D03*
D11*
X167283274Y-117169561D03*
D13*
X167566117Y-125230578D03*
D45*
X170182412Y-122614283D03*
D13*
X163182054Y-114623976D03*
D46*
X165780672Y-112025358D03*
D45*
X159929364Y-129897483D03*
D46*
X154891227Y-121429878D03*
D13*
X162545659Y-127281188D03*
X157489845Y-118831261D03*
%TD*%
D32*
%TO.C,S_MAT_R32*%
X233906877Y-85219221D03*
X236611469Y-84494528D03*
D11*
X224295666Y-84895764D03*
D12*
X229608258Y-83472258D03*
D11*
X234920850Y-82048754D03*
D13*
X231135290Y-89171221D03*
D33*
X234709216Y-88213591D03*
D13*
X232641882Y-77793603D03*
D34*
X236191659Y-76842443D03*
D33*
X222188216Y-89394503D03*
D34*
X222058864Y-79542274D03*
D13*
X225762141Y-88436872D03*
X225608641Y-78591114D03*
%TD*%
D35*
%TO.C,S_MAT_R31*%
X254663494Y-85200943D03*
X257420955Y-84714729D03*
D11*
X245117047Y-84041045D03*
D12*
X250533490Y-83085979D03*
D11*
X255949933Y-82130915D03*
D13*
X251558014Y-88896346D03*
D36*
X255201803Y-88253847D03*
D13*
X254050498Y-77693331D03*
D37*
X257669666Y-77055174D03*
D36*
X242625526Y-88338989D03*
D37*
X243355344Y-78512977D03*
D13*
X246269314Y-87696490D03*
X246974513Y-77874820D03*
%TD*%
D32*
%TO.C,S_MAT_R33*%
X217586027Y-93970467D03*
X220290619Y-93245774D03*
D11*
X207974816Y-93647010D03*
D12*
X213287408Y-92223504D03*
D11*
X218600000Y-90800000D03*
D13*
X214814440Y-97922467D03*
D33*
X218388366Y-96964837D03*
D13*
X216321032Y-86544849D03*
D34*
X219870809Y-85593689D03*
D33*
X205867366Y-98145749D03*
D34*
X205738014Y-88293520D03*
D13*
X209441291Y-97188118D03*
X209287791Y-87342360D03*
%TD*%
M02*
