M48
; DRILL file KiCad 10.0.3-10.0.3~ubuntu24.04.1 date 2026-05-19T22:17:19
; FORMAT={-:-/ absolute / metric / decimal}
; #@! TF.CreationDate,2026-05-19T22:17:19-05:00
; #@! TF.GenerationSoftware,Kicad,Pcbnew,10.0.3-10.0.3~ubuntu24.04.1
; #@! TF.FileFunction,Plated,1,2,PTH
FMAT,2
METRIC
; #@! TA.AperFunction,Plated,PTH,ViaDrill
T1C0.300
; #@! TA.AperFunction,Plated,PTH,ComponentDrill
T2C0.600
; #@! TA.AperFunction,Plated,PTH,ComponentDrill
T3C0.800
; #@! TA.AperFunction,Plated,PTH,ComponentDrill
T4C1.000
; #@! TA.AperFunction,Plated,PTH,ComponentDrill
T5C1.702
; #@! TA.AperFunction,Plated,PTH,ComponentDrill
T6C3.000
%
G90
G05
T1
X18.8Y-69.07
X34.8Y-91.57
X38.8Y-55.07
X40.8Y-73.57
X62.8Y-72.07
X65.8Y-57.07
X77.3Y-53.57
X80.8Y-82.07
X111.3Y-35.07
X114.18Y-90.248
X120.133Y-74.554
X120.21Y-71.57
X120.21Y-72.57
X120.21Y-73.57
X121.3Y-88.07
X124.39Y-71.57
X124.39Y-72.57
X124.39Y-73.57
X124.8Y-67.07
X125.3Y-69.57
X125.3Y-78.07
X125.3Y-79.07
X125.3Y-80.07
X125.305Y-77.065
X126.8Y-65.07
X126.8Y-76.57
X127.8Y-40.07
X127.8Y-69.57
X127.8Y-76.545
X127.8Y-125.57
X129.25Y-51.57
X129.5Y-45.07
X130.1Y-46.07
X130.663Y-43.07
X130.8Y-47.07
X132.938Y-43.07
X133.238Y-40.07
X136.05Y-43.515
X136.85Y-43.515
X139.907Y-107.07
X141.3Y-40.07
X141.75Y-43.515
X142.3Y-108.07
X142.55Y-43.57
X142.8Y-106.57
X143.3Y-105.07
X147.3Y-39.57
T3
X253.907Y-25.359
X254.35Y-30.42
X256.437Y-25.138
X258.968Y-24.916
X259.41Y-29.977
T4
X34.3Y-38.42
X34.3Y-48.72
X34.3Y-55.42
X34.3Y-65.72
X34.3Y-72.42
X34.3Y-82.72
X41.696Y-46.724
X41.696Y-49.264
X41.696Y-51.804
X41.696Y-54.344
X53.872Y-89.728
X55.66Y-79.585
X56.86Y-72.993
X58.649Y-62.85
X59.812Y-56.251
X61.601Y-46.108
X62.764Y-39.51
X64.553Y-29.366
X74.314Y-90.45
X76.98Y-80.501
X78.714Y-74.03
X81.38Y-64.081
X83.114Y-57.609
X85.779Y-47.66
X87.514Y-41.188
X90.179Y-31.239
X90.664Y-99.2
X93.33Y-89.251
X95.064Y-82.78
X97.73Y-72.831
X99.464Y-66.359
X102.129Y-56.41
X103.864Y-49.938
X106.529Y-39.989
X107.681Y-106.407
X112.034Y-97.072
X112.364Y-87.48
X115.03Y-77.531
X116.764Y-71.059
X119.429Y-61.11
X121.164Y-54.638
X123.308Y-116.387
X123.829Y-44.689
X129.216Y-107.949
X133.058Y-102.489
X136.944Y-128.947
X138.966Y-94.052
X144.227Y-121.664
X258.91Y-46.977
X258.91Y-49.517
X258.91Y-52.057
X258.91Y-54.597
T5
X23.8Y-43.57
X23.8Y-60.57
X23.8Y-77.57
X34.8Y-43.57
X34.8Y-60.57
X34.8Y-77.57
X44.425Y-82.833
X47.414Y-66.098
X50.366Y-49.356
X53.318Y-32.615
X55.258Y-84.743
X58.247Y-68.008
X61.199Y-51.266
X64.151Y-34.525
X65.504Y-82.758
X69.904Y-66.338
X74.304Y-49.917
X76.13Y-85.605
X78.704Y-33.496
X80.53Y-69.185
X81.854Y-91.508
X84.93Y-52.764
X86.254Y-75.088
X89.329Y-36.343
X90.654Y-58.667
X92.48Y-94.355
X95.054Y-42.246
X96.88Y-77.935
X100.341Y-97.302
X101.28Y-61.514
X103.554Y-79.788
X105.679Y-45.093
X107.954Y-63.367
X110.311Y-101.951
X112.354Y-46.946
X114.18Y-82.635
X117.661Y-106.146
X118.58Y-66.214
X122.979Y-49.793
X126.672Y-112.455
X127.411Y-92.248
X133.161Y-117.88
X136.421Y-98.557
X140.939Y-125.659
T6
X24.3Y-39.77
X24.3Y-47.37
X24.3Y-56.77
X24.3Y-64.37
X24.3Y-73.77
X24.3Y-81.37
X29.3Y-37.67
X29.3Y-49.47
X29.3Y-54.67
X29.3Y-66.47
X29.3Y-71.67
X29.3Y-83.47
X44.258Y-86.662
X45.578Y-79.178
X47.247Y-69.927
X48.567Y-62.443
X48.817Y-89.599
X50.199Y-53.185
X50.866Y-77.978
X51.519Y-45.701
X51.806Y-72.863
X53.151Y-36.444
X53.855Y-61.243
X54.471Y-28.959
X54.758Y-56.122
X56.807Y-44.501
X57.71Y-39.38
X59.759Y-27.759
X65.004Y-86.558
X66.971Y-79.217
X69.29Y-89.881
X69.404Y-70.137
X71.371Y-62.796
X72.344Y-78.483
X73.69Y-73.46
X73.804Y-53.717
X75.771Y-46.376
X76.744Y-62.062
X78.09Y-57.039
X78.204Y-37.296
X80.171Y-29.955
X81.144Y-45.641
X81.354Y-95.308
X82.49Y-40.619
X83.321Y-87.967
X85.544Y-29.221
X85.64Y-98.631
X85.754Y-78.887
X87.721Y-71.546
X88.694Y-87.233
X90.04Y-82.21
X90.154Y-62.467
X92.121Y-55.126
X93.094Y-70.812
X94.44Y-65.789
X94.554Y-46.046
X96.521Y-38.705
X97.494Y-54.391
X98.84Y-49.369
X99.188Y-100.958
X101.894Y-37.971
X102.4Y-94.07
X102.832Y-104.974
X103.054Y-83.587
X105.021Y-76.246
X107.34Y-86.91
X107.454Y-67.167
X107.819Y-94.279
X109.421Y-59.826
X110.394Y-75.512
X111.74Y-70.489
X111.854Y-50.746
X113.821Y-43.405
X114.794Y-59.091
X115.891Y-109.545
X116.14Y-54.069
X118.782Y-114.133
X119.194Y-42.671
X120.25Y-103.32
X125.55Y-104.467
X125.641Y-95.647
X128.532Y-100.236
X130.0Y-89.422
X130.828Y-120.921
X132.878Y-125.942
X135.3Y-90.57
X136.202Y-115.547
X141.222Y-117.598
T2
G00X134.98Y-38.72
M15
G01X134.98Y-38.12
M16
G05
G00X134.98Y-43.15
M15
G01X134.98Y-42.05
M16
G05
G00X143.62Y-38.72
M15
G01X143.62Y-38.12
M16
G05
G00X143.62Y-43.15
M15
G01X143.62Y-42.05
M16
G05
M30
