M48
; DRILL file KiCad 10.0.3-10.0.3~ubuntu24.04.1 date 2026-05-19T21:08:38
; FORMAT={-:-/ absolute / metric / decimal}
; #@! TF.CreationDate,2026-05-19T21:08:38-05:00
; #@! TF.GenerationSoftware,Kicad,Pcbnew,10.0.3-10.0.3~ubuntu24.04.1
; #@! TF.FileFunction,Plated,1,2,PTH
FMAT,2
METRIC
; #@! TA.AperFunction,Plated,PTH,ViaDrill
T1C0.300
; #@! TA.AperFunction,Plated,PTH,ComponentDrill
T2C0.600
; #@! TA.AperFunction,Plated,PTH,ComponentDrill
T3C0.800
; #@! TA.AperFunction,Plated,PTH,ComponentDrill
T4C1.000
; #@! TA.AperFunction,Plated,PTH,ComponentDrill
T5C1.702
; #@! TA.AperFunction,Plated,PTH,ComponentDrill
T6C2.200
; #@! TA.AperFunction,Plated,PTH,ComponentDrill
T7C3.000
%
G90
G05
T1
X25.479Y-88.485
X41.479Y-110.985
X45.479Y-74.485
X47.479Y-92.985
X51.849Y-149.312
X53.724Y-148.362
X63.224Y-161.762
X66.524Y-161.762
X68.724Y-174.262
X69.479Y-91.485
X72.479Y-76.485
X73.124Y-161.762
X74.224Y-161.762
X75.474Y-148.162
X75.474Y-149.262
X75.474Y-150.362
X78.724Y-184.262
X81.724Y-186.262
X82.724Y-158.762
X82.879Y-156.572
X83.724Y-187.262
X83.979Y-72.985
X87.479Y-101.485
X91.724Y-175.762
X95.224Y-188.262
X97.224Y-167.762
X101.724Y-178.262
X117.979Y-54.485
X120.859Y-109.663
X122.724Y-168.262
X126.812Y-93.97
X126.889Y-90.985
X126.889Y-91.985
X126.889Y-92.985
X127.979Y-107.485
X131.069Y-90.985
X131.069Y-91.985
X131.069Y-92.985
X131.479Y-86.485
X131.979Y-88.985
X131.979Y-97.485
X131.979Y-98.485
X131.979Y-99.485
X131.983Y-96.481
X133.479Y-84.485
X133.479Y-95.985
X134.479Y-59.485
X134.479Y-88.985
X134.479Y-95.96
X134.479Y-144.985
X135.929Y-70.985
X136.179Y-64.485
X136.724Y-164.762
X136.779Y-65.485
X136.824Y-168.494
X137.342Y-62.485
X137.479Y-66.485
X139.224Y-171.743
X139.617Y-62.485
X139.917Y-59.485
X140.124Y-186.262
X140.224Y-210.762
X140.224Y-225.262
X140.774Y-171.029
X141.224Y-207.262
X141.224Y-209.762
X141.224Y-226.262
X141.356Y-189.663
X141.374Y-170.262
X141.374Y-187.262
X141.724Y-167.262
X142.729Y-62.93
X143.529Y-62.93
X146.586Y-126.485
X147.979Y-59.485
X148.429Y-62.93
X148.979Y-127.485
X149.229Y-62.985
X149.479Y-125.985
X149.979Y-124.485
X153.979Y-58.985
X175.626Y-231.462
X178.492Y-189.962
X178.492Y-220.962
X184.667Y-232.962
T3
X260.586Y-44.775
X261.029Y-49.835
X263.116Y-44.553
X265.646Y-44.332
X266.089Y-49.393
T4
X40.979Y-57.835
X40.979Y-68.135
X40.979Y-74.835
X40.979Y-85.135
X40.979Y-91.835
X40.979Y-102.135
X48.375Y-66.139
X48.375Y-68.679
X48.375Y-71.219
X48.375Y-73.759
X60.55Y-109.144
X62.339Y-99.0
X63.539Y-92.409
X65.328Y-82.265
X66.491Y-75.667
X68.28Y-65.524
X69.443Y-58.925
X71.232Y-48.782
X80.993Y-109.866
X83.659Y-99.917
X85.393Y-93.445
X88.058Y-83.496
X89.793Y-77.025
X92.458Y-67.076
X94.192Y-60.604
X96.858Y-50.655
X97.343Y-118.616
X100.009Y-108.667
X101.743Y-102.195
X104.408Y-92.246
X106.143Y-85.775
X108.808Y-75.826
X110.542Y-69.354
X113.208Y-59.405
X114.36Y-125.823
X118.713Y-116.488
X119.043Y-106.895
X121.708Y-96.946
X123.443Y-90.475
X126.108Y-80.526
X127.842Y-74.054
X129.987Y-135.802
X130.508Y-64.105
X135.895Y-127.365
X139.737Y-121.905
X143.623Y-148.362
X145.645Y-113.468
X150.906Y-141.079
X265.589Y-66.393
X265.589Y-68.933
X265.589Y-71.473
X265.589Y-74.013
T5
X30.479Y-62.985
X30.479Y-79.985
X30.479Y-96.985
X41.479Y-62.985
X41.479Y-79.985
X41.479Y-96.985
X51.104Y-102.249
X54.093Y-85.514
X57.045Y-68.772
X59.997Y-52.03
X61.937Y-104.159
X64.926Y-87.424
X67.878Y-70.682
X70.83Y-53.94
X72.183Y-102.174
X76.583Y-85.753
X80.983Y-69.333
X82.809Y-105.021
X85.383Y-52.912
X87.209Y-88.6
X88.533Y-110.924
X91.608Y-72.18
X92.933Y-94.503
X96.008Y-55.759
X97.333Y-78.083
X99.159Y-113.771
X101.733Y-61.662
X103.559Y-97.35
X107.02Y-116.718
X107.958Y-80.93
X110.233Y-99.203
X112.358Y-64.509
X114.633Y-82.783
X116.989Y-121.367
X119.033Y-66.362
X120.859Y-102.05
X124.34Y-125.561
X125.258Y-85.63
X129.658Y-69.209
X133.351Y-131.871
X134.09Y-111.664
X139.84Y-137.296
X143.1Y-117.973
X147.618Y-145.074
T6
X16.896Y-185.619
X55.098Y-143.113
X61.221Y-222.951
X121.679Y-160.416
X133.09Y-259.024
X153.0Y-203.171
X161.0Y-203.171
X180.91Y-259.024
X192.321Y-160.416
X252.779Y-222.951
X258.902Y-143.113
X297.104Y-185.619
T7
X30.979Y-59.185
X30.979Y-66.785
X30.979Y-76.185
X30.979Y-83.785
X30.979Y-93.185
X30.979Y-100.785
X35.979Y-57.085
X35.979Y-68.885
X35.979Y-74.085
X35.979Y-85.885
X35.979Y-91.085
X35.979Y-102.885
X50.937Y-106.078
X52.257Y-98.593
X53.926Y-89.343
X55.245Y-81.858
X55.496Y-109.014
X56.878Y-72.601
X57.545Y-97.394
X58.197Y-65.117
X58.485Y-92.279
X59.83Y-55.859
X60.534Y-80.658
X61.149Y-48.375
X61.437Y-75.537
X63.486Y-63.917
X64.389Y-58.796
X66.438Y-47.175
X71.683Y-105.974
X73.65Y-98.633
X75.969Y-109.296
X76.083Y-89.553
X78.05Y-82.212
X79.023Y-97.899
X80.369Y-92.876
X80.483Y-73.132
X82.45Y-65.791
X83.423Y-81.478
X84.769Y-76.455
X84.883Y-56.712
X86.85Y-49.371
X87.823Y-65.057
X88.033Y-114.724
X89.169Y-60.034
X90.0Y-107.383
X92.223Y-48.636
X92.319Y-118.046
X92.433Y-98.303
X94.4Y-90.962
X95.373Y-106.649
X96.719Y-101.626
X96.833Y-81.882
X98.8Y-74.541
X99.773Y-90.228
X101.119Y-85.205
X101.233Y-65.462
X103.2Y-58.121
X104.173Y-73.807
X105.519Y-68.784
X105.867Y-120.373
X108.573Y-57.386
X109.079Y-113.485
X109.511Y-124.39
X109.733Y-103.003
X111.7Y-95.662
X114.019Y-106.326
X114.133Y-86.582
X114.498Y-113.695
X116.1Y-79.241
X117.073Y-94.928
X118.419Y-89.905
X118.533Y-70.162
X120.5Y-62.821
X121.473Y-78.507
X122.57Y-128.961
X122.819Y-73.484
X125.461Y-133.549
X125.873Y-62.086
X126.929Y-122.735
X132.229Y-123.883
X132.32Y-115.063
X135.211Y-119.651
X136.679Y-108.838
X137.507Y-140.337
X139.557Y-145.357
X141.979Y-109.985
X142.881Y-134.963
X147.901Y-137.013
T2
G00X141.659Y-58.135
M15
G01X141.659Y-57.535
M16
G05
G00X141.659Y-62.565
M15
G01X141.659Y-61.465
M16
G05
G00X150.299Y-58.135
M15
G01X150.299Y-57.535
M16
G05
G00X150.299Y-62.565
M15
G01X150.299Y-61.465
M16
G05
M30
