M48
; DRILL file KiCad 10.0.3-10.0.3~ubuntu24.04.1 date 2026-05-19T21:08:38
; FORMAT={-:-/ absolute / metric / decimal}
; #@! TF.CreationDate,2026-05-19T21:08:38-05:00
; #@! TF.GenerationSoftware,Kicad,Pcbnew,10.0.3-10.0.3~ubuntu24.04.1
; #@! TF.FileFunction,NonPlated,1,2,NPTH
FMAT,2
METRIC
; #@! TA.AperFunction,NonPlated,NPTH,ComponentDrill
T1C0.500
; #@! TA.AperFunction,NonPlated,NPTH,ComponentDrill
T2C0.650
; #@! TA.AperFunction,NonPlated,NPTH,ComponentDrill
T3C5.000
%
G90
G05
T1
X155.729Y-111.366
X155.729Y-112.216
X155.729Y-113.066
X155.729Y-113.916
X155.729Y-114.766
X155.729Y-129.366
X155.729Y-130.216
X155.729Y-131.066
X155.729Y-131.916
X155.729Y-132.766
X155.729Y-149.366
X155.729Y-150.216
X155.729Y-151.066
X155.729Y-151.916
X155.729Y-152.766
X155.75Y-169.3
X155.75Y-170.15
X155.75Y-171.0
X155.75Y-171.85
X155.75Y-172.7
X155.75Y-195.3
X155.75Y-196.15
X155.75Y-197.0
X155.75Y-197.85
X155.75Y-198.7
X155.75Y-221.3
X155.75Y-222.15
X155.75Y-223.0
X155.75Y-223.85
X155.75Y-224.7
X155.75Y-247.3
X155.75Y-248.15
X155.75Y-249.0
X155.75Y-249.85
X155.75Y-250.7
X158.229Y-111.366
X158.229Y-112.216
X158.229Y-113.066
X158.229Y-113.916
X158.229Y-114.766
X158.229Y-129.366
X158.229Y-130.216
X158.229Y-131.066
X158.229Y-131.916
X158.229Y-132.766
X158.229Y-149.366
X158.229Y-150.216
X158.229Y-151.066
X158.229Y-151.916
X158.229Y-152.766
X158.25Y-169.3
X158.25Y-170.15
X158.25Y-171.0
X158.25Y-171.85
X158.25Y-172.7
X158.25Y-195.3
X158.25Y-196.15
X158.25Y-197.0
X158.25Y-197.85
X158.25Y-198.7
X158.25Y-221.3
X158.25Y-222.15
X158.25Y-223.0
X158.25Y-223.85
X158.25Y-224.7
X158.25Y-247.3
X158.25Y-248.15
X158.25Y-249.0
X158.25Y-249.85
X158.25Y-250.7
T2
X143.089Y-61.485
X148.869Y-61.485
T3
X35.979Y-62.985
X35.979Y-79.985
X35.979Y-96.985
X56.521Y-103.204
X59.51Y-86.469
X62.462Y-69.727
X65.414Y-52.985
X77.496Y-103.598
X81.896Y-87.177
X86.296Y-70.756
X90.696Y-54.335
X93.846Y-112.348
X98.246Y-95.927
X102.646Y-79.506
X107.046Y-63.085
X112.005Y-119.042
X115.546Y-100.627
X119.946Y-84.206
X124.346Y-67.785
X128.845Y-128.716
X138.595Y-114.818
X143.729Y-141.185
M30
