%TF.GenerationSoftware,KiCad,Pcbnew,10.0.3-10.0.3~ubuntu24.04.1*%
%TF.CreationDate,2026-05-19T21:08:58-05:00*%
%TF.ProjectId,androphage,616e6472-6f70-4686-9167-652e6b696361,rev?*%
%TF.SameCoordinates,Original*%
%TF.FileFunction,Soldermask,Top*%
%TF.FilePolarity,Negative*%
%FSLAX46Y46*%
G04 Gerber Fmt 4.6, Leading zero omitted, Abs format (unit mm)*
G04 Created by KiCad (PCBNEW 10.0.3-10.0.3~ubuntu24.04.1) date 2026-05-19 21:08:58*
%MOMM*%
%LPD*%
G01*
G04 APERTURE LIST*
G04 Aperture macros list*
%AMRoundRect*
0 Rectangle with rounded corners*
0 $1 Rounding radius*
0 $2 $3 $4 $5 $6 $7 $8 $9 X,Y pos of 4 corners*
0 Add a 4 corners polygon primitive as box body*
4,1,4,$2,$3,$4,$5,$6,$7,$8,$9,$2,$3,0*
0 Add four circle primitives for the rounded corners*
1,1,$1+$1,$2,$3*
1,1,$1+$1,$4,$5*
1,1,$1+$1,$6,$7*
1,1,$1+$1,$8,$9*
0 Add four rect primitives between the rounded corners*
20,1,$1+$1,$2,$3,$4,$5,0*
20,1,$1+$1,$4,$5,$6,$7,0*
20,1,$1+$1,$6,$7,$8,$9,0*
20,1,$1+$1,$8,$9,$2,$3,0*%
%AMFreePoly0*
4,1,23,0.500000,-0.750000,0.000000,-0.750000,0.000000,-0.745722,-0.065263,-0.745722,-0.191342,-0.711940,-0.304381,-0.646677,-0.396677,-0.554381,-0.461940,-0.441342,-0.495722,-0.315263,-0.495722,-0.250000,-0.500000,-0.250000,-0.500000,0.250000,-0.495722,0.250000,-0.495722,0.315263,-0.461940,0.441342,-0.396677,0.554381,-0.304381,0.646677,-0.191342,0.711940,-0.065263,0.745722,0.000000,0.745722,
0.000000,0.750000,0.500000,0.750000,0.500000,-0.750000,0.500000,-0.750000,$1*%
%AMFreePoly1*
4,1,23,0.000000,0.745722,0.065263,0.745722,0.191342,0.711940,0.304381,0.646677,0.396677,0.554381,0.461940,0.441342,0.495722,0.315263,0.495722,0.250000,0.500000,0.250000,0.500000,-0.250000,0.495722,-0.250000,0.495722,-0.315263,0.461940,-0.441342,0.396677,-0.554381,0.304381,-0.646677,0.191342,-0.711940,0.065263,-0.745722,0.000000,-0.745722,0.000000,-0.750000,-0.500000,-0.750000,
-0.500000,0.750000,0.000000,0.750000,0.000000,0.745722,0.000000,0.745722,$1*%
G04 Aperture macros list end*
%ADD10C,0.500000*%
%ADD11C,1.300000*%
%ADD12C,1.700000*%
%ADD13R,1.700000X1.700000*%
%ADD14C,2.500000*%
%ADD15RoundRect,0.225000X0.314390X0.303988X-0.120276X0.420456X-0.314390X-0.303988X0.120276X-0.420456X0*%
%ADD16C,4.000000*%
%ADD17RoundRect,0.520000X0.955301X0.551543X-0.551543X0.955301X-0.955301X-0.551543X0.551543X-0.955301X0*%
%ADD18C,1.650000*%
%ADD19C,5.000000*%
%ADD20RoundRect,0.225000X0.225000X0.375000X-0.225000X0.375000X-0.225000X-0.375000X0.225000X-0.375000X0*%
%ADD21RoundRect,0.520000X0.780000X0.780000X-0.780000X0.780000X-0.780000X-0.780000X0.780000X-0.780000X0*%
%ADD22RoundRect,0.100000X0.217500X0.100000X-0.217500X0.100000X-0.217500X-0.100000X0.217500X-0.100000X0*%
%ADD23RoundRect,0.225000X0.399400X0.178127X0.030782X0.436237X-0.399400X-0.178127X-0.030782X-0.436237X0*%
%ADD24RoundRect,0.520000X1.086328X0.191549X-0.191549X1.086328X-1.086328X-0.191549X0.191549X-1.086328X0*%
%ADD25RoundRect,0.225000X0.286700X0.330232X-0.156464X0.408374X-0.286700X-0.330232X0.156464X-0.408374X0*%
%ADD26RoundRect,0.520000X0.903596X0.632704X-0.632704X0.903596X-0.903596X-0.632704X0.632704X-0.903596X0*%
%ADD27RoundRect,0.150000X-0.150000X0.587500X-0.150000X-0.587500X0.150000X-0.587500X0.150000X0.587500X0*%
%ADD28C,4.400000*%
%ADD29RoundRect,0.250000X-1.100000X0.250000X-1.100000X-0.250000X1.100000X-0.250000X1.100000X0.250000X0*%
%ADD30RoundRect,0.150000X-0.700000X0.150000X-0.700000X-0.150000X0.700000X-0.150000X0.700000X0.150000X0*%
%ADD31R,0.800000X1.200000*%
%ADD32R,1.200000X0.800000*%
%ADD33R,1.200000X0.850000*%
%ADD34RoundRect,0.100000X0.850000X0.100000X-0.850000X0.100000X-0.850000X-0.100000X0.850000X-0.100000X0*%
%ADD35RoundRect,0.150000X-0.150000X0.512500X-0.150000X-0.512500X0.150000X-0.512500X0.150000X0.512500X0*%
%ADD36RoundRect,0.225000X0.424264X0.106066X0.106066X0.424264X-0.424264X-0.106066X-0.106066X-0.424264X0*%
%ADD37RoundRect,0.520000X1.103087X0.000000X0.000000X1.103087X-1.103087X0.000000X0.000000X-1.103087X0*%
%ADD38RoundRect,0.112500X-0.187500X-0.112500X0.187500X-0.112500X0.187500X0.112500X-0.187500X0.112500X0*%
%ADD39RoundRect,0.100000X-0.217500X-0.100000X0.217500X-0.100000X0.217500X0.100000X-0.217500X0.100000X0*%
%ADD40R,2.000000X1.800000*%
%ADD41R,1.250000X0.280000*%
%ADD42O,1.000000X1.600000*%
%ADD43O,1.000000X2.100000*%
%ADD44RoundRect,0.150000X0.150000X0.575000X-0.150000X0.575000X-0.150000X-0.575000X0.150000X-0.575000X0*%
%ADD45RoundRect,0.075000X0.075000X0.650000X-0.075000X0.650000X-0.075000X-0.650000X0.075000X-0.650000X0*%
%ADD46C,0.650000*%
%ADD47RoundRect,0.243750X0.243750X0.456250X-0.243750X0.456250X-0.243750X-0.456250X0.243750X-0.456250X0*%
%ADD48RoundRect,0.150000X0.512500X0.150000X-0.512500X0.150000X-0.512500X-0.150000X0.512500X-0.150000X0*%
%ADD49RoundRect,0.225000X0.362401X0.244776X-0.045437X0.434955X-0.362401X-0.244776X0.045437X-0.434955X0*%
%ADD50RoundRect,0.520000X1.036562X0.377278X-0.377278X1.036562X-1.036562X-0.377278X0.377278X-1.036562X0*%
%ADD51RoundRect,0.200000X0.200000X0.275000X-0.200000X0.275000X-0.200000X-0.275000X0.200000X-0.275000X0*%
%ADD52R,2.510000X1.000000*%
%ADD53R,0.280000X1.250000*%
%ADD54R,1.800000X2.000000*%
%ADD55RoundRect,0.200000X-0.200000X-0.275000X0.200000X-0.275000X0.200000X0.275000X-0.200000X0.275000X0*%
%ADD56FreePoly0,180.000000*%
%ADD57FreePoly1,180.000000*%
%ADD58RoundRect,0.150000X0.587500X0.150000X-0.587500X0.150000X-0.587500X-0.150000X0.587500X-0.150000X0*%
G04 APERTURE END LIST*
%TO.C,JP_CHG_01*%
G36*
X180759031Y-236712467D02*
G01*
X181059031Y-236712467D01*
X181059031Y-238212467D01*
X180759031Y-238212467D01*
X180759031Y-236712467D01*
G37*
%TD*%
D10*
%TO.C,REF\u002A\u002A*%
X155750000Y-250700000D03*
X158250000Y-250700000D03*
X155750000Y-249850000D03*
X158250000Y-249850000D03*
X155750000Y-249000000D03*
X158250000Y-249000000D03*
X155750000Y-248150000D03*
X158250000Y-248150000D03*
X155750000Y-247300000D03*
X158250000Y-247300000D03*
%TD*%
%TO.C,REF\u002A\u002A*%
X155750000Y-224700000D03*
X158250000Y-224700000D03*
X155750000Y-223850000D03*
X158250000Y-223850000D03*
X155750000Y-223000000D03*
X158250000Y-223000000D03*
X155750000Y-222150000D03*
X158250000Y-222150000D03*
X155750000Y-221300000D03*
X158250000Y-221300000D03*
%TD*%
%TO.C,REF\u002A\u002A*%
X155750000Y-198700000D03*
X158250000Y-198700000D03*
X155750000Y-197850000D03*
X158250000Y-197850000D03*
X155750000Y-197000000D03*
X158250000Y-197000000D03*
X155750000Y-196150000D03*
X158250000Y-196150000D03*
X155750000Y-195300000D03*
X158250000Y-195300000D03*
%TD*%
%TO.C,REF\u002A\u002A*%
X155750000Y-172700000D03*
X158250000Y-172700000D03*
X155750000Y-171850000D03*
X158250000Y-171850000D03*
X155750000Y-171000000D03*
X158250000Y-171000000D03*
X155750000Y-170150000D03*
X158250000Y-170150000D03*
X155750000Y-169300000D03*
X158250000Y-169300000D03*
%TD*%
%TO.C,REF\u002A\u002A*%
X155729159Y-132765983D03*
X158229159Y-132765983D03*
X155729159Y-131915983D03*
X158229159Y-131915983D03*
X155729159Y-131065983D03*
X158229159Y-131065983D03*
X155729159Y-130215983D03*
X158229159Y-130215983D03*
X155729159Y-129365983D03*
X158229159Y-129365983D03*
%TD*%
%TO.C,REF\u002A\u002A*%
X155729159Y-152765983D03*
X158229159Y-152765983D03*
X155729159Y-151915983D03*
X158229159Y-151915983D03*
X155729159Y-151065983D03*
X158229159Y-151065983D03*
X155729159Y-150215983D03*
X158229159Y-150215983D03*
X155729159Y-149365983D03*
X158229159Y-149365983D03*
%TD*%
%TO.C,REF\u002A\u002A*%
X155729159Y-114765983D03*
X158229159Y-114765983D03*
X155729159Y-113915983D03*
X158229159Y-113915983D03*
X155729159Y-113065983D03*
X158229159Y-113065983D03*
X155729159Y-112215983D03*
X158229159Y-112215983D03*
X155729159Y-111365983D03*
X158229159Y-111365983D03*
%TD*%
D11*
%TO.C,SW_BAT_01*%
X266089198Y-49392640D03*
X261028529Y-49835391D03*
X265646447Y-44331971D03*
X263116114Y-44553346D03*
X260585778Y-44774722D03*
%TD*%
D12*
%TO.C,J2*%
X265589230Y-74012605D03*
X265589230Y-71472605D03*
X265589230Y-68932605D03*
D13*
X265589230Y-66392605D03*
%TD*%
D14*
%TO.C,S_MAT_23*%
X92933332Y-94503262D03*
D15*
X105590677Y-94788959D03*
D14*
X103558516Y-97350272D03*
D16*
X94399807Y-90962154D03*
D17*
X90825882Y-90004523D03*
D18*
X101742635Y-102195380D03*
D17*
X103346882Y-91185435D03*
D15*
X102403122Y-93934856D03*
D16*
X99772956Y-90227805D03*
D19*
X98245924Y-95926767D03*
%TD*%
D14*
%TO.C,S_MAT_00*%
X30479159Y-62985290D03*
D20*
X42779159Y-59985290D03*
D14*
X41479159Y-62985290D03*
D16*
X30979159Y-59185290D03*
D21*
X27279159Y-59185290D03*
D18*
X40979159Y-68135290D03*
D21*
X39679159Y-57085290D03*
D20*
X39479159Y-59985290D03*
D16*
X35979159Y-57085290D03*
D19*
X35979159Y-62985290D03*
%TD*%
D14*
%TO.C,S_MAT_22*%
X76583332Y-85753262D03*
D15*
X89240677Y-86038959D03*
D14*
X87208516Y-88600272D03*
D16*
X78049807Y-82212154D03*
D17*
X74475882Y-81254523D03*
D18*
X85392635Y-93445380D03*
D17*
X86996882Y-82435435D03*
D15*
X86053122Y-85184856D03*
D16*
X83422956Y-81477805D03*
D19*
X81895924Y-87176767D03*
%TD*%
D14*
%TO.C,S_MAT_32*%
X72183408Y-102174001D03*
D15*
X84840753Y-102459698D03*
D14*
X82808592Y-105021011D03*
D16*
X73649883Y-98632893D03*
D17*
X70075958Y-97675262D03*
D18*
X80992711Y-109866119D03*
D17*
X82596958Y-98856174D03*
D15*
X81653198Y-101605595D03*
D16*
X79023032Y-97898544D03*
D19*
X77496000Y-103597506D03*
%TD*%
D14*
%TO.C,S_MAT_03*%
X101733179Y-61661784D03*
D15*
X114390524Y-61947481D03*
D14*
X112358363Y-64508794D03*
D16*
X103199654Y-58120676D03*
D17*
X99625729Y-57163045D03*
D18*
X110542482Y-69353902D03*
D17*
X112146729Y-58343957D03*
D15*
X111202969Y-61093378D03*
D16*
X108572803Y-57386327D03*
D19*
X107045771Y-63085289D03*
%TD*%
D22*
%TO.C,R_USB_01*%
X138571659Y-56985289D03*
X139386659Y-56985289D03*
%TD*%
D14*
%TO.C,S_MAT_15*%
X134089722Y-111663616D03*
D23*
X145886021Y-116261150D03*
D14*
X143100394Y-117972956D03*
D16*
X136678888Y-108837626D03*
D24*
X133648026Y-106715393D03*
D18*
X139736900Y-121904801D03*
D24*
X145010022Y-112107522D03*
D23*
X143182819Y-114368347D03*
D16*
X141979159Y-109985289D03*
D19*
X138595058Y-114818286D03*
%TD*%
D14*
%TO.C,S_MAT_11*%
X57045210Y-68771956D03*
D25*
X69679290Y-67953405D03*
D14*
X67878096Y-70682086D03*
D16*
X58197477Y-65116511D03*
D26*
X54553689Y-64474012D03*
D18*
X66491404Y-75667022D03*
D26*
X67129966Y-64559154D03*
D25*
X66429425Y-67380366D03*
D16*
X63486177Y-63916655D03*
D19*
X62461653Y-69727021D03*
%TD*%
D14*
%TO.C,S_MAT_20*%
X30479159Y-96985290D03*
D20*
X42779159Y-93985290D03*
D14*
X41479159Y-96985290D03*
D16*
X30979159Y-93185290D03*
D21*
X27279159Y-93185290D03*
D18*
X40979159Y-102135290D03*
D21*
X39679159Y-91085290D03*
D20*
X39479159Y-93985290D03*
D16*
X35979159Y-91085290D03*
D19*
X35979159Y-96985290D03*
%TD*%
D22*
%TO.C,R_USB_02*%
X138664159Y-57985289D03*
X139479159Y-57985289D03*
%TD*%
D27*
%TO.C,Q_POW_01*%
X134979159Y-72922789D03*
X134029159Y-71047789D03*
X135929159Y-71047789D03*
%TD*%
D12*
%TO.C,J1*%
X48374659Y-73759389D03*
X48374659Y-71219389D03*
X48374659Y-68679389D03*
D13*
X48374659Y-66139389D03*
%TD*%
D28*
%TO.C,H1*%
X55097933Y-143113180D03*
%TD*%
D14*
%TO.C,S_MAT_01*%
X59997229Y-52030224D03*
D25*
X72631309Y-51211673D03*
D14*
X70830115Y-53940354D03*
D16*
X61149496Y-48374779D03*
D26*
X57505708Y-47732280D03*
D18*
X69443423Y-58925290D03*
D26*
X70081985Y-47817422D03*
D25*
X69381444Y-50638634D03*
D16*
X66438196Y-47174923D03*
D19*
X65413672Y-52985289D03*
%TD*%
D14*
%TO.C,S_MAT_10*%
X30479159Y-79985289D03*
D20*
X42779159Y-76985289D03*
D14*
X41479159Y-79985289D03*
D16*
X30979159Y-76185289D03*
D21*
X27279159Y-76185289D03*
D18*
X40979159Y-85135289D03*
D21*
X39679159Y-74085289D03*
D20*
X39479159Y-76985289D03*
D16*
X35979159Y-74085289D03*
D19*
X35979159Y-79985289D03*
%TD*%
D29*
%TO.C,J_BAT_01*%
X38629159Y-51960289D03*
X38629159Y-47010289D03*
D30*
X41829159Y-50110289D03*
X41829159Y-48860289D03*
%TD*%
D31*
%TO.C,U_MCU_01*%
X63223649Y-161762479D03*
X64323649Y-161762479D03*
X65423649Y-161762479D03*
X66523649Y-161762479D03*
X67623649Y-161762479D03*
X68723649Y-161762479D03*
X69823649Y-161762479D03*
X70923649Y-161762479D03*
X72023649Y-161762479D03*
X73123649Y-161762479D03*
X74223649Y-161762479D03*
D32*
X75473649Y-160262479D03*
X75473649Y-159162479D03*
X75473649Y-158062479D03*
X75473649Y-156962479D03*
X75473649Y-155862479D03*
X75473649Y-154762479D03*
X75473649Y-153662479D03*
X75473649Y-152562479D03*
X75473649Y-151462479D03*
X75473649Y-150362479D03*
X75473649Y-149262479D03*
X75473649Y-148162479D03*
X75473649Y-147062479D03*
X61973649Y-160262479D03*
X61973649Y-159162479D03*
X61973649Y-158062479D03*
X61973649Y-156962479D03*
X61973649Y-155862479D03*
X61973649Y-154762479D03*
X61973649Y-153662479D03*
X61973649Y-152562479D03*
D33*
X61973649Y-151462479D03*
D32*
X61973649Y-150362479D03*
X61973649Y-149262479D03*
X61973649Y-148162479D03*
X61973649Y-147062479D03*
%TD*%
D34*
%TO.C,U_MAT_01*%
X128979159Y-99210289D03*
X128979159Y-98560289D03*
X128979159Y-97910289D03*
X128979159Y-97260289D03*
X128979159Y-96610289D03*
X128979159Y-95960289D03*
X128979159Y-95310289D03*
X128979159Y-94660289D03*
X128979159Y-94010289D03*
X128979159Y-93360289D03*
X128979159Y-92710289D03*
X128979159Y-92060289D03*
X128979159Y-91410289D03*
X128979159Y-90760289D03*
X135979159Y-90760289D03*
X135979159Y-91410289D03*
X135979159Y-92060289D03*
X135979159Y-92710289D03*
X135979159Y-93360289D03*
X135979159Y-94010289D03*
X135979159Y-94660289D03*
X135979159Y-95310289D03*
X135979159Y-95960289D03*
X135979159Y-96610289D03*
X135979159Y-97260289D03*
X135979159Y-97910289D03*
X135979159Y-98560289D03*
X135979159Y-99210289D03*
%TD*%
D14*
%TO.C,S_MAT_25*%
X124339992Y-125561279D03*
D23*
X136136291Y-130158813D03*
D14*
X133350664Y-131870619D03*
D16*
X126929158Y-122735289D03*
D24*
X123898296Y-120613056D03*
D18*
X129987170Y-135802464D03*
D24*
X135260292Y-126005185D03*
D23*
X133433089Y-128266010D03*
D16*
X132229429Y-123882952D03*
D19*
X128845328Y-128715949D03*
%TD*%
D14*
%TO.C,S_MAT_02*%
X85383179Y-52911784D03*
D15*
X98040524Y-53197481D03*
D14*
X96008363Y-55758794D03*
D16*
X86849654Y-49370676D03*
D17*
X83275729Y-48413045D03*
D18*
X94192482Y-60603902D03*
D17*
X95796729Y-49593957D03*
D15*
X94852969Y-52343378D03*
D16*
X92222803Y-48636327D03*
D19*
X90695771Y-54335289D03*
%TD*%
D35*
%TO.C,U_POW_01*%
X135979159Y-81985289D03*
X134079159Y-81985289D03*
X134079159Y-79710289D03*
X135029159Y-79710289D03*
X135979159Y-79710289D03*
%TD*%
D14*
%TO.C,S_MAT_33*%
X88533408Y-110924001D03*
D15*
X101190753Y-111209698D03*
D14*
X99158592Y-113771011D03*
D16*
X89999883Y-107382893D03*
D17*
X86425958Y-106425262D03*
D18*
X97342711Y-118616119D03*
D17*
X98946958Y-107606174D03*
D15*
X98003198Y-110355595D03*
D16*
X95373032Y-106648544D03*
D19*
X93846000Y-112347506D03*
%TD*%
D14*
%TO.C,S_MAT_35*%
X139840072Y-137296202D03*
D36*
X150658805Y-143872295D03*
D14*
X147618246Y-145074376D03*
D16*
X142880631Y-134962749D03*
D37*
X140264336Y-132346454D03*
D18*
X143623093Y-148362423D03*
D37*
X150517384Y-139629654D03*
D36*
X148325353Y-141538842D03*
D16*
X147901089Y-137013359D03*
D19*
X143729159Y-141185289D03*
%TD*%
D14*
%TO.C,S_MAT_31*%
X51104242Y-102248905D03*
D25*
X63738322Y-101430354D03*
D14*
X61937128Y-104159035D03*
D16*
X52256509Y-98593460D03*
D26*
X48612721Y-97950961D03*
D18*
X60550436Y-109143971D03*
D26*
X61188998Y-98036103D03*
D25*
X60488457Y-100857315D03*
D16*
X57545209Y-97393604D03*
D19*
X56520685Y-103203970D03*
%TD*%
D38*
%TO.C,D_POW_01*%
X136029159Y-68985289D03*
X133929159Y-68985289D03*
%TD*%
D39*
%TO.C,R_POW_01*%
X137386659Y-66985289D03*
X136571659Y-66985289D03*
%TD*%
D14*
%TO.C,S_MAT_13*%
X97333255Y-78082523D03*
D15*
X109990600Y-78368220D03*
D14*
X107958439Y-80929533D03*
D16*
X98799730Y-74541415D03*
D17*
X95225805Y-73583784D03*
D18*
X106142558Y-85774641D03*
D17*
X107746805Y-74764696D03*
D15*
X106803045Y-77514117D03*
D16*
X104172879Y-73807066D03*
D19*
X102645847Y-79506028D03*
%TD*%
D14*
%TO.C,S_MAT_21*%
X54093190Y-85513686D03*
D25*
X66727270Y-84695135D03*
D14*
X64926076Y-87423816D03*
D16*
X55245457Y-81858241D03*
D26*
X51601669Y-81215742D03*
D18*
X63539384Y-92408752D03*
D26*
X64177946Y-81300884D03*
D25*
X63477405Y-84122096D03*
D16*
X60534157Y-80658385D03*
D19*
X59509633Y-86468751D03*
%TD*%
D40*
%TO.C,J_VIK_IN_SW_01*%
X150435159Y-130285289D03*
X150435159Y-121185289D03*
D41*
X147711159Y-122985289D03*
X147711159Y-123485289D03*
X147711159Y-123985289D03*
X147711159Y-124485289D03*
X147711159Y-124985289D03*
X147711159Y-125485289D03*
X147711159Y-125985289D03*
X147711159Y-126485289D03*
X147711159Y-126985289D03*
X147711159Y-127485289D03*
X147711159Y-127985289D03*
X147711159Y-128485289D03*
%TD*%
D14*
%TO.C,S_MAT_12*%
X80983255Y-69332523D03*
D15*
X93640600Y-69618220D03*
D14*
X91608439Y-72179533D03*
D16*
X82449730Y-65791415D03*
D17*
X78875805Y-64833784D03*
D18*
X89792558Y-77024641D03*
D17*
X91396805Y-66014696D03*
D15*
X90453045Y-68764117D03*
D16*
X87822879Y-65057066D03*
D19*
X86295847Y-70756028D03*
%TD*%
D14*
%TO.C,S_MAT_24*%
X110233332Y-99203262D03*
D15*
X122890677Y-99488959D03*
D14*
X120858516Y-102050272D03*
D16*
X111699807Y-95662154D03*
D17*
X108125882Y-94704523D03*
D18*
X119042635Y-106895380D03*
D17*
X120646882Y-95885435D03*
D15*
X119703122Y-98634856D03*
D16*
X117072956Y-94927805D03*
D19*
X115545924Y-100626767D03*
%TD*%
D42*
%TO.C,J_USB_01*%
X141659159Y-57835289D03*
D43*
X141659159Y-62015289D03*
D42*
X150299159Y-57835289D03*
D43*
X150299159Y-62015289D03*
D44*
X149229159Y-62930289D03*
X148429159Y-62930289D03*
D45*
X147729159Y-62930289D03*
X146729159Y-62930289D03*
X145229159Y-62930289D03*
X144229159Y-62930289D03*
D44*
X143529159Y-62930289D03*
X142729159Y-62930289D03*
X142729159Y-62930289D03*
X143529159Y-62930289D03*
D45*
X144729159Y-62930289D03*
X145729159Y-62930289D03*
X146229159Y-62930289D03*
X147229159Y-62930289D03*
D44*
X148429159Y-62930289D03*
X149229159Y-62930289D03*
D46*
X143089159Y-61485289D03*
X148869159Y-61485289D03*
%TD*%
D47*
%TO.C,F_USB_02*%
X138041659Y-59485289D03*
X139916659Y-59485289D03*
%TD*%
D48*
%TO.C,U_USB_01*%
X137341659Y-63435289D03*
X137341659Y-62485289D03*
X137341659Y-61535289D03*
X139616659Y-61535289D03*
X139616659Y-62485289D03*
X139616659Y-63435289D03*
%TD*%
D14*
%TO.C,S_MAT_34*%
X107020055Y-116717951D03*
D49*
X119435496Y-119197232D03*
D14*
X116989441Y-121366751D03*
D16*
X109079158Y-113485290D03*
D50*
X105725821Y-111921603D03*
D18*
X114359803Y-125822927D03*
D50*
X117851535Y-115258823D03*
D49*
X116444680Y-117802592D03*
D16*
X114498196Y-113695135D03*
D19*
X112004748Y-119042351D03*
%TD*%
D14*
%TO.C,S_MAT_04*%
X119033179Y-66361784D03*
D15*
X131690524Y-66647481D03*
D14*
X129658363Y-69208794D03*
D16*
X120499654Y-62820676D03*
D17*
X116925729Y-61863045D03*
D18*
X127842482Y-74053902D03*
D17*
X129446729Y-63043957D03*
D15*
X128502969Y-65793378D03*
D16*
X125872803Y-62086327D03*
D19*
X124345771Y-67785289D03*
%TD*%
D14*
%TO.C,S_MAT_14*%
X114633255Y-82782523D03*
D15*
X127290600Y-83068220D03*
D14*
X125258439Y-85629533D03*
D16*
X116099730Y-79241415D03*
D17*
X112525805Y-78283784D03*
D18*
X123442558Y-90474641D03*
D17*
X125046805Y-79464696D03*
D15*
X124103045Y-82214117D03*
D16*
X121472879Y-78507066D03*
D19*
X119945847Y-84206028D03*
%TD*%
D51*
%TO.C,R_EXT_01*%
X49611149Y-148312479D03*
X47961149Y-148312479D03*
%TD*%
D52*
%TO.C,J_SWD_01*%
X82878649Y-156572479D03*
X79568649Y-154032479D03*
X82878649Y-151492479D03*
X79568649Y-148952479D03*
%TD*%
D28*
%TO.C,H9*%
X297104468Y-185619082D03*
%TD*%
%TO.C,H11*%
X252779097Y-222950560D03*
%TD*%
D53*
%TO.C,J_VIK_OUT_SENS_02*%
X171526351Y-168738467D03*
X172026351Y-168738467D03*
X172526351Y-168738467D03*
X173026351Y-168738467D03*
X173526351Y-168738467D03*
X174026351Y-168738467D03*
X174526351Y-168738467D03*
X175026351Y-168738467D03*
X175526351Y-168738467D03*
X176026351Y-168738467D03*
X176526351Y-168738467D03*
X177026351Y-168738467D03*
D54*
X178826351Y-171462467D03*
X169726351Y-171462467D03*
%TD*%
D22*
%TO.C,R_CHG_01*%
X181399031Y-239462467D03*
X180584031Y-239462467D03*
%TD*%
D53*
%TO.C,J_VIK_IN_INTC_01*%
X177026351Y-232814467D03*
X176526351Y-232814467D03*
X176026351Y-232814467D03*
X175526351Y-232814467D03*
X175026351Y-232814467D03*
X174526351Y-232814467D03*
X174026351Y-232814467D03*
X173526351Y-232814467D03*
X173026351Y-232814467D03*
X172526351Y-232814467D03*
X172026351Y-232814467D03*
X171526351Y-232814467D03*
D54*
X169726351Y-230090467D03*
X178826351Y-230090467D03*
%TD*%
D53*
%TO.C,J_VIK_OUT_SW_02*%
X171526351Y-208738467D03*
X172026351Y-208738467D03*
X172526351Y-208738467D03*
X173026351Y-208738467D03*
X173526351Y-208738467D03*
X174026351Y-208738467D03*
X174526351Y-208738467D03*
X175026351Y-208738467D03*
X175526351Y-208738467D03*
X176026351Y-208738467D03*
X176526351Y-208738467D03*
X177026351Y-208738467D03*
D54*
X178826351Y-211462467D03*
X169726351Y-211462467D03*
%TD*%
D53*
%TO.C,J_VIK_OUT_SENS_01*%
X136973649Y-168538479D03*
X137473649Y-168538479D03*
X137973649Y-168538479D03*
X138473649Y-168538479D03*
X138973649Y-168538479D03*
X139473649Y-168538479D03*
X139973649Y-168538479D03*
X140473649Y-168538479D03*
X140973649Y-168538479D03*
X141473649Y-168538479D03*
X141973649Y-168538479D03*
X142473649Y-168538479D03*
D54*
X144273649Y-171262479D03*
X135173649Y-171262479D03*
%TD*%
D28*
%TO.C,H4*%
X153000000Y-203170815D03*
%TD*%
%TO.C,H5*%
X61220903Y-222950560D03*
%TD*%
%TO.C,H12*%
X180909915Y-259024356D03*
%TD*%
D53*
%TO.C,J_VIK_OUT_SW_01*%
X136973649Y-208538479D03*
X137473649Y-208538479D03*
X137973649Y-208538479D03*
X138473649Y-208538479D03*
X138973649Y-208538479D03*
X139473649Y-208538479D03*
X139973649Y-208538479D03*
X140473649Y-208538479D03*
X140973649Y-208538479D03*
X141473649Y-208538479D03*
X141973649Y-208538479D03*
X142473649Y-208538479D03*
D54*
X144273649Y-211262479D03*
X135173649Y-211262479D03*
%TD*%
D53*
%TO.C,J_VIK_OUT_INTC_01*%
X136973649Y-228538479D03*
X137473649Y-228538479D03*
X137973649Y-228538479D03*
X138473649Y-228538479D03*
X138973649Y-228538479D03*
X139473649Y-228538479D03*
X139973649Y-228538479D03*
X140473649Y-228538479D03*
X140973649Y-228538479D03*
X141473649Y-228538479D03*
X141973649Y-228538479D03*
X142473649Y-228538479D03*
D54*
X144273649Y-231262479D03*
X135173649Y-231262479D03*
%TD*%
D28*
%TO.C,H8*%
X192321069Y-160415703D03*
%TD*%
%TO.C,H2*%
X121678931Y-160415703D03*
%TD*%
%TO.C,H3*%
X16895532Y-185619082D03*
%TD*%
D55*
%TO.C,R_MON_02*%
X184666531Y-231462467D03*
X186316531Y-231462467D03*
%TD*%
D53*
%TO.C,J_VIK_OUT_DISP_01*%
X136973649Y-188538479D03*
X137473649Y-188538479D03*
X137973649Y-188538479D03*
X138473649Y-188538479D03*
X138973649Y-188538479D03*
X139473649Y-188538479D03*
X139973649Y-188538479D03*
X140473649Y-188538479D03*
X140973649Y-188538479D03*
X141473649Y-188538479D03*
X141973649Y-188538479D03*
X142473649Y-188538479D03*
D54*
X144273649Y-191262479D03*
X135173649Y-191262479D03*
%TD*%
D51*
%TO.C,R_MON_01*%
X186316531Y-232962467D03*
X184666531Y-232962467D03*
%TD*%
D39*
%TO.C,R_CHG_02*%
X180584031Y-240462467D03*
X181399031Y-240462467D03*
%TD*%
D28*
%TO.C,H10*%
X161000000Y-203170815D03*
%TD*%
%TO.C,H6*%
X133090085Y-259024356D03*
%TD*%
D48*
%TO.C,U_CHG_01*%
X186129031Y-237412467D03*
X186129031Y-236462467D03*
X186129031Y-235512467D03*
X183854031Y-235512467D03*
X183854031Y-237412467D03*
%TD*%
D56*
%TO.C,JP_CHG_01*%
X181559031Y-237462467D03*
D57*
X180259031Y-237462467D03*
%TD*%
D58*
%TO.C,Q_EXT_01*%
X53723649Y-150262479D03*
X53723649Y-148362479D03*
X51848649Y-149312479D03*
%TD*%
D28*
%TO.C,H7*%
X258902067Y-143113180D03*
%TD*%
M02*
