%TF.GenerationSoftware,KiCad,Pcbnew,10.0.3-10.0.3~ubuntu24.04.1*%
%TF.CreationDate,2026-05-19T21:08:45-05:00*%
%TF.ProjectId,androphage,616e6472-6f70-4686-9167-652e6b696361,rev?*%
%TF.SameCoordinates,Original*%
%TF.FileFunction,Paste,Top*%
%TF.FilePolarity,Positive*%
%FSLAX46Y46*%
G04 Gerber Fmt 4.6, Leading zero omitted, Abs format (unit mm)*
G04 Created by KiCad (PCBNEW 10.0.3-10.0.3~ubuntu24.04.1) date 2026-05-19 21:08:45*
%MOMM*%
%LPD*%
G01*
G04 APERTURE LIST*
G04 Aperture macros list*
%AMRoundRect*
0 Rectangle with rounded corners*
0 $1 Rounding radius*
0 $2 $3 $4 $5 $6 $7 $8 $9 X,Y pos of 4 corners*
0 Add a 4 corners polygon primitive as box body*
4,1,4,$2,$3,$4,$5,$6,$7,$8,$9,$2,$3,0*
0 Add four circle primitives for the rounded corners*
1,1,$1+$1,$2,$3*
1,1,$1+$1,$4,$5*
1,1,$1+$1,$6,$7*
1,1,$1+$1,$8,$9*
0 Add four rect primitives between the rounded corners*
20,1,$1+$1,$2,$3,$4,$5,0*
20,1,$1+$1,$4,$5,$6,$7,0*
20,1,$1+$1,$6,$7,$8,$9,0*
20,1,$1+$1,$8,$9,$2,$3,0*%
G04 Aperture macros list end*
%ADD10RoundRect,0.225000X0.314390X0.303988X-0.120276X0.420456X-0.314390X-0.303988X0.120276X-0.420456X0*%
%ADD11RoundRect,0.520000X0.955301X0.551543X-0.551543X0.955301X-0.955301X-0.551543X0.551543X-0.955301X0*%
%ADD12RoundRect,0.225000X0.225000X0.375000X-0.225000X0.375000X-0.225000X-0.375000X0.225000X-0.375000X0*%
%ADD13RoundRect,0.520000X0.780000X0.780000X-0.780000X0.780000X-0.780000X-0.780000X0.780000X-0.780000X0*%
%ADD14RoundRect,0.090000X0.139000X0.090000X-0.139000X0.090000X-0.139000X-0.090000X0.139000X-0.090000X0*%
%ADD15RoundRect,0.225000X0.399400X0.178127X0.030782X0.436237X-0.399400X-0.178127X-0.030782X-0.436237X0*%
%ADD16RoundRect,0.520000X1.086328X0.191549X-0.191549X1.086328X-1.086328X-0.191549X0.191549X-1.086328X0*%
%ADD17RoundRect,0.225000X0.286700X0.330232X-0.156464X0.408374X-0.286700X-0.330232X0.156464X-0.408374X0*%
%ADD18RoundRect,0.520000X0.903596X0.632704X-0.632704X0.903596X-0.903596X-0.632704X0.632704X-0.903596X0*%
%ADD19RoundRect,0.150000X-0.150000X0.587500X-0.150000X-0.587500X0.150000X-0.587500X0.150000X0.587500X0*%
%ADD20RoundRect,0.250000X-1.100000X0.250000X-1.100000X-0.250000X1.100000X-0.250000X1.100000X0.250000X0*%
%ADD21RoundRect,0.150000X-0.700000X0.150000X-0.700000X-0.150000X0.700000X-0.150000X0.700000X0.150000X0*%
%ADD22R,0.800000X1.200000*%
%ADD23R,1.200000X0.800000*%
%ADD24R,1.200000X0.850000*%
%ADD25RoundRect,0.100000X0.850000X0.100000X-0.850000X0.100000X-0.850000X-0.100000X0.850000X-0.100000X0*%
%ADD26RoundRect,0.150000X-0.150000X0.512500X-0.150000X-0.512500X0.150000X-0.512500X0.150000X0.512500X0*%
%ADD27RoundRect,0.225000X0.424264X0.106066X0.106066X0.424264X-0.424264X-0.106066X-0.106066X-0.424264X0*%
%ADD28RoundRect,0.520000X1.103087X0.000000X0.000000X1.103087X-1.103087X0.000000X0.000000X-1.103087X0*%
%ADD29RoundRect,0.112500X-0.187500X-0.112500X0.187500X-0.112500X0.187500X0.112500X-0.187500X0.112500X0*%
%ADD30RoundRect,0.090000X-0.139000X-0.090000X0.139000X-0.090000X0.139000X0.090000X-0.139000X0.090000X0*%
%ADD31R,2.000000X1.800000*%
%ADD32R,1.250000X0.280000*%
%ADD33RoundRect,0.150000X0.150000X0.575000X-0.150000X0.575000X-0.150000X-0.575000X0.150000X-0.575000X0*%
%ADD34RoundRect,0.075000X0.075000X0.650000X-0.075000X0.650000X-0.075000X-0.650000X0.075000X-0.650000X0*%
%ADD35RoundRect,0.243750X0.243750X0.456250X-0.243750X0.456250X-0.243750X-0.456250X0.243750X-0.456250X0*%
%ADD36RoundRect,0.150000X0.512500X0.150000X-0.512500X0.150000X-0.512500X-0.150000X0.512500X-0.150000X0*%
%ADD37RoundRect,0.225000X0.362401X0.244776X-0.045437X0.434955X-0.362401X-0.244776X0.045437X-0.434955X0*%
%ADD38RoundRect,0.520000X1.036562X0.377278X-0.377278X1.036562X-1.036562X-0.377278X0.377278X-1.036562X0*%
%ADD39RoundRect,0.200000X0.200000X0.275000X-0.200000X0.275000X-0.200000X-0.275000X0.200000X-0.275000X0*%
%ADD40R,2.510000X1.000000*%
%ADD41R,0.280000X1.250000*%
%ADD42R,1.800000X2.000000*%
%ADD43RoundRect,0.200000X-0.200000X-0.275000X0.200000X-0.275000X0.200000X0.275000X-0.200000X0.275000X0*%
%ADD44RoundRect,0.150000X0.587500X0.150000X-0.587500X0.150000X-0.587500X-0.150000X0.587500X-0.150000X0*%
G04 APERTURE END LIST*
D10*
%TO.C,S_MAT_23*%
X105590677Y-94788959D03*
D11*
X90825882Y-90004523D03*
X103346882Y-91185435D03*
D10*
X102403122Y-93934856D03*
%TD*%
D12*
%TO.C,S_MAT_00*%
X42779159Y-59985290D03*
D13*
X27279159Y-59185290D03*
X39679159Y-57085290D03*
D12*
X39479159Y-59985290D03*
%TD*%
D10*
%TO.C,S_MAT_22*%
X89240677Y-86038959D03*
D11*
X74475882Y-81254523D03*
X86996882Y-82435435D03*
D10*
X86053122Y-85184856D03*
%TD*%
%TO.C,S_MAT_32*%
X84840753Y-102459698D03*
D11*
X70075958Y-97675262D03*
X82596958Y-98856174D03*
D10*
X81653198Y-101605595D03*
%TD*%
%TO.C,S_MAT_03*%
X114390524Y-61947481D03*
D11*
X99625729Y-57163045D03*
X112146729Y-58343957D03*
D10*
X111202969Y-61093378D03*
%TD*%
D14*
%TO.C,R_USB_01*%
X138546659Y-56985289D03*
X139411659Y-56985289D03*
%TD*%
D15*
%TO.C,S_MAT_15*%
X145886021Y-116261150D03*
D16*
X133648026Y-106715393D03*
X145010022Y-112107522D03*
D15*
X143182819Y-114368347D03*
%TD*%
D17*
%TO.C,S_MAT_11*%
X69679290Y-67953405D03*
D18*
X54553689Y-64474012D03*
X67129966Y-64559154D03*
D17*
X66429425Y-67380366D03*
%TD*%
D12*
%TO.C,S_MAT_20*%
X42779159Y-93985290D03*
D13*
X27279159Y-93185290D03*
X39679159Y-91085290D03*
D12*
X39479159Y-93985290D03*
%TD*%
D14*
%TO.C,R_USB_02*%
X138639159Y-57985289D03*
X139504159Y-57985289D03*
%TD*%
D19*
%TO.C,Q_POW_01*%
X134979159Y-72922789D03*
X134029159Y-71047789D03*
X135929159Y-71047789D03*
%TD*%
D17*
%TO.C,S_MAT_01*%
X72631309Y-51211673D03*
D18*
X57505708Y-47732280D03*
X70081985Y-47817422D03*
D17*
X69381444Y-50638634D03*
%TD*%
D12*
%TO.C,S_MAT_10*%
X42779159Y-76985289D03*
D13*
X27279159Y-76185289D03*
X39679159Y-74085289D03*
D12*
X39479159Y-76985289D03*
%TD*%
D20*
%TO.C,J_BAT_01*%
X38629159Y-51960289D03*
X38629159Y-47010289D03*
D21*
X41829159Y-50110289D03*
X41829159Y-48860289D03*
%TD*%
D22*
%TO.C,U_MCU_01*%
X63223649Y-161762479D03*
X64323649Y-161762479D03*
X65423649Y-161762479D03*
X66523649Y-161762479D03*
X67623649Y-161762479D03*
X68723649Y-161762479D03*
X69823649Y-161762479D03*
X70923649Y-161762479D03*
X72023649Y-161762479D03*
X73123649Y-161762479D03*
X74223649Y-161762479D03*
D23*
X75473649Y-160262479D03*
X75473649Y-159162479D03*
X75473649Y-158062479D03*
X75473649Y-156962479D03*
X75473649Y-155862479D03*
X75473649Y-154762479D03*
X75473649Y-153662479D03*
X75473649Y-152562479D03*
X75473649Y-151462479D03*
X75473649Y-150362479D03*
X75473649Y-149262479D03*
X75473649Y-148162479D03*
X75473649Y-147062479D03*
X61973649Y-160262479D03*
X61973649Y-159162479D03*
X61973649Y-158062479D03*
X61973649Y-156962479D03*
X61973649Y-155862479D03*
X61973649Y-154762479D03*
X61973649Y-153662479D03*
X61973649Y-152562479D03*
D24*
X61973649Y-151462479D03*
D23*
X61973649Y-150362479D03*
X61973649Y-149262479D03*
X61973649Y-148162479D03*
X61973649Y-147062479D03*
%TD*%
D25*
%TO.C,U_MAT_01*%
X128979159Y-99210289D03*
X128979159Y-98560289D03*
X128979159Y-97910289D03*
X128979159Y-97260289D03*
X128979159Y-96610289D03*
X128979159Y-95960289D03*
X128979159Y-95310289D03*
X128979159Y-94660289D03*
X128979159Y-94010289D03*
X128979159Y-93360289D03*
X128979159Y-92710289D03*
X128979159Y-92060289D03*
X128979159Y-91410289D03*
X128979159Y-90760289D03*
X135979159Y-90760289D03*
X135979159Y-91410289D03*
X135979159Y-92060289D03*
X135979159Y-92710289D03*
X135979159Y-93360289D03*
X135979159Y-94010289D03*
X135979159Y-94660289D03*
X135979159Y-95310289D03*
X135979159Y-95960289D03*
X135979159Y-96610289D03*
X135979159Y-97260289D03*
X135979159Y-97910289D03*
X135979159Y-98560289D03*
X135979159Y-99210289D03*
%TD*%
D15*
%TO.C,S_MAT_25*%
X136136291Y-130158813D03*
D16*
X123898296Y-120613056D03*
X135260292Y-126005185D03*
D15*
X133433089Y-128266010D03*
%TD*%
D10*
%TO.C,S_MAT_02*%
X98040524Y-53197481D03*
D11*
X83275729Y-48413045D03*
X95796729Y-49593957D03*
D10*
X94852969Y-52343378D03*
%TD*%
D26*
%TO.C,U_POW_01*%
X135979159Y-81985289D03*
X134079159Y-81985289D03*
X134079159Y-79710289D03*
X135029159Y-79710289D03*
X135979159Y-79710289D03*
%TD*%
D10*
%TO.C,S_MAT_33*%
X101190753Y-111209698D03*
D11*
X86425958Y-106425262D03*
X98946958Y-107606174D03*
D10*
X98003198Y-110355595D03*
%TD*%
D27*
%TO.C,S_MAT_35*%
X150658805Y-143872295D03*
D28*
X140264336Y-132346454D03*
X150517384Y-139629654D03*
D27*
X148325353Y-141538842D03*
%TD*%
D17*
%TO.C,S_MAT_31*%
X63738322Y-101430354D03*
D18*
X48612721Y-97950961D03*
X61188998Y-98036103D03*
D17*
X60488457Y-100857315D03*
%TD*%
D29*
%TO.C,D_POW_01*%
X136029159Y-68985289D03*
X133929159Y-68985289D03*
%TD*%
D30*
%TO.C,R_POW_01*%
X137411659Y-66985289D03*
X136546659Y-66985289D03*
%TD*%
D10*
%TO.C,S_MAT_13*%
X109990600Y-78368220D03*
D11*
X95225805Y-73583784D03*
X107746805Y-74764696D03*
D10*
X106803045Y-77514117D03*
%TD*%
D17*
%TO.C,S_MAT_21*%
X66727270Y-84695135D03*
D18*
X51601669Y-81215742D03*
X64177946Y-81300884D03*
D17*
X63477405Y-84122096D03*
%TD*%
D31*
%TO.C,J_VIK_IN_SW_01*%
X150435159Y-130285289D03*
X150435159Y-121185289D03*
D32*
X147711159Y-122985289D03*
X147711159Y-123485289D03*
X147711159Y-123985289D03*
X147711159Y-124485289D03*
X147711159Y-124985289D03*
X147711159Y-125485289D03*
X147711159Y-125985289D03*
X147711159Y-126485289D03*
X147711159Y-126985289D03*
X147711159Y-127485289D03*
X147711159Y-127985289D03*
X147711159Y-128485289D03*
%TD*%
D10*
%TO.C,S_MAT_12*%
X93640600Y-69618220D03*
D11*
X78875805Y-64833784D03*
X91396805Y-66014696D03*
D10*
X90453045Y-68764117D03*
%TD*%
%TO.C,S_MAT_24*%
X122890677Y-99488959D03*
D11*
X108125882Y-94704523D03*
X120646882Y-95885435D03*
D10*
X119703122Y-98634856D03*
%TD*%
D33*
%TO.C,J_USB_01*%
X149229159Y-62930289D03*
X148429159Y-62930289D03*
D34*
X147729159Y-62930289D03*
X146729159Y-62930289D03*
X145229159Y-62930289D03*
X144229159Y-62930289D03*
D33*
X143529159Y-62930289D03*
X142729159Y-62930289D03*
X142729159Y-62930289D03*
X143529159Y-62930289D03*
D34*
X144729159Y-62930289D03*
X145729159Y-62930289D03*
X146229159Y-62930289D03*
X147229159Y-62930289D03*
D33*
X148429159Y-62930289D03*
X149229159Y-62930289D03*
%TD*%
D35*
%TO.C,F_USB_02*%
X138041659Y-59485289D03*
X139916659Y-59485289D03*
%TD*%
D36*
%TO.C,U_USB_01*%
X137341659Y-63435289D03*
X137341659Y-62485289D03*
X137341659Y-61535289D03*
X139616659Y-61535289D03*
X139616659Y-62485289D03*
X139616659Y-63435289D03*
%TD*%
D37*
%TO.C,S_MAT_34*%
X119435496Y-119197232D03*
D38*
X105725821Y-111921603D03*
X117851535Y-115258823D03*
D37*
X116444680Y-117802592D03*
%TD*%
D10*
%TO.C,S_MAT_04*%
X131690524Y-66647481D03*
D11*
X116925729Y-61863045D03*
X129446729Y-63043957D03*
D10*
X128502969Y-65793378D03*
%TD*%
%TO.C,S_MAT_14*%
X127290600Y-83068220D03*
D11*
X112525805Y-78283784D03*
X125046805Y-79464696D03*
D10*
X124103045Y-82214117D03*
%TD*%
D39*
%TO.C,R_EXT_01*%
X49611149Y-148312479D03*
X47961149Y-148312479D03*
%TD*%
D40*
%TO.C,J_SWD_01*%
X82878649Y-156572479D03*
X79568649Y-154032479D03*
X82878649Y-151492479D03*
X79568649Y-148952479D03*
%TD*%
D41*
%TO.C,J_VIK_OUT_SENS_02*%
X171526351Y-168738467D03*
X172026351Y-168738467D03*
X172526351Y-168738467D03*
X173026351Y-168738467D03*
X173526351Y-168738467D03*
X174026351Y-168738467D03*
X174526351Y-168738467D03*
X175026351Y-168738467D03*
X175526351Y-168738467D03*
X176026351Y-168738467D03*
X176526351Y-168738467D03*
X177026351Y-168738467D03*
D42*
X178826351Y-171462467D03*
X169726351Y-171462467D03*
%TD*%
D14*
%TO.C,R_CHG_01*%
X181424031Y-239462467D03*
X180559031Y-239462467D03*
%TD*%
D41*
%TO.C,J_VIK_IN_INTC_01*%
X177026351Y-232814467D03*
X176526351Y-232814467D03*
X176026351Y-232814467D03*
X175526351Y-232814467D03*
X175026351Y-232814467D03*
X174526351Y-232814467D03*
X174026351Y-232814467D03*
X173526351Y-232814467D03*
X173026351Y-232814467D03*
X172526351Y-232814467D03*
X172026351Y-232814467D03*
X171526351Y-232814467D03*
D42*
X169726351Y-230090467D03*
X178826351Y-230090467D03*
%TD*%
D41*
%TO.C,J_VIK_OUT_SW_02*%
X171526351Y-208738467D03*
X172026351Y-208738467D03*
X172526351Y-208738467D03*
X173026351Y-208738467D03*
X173526351Y-208738467D03*
X174026351Y-208738467D03*
X174526351Y-208738467D03*
X175026351Y-208738467D03*
X175526351Y-208738467D03*
X176026351Y-208738467D03*
X176526351Y-208738467D03*
X177026351Y-208738467D03*
D42*
X178826351Y-211462467D03*
X169726351Y-211462467D03*
%TD*%
D41*
%TO.C,J_VIK_OUT_SENS_01*%
X136973649Y-168538479D03*
X137473649Y-168538479D03*
X137973649Y-168538479D03*
X138473649Y-168538479D03*
X138973649Y-168538479D03*
X139473649Y-168538479D03*
X139973649Y-168538479D03*
X140473649Y-168538479D03*
X140973649Y-168538479D03*
X141473649Y-168538479D03*
X141973649Y-168538479D03*
X142473649Y-168538479D03*
D42*
X144273649Y-171262479D03*
X135173649Y-171262479D03*
%TD*%
D41*
%TO.C,J_VIK_OUT_SW_01*%
X136973649Y-208538479D03*
X137473649Y-208538479D03*
X137973649Y-208538479D03*
X138473649Y-208538479D03*
X138973649Y-208538479D03*
X139473649Y-208538479D03*
X139973649Y-208538479D03*
X140473649Y-208538479D03*
X140973649Y-208538479D03*
X141473649Y-208538479D03*
X141973649Y-208538479D03*
X142473649Y-208538479D03*
D42*
X144273649Y-211262479D03*
X135173649Y-211262479D03*
%TD*%
D41*
%TO.C,J_VIK_OUT_INTC_01*%
X136973649Y-228538479D03*
X137473649Y-228538479D03*
X137973649Y-228538479D03*
X138473649Y-228538479D03*
X138973649Y-228538479D03*
X139473649Y-228538479D03*
X139973649Y-228538479D03*
X140473649Y-228538479D03*
X140973649Y-228538479D03*
X141473649Y-228538479D03*
X141973649Y-228538479D03*
X142473649Y-228538479D03*
D42*
X144273649Y-231262479D03*
X135173649Y-231262479D03*
%TD*%
D43*
%TO.C,R_MON_02*%
X184666531Y-231462467D03*
X186316531Y-231462467D03*
%TD*%
D41*
%TO.C,J_VIK_OUT_DISP_01*%
X136973649Y-188538479D03*
X137473649Y-188538479D03*
X137973649Y-188538479D03*
X138473649Y-188538479D03*
X138973649Y-188538479D03*
X139473649Y-188538479D03*
X139973649Y-188538479D03*
X140473649Y-188538479D03*
X140973649Y-188538479D03*
X141473649Y-188538479D03*
X141973649Y-188538479D03*
X142473649Y-188538479D03*
D42*
X144273649Y-191262479D03*
X135173649Y-191262479D03*
%TD*%
D39*
%TO.C,R_MON_01*%
X186316531Y-232962467D03*
X184666531Y-232962467D03*
%TD*%
D30*
%TO.C,R_CHG_02*%
X180559031Y-240462467D03*
X181424031Y-240462467D03*
%TD*%
D36*
%TO.C,U_CHG_01*%
X186129031Y-237412467D03*
X186129031Y-236462467D03*
X186129031Y-235512467D03*
X183854031Y-235512467D03*
X183854031Y-237412467D03*
%TD*%
D44*
%TO.C,Q_EXT_01*%
X53723649Y-150262479D03*
X53723649Y-148362479D03*
X51848649Y-149312479D03*
%TD*%
M02*
