%TF.GenerationSoftware,KiCad,Pcbnew,10.0.3-10.0.3~ubuntu24.04.1*%
%TF.CreationDate,2026-05-19T21:08:48-05:00*%
%TF.ProjectId,androphage,616e6472-6f70-4686-9167-652e6b696361,rev?*%
%TF.SameCoordinates,Original*%
%TF.FileFunction,Paste,Bot*%
%TF.FilePolarity,Positive*%
%FSLAX46Y46*%
G04 Gerber Fmt 4.6, Leading zero omitted, Abs format (unit mm)*
G04 Created by KiCad (PCBNEW 10.0.3-10.0.3~ubuntu24.04.1) date 2026-05-19 21:08:48*
%MOMM*%
%LPD*%
G01*
G04 APERTURE LIST*
G04 Aperture macros list*
%AMRoundRect*
0 Rectangle with rounded corners*
0 $1 Rounding radius*
0 $2 $3 $4 $5 $6 $7 $8 $9 X,Y pos of 4 corners*
0 Add a 4 corners polygon primitive as box body*
4,1,4,$2,$3,$4,$5,$6,$7,$8,$9,$2,$3,0*
0 Add four circle primitives for the rounded corners*
1,1,$1+$1,$2,$3*
1,1,$1+$1,$4,$5*
1,1,$1+$1,$6,$7*
1,1,$1+$1,$8,$9*
0 Add four rect primitives between the rounded corners*
20,1,$1+$1,$2,$3,$4,$5,0*
20,1,$1+$1,$4,$5,$6,$7,0*
20,1,$1+$1,$6,$7,$8,$9,0*
20,1,$1+$1,$8,$9,$2,$3,0*%
G04 Aperture macros list end*
%ADD10RoundRect,0.250000X-0.745933X0.534868X-0.069744X-0.915224X0.745933X-0.534868X0.069744X0.915224X0*%
%ADD11RoundRect,0.225000X-0.314390X-0.303988X0.120276X-0.420456X0.314390X0.303988X-0.120276X0.420456X0*%
%ADD12RoundRect,0.520000X-0.955301X-0.551543X0.551543X-0.955301X0.955301X0.551543X-0.551543X0.955301X0*%
%ADD13RoundRect,0.225000X-0.225000X-0.375000X0.225000X-0.375000X0.225000X0.375000X-0.225000X0.375000X0*%
%ADD14RoundRect,0.520000X-0.780000X-0.780000X0.780000X-0.780000X0.780000X0.780000X-0.780000X0.780000X0*%
%ADD15RoundRect,0.225000X-0.399400X-0.178127X-0.030782X-0.436237X0.399400X0.178127X0.030782X0.436237X0*%
%ADD16RoundRect,0.520000X-1.086328X-0.191549X0.191549X-1.086328X1.086328X0.191549X-0.191549X1.086328X0*%
%ADD17RoundRect,0.090000X-0.139000X-0.090000X0.139000X-0.090000X0.139000X0.090000X-0.139000X0.090000X0*%
%ADD18RoundRect,0.225000X-0.286700X-0.330232X0.156464X-0.408374X0.286700X0.330232X-0.156464X0.408374X0*%
%ADD19RoundRect,0.520000X-0.903596X-0.632704X0.632704X-0.903596X0.903596X0.632704X-0.632704X0.903596X0*%
%ADD20RoundRect,0.218750X-0.218750X-0.381250X0.218750X-0.381250X0.218750X0.381250X-0.218750X0.381250X0*%
%ADD21RoundRect,0.225000X-0.424264X-0.106066X-0.106066X-0.424264X0.424264X0.106066X0.106066X0.424264X0*%
%ADD22RoundRect,0.520000X-1.103087X0.000000X0.000000X-1.103087X1.103087X0.000000X0.000000X1.103087X0*%
%ADD23RoundRect,0.225000X-0.362401X-0.244776X0.045437X-0.434955X0.362401X0.244776X-0.045437X0.434955X0*%
%ADD24RoundRect,0.520000X-1.036562X-0.377278X0.377278X-1.036562X1.036562X0.377278X-0.377278X1.036562X0*%
G04 APERTURE END LIST*
D10*
%TO.C,SW_RST_01*%
X188551304Y-105565448D03*
X184705477Y-97318047D03*
X184472919Y-107467231D03*
X180627092Y-99219830D03*
%TD*%
D11*
%TO.C,S_MAT_23*%
X104028104Y-100581926D03*
D12*
X88858857Y-97345559D03*
X100292817Y-102583360D03*
D11*
X100840549Y-99727823D03*
%TD*%
D13*
%TO.C,S_MAT_00*%
X42769160Y-65985290D03*
D14*
X27279159Y-66785290D03*
X39679159Y-68885290D03*
D13*
X39469160Y-65985290D03*
%TD*%
D11*
%TO.C,S_MAT_22*%
X87678104Y-91831926D03*
D12*
X72508857Y-88595559D03*
X83942817Y-93833360D03*
D11*
X84490549Y-90977823D03*
%TD*%
%TO.C,S_MAT_32*%
X83278180Y-108252665D03*
D12*
X68108933Y-105016298D03*
X79542893Y-110254099D03*
D11*
X80090625Y-107398562D03*
%TD*%
%TO.C,S_MAT_03*%
X112827951Y-67740448D03*
D12*
X97658704Y-64504081D03*
X109092664Y-69741882D03*
D11*
X109640396Y-66886345D03*
%TD*%
D15*
%TO.C,S_MAT_15*%
X142436372Y-121170327D03*
D16*
X129288845Y-112940949D03*
X138241820Y-121773516D03*
D15*
X139733170Y-119277524D03*
%TD*%
D17*
%TO.C,R_MAT_01*%
X131911659Y-90985289D03*
X131046659Y-90985289D03*
%TD*%
D18*
%TO.C,S_MAT_11*%
X68627554Y-73860516D03*
D19*
X53233961Y-71958551D03*
X65080917Y-76179885D03*
D18*
X65377689Y-73287477D03*
%TD*%
D13*
%TO.C,S_MAT_20*%
X42769160Y-99985290D03*
D14*
X27279159Y-100785290D03*
X39679159Y-102885290D03*
D13*
X39469160Y-99985290D03*
%TD*%
D18*
%TO.C,S_MAT_01*%
X71579573Y-57118784D03*
D19*
X56185980Y-55216819D03*
X68032936Y-59438153D03*
D18*
X68329708Y-56545745D03*
%TD*%
D13*
%TO.C,S_MAT_10*%
X42769160Y-82985289D03*
D14*
X27279159Y-83785289D03*
X39679159Y-85885289D03*
D13*
X39469160Y-82985289D03*
%TD*%
D17*
%TO.C,R_MAT_31*%
X126819159Y-93985289D03*
X125954159Y-93985289D03*
%TD*%
%TO.C,R_MAT_12*%
X126911659Y-91985289D03*
X126046659Y-91985289D03*
%TD*%
D15*
%TO.C,S_MAT_25*%
X132686642Y-135067990D03*
D16*
X119539115Y-126838612D03*
X128492090Y-135671179D03*
D15*
X129983440Y-133175187D03*
%TD*%
D11*
%TO.C,S_MAT_02*%
X96477951Y-58990448D03*
D12*
X81308704Y-55754081D03*
X92742664Y-60991882D03*
D11*
X93290396Y-58136345D03*
%TD*%
D17*
%TO.C,R_MAT_11*%
X131911659Y-91985289D03*
X131046659Y-91985289D03*
%TD*%
%TO.C,R_MAT_21*%
X131911659Y-92985289D03*
X131046659Y-92985289D03*
%TD*%
D20*
%TO.C,FB_USB_01*%
X154041659Y-61485289D03*
X151916659Y-61485289D03*
%TD*%
D11*
%TO.C,S_MAT_33*%
X99628180Y-117002665D03*
D12*
X84458933Y-113766298D03*
X95892893Y-119004099D03*
D11*
X96440625Y-116148562D03*
%TD*%
D21*
%TO.C,S_MAT_35*%
X146409094Y-148107865D03*
D22*
X134890324Y-137720466D03*
X142173524Y-147973514D03*
D21*
X144075642Y-145774413D03*
%TD*%
D18*
%TO.C,S_MAT_31*%
X62686586Y-107337465D03*
D19*
X47292993Y-105435500D03*
X59139949Y-109656834D03*
D18*
X59436721Y-106764426D03*
%TD*%
D17*
%TO.C,R_MAT_22*%
X126911659Y-92985289D03*
X126046659Y-92985289D03*
%TD*%
%TO.C,R_MAT_02*%
X126911659Y-90985289D03*
X126046659Y-90985289D03*
%TD*%
D11*
%TO.C,S_MAT_13*%
X108428027Y-84161187D03*
D12*
X93258780Y-80924820D03*
X104692740Y-86162621D03*
D11*
X105240472Y-83307084D03*
%TD*%
D18*
%TO.C,S_MAT_21*%
X65675534Y-90602246D03*
D19*
X50281941Y-88700281D03*
X62128897Y-92921615D03*
D18*
X62425669Y-90029207D03*
%TD*%
D11*
%TO.C,S_MAT_12*%
X92078027Y-75411187D03*
D12*
X76908780Y-72174820D03*
X88342740Y-77412621D03*
D11*
X88890472Y-74557084D03*
%TD*%
%TO.C,S_MAT_24*%
X121328104Y-105281926D03*
D12*
X106158857Y-102045559D03*
X117592817Y-107283360D03*
D11*
X118140549Y-104427823D03*
%TD*%
D23*
%TO.C,S_MAT_34*%
X116890724Y-124630853D03*
D24*
X102513921Y-118809542D03*
X112864639Y-125953255D03*
D23*
X113899908Y-123236213D03*
%TD*%
D11*
%TO.C,S_MAT_04*%
X130127951Y-72440448D03*
D12*
X114958704Y-69204081D03*
X126392664Y-74441882D03*
D11*
X126940396Y-71586345D03*
%TD*%
%TO.C,S_MAT_14*%
X125728027Y-88861187D03*
D12*
X110558780Y-85624820D03*
X121992740Y-90862621D03*
D11*
X122540472Y-88007084D03*
%TD*%
M02*
