%TF.GenerationSoftware,KiCad,Pcbnew,10.0.3-10.0.3~ubuntu24.04.1*%
%TF.CreationDate,2026-05-19T21:09:01-05:00*%
%TF.ProjectId,androphage,616e6472-6f70-4686-9167-652e6b696361,rev?*%
%TF.SameCoordinates,Original*%
%TF.FileFunction,Soldermask,Bot*%
%TF.FilePolarity,Negative*%
%FSLAX46Y46*%
G04 Gerber Fmt 4.6, Leading zero omitted, Abs format (unit mm)*
G04 Created by KiCad (PCBNEW 10.0.3-10.0.3~ubuntu24.04.1) date 2026-05-19 21:09:01*
%MOMM*%
%LPD*%
G01*
G04 APERTURE LIST*
G04 Aperture macros list*
%AMRoundRect*
0 Rectangle with rounded corners*
0 $1 Rounding radius*
0 $2 $3 $4 $5 $6 $7 $8 $9 X,Y pos of 4 corners*
0 Add a 4 corners polygon primitive as box body*
4,1,4,$2,$3,$4,$5,$6,$7,$8,$9,$2,$3,0*
0 Add four circle primitives for the rounded corners*
1,1,$1+$1,$2,$3*
1,1,$1+$1,$4,$5*
1,1,$1+$1,$6,$7*
1,1,$1+$1,$8,$9*
0 Add four rect primitives between the rounded corners*
20,1,$1+$1,$2,$3,$4,$5,0*
20,1,$1+$1,$4,$5,$6,$7,0*
20,1,$1+$1,$6,$7,$8,$9,0*
20,1,$1+$1,$8,$9,$2,$3,0*%
G04 Aperture macros list end*
%ADD10C,0.500000*%
%ADD11C,1.300000*%
%ADD12RoundRect,0.250000X-0.745933X0.534868X-0.069744X-0.915224X0.745933X-0.534868X0.069744X0.915224X0*%
%ADD13C,1.700000*%
%ADD14R,1.700000X1.700000*%
%ADD15C,2.500000*%
%ADD16RoundRect,0.225000X-0.314390X-0.303988X0.120276X-0.420456X0.314390X0.303988X-0.120276X0.420456X0*%
%ADD17C,4.000000*%
%ADD18RoundRect,0.520000X-0.955301X-0.551543X0.551543X-0.955301X0.955301X0.551543X-0.551543X0.955301X0*%
%ADD19C,1.650000*%
%ADD20C,5.000000*%
%ADD21RoundRect,0.225000X-0.225000X-0.375000X0.225000X-0.375000X0.225000X0.375000X-0.225000X0.375000X0*%
%ADD22RoundRect,0.520000X-0.780000X-0.780000X0.780000X-0.780000X0.780000X0.780000X-0.780000X0.780000X0*%
%ADD23RoundRect,0.225000X-0.399400X-0.178127X-0.030782X-0.436237X0.399400X0.178127X0.030782X0.436237X0*%
%ADD24RoundRect,0.520000X-1.086328X-0.191549X0.191549X-1.086328X1.086328X0.191549X-0.191549X1.086328X0*%
%ADD25RoundRect,0.100000X-0.217500X-0.100000X0.217500X-0.100000X0.217500X0.100000X-0.217500X0.100000X0*%
%ADD26RoundRect,0.225000X-0.286700X-0.330232X0.156464X-0.408374X0.286700X0.330232X-0.156464X0.408374X0*%
%ADD27RoundRect,0.520000X-0.903596X-0.632704X0.632704X-0.903596X0.903596X0.632704X-0.632704X0.903596X0*%
%ADD28C,4.400000*%
%ADD29RoundRect,0.218750X-0.218750X-0.381250X0.218750X-0.381250X0.218750X0.381250X-0.218750X0.381250X0*%
%ADD30RoundRect,0.225000X-0.424264X-0.106066X-0.106066X-0.424264X0.424264X0.106066X0.106066X0.424264X0*%
%ADD31RoundRect,0.520000X-1.103087X0.000000X0.000000X-1.103087X1.103087X0.000000X0.000000X1.103087X0*%
%ADD32O,1.000000X1.600000*%
%ADD33O,1.000000X2.100000*%
%ADD34C,0.650000*%
%ADD35RoundRect,0.225000X-0.362401X-0.244776X0.045437X-0.434955X0.362401X0.244776X-0.045437X0.434955X0*%
%ADD36RoundRect,0.520000X-1.036562X-0.377278X0.377278X-1.036562X1.036562X0.377278X-0.377278X1.036562X0*%
G04 APERTURE END LIST*
D10*
%TO.C,REF\u002A\u002A*%
X155750000Y-250700000D03*
X158250000Y-250700000D03*
X155750000Y-249850000D03*
X158250000Y-249850000D03*
X155750000Y-249000000D03*
X158250000Y-249000000D03*
X155750000Y-248150000D03*
X158250000Y-248150000D03*
X155750000Y-247300000D03*
X158250000Y-247300000D03*
%TD*%
%TO.C,REF\u002A\u002A*%
X155750000Y-224700000D03*
X158250000Y-224700000D03*
X155750000Y-223850000D03*
X158250000Y-223850000D03*
X155750000Y-223000000D03*
X158250000Y-223000000D03*
X155750000Y-222150000D03*
X158250000Y-222150000D03*
X155750000Y-221300000D03*
X158250000Y-221300000D03*
%TD*%
%TO.C,REF\u002A\u002A*%
X155750000Y-198700000D03*
X158250000Y-198700000D03*
X155750000Y-197850000D03*
X158250000Y-197850000D03*
X155750000Y-197000000D03*
X158250000Y-197000000D03*
X155750000Y-196150000D03*
X158250000Y-196150000D03*
X155750000Y-195300000D03*
X158250000Y-195300000D03*
%TD*%
%TO.C,REF\u002A\u002A*%
X155750000Y-172700000D03*
X158250000Y-172700000D03*
X155750000Y-171850000D03*
X158250000Y-171850000D03*
X155750000Y-171000000D03*
X158250000Y-171000000D03*
X155750000Y-170150000D03*
X158250000Y-170150000D03*
X155750000Y-169300000D03*
X158250000Y-169300000D03*
%TD*%
%TO.C,REF\u002A\u002A*%
X155729159Y-132765983D03*
X158229159Y-132765983D03*
X155729159Y-131915983D03*
X158229159Y-131915983D03*
X155729159Y-131065983D03*
X158229159Y-131065983D03*
X155729159Y-130215983D03*
X158229159Y-130215983D03*
X155729159Y-129365983D03*
X158229159Y-129365983D03*
%TD*%
%TO.C,REF\u002A\u002A*%
X155729159Y-152765983D03*
X158229159Y-152765983D03*
X155729159Y-151915983D03*
X158229159Y-151915983D03*
X155729159Y-151065983D03*
X158229159Y-151065983D03*
X155729159Y-150215983D03*
X158229159Y-150215983D03*
X155729159Y-149365983D03*
X158229159Y-149365983D03*
%TD*%
%TO.C,REF\u002A\u002A*%
X155729159Y-114765983D03*
X158229159Y-114765983D03*
X155729159Y-113915983D03*
X158229159Y-113915983D03*
X155729159Y-113065983D03*
X158229159Y-113065983D03*
X155729159Y-112215983D03*
X158229159Y-112215983D03*
X155729159Y-111365983D03*
X158229159Y-111365983D03*
%TD*%
D11*
%TO.C,SW_BAT_01*%
X266089198Y-49392640D03*
X261028529Y-49835391D03*
X265646447Y-44331971D03*
X263116114Y-44553346D03*
X260585778Y-44774722D03*
%TD*%
D12*
%TO.C,SW_RST_01*%
X188551304Y-105565448D03*
X184705477Y-97318047D03*
X184472919Y-107467231D03*
X180627092Y-99219830D03*
%TD*%
D13*
%TO.C,J2*%
X265589230Y-74012605D03*
X265589230Y-71472605D03*
X265589230Y-68932605D03*
D14*
X265589230Y-66392605D03*
%TD*%
D15*
%TO.C,S_MAT_23*%
X92933332Y-94503262D03*
D16*
X104028104Y-100581926D03*
D15*
X103558516Y-97350272D03*
D17*
X92432782Y-98303190D03*
D18*
X88858857Y-97345559D03*
D19*
X104408471Y-92246344D03*
D18*
X100292817Y-102583360D03*
D16*
X100840549Y-99727823D03*
D17*
X96718892Y-101625729D03*
D20*
X98245924Y-95926767D03*
%TD*%
D15*
%TO.C,S_MAT_00*%
X30479159Y-62985290D03*
D21*
X42769160Y-65985290D03*
D15*
X41479159Y-62985290D03*
D17*
X30979159Y-66785290D03*
D22*
X27279159Y-66785290D03*
D19*
X40979159Y-57835290D03*
D22*
X39679159Y-68885290D03*
D21*
X39469160Y-65985290D03*
D17*
X35979159Y-68885290D03*
D20*
X35979159Y-62985290D03*
%TD*%
D15*
%TO.C,S_MAT_22*%
X76583332Y-85753262D03*
D16*
X87678104Y-91831926D03*
D15*
X87208516Y-88600272D03*
D17*
X76082782Y-89553190D03*
D18*
X72508857Y-88595559D03*
D19*
X88058471Y-83496344D03*
D18*
X83942817Y-93833360D03*
D16*
X84490549Y-90977823D03*
D17*
X80368892Y-92875729D03*
D20*
X81895924Y-87176767D03*
%TD*%
D15*
%TO.C,S_MAT_32*%
X72183408Y-102174001D03*
D16*
X83278180Y-108252665D03*
D15*
X82808592Y-105021011D03*
D17*
X71682858Y-105973929D03*
D18*
X68108933Y-105016298D03*
D19*
X83658547Y-99917083D03*
D18*
X79542893Y-110254099D03*
D16*
X80090625Y-107398562D03*
D17*
X75968968Y-109296468D03*
D20*
X77496000Y-103597506D03*
%TD*%
D15*
%TO.C,S_MAT_03*%
X101733179Y-61661784D03*
D16*
X112827951Y-67740448D03*
D15*
X112358363Y-64508794D03*
D17*
X101232629Y-65461712D03*
D18*
X97658704Y-64504081D03*
D19*
X113208318Y-59404866D03*
D18*
X109092664Y-69741882D03*
D16*
X109640396Y-66886345D03*
D17*
X105518739Y-68784251D03*
D20*
X107045771Y-63085289D03*
%TD*%
D15*
%TO.C,S_MAT_15*%
X134089722Y-111663616D03*
D23*
X142436372Y-121170327D03*
D15*
X143100394Y-117972956D03*
D17*
X132319707Y-115063182D03*
D24*
X129288845Y-112940949D03*
D19*
X145644737Y-113467535D03*
D24*
X138241820Y-121773516D03*
D23*
X139733170Y-119277524D03*
D17*
X135210957Y-119651283D03*
D20*
X138595058Y-114818286D03*
%TD*%
D25*
%TO.C,R_MAT_01*%
X131886659Y-90985289D03*
X131071659Y-90985289D03*
%TD*%
D15*
%TO.C,S_MAT_11*%
X57045210Y-68771956D03*
D26*
X68627554Y-73860516D03*
D15*
X67878096Y-70682086D03*
D17*
X56877751Y-72601050D03*
D27*
X53233961Y-71958551D03*
D19*
X68279980Y-65523502D03*
D27*
X65080917Y-76179885D03*
D26*
X65377689Y-73287477D03*
D17*
X61437129Y-75537387D03*
D20*
X62461653Y-69727021D03*
%TD*%
D15*
%TO.C,S_MAT_20*%
X30479159Y-96985290D03*
D21*
X42769160Y-99985290D03*
D15*
X41479159Y-96985290D03*
D17*
X30979159Y-100785290D03*
D22*
X27279159Y-100785290D03*
D19*
X40979159Y-91835290D03*
D22*
X39679159Y-102885290D03*
D21*
X39469160Y-99985290D03*
D17*
X35979159Y-102885290D03*
D20*
X35979159Y-96985290D03*
%TD*%
D13*
%TO.C,J1*%
X48374659Y-73759389D03*
X48374659Y-71219389D03*
X48374659Y-68679389D03*
D14*
X48374659Y-66139389D03*
%TD*%
D28*
%TO.C,H1*%
X55097933Y-143113180D03*
%TD*%
D15*
%TO.C,S_MAT_01*%
X59997229Y-52030224D03*
D26*
X71579573Y-57118784D03*
D15*
X70830115Y-53940354D03*
D17*
X59829770Y-55859318D03*
D27*
X56185980Y-55216819D03*
D19*
X71231999Y-48781770D03*
D27*
X68032936Y-59438153D03*
D26*
X68329708Y-56545745D03*
D17*
X64389148Y-58795655D03*
D20*
X65413672Y-52985289D03*
%TD*%
D15*
%TO.C,S_MAT_10*%
X30479159Y-79985289D03*
D21*
X42769160Y-82985289D03*
D15*
X41479159Y-79985289D03*
D17*
X30979159Y-83785289D03*
D22*
X27279159Y-83785289D03*
D19*
X40979159Y-74835289D03*
D22*
X39679159Y-85885289D03*
D21*
X39469160Y-82985289D03*
D17*
X35979159Y-85885289D03*
D20*
X35979159Y-79985289D03*
%TD*%
D25*
%TO.C,R_MAT_31*%
X126794159Y-93985289D03*
X125979159Y-93985289D03*
%TD*%
%TO.C,R_MAT_12*%
X126886659Y-91985289D03*
X126071659Y-91985289D03*
%TD*%
D15*
%TO.C,S_MAT_25*%
X124339992Y-125561279D03*
D23*
X132686642Y-135067990D03*
D15*
X133350664Y-131870619D03*
D17*
X122569977Y-128960845D03*
D24*
X119539115Y-126838612D03*
D19*
X135895007Y-127365198D03*
D24*
X128492090Y-135671179D03*
D23*
X129983440Y-133175187D03*
D17*
X125461227Y-133548946D03*
D20*
X128845328Y-128715949D03*
%TD*%
D15*
%TO.C,S_MAT_02*%
X85383179Y-52911784D03*
D16*
X96477951Y-58990448D03*
D15*
X96008363Y-55758794D03*
D17*
X84882629Y-56711712D03*
D18*
X81308704Y-55754081D03*
D19*
X96858318Y-50654866D03*
D18*
X92742664Y-60991882D03*
D16*
X93290396Y-58136345D03*
D17*
X89168739Y-60034251D03*
D20*
X90695771Y-54335289D03*
%TD*%
D25*
%TO.C,R_MAT_11*%
X131886659Y-91985289D03*
X131071659Y-91985289D03*
%TD*%
%TO.C,R_MAT_21*%
X131886659Y-92985289D03*
X131071659Y-92985289D03*
%TD*%
D29*
%TO.C,FB_USB_01*%
X154041659Y-61485289D03*
X151916659Y-61485289D03*
%TD*%
D15*
%TO.C,S_MAT_33*%
X88533408Y-110924001D03*
D16*
X99628180Y-117002665D03*
D15*
X99158592Y-113771011D03*
D17*
X88032858Y-114723929D03*
D18*
X84458933Y-113766298D03*
D19*
X100008547Y-108667083D03*
D18*
X95892893Y-119004099D03*
D16*
X96440625Y-116148562D03*
D17*
X92318968Y-118046468D03*
D20*
X93846000Y-112347506D03*
%TD*%
D15*
%TO.C,S_MAT_35*%
X139840072Y-137296202D03*
D30*
X146409094Y-148107865D03*
D15*
X147618246Y-145074376D03*
D17*
X137506619Y-140336761D03*
D31*
X134890324Y-137720466D03*
D19*
X150906293Y-141079223D03*
D31*
X142173524Y-147973514D03*
D30*
X144075642Y-145774413D03*
D17*
X139557229Y-145357219D03*
D20*
X143729159Y-141185289D03*
%TD*%
D15*
%TO.C,S_MAT_31*%
X51104242Y-102248905D03*
D26*
X62686586Y-107337465D03*
D15*
X61937128Y-104159035D03*
D17*
X50936783Y-106077999D03*
D27*
X47292993Y-105435500D03*
D19*
X62339012Y-99000451D03*
D27*
X59139949Y-109656834D03*
D26*
X59436721Y-106764426D03*
D17*
X55496161Y-109014336D03*
D20*
X56520685Y-103203970D03*
%TD*%
D25*
%TO.C,R_MAT_22*%
X126886659Y-92985289D03*
X126071659Y-92985289D03*
%TD*%
%TO.C,R_MAT_02*%
X126886659Y-90985289D03*
X126071659Y-90985289D03*
%TD*%
D15*
%TO.C,S_MAT_13*%
X97333255Y-78082523D03*
D16*
X108428027Y-84161187D03*
D15*
X107958439Y-80929533D03*
D17*
X96832705Y-81882451D03*
D18*
X93258780Y-80924820D03*
D19*
X108808394Y-75825605D03*
D18*
X104692740Y-86162621D03*
D16*
X105240472Y-83307084D03*
D17*
X101118815Y-85204990D03*
D20*
X102645847Y-79506028D03*
%TD*%
D15*
%TO.C,S_MAT_21*%
X54093190Y-85513686D03*
D26*
X65675534Y-90602246D03*
D15*
X64926076Y-87423816D03*
D17*
X53925731Y-89342780D03*
D27*
X50281941Y-88700281D03*
D19*
X65327960Y-82265232D03*
D27*
X62128897Y-92921615D03*
D26*
X62425669Y-90029207D03*
D17*
X58485109Y-92279117D03*
D20*
X59509633Y-86468751D03*
%TD*%
D15*
%TO.C,S_MAT_12*%
X80983255Y-69332523D03*
D16*
X92078027Y-75411187D03*
D15*
X91608439Y-72179533D03*
D17*
X80482705Y-73132451D03*
D18*
X76908780Y-72174820D03*
D19*
X92458394Y-67075605D03*
D18*
X88342740Y-77412621D03*
D16*
X88890472Y-74557084D03*
D17*
X84768815Y-76454990D03*
D20*
X86295847Y-70756028D03*
%TD*%
D15*
%TO.C,S_MAT_24*%
X110233332Y-99203262D03*
D16*
X121328104Y-105281926D03*
D15*
X120858516Y-102050272D03*
D17*
X109732782Y-103003190D03*
D18*
X106158857Y-102045559D03*
D19*
X121708471Y-96946344D03*
D18*
X117592817Y-107283360D03*
D16*
X118140549Y-104427823D03*
D17*
X114018892Y-106325729D03*
D20*
X115545924Y-100626767D03*
%TD*%
D32*
%TO.C,J_USB_01*%
X141659159Y-57835289D03*
D33*
X141659159Y-62015289D03*
D32*
X150299159Y-57835289D03*
D33*
X150299159Y-62015289D03*
D34*
X143089159Y-61485289D03*
X148869159Y-61485289D03*
%TD*%
D15*
%TO.C,S_MAT_34*%
X107020055Y-116717951D03*
D35*
X116890724Y-124630853D03*
D15*
X116989441Y-121366751D03*
D17*
X105867260Y-120373229D03*
D36*
X102513921Y-118809542D03*
D19*
X118712771Y-116487957D03*
D36*
X112864639Y-125953255D03*
D35*
X113899908Y-123236213D03*
D17*
X109511300Y-124389567D03*
D20*
X112004748Y-119042351D03*
%TD*%
D15*
%TO.C,S_MAT_04*%
X119033179Y-66361784D03*
D16*
X130127951Y-72440448D03*
D15*
X129658363Y-69208794D03*
D17*
X118532629Y-70161712D03*
D18*
X114958704Y-69204081D03*
D19*
X130508318Y-64104866D03*
D18*
X126392664Y-74441882D03*
D16*
X126940396Y-71586345D03*
D17*
X122818739Y-73484251D03*
D20*
X124345771Y-67785289D03*
%TD*%
D15*
%TO.C,S_MAT_14*%
X114633255Y-82782523D03*
D16*
X125728027Y-88861187D03*
D15*
X125258439Y-85629533D03*
D17*
X114132705Y-86582451D03*
D18*
X110558780Y-85624820D03*
D19*
X126108394Y-80525605D03*
D18*
X121992740Y-90862621D03*
D16*
X122540472Y-88007084D03*
D17*
X118418815Y-89904990D03*
D20*
X119945847Y-84206028D03*
%TD*%
D28*
%TO.C,H9*%
X297104468Y-185619082D03*
%TD*%
%TO.C,H11*%
X252779097Y-222950560D03*
%TD*%
%TO.C,H4*%
X153000000Y-203170815D03*
%TD*%
%TO.C,H5*%
X61220903Y-222950560D03*
%TD*%
%TO.C,H12*%
X180909915Y-259024356D03*
%TD*%
%TO.C,H8*%
X192321069Y-160415703D03*
%TD*%
%TO.C,H2*%
X121678931Y-160415703D03*
%TD*%
%TO.C,H3*%
X16895532Y-185619082D03*
%TD*%
%TO.C,H10*%
X161000000Y-203170815D03*
%TD*%
%TO.C,H6*%
X133090085Y-259024356D03*
%TD*%
%TO.C,H7*%
X258902067Y-143113180D03*
%TD*%
M02*
