%TF.GenerationSoftware,KiCad,Pcbnew,10.0.3-10.0.3~ubuntu24.04.1*%
%TF.CreationDate,2026-05-19T21:08:55-05:00*%
%TF.ProjectId,androphage,616e6472-6f70-4686-9167-652e6b696361,rev?*%
%TF.SameCoordinates,Original*%
%TF.FileFunction,Legend,Bot*%
%TF.FilePolarity,Positive*%
%FSLAX46Y46*%
G04 Gerber Fmt 4.6, Leading zero omitted, Abs format (unit mm)*
G04 Created by KiCad (PCBNEW 10.0.3-10.0.3~ubuntu24.04.1) date 2026-05-19 21:08:55*
%MOMM*%
%LPD*%
G01*
G04 APERTURE LIST*
%ADD10C,0.150000*%
%ADD11C,0.120000*%
%ADD12C,0.100000*%
G04 APERTURE END LIST*
D10*
X182209888Y-107836828D02*
X182106357Y-107727480D01*
X182106357Y-107727480D02*
X182005733Y-107511692D01*
X182005733Y-107511692D02*
X182008641Y-107405253D01*
X182008641Y-107405253D02*
X182031674Y-107341971D01*
X182031674Y-107341971D02*
X182097865Y-107258564D01*
X182097865Y-107258564D02*
X182184180Y-107218314D01*
X182184180Y-107218314D02*
X182290619Y-107221222D01*
X182290619Y-107221222D02*
X182353901Y-107244255D01*
X182353901Y-107244255D02*
X182437308Y-107310446D01*
X182437308Y-107310446D02*
X182560965Y-107462951D01*
X182560965Y-107462951D02*
X182644371Y-107529141D01*
X182644371Y-107529141D02*
X182707654Y-107552174D01*
X182707654Y-107552174D02*
X182814093Y-107555082D01*
X182814093Y-107555082D02*
X182900408Y-107514833D01*
X182900408Y-107514833D02*
X182966599Y-107431426D01*
X182966599Y-107431426D02*
X182989632Y-107368144D01*
X182989632Y-107368144D02*
X182992540Y-107261704D01*
X182992540Y-107261704D02*
X182891916Y-107045917D01*
X182891916Y-107045917D02*
X182788385Y-106936569D01*
X182690670Y-106614341D02*
X181683738Y-106821172D01*
X181683738Y-106821172D02*
X182250602Y-106346672D01*
X182250602Y-106346672D02*
X181522741Y-106475912D01*
X181522741Y-106475912D02*
X182328425Y-105837506D01*
X181275428Y-106170901D02*
X180953434Y-105480381D01*
X180697629Y-104706454D02*
X181270077Y-104807310D01*
X180939125Y-105224344D02*
X181845433Y-104801726D01*
X181845433Y-104801726D02*
X181684436Y-104456466D01*
X181684436Y-104456466D02*
X181601029Y-104390275D01*
X181601029Y-104390275D02*
X181537746Y-104367243D01*
X181537746Y-104367243D02*
X181431307Y-104364334D01*
X181431307Y-104364334D02*
X181301834Y-104424708D01*
X181301834Y-104424708D02*
X181235644Y-104508115D01*
X181235644Y-104508115D02*
X181212611Y-104571397D01*
X181212611Y-104571397D02*
X181209703Y-104677837D01*
X181209703Y-104677837D02*
X181370700Y-105023097D01*
X180579789Y-104341069D02*
X180476258Y-104231721D01*
X180476258Y-104231721D02*
X180375634Y-104015934D01*
X180375634Y-104015934D02*
X180378542Y-103909494D01*
X180378542Y-103909494D02*
X180401575Y-103846212D01*
X180401575Y-103846212D02*
X180467765Y-103762805D01*
X180467765Y-103762805D02*
X180554081Y-103722556D01*
X180554081Y-103722556D02*
X180660520Y-103725464D01*
X180660520Y-103725464D02*
X180723802Y-103748497D01*
X180723802Y-103748497D02*
X180807209Y-103814687D01*
X180807209Y-103814687D02*
X180930866Y-103967192D01*
X180930866Y-103967192D02*
X181014272Y-104033383D01*
X181014272Y-104033383D02*
X181077555Y-104056415D01*
X181077555Y-104056415D02*
X181183994Y-104059324D01*
X181183994Y-104059324D02*
X181270309Y-104019074D01*
X181270309Y-104019074D02*
X181336500Y-103935667D01*
X181336500Y-103935667D02*
X181359532Y-103872385D01*
X181359532Y-103872385D02*
X181362441Y-103765946D01*
X181362441Y-103765946D02*
X181261817Y-103550158D01*
X181261817Y-103550158D02*
X181158286Y-103440810D01*
X181080695Y-103161740D02*
X180839199Y-102643850D01*
X180053639Y-103325413D02*
X180959947Y-102902795D01*
X179806327Y-103020402D02*
X179484332Y-102329882D01*
X180295832Y-101478597D02*
X180255583Y-101392282D01*
X180255583Y-101392282D02*
X180172176Y-101326091D01*
X180172176Y-101326091D02*
X180108894Y-101303059D01*
X180108894Y-101303059D02*
X180002454Y-101300150D01*
X180002454Y-101300150D02*
X179809700Y-101337492D01*
X179809700Y-101337492D02*
X179593912Y-101438115D01*
X179593912Y-101438115D02*
X179441407Y-101561771D01*
X179441407Y-101561771D02*
X179375216Y-101645178D01*
X179375216Y-101645178D02*
X179352183Y-101708460D01*
X179352183Y-101708460D02*
X179349275Y-101814900D01*
X179349275Y-101814900D02*
X179389525Y-101901215D01*
X179389525Y-101901215D02*
X179472932Y-101967405D01*
X179472932Y-101967405D02*
X179536214Y-101990438D01*
X179536214Y-101990438D02*
X179642653Y-101993346D01*
X179642653Y-101993346D02*
X179835408Y-101956005D01*
X179835408Y-101956005D02*
X180051196Y-101855382D01*
X180051196Y-101855382D02*
X180203701Y-101731726D01*
X180203701Y-101731726D02*
X180269891Y-101648319D01*
X180269891Y-101648319D02*
X180292924Y-101585037D01*
X180292924Y-101585037D02*
X180295832Y-101478597D01*
X178846158Y-100735962D02*
X179087654Y-101253852D01*
X178966906Y-100994907D02*
X179873214Y-100572289D01*
X179873214Y-100572289D02*
X179783991Y-100718978D01*
X179783991Y-100718978D02*
X179737925Y-100845542D01*
X179737925Y-100845542D02*
X179735017Y-100951982D01*
X265922563Y-63467424D02*
X265922563Y-64181709D01*
X265922563Y-64181709D02*
X265970182Y-64324566D01*
X265970182Y-64324566D02*
X266065420Y-64419805D01*
X266065420Y-64419805D02*
X266208277Y-64467424D01*
X266208277Y-64467424D02*
X266303515Y-64467424D01*
X265493991Y-63562662D02*
X265446372Y-63515043D01*
X265446372Y-63515043D02*
X265351134Y-63467424D01*
X265351134Y-63467424D02*
X265113039Y-63467424D01*
X265113039Y-63467424D02*
X265017801Y-63515043D01*
X265017801Y-63515043D02*
X264970182Y-63562662D01*
X264970182Y-63562662D02*
X264922563Y-63657900D01*
X264922563Y-63657900D02*
X264922563Y-63753138D01*
X264922563Y-63753138D02*
X264970182Y-63895995D01*
X264970182Y-63895995D02*
X265541610Y-64467424D01*
X265541610Y-64467424D02*
X264922563Y-64467424D01*
X134264873Y-92490108D02*
X134598206Y-92013917D01*
X134836301Y-92490108D02*
X134836301Y-91490108D01*
X134836301Y-91490108D02*
X134455349Y-91490108D01*
X134455349Y-91490108D02*
X134360111Y-91537727D01*
X134360111Y-91537727D02*
X134312492Y-91585346D01*
X134312492Y-91585346D02*
X134264873Y-91680584D01*
X134264873Y-91680584D02*
X134264873Y-91823441D01*
X134264873Y-91823441D02*
X134312492Y-91918679D01*
X134312492Y-91918679D02*
X134360111Y-91966298D01*
X134360111Y-91966298D02*
X134455349Y-92013917D01*
X134455349Y-92013917D02*
X134836301Y-92013917D01*
X134074397Y-92585346D02*
X133312492Y-92585346D01*
X133074396Y-92490108D02*
X133074396Y-91490108D01*
X133074396Y-91490108D02*
X132741063Y-92204393D01*
X132741063Y-92204393D02*
X132407730Y-91490108D01*
X132407730Y-91490108D02*
X132407730Y-92490108D01*
X131979158Y-92204393D02*
X131502968Y-92204393D01*
X132074396Y-92490108D02*
X131741063Y-91490108D01*
X131741063Y-91490108D02*
X131407730Y-92490108D01*
X131217253Y-91490108D02*
X130645825Y-91490108D01*
X130931539Y-92490108D02*
X130931539Y-91490108D01*
X130550587Y-92585346D02*
X129788682Y-92585346D01*
X129360110Y-91490108D02*
X129264872Y-91490108D01*
X129264872Y-91490108D02*
X129169634Y-91537727D01*
X129169634Y-91537727D02*
X129122015Y-91585346D01*
X129122015Y-91585346D02*
X129074396Y-91680584D01*
X129074396Y-91680584D02*
X129026777Y-91871060D01*
X129026777Y-91871060D02*
X129026777Y-92109155D01*
X129026777Y-92109155D02*
X129074396Y-92299631D01*
X129074396Y-92299631D02*
X129122015Y-92394869D01*
X129122015Y-92394869D02*
X129169634Y-92442489D01*
X129169634Y-92442489D02*
X129264872Y-92490108D01*
X129264872Y-92490108D02*
X129360110Y-92490108D01*
X129360110Y-92490108D02*
X129455348Y-92442489D01*
X129455348Y-92442489D02*
X129502967Y-92394869D01*
X129502967Y-92394869D02*
X129550586Y-92299631D01*
X129550586Y-92299631D02*
X129598205Y-92109155D01*
X129598205Y-92109155D02*
X129598205Y-91871060D01*
X129598205Y-91871060D02*
X129550586Y-91680584D01*
X129550586Y-91680584D02*
X129502967Y-91585346D01*
X129502967Y-91585346D02*
X129455348Y-91537727D01*
X129455348Y-91537727D02*
X129360110Y-91490108D01*
X128074396Y-92490108D02*
X128645824Y-92490108D01*
X128360110Y-92490108D02*
X128360110Y-91490108D01*
X128360110Y-91490108D02*
X128455348Y-91632965D01*
X128455348Y-91632965D02*
X128550586Y-91728203D01*
X128550586Y-91728203D02*
X128645824Y-91775822D01*
X129172373Y-95490108D02*
X129505706Y-95013917D01*
X129743801Y-95490108D02*
X129743801Y-94490108D01*
X129743801Y-94490108D02*
X129362849Y-94490108D01*
X129362849Y-94490108D02*
X129267611Y-94537727D01*
X129267611Y-94537727D02*
X129219992Y-94585346D01*
X129219992Y-94585346D02*
X129172373Y-94680584D01*
X129172373Y-94680584D02*
X129172373Y-94823441D01*
X129172373Y-94823441D02*
X129219992Y-94918679D01*
X129219992Y-94918679D02*
X129267611Y-94966298D01*
X129267611Y-94966298D02*
X129362849Y-95013917D01*
X129362849Y-95013917D02*
X129743801Y-95013917D01*
X128981897Y-95585346D02*
X128219992Y-95585346D01*
X127981896Y-95490108D02*
X127981896Y-94490108D01*
X127981896Y-94490108D02*
X127648563Y-95204393D01*
X127648563Y-95204393D02*
X127315230Y-94490108D01*
X127315230Y-94490108D02*
X127315230Y-95490108D01*
X126886658Y-95204393D02*
X126410468Y-95204393D01*
X126981896Y-95490108D02*
X126648563Y-94490108D01*
X126648563Y-94490108D02*
X126315230Y-95490108D01*
X126124753Y-94490108D02*
X125553325Y-94490108D01*
X125839039Y-95490108D02*
X125839039Y-94490108D01*
X125458087Y-95585346D02*
X124696182Y-95585346D01*
X124553324Y-94490108D02*
X123934277Y-94490108D01*
X123934277Y-94490108D02*
X124267610Y-94871060D01*
X124267610Y-94871060D02*
X124124753Y-94871060D01*
X124124753Y-94871060D02*
X124029515Y-94918679D01*
X124029515Y-94918679D02*
X123981896Y-94966298D01*
X123981896Y-94966298D02*
X123934277Y-95061536D01*
X123934277Y-95061536D02*
X123934277Y-95299631D01*
X123934277Y-95299631D02*
X123981896Y-95394869D01*
X123981896Y-95394869D02*
X124029515Y-95442489D01*
X124029515Y-95442489D02*
X124124753Y-95490108D01*
X124124753Y-95490108D02*
X124410467Y-95490108D01*
X124410467Y-95490108D02*
X124505705Y-95442489D01*
X124505705Y-95442489D02*
X124553324Y-95394869D01*
X122981896Y-95490108D02*
X123553324Y-95490108D01*
X123267610Y-95490108D02*
X123267610Y-94490108D01*
X123267610Y-94490108D02*
X123362848Y-94632965D01*
X123362848Y-94632965D02*
X123458086Y-94728203D01*
X123458086Y-94728203D02*
X123553324Y-94775822D01*
X129264873Y-93490108D02*
X129598206Y-93013917D01*
X129836301Y-93490108D02*
X129836301Y-92490108D01*
X129836301Y-92490108D02*
X129455349Y-92490108D01*
X129455349Y-92490108D02*
X129360111Y-92537727D01*
X129360111Y-92537727D02*
X129312492Y-92585346D01*
X129312492Y-92585346D02*
X129264873Y-92680584D01*
X129264873Y-92680584D02*
X129264873Y-92823441D01*
X129264873Y-92823441D02*
X129312492Y-92918679D01*
X129312492Y-92918679D02*
X129360111Y-92966298D01*
X129360111Y-92966298D02*
X129455349Y-93013917D01*
X129455349Y-93013917D02*
X129836301Y-93013917D01*
X129074397Y-93585346D02*
X128312492Y-93585346D01*
X128074396Y-93490108D02*
X128074396Y-92490108D01*
X128074396Y-92490108D02*
X127741063Y-93204393D01*
X127741063Y-93204393D02*
X127407730Y-92490108D01*
X127407730Y-92490108D02*
X127407730Y-93490108D01*
X126979158Y-93204393D02*
X126502968Y-93204393D01*
X127074396Y-93490108D02*
X126741063Y-92490108D01*
X126741063Y-92490108D02*
X126407730Y-93490108D01*
X126217253Y-92490108D02*
X125645825Y-92490108D01*
X125931539Y-93490108D02*
X125931539Y-92490108D01*
X125550587Y-93585346D02*
X124788682Y-93585346D01*
X124026777Y-93490108D02*
X124598205Y-93490108D01*
X124312491Y-93490108D02*
X124312491Y-92490108D01*
X124312491Y-92490108D02*
X124407729Y-92632965D01*
X124407729Y-92632965D02*
X124502967Y-92728203D01*
X124502967Y-92728203D02*
X124598205Y-92775822D01*
X123645824Y-92585346D02*
X123598205Y-92537727D01*
X123598205Y-92537727D02*
X123502967Y-92490108D01*
X123502967Y-92490108D02*
X123264872Y-92490108D01*
X123264872Y-92490108D02*
X123169634Y-92537727D01*
X123169634Y-92537727D02*
X123122015Y-92585346D01*
X123122015Y-92585346D02*
X123074396Y-92680584D01*
X123074396Y-92680584D02*
X123074396Y-92775822D01*
X123074396Y-92775822D02*
X123122015Y-92918679D01*
X123122015Y-92918679D02*
X123693443Y-93490108D01*
X123693443Y-93490108D02*
X123074396Y-93490108D01*
X134264873Y-93490108D02*
X134598206Y-93013917D01*
X134836301Y-93490108D02*
X134836301Y-92490108D01*
X134836301Y-92490108D02*
X134455349Y-92490108D01*
X134455349Y-92490108D02*
X134360111Y-92537727D01*
X134360111Y-92537727D02*
X134312492Y-92585346D01*
X134312492Y-92585346D02*
X134264873Y-92680584D01*
X134264873Y-92680584D02*
X134264873Y-92823441D01*
X134264873Y-92823441D02*
X134312492Y-92918679D01*
X134312492Y-92918679D02*
X134360111Y-92966298D01*
X134360111Y-92966298D02*
X134455349Y-93013917D01*
X134455349Y-93013917D02*
X134836301Y-93013917D01*
X134074397Y-93585346D02*
X133312492Y-93585346D01*
X133074396Y-93490108D02*
X133074396Y-92490108D01*
X133074396Y-92490108D02*
X132741063Y-93204393D01*
X132741063Y-93204393D02*
X132407730Y-92490108D01*
X132407730Y-92490108D02*
X132407730Y-93490108D01*
X131979158Y-93204393D02*
X131502968Y-93204393D01*
X132074396Y-93490108D02*
X131741063Y-92490108D01*
X131741063Y-92490108D02*
X131407730Y-93490108D01*
X131217253Y-92490108D02*
X130645825Y-92490108D01*
X130931539Y-93490108D02*
X130931539Y-92490108D01*
X130550587Y-93585346D02*
X129788682Y-93585346D01*
X129026777Y-93490108D02*
X129598205Y-93490108D01*
X129312491Y-93490108D02*
X129312491Y-92490108D01*
X129312491Y-92490108D02*
X129407729Y-92632965D01*
X129407729Y-92632965D02*
X129502967Y-92728203D01*
X129502967Y-92728203D02*
X129598205Y-92775822D01*
X128074396Y-93490108D02*
X128645824Y-93490108D01*
X128360110Y-93490108D02*
X128360110Y-92490108D01*
X128360110Y-92490108D02*
X128455348Y-92632965D01*
X128455348Y-92632965D02*
X128550586Y-92728203D01*
X128550586Y-92728203D02*
X128645824Y-92775822D01*
X134264873Y-94490108D02*
X134598206Y-94013917D01*
X134836301Y-94490108D02*
X134836301Y-93490108D01*
X134836301Y-93490108D02*
X134455349Y-93490108D01*
X134455349Y-93490108D02*
X134360111Y-93537727D01*
X134360111Y-93537727D02*
X134312492Y-93585346D01*
X134312492Y-93585346D02*
X134264873Y-93680584D01*
X134264873Y-93680584D02*
X134264873Y-93823441D01*
X134264873Y-93823441D02*
X134312492Y-93918679D01*
X134312492Y-93918679D02*
X134360111Y-93966298D01*
X134360111Y-93966298D02*
X134455349Y-94013917D01*
X134455349Y-94013917D02*
X134836301Y-94013917D01*
X134074397Y-94585346D02*
X133312492Y-94585346D01*
X133074396Y-94490108D02*
X133074396Y-93490108D01*
X133074396Y-93490108D02*
X132741063Y-94204393D01*
X132741063Y-94204393D02*
X132407730Y-93490108D01*
X132407730Y-93490108D02*
X132407730Y-94490108D01*
X131979158Y-94204393D02*
X131502968Y-94204393D01*
X132074396Y-94490108D02*
X131741063Y-93490108D01*
X131741063Y-93490108D02*
X131407730Y-94490108D01*
X131217253Y-93490108D02*
X130645825Y-93490108D01*
X130931539Y-94490108D02*
X130931539Y-93490108D01*
X130550587Y-94585346D02*
X129788682Y-94585346D01*
X129598205Y-93585346D02*
X129550586Y-93537727D01*
X129550586Y-93537727D02*
X129455348Y-93490108D01*
X129455348Y-93490108D02*
X129217253Y-93490108D01*
X129217253Y-93490108D02*
X129122015Y-93537727D01*
X129122015Y-93537727D02*
X129074396Y-93585346D01*
X129074396Y-93585346D02*
X129026777Y-93680584D01*
X129026777Y-93680584D02*
X129026777Y-93775822D01*
X129026777Y-93775822D02*
X129074396Y-93918679D01*
X129074396Y-93918679D02*
X129645824Y-94490108D01*
X129645824Y-94490108D02*
X129026777Y-94490108D01*
X128074396Y-94490108D02*
X128645824Y-94490108D01*
X128360110Y-94490108D02*
X128360110Y-93490108D01*
X128360110Y-93490108D02*
X128455348Y-93632965D01*
X128455348Y-93632965D02*
X128550586Y-93728203D01*
X128550586Y-93728203D02*
X128645824Y-93775822D01*
X156550587Y-62966298D02*
X156883920Y-62966298D01*
X156883920Y-63490108D02*
X156883920Y-62490108D01*
X156883920Y-62490108D02*
X156407730Y-62490108D01*
X155693444Y-62966298D02*
X155550587Y-63013917D01*
X155550587Y-63013917D02*
X155502968Y-63061536D01*
X155502968Y-63061536D02*
X155455349Y-63156774D01*
X155455349Y-63156774D02*
X155455349Y-63299631D01*
X155455349Y-63299631D02*
X155502968Y-63394869D01*
X155502968Y-63394869D02*
X155550587Y-63442489D01*
X155550587Y-63442489D02*
X155645825Y-63490108D01*
X155645825Y-63490108D02*
X156026777Y-63490108D01*
X156026777Y-63490108D02*
X156026777Y-62490108D01*
X156026777Y-62490108D02*
X155693444Y-62490108D01*
X155693444Y-62490108D02*
X155598206Y-62537727D01*
X155598206Y-62537727D02*
X155550587Y-62585346D01*
X155550587Y-62585346D02*
X155502968Y-62680584D01*
X155502968Y-62680584D02*
X155502968Y-62775822D01*
X155502968Y-62775822D02*
X155550587Y-62871060D01*
X155550587Y-62871060D02*
X155598206Y-62918679D01*
X155598206Y-62918679D02*
X155693444Y-62966298D01*
X155693444Y-62966298D02*
X156026777Y-62966298D01*
X155264873Y-63585346D02*
X154502968Y-63585346D01*
X154264872Y-62490108D02*
X154264872Y-63299631D01*
X154264872Y-63299631D02*
X154217253Y-63394869D01*
X154217253Y-63394869D02*
X154169634Y-63442489D01*
X154169634Y-63442489D02*
X154074396Y-63490108D01*
X154074396Y-63490108D02*
X153883920Y-63490108D01*
X153883920Y-63490108D02*
X153788682Y-63442489D01*
X153788682Y-63442489D02*
X153741063Y-63394869D01*
X153741063Y-63394869D02*
X153693444Y-63299631D01*
X153693444Y-63299631D02*
X153693444Y-62490108D01*
X153264872Y-63442489D02*
X153122015Y-63490108D01*
X153122015Y-63490108D02*
X152883920Y-63490108D01*
X152883920Y-63490108D02*
X152788682Y-63442489D01*
X152788682Y-63442489D02*
X152741063Y-63394869D01*
X152741063Y-63394869D02*
X152693444Y-63299631D01*
X152693444Y-63299631D02*
X152693444Y-63204393D01*
X152693444Y-63204393D02*
X152741063Y-63109155D01*
X152741063Y-63109155D02*
X152788682Y-63061536D01*
X152788682Y-63061536D02*
X152883920Y-63013917D01*
X152883920Y-63013917D02*
X153074396Y-62966298D01*
X153074396Y-62966298D02*
X153169634Y-62918679D01*
X153169634Y-62918679D02*
X153217253Y-62871060D01*
X153217253Y-62871060D02*
X153264872Y-62775822D01*
X153264872Y-62775822D02*
X153264872Y-62680584D01*
X153264872Y-62680584D02*
X153217253Y-62585346D01*
X153217253Y-62585346D02*
X153169634Y-62537727D01*
X153169634Y-62537727D02*
X153074396Y-62490108D01*
X153074396Y-62490108D02*
X152836301Y-62490108D01*
X152836301Y-62490108D02*
X152693444Y-62537727D01*
X151931539Y-62966298D02*
X151788682Y-63013917D01*
X151788682Y-63013917D02*
X151741063Y-63061536D01*
X151741063Y-63061536D02*
X151693444Y-63156774D01*
X151693444Y-63156774D02*
X151693444Y-63299631D01*
X151693444Y-63299631D02*
X151741063Y-63394869D01*
X151741063Y-63394869D02*
X151788682Y-63442489D01*
X151788682Y-63442489D02*
X151883920Y-63490108D01*
X151883920Y-63490108D02*
X152264872Y-63490108D01*
X152264872Y-63490108D02*
X152264872Y-62490108D01*
X152264872Y-62490108D02*
X151931539Y-62490108D01*
X151931539Y-62490108D02*
X151836301Y-62537727D01*
X151836301Y-62537727D02*
X151788682Y-62585346D01*
X151788682Y-62585346D02*
X151741063Y-62680584D01*
X151741063Y-62680584D02*
X151741063Y-62775822D01*
X151741063Y-62775822D02*
X151788682Y-62871060D01*
X151788682Y-62871060D02*
X151836301Y-62918679D01*
X151836301Y-62918679D02*
X151931539Y-62966298D01*
X151931539Y-62966298D02*
X152264872Y-62966298D01*
X151502968Y-63585346D02*
X150741063Y-63585346D01*
X150312491Y-62490108D02*
X150217253Y-62490108D01*
X150217253Y-62490108D02*
X150122015Y-62537727D01*
X150122015Y-62537727D02*
X150074396Y-62585346D01*
X150074396Y-62585346D02*
X150026777Y-62680584D01*
X150026777Y-62680584D02*
X149979158Y-62871060D01*
X149979158Y-62871060D02*
X149979158Y-63109155D01*
X149979158Y-63109155D02*
X150026777Y-63299631D01*
X150026777Y-63299631D02*
X150074396Y-63394869D01*
X150074396Y-63394869D02*
X150122015Y-63442489D01*
X150122015Y-63442489D02*
X150217253Y-63490108D01*
X150217253Y-63490108D02*
X150312491Y-63490108D01*
X150312491Y-63490108D02*
X150407729Y-63442489D01*
X150407729Y-63442489D02*
X150455348Y-63394869D01*
X150455348Y-63394869D02*
X150502967Y-63299631D01*
X150502967Y-63299631D02*
X150550586Y-63109155D01*
X150550586Y-63109155D02*
X150550586Y-62871060D01*
X150550586Y-62871060D02*
X150502967Y-62680584D01*
X150502967Y-62680584D02*
X150455348Y-62585346D01*
X150455348Y-62585346D02*
X150407729Y-62537727D01*
X150407729Y-62537727D02*
X150312491Y-62490108D01*
X149026777Y-63490108D02*
X149598205Y-63490108D01*
X149312491Y-63490108D02*
X149312491Y-62490108D01*
X149312491Y-62490108D02*
X149407729Y-62632965D01*
X149407729Y-62632965D02*
X149502967Y-62728203D01*
X149502967Y-62728203D02*
X149598205Y-62775822D01*
X129264873Y-94490108D02*
X129598206Y-94013917D01*
X129836301Y-94490108D02*
X129836301Y-93490108D01*
X129836301Y-93490108D02*
X129455349Y-93490108D01*
X129455349Y-93490108D02*
X129360111Y-93537727D01*
X129360111Y-93537727D02*
X129312492Y-93585346D01*
X129312492Y-93585346D02*
X129264873Y-93680584D01*
X129264873Y-93680584D02*
X129264873Y-93823441D01*
X129264873Y-93823441D02*
X129312492Y-93918679D01*
X129312492Y-93918679D02*
X129360111Y-93966298D01*
X129360111Y-93966298D02*
X129455349Y-94013917D01*
X129455349Y-94013917D02*
X129836301Y-94013917D01*
X129074397Y-94585346D02*
X128312492Y-94585346D01*
X128074396Y-94490108D02*
X128074396Y-93490108D01*
X128074396Y-93490108D02*
X127741063Y-94204393D01*
X127741063Y-94204393D02*
X127407730Y-93490108D01*
X127407730Y-93490108D02*
X127407730Y-94490108D01*
X126979158Y-94204393D02*
X126502968Y-94204393D01*
X127074396Y-94490108D02*
X126741063Y-93490108D01*
X126741063Y-93490108D02*
X126407730Y-94490108D01*
X126217253Y-93490108D02*
X125645825Y-93490108D01*
X125931539Y-94490108D02*
X125931539Y-93490108D01*
X125550587Y-94585346D02*
X124788682Y-94585346D01*
X124598205Y-93585346D02*
X124550586Y-93537727D01*
X124550586Y-93537727D02*
X124455348Y-93490108D01*
X124455348Y-93490108D02*
X124217253Y-93490108D01*
X124217253Y-93490108D02*
X124122015Y-93537727D01*
X124122015Y-93537727D02*
X124074396Y-93585346D01*
X124074396Y-93585346D02*
X124026777Y-93680584D01*
X124026777Y-93680584D02*
X124026777Y-93775822D01*
X124026777Y-93775822D02*
X124074396Y-93918679D01*
X124074396Y-93918679D02*
X124645824Y-94490108D01*
X124645824Y-94490108D02*
X124026777Y-94490108D01*
X123645824Y-93585346D02*
X123598205Y-93537727D01*
X123598205Y-93537727D02*
X123502967Y-93490108D01*
X123502967Y-93490108D02*
X123264872Y-93490108D01*
X123264872Y-93490108D02*
X123169634Y-93537727D01*
X123169634Y-93537727D02*
X123122015Y-93585346D01*
X123122015Y-93585346D02*
X123074396Y-93680584D01*
X123074396Y-93680584D02*
X123074396Y-93775822D01*
X123074396Y-93775822D02*
X123122015Y-93918679D01*
X123122015Y-93918679D02*
X123693443Y-94490108D01*
X123693443Y-94490108D02*
X123074396Y-94490108D01*
X129264873Y-92490108D02*
X129598206Y-92013917D01*
X129836301Y-92490108D02*
X129836301Y-91490108D01*
X129836301Y-91490108D02*
X129455349Y-91490108D01*
X129455349Y-91490108D02*
X129360111Y-91537727D01*
X129360111Y-91537727D02*
X129312492Y-91585346D01*
X129312492Y-91585346D02*
X129264873Y-91680584D01*
X129264873Y-91680584D02*
X129264873Y-91823441D01*
X129264873Y-91823441D02*
X129312492Y-91918679D01*
X129312492Y-91918679D02*
X129360111Y-91966298D01*
X129360111Y-91966298D02*
X129455349Y-92013917D01*
X129455349Y-92013917D02*
X129836301Y-92013917D01*
X129074397Y-92585346D02*
X128312492Y-92585346D01*
X128074396Y-92490108D02*
X128074396Y-91490108D01*
X128074396Y-91490108D02*
X127741063Y-92204393D01*
X127741063Y-92204393D02*
X127407730Y-91490108D01*
X127407730Y-91490108D02*
X127407730Y-92490108D01*
X126979158Y-92204393D02*
X126502968Y-92204393D01*
X127074396Y-92490108D02*
X126741063Y-91490108D01*
X126741063Y-91490108D02*
X126407730Y-92490108D01*
X126217253Y-91490108D02*
X125645825Y-91490108D01*
X125931539Y-92490108D02*
X125931539Y-91490108D01*
X125550587Y-92585346D02*
X124788682Y-92585346D01*
X124360110Y-91490108D02*
X124264872Y-91490108D01*
X124264872Y-91490108D02*
X124169634Y-91537727D01*
X124169634Y-91537727D02*
X124122015Y-91585346D01*
X124122015Y-91585346D02*
X124074396Y-91680584D01*
X124074396Y-91680584D02*
X124026777Y-91871060D01*
X124026777Y-91871060D02*
X124026777Y-92109155D01*
X124026777Y-92109155D02*
X124074396Y-92299631D01*
X124074396Y-92299631D02*
X124122015Y-92394869D01*
X124122015Y-92394869D02*
X124169634Y-92442489D01*
X124169634Y-92442489D02*
X124264872Y-92490108D01*
X124264872Y-92490108D02*
X124360110Y-92490108D01*
X124360110Y-92490108D02*
X124455348Y-92442489D01*
X124455348Y-92442489D02*
X124502967Y-92394869D01*
X124502967Y-92394869D02*
X124550586Y-92299631D01*
X124550586Y-92299631D02*
X124598205Y-92109155D01*
X124598205Y-92109155D02*
X124598205Y-91871060D01*
X124598205Y-91871060D02*
X124550586Y-91680584D01*
X124550586Y-91680584D02*
X124502967Y-91585346D01*
X124502967Y-91585346D02*
X124455348Y-91537727D01*
X124455348Y-91537727D02*
X124360110Y-91490108D01*
X123645824Y-91585346D02*
X123598205Y-91537727D01*
X123598205Y-91537727D02*
X123502967Y-91490108D01*
X123502967Y-91490108D02*
X123264872Y-91490108D01*
X123264872Y-91490108D02*
X123169634Y-91537727D01*
X123169634Y-91537727D02*
X123122015Y-91585346D01*
X123122015Y-91585346D02*
X123074396Y-91680584D01*
X123074396Y-91680584D02*
X123074396Y-91775822D01*
X123074396Y-91775822D02*
X123122015Y-91918679D01*
X123122015Y-91918679D02*
X123693443Y-92490108D01*
X123693443Y-92490108D02*
X123074396Y-92490108D01*
%TO.C,SW_RST_01*%
D11*
X180469527Y-100893201D02*
X180560158Y-100850940D01*
X180469527Y-100893201D02*
X183089760Y-106512310D01*
X181919620Y-100217012D02*
X184638543Y-98949157D01*
X183180391Y-106470048D02*
X183089760Y-106512310D01*
X184539853Y-105836121D02*
X187258776Y-104568266D01*
X186088636Y-98272968D02*
X185998005Y-98315230D01*
X186088636Y-98272968D02*
X188708869Y-103892077D01*
X188708869Y-103892077D02*
X188618238Y-103934338D01*
%TO.C,J2*%
X264209230Y-67662605D02*
X264209230Y-75392605D01*
X266969230Y-75392605D02*
X264209230Y-75392605D01*
X266969230Y-67662605D02*
X264209230Y-67662605D01*
X266969230Y-67662605D02*
X266969230Y-75392605D01*
X266969230Y-66392605D02*
X266969230Y-65012605D01*
X266969230Y-65012605D02*
X265589230Y-65012605D01*
%TO.C,S_MAT_23*%
D12*
X96047265Y-99012867D02*
G75*
G02*
X94827506Y-96900185I446462J1666221D01*
G01*
X94562340Y-96440904D02*
G75*
G02*
X94827504Y-96900185I-97057J-362222D01*
G01*
X92210740Y-100676593D02*
G75*
G02*
X93366447Y-102642705I-389962J-1551951D01*
G01*
X90746469Y-95806673D02*
G75*
G02*
X91205748Y-95541508I362222J-97057D01*
G01*
X89989299Y-100081359D02*
G75*
G02*
X89724134Y-99622080I97057J362222D01*
G01*
D11*
X104972731Y-99799762D02*
X104455092Y-101731613D01*
X104972731Y-99799762D02*
X101099368Y-98761897D01*
X104455092Y-101731613D02*
X100581730Y-100693749D01*
D12*
X99395188Y-100427580D02*
X99041635Y-99815207D01*
X99395188Y-100427580D02*
X98437558Y-104001505D01*
X98437558Y-104001505D02*
X97825185Y-104355059D01*
X97825185Y-104355059D02*
X93720000Y-103255078D01*
X96047265Y-99012867D02*
X99041635Y-99815207D01*
X93720000Y-103255078D02*
X93366447Y-102642705D01*
X91205748Y-95541508D02*
X94562340Y-96440904D01*
X89989299Y-100081359D02*
X92210740Y-100676593D01*
X89724134Y-99622080D02*
X90746469Y-95806673D01*
%TO.C,S_MAT_00*%
X34654159Y-66535290D02*
G75*
G02*
X32929159Y-64810290I1J1725001D01*
G01*
X32554159Y-64435290D02*
G75*
G02*
X32929159Y-64810290I0J-375000D01*
G01*
X31378964Y-69135290D02*
G75*
G02*
X33004158Y-70735290I25000J-1599999D01*
G01*
X29079159Y-69135290D02*
G75*
G02*
X28704159Y-68760290I0J375000D01*
G01*
X28704159Y-64810290D02*
G75*
G02*
X29079159Y-64435290I375000J0D01*
G01*
D11*
X43479160Y-66985290D02*
X39469160Y-66985290D01*
X43479160Y-64985290D02*
X43479160Y-66985290D01*
X43479160Y-64985290D02*
X39469160Y-64985290D01*
D12*
X38254159Y-70735290D02*
X37754159Y-71235290D01*
X38254159Y-67035290D02*
X38254159Y-70735290D01*
X38254159Y-67035290D02*
X37754159Y-66535290D01*
X37754159Y-71235290D02*
X33504159Y-71235290D01*
X34654159Y-66535290D02*
X37754159Y-66535290D01*
X33504159Y-71235290D02*
X33004159Y-70735290D01*
X29079159Y-69135290D02*
X31378964Y-69135290D01*
X29079159Y-64435290D02*
X32554159Y-64435290D01*
X28704159Y-68760290D02*
X28704159Y-64810290D01*
%TO.C,S_MAT_22*%
X79697265Y-90262867D02*
G75*
G02*
X78477506Y-88150185I446462J1666221D01*
G01*
X78212340Y-87690904D02*
G75*
G02*
X78477504Y-88150185I-97057J-362222D01*
G01*
X75860740Y-91926593D02*
G75*
G02*
X77016447Y-93892705I-389962J-1551951D01*
G01*
X74396469Y-87056673D02*
G75*
G02*
X74855748Y-86791508I362222J-97057D01*
G01*
X73639299Y-91331359D02*
G75*
G02*
X73374134Y-90872080I97057J362222D01*
G01*
D11*
X88622731Y-91049762D02*
X88105092Y-92981613D01*
X88622731Y-91049762D02*
X84749368Y-90011897D01*
X88105092Y-92981613D02*
X84231730Y-91943749D01*
D12*
X83045188Y-91677580D02*
X82691635Y-91065207D01*
X83045188Y-91677580D02*
X82087558Y-95251505D01*
X82087558Y-95251505D02*
X81475185Y-95605059D01*
X81475185Y-95605059D02*
X77370000Y-94505078D01*
X79697265Y-90262867D02*
X82691635Y-91065207D01*
X77370000Y-94505078D02*
X77016447Y-93892705D01*
X74855748Y-86791508D02*
X78212340Y-87690904D01*
X73639299Y-91331359D02*
X75860740Y-91926593D01*
X73374134Y-90872080D02*
X74396469Y-87056673D01*
%TO.C,S_MAT_32*%
X75297341Y-106683606D02*
G75*
G02*
X74077582Y-104570924I446462J1666221D01*
G01*
X73812416Y-104111643D02*
G75*
G02*
X74077580Y-104570924I-97057J-362222D01*
G01*
X71460816Y-108347332D02*
G75*
G02*
X72616523Y-110313444I-389962J-1551951D01*
G01*
X69996545Y-103477412D02*
G75*
G02*
X70455824Y-103212247I362222J-97057D01*
G01*
X69239375Y-107752098D02*
G75*
G02*
X68974210Y-107292819I97057J362222D01*
G01*
D11*
X84222807Y-107470501D02*
X83705168Y-109402352D01*
X84222807Y-107470501D02*
X80349444Y-106432636D01*
X83705168Y-109402352D02*
X79831806Y-108364488D01*
D12*
X78645264Y-108098319D02*
X78291711Y-107485946D01*
X78645264Y-108098319D02*
X77687634Y-111672244D01*
X77687634Y-111672244D02*
X77075261Y-112025798D01*
X77075261Y-112025798D02*
X72970076Y-110925817D01*
X75297341Y-106683606D02*
X78291711Y-107485946D01*
X72970076Y-110925817D02*
X72616523Y-110313444D01*
X70455824Y-103212247D02*
X73812416Y-104111643D01*
X69239375Y-107752098D02*
X71460816Y-108347332D01*
X68974210Y-107292819D02*
X69996545Y-103477412D01*
%TO.C,S_MAT_03*%
X104847112Y-66171389D02*
G75*
G02*
X103627353Y-64058707I446462J1666221D01*
G01*
X103362187Y-63599426D02*
G75*
G02*
X103627351Y-64058707I-97057J-362222D01*
G01*
X101010587Y-67835115D02*
G75*
G02*
X102166294Y-69801227I-389962J-1551951D01*
G01*
X99546316Y-62965195D02*
G75*
G02*
X100005595Y-62700030I362222J-97057D01*
G01*
X98789146Y-67239881D02*
G75*
G02*
X98523981Y-66780602I97057J362222D01*
G01*
D11*
X113772578Y-66958284D02*
X113254939Y-68890135D01*
X113772578Y-66958284D02*
X109899215Y-65920419D01*
X113254939Y-68890135D02*
X109381577Y-67852271D01*
D12*
X108195035Y-67586102D02*
X107841482Y-66973729D01*
X108195035Y-67586102D02*
X107237405Y-71160027D01*
X107237405Y-71160027D02*
X106625032Y-71513581D01*
X106625032Y-71513581D02*
X102519847Y-70413600D01*
X104847112Y-66171389D02*
X107841482Y-66973729D01*
X102519847Y-70413600D02*
X102166294Y-69801227D01*
X100005595Y-62700030D02*
X103362187Y-63599426D01*
X98789146Y-67239881D02*
X101010587Y-67835115D01*
X98523981Y-66780602D02*
X99546316Y-62965195D01*
%TO.C,S_MAT_15*%
X135473485Y-116966287D02*
G75*
G02*
X135049867Y-114563830I989421J1413038D01*
G01*
X134957776Y-114041557D02*
G75*
G02*
X135049867Y-114563830I-215091J-307182D01*
G01*
X131588950Y-112140470D02*
G75*
G02*
X132111223Y-112048379I307182J-215091D01*
G01*
X131299304Y-117217508D02*
G75*
G02*
X131712862Y-119460323I-897243J-1324981D01*
G01*
X129415414Y-115898394D02*
G75*
G02*
X129323323Y-115376120I215091J307182D01*
G01*
D11*
X143591546Y-120758414D02*
X142444393Y-122396718D01*
X143591546Y-120758414D02*
X140306747Y-118458372D01*
X142444393Y-122396718D02*
X139159595Y-120096677D01*
D12*
X138135644Y-119440738D02*
X138012857Y-118744374D01*
X138135644Y-119440738D02*
X136013412Y-122471601D01*
X136013412Y-122471601D02*
X135317047Y-122594389D01*
X135473485Y-116966287D02*
X138012857Y-118744374D01*
X135317047Y-122594389D02*
X131835651Y-120156689D01*
X132111223Y-112048379D02*
X134957776Y-114041557D01*
X131835651Y-120156689D02*
X131712863Y-119460324D01*
X129415414Y-115898394D02*
X131299304Y-117217508D01*
X129323323Y-115376120D02*
X131588950Y-112140470D01*
%TO.C,S_MAT_11*%
X60540332Y-72993005D02*
G75*
G02*
X59141082Y-70994668I299544J1698794D01*
G01*
X58836897Y-70560247D02*
G75*
G02*
X59141082Y-70994668I-65118J-369303D01*
G01*
X56863409Y-74984773D02*
G75*
G02*
X58186076Y-76842678I-253217J-1580033D01*
G01*
X54980269Y-70261005D02*
G75*
G02*
X55414690Y-69956820I369303J-65118D01*
G01*
X54598543Y-74585416D02*
G75*
G02*
X54294358Y-74150995I65118J369303D01*
G01*
D11*
X69500416Y-72998998D02*
X69153119Y-74968615D01*
X69500416Y-72998998D02*
X65551337Y-72302669D01*
X69153119Y-74968615D02*
X65204040Y-74272284D01*
D12*
X63998816Y-74110542D02*
X63593236Y-73531314D01*
X63998816Y-74110542D02*
X63356317Y-77754331D01*
X63356317Y-77754331D02*
X62777089Y-78159910D01*
X62777089Y-78159910D02*
X58591656Y-77421906D01*
X60540332Y-72993005D02*
X63593236Y-73531314D01*
X58591656Y-77421906D02*
X58186077Y-76842678D01*
X55414690Y-69956820D02*
X58836897Y-70560247D01*
X54598543Y-74585416D02*
X56863409Y-74984773D01*
X54294358Y-74150995D02*
X54980269Y-70261005D01*
%TO.C,S_MAT_20*%
X34654159Y-100535290D02*
G75*
G02*
X32929159Y-98810290I1J1725001D01*
G01*
X32554159Y-98435290D02*
G75*
G02*
X32929159Y-98810290I0J-375000D01*
G01*
X31378964Y-103135290D02*
G75*
G02*
X33004158Y-104735290I25000J-1599999D01*
G01*
X29079159Y-103135290D02*
G75*
G02*
X28704159Y-102760290I0J375000D01*
G01*
X28704159Y-98810290D02*
G75*
G02*
X29079159Y-98435290I375000J0D01*
G01*
D11*
X43479160Y-100985290D02*
X39469160Y-100985290D01*
X43479160Y-98985290D02*
X43479160Y-100985290D01*
X43479160Y-98985290D02*
X39469160Y-98985290D01*
D12*
X38254159Y-104735290D02*
X37754159Y-105235290D01*
X38254159Y-101035290D02*
X38254159Y-104735290D01*
X38254159Y-101035290D02*
X37754159Y-100535290D01*
X37754159Y-105235290D02*
X33504159Y-105235290D01*
X34654159Y-100535290D02*
X37754159Y-100535290D01*
X33504159Y-105235290D02*
X33004159Y-104735290D01*
X29079159Y-103135290D02*
X31378964Y-103135290D01*
X29079159Y-98435290D02*
X32554159Y-98435290D01*
X28704159Y-102760290D02*
X28704159Y-98810290D01*
%TO.C,S_MAT_01*%
X63492351Y-56251273D02*
G75*
G02*
X62093101Y-54252936I299544J1698794D01*
G01*
X61788916Y-53818515D02*
G75*
G02*
X62093101Y-54252936I-65118J-369303D01*
G01*
X59815428Y-58243041D02*
G75*
G02*
X61138095Y-60100946I-253217J-1580033D01*
G01*
X57932288Y-53519273D02*
G75*
G02*
X58366709Y-53215088I369303J-65118D01*
G01*
X57550562Y-57843684D02*
G75*
G02*
X57246377Y-57409263I65118J369303D01*
G01*
D11*
X72452435Y-56257266D02*
X72105138Y-58226883D01*
X72452435Y-56257266D02*
X68503356Y-55560937D01*
X72105138Y-58226883D02*
X68156059Y-57530552D01*
D12*
X66950835Y-57368810D02*
X66545255Y-56789582D01*
X66950835Y-57368810D02*
X66308336Y-61012599D01*
X66308336Y-61012599D02*
X65729108Y-61418178D01*
X65729108Y-61418178D02*
X61543675Y-60680174D01*
X63492351Y-56251273D02*
X66545255Y-56789582D01*
X61543675Y-60680174D02*
X61138096Y-60100946D01*
X58366709Y-53215088D02*
X61788916Y-53818515D01*
X57550562Y-57843684D02*
X59815428Y-58243041D01*
X57246377Y-57409263D02*
X57932288Y-53519273D01*
%TO.C,S_MAT_10*%
X34654159Y-83535289D02*
G75*
G02*
X32929159Y-81810289I1J1725001D01*
G01*
X32554159Y-81435289D02*
G75*
G02*
X32929159Y-81810289I0J-375000D01*
G01*
X31378964Y-86135289D02*
G75*
G02*
X33004158Y-87735289I25000J-1599999D01*
G01*
X29079159Y-86135289D02*
G75*
G02*
X28704159Y-85760289I0J375000D01*
G01*
X28704159Y-81810289D02*
G75*
G02*
X29079159Y-81435289I375000J0D01*
G01*
D11*
X43479160Y-83985289D02*
X39469160Y-83985289D01*
X43479160Y-81985289D02*
X43479160Y-83985289D01*
X43479160Y-81985289D02*
X39469160Y-81985289D01*
D12*
X38254159Y-87735289D02*
X37754159Y-88235289D01*
X38254159Y-84035289D02*
X38254159Y-87735289D01*
X38254159Y-84035289D02*
X37754159Y-83535289D01*
X37754159Y-88235289D02*
X33504159Y-88235289D01*
X34654159Y-83535289D02*
X37754159Y-83535289D01*
X33504159Y-88235289D02*
X33004159Y-87735289D01*
X29079159Y-86135289D02*
X31378964Y-86135289D01*
X29079159Y-81435289D02*
X32554159Y-81435289D01*
X28704159Y-85760289D02*
X28704159Y-81810289D01*
%TO.C,S_MAT_25*%
X125723755Y-130863950D02*
G75*
G02*
X125300137Y-128461493I989421J1413038D01*
G01*
X125208046Y-127939220D02*
G75*
G02*
X125300137Y-128461493I-215091J-307182D01*
G01*
X121839220Y-126038133D02*
G75*
G02*
X122361493Y-125946042I307182J-215091D01*
G01*
X121549574Y-131115171D02*
G75*
G02*
X121963132Y-133357986I-897243J-1324981D01*
G01*
X119665684Y-129796057D02*
G75*
G02*
X119573593Y-129273783I215091J307182D01*
G01*
D11*
X133841816Y-134656077D02*
X132694663Y-136294381D01*
X133841816Y-134656077D02*
X130557017Y-132356035D01*
X132694663Y-136294381D02*
X129409865Y-133994340D01*
D12*
X128385914Y-133338401D02*
X128263127Y-132642037D01*
X128385914Y-133338401D02*
X126263682Y-136369264D01*
X126263682Y-136369264D02*
X125567317Y-136492052D01*
X125723755Y-130863950D02*
X128263127Y-132642037D01*
X125567317Y-136492052D02*
X122085921Y-134054352D01*
X122361493Y-125946042D02*
X125208046Y-127939220D01*
X122085921Y-134054352D02*
X121963133Y-133357987D01*
X119665684Y-129796057D02*
X121549574Y-131115171D01*
X119573593Y-129273783D02*
X121839220Y-126038133D01*
%TO.C,S_MAT_02*%
X88497112Y-57421389D02*
G75*
G02*
X87277353Y-55308707I446462J1666221D01*
G01*
X87012187Y-54849426D02*
G75*
G02*
X87277351Y-55308707I-97057J-362222D01*
G01*
X84660587Y-59085115D02*
G75*
G02*
X85816294Y-61051227I-389962J-1551951D01*
G01*
X83196316Y-54215195D02*
G75*
G02*
X83655595Y-53950030I362222J-97057D01*
G01*
X82439146Y-58489881D02*
G75*
G02*
X82173981Y-58030602I97057J362222D01*
G01*
D11*
X97422578Y-58208284D02*
X96904939Y-60140135D01*
X97422578Y-58208284D02*
X93549215Y-57170419D01*
X96904939Y-60140135D02*
X93031577Y-59102271D01*
D12*
X91845035Y-58836102D02*
X91491482Y-58223729D01*
X91845035Y-58836102D02*
X90887405Y-62410027D01*
X90887405Y-62410027D02*
X90275032Y-62763581D01*
X90275032Y-62763581D02*
X86169847Y-61663600D01*
X88497112Y-57421389D02*
X91491482Y-58223729D01*
X86169847Y-61663600D02*
X85816294Y-61051227D01*
X83655595Y-53950030D02*
X87012187Y-54849426D01*
X82439146Y-58489881D02*
X84660587Y-59085115D01*
X82173981Y-58030602D02*
X83196316Y-54215195D01*
%TO.C,FB_USB_01*%
D11*
X152579537Y-62045289D02*
X153378781Y-62045289D01*
X152579537Y-60925289D02*
X153378781Y-60925289D01*
%TO.C,S_MAT_33*%
D12*
X91647341Y-115433606D02*
G75*
G02*
X90427582Y-113320924I446462J1666221D01*
G01*
X90162416Y-112861643D02*
G75*
G02*
X90427580Y-113320924I-97057J-362222D01*
G01*
X87810816Y-117097332D02*
G75*
G02*
X88966523Y-119063444I-389962J-1551951D01*
G01*
X86346545Y-112227412D02*
G75*
G02*
X86805824Y-111962247I362222J-97057D01*
G01*
X85589375Y-116502098D02*
G75*
G02*
X85324210Y-116042819I97057J362222D01*
G01*
D11*
X100572807Y-116220501D02*
X100055168Y-118152352D01*
X100572807Y-116220501D02*
X96699444Y-115182636D01*
X100055168Y-118152352D02*
X96181806Y-117114488D01*
D12*
X94995264Y-116848319D02*
X94641711Y-116235946D01*
X94995264Y-116848319D02*
X94037634Y-120422244D01*
X94037634Y-120422244D02*
X93425261Y-120775798D01*
X93425261Y-120775798D02*
X89320076Y-119675817D01*
X91647341Y-115433606D02*
X94641711Y-116235946D01*
X89320076Y-119675817D02*
X88966523Y-119063444D01*
X86805824Y-111962247D02*
X90162416Y-112861643D01*
X85589375Y-116502098D02*
X87810816Y-117097332D01*
X85324210Y-116042819D02*
X86346545Y-112227412D01*
%TO.C,S_MAT_35*%
X140282013Y-142758602D02*
G75*
G02*
X140282013Y-140319083I1219762J1219759D01*
G01*
X140282013Y-139788753D02*
G75*
G02*
X140282013Y-140319083I-265165J-265165D01*
G01*
X137294487Y-137331557D02*
G75*
G02*
X137824817Y-137331557I265165J-265165D01*
G01*
X136127623Y-142281167D02*
G75*
G02*
X136145438Y-144561723I-1113692J-1149047D01*
G01*
X134501416Y-140654959D02*
G75*
G02*
X134501416Y-140124629I265165J265165D01*
G01*
D11*
X147618247Y-147902804D02*
X146204033Y-149317018D01*
X147618247Y-147902804D02*
X144782749Y-145067306D01*
X146204033Y-149317018D02*
X143368535Y-146481519D01*
D12*
X142474044Y-145657739D02*
X142474044Y-144950633D01*
X142474044Y-145657739D02*
X139857749Y-148274034D01*
X140282013Y-142758602D02*
X142474044Y-144950633D01*
X139857749Y-148274034D02*
X139150643Y-148274034D01*
X139150643Y-148274034D02*
X136145439Y-145268831D01*
X137824817Y-137331557D02*
X140282013Y-139788753D01*
X136145439Y-145268831D02*
X136145439Y-144561724D01*
X134501416Y-140654959D02*
X136127623Y-142281167D01*
X134501416Y-140124629D02*
X137294487Y-137331557D01*
%TO.C,S_MAT_31*%
X54599364Y-106469954D02*
G75*
G02*
X53200114Y-104471617I299544J1698794D01*
G01*
X52895929Y-104037196D02*
G75*
G02*
X53200114Y-104471617I-65118J-369303D01*
G01*
X50922441Y-108461722D02*
G75*
G02*
X52245108Y-110319627I-253217J-1580033D01*
G01*
X49039301Y-103737954D02*
G75*
G02*
X49473722Y-103433769I369303J-65118D01*
G01*
X48657575Y-108062365D02*
G75*
G02*
X48353390Y-107627944I65118J369303D01*
G01*
D11*
X63559448Y-106475947D02*
X63212151Y-108445564D01*
X63559448Y-106475947D02*
X59610369Y-105779618D01*
X63212151Y-108445564D02*
X59263072Y-107749233D01*
D12*
X58057848Y-107587491D02*
X57652268Y-107008263D01*
X58057848Y-107587491D02*
X57415349Y-111231280D01*
X57415349Y-111231280D02*
X56836121Y-111636859D01*
X56836121Y-111636859D02*
X52650688Y-110898855D01*
X54599364Y-106469954D02*
X57652268Y-107008263D01*
X52650688Y-110898855D02*
X52245109Y-110319627D01*
X49473722Y-103433769D02*
X52895929Y-104037196D01*
X48657575Y-108062365D02*
X50922441Y-108461722D01*
X48353390Y-107627944D02*
X49039301Y-103737954D01*
%TO.C,S_MAT_13*%
X100447188Y-82592128D02*
G75*
G02*
X99227429Y-80479446I446462J1666221D01*
G01*
X98962263Y-80020165D02*
G75*
G02*
X99227427Y-80479446I-97057J-362222D01*
G01*
X96610663Y-84255854D02*
G75*
G02*
X97766370Y-86221966I-389962J-1551951D01*
G01*
X95146392Y-79385934D02*
G75*
G02*
X95605671Y-79120769I362222J-97057D01*
G01*
X94389222Y-83660620D02*
G75*
G02*
X94124057Y-83201341I97057J362222D01*
G01*
D11*
X109372654Y-83379023D02*
X108855015Y-85310874D01*
X109372654Y-83379023D02*
X105499291Y-82341158D01*
X108855015Y-85310874D02*
X104981653Y-84273010D01*
D12*
X103795111Y-84006841D02*
X103441558Y-83394468D01*
X103795111Y-84006841D02*
X102837481Y-87580766D01*
X102837481Y-87580766D02*
X102225108Y-87934320D01*
X102225108Y-87934320D02*
X98119923Y-86834339D01*
X100447188Y-82592128D02*
X103441558Y-83394468D01*
X98119923Y-86834339D02*
X97766370Y-86221966D01*
X95605671Y-79120769D02*
X98962263Y-80020165D01*
X94389222Y-83660620D02*
X96610663Y-84255854D01*
X94124057Y-83201341D02*
X95146392Y-79385934D01*
%TO.C,S_MAT_21*%
X57588312Y-89734735D02*
G75*
G02*
X56189062Y-87736398I299544J1698794D01*
G01*
X55884877Y-87301977D02*
G75*
G02*
X56189062Y-87736398I-65118J-369303D01*
G01*
X53911389Y-91726503D02*
G75*
G02*
X55234056Y-93584408I-253217J-1580033D01*
G01*
X52028249Y-87002735D02*
G75*
G02*
X52462670Y-86698550I369303J-65118D01*
G01*
X51646523Y-91327146D02*
G75*
G02*
X51342338Y-90892725I65118J369303D01*
G01*
D11*
X66548396Y-89740728D02*
X66201099Y-91710345D01*
X66548396Y-89740728D02*
X62599317Y-89044399D01*
X66201099Y-91710345D02*
X62252020Y-91014014D01*
D12*
X61046796Y-90852272D02*
X60641216Y-90273044D01*
X61046796Y-90852272D02*
X60404297Y-94496061D01*
X60404297Y-94496061D02*
X59825069Y-94901640D01*
X59825069Y-94901640D02*
X55639636Y-94163636D01*
X57588312Y-89734735D02*
X60641216Y-90273044D01*
X55639636Y-94163636D02*
X55234057Y-93584408D01*
X52462670Y-86698550D02*
X55884877Y-87301977D01*
X51646523Y-91327146D02*
X53911389Y-91726503D01*
X51342338Y-90892725D02*
X52028249Y-87002735D01*
%TO.C,S_MAT_12*%
X84097188Y-73842128D02*
G75*
G02*
X82877429Y-71729446I446462J1666221D01*
G01*
X82612263Y-71270165D02*
G75*
G02*
X82877427Y-71729446I-97057J-362222D01*
G01*
X80260663Y-75505854D02*
G75*
G02*
X81416370Y-77471966I-389962J-1551951D01*
G01*
X78796392Y-70635934D02*
G75*
G02*
X79255671Y-70370769I362222J-97057D01*
G01*
X78039222Y-74910620D02*
G75*
G02*
X77774057Y-74451341I97057J362222D01*
G01*
D11*
X93022654Y-74629023D02*
X92505015Y-76560874D01*
X93022654Y-74629023D02*
X89149291Y-73591158D01*
X92505015Y-76560874D02*
X88631653Y-75523010D01*
D12*
X87445111Y-75256841D02*
X87091558Y-74644468D01*
X87445111Y-75256841D02*
X86487481Y-78830766D01*
X86487481Y-78830766D02*
X85875108Y-79184320D01*
X85875108Y-79184320D02*
X81769923Y-78084339D01*
X84097188Y-73842128D02*
X87091558Y-74644468D01*
X81769923Y-78084339D02*
X81416370Y-77471966D01*
X79255671Y-70370769D02*
X82612263Y-71270165D01*
X78039222Y-74910620D02*
X80260663Y-75505854D01*
X77774057Y-74451341D02*
X78796392Y-70635934D01*
%TO.C,S_MAT_24*%
X113347265Y-103712867D02*
G75*
G02*
X112127506Y-101600185I446462J1666221D01*
G01*
X111862340Y-101140904D02*
G75*
G02*
X112127504Y-101600185I-97057J-362222D01*
G01*
X109510740Y-105376593D02*
G75*
G02*
X110666447Y-107342705I-389962J-1551951D01*
G01*
X108046469Y-100506673D02*
G75*
G02*
X108505748Y-100241508I362222J-97057D01*
G01*
X107289299Y-104781359D02*
G75*
G02*
X107024134Y-104322080I97057J362222D01*
G01*
D11*
X122272731Y-104499762D02*
X121755092Y-106431613D01*
X122272731Y-104499762D02*
X118399368Y-103461897D01*
X121755092Y-106431613D02*
X117881730Y-105393749D01*
D12*
X116695188Y-105127580D02*
X116341635Y-104515207D01*
X116695188Y-105127580D02*
X115737558Y-108701505D01*
X115737558Y-108701505D02*
X115125185Y-109055059D01*
X115125185Y-109055059D02*
X111020000Y-107955078D01*
X113347265Y-103712867D02*
X116341635Y-104515207D01*
X111020000Y-107955078D02*
X110666447Y-107342705D01*
X108505748Y-100241508D02*
X111862340Y-101140904D01*
X107289299Y-104781359D02*
X109510740Y-105376593D01*
X107024134Y-104322080D02*
X108046469Y-100506673D01*
%TO.C,S_MAT_34*%
X109303594Y-121699774D02*
G75*
G02*
X108469231Y-119407377I729019J1563381D01*
G01*
X108287847Y-118909030D02*
G75*
G02*
X108469231Y-119407377I-158481J-339865D01*
G01*
X105236453Y-122672017D02*
G75*
G02*
X106033190Y-124808947I-653531J-1460657D01*
G01*
X104640081Y-117621815D02*
G75*
G02*
X105138428Y-117440432I339865J-158482D01*
G01*
X103152122Y-121700078D02*
G75*
G02*
X102970737Y-121201732I158482J339866D01*
G01*
D11*
X117956821Y-124024604D02*
X117111584Y-125837220D01*
X117956821Y-124024604D02*
X114322527Y-122329905D01*
X117111584Y-125837220D02*
X113477290Y-124142520D01*
D12*
X112354994Y-123674354D02*
X112113149Y-123009891D01*
X112354994Y-123674354D02*
X110791307Y-127027693D01*
X110791307Y-127027693D02*
X110126844Y-127269538D01*
X110126844Y-127269538D02*
X106275036Y-125473410D01*
X109303594Y-121699774D02*
X112113149Y-123009891D01*
X106275036Y-125473410D02*
X106033191Y-124808947D01*
X105138428Y-117440431D02*
X108287847Y-118909030D01*
X103152122Y-121700078D02*
X105236453Y-122672017D01*
X102970738Y-121201732D02*
X104640081Y-117621815D01*
%TO.C,S_MAT_04*%
X122147112Y-70871389D02*
G75*
G02*
X120927353Y-68758707I446462J1666221D01*
G01*
X120662187Y-68299426D02*
G75*
G02*
X120927351Y-68758707I-97057J-362222D01*
G01*
X118310587Y-72535115D02*
G75*
G02*
X119466294Y-74501227I-389962J-1551951D01*
G01*
X116846316Y-67665195D02*
G75*
G02*
X117305595Y-67400030I362222J-97057D01*
G01*
X116089146Y-71939881D02*
G75*
G02*
X115823981Y-71480602I97057J362222D01*
G01*
D11*
X131072578Y-71658284D02*
X130554939Y-73590135D01*
X131072578Y-71658284D02*
X127199215Y-70620419D01*
X130554939Y-73590135D02*
X126681577Y-72552271D01*
D12*
X125495035Y-72286102D02*
X125141482Y-71673729D01*
X125495035Y-72286102D02*
X124537405Y-75860027D01*
X124537405Y-75860027D02*
X123925032Y-76213581D01*
X123925032Y-76213581D02*
X119819847Y-75113600D01*
X122147112Y-70871389D02*
X125141482Y-71673729D01*
X119819847Y-75113600D02*
X119466294Y-74501227D01*
X117305595Y-67400030D02*
X120662187Y-68299426D01*
X116089146Y-71939881D02*
X118310587Y-72535115D01*
X115823981Y-71480602D02*
X116846316Y-67665195D01*
%TO.C,S_MAT_14*%
X117747188Y-87292128D02*
G75*
G02*
X116527429Y-85179446I446462J1666221D01*
G01*
X116262263Y-84720165D02*
G75*
G02*
X116527427Y-85179446I-97057J-362222D01*
G01*
X113910663Y-88955854D02*
G75*
G02*
X115066370Y-90921966I-389962J-1551951D01*
G01*
X112446392Y-84085934D02*
G75*
G02*
X112905671Y-83820769I362222J-97057D01*
G01*
X111689222Y-88360620D02*
G75*
G02*
X111424057Y-87901341I97057J362222D01*
G01*
D11*
X126672654Y-88079023D02*
X126155015Y-90010874D01*
X126672654Y-88079023D02*
X122799291Y-87041158D01*
X126155015Y-90010874D02*
X122281653Y-88973010D01*
D12*
X121095111Y-88706841D02*
X120741558Y-88094468D01*
X121095111Y-88706841D02*
X120137481Y-92280766D01*
X120137481Y-92280766D02*
X119525108Y-92634320D01*
X119525108Y-92634320D02*
X115419923Y-91534339D01*
X117747188Y-87292128D02*
X120741558Y-88094468D01*
X115419923Y-91534339D02*
X115066370Y-90921966D01*
X112905671Y-83820769D02*
X116262263Y-84720165D01*
X111689222Y-88360620D02*
X113910663Y-88955854D01*
X111424057Y-87901341D02*
X112446392Y-84085934D01*
%TD*%
M02*
