  0
SECTION
  2
BLOCKS
  0
ENDSEC
  0
SECTION
  2
ENTITIES
  0
LINE
  8
0
 10
-59.4351
 20
-32.3878
 11
-59.3355
 21
-32.3836
  0
LINE
  8
0
 10
-59.3355
 20
-32.3836
 11
-59.236
 21
-32.3761
  0
LINE
  8
0
 10
-59.236
 20
-32.3761
 11
-59.1369
 21
-32.3653
  0
LINE
  8
0
 10
-59.1369
 20
-32.3653
 11
-59.0382
 21
-32.3512
  0
LINE
  8
0
 10
-59.0382
 20
-32.3512
 11
-58.94
 21
-32.3339
  0
LINE
  8
0
 10
-58.94
 20
-32.3339
 11
-58.8424
 21
-32.3133
  0
LINE
  8
0
 10
-58.8424
 20
-32.3133
 11
-58.7455
 21
-32.2894
  0
LINE
  8
0
 10
-58.7455
 20
-32.2894
 11
-58.6496
 21
-32.2624
  0
LINE
  8
0
 10
-58.6496
 20
-32.2624
 11
-58.5545
 21
-32.2321
  0
LINE
  8
0
 10
-58.5545
 20
-32.2321
 11
-58.4605
 21
-32.1988
  0
LINE
  8
0
 10
-58.4605
 20
-32.1988
 11
-58.3677
 21
-32.1623
  0
LINE
  8
0
 10
-58.3677
 20
-32.1623
 11
-58.2762
 21
-32.1228
  0
LINE
  8
0
 10
-58.2762
 20
-32.1228
 11
-58.186
 21
-32.0802
  0
LINE
  8
0
 10
-58.186
 20
-32.0802
 11
-58.0973
 21
-32.0347
  0
LINE
  8
0
 10
-58.0973
 20
-32.0347
 11
-58.0112
 21
-31.9868
  0
LINE
  8
0
 10
-58.0112
 20
-31.9868
 11
-56.2942
 21
-30.9955
  0
LINE
  8
0
 10
-56.2942
 20
-30.9955
 11
-66.2942
 21
-13.675
  0
LINE
  8
0
 10
-66.2942
 20
-13.675
 11
-66.3186
 21
-13.6315
  0
LINE
  8
0
 10
-66.3186
 20
-13.6315
 11
-66.3641
 21
-13.5428
  0
LINE
  8
0
 10
-66.3641
 20
-13.5428
 11
-66.4051
 21
-13.4519
  0
LINE
  8
0
 10
-66.4051
 20
-13.4519
 11
-66.4416
 21
-13.359
  0
LINE
  8
0
 10
-66.4416
 20
-13.359
 11
-66.4733
 21
-13.2645
  0
LINE
  8
0
 10
-66.4733
 20
-13.2645
 11
-66.5003
 21
-13.1685
  0
LINE
  8
0
 10
-66.5003
 20
-13.1685
 11
-66.5225
 21
-13.0713
  0
LINE
  8
0
 10
-66.5225
 20
-13.0713
 11
-66.5398
 21
-12.9731
  0
LINE
  8
0
 10
-66.5398
 20
-12.9731
 11
-66.5522
 21
-12.8741
  0
LINE
  8
0
 10
-66.5522
 20
-12.8741
 11
-66.5597
 21
-12.7747
  0
LINE
  8
0
 10
-66.5597
 20
-12.7747
 11
-66.5622
 21
-12.675
  0
LINE
  8
0
 10
-66.5622
 20
-12.675
 11
-66.5597
 21
-12.5753
  0
LINE
  8
0
 10
-66.5597
 20
-12.5753
 11
-66.5522
 21
-12.4759
  0
LINE
  8
0
 10
-66.5522
 20
-12.4759
 11
-66.5398
 21
-12.3769
  0
LINE
  8
0
 10
-66.5398
 20
-12.3769
 11
-66.5225
 21
-12.2787
  0
LINE
  8
0
 10
-66.5225
 20
-12.2787
 11
-66.5003
 21
-12.1815
  0
LINE
  8
0
 10
-66.5003
 20
-12.1815
 11
-66.4733
 21
-12.0855
  0
LINE
  8
0
 10
-66.4733
 20
-12.0855
 11
-66.4416
 21
-11.991
  0
LINE
  8
0
 10
-66.4416
 20
-11.991
 11
-66.4051
 21
-11.8981
  0
LINE
  8
0
 10
-66.4051
 20
-11.8981
 11
-66.3641
 21
-11.8072
  0
LINE
  8
0
 10
-66.3641
 20
-11.8072
 11
-66.3186
 21
-11.7185
  0
LINE
  8
0
 10
-66.3186
 20
-11.7185
 11
-66.2688
 21
-11.6321
  0
LINE
  8
0
 10
-66.2688
 20
-11.6321
 11
-66.2147
 21
-11.5484
  0
LINE
  8
0
 10
-66.2147
 20
-11.5484
 11
-66.1564
 21
-11.4674
  0
LINE
  8
0
 10
-66.1564
 20
-11.4674
 11
-66.0943
 21
-11.3894
  0
LINE
  8
0
 10
-66.0943
 20
-11.3894
 11
-66.0283
 21
-11.3147
  0
LINE
  8
0
 10
-66.0283
 20
-11.3147
 11
-65.9586
 21
-11.2433
  0
LINE
  8
0
 10
-65.9586
 20
-11.2433
 11
-65.8855
 21
-11.1754
  0
LINE
  8
0
 10
-65.8855
 20
-11.1754
 11
-65.8092
 21
-11.1113
  0
LINE
  8
0
 10
-65.8092
 20
-11.1113
 11
-65.7297
 21
-11.0511
  0
LINE
  8
0
 10
-65.7297
 20
-11.0511
 11
-65.6473
 21
-10.9949
  0
LINE
  8
0
 10
-65.6473
 20
-10.9949
 11
-65.5622
 21
-10.9429
  0
LINE
  8
0
 10
-65.5622
 20
-10.9429
 11
-51.7148
 21
-2.94815
  0
LINE
  8
0
 10
-51.7148
 20
-2.94815
 11
-51.6996
 21
-2.93948
  0
LINE
  8
0
 10
-51.6996
 20
-2.93948
 11
-51.4632
 21
-2.80573
  0
LINE
  8
0
 10
-51.4632
 20
-2.80573
 11
-51.4328
 21
-2.78886
  0
LINE
  8
0
 10
-51.4328
 20
-2.78886
 11
-51.2022
 21
-2.66367
  0
LINE
  8
0
 10
-51.2022
 20
-2.66367
 11
-51.1714
 21
-2.64728
  0
LINE
  8
0
 10
-51.1714
 20
-2.64728
 11
-50.9406
 21
-2.52713
  0
LINE
  8
0
 10
-50.9406
 20
-2.52713
 11
-50.9096
 21
-2.51132
  0
LINE
  8
0
 10
-50.9096
 20
-2.51132
 11
-50.8075
 21
-2.46039
  0
LINE
  8
0
 10
-50.8075
 20
-2.46039
 11
-50.7221
 21
-2.41588
  0
LINE
  8
0
 10
-50.7221
 20
-2.41588
 11
-50.6838
 21
-2.39439
  0
LINE
  8
0
 10
-50.6838
 20
-2.39439
 11
-50.6405
 21
-2.3687
  0
LINE
  8
0
 10
-50.6405
 20
-2.3687
 11
-50.5987
 21
-2.34241
  0
LINE
  8
0
 10
-50.5987
 20
-2.34241
 11
-50.5568
 21
-2.31459
  0
LINE
  8
0
 10
-50.5568
 20
-2.31459
 11
-50.5164
 21
-2.2863
  0
LINE
  8
0
 10
-50.5164
 20
-2.2863
 11
-50.4761
 21
-2.25656
  0
LINE
  8
0
 10
-50.4761
 20
-2.25656
 11
-50.4368
 21
-2.22604
  0
LINE
  8
0
 10
-50.4368
 20
-2.22604
 11
-50.3977
 21
-2.19408
  0
LINE
  8
0
 10
-50.3977
 20
-2.19408
 11
-50.3603
 21
-2.16188
  0
LINE
  8
0
 10
-50.3603
 20
-2.16188
 11
-50.3234
 21
-2.12848
  0
LINE
  8
0
 10
-50.3234
 20
-2.12848
 11
-50.2872
 21
-2.09401
  0
LINE
  8
0
 10
-50.2872
 20
-2.09401
 11
-50.252
 21
-2.05878
  0
LINE
  8
0
 10
-50.252
 20
-2.05878
 11
-50.2175
 21
-2.02254
  0
LINE
  8
0
 10
-50.2175
 20
-2.02254
 11
-50.1841
 21
-1.98564
  0
LINE
  8
0
 10
-50.1841
 20
-1.98564
 11
-50.1519
 21
-1.94823
  0
LINE
  8
0
 10
-50.1519
 20
-1.94823
 11
-50.1199
 21
-1.90909
  0
LINE
  8
0
 10
-50.1199
 20
-1.90909
 11
-50.0892
 21
-1.8696
  0
LINE
  8
0
 10
-50.0892
 20
-1.8696
 11
-50.0599
 21
-1.82993
  0
LINE
  8
0
 10
-50.0599
 20
-1.82993
 11
-50.0314
 21
-1.78918
  0
LINE
  8
0
 10
-50.0314
 20
-1.78918
 11
-50.0036
 21
-1.74728
  0
LINE
  8
0
 10
-50.0036
 20
-1.74728
 11
-49.9773
 21
-1.70541
  0
LINE
  8
0
 10
-49.9773
 20
-1.70541
 11
-49.9516
 21
-1.66225
  0
LINE
  8
0
 10
-49.9516
 20
-1.66225
 11
-49.9272
 21
-1.61879
  0
LINE
  8
0
 10
-49.9272
 20
-1.61879
 11
-49.9037
 21
-1.57426
  0
LINE
  8
0
 10
-49.9037
 20
-1.57426
 11
-49.8821
 21
-1.53073
  0
LINE
  8
0
 10
-49.8821
 20
-1.53073
 11
-49.8607
 21
-1.48502
  0
LINE
  8
0
 10
-49.8607
 20
-1.48502
 11
-49.8407
 21
-1.43903
  0
LINE
  8
0
 10
-49.8407
 20
-1.43903
 11
-49.8219
 21
-1.3929
  0
LINE
  8
0
 10
-49.8219
 20
-1.3929
 11
-49.8044
 21
-1.34668
  0
LINE
  8
0
 10
-49.8044
 20
-1.34668
 11
-49.7878
 21
-1.29919
  0
LINE
  8
0
 10
-49.7878
 20
-1.29919
 11
-49.7725
 21
-1.25154
  0
LINE
  8
0
 10
-49.7725
 20
-1.25154
 11
-49.7586
 21
-1.20441
  0
LINE
  8
0
 10
-49.7586
 20
-1.20441
 11
-49.7454
 21
-1.1553
  0
LINE
  8
0
 10
-49.7454
 20
-1.1553
 11
-49.7339
 21
-1.10765
  0
LINE
  8
0
 10
-49.7339
 20
-1.10765
 11
-49.7234
 21
-1.05873
  0
LINE
  8
0
 10
-49.7234
 20
-1.05873
 11
-49.7142
 21
-1.0101
  0
LINE
  8
0
 10
-49.7142
 20
-1.0101
 11
-49.706
 21
-0.960144
  0
LINE
  8
0
 10
-49.706
 20
-0.960144
 11
-49.6992
 21
-0.911194
  0
LINE
  8
0
 10
-49.6992
 20
-0.911194
 11
-49.6937
 21
-0.861786
  0
LINE
  8
0
 10
-49.6937
 20
-0.861786
 11
-49.6893
 21
-0.811798
  0
LINE
  8
0
 10
-49.6893
 20
-0.811798
 11
-49.6862
 21
-0.761856
  0
LINE
  8
0
 10
-49.6862
 20
-0.761856
 11
-49.6843
 21
-0.712204
  0
LINE
  8
0
 10
-49.6843
 20
-0.712204
 11
-49.6837
 21
-0.662399
  0
LINE
  8
0
 10
-49.6837
 20
-0.662399
 11
-49.6843
 21
-0.612595
  0
LINE
  8
0
 10
-49.6843
 20
-0.612595
 11
-49.6862
 21
-0.562943
  0
LINE
  8
0
 10
-49.6862
 20
-0.562943
 11
-49.6893
 21
-0.513
  0
LINE
  8
0
 10
-49.6893
 20
-0.513
 11
-49.6937
 21
-0.46315
  0
LINE
  8
0
 10
-49.6937
 20
-0.46315
 11
-49.6993
 21
-0.413345
  0
LINE
  8
0
 10
-49.6993
 20
-0.413345
 11
-49.706
 21
-0.364594
  0
LINE
  8
0
 10
-49.706
 20
-0.364594
 11
-49.7141
 21
-0.315018
  0
LINE
  8
0
 10
-49.7141
 20
-0.315018
 11
-49.7233
 21
-0.266312
  0
LINE
  8
0
 10
-49.7233
 20
-0.266312
 11
-49.7339
 21
-0.217377
  0
LINE
  8
0
 10
-49.7339
 20
-0.217377
 11
-49.7455
 21
-0.169022
  0
LINE
  8
0
 10
-49.7455
 20
-0.169022
 11
-49.7586
 21
-0.120392
  0
LINE
  8
0
 10
-49.7586
 20
-0.120392
 11
-49.7725
 21
-0.0732574
  0
LINE
  8
0
 10
-49.7725
 20
-0.0732574
 11
-49.7879
 21
-0.0254974
  0
LINE
  8
0
 10
-49.7879
 20
-0.0254974
 11
-49.8088
 21
0.0343018
  0
LINE
  8
0
 10
-49.8088
 20
0.0343018
 11
-54.2879
 21
12.3406
  0
LINE
  8
0
 10
-54.2879
 20
12.3406
 11
-54.3338
 21
12.483
  0
LINE
  8
0
 10
-54.3338
 20
12.483
 11
-54.3584
 21
12.5796
  0
LINE
  8
0
 10
-54.3584
 20
12.5796
 11
-54.3781
 21
12.6774
  0
LINE
  8
0
 10
-54.3781
 20
12.6774
 11
-54.393
 21
12.776
  0
LINE
  8
0
 10
-54.393
 20
12.776
 11
-54.4029
 21
12.8752
  0
LINE
  8
0
 10
-54.4029
 20
12.8752
 11
-54.4079
 21
12.9748
  0
LINE
  8
0
 10
-54.4079
 20
12.9748
 11
-54.4079
 21
13.0745
  0
LINE
  8
0
 10
-54.4079
 20
13.0745
 11
-54.4029
 21
13.1741
  0
LINE
  8
0
 10
-54.4029
 20
13.1741
 11
-54.393
 21
13.2733
  0
LINE
  8
0
 10
-54.393
 20
13.2733
 11
-54.3781
 21
13.3719
  0
LINE
  8
0
 10
-54.3781
 20
13.3719
 11
-54.3584
 21
13.4697
  0
LINE
  8
0
 10
-54.3584
 20
13.4697
 11
-54.3338
 21
13.5663
  0
LINE
  8
0
 10
-54.3338
 20
13.5663
 11
-54.3044
 21
13.6616
  0
LINE
  8
0
 10
-54.3044
 20
13.6616
 11
-54.2703
 21
13.7553
  0
LINE
  8
0
 10
-54.2703
 20
13.7553
 11
-54.2315
 21
13.8472
  0
LINE
  8
0
 10
-54.2315
 20
13.8472
 11
-54.1883
 21
13.9371
  0
LINE
  8
0
 10
-54.1883
 20
13.9371
 11
-54.1406
 21
14.0246
  0
LINE
  8
0
 10
-54.1406
 20
14.0246
 11
-54.0886
 21
14.1097
  0
LINE
  8
0
 10
-54.0886
 20
14.1097
 11
-54.0324
 21
14.1921
  0
LINE
  8
0
 10
-54.0324
 20
14.1921
 11
-53.9722
 21
14.2716
  0
LINE
  8
0
 10
-53.9722
 20
14.2716
 11
-53.9081
 21
14.348
  0
LINE
  8
0
 10
-53.9081
 20
14.348
 11
-53.8403
 21
14.4211
  0
LINE
  8
0
 10
-53.8403
 20
14.4211
 11
-53.7689
 21
14.4908
  0
LINE
  8
0
 10
-53.7689
 20
14.4908
 11
-53.6941
 21
14.5567
  0
LINE
  8
0
 10
-53.6941
 20
14.5567
 11
-53.6161
 21
14.6189
  0
LINE
  8
0
 10
-53.6161
 20
14.6189
 11
-53.5352
 21
14.6771
  0
LINE
  8
0
 10
-53.5352
 20
14.6771
 11
-53.4514
 21
14.7312
  0
LINE
  8
0
 10
-53.4514
 20
14.7312
 11
-53.365
 21
14.7811
  0
LINE
  8
0
 10
-53.365
 20
14.7811
 11
-53.2763
 21
14.8266
  0
LINE
  8
0
 10
-53.2763
 20
14.8266
 11
-53.1854
 21
14.8676
  0
LINE
  8
0
 10
-53.1854
 20
14.8676
 11
-53.0926
 21
14.904
  0
LINE
  8
0
 10
-53.0926
 20
14.904
 11
-39.9369
 21
19.6923
  0
LINE
  8
0
 10
-39.9369
 20
19.6923
 11
-39.8898
 21
19.7088
  0
LINE
  8
0
 10
-39.8898
 20
19.7088
 11
-39.7945
 21
19.7382
  0
LINE
  8
0
 10
-39.7945
 20
19.7382
 11
-39.6979
 21
19.7628
  0
LINE
  8
0
 10
-39.6979
 20
19.7628
 11
-39.6001
 21
19.7825
  0
LINE
  8
0
 10
-39.6001
 20
19.7825
 11
-39.5015
 21
19.7974
  0
LINE
  8
0
 10
-39.5015
 20
19.7974
 11
-39.4023
 21
19.8073
  0
LINE
  8
0
 10
-39.4023
 20
19.8073
 11
-39.3027
 21
19.8123
  0
LINE
  8
0
 10
-39.3027
 20
19.8123
 11
-39.203
 21
19.8123
  0
LINE
  8
0
 10
-39.203
 20
19.8123
 11
-39.1034
 21
19.8073
  0
LINE
  8
0
 10
-39.1034
 20
19.8073
 11
-39.0042
 21
19.7974
  0
LINE
  8
0
 10
-39.0042
 20
19.7974
 11
-38.9055
 21
19.7825
  0
LINE
  8
0
 10
-38.9055
 20
19.7825
 11
-38.8078
 21
19.7628
  0
LINE
  8
0
 10
-38.8078
 20
19.7628
 11
-38.7112
 21
19.7382
  0
LINE
  8
0
 10
-38.7112
 20
19.7382
 11
-38.6159
 21
19.7088
  0
LINE
  8
0
 10
-38.6159
 20
19.7088
 11
-38.5222
 21
19.6747
  0
LINE
  8
0
 10
-38.5222
 20
19.6747
 11
-38.4303
 21
19.6359
  0
LINE
  8
0
 10
-38.4303
 20
19.6359
 11
-38.3404
 21
19.5927
  0
LINE
  8
0
 10
-38.3404
 20
19.5927
 11
-38.2528
 21
19.545
  0
LINE
  8
0
 10
-38.2528
 20
19.545
 11
-38.1677
 21
19.493
  0
LINE
  8
0
 10
-38.1677
 20
19.493
 11
-38.0853
 21
19.4368
  0
LINE
  8
0
 10
-38.0853
 20
19.4368
 11
-38.0059
 21
19.3766
  0
LINE
  8
0
 10
-38.0059
 20
19.3766
 11
-37.9295
 21
19.3125
  0
LINE
  8
0
 10
-37.9295
 20
19.3125
 11
-37.8564
 21
19.2447
  0
LINE
  8
0
 10
-37.8564
 20
19.2447
 11
-37.7867
 21
19.1733
  0
LINE
  8
0
 10
-37.7867
 20
19.1733
 11
-37.7207
 21
19.0985
  0
LINE
  8
0
 10
-37.7207
 20
19.0985
 11
-37.6586
 21
19.0205
  0
LINE
  8
0
 10
-37.6586
 20
19.0205
 11
-37.6004
 21
18.9396
  0
LINE
  8
0
 10
-37.6004
 20
18.9396
 11
-37.5462
 21
18.8558
  0
LINE
  8
0
 10
-37.5462
 20
18.8558
 11
-37.4964
 21
18.7694
  0
LINE
  8
0
 10
-37.4964
 20
18.7694
 11
-37.4509
 21
18.6807
  0
LINE
  8
0
 10
-37.4509
 20
18.6807
 11
-37.4099
 21
18.5898
  0
LINE
  8
0
 10
-37.4099
 20
18.5898
 11
-37.3735
 21
18.497
  0
LINE
  8
0
 10
-37.3735
 20
18.497
 11
-32.8946
 21
6.19131
  0
LINE
  8
0
 10
-32.8946
 20
6.19131
 11
-32.8783
 21
6.14789
  0
LINE
  8
0
 10
-32.8783
 20
6.14789
 11
-32.8587
 21
6.099
  0
LINE
  8
0
 10
-32.8587
 20
6.099
 11
-32.839
 21
6.05313
  0
LINE
  8
0
 10
-32.839
 20
6.05313
 11
-32.8183
 21
6.00804
  0
LINE
  8
0
 10
-32.8183
 20
6.00804
 11
-32.7962
 21
5.96297
  0
LINE
  8
0
 10
-32.7962
 20
5.96297
 11
-32.7733
 21
5.91907
  0
LINE
  8
0
 10
-32.7733
 20
5.91907
 11
-32.7489
 21
5.87509
  0
LINE
  8
0
 10
-32.7489
 20
5.87509
 11
-32.7238
 21
5.83237
  0
LINE
  8
0
 10
-32.7238
 20
5.83237
 11
-32.6976
 21
5.79001
  0
LINE
  8
0
 10
-32.6976
 20
5.79001
 11
-32.6703
 21
5.74843
  0
LINE
  8
0
 10
-32.6703
 20
5.74843
 11
-32.6418
 21
5.70721
  0
LINE
  8
0
 10
-32.6418
 20
5.70721
 11
-32.6124
 21
5.6669
  0
LINE
  8
0
 10
-32.6124
 20
5.6669
 11
-32.5821
 21
5.62759
  0
LINE
  8
0
 10
-32.5821
 20
5.62759
 11
-32.5504
 21
5.58841
  0
LINE
  8
0
 10
-32.5504
 20
5.58841
 11
-32.5182
 21
5.55058
  0
LINE
  8
0
 10
-32.5182
 20
5.55058
 11
-32.485
 21
5.51338
  0
LINE
  8
0
 10
-32.485
 20
5.51338
 11
-32.4512
 21
5.47752
  0
LINE
  8
0
 10
-32.4512
 20
5.47752
 11
-32.4158
 21
5.44174
  0
LINE
  8
0
 10
-32.4158
 20
5.44174
 11
-32.3801
 21
5.40735
  0
LINE
  8
0
 10
-32.3801
 20
5.40735
 11
-32.3427
 21
5.37318
  0
LINE
  8
0
 10
-32.3427
 20
5.37318
 11
-32.3058
 21
5.34105
  0
LINE
  8
0
 10
-32.3058
 20
5.34105
 11
-32.2669
 21
5.30887
  0
LINE
  8
0
 10
-32.2669
 20
5.30887
 11
-32.228
 21
5.27831
  0
LINE
  8
0
 10
-32.228
 20
5.27831
 11
-32.1881
 21
5.24849
  0
LINE
  8
0
 10
-32.1881
 20
5.24849
 11
-32.1471
 21
5.2195
  0
LINE
  8
0
 10
-32.1471
 20
5.2195
 11
-32.1057
 21
5.19167
  0
LINE
  8
0
 10
-32.1057
 20
5.19167
 11
-32.0642
 21
5.16525
  0
LINE
  8
0
 10
-32.0642
 20
5.16525
 11
-32.0209
 21
5.13922
  0
LINE
  8
0
 10
-32.0209
 20
5.13922
 11
-31.978
 21
5.11485
  0
LINE
  8
0
 10
-31.978
 20
5.11485
 11
-31.9334
 21
5.09099
  0
LINE
  8
0
 10
-31.9334
 20
5.09099
 11
-31.8895
 21
5.06888
  0
LINE
  8
0
 10
-31.8895
 20
5.06888
 11
-31.8437
 21
5.04721
  0
LINE
  8
0
 10
-31.8437
 20
5.04721
 11
-31.7986
 21
5.02724
  0
LINE
  8
0
 10
-31.7986
 20
5.02724
 11
-31.7525
 21
5.00819
  0
LINE
  8
0
 10
-31.7525
 20
5.00819
 11
-31.706
 21
4.99028
  0
LINE
  8
0
 10
-31.706
 20
4.99028
 11
-31.6591
 21
4.97359
  0
LINE
  8
0
 10
-31.6591
 20
4.97359
 11
-31.6116
 21
4.95801
  0
LINE
  8
0
 10
-31.6116
 20
4.95801
 11
-31.5636
 21
4.94357
  0
LINE
  8
0
 10
-31.5636
 20
4.94357
 11
-31.5158
 21
4.93048
  0
LINE
  8
0
 10
-31.5158
 20
4.93048
 11
-31.4676
 21
4.91858
  0
LINE
  8
0
 10
-31.4676
 20
4.91858
 11
-31.4184
 21
4.9077
  0
LINE
  8
0
 10
-31.4184
 20
4.9077
 11
-31.3696
 21
4.89819
  0
LINE
  8
0
 10
-31.3696
 20
4.89819
 11
-31.3204
 21
4.88988
  0
LINE
  8
0
 10
-31.3204
 20
4.88988
 11
-31.2713
 21
4.88283
  0
LINE
  8
0
 10
-31.2713
 20
4.88283
 11
-31.2216
 21
4.87695
  0
LINE
  8
0
 10
-31.2216
 20
4.87695
 11
-31.1725
 21
4.87239
  0
LINE
  8
0
 10
-31.1725
 20
4.87239
 11
-31.1222
 21
4.86897
  0
LINE
  8
0
 10
-31.1222
 20
4.86897
 11
-31.0723
 21
4.86682
  0
LINE
  8
0
 10
-31.0723
 20
4.86682
 11
-31.0228
 21
4.86594
  0
LINE
  8
0
 10
-31.0228
 20
4.86594
 11
-30.9728
 21
4.8663
  0
LINE
  8
0
 10
-30.9728
 20
4.8663
 11
-30.9229
 21
4.86789
  0
LINE
  8
0
 10
-30.9229
 20
4.86789
 11
-30.8731
 21
4.87073
  0
LINE
  8
0
 10
-30.8731
 20
4.87073
 11
-30.8234
 21
4.8748
  0
LINE
  8
0
 10
-30.8234
 20
4.8748
 11
-30.7738
 21
4.8801
  0
LINE
  8
0
 10
-30.7738
 20
4.8801
 11
-30.7243
 21
4.88666
  0
LINE
  8
0
 10
-30.7243
 20
4.88666
 11
-30.6754
 21
4.89439
  0
LINE
  8
0
 10
-30.6754
 20
4.89439
 11
-30.6263
 21
4.90341
  0
LINE
  8
0
 10
-30.6263
 20
4.90341
 11
-30.5774
 21
4.91364
  0
LINE
  8
0
 10
-30.5774
 20
4.91364
 11
-30.5333
 21
4.92403
  0
LINE
  8
0
 10
-30.5333
 20
4.92403
 11
-30.525
 21
4.92578
  0
LINE
  8
0
 10
-30.525
 20
4.92578
 11
-30.2691
 21
4.98723
  0
LINE
  8
0
 10
-30.2691
 20
4.98723
 11
-30.235
 21
4.99512
  0
LINE
  8
0
 10
-30.235
 20
4.99512
 11
-29.9807
 21
5.05147
  0
LINE
  8
0
 10
-29.9807
 20
5.05147
 11
-29.9467
 21
5.05869
  0
LINE
  8
0
 10
-29.9467
 20
5.05869
 11
-29.6893
 21
5.11107
  0
LINE
  8
0
 10
-29.6893
 20
5.11107
 11
-29.655
 21
5.11774
  0
LINE
  8
0
 10
-29.655
 20
5.11774
 11
-29.4836
 21
5.14951
  0
LINE
  8
0
 10
-29.4836
 20
5.14951
 11
-29.3924
 21
5.16423
  0
LINE
  8
0
 10
-29.3924
 20
5.16423
 11
-29.3295
 21
5.17133
  0
LINE
  8
0
 10
-29.3295
 20
5.17133
 11
-29.3295
 21
5.1716
  0
LINE
  8
0
 10
-29.3295
 20
5.1716
 11
-29.2556
 21
5.17993
  0
LINE
  8
0
 10
-29.2556
 20
5.17993
 11
-29.2057
 21
5.1868
  0
LINE
  8
0
 10
-29.2057
 20
5.1868
 11
-29.1432
 21
5.19704
  0
LINE
  8
0
 10
-29.1432
 20
5.19704
 11
-28.6318
 21
5.2872
  0
LINE
  8
0
 10
-28.6318
 20
5.2872
 11
-28.537
 21
5.30571
  0
LINE
  8
0
 10
-28.537
 20
5.30571
 11
-28.4939
 21
5.31549
  0
LINE
  8
0
 10
-28.4939
 20
5.31549
 11
-28.4454
 21
5.32777
  0
LINE
  8
0
 10
-28.4454
 20
5.32777
 11
-28.3973
 21
5.34125
  0
LINE
  8
0
 10
-28.3973
 20
5.34125
 11
-28.3503
 21
5.35567
  0
LINE
  8
0
 10
-28.3503
 20
5.35567
 11
-28.3021
 21
5.37181
  0
LINE
  8
0
 10
-28.3021
 20
5.37181
 11
-28.256
 21
5.38852
  0
LINE
  8
0
 10
-28.256
 20
5.38852
 11
-28.209
 21
5.40694
  0
LINE
  8
0
 10
-28.209
 20
5.40694
 11
-28.1635
 21
5.42603
  0
LINE
  8
0
 10
-28.1635
 20
5.42603
 11
-28.1179
 21
5.44655
  0
LINE
  8
0
 10
-28.1179
 20
5.44655
 11
-28.0726
 21
5.46829
  0
LINE
  8
0
 10
-28.0726
 20
5.46829
 11
-28.0284
 21
5.49089
  0
LINE
  8
0
 10
-28.0284
 20
5.49089
 11
-27.9848
 21
5.51454
  0
LINE
  8
0
 10
-27.9848
 20
5.51454
 11
-27.9413
 21
5.53958
  0
LINE
  8
0
 10
-27.9413
 20
5.53958
 11
-27.8988
 21
5.56551
  0
LINE
  8
0
 10
-27.8988
 20
5.56551
 11
-27.8569
 21
5.5925
  0
LINE
  8
0
 10
-27.8569
 20
5.5925
 11
-27.8158
 21
5.62044
  0
LINE
  8
0
 10
-27.8158
 20
5.62044
 11
-27.7751
 21
5.64961
  0
LINE
  8
0
 10
-27.7751
 20
5.64961
 11
-27.7353
 21
5.6797
  0
LINE
  8
0
 10
-27.7353
 20
5.6797
 11
-27.6963
 21
5.71072
  0
LINE
  8
0
 10
-27.6963
 20
5.71072
 11
-27.6584
 21
5.74249
  0
LINE
  8
0
 10
-27.6584
 20
5.74249
 11
-27.6205
 21
5.77583
  0
LINE
  8
0
 10
-27.6205
 20
5.77583
 11
-27.5844
 21
5.80927
  0
LINE
  8
0
 10
-27.5844
 20
5.80927
 11
-27.5482
 21
5.84445
  0
LINE
  8
0
 10
-27.5482
 20
5.84445
 11
-27.5135
 21
5.87993
  0
LINE
  8
0
 10
-27.5135
 20
5.87993
 11
-27.4794
 21
5.91663
  0
LINE
  8
0
 10
-27.4794
 20
5.91663
 11
-27.4466
 21
5.95366
  0
LINE
  8
0
 10
-27.4466
 20
5.95366
 11
-27.4146
 21
5.99184
  0
LINE
  8
0
 10
-27.4146
 20
5.99184
 11
-27.3834
 21
6.03078
  0
LINE
  8
0
 10
-27.3834
 20
6.03078
 11
-27.3531
 21
6.07066
  0
LINE
  8
0
 10
-27.3531
 20
6.07066
 11
-27.324
 21
6.11108
  0
LINE
  8
0
 10
-27.324
 20
6.11108
 11
-27.296
 21
6.15208
  0
LINE
  8
0
 10
-27.296
 20
6.15208
 11
-27.2684
 21
6.19464
  0
LINE
  8
0
 10
-27.2684
 20
6.19464
 11
-27.2429
 21
6.23628
  0
LINE
  8
0
 10
-27.2429
 20
6.23628
 11
-27.2176
 21
6.28001
  0
LINE
  8
0
 10
-27.2176
 20
6.28001
 11
-27.1939
 21
6.32338
  0
LINE
  8
0
 10
-27.1939
 20
6.32338
 11
-27.1712
 21
6.36754
  0
LINE
  8
0
 10
-27.1712
 20
6.36754
 11
-27.1492
 21
6.41301
  0
LINE
  8
0
 10
-27.1492
 20
6.41301
 11
-27.1289
 21
6.45789
  0
LINE
  8
0
 10
-27.1289
 20
6.45789
 11
-27.1093
 21
6.50429
  0
LINE
  8
0
 10
-27.1093
 20
6.50429
 11
-27.0911
 21
6.55054
  0
LINE
  8
0
 10
-27.0911
 20
6.55054
 11
-27.074
 21
6.59721
  0
LINE
  8
0
 10
-27.074
 20
6.59721
 11
-27.058
 21
6.64462
  0
LINE
  8
0
 10
-27.058
 20
6.64462
 11
-27.0434
 21
6.69194
  0
LINE
  8
0
 10
-27.0434
 20
6.69194
 11
-27.0296
 21
6.74066
  0
LINE
  8
0
 10
-27.0296
 20
6.74066
 11
-27.0173
 21
6.7887
  0
LINE
  8
0
 10
-27.0173
 20
6.7887
 11
-27.0063
 21
6.83675
  0
LINE
  8
0
 10
-27.0063
 20
6.83675
 11
-26.9963
 21
6.88585
  0
LINE
  8
0
 10
-26.9963
 20
6.88585
 11
-26.9875
 21
6.93536
  0
LINE
  8
0
 10
-26.9875
 20
6.93536
 11
-26.9801
 21
6.9843
  0
LINE
  8
0
 10
-26.9801
 20
6.9843
 11
-26.9738
 21
7.0336
  0
LINE
  8
0
 10
-26.9738
 20
7.0336
 11
-26.9688
 21
7.08325
  0
LINE
  8
0
 10
-26.9688
 20
7.08325
 11
-26.965
 21
7.13303
  0
LINE
  8
0
 10
-26.965
 20
7.13303
 11
-26.9625
 21
7.18329
  0
LINE
  8
0
 10
-26.9625
 20
7.18329
 11
-26.9612
 21
7.23257
  0
LINE
  8
0
 10
-26.9612
 20
7.23257
 11
-26.9611
 21
7.2827
  0
LINE
  8
0
 10
-26.9611
 20
7.2827
 11
-26.9623
 21
7.33231
  0
LINE
  8
0
 10
-26.9623
 20
7.33231
 11
-26.9653
 21
7.39487
  0
LINE
  8
0
 10
-26.9653
 20
7.39487
 11
-26.9743
 21
7.54097
  0
LINE
  8
0
 10
-26.9743
 20
7.54097
 11
-26.9761
 21
7.57614
  0
LINE
  8
0
 10
-26.9761
 20
7.57614
 11
-26.9882
 21
7.85344
  0
LINE
  8
0
 10
-26.9882
 20
7.85344
 11
-26.9894
 21
7.88808
  0
LINE
  8
0
 10
-26.9894
 20
7.88808
 11
-26.9968
 21
8.16789
  0
LINE
  8
0
 10
-26.9968
 20
8.16789
 11
-26.9974
 21
8.20277
  0
LINE
  8
0
 10
-26.9974
 20
8.20277
 11
-26.9999
 21
8.4895
  0
LINE
  8
0
 10
-26.9999
 20
8.4895
 11
-27
 21
8.50706
  0
LINE
  8
0
 10
-27
 20
8.50706
 11
-27
 21
57.5
  0
LINE
  8
0
 10
-27
 20
57.5
 11
-26.9994
 21
57.5499
  0
LINE
  8
0
 10
-26.9994
 20
57.5499
 11
-26.9944
 21
57.6495
  0
LINE
  8
0
 10
-26.9944
 20
57.6495
 11
-26.9845
 21
57.7487
  0
LINE
  8
0
 10
-26.9845
 20
57.7487
 11
-26.9696
 21
57.8473
  0
LINE
  8
0
 10
-26.9696
 20
57.8473
 11
-26.9499
 21
57.945
  0
LINE
  8
0
 10
-26.9499
 20
57.945
 11
-26.9252
 21
58.0417
  0
LINE
  8
0
 10
-26.9252
 20
58.0417
 11
-26.8959
 21
58.137
  0
LINE
  8
0
 10
-26.8959
 20
58.137
 11
-26.8617
 21
58.2307
  0
LINE
  8
0
 10
-26.8617
 20
58.2307
 11
-26.823
 21
58.3226
  0
LINE
  8
0
 10
-26.823
 20
58.3226
 11
-26.7797
 21
58.4124
  0
LINE
  8
0
 10
-26.7797
 20
58.4124
 11
-26.7321
 21
58.5
  0
LINE
  8
0
 10
-26.7321
 20
58.5
 11
-26.6801
 21
58.5851
  0
LINE
  8
0
 10
-26.6801
 20
58.5851
 11
-26.6239
 21
58.6675
  0
LINE
  8
0
 10
-26.6239
 20
58.6675
 11
-26.5637
 21
58.747
  0
LINE
  8
0
 10
-26.5637
 20
58.747
 11
-26.4996
 21
58.8234
  0
LINE
  8
0
 10
-26.4996
 20
58.8234
 11
-26.4317
 21
58.8965
  0
LINE
  8
0
 10
-26.4317
 20
58.8965
 11
-26.3604
 21
58.9661
  0
LINE
  8
0
 10
-26.3604
 20
58.9661
 11
-26.2856
 21
59.0321
  0
LINE
  8
0
 10
-26.2856
 20
59.0321
 11
-26.2076
 21
59.0943
  0
LINE
  8
0
 10
-26.2076
 20
59.0943
 11
-26.1266
 21
59.1525
  0
LINE
  8
0
 10
-26.1266
 20
59.1525
 11
-26.0429
 21
59.2066
  0
LINE
  8
0
 10
-26.0429
 20
59.2066
 11
-25.9565
 21
59.2564
  0
LINE
  8
0
 10
-25.9565
 20
59.2564
 11
-25.8678
 21
59.3019
  0
LINE
  8
0
 10
-25.8678
 20
59.3019
 11
-25.7769
 21
59.343
  0
LINE
  8
0
 10
-25.7769
 20
59.343
 11
-25.684
 21
59.3794
  0
LINE
  8
0
 10
-25.684
 20
59.3794
 11
-25.5895
 21
59.4111
  0
LINE
  8
0
 10
-25.5895
 20
59.4111
 11
-25.4935
 21
59.4382
  0
LINE
  8
0
 10
-25.4935
 20
59.4382
 11
-25.3963
 21
59.4603
  0
LINE
  8
0
 10
-25.3963
 20
59.4603
 11
-25.2981
 21
59.4777
  0
LINE
  8
0
 10
-25.2981
 20
59.4777
 11
-25.1991
 21
59.4901
  0
LINE
  8
0
 10
-25.1991
 20
59.4901
 11
-25.0997
 21
59.4975
  0
LINE
  8
0
 10
-25.0997
 20
59.4975
 11
-25
 21
59.5
  0
LINE
  8
0
 10
-25
 20
59.5
 11
6.98753
 21
59.5
  0
LINE
  8
0
 10
6.98753
 20
59.5
 11
7.0498
 21
59.5008
  0
LINE
  8
0
 10
7.0498
 20
59.5008
 11
7.09946
 21
59.5026
  0
LINE
  8
0
 10
7.09946
 20
59.5026
 11
7.1494
 21
59.5058
  0
LINE
  8
0
 10
7.1494
 20
59.5058
 11
7.19925
 21
59.5101
  0
LINE
  8
0
 10
7.19925
 20
59.5101
 11
7.24905
 21
59.5157
  0
LINE
  8
0
 10
7.24905
 20
59.5157
 11
7.29781
 21
59.5224
  0
LINE
  8
0
 10
7.29781
 20
59.5224
 11
7.34738
 21
59.5306
  0
LINE
  8
0
 10
7.34738
 20
59.5306
 11
7.39629
 21
59.5398
  0
LINE
  8
0
 10
7.39629
 20
59.5398
 11
7.44522
 21
59.5503
  0
LINE
  8
0
 10
7.44522
 20
59.5503
 11
7.493
 21
59.5619
  0
LINE
  8
0
 10
7.493
 20
59.5619
 11
7.54201
 21
59.575
  0
LINE
  8
0
 10
7.54201
 20
59.575
 11
7.58914
 21
59.5889
  0
LINE
  8
0
 10
7.58914
 20
59.5889
 11
7.6369
 21
59.6043
  0
LINE
  8
0
 10
7.6369
 20
59.6043
 11
7.6841
 21
59.6208
  0
LINE
  8
0
 10
7.6841
 20
59.6208
 11
7.73059
 21
59.6384
  0
LINE
  8
0
 10
7.73059
 20
59.6384
 11
7.77663
 21
59.6571
  0
LINE
  8
0
 10
7.77663
 20
59.6571
 11
7.82262
 21
59.6772
  0
LINE
  8
0
 10
7.82262
 20
59.6772
 11
7.86824
 21
59.6985
  0
LINE
  8
0
 10
7.86824
 20
59.6985
 11
7.91187
 21
59.7201
  0
LINE
  8
0
 10
7.91187
 20
59.7201
 11
7.95639
 21
59.7437
  0
LINE
  8
0
 10
7.95639
 20
59.7437
 11
7.99985
 21
59.7681
  0
LINE
  8
0
 10
7.99985
 20
59.7681
 11
8.04301
 21
59.7937
  0
LINE
  8
0
 10
8.04301
 20
59.7937
 11
8.08488
 21
59.82
  0
LINE
  8
0
 10
8.08488
 20
59.82
 11
8.12679
 21
59.8478
  0
LINE
  8
0
 10
8.12679
 20
59.8478
 11
8.16753
 21
59.8763
  0
LINE
  8
0
 10
8.16753
 20
59.8763
 11
8.2072
 21
59.9056
  0
LINE
  8
0
 10
8.2072
 20
59.9056
 11
8.24669
 21
59.9363
  0
LINE
  8
0
 10
8.24669
 20
59.9363
 11
8.28583
 21
59.9683
  0
LINE
  8
0
 10
8.28583
 20
59.9683
 11
8.32324
 21
60.0005
  0
LINE
  8
0
 10
8.32324
 20
60.0005
 11
8.36014
 21
60.0339
  0
LINE
  8
0
 10
8.36014
 20
60.0339
 11
8.39638
 21
60.0684
  0
LINE
  8
0
 10
8.39638
 20
60.0684
 11
8.43161
 21
60.1036
  0
LINE
  8
0
 10
8.43161
 20
60.1036
 11
8.46608
 21
60.1399
  0
LINE
  8
0
 10
8.46608
 20
60.1399
 11
8.49948
 21
60.1768
  0
LINE
  8
0
 10
8.49948
 20
60.1768
 11
8.53168
 21
60.2142
  0
LINE
  8
0
 10
8.53168
 20
60.2142
 11
8.56369
 21
60.2533
  0
LINE
  8
0
 10
8.56369
 20
60.2533
 11
8.59439
 21
60.2928
  0
LINE
  8
0
 10
8.59439
 20
60.2928
 11
8.62366
 21
60.3325
  0
LINE
  8
0
 10
8.62366
 20
60.3325
 11
8.65219
 21
60.3732
  0
LINE
  8
0
 10
8.65219
 20
60.3732
 11
8.68001
 21
60.4151
  0
LINE
  8
0
 10
8.68001
 20
60.4151
 11
8.7063
 21
60.457
  0
LINE
  8
0
 10
8.7063
 20
60.457
 11
8.73195
 21
60.5002
  0
LINE
  8
0
 10
8.73195
 20
60.5002
 11
8.75633
 21
60.5436
  0
LINE
  8
0
 10
8.75633
 20
60.5436
 11
8.77986
 21
60.5881
  0
LINE
  8
0
 10
8.77986
 20
60.5881
 11
8.80154
 21
60.6318
  0
LINE
  8
0
 10
8.80154
 20
60.6318
 11
8.82281
 21
60.6774
  0
LINE
  8
0
 10
8.82281
 20
60.6774
 11
8.84288
 21
60.7234
  0
LINE
  8
0
 10
8.84288
 20
60.7234
 11
8.86162
 21
60.7694
  0
LINE
  8
0
 10
8.86162
 20
60.7694
 11
8.8792
 21
60.8159
  0
LINE
  8
0
 10
8.8792
 20
60.8159
 11
8.89571
 21
60.8631
  0
LINE
  8
0
 10
8.89571
 20
60.8631
 11
8.9111
 21
60.9109
  0
LINE
  8
0
 10
8.9111
 20
60.9109
 11
8.92499
 21
60.958
  0
LINE
  8
0
 10
8.92499
 20
60.958
 11
8.93813
 21
61.007
  0
LINE
  8
0
 10
8.93813
 20
61.007
 11
8.94966
 21
61.0548
  0
LINE
  8
0
 10
8.94966
 20
61.0548
 11
8.96019
 21
61.1037
  0
LINE
  8
0
 10
8.96019
 20
61.1037
 11
8.96944
 21
61.1526
  0
LINE
  8
0
 10
8.96944
 20
61.1526
 11
8.97755
 21
61.2022
  0
LINE
  8
0
 10
8.97755
 20
61.2022
 11
8.98428
 21
61.2509
  0
LINE
  8
0
 10
8.98428
 20
61.2509
 11
8.98987
 21
61.3006
  0
LINE
  8
0
 10
8.98987
 20
61.3006
 11
8.99425
 21
61.3506
  0
LINE
  8
0
 10
8.99425
 20
61.3506
 11
8.99736
 21
61.4005
  0
LINE
  8
0
 10
8.99736
 20
61.4005
 11
8.99922
 21
61.4502
  0
LINE
  8
0
 10
8.99922
 20
61.4502
 11
9
 21
61.5125
  0
LINE
  8
0
 10
9
 20
61.5125
 11
9
 21
66
  0
LINE
  8
0
 10
9
 20
66
 11
9.0056
 21
66.1495
  0
LINE
  8
0
 10
9.0056
 20
66.1495
 11
9.01552
 21
66.2487
  0
LINE
  8
0
 10
9.01552
 20
66.2487
 11
9.03038
 21
66.3473
  0
LINE
  8
0
 10
9.03038
 20
66.3473
 11
9.05014
 21
66.445
  0
LINE
  8
0
 10
9.05014
 20
66.445
 11
9.07475
 21
66.5417
  0
LINE
  8
0
 10
9.07475
 20
66.5417
 11
9.10414
 21
66.637
  0
LINE
  8
0
 10
9.10414
 20
66.637
 11
9.13826
 21
66.7307
  0
LINE
  8
0
 10
9.13826
 20
66.7307
 11
9.17699
 21
66.8226
  0
LINE
  8
0
 10
9.17699
 20
66.8226
 11
9.22026
 21
66.9124
  0
LINE
  8
0
 10
9.22026
 20
66.9124
 11
9.26794
 21
67
  0
LINE
  8
0
 10
9.26794
 20
67
 11
9.31995
 21
67.0851
  0
LINE
  8
0
 10
9.31995
 20
67.0851
 11
9.37613
 21
67.1675
  0
LINE
  8
0
 10
9.37613
 20
67.1675
 11
9.43634
 21
67.247
  0
LINE
  8
0
 10
9.43634
 20
67.247
 11
9.50044
 21
67.3234
  0
LINE
  8
0
 10
9.50044
 20
67.3234
 11
9.56827
 21
67.3965
  0
LINE
  8
0
 10
9.56827
 20
67.3965
 11
9.63965
 21
67.4661
  0
LINE
  8
0
 10
9.63965
 20
67.4661
 11
9.71443
 21
67.5321
  0
LINE
  8
0
 10
9.71443
 20
67.5321
 11
9.79239
 21
67.5943
  0
LINE
  8
0
 10
9.79239
 20
67.5943
 11
9.87337
 21
67.6525
  0
LINE
  8
0
 10
9.87337
 20
67.6525
 11
9.95712
 21
67.7066
  0
LINE
  8
0
 10
9.95712
 20
67.7066
 11
10.0435
 21
67.7564
  0
LINE
  8
0
 10
10.0435
 20
67.7564
 11
10.1322
 21
67.8019
  0
LINE
  8
0
 10
10.1322
 20
67.8019
 11
10.2231
 21
67.843
  0
LINE
  8
0
 10
10.2231
 20
67.843
 11
10.316
 21
67.8794
  0
LINE
  8
0
 10
10.316
 20
67.8794
 11
10.4105
 21
67.9111
  0
LINE
  8
0
 10
10.4105
 20
67.9111
 11
10.5065
 21
67.9382
  0
LINE
  8
0
 10
10.5065
 20
67.9382
 11
10.6037
 21
67.9603
  0
LINE
  8
0
 10
10.6037
 20
67.9603
 11
10.7019
 21
67.9777
  0
LINE
  8
0
 10
10.7019
 20
67.9777
 11
10.8009
 21
67.9901
  0
LINE
  8
0
 10
10.8009
 20
67.9901
 11
10.9003
 21
67.9975
  0
LINE
  8
0
 10
10.9003
 20
67.9975
 11
11
 21
68
  0
LINE
  8
0
 10
11
 20
68
 11
25
 21
68
  0
LINE
  8
0
 10
25
 20
68
 11
25.1495
 21
67.9944
  0
LINE
  8
0
 10
25.1495
 20
67.9944
 11
25.2487
 21
67.9845
  0
LINE
  8
0
 10
25.2487
 20
67.9845
 11
25.3473
 21
67.9696
  0
LINE
  8
0
 10
25.3473
 20
67.9696
 11
25.445
 21
67.9499
  0
LINE
  8
0
 10
25.445
 20
67.9499
 11
25.5417
 21
67.9252
  0
LINE
  8
0
 10
25.5417
 20
67.9252
 11
25.637
 21
67.8959
  0
LINE
  8
0
 10
25.637
 20
67.8959
 11
25.7307
 21
67.8617
  0
LINE
  8
0
 10
25.7307
 20
67.8617
 11
25.8226
 21
67.823
  0
LINE
  8
0
 10
25.8226
 20
67.823
 11
25.9124
 21
67.7797
  0
LINE
  8
0
 10
25.9124
 20
67.7797
 11
26
 21
67.7321
  0
LINE
  8
0
 10
26
 20
67.7321
 11
26.0851
 21
67.6801
  0
LINE
  8
0
 10
26.0851
 20
67.6801
 11
26.1675
 21
67.6239
  0
LINE
  8
0
 10
26.1675
 20
67.6239
 11
26.247
 21
67.5637
  0
LINE
  8
0
 10
26.247
 20
67.5637
 11
26.3234
 21
67.4996
  0
LINE
  8
0
 10
26.3234
 20
67.4996
 11
26.3965
 21
67.4317
  0
LINE
  8
0
 10
26.3965
 20
67.4317
 11
26.4661
 21
67.3604
  0
LINE
  8
0
 10
26.4661
 20
67.3604
 11
26.5321
 21
67.2856
  0
LINE
  8
0
 10
26.5321
 20
67.2856
 11
26.5943
 21
67.2076
  0
LINE
  8
0
 10
26.5943
 20
67.2076
 11
26.6525
 21
67.1266
  0
LINE
  8
0
 10
26.6525
 20
67.1266
 11
26.7066
 21
67.0429
  0
LINE
  8
0
 10
26.7066
 20
67.0429
 11
26.7564
 21
66.9565
  0
LINE
  8
0
 10
26.7564
 20
66.9565
 11
26.8019
 21
66.8678
  0
LINE
  8
0
 10
26.8019
 20
66.8678
 11
26.843
 21
66.7769
  0
LINE
  8
0
 10
26.843
 20
66.7769
 11
26.8794
 21
66.684
  0
LINE
  8
0
 10
26.8794
 20
66.684
 11
26.9111
 21
66.5895
  0
LINE
  8
0
 10
26.9111
 20
66.5895
 11
26.9382
 21
66.4935
  0
LINE
  8
0
 10
26.9382
 20
66.4935
 11
26.9603
 21
66.3963
  0
LINE
  8
0
 10
26.9603
 20
66.3963
 11
26.9777
 21
66.2981
  0
LINE
  8
0
 10
26.9777
 20
66.2981
 11
26.9901
 21
66.1991
  0
LINE
  8
0
 10
26.9901
 20
66.1991
 11
26.9975
 21
66.0997
  0
LINE
  8
0
 10
26.9975
 20
66.0997
 11
27
 21
66
  0
LINE
  8
0
 10
27
 20
66
 11
27
 21
61.5125
  0
LINE
  8
0
 10
27
 20
61.5125
 11
27.0008
 21
61.4502
  0
LINE
  8
0
 10
27.0008
 20
61.4502
 11
27.0026
 21
61.4005
  0
LINE
  8
0
 10
27.0026
 20
61.4005
 11
27.0058
 21
61.3506
  0
LINE
  8
0
 10
27.0058
 20
61.3506
 11
27.0101
 21
61.3006
  0
LINE
  8
0
 10
27.0101
 20
61.3006
 11
27.0157
 21
61.2509
  0
LINE
  8
0
 10
27.0157
 20
61.2509
 11
27.0224
 21
61.2022
  0
LINE
  8
0
 10
27.0224
 20
61.2022
 11
27.0306
 21
61.1526
  0
LINE
  8
0
 10
27.0306
 20
61.1526
 11
27.0398
 21
61.1037
  0
LINE
  8
0
 10
27.0398
 20
61.1037
 11
27.0503
 21
61.0548
  0
LINE
  8
0
 10
27.0503
 20
61.0548
 11
27.0619
 21
61.007
  0
LINE
  8
0
 10
27.0619
 20
61.007
 11
27.075
 21
60.958
  0
LINE
  8
0
 10
27.075
 20
60.958
 11
27.0889
 21
60.9109
  0
LINE
  8
0
 10
27.0889
 20
60.9109
 11
27.1043
 21
60.8631
  0
LINE
  8
0
 10
27.1043
 20
60.8631
 11
27.1208
 21
60.8159
  0
LINE
  8
0
 10
27.1208
 20
60.8159
 11
27.1384
 21
60.7694
  0
LINE
  8
0
 10
27.1384
 20
60.7694
 11
27.1571
 21
60.7234
  0
LINE
  8
0
 10
27.1571
 20
60.7234
 11
27.1772
 21
60.6774
  0
LINE
  8
0
 10
27.1772
 20
60.6774
 11
27.1985
 21
60.6318
  0
LINE
  8
0
 10
27.1985
 20
60.6318
 11
27.2201
 21
60.5881
  0
LINE
  8
0
 10
27.2201
 20
60.5881
 11
27.2437
 21
60.5436
  0
LINE
  8
0
 10
27.2437
 20
60.5436
 11
27.2681
 21
60.5002
  0
LINE
  8
0
 10
27.2681
 20
60.5002
 11
27.2937
 21
60.457
  0
LINE
  8
0
 10
27.2937
 20
60.457
 11
27.32
 21
60.4151
  0
LINE
  8
0
 10
27.32
 20
60.4151
 11
27.3478
 21
60.3732
  0
LINE
  8
0
 10
27.3478
 20
60.3732
 11
27.3763
 21
60.3325
  0
LINE
  8
0
 10
27.3763
 20
60.3325
 11
27.4056
 21
60.2928
  0
LINE
  8
0
 10
27.4056
 20
60.2928
 11
27.4363
 21
60.2533
  0
LINE
  8
0
 10
27.4363
 20
60.2533
 11
27.4683
 21
60.2142
  0
LINE
  8
0
 10
27.4683
 20
60.2142
 11
27.5005
 21
60.1768
  0
LINE
  8
0
 10
27.5005
 20
60.1768
 11
27.5339
 21
60.1399
  0
LINE
  8
0
 10
27.5339
 20
60.1399
 11
27.5684
 21
60.1036
  0
LINE
  8
0
 10
27.5684
 20
60.1036
 11
27.6036
 21
60.0684
  0
LINE
  8
0
 10
27.6036
 20
60.0684
 11
27.6399
 21
60.0339
  0
LINE
  8
0
 10
27.6399
 20
60.0339
 11
27.6768
 21
60.0005
  0
LINE
  8
0
 10
27.6768
 20
60.0005
 11
27.7142
 21
59.9683
  0
LINE
  8
0
 10
27.7142
 20
59.9683
 11
27.7533
 21
59.9363
  0
LINE
  8
0
 10
27.7533
 20
59.9363
 11
27.7928
 21
59.9056
  0
LINE
  8
0
 10
27.7928
 20
59.9056
 11
27.8325
 21
59.8763
  0
LINE
  8
0
 10
27.8325
 20
59.8763
 11
27.8732
 21
59.8478
  0
LINE
  8
0
 10
27.8732
 20
59.8478
 11
27.9151
 21
59.82
  0
LINE
  8
0
 10
27.9151
 20
59.82
 11
27.957
 21
59.7937
  0
LINE
  8
0
 10
27.957
 20
59.7937
 11
28.0002
 21
59.7681
  0
LINE
  8
0
 10
28.0002
 20
59.7681
 11
28.0436
 21
59.7437
  0
LINE
  8
0
 10
28.0436
 20
59.7437
 11
28.0881
 21
59.7201
  0
LINE
  8
0
 10
28.0881
 20
59.7201
 11
28.1318
 21
59.6985
  0
LINE
  8
0
 10
28.1318
 20
59.6985
 11
28.1774
 21
59.6772
  0
LINE
  8
0
 10
28.1774
 20
59.6772
 11
28.2234
 21
59.6571
  0
LINE
  8
0
 10
28.2234
 20
59.6571
 11
28.2694
 21
59.6384
  0
LINE
  8
0
 10
28.2694
 20
59.6384
 11
28.3159
 21
59.6208
  0
LINE
  8
0
 10
28.3159
 20
59.6208
 11
28.3631
 21
59.6043
  0
LINE
  8
0
 10
28.3631
 20
59.6043
 11
28.4109
 21
59.5889
  0
LINE
  8
0
 10
28.4109
 20
59.5889
 11
28.458
 21
59.575
  0
LINE
  8
0
 10
28.458
 20
59.575
 11
28.507
 21
59.5619
  0
LINE
  8
0
 10
28.507
 20
59.5619
 11
28.5548
 21
59.5503
  0
LINE
  8
0
 10
28.5548
 20
59.5503
 11
28.6037
 21
59.5398
  0
LINE
  8
0
 10
28.6037
 20
59.5398
 11
28.6526
 21
59.5306
  0
LINE
  8
0
 10
28.6526
 20
59.5306
 11
28.7022
 21
59.5224
  0
LINE
  8
0
 10
28.7022
 20
59.5224
 11
28.7509
 21
59.5157
  0
LINE
  8
0
 10
28.7509
 20
59.5157
 11
28.8008
 21
59.5101
  0
LINE
  8
0
 10
28.8008
 20
59.5101
 11
28.8506
 21
59.5058
  0
LINE
  8
0
 10
28.8506
 20
59.5058
 11
28.9005
 21
59.5026
  0
LINE
  8
0
 10
28.9005
 20
59.5026
 11
28.9502
 21
59.5008
  0
LINE
  8
0
 10
28.9502
 20
59.5008
 11
29.0125
 21
59.5
  0
LINE
  8
0
 10
29.0125
 20
59.5
 11
43
 21
59.5
  0
LINE
  8
0
 10
43
 20
59.5
 11
43.1495
 21
59.4944
  0
LINE
  8
0
 10
43.1495
 20
59.4944
 11
43.2487
 21
59.4845
  0
LINE
  8
0
 10
43.2487
 20
59.4845
 11
43.3473
 21
59.4696
  0
LINE
  8
0
 10
43.3473
 20
59.4696
 11
43.445
 21
59.4499
  0
LINE
  8
0
 10
43.445
 20
59.4499
 11
43.5417
 21
59.4252
  0
LINE
  8
0
 10
43.5417
 20
59.4252
 11
43.637
 21
59.3959
  0
LINE
  8
0
 10
43.637
 20
59.3959
 11
43.7307
 21
59.3617
  0
LINE
  8
0
 10
43.7307
 20
59.3617
 11
43.8226
 21
59.323
  0
LINE
  8
0
 10
43.8226
 20
59.323
 11
43.9124
 21
59.2797
  0
LINE
  8
0
 10
43.9124
 20
59.2797
 11
44
 21
59.2321
  0
LINE
  8
0
 10
44
 20
59.2321
 11
44.0851
 21
59.1801
  0
LINE
  8
0
 10
44.0851
 20
59.1801
 11
44.1675
 21
59.1239
  0
LINE
  8
0
 10
44.1675
 20
59.1239
 11
44.247
 21
59.0637
  0
LINE
  8
0
 10
44.247
 20
59.0637
 11
44.3234
 21
58.9996
  0
LINE
  8
0
 10
44.3234
 20
58.9996
 11
44.3965
 21
58.9317
  0
LINE
  8
0
 10
44.3965
 20
58.9317
 11
44.4661
 21
58.8604
  0
LINE
  8
0
 10
44.4661
 20
58.8604
 11
44.5321
 21
58.7856
  0
LINE
  8
0
 10
44.5321
 20
58.7856
 11
44.5943
 21
58.7076
  0
LINE
  8
0
 10
44.5943
 20
58.7076
 11
44.6525
 21
58.6266
  0
LINE
  8
0
 10
44.6525
 20
58.6266
 11
44.7066
 21
58.5429
  0
LINE
  8
0
 10
44.7066
 20
58.5429
 11
44.7564
 21
58.4565
  0
LINE
  8
0
 10
44.7564
 20
58.4565
 11
44.8019
 21
58.3678
  0
LINE
  8
0
 10
44.8019
 20
58.3678
 11
44.843
 21
58.2769
  0
LINE
  8
0
 10
44.843
 20
58.2769
 11
44.8794
 21
58.184
  0
LINE
  8
0
 10
44.8794
 20
58.184
 11
44.9111
 21
58.0895
  0
LINE
  8
0
 10
44.9111
 20
58.0895
 11
44.9382
 21
57.9935
  0
LINE
  8
0
 10
44.9382
 20
57.9935
 11
44.9603
 21
57.8963
  0
LINE
  8
0
 10
44.9603
 20
57.8963
 11
44.9777
 21
57.7981
  0
LINE
  8
0
 10
44.9777
 20
57.7981
 11
44.9901
 21
57.6991
  0
LINE
  8
0
 10
44.9901
 20
57.6991
 11
44.9975
 21
57.5997
  0
LINE
  8
0
 10
44.9975
 20
57.5997
 11
45
 21
57.5
  0
LINE
  8
0
 10
45
 20
57.5
 11
45
 21
53.0125
  0
LINE
  8
0
 10
45
 20
53.0125
 11
45.0008
 21
52.9502
  0
LINE
  8
0
 10
45.0008
 20
52.9502
 11
45.0026
 21
52.9005
  0
LINE
  8
0
 10
45.0026
 20
52.9005
 11
45.0058
 21
52.8506
  0
LINE
  8
0
 10
45.0058
 20
52.8506
 11
45.0101
 21
52.8006
  0
LINE
  8
0
 10
45.0101
 20
52.8006
 11
45.0157
 21
52.7509
  0
LINE
  8
0
 10
45.0157
 20
52.7509
 11
45.0224
 21
52.7022
  0
LINE
  8
0
 10
45.0224
 20
52.7022
 11
45.0306
 21
52.6526
  0
LINE
  8
0
 10
45.0306
 20
52.6526
 11
45.0398
 21
52.6037
  0
LINE
  8
0
 10
45.0398
 20
52.6037
 11
45.0503
 21
52.5548
  0
LINE
  8
0
 10
45.0503
 20
52.5548
 11
45.0619
 21
52.507
  0
LINE
  8
0
 10
45.0619
 20
52.507
 11
45.075
 21
52.458
  0
LINE
  8
0
 10
45.075
 20
52.458
 11
45.0889
 21
52.4109
  0
LINE
  8
0
 10
45.0889
 20
52.4109
 11
45.1043
 21
52.3631
  0
LINE
  8
0
 10
45.1043
 20
52.3631
 11
45.1208
 21
52.3159
  0
LINE
  8
0
 10
45.1208
 20
52.3159
 11
45.1384
 21
52.2694
  0
LINE
  8
0
 10
45.1384
 20
52.2694
 11
45.1571
 21
52.2234
  0
LINE
  8
0
 10
45.1571
 20
52.2234
 11
45.1772
 21
52.1774
  0
LINE
  8
0
 10
45.1772
 20
52.1774
 11
45.1985
 21
52.1318
  0
LINE
  8
0
 10
45.1985
 20
52.1318
 11
45.2201
 21
52.0881
  0
LINE
  8
0
 10
45.2201
 20
52.0881
 11
45.2437
 21
52.0436
  0
LINE
  8
0
 10
45.2437
 20
52.0436
 11
45.2681
 21
52.0002
  0
LINE
  8
0
 10
45.2681
 20
52.0002
 11
45.2937
 21
51.957
  0
LINE
  8
0
 10
45.2937
 20
51.957
 11
45.32
 21
51.9151
  0
LINE
  8
0
 10
45.32
 20
51.9151
 11
45.3478
 21
51.8732
  0
LINE
  8
0
 10
45.3478
 20
51.8732
 11
45.3763
 21
51.8325
  0
LINE
  8
0
 10
45.3763
 20
51.8325
 11
45.4056
 21
51.7928
  0
LINE
  8
0
 10
45.4056
 20
51.7928
 11
45.4363
 21
51.7533
  0
LINE
  8
0
 10
45.4363
 20
51.7533
 11
45.4683
 21
51.7142
  0
LINE
  8
0
 10
45.4683
 20
51.7142
 11
45.5005
 21
51.6768
  0
LINE
  8
0
 10
45.5005
 20
51.6768
 11
45.5339
 21
51.6399
  0
LINE
  8
0
 10
45.5339
 20
51.6399
 11
45.5684
 21
51.6036
  0
LINE
  8
0
 10
45.5684
 20
51.6036
 11
45.6036
 21
51.5684
  0
LINE
  8
0
 10
45.6036
 20
51.5684
 11
45.6399
 21
51.5339
  0
LINE
  8
0
 10
45.6399
 20
51.5339
 11
45.6768
 21
51.5005
  0
LINE
  8
0
 10
45.6768
 20
51.5005
 11
45.7142
 21
51.4683
  0
LINE
  8
0
 10
45.7142
 20
51.4683
 11
45.7533
 21
51.4363
  0
LINE
  8
0
 10
45.7533
 20
51.4363
 11
45.7928
 21
51.4056
  0
LINE
  8
0
 10
45.7928
 20
51.4056
 11
45.8325
 21
51.3763
  0
LINE
  8
0
 10
45.8325
 20
51.3763
 11
45.8732
 21
51.3478
  0
LINE
  8
0
 10
45.8732
 20
51.3478
 11
45.9151
 21
51.32
  0
LINE
  8
0
 10
45.9151
 20
51.32
 11
45.957
 21
51.2937
  0
LINE
  8
0
 10
45.957
 20
51.2937
 11
46.0002
 21
51.2681
  0
LINE
  8
0
 10
46.0002
 20
51.2681
 11
46.0436
 21
51.2437
  0
LINE
  8
0
 10
46.0436
 20
51.2437
 11
46.0881
 21
51.2201
  0
LINE
  8
0
 10
46.0881
 20
51.2201
 11
46.1318
 21
51.1985
  0
LINE
  8
0
 10
46.1318
 20
51.1985
 11
46.1774
 21
51.1772
  0
LINE
  8
0
 10
46.1774
 20
51.1772
 11
46.2234
 21
51.1571
  0
LINE
  8
0
 10
46.2234
 20
51.1571
 11
46.2694
 21
51.1384
  0
LINE
  8
0
 10
46.2694
 20
51.1384
 11
46.3159
 21
51.1208
  0
LINE
  8
0
 10
46.3159
 20
51.1208
 11
46.3631
 21
51.1043
  0
LINE
  8
0
 10
46.3631
 20
51.1043
 11
46.4109
 21
51.0889
  0
LINE
  8
0
 10
46.4109
 20
51.0889
 11
46.458
 21
51.075
  0
LINE
  8
0
 10
46.458
 20
51.075
 11
46.507
 21
51.0619
  0
LINE
  8
0
 10
46.507
 20
51.0619
 11
46.5548
 21
51.0503
  0
LINE
  8
0
 10
46.5548
 20
51.0503
 11
46.6037
 21
51.0398
  0
LINE
  8
0
 10
46.6037
 20
51.0398
 11
46.6526
 21
51.0306
  0
LINE
  8
0
 10
46.6526
 20
51.0306
 11
46.7022
 21
51.0224
  0
LINE
  8
0
 10
46.7022
 20
51.0224
 11
46.7509
 21
51.0157
  0
LINE
  8
0
 10
46.7509
 20
51.0157
 11
46.8008
 21
51.0101
  0
LINE
  8
0
 10
46.8008
 20
51.0101
 11
46.8506
 21
51.0058
  0
LINE
  8
0
 10
46.8506
 20
51.0058
 11
46.9005
 21
51.0026
  0
LINE
  8
0
 10
46.9005
 20
51.0026
 11
46.9502
 21
51.0008
  0
LINE
  8
0
 10
46.9502
 20
51.0008
 11
47.0125
 21
51
  0
LINE
  8
0
 10
47.0125
 20
51
 11
61
 21
51
  0
LINE
  8
0
 10
61
 20
51
 11
61.1495
 21
50.9944
  0
LINE
  8
0
 10
61.1495
 20
50.9944
 11
61.2487
 21
50.9845
  0
LINE
  8
0
 10
61.2487
 20
50.9845
 11
61.3473
 21
50.9696
  0
LINE
  8
0
 10
61.3473
 20
50.9696
 11
61.445
 21
50.9499
  0
LINE
  8
0
 10
61.445
 20
50.9499
 11
61.5417
 21
50.9252
  0
LINE
  8
0
 10
61.5417
 20
50.9252
 11
61.637
 21
50.8959
  0
LINE
  8
0
 10
61.637
 20
50.8959
 11
61.7307
 21
50.8617
  0
LINE
  8
0
 10
61.7307
 20
50.8617
 11
61.8226
 21
50.823
  0
LINE
  8
0
 10
61.8226
 20
50.823
 11
61.9124
 21
50.7797
  0
LINE
  8
0
 10
61.9124
 20
50.7797
 11
62
 21
50.7321
  0
LINE
  8
0
 10
62
 20
50.7321
 11
62.0851
 21
50.6801
  0
LINE
  8
0
 10
62.0851
 20
50.6801
 11
62.1675
 21
50.6239
  0
LINE
  8
0
 10
62.1675
 20
50.6239
 11
62.247
 21
50.5637
  0
LINE
  8
0
 10
62.247
 20
50.5637
 11
62.3234
 21
50.4996
  0
LINE
  8
0
 10
62.3234
 20
50.4996
 11
62.3965
 21
50.4317
  0
LINE
  8
0
 10
62.3965
 20
50.4317
 11
62.4661
 21
50.3604
  0
LINE
  8
0
 10
62.4661
 20
50.3604
 11
62.5321
 21
50.2856
  0
LINE
  8
0
 10
62.5321
 20
50.2856
 11
62.5943
 21
50.2076
  0
LINE
  8
0
 10
62.5943
 20
50.2076
 11
62.6525
 21
50.1266
  0
LINE
  8
0
 10
62.6525
 20
50.1266
 11
62.7066
 21
50.0429
  0
LINE
  8
0
 10
62.7066
 20
50.0429
 11
62.7564
 21
49.9565
  0
LINE
  8
0
 10
62.7564
 20
49.9565
 11
62.8019
 21
49.8678
  0
LINE
  8
0
 10
62.8019
 20
49.8678
 11
62.843
 21
49.7769
  0
LINE
  8
0
 10
62.843
 20
49.7769
 11
62.8794
 21
49.684
  0
LINE
  8
0
 10
62.8794
 20
49.684
 11
62.9111
 21
49.5895
  0
LINE
  8
0
 10
62.9111
 20
49.5895
 11
62.9382
 21
49.4935
  0
LINE
  8
0
 10
62.9382
 20
49.4935
 11
62.9603
 21
49.3963
  0
LINE
  8
0
 10
62.9603
 20
49.3963
 11
62.9777
 21
49.2981
  0
LINE
  8
0
 10
62.9777
 20
49.2981
 11
62.9901
 21
49.1991
  0
LINE
  8
0
 10
62.9901
 20
49.1991
 11
62.9975
 21
49.0997
  0
LINE
  8
0
 10
62.9975
 20
49.0997
 11
63
 21
49
  0
LINE
  8
0
 10
63
 20
49
 11
63
 21
2
  0
LINE
  8
0
 10
63
 20
2
 11
62.9944
 21
1.85054
  0
LINE
  8
0
 10
62.9944
 20
1.85054
 11
62.9845
 21
1.75131
  0
LINE
  8
0
 10
62.9845
 20
1.75131
 11
62.9696
 21
1.65271
  0
LINE
  8
0
 10
62.9696
 20
1.65271
 11
62.9499
 21
1.55496
  0
LINE
  8
0
 10
62.9499
 20
1.55496
 11
62.9252
 21
1.45831
  0
LINE
  8
0
 10
62.9252
 20
1.45831
 11
62.8959
 21
1.36302
  0
LINE
  8
0
 10
62.8959
 20
1.36302
 11
62.8617
 21
1.26932
  0
LINE
  8
0
 10
62.8617
 20
1.26932
 11
62.823
 21
1.17743
  0
LINE
  8
0
 10
62.823
 20
1.17743
 11
62.7797
 21
1.08759
  0
LINE
  8
0
 10
62.7797
 20
1.08759
 11
62.7321
 21
1
  0
LINE
  8
0
 10
62.7321
 20
1
 11
62.6801
 21
0.914902
  0
LINE
  8
0
 10
62.6801
 20
0.914902
 11
62.6239
 21
0.83252
  0
LINE
  8
0
 10
62.6239
 20
0.83252
 11
62.5637
 21
0.753021
  0
LINE
  8
0
 10
62.5637
 20
0.753021
 11
62.4996
 21
0.676636
  0
LINE
  8
0
 10
62.4996
 20
0.676636
 11
62.4317
 21
0.603531
  0
LINE
  8
0
 10
62.4317
 20
0.603531
 11
62.3604
 21
0.53389
  0
LINE
  8
0
 10
62.3604
 20
0.53389
 11
62.2856
 21
0.467911
  0
LINE
  8
0
 10
62.2856
 20
0.467911
 11
62.2076
 21
0.405731
  0
LINE
  8
0
 10
62.2076
 20
0.405731
 11
62.1266
 21
0.347519
  0
LINE
  8
0
 10
62.1266
 20
0.347519
 11
62.0429
 21
0.293411
  0
LINE
  8
0
 10
62.0429
 20
0.293411
 11
61.9565
 21
0.243561
  0
LINE
  8
0
 10
61.9565
 20
0.243561
 11
61.8678
 21
0.198059
  0
LINE
  8
0
 10
61.8678
 20
0.198059
 11
61.7769
 21
0.157043
  0
LINE
  8
0
 10
61.7769
 20
0.157043
 11
61.684
 21
0.120621
  0
LINE
  8
0
 10
61.684
 20
0.120621
 11
61.5895
 21
0.0888519
  0
LINE
  8
0
 10
61.5895
 20
0.0888519
 11
61.4935
 21
0.0618439
  0
LINE
  8
0
 10
61.4935
 20
0.0618439
 11
61.3963
 21
0.0396576
  0
LINE
  8
0
 10
61.3963
 20
0.0396576
 11
61.2981
 21
0.0223389
  0
LINE
  8
0
 10
61.2981
 20
0.0223389
 11
61.1991
 21
0.00993347
  0
LINE
  8
0
 10
61.1991
 20
0.00993347
 11
61.0997
 21
0.00248718
  0
LINE
  8
0
 10
61.0997
 20
0.00248718
 11
61
 21
0
  0
LINE
  8
0
 10
61
 20
0
 11
47.0125
 21
0
  0
LINE
  8
0
 10
47.0125
 20
0
 11
46.9502
 21
-0.000778198
  0
LINE
  8
0
 10
46.9502
 20
-0.000778198
 11
46.9005
 21
-0.00263977
  0
LINE
  8
0
 10
46.9005
 20
-0.00263977
 11
46.8506
 21
-0.00575256
  0
LINE
  8
0
 10
46.8506
 20
-0.00575256
 11
46.8008
 21
-0.0101166
  0
LINE
  8
0
 10
46.8008
 20
-0.0101166
 11
46.7509
 21
-0.0157166
  0
LINE
  8
0
 10
46.7509
 20
-0.0157166
 11
46.7022
 21
-0.0224457
  0
LINE
  8
0
 10
46.7022
 20
-0.0224457
 11
46.6526
 21
-0.0305634
  0
LINE
  8
0
 10
46.6526
 20
-0.0305634
 11
46.6037
 21
-0.0398102
  0
LINE
  8
0
 10
46.6037
 20
-0.0398102
 11
46.5548
 21
-0.0503387
  0
LINE
  8
0
 10
46.5548
 20
-0.0503387
 11
46.507
 21
-0.0618744
  0
LINE
  8
0
 10
46.507
 20
-0.0618744
 11
46.458
 21
-0.0750122
  0
LINE
  8
0
 10
46.458
 20
-0.0750122
 11
46.4109
 21
-0.0888977
  0
LINE
  8
0
 10
46.4109
 20
-0.0888977
 11
46.3631
 21
-0.104294
  0
LINE
  8
0
 10
46.3631
 20
-0.104294
 11
46.3159
 21
-0.120804
  0
LINE
  8
0
 10
46.3159
 20
-0.120804
 11
46.2694
 21
-0.138382
  0
LINE
  8
0
 10
46.2694
 20
-0.138382
 11
46.2234
 21
-0.15712
  0
LINE
  8
0
 10
46.2234
 20
-0.15712
 11
46.1774
 21
-0.177185
  0
LINE
  8
0
 10
46.1774
 20
-0.177185
 11
46.1318
 21
-0.198456
  0
LINE
  8
0
 10
46.1318
 20
-0.198456
 11
46.0881
 21
-0.220139
  0
LINE
  8
0
 10
46.0881
 20
-0.220139
 11
46.0436
 21
-0.243668
  0
LINE
  8
0
 10
46.0436
 20
-0.243668
 11
46.0002
 21
-0.268051
  0
LINE
  8
0
 10
46.0002
 20
-0.268051
 11
45.957
 21
-0.293701
  0
LINE
  8
0
 10
45.957
 20
-0.293701
 11
45.9151
 21
-0.319992
  0
LINE
  8
0
 10
45.9151
 20
-0.319992
 11
45.8732
 21
-0.347809
  0
LINE
  8
0
 10
45.8732
 20
-0.347809
 11
45.8325
 21
-0.376343
  0
LINE
  8
0
 10
45.8325
 20
-0.376343
 11
45.7928
 21
-0.405609
  0
LINE
  8
0
 10
45.7928
 20
-0.405609
 11
45.7533
 21
-0.43631
  0
LINE
  8
0
 10
45.7533
 20
-0.43631
 11
45.7142
 21
-0.468323
  0
LINE
  8
0
 10
45.7142
 20
-0.468323
 11
45.6768
 21
-0.500519
  0
LINE
  8
0
 10
45.6768
 20
-0.500519
 11
45.6399
 21
-0.53392
  0
LINE
  8
0
 10
45.6399
 20
-0.53392
 11
45.6036
 21
-0.56839
  0
LINE
  8
0
 10
45.6036
 20
-0.56839
 11
45.5684
 21
-0.603622
  0
LINE
  8
0
 10
45.5684
 20
-0.603622
 11
45.5339
 21
-0.639862
  0
LINE
  8
0
 10
45.5339
 20
-0.639862
 11
45.5005
 21
-0.676758
  0
LINE
  8
0
 10
45.5005
 20
-0.676758
 11
45.4683
 21
-0.714172
  0
LINE
  8
0
 10
45.4683
 20
-0.714172
 11
45.4363
 21
-0.753311
  0
LINE
  8
0
 10
45.4363
 20
-0.753311
 11
45.4056
 21
-0.792801
  0
LINE
  8
0
 10
45.4056
 20
-0.792801
 11
45.3763
 21
-0.832474
  0
LINE
  8
0
 10
45.3763
 20
-0.832474
 11
45.3478
 21
-0.873215
  0
LINE
  8
0
 10
45.3478
 20
-0.873215
 11
45.32
 21
-0.915115
  0
LINE
  8
0
 10
45.32
 20
-0.915115
 11
45.2937
 21
-0.956985
  0
LINE
  8
0
 10
45.2937
 20
-0.956985
 11
45.2681
 21
-1.00015
  0
LINE
  8
0
 10
45.2681
 20
-1.00015
 11
45.2437
 21
-1.04361
  0
LINE
  8
0
 10
45.2437
 20
-1.04361
 11
45.2201
 21
-1.08813
  0
LINE
  8
0
 10
45.2201
 20
-1.08813
 11
45.1983
 21
-1.13197
  0
LINE
  8
0
 10
45.1983
 20
-1.13197
 11
45.1772
 21
-1.17738
  0
LINE
  8
0
 10
45.1772
 20
-1.17738
 11
45.1571
 21
-1.22337
  0
LINE
  8
0
 10
45.1571
 20
-1.22337
 11
45.1384
 21
-1.26941
  0
LINE
  8
0
 10
45.1384
 20
-1.26941
 11
45.1208
 21
-1.3159
  0
LINE
  8
0
 10
45.1208
 20
-1.3159
 11
45.1043
 21
-1.3631
  0
LINE
  8
0
 10
45.1043
 20
-1.3631
 11
45.0889
 21
-1.41086
  0
LINE
  8
0
 10
45.0889
 20
-1.41086
 11
45.075
 21
-1.45799
  0
LINE
  8
0
 10
45.075
 20
-1.45799
 11
45.0619
 21
-1.507
  0
LINE
  8
0
 10
45.0619
 20
-1.507
 11
45.0503
 21
-1.55478
  0
LINE
  8
0
 10
45.0503
 20
-1.55478
 11
45.0398
 21
-1.60371
  0
LINE
  8
0
 10
45.0398
 20
-1.60371
 11
45.0306
 21
-1.65262
  0
LINE
  8
0
 10
45.0306
 20
-1.65262
 11
45.0224
 21
-1.70219
  0
LINE
  8
0
 10
45.0224
 20
-1.70219
 11
45.0157
 21
-1.75095
  0
LINE
  8
0
 10
45.0157
 20
-1.75095
 11
45.0101
 21
-1.80075
  0
LINE
  8
0
 10
45.0101
 20
-1.80075
 11
45.0058
 21
-1.8506
  0
LINE
  8
0
 10
45.0058
 20
-1.8506
 11
45.0026
 21
-1.90054
  0
LINE
  8
0
 10
45.0026
 20
-1.90054
 11
45.0008
 21
-1.9502
  0
LINE
  8
0
 10
45.0008
 20
-1.9502
 11
45
 21
-2.01247
  0
LINE
  8
0
 10
45
 20
-2.01247
 11
45
 21
-6.5
  0
LINE
  8
0
 10
45
 20
-6.5
 11
44.9944
 21
-6.64946
  0
LINE
  8
0
 10
44.9944
 20
-6.64946
 11
44.9845
 21
-6.74869
  0
LINE
  8
0
 10
44.9845
 20
-6.74869
 11
44.9696
 21
-6.84729
  0
LINE
  8
0
 10
44.9696
 20
-6.84729
 11
44.9499
 21
-6.94504
  0
LINE
  8
0
 10
44.9499
 20
-6.94504
 11
44.9252
 21
-7.04169
  0
LINE
  8
0
 10
44.9252
 20
-7.04169
 11
44.8959
 21
-7.13698
  0
LINE
  8
0
 10
44.8959
 20
-7.13698
 11
44.8617
 21
-7.23068
  0
LINE
  8
0
 10
44.8617
 20
-7.23068
 11
44.823
 21
-7.32257
  0
LINE
  8
0
 10
44.823
 20
-7.32257
 11
44.7797
 21
-7.41241
  0
LINE
  8
0
 10
44.7797
 20
-7.41241
 11
44.7321
 21
-7.5
  0
LINE
  8
0
 10
44.7321
 20
-7.5
 11
44.6801
 21
-7.5851
  0
LINE
  8
0
 10
44.6801
 20
-7.5851
 11
44.6239
 21
-7.66748
  0
LINE
  8
0
 10
44.6239
 20
-7.66748
 11
44.5637
 21
-7.74698
  0
LINE
  8
0
 10
44.5637
 20
-7.74698
 11
44.4996
 21
-7.82336
  0
LINE
  8
0
 10
44.4996
 20
-7.82336
 11
44.4317
 21
-7.89647
  0
LINE
  8
0
 10
44.4317
 20
-7.89647
 11
44.3604
 21
-7.96611
  0
LINE
  8
0
 10
44.3604
 20
-7.96611
 11
44.2856
 21
-8.03209
  0
LINE
  8
0
 10
44.2856
 20
-8.03209
 11
44.2076
 21
-8.09427
  0
LINE
  8
0
 10
44.2076
 20
-8.09427
 11
44.1266
 21
-8.15248
  0
LINE
  8
0
 10
44.1266
 20
-8.15248
 11
44.0429
 21
-8.20659
  0
LINE
  8
0
 10
44.0429
 20
-8.20659
 11
43.9565
 21
-8.25644
  0
LINE
  8
0
 10
43.9565
 20
-8.25644
 11
43.8678
 21
-8.30194
  0
LINE
  8
0
 10
43.8678
 20
-8.30194
 11
43.7769
 21
-8.34296
  0
LINE
  8
0
 10
43.7769
 20
-8.34296
 11
43.684
 21
-8.37938
  0
LINE
  8
0
 10
43.684
 20
-8.37938
 11
43.5895
 21
-8.41115
  0
LINE
  8
0
 10
43.5895
 20
-8.41115
 11
43.4935
 21
-8.43816
  0
LINE
  8
0
 10
43.4935
 20
-8.43816
 11
43.3963
 21
-8.46034
  0
LINE
  8
0
 10
43.3963
 20
-8.46034
 11
43.2981
 21
-8.47766
  0
LINE
  8
0
 10
43.2981
 20
-8.47766
 11
43.1991
 21
-8.49007
  0
LINE
  8
0
 10
43.1991
 20
-8.49007
 11
43.0997
 21
-8.49751
  0
LINE
  8
0
 10
43.0997
 20
-8.49751
 11
43
 21
-8.5
  0
LINE
  8
0
 10
43
 20
-8.5
 11
29
 21
-8.5
  0
LINE
  8
0
 10
29
 20
-8.5
 11
28.8505
 21
-8.4944
  0
LINE
  8
0
 10
28.8505
 20
-8.4944
 11
28.7513
 21
-8.48448
  0
LINE
  8
0
 10
28.7513
 20
-8.48448
 11
28.6527
 21
-8.46962
  0
LINE
  8
0
 10
28.6527
 20
-8.46962
 11
28.555
 21
-8.44986
  0
LINE
  8
0
 10
28.555
 20
-8.44986
 11
28.4583
 21
-8.42525
  0
LINE
  8
0
 10
28.4583
 20
-8.42525
 11
28.363
 21
-8.39586
  0
LINE
  8
0
 10
28.363
 20
-8.39586
 11
28.2693
 21
-8.36174
  0
LINE
  8
0
 10
28.2693
 20
-8.36174
 11
28.1774
 21
-8.32301
  0
LINE
  8
0
 10
28.1774
 20
-8.32301
 11
28.0876
 21
-8.27974
  0
LINE
  8
0
 10
28.0876
 20
-8.27974
 11
28
 21
-8.23206
  0
LINE
  8
0
 10
28
 20
-8.23206
 11
27.9149
 21
-8.18005
  0
LINE
  8
0
 10
27.9149
 20
-8.18005
 11
27.8325
 21
-8.12387
  0
LINE
  8
0
 10
27.8325
 20
-8.12387
 11
27.753
 21
-8.06366
  0
LINE
  8
0
 10
27.753
 20
-8.06366
 11
27.6766
 21
-7.99956
  0
LINE
  8
0
 10
27.6766
 20
-7.99956
 11
27.6035
 21
-7.93173
  0
LINE
  8
0
 10
27.6035
 20
-7.93173
 11
27.5339
 21
-7.86035
  0
LINE
  8
0
 10
27.5339
 20
-7.86035
 11
27.4679
 21
-7.78557
  0
LINE
  8
0
 10
27.4679
 20
-7.78557
 11
27.4057
 21
-7.70761
  0
LINE
  8
0
 10
27.4057
 20
-7.70761
 11
27.3475
 21
-7.62663
  0
LINE
  8
0
 10
27.3475
 20
-7.62663
 11
27.2934
 21
-7.54288
  0
LINE
  8
0
 10
27.2934
 20
-7.54288
 11
27.2436
 21
-7.45651
  0
LINE
  8
0
 10
27.2436
 20
-7.45651
 11
27.1981
 21
-7.36777
  0
LINE
  8
0
 10
27.1981
 20
-7.36777
 11
27.157
 21
-7.27687
  0
LINE
  8
0
 10
27.157
 20
-7.27687
 11
27.1206
 21
-7.18404
  0
LINE
  8
0
 10
27.1206
 20
-7.18404
 11
27.0889
 21
-7.08951
  0
LINE
  8
0
 10
27.0889
 20
-7.08951
 11
27.0618
 21
-6.99352
  0
LINE
  8
0
 10
27.0618
 20
-6.99352
 11
27.0397
 21
-6.89629
  0
LINE
  8
0
 10
27.0397
 20
-6.89629
 11
27.0223
 21
-6.79808
  0
LINE
  8
0
 10
27.0223
 20
-6.79808
 11
27.0099
 21
-6.69914
  0
LINE
  8
0
 10
27.0099
 20
-6.69914
 11
27.0025
 21
-6.59969
  0
LINE
  8
0
 10
27.0025
 20
-6.59969
 11
27
 21
-6.5
  0
LINE
  8
0
 10
27
 20
-6.5
 11
27
 21
-2.01247
  0
LINE
  8
0
 10
27
 20
-2.01247
 11
26.9992
 21
-1.9502
  0
LINE
  8
0
 10
26.9992
 20
-1.9502
 11
26.9974
 21
-1.90054
  0
LINE
  8
0
 10
26.9974
 20
-1.90054
 11
26.9942
 21
-1.8506
  0
LINE
  8
0
 10
26.9942
 20
-1.8506
 11
26.9899
 21
-1.80075
  0
LINE
  8
0
 10
26.9899
 20
-1.80075
 11
26.9843
 21
-1.75095
  0
LINE
  8
0
 10
26.9843
 20
-1.75095
 11
26.9776
 21
-1.70219
  0
LINE
  8
0
 10
26.9776
 20
-1.70219
 11
26.9694
 21
-1.65262
  0
LINE
  8
0
 10
26.9694
 20
-1.65262
 11
26.9602
 21
-1.60371
  0
LINE
  8
0
 10
26.9602
 20
-1.60371
 11
26.9497
 21
-1.55478
  0
LINE
  8
0
 10
26.9497
 20
-1.55478
 11
26.9381
 21
-1.507
  0
LINE
  8
0
 10
26.9381
 20
-1.507
 11
26.925
 21
-1.45799
  0
LINE
  8
0
 10
26.925
 20
-1.45799
 11
26.9111
 21
-1.41086
  0
LINE
  8
0
 10
26.9111
 20
-1.41086
 11
26.8957
 21
-1.3631
  0
LINE
  8
0
 10
26.8957
 20
-1.3631
 11
26.8792
 21
-1.3159
  0
LINE
  8
0
 10
26.8792
 20
-1.3159
 11
26.8616
 21
-1.26941
  0
LINE
  8
0
 10
26.8616
 20
-1.26941
 11
26.8429
 21
-1.22337
  0
LINE
  8
0
 10
26.8429
 20
-1.22337
 11
26.8228
 21
-1.17738
  0
LINE
  8
0
 10
26.8228
 20
-1.17738
 11
26.8017
 21
-1.13197
  0
LINE
  8
0
 10
26.8017
 20
-1.13197
 11
26.7799
 21
-1.08813
  0
LINE
  8
0
 10
26.7799
 20
-1.08813
 11
26.7563
 21
-1.04361
  0
LINE
  8
0
 10
26.7563
 20
-1.04361
 11
26.7319
 21
-1.00015
  0
LINE
  8
0
 10
26.7319
 20
-1.00015
 11
26.7063
 21
-0.956985
  0
LINE
  8
0
 10
26.7063
 20
-0.956985
 11
26.68
 21
-0.915115
  0
LINE
  8
0
 10
26.68
 20
-0.915115
 11
26.6522
 21
-0.873215
  0
LINE
  8
0
 10
26.6522
 20
-0.873215
 11
26.6237
 21
-0.832474
  0
LINE
  8
0
 10
26.6237
 20
-0.832474
 11
26.5944
 21
-0.792801
  0
LINE
  8
0
 10
26.5944
 20
-0.792801
 11
26.5637
 21
-0.753311
  0
LINE
  8
0
 10
26.5637
 20
-0.753311
 11
26.5317
 21
-0.714172
  0
LINE
  8
0
 10
26.5317
 20
-0.714172
 11
26.4995
 21
-0.676758
  0
LINE
  8
0
 10
26.4995
 20
-0.676758
 11
26.4661
 21
-0.639862
  0
LINE
  8
0
 10
26.4661
 20
-0.639862
 11
26.4316
 21
-0.603622
  0
LINE
  8
0
 10
26.4316
 20
-0.603622
 11
26.3964
 21
-0.56839
  0
LINE
  8
0
 10
26.3964
 20
-0.56839
 11
26.3601
 21
-0.53392
  0
LINE
  8
0
 10
26.3601
 20
-0.53392
 11
26.3232
 21
-0.500519
  0
LINE
  8
0
 10
26.3232
 20
-0.500519
 11
26.2858
 21
-0.468323
  0
LINE
  8
0
 10
26.2858
 20
-0.468323
 11
26.2467
 21
-0.43631
  0
LINE
  8
0
 10
26.2467
 20
-0.43631
 11
26.2072
 21
-0.405609
  0
LINE
  8
0
 10
26.2072
 20
-0.405609
 11
26.1675
 21
-0.376343
  0
LINE
  8
0
 10
26.1675
 20
-0.376343
 11
26.1268
 21
-0.347809
  0
LINE
  8
0
 10
26.1268
 20
-0.347809
 11
26.0849
 21
-0.319992
  0
LINE
  8
0
 10
26.0849
 20
-0.319992
 11
26.043
 21
-0.293701
  0
LINE
  8
0
 10
26.043
 20
-0.293701
 11
25.9998
 21
-0.268051
  0
LINE
  8
0
 10
25.9998
 20
-0.268051
 11
25.9564
 21
-0.243668
  0
LINE
  8
0
 10
25.9564
 20
-0.243668
 11
25.9119
 21
-0.220139
  0
LINE
  8
0
 10
25.9119
 20
-0.220139
 11
25.8682
 21
-0.198456
  0
LINE
  8
0
 10
25.8682
 20
-0.198456
 11
25.8226
 21
-0.177185
  0
LINE
  8
0
 10
25.8226
 20
-0.177185
 11
25.7766
 21
-0.15712
  0
LINE
  8
0
 10
25.7766
 20
-0.15712
 11
25.7306
 21
-0.138382
  0
LINE
  8
0
 10
25.7306
 20
-0.138382
 11
25.6841
 21
-0.120804
  0
LINE
  8
0
 10
25.6841
 20
-0.120804
 11
25.6369
 21
-0.104294
  0
LINE
  8
0
 10
25.6369
 20
-0.104294
 11
25.5891
 21
-0.0888977
  0
LINE
  8
0
 10
25.5891
 20
-0.0888977
 11
25.542
 21
-0.0750122
  0
LINE
  8
0
 10
25.542
 20
-0.0750122
 11
25.493
 21
-0.0618744
  0
LINE
  8
0
 10
25.493
 20
-0.0618744
 11
25.4452
 21
-0.0503387
  0
LINE
  8
0
 10
25.4452
 20
-0.0503387
 11
25.3963
 21
-0.0398102
  0
LINE
  8
0
 10
25.3963
 20
-0.0398102
 11
25.3474
 21
-0.0305634
  0
LINE
  8
0
 10
25.3474
 20
-0.0305634
 11
25.2978
 21
-0.0224457
  0
LINE
  8
0
 10
25.2978
 20
-0.0224457
 11
25.2491
 21
-0.0157166
  0
LINE
  8
0
 10
25.2491
 20
-0.0157166
 11
25.1992
 21
-0.0101166
  0
LINE
  8
0
 10
25.1992
 20
-0.0101166
 11
25.1494
 21
-0.00575256
  0
LINE
  8
0
 10
25.1494
 20
-0.00575256
 11
25.0995
 21
-0.00263977
  0
LINE
  8
0
 10
25.0995
 20
-0.00263977
 11
25.0498
 21
-0.000778198
  0
LINE
  8
0
 10
25.0498
 20
-0.000778198
 11
24.9875
 21
0
  0
LINE
  8
0
 10
24.9875
 20
0
 11
11.0125
 21
0
  0
LINE
  8
0
 10
11.0125
 20
0
 11
10.9502
 21
-0.000778198
  0
LINE
  8
0
 10
10.9502
 20
-0.000778198
 11
10.9005
 21
-0.00263977
  0
LINE
  8
0
 10
10.9005
 20
-0.00263977
 11
10.8506
 21
-0.00575256
  0
LINE
  8
0
 10
10.8506
 20
-0.00575256
 11
10.8008
 21
-0.0101166
  0
LINE
  8
0
 10
10.8008
 20
-0.0101166
 11
10.7509
 21
-0.0157166
  0
LINE
  8
0
 10
10.7509
 20
-0.0157166
 11
10.7022
 21
-0.0224457
  0
LINE
  8
0
 10
10.7022
 20
-0.0224457
 11
10.6526
 21
-0.0305634
  0
LINE
  8
0
 10
10.6526
 20
-0.0305634
 11
10.6037
 21
-0.0398102
  0
LINE
  8
0
 10
10.6037
 20
-0.0398102
 11
10.5548
 21
-0.0503387
  0
LINE
  8
0
 10
10.5548
 20
-0.0503387
 11
10.507
 21
-0.0618744
  0
LINE
  8
0
 10
10.507
 20
-0.0618744
 11
10.458
 21
-0.0750122
  0
LINE
  8
0
 10
10.458
 20
-0.0750122
 11
10.4109
 21
-0.0888977
  0
LINE
  8
0
 10
10.4109
 20
-0.0888977
 11
10.3631
 21
-0.104294
  0
LINE
  8
0
 10
10.3631
 20
-0.104294
 11
10.3159
 21
-0.120804
  0
LINE
  8
0
 10
10.3159
 20
-0.120804
 11
10.2694
 21
-0.138382
  0
LINE
  8
0
 10
10.2694
 20
-0.138382
 11
10.2234
 21
-0.15712
  0
LINE
  8
0
 10
10.2234
 20
-0.15712
 11
10.1774
 21
-0.177185
  0
LINE
  8
0
 10
10.1774
 20
-0.177185
 11
10.1318
 21
-0.198456
  0
LINE
  8
0
 10
10.1318
 20
-0.198456
 11
10.0881
 21
-0.220139
  0
LINE
  8
0
 10
10.0881
 20
-0.220139
 11
10.0436
 21
-0.243668
  0
LINE
  8
0
 10
10.0436
 20
-0.243668
 11
10.0002
 21
-0.268051
  0
LINE
  8
0
 10
10.0002
 20
-0.268051
 11
9.95699
 21
-0.293701
  0
LINE
  8
0
 10
9.95699
 20
-0.293701
 11
9.91512
 21
-0.319992
  0
LINE
  8
0
 10
9.91512
 20
-0.319992
 11
9.87321
 21
-0.347809
  0
LINE
  8
0
 10
9.87321
 20
-0.347809
 11
9.83247
 21
-0.376343
  0
LINE
  8
0
 10
9.83247
 20
-0.376343
 11
9.7928
 21
-0.405609
  0
LINE
  8
0
 10
9.7928
 20
-0.405609
 11
9.75331
 21
-0.43631
  0
LINE
  8
0
 10
9.75331
 20
-0.43631
 11
9.71417
 21
-0.468323
  0
LINE
  8
0
 10
9.71417
 20
-0.468323
 11
9.67676
 21
-0.500519
  0
LINE
  8
0
 10
9.67676
 20
-0.500519
 11
9.63986
 21
-0.53392
  0
LINE
  8
0
 10
9.63986
 20
-0.53392
 11
9.60362
 21
-0.56839
  0
LINE
  8
0
 10
9.60362
 20
-0.56839
 11
9.56839
 21
-0.603622
  0
LINE
  8
0
 10
9.56839
 20
-0.603622
 11
9.53392
 21
-0.639862
  0
LINE
  8
0
 10
9.53392
 20
-0.639862
 11
9.50052
 21
-0.676758
  0
LINE
  8
0
 10
9.50052
 20
-0.676758
 11
9.46832
 21
-0.714172
  0
LINE
  8
0
 10
9.46832
 20
-0.714172
 11
9.43631
 21
-0.753311
  0
LINE
  8
0
 10
9.43631
 20
-0.753311
 11
9.40561
 21
-0.792801
  0
LINE
  8
0
 10
9.40561
 20
-0.792801
 11
9.37634
 21
-0.832474
  0
LINE
  8
0
 10
9.37634
 20
-0.832474
 11
9.34781
 21
-0.873215
  0
LINE
  8
0
 10
9.34781
 20
-0.873215
 11
9.31999
 21
-0.915115
  0
LINE
  8
0
 10
9.31999
 20
-0.915115
 11
9.2937
 21
-0.956985
  0
LINE
  8
0
 10
9.2937
 20
-0.956985
 11
9.26805
 21
-1.00015
  0
LINE
  8
0
 10
9.26805
 20
-1.00015
 11
9.24367
 21
-1.04361
  0
LINE
  8
0
 10
9.24367
 20
-1.04361
 11
9.22014
 21
-1.08813
  0
LINE
  8
0
 10
9.22014
 20
-1.08813
 11
9.19835
 21
-1.13197
  0
LINE
  8
0
 10
9.19835
 20
-1.13197
 11
9.17719
 21
-1.17738
  0
LINE
  8
0
 10
9.17719
 20
-1.17738
 11
9.15712
 21
-1.22337
  0
LINE
  8
0
 10
9.15712
 20
-1.22337
 11
9.13838
 21
-1.26941
  0
LINE
  8
0
 10
9.13838
 20
-1.26941
 11
9.1208
 21
-1.3159
  0
LINE
  8
0
 10
9.1208
 20
-1.3159
 11
9.10429
 21
-1.3631
  0
LINE
  8
0
 10
9.10429
 20
-1.3631
 11
9.0889
 21
-1.41086
  0
LINE
  8
0
 10
9.0889
 20
-1.41086
 11
9.07501
 21
-1.45799
  0
LINE
  8
0
 10
9.07501
 20
-1.45799
 11
9.06187
 21
-1.507
  0
LINE
  8
0
 10
9.06187
 20
-1.507
 11
9.05034
 21
-1.55478
  0
LINE
  8
0
 10
9.05034
 20
-1.55478
 11
9.03981
 21
-1.60371
  0
LINE
  8
0
 10
9.03981
 20
-1.60371
 11
9.03056
 21
-1.65262
  0
LINE
  8
0
 10
9.03056
 20
-1.65262
 11
9.02245
 21
-1.70219
  0
LINE
  8
0
 10
9.02245
 20
-1.70219
 11
9.01572
 21
-1.75095
  0
LINE
  8
0
 10
9.01572
 20
-1.75095
 11
9.01012
 21
-1.80075
  0
LINE
  8
0
 10
9.01012
 20
-1.80075
 11
9.00575
 21
-1.8506
  0
LINE
  8
0
 10
9.00575
 20
-1.8506
 11
9.00264
 21
-1.90054
  0
LINE
  8
0
 10
9.00264
 20
-1.90054
 11
9.00078
 21
-1.9502
  0
LINE
  8
0
 10
9.00078
 20
-1.9502
 11
9
 21
-2.01247
  0
LINE
  8
0
 10
9
 20
-2.01247
 11
9
 21
-13.5
  0
LINE
  8
0
 10
9
 20
-13.5
 11
47.6673
 21
-13.5
  0
LINE
  8
0
 10
47.6673
 20
-13.5
 11
47.767
 21
-13.4983
  0
LINE
  8
0
 10
47.767
 20
-13.4983
 11
47.8666
 21
-13.4934
  0
LINE
  8
0
 10
47.8666
 20
-13.4934
 11
47.966
 21
-13.4851
  0
LINE
  8
0
 10
47.966
 20
-13.4851
 11
48.065
 21
-13.4735
  0
LINE
  8
0
 10
48.065
 20
-13.4735
 11
48.1637
 21
-13.4586
  0
LINE
  8
0
 10
48.1637
 20
-13.4586
 11
48.2617
 21
-13.4405
  0
LINE
  8
0
 10
48.2617
 20
-13.4405
 11
48.3591
 21
-13.4191
  0
LINE
  8
0
 10
48.3591
 20
-13.4191
 11
48.4558
 21
-13.3945
  0
LINE
  8
0
 10
48.4558
 20
-13.3945
 11
48.5516
 21
-13.3667
  0
LINE
  8
0
 10
48.5516
 20
-13.3667
 11
48.6464
 21
-13.3357
  0
LINE
  8
0
 10
48.6464
 20
-13.3357
 11
48.7401
 21
-13.3016
  0
LINE
  8
0
 10
48.7401
 20
-13.3016
 11
48.8326
 21
-13.2644
  0
LINE
  8
0
 10
48.8326
 20
-13.2644
 11
48.9238
 21
-13.2242
  0
LINE
  8
0
 10
48.9238
 20
-13.2242
 11
49.0137
 21
-13.1809
  0
LINE
  8
0
 10
49.0137
 20
-13.1809
 11
49.1021
 21
-13.1347
  0
LINE
  8
0
 10
49.1021
 20
-13.1347
 11
49.1888
 21
-13.0855
  0
LINE
  8
0
 10
49.1888
 20
-13.0855
 11
49.2739
 21
-13.0335
  0
LINE
  8
0
 10
49.2739
 20
-13.0335
 11
49.3573
 21
-12.9787
  0
LINE
  8
0
 10
49.3573
 20
-12.9787
 11
49.4387
 21
-12.9212
  0
LINE
  8
0
 10
49.4387
 20
-12.9212
 11
49.5182
 21
-12.861
  0
LINE
  8
0
 10
49.5182
 20
-12.861
 11
49.5957
 21
-12.7981
  0
LINE
  8
0
 10
49.5957
 20
-12.7981
 11
49.671
 21
-12.7328
  0
LINE
  8
0
 10
49.671
 20
-12.7328
 11
49.7441
 21
-12.6649
  0
LINE
  8
0
 10
49.7441
 20
-12.6649
 11
49.8149
 21
-12.5947
  0
LINE
  8
0
 10
49.8149
 20
-12.5947
 11
49.8833
 21
-12.5222
  0
LINE
  8
0
 10
49.8833
 20
-12.5222
 11
49.9493
 21
-12.4474
  0
LINE
  8
0
 10
49.9493
 20
-12.4474
 11
50.0128
 21
-12.3705
  0
LINE
  8
0
 10
50.0128
 20
-12.3705
 11
50.0737
 21
-12.2915
  0
LINE
  8
0
 10
50.0737
 20
-12.2915
 11
50.1096
 21
-12.2422
  0
LINE
  8
0
 10
50.1096
 20
-12.2422
 11
50.8424
 21
-11.2149
  0
LINE
  8
0
 10
50.8424
 20
-11.2149
 11
50.888
 21
-11.1521
  0
LINE
  8
0
 10
50.888
 20
-11.1521
 11
50.9977
 21
-11.0039
  0
LINE
  8
0
 10
50.9977
 20
-11.0039
 11
51.0444
 21
-10.9418
  0
LINE
  8
0
 10
51.0444
 20
-10.9418
 11
51.1555
 21
-10.7971
  0
LINE
  8
0
 10
51.1555
 20
-10.7971
 11
51.2054
 21
-10.7333
  0
LINE
  8
0
 10
51.2054
 20
-10.7333
 11
51.3185
 21
-10.591
  0
LINE
  8
0
 10
51.3185
 20
-10.591
 11
51.3673
 21
-10.5308
  0
LINE
  8
0
 10
51.3673
 20
-10.5308
 11
51.485
 21
-10.388
  0
LINE
  8
0
 10
51.485
 20
-10.388
 11
51.535
 21
-10.3284
  0
LINE
  8
0
 10
51.535
 20
-10.3284
 11
51.6544
 21
-10.1886
  0
LINE
  8
0
 10
51.6544
 20
-10.1886
 11
51.705
 21
-10.1304
  0
LINE
  8
0
 10
51.705
 20
-10.1304
 11
51.8265
 21
-9.99301
  0
LINE
  8
0
 10
51.8265
 20
-9.99301
 11
51.8795
 21
-9.93422
  0
LINE
  8
0
 10
51.8795
 20
-9.93422
 11
52.0027
 21
-9.79977
  0
LINE
  8
0
 10
52.0027
 20
-9.79977
 11
52.0564
 21
-9.74213
  0
LINE
  8
0
 10
52.0564
 20
-9.74213
 11
52.1833
 21
-9.60847
  0
LINE
  8
0
 10
52.1833
 20
-9.60847
 11
52.2386
 21
-9.55116
  0
LINE
  8
0
 10
52.2386
 20
-9.55116
 11
52.3656
 21
-9.42189
  0
LINE
  8
0
 10
52.3656
 20
-9.42189
 11
52.4219
 21
-9.36565
  0
LINE
  8
0
 10
52.4219
 20
-9.36565
 11
52.5512
 21
-9.2386
  0
LINE
  8
0
 10
52.5512
 20
-9.2386
 11
52.6085
 21
-9.18327
  0
LINE
  8
0
 10
52.6085
 20
-9.18327
 11
52.7421
 21
-9.05644
  0
LINE
  8
0
 10
52.7421
 20
-9.05644
 11
52.7998
 21
-9.00269
  0
LINE
  8
0
 10
52.7998
 20
-9.00269
 11
52.9342
 21
-8.87949
  0
LINE
  8
0
 10
52.9342
 20
-8.87949
 11
52.993
 21
-8.82654
  0
LINE
  8
0
 10
52.993
 20
-8.82654
 11
53.1304
 21
-8.70497
  0
LINE
  8
0
 10
53.1304
 20
-8.70497
 11
53.1886
 21
-8.65445
  0
LINE
  8
0
 10
53.1886
 20
-8.65445
 11
53.3284
 21
-8.535
  0
LINE
  8
0
 10
53.3284
 20
-8.535
 11
53.388
 21
-8.48502
  0
LINE
  8
0
 10
53.388
 20
-8.48502
 11
53.5308
 21
-8.36726
  0
LINE
  8
0
 10
53.5308
 20
-8.36726
 11
53.591
 21
-8.3185
  0
LINE
  8
0
 10
53.591
 20
-8.3185
 11
53.7333
 21
-8.20535
  0
LINE
  8
0
 10
53.7333
 20
-8.20535
 11
53.7971
 21
-8.15547
  0
LINE
  8
0
 10
53.7971
 20
-8.15547
 11
53.9413
 21
-8.04483
  0
LINE
  8
0
 10
53.9413
 20
-8.04483
 11
54.0056
 21
-7.99638
  0
LINE
  8
0
 10
54.0056
 20
-7.99638
 11
54.1514
 21
-7.88855
  0
LINE
  8
0
 10
54.1514
 20
-7.88855
 11
54.2154
 21
-7.84206
  0
LINE
  8
0
 10
54.2154
 20
-7.84206
 11
54.3637
 21
-7.73621
  0
LINE
  8
0
 10
54.3637
 20
-7.73621
 11
54.4284
 21
-7.69095
  0
LINE
  8
0
 10
54.4284
 20
-7.69095
 11
54.5792
 21
-7.58728
  0
LINE
  8
0
 10
54.5792
 20
-7.58728
 11
54.6466
 21
-7.54184
  0
LINE
  8
0
 10
54.6466
 20
-7.54184
 11
54.7978
 21
-7.44173
  0
LINE
  8
0
 10
54.7978
 20
-7.44173
 11
54.8637
 21
-7.39899
  0
LINE
  8
0
 10
54.8637
 20
-7.39899
 11
55.0173
 21
-7.30112
  0
LINE
  8
0
 10
55.0173
 20
-7.30112
 11
55.0856
 21
-7.25845
  0
LINE
  8
0
 10
55.0856
 20
-7.25845
 11
55.2401
 21
-7.16376
  0
LINE
  8
0
 10
55.2401
 20
-7.16376
 11
55.3079
 21
-7.12302
  0
LINE
  8
0
 10
55.3079
 20
-7.12302
 11
55.4673
 21
-7.02908
  0
LINE
  8
0
 10
55.4673
 20
-7.02908
 11
55.5357
 21
-6.98962
  0
LINE
  8
0
 10
55.5357
 20
-6.98962
 11
55.6935
 21
-6.90034
  0
LINE
  8
0
 10
55.6935
 20
-6.90034
 11
55.7619
 21
-6.86244
  0
LINE
  8
0
 10
55.7619
 20
-6.86244
 11
55.9223
 21
-6.77533
  0
LINE
  8
0
 10
55.9223
 20
-6.77533
 11
55.9932
 21
-6.73763
  0
LINE
  8
0
 10
55.9932
 20
-6.73763
 11
56.1567
 21
-6.65253
  0
LINE
  8
0
 10
56.1567
 20
-6.65253
 11
56.2245
 21
-6.61798
  0
LINE
  8
0
 10
56.2245
 20
-6.61798
 11
56.3886
 21
-6.53615
  0
LINE
  8
0
 10
56.3886
 20
-6.53615
 11
56.4603
 21
-6.50117
  0
LINE
  8
0
 10
56.4603
 20
-6.50117
 11
56.6256
 21
-6.42236
  0
LINE
  8
0
 10
56.6256
 20
-6.42236
 11
56.6979
 21
-6.38863
  0
LINE
  8
0
 10
56.6979
 20
-6.38863
 11
56.8624
 21
-6.31366
  0
LINE
  8
0
 10
56.8624
 20
-6.31366
 11
56.9341
 21
-6.28174
  0
LINE
  8
0
 10
56.9341
 20
-6.28174
 11
57.1035
 21
-6.20808
  0
LINE
  8
0
 10
57.1035
 20
-6.20808
 11
57.1759
 21
-6.17735
  0
LINE
  8
0
 10
57.1759
 20
-6.17735
 11
57.3439
 21
-6.10776
  0
LINE
  8
0
 10
57.3439
 20
-6.10776
 11
57.418
 21
-6.07782
  0
LINE
  8
0
 10
57.418
 20
-6.07782
 11
57.5882
 21
-6.01079
  0
LINE
  8
0
 10
57.5882
 20
-6.01079
 11
57.6612
 21
-5.98276
  0
LINE
  8
0
 10
57.6612
 20
-5.98276
 11
57.833
 21
-5.91853
  0
LINE
  8
0
 10
57.833
 20
-5.91853
 11
57.9069
 21
-5.89163
  0
LINE
  8
0
 10
57.9069
 20
-5.89163
 11
58.0797
 21
-5.83043
  0
LINE
  8
0
 10
58.0797
 20
-5.83043
 11
58.1534
 21
-5.80505
  0
LINE
  8
0
 10
58.1534
 20
-5.80505
 11
58.3276
 21
-5.74678
  0
LINE
  8
0
 10
58.3276
 20
-5.74678
 11
58.4025
 21
-5.72244
  0
LINE
  8
0
 10
58.4025
 20
-5.72244
 11
58.5764
 21
-5.6676
  0
LINE
  8
0
 10
58.5764
 20
-5.6676
 11
58.6514
 21
-5.6447
  0
LINE
  8
0
 10
58.6514
 20
-5.6447
 11
58.8282
 21
-5.59233
  0
LINE
  8
0
 10
58.8282
 20
-5.59233
 11
58.9046
 21
-5.57042
  0
LINE
  8
0
 10
58.9046
 20
-5.57042
 11
59.0794
 21
-5.52193
  0
LINE
  8
0
 10
59.0794
 20
-5.52193
 11
59.1576
 21
-5.50098
  0
LINE
  8
0
 10
59.1576
 20
-5.50098
 11
59.3325
 21
-5.45573
  0
LINE
  8
0
 10
59.3325
 20
-5.45573
 11
59.4081
 21
-5.4369
  0
LINE
  8
0
 10
59.4081
 20
-5.4369
 11
59.5881
 21
-5.39368
  0
LINE
  8
0
 10
59.5881
 20
-5.39368
 11
59.6637
 21
-5.37624
  0
LINE
  8
0
 10
59.6637
 20
-5.37624
 11
59.8426
 21
-5.33656
  0
LINE
  8
0
 10
59.8426
 20
-5.33656
 11
59.9216
 21
-5.31976
  0
LINE
  8
0
 10
59.9216
 20
-5.31976
 11
60.0981
 21
-5.28386
  0
LINE
  8
0
 10
60.0981
 20
-5.28386
 11
60.1766
 21
-5.2686
  0
LINE
  8
0
 10
60.1766
 20
-5.2686
 11
60.3562
 21
-5.23531
  0
LINE
  8
0
 10
60.3562
 20
-5.23531
 11
60.4345
 21
-5.2215
  0
LINE
  8
0
 10
60.4345
 20
-5.2215
 11
60.615
 21
-5.1913
  0
LINE
  8
0
 10
60.615
 20
-5.1913
 11
60.6938
 21
-5.17882
  0
LINE
  8
0
 10
60.6938
 20
-5.17882
 11
60.8735
 21
-5.15196
  0
LINE
  8
0
 10
60.8735
 20
-5.15196
 11
60.9506
 21
-5.14113
  0
LINE
  8
0
 10
60.9506
 20
-5.14113
 11
61.1333
 21
-5.11707
  0
LINE
  8
0
 10
61.1333
 20
-5.11707
 11
61.21
 21
-5.10765
  0
LINE
  8
0
 10
61.21
 20
-5.10765
 11
61.3927
 21
-5.08684
  0
LINE
  8
0
 10
61.3927
 20
-5.08684
 11
61.4717
 21
-5.07854
  0
LINE
  8
0
 10
61.4717
 20
-5.07854
 11
61.6544
 21
-5.06093
  0
LINE
  8
0
 10
61.6544
 20
-5.06093
 11
61.7319
 21
-5.05415
  0
LINE
  8
0
 10
61.7319
 20
-5.05415
 11
61.9136
 21
-5.03987
  0
LINE
  8
0
 10
61.9136
 20
-5.03987
 11
61.9947
 21
-5.03419
  0
LINE
  8
0
 10
61.9947
 20
-5.03419
 11
62.1748
 21
-5.02318
  0
LINE
  8
0
 10
62.1748
 20
-5.02318
 11
62.2535
 21
-5.01906
  0
LINE
  8
0
 10
62.2535
 20
-5.01906
 11
62.4377
 21
-5.01103
  0
LINE
  8
0
 10
62.4377
 20
-5.01103
 11
62.5153
 21
-5.00832
  0
LINE
  8
0
 10
62.5153
 20
-5.00832
 11
62.6973
 21
-5.00354
  0
LINE
  8
0
 10
62.6973
 20
-5.00354
 11
62.7763
 21
-5.00215
  0
LINE
  8
0
 10
62.7763
 20
-5.00215
 11
65.0261
 21
-4.98257
  0
LINE
  8
0
 10
65.0261
 20
-4.98257
 11
65.1258
 21
-4.98004
  0
LINE
  8
0
 10
65.1258
 20
-4.98004
 11
65.2254
 21
-4.97421
  0
LINE
  8
0
 10
65.2254
 20
-4.97421
 11
65.3247
 21
-4.96506
  0
LINE
  8
0
 10
65.3247
 20
-4.96506
 11
65.4236
 21
-4.95262
  0
LINE
  8
0
 10
65.4236
 20
-4.95262
 11
65.5221
 21
-4.9369
  0
LINE
  8
0
 10
65.5221
 20
-4.9369
 11
65.62
 21
-4.91792
  0
LINE
  8
0
 10
65.62
 20
-4.91792
 11
65.7172
 21
-4.89569
  0
LINE
  8
0
 10
65.7172
 20
-4.89569
 11
65.8136
 21
-4.87024
  0
LINE
  8
0
 10
65.8136
 20
-4.87024
 11
65.9092
 21
-4.8416
  0
LINE
  8
0
 10
65.9092
 20
-4.8416
 11
66.0037
 21
-4.8098
  0
LINE
  8
0
 10
66.0037
 20
-4.8098
 11
66.0971
 21
-4.77487
  0
LINE
  8
0
 10
66.0971
 20
-4.77487
 11
66.1893
 21
-4.73686
  0
LINE
  8
0
 10
66.1893
 20
-4.73686
 11
66.2802
 21
-4.69582
  0
LINE
  8
0
 10
66.2802
 20
-4.69582
 11
66.3697
 21
-4.65176
  0
LINE
  8
0
 10
66.3697
 20
-4.65176
 11
66.4576
 21
-4.60477
  0
LINE
  8
0
 10
66.4576
 20
-4.60477
 11
66.544
 21
-4.55487
  0
LINE
  8
0
 10
66.544
 20
-4.55487
 11
66.6286
 21
-4.50212
  0
LINE
  8
0
 10
66.6286
 20
-4.50212
 11
66.7115
 21
-4.44659
  0
LINE
  8
0
 10
66.7115
 20
-4.44659
 11
66.7924
 21
-4.38835
  0
LINE
  8
0
 10
66.7924
 20
-4.38835
 11
66.8714
 21
-4.32745
  0
LINE
  8
0
 10
66.8714
 20
-4.32745
 11
66.9483
 21
-4.26395
  0
LINE
  8
0
 10
66.9483
 20
-4.26395
 11
67.023
 21
-4.19794
  0
LINE
  8
0
 10
67.023
 20
-4.19794
 11
67.0956
 21
-4.12947
  0
LINE
  8
0
 10
67.0956
 20
-4.12947
 11
67.1657
 21
-4.05862
  0
LINE
  8
0
 10
67.1657
 20
-4.05862
 11
67.2336
 21
-3.98549
  0
LINE
  8
0
 10
67.2336
 20
-3.98549
 11
67.2989
 21
-3.91016
  0
LINE
  8
0
 10
67.2989
 20
-3.91016
 11
67.3617
 21
-3.83267
  0
LINE
  8
0
 10
67.3617
 20
-3.83267
 11
67.4219
 21
-3.75316
  0
LINE
  8
0
 10
67.4219
 20
-3.75316
 11
67.4794
 21
-3.67168
  0
LINE
  8
0
 10
67.4794
 20
-3.67168
 11
67.5341
 21
-3.58833
  0
LINE
  8
0
 10
67.5341
 20
-3.58833
 11
67.5861
 21
-3.50322
  0
LINE
  8
0
 10
67.5861
 20
-3.50322
 11
67.6352
 21
-3.41641
  0
LINE
  8
0
 10
67.6352
 20
-3.41641
 11
67.6814
 21
-3.32803
  0
LINE
  8
0
 10
67.6814
 20
-3.32803
 11
67.7247
 21
-3.23817
  0
LINE
  8
0
 10
67.7247
 20
-3.23817
 11
67.7649
 21
-3.14691
  0
LINE
  8
0
 10
67.7649
 20
-3.14691
 11
67.802
 21
-3.05437
  0
LINE
  8
0
 10
67.802
 20
-3.05437
 11
67.8361
 21
-2.96065
  0
LINE
  8
0
 10
67.8361
 20
-2.96065
 11
67.8671
 21
-2.86583
  0
LINE
  8
0
 10
67.8671
 20
-2.86583
 11
67.8948
 21
-2.77005
  0
LINE
  8
0
 10
67.8948
 20
-2.77005
 11
67.9194
 21
-2.6734
  0
LINE
  8
0
 10
67.9194
 20
-2.6734
 11
67.9408
 21
-2.57597
  0
LINE
  8
0
 10
67.9408
 20
-2.57597
 11
67.9588
 21
-2.47791
  0
LINE
  8
0
 10
67.9588
 20
-2.47791
 11
67.9737
 21
-2.37929
  0
LINE
  8
0
 10
67.9737
 20
-2.37929
 11
67.9852
 21
-2.28023
  0
LINE
  8
0
 10
67.9852
 20
-2.28023
 11
67.9935
 21
-2.18083
  0
LINE
  8
0
 10
67.9935
 20
-2.18083
 11
67.9984
 21
-2.08124
  0
LINE
  8
0
 10
67.9984
 20
-2.08124
 11
68
 21
-1.98268
  0
LINE
  8
0
 10
68
 20
-1.98268
 11
68
 21
52.2737
  0
LINE
  8
0
 10
68
 20
52.2737
 11
67.9983
 21
52.3734
  0
LINE
  8
0
 10
67.9983
 20
52.3734
 11
67.9934
 21
52.4731
  0
LINE
  8
0
 10
67.9934
 20
52.4731
 11
67.9851
 21
52.5724
  0
LINE
  8
0
 10
67.9851
 20
52.5724
 11
67.9735
 21
52.6715
  0
LINE
  8
0
 10
67.9735
 20
52.6715
 11
67.9586
 21
52.7701
  0
LINE
  8
0
 10
67.9586
 20
52.7701
 11
67.9405
 21
52.8682
  0
LINE
  8
0
 10
67.9405
 20
52.8682
 11
67.9191
 21
52.9656
  0
LINE
  8
0
 10
67.9191
 20
52.9656
 11
67.8945
 21
53.0622
  0
LINE
  8
0
 10
67.8945
 20
53.0622
 11
67.8667
 21
53.158
  0
LINE
  8
0
 10
67.8667
 20
53.158
 11
67.8357
 21
53.2528
  0
LINE
  8
0
 10
67.8357
 20
53.2528
 11
67.8016
 21
53.3465
  0
LINE
  8
0
 10
67.8016
 20
53.3465
 11
67.7644
 21
53.439
  0
LINE
  8
0
 10
67.7644
 20
53.439
 11
67.7242
 21
53.5303
  0
LINE
  8
0
 10
67.7242
 20
53.5303
 11
67.6809
 21
53.6201
  0
LINE
  8
0
 10
67.6809
 20
53.6201
 11
67.6347
 21
53.7085
  0
LINE
  8
0
 10
67.6347
 20
53.7085
 11
67.5855
 21
53.7953
  0
LINE
  8
0
 10
67.5855
 20
53.7953
 11
67.5335
 21
53.8804
  0
LINE
  8
0
 10
67.5335
 20
53.8804
 11
67.4787
 21
53.9637
  0
LINE
  8
0
 10
67.4787
 20
53.9637
 11
67.4212
 21
54.0451
  0
LINE
  8
0
 10
67.4212
 20
54.0451
 11
67.361
 21
54.1246
  0
LINE
  8
0
 10
67.361
 20
54.1246
 11
67.2981
 21
54.2021
  0
LINE
  8
0
 10
67.2981
 20
54.2021
 11
67.2328
 21
54.2774
  0
LINE
  8
0
 10
67.2328
 20
54.2774
 11
67.1649
 21
54.3505
  0
LINE
  8
0
 10
67.1649
 20
54.3505
 11
67.0947
 21
54.4213
  0
LINE
  8
0
 10
67.0947
 20
54.4213
 11
67.0222
 21
54.4898
  0
LINE
  8
0
 10
67.0222
 20
54.4898
 11
66.9474
 21
54.5558
  0
LINE
  8
0
 10
66.9474
 20
54.5558
 11
66.8705
 21
54.6192
  0
LINE
  8
0
 10
66.8705
 20
54.6192
 11
66.7915
 21
54.6801
  0
LINE
  8
0
 10
66.7915
 20
54.6801
 11
66.7105
 21
54.7383
  0
LINE
  8
0
 10
66.7105
 20
54.7383
 11
66.6276
 21
54.7938
  0
LINE
  8
0
 10
66.6276
 20
54.7938
 11
66.543
 21
54.8465
  0
LINE
  8
0
 10
66.543
 20
54.8465
 11
66.4566
 21
54.8964
  0
LINE
  8
0
 10
66.4566
 20
54.8964
 11
66.3686
 21
54.9433
  0
LINE
  8
0
 10
66.3686
 20
54.9433
 11
66.2687
 21
54.9923
  0
LINE
  8
0
 10
66.2687
 20
54.9923
 11
21.2204
 21
76.0148
  0
LINE
  8
0
 10
21.2204
 20
76.0148
 11
21.1293
 21
76.0555
  0
LINE
  8
0
 10
21.1293
 20
76.0555
 11
21.0369
 21
76.0931
  0
LINE
  8
0
 10
21.0369
 20
76.0931
 11
20.9434
 21
76.1276
  0
LINE
  8
0
 10
20.9434
 20
76.1276
 11
20.8487
 21
76.159
  0
LINE
  8
0
 10
20.8487
 20
76.159
 11
20.7531
 21
76.1873
  0
LINE
  8
0
 10
20.7531
 20
76.1873
 11
20.6565
 21
76.2123
  0
LINE
  8
0
 10
20.6565
 20
76.2123
 11
20.5592
 21
76.2341
  0
LINE
  8
0
 10
20.5592
 20
76.2341
 11
20.4612
 21
76.2527
  0
LINE
  8
0
 10
20.4612
 20
76.2527
 11
20.3627
 21
76.268
  0
LINE
  8
0
 10
20.3627
 20
76.268
 11
20.2637
 21
76.28
  0
LINE
  8
0
 10
20.2637
 20
76.28
 11
20.1643
 21
76.2887
  0
LINE
  8
0
 10
20.1643
 20
76.2887
 11
20.0647
 21
76.2941
  0
LINE
  8
0
 10
20.0647
 20
76.2941
 11
19.965
 21
76.2962
  0
LINE
  8
0
 10
19.965
 20
76.2962
 11
19.8653
 21
76.295
  0
LINE
  8
0
 10
19.8653
 20
76.295
 11
19.7657
 21
76.2905
  0
LINE
  8
0
 10
19.7657
 20
76.2905
 11
19.6663
 21
76.2827
  0
LINE
  8
0
 10
19.6663
 20
76.2827
 11
19.5672
 21
76.2715
  0
LINE
  8
0
 10
19.5672
 20
76.2715
 11
19.4685
 21
76.2571
  0
LINE
  8
0
 10
19.4685
 20
76.2571
 11
19.3703
 21
76.2394
  0
LINE
  8
0
 10
19.3703
 20
76.2394
 11
19.2728
 21
76.2184
  0
LINE
  8
0
 10
19.2728
 20
76.2184
 11
19.1761
 21
76.1943
  0
LINE
  8
0
 10
19.1761
 20
76.1943
 11
19.0496
 21
76.1574
  0
LINE
  8
0
 10
19.0496
 20
76.1574
 11
17.0738
 21
75.5345
  0
LINE
  8
0
 10
17.0738
 20
75.5345
 11
17
 21
75.5119
  0
LINE
  8
0
 10
17
 20
75.5119
 11
15.1481
 21
74.9633
  0
LINE
  8
0
 10
15.1481
 20
74.9633
 11
15.0735
 21
74.942
  0
LINE
  8
0
 10
15.0735
 20
74.942
 11
13.2165
 21
74.427
  0
LINE
  8
0
 10
13.2165
 20
74.427
 11
13.1406
 21
74.4066
  0
LINE
  8
0
 10
13.1406
 20
74.4066
 11
11.272
 21
73.9234
  0
LINE
  8
0
 10
11.272
 20
73.9234
 11
11.1957
 21
73.9044
  0
LINE
  8
0
 10
11.1957
 20
73.9044
 11
9.3232
 21
73.4548
  0
LINE
  8
0
 10
9.3232
 20
73.4548
 11
9.24522
 21
73.4368
  0
LINE
  8
0
 10
9.24522
 20
73.4368
 11
7.3602
 21
73.0189
  0
LINE
  8
0
 10
7.3602
 20
73.0189
 11
7.28494
 21
73.0029
  0
LINE
  8
0
 10
7.28494
 20
73.0029
 11
5.39587
 21
72.6186
  0
LINE
  8
0
 10
5.39587
 20
72.6186
 11
5.31757
 21
72.6033
  0
LINE
  8
0
 10
5.31757
 20
72.6033
 11
3.42009
 21
72.2517
  0
LINE
  8
0
 10
3.42009
 20
72.2517
 11
3.34454
 21
72.2383
  0
LINE
  8
0
 10
3.34454
 20
72.2383
 11
1.44307
 21
71.9202
  0
LINE
  8
0
 10
1.44307
 20
71.9202
 11
1.36389
 21
71.9076
  0
LINE
  8
0
 10
1.36389
 20
71.9076
 11
-0.542862
 21
71.6227
  0
LINE
  8
0
 10
-0.542862
 20
71.6227
 11
-0.620224
 21
71.6118
  0
LINE
  8
0
 10
-0.620224
 20
71.6118
 11
-2.53279
 21
71.36
  0
LINE
  8
0
 10
-2.53279
 20
71.36
 11
-2.60921
 21
71.3506
  0
LINE
  8
0
 10
-2.60921
 20
71.3506
 11
-4.52589
 21
71.1322
  0
LINE
  8
0
 10
-4.52589
 20
71.1322
 11
-4.60484
 21
71.1239
  0
LINE
  8
0
 10
-4.60484
 20
71.1239
 11
-6.52383
 21
70.9392
  0
LINE
  8
0
 10
-6.52383
 20
70.9392
 11
-6.60353
 21
70.9322
  0
LINE
  8
0
 10
-6.60353
 20
70.9322
 11
-8.52524
 21
70.7809
  0
LINE
  8
0
 10
-8.52524
 20
70.7809
 11
-8.60455
 21
70.7754
  0
LINE
  8
0
 10
-8.60455
 20
70.7754
 11
-10.5281
 21
70.6577
  0
LINE
  8
0
 10
-10.5281
 20
70.6577
 11
-10.6069
 21
70.6536
  0
LINE
  8
0
 10
-10.6069
 20
70.6536
 11
-12.5324
 21
70.5695
  0
LINE
  8
0
 10
-12.5324
 20
70.5695
 11
-12.6115
 21
70.5668
  0
LINE
  8
0
 10
-12.6115
 20
70.5668
 11
-14.5405
 21
70.5163
  0
LINE
  8
0
 10
-14.5405
 20
70.5163
 11
-14.6176
 21
70.5149
  0
LINE
  8
0
 10
-14.6176
 20
70.5149
 11
-16.5479
 21
70.4981
  0
LINE
  8
0
 10
-16.5479
 20
70.4981
 11
-16.6248
 21
70.4981
  0
LINE
  8
0
 10
-16.6248
 20
70.4981
 11
-18.5551
 21
70.5149
  0
LINE
  8
0
 10
-18.5551
 20
70.5149
 11
-18.6322
 21
70.5163
  0
LINE
  8
0
 10
-18.6322
 20
70.5163
 11
-20.5612
 21
70.5668
  0
LINE
  8
0
 10
-20.5612
 20
70.5668
 11
-20.6403
 21
70.5695
  0
LINE
  8
0
 10
-20.6403
 20
70.5695
 11
-22.5658
 21
70.6536
  0
LINE
  8
0
 10
-22.5658
 20
70.6536
 11
-22.6446
 21
70.6577
  0
LINE
  8
0
 10
-22.6446
 20
70.6577
 11
-24.5681
 21
70.7754
  0
LINE
  8
0
 10
-24.5681
 20
70.7754
 11
-24.6475
 21
70.7809
  0
LINE
  8
0
 10
-24.6475
 20
70.7809
 11
-26.5696
 21
70.9322
  0
LINE
  8
0
 10
-26.5696
 20
70.9322
 11
-26.6484
 21
70.9391
  0
LINE
  8
0
 10
-26.6484
 20
70.9391
 11
-28.5679
 21
71.1239
  0
LINE
  8
0
 10
-28.5679
 20
71.1239
 11
-28.6466
 21
71.1322
  0
LINE
  8
0
 10
-28.6466
 20
71.1322
 11
-30.562
 21
71.3504
  0
LINE
  8
0
 10
-30.562
 20
71.3504
 11
-30.6401
 21
71.36
  0
LINE
  8
0
 10
-30.6401
 20
71.36
 11
-32.5533
 21
71.6119
  0
LINE
  8
0
 10
-32.5533
 20
71.6119
 11
-32.6311
 21
71.6228
  0
LINE
  8
0
 10
-32.6311
 20
71.6228
 11
-34.5368
 21
71.9077
  0
LINE
  8
0
 10
-34.5368
 20
71.9077
 11
-34.6153
 21
71.9201
  0
LINE
  8
0
 10
-34.6153
 20
71.9201
 11
-36.5168
 21
72.2383
  0
LINE
  8
0
 10
-36.5168
 20
72.2383
 11
-36.593
 21
72.2517
  0
LINE
  8
0
 10
-36.593
 20
72.2517
 11
-38.4903
 21
72.6033
  0
LINE
  8
0
 10
-38.4903
 20
72.6033
 11
-38.5686
 21
72.6186
  0
LINE
  8
0
 10
-38.5686
 20
72.6186
 11
-40.4577
 21
73.0029
  0
LINE
  8
0
 10
-40.4577
 20
73.0029
 11
-40.5329
 21
73.0189
  0
LINE
  8
0
 10
-40.5329
 20
73.0189
 11
-42.4182
 21
73.4369
  0
LINE
  8
0
 10
-42.4182
 20
73.4369
 11
-42.4942
 21
73.4544
  0
LINE
  8
0
 10
-42.4942
 20
73.4544
 11
-44.3704
 21
73.9049
  0
LINE
  8
0
 10
-44.3704
 20
73.9049
 11
-44.4464
 21
73.9238
  0
LINE
  8
0
 10
-44.4464
 20
73.9238
 11
-46.3493
 21
74.4159
  0
LINE
  8
0
 10
-46.3493
 20
74.4159
 11
-46.3896
 21
74.4265
  0
LINE
  8
0
 10
-46.3896
 20
74.4265
 11
-49.7532
 21
75.3278
  0
LINE
  8
0
 10
-49.7532
 20
75.3278
 11
-53.2473
 21
62.2878
  0
LINE
  8
0
 10
-53.2473
 20
62.2878
 11
-52.9361
 21
62.2015
  0
LINE
  8
0
 10
-52.9361
 20
62.2015
 11
-52.6265
 21
62.1098
  0
LINE
  8
0
 10
-52.6265
 20
62.1098
 11
-52.3186
 21
62.0127
  0
LINE
  8
0
 10
-52.3186
 20
62.0127
 11
-52.0124
 21
61.9103
  0
LINE
  8
0
 10
-52.0124
 20
61.9103
 11
-51.708
 21
61.8025
  0
LINE
  8
0
 10
-51.708
 20
61.8025
 11
-51.4056
 21
61.6894
  0
LINE
  8
0
 10
-51.4056
 20
61.6894
 11
-51.1052
 21
61.5711
  0
LINE
  8
0
 10
-51.1052
 20
61.5711
 11
-50.8069
 21
61.4475
  0
LINE
  8
0
 10
-50.8069
 20
61.4475
 11
-50.5108
 21
61.3188
  0
LINE
  8
0
 10
-50.5108
 20
61.3188
 11
-50.217
 21
61.1849
  0
LINE
  8
0
 10
-50.217
 20
61.1849
 11
-49.9255
 21
61.0459
  0
LINE
  8
0
 10
-49.9255
 20
61.0459
 11
-49.6366
 21
60.9018
  0
LINE
  8
0
 10
-49.6366
 20
60.9018
 11
-49.3502
 21
60.7527
  0
LINE
  8
0
 10
-49.3502
 20
60.7527
 11
-49.0664
 21
60.5986
  0
LINE
  8
0
 10
-49.0664
 20
60.5986
 11
-48.7854
 21
60.4396
  0
LINE
  8
0
 10
-48.7854
 20
60.4396
 11
-48.5072
 21
60.2758
  0
LINE
  8
0
 10
-48.5072
 20
60.2758
 11
-48.2319
 21
60.1071
  0
LINE
  8
0
 10
-48.2319
 20
60.1071
 11
-47.9596
 21
59.9336
  0
LINE
  8
0
 10
-47.9596
 20
59.9336
 11
-47.6903
 21
59.7554
  0
LINE
  8
0
 10
-47.6903
 20
59.7554
 11
-47.4242
 21
59.5725
  0
LINE
  8
0
 10
-47.4242
 20
59.5725
 11
-47.1614
 21
59.385
  0
LINE
  8
0
 10
-47.1614
 20
59.385
 11
-46.9018
 21
59.1929
  0
LINE
  8
0
 10
-46.9018
 20
59.1929
 11
-46.6457
 21
58.9964
  0
LINE
  8
0
 10
-46.6457
 20
58.9964
 11
-46.393
 21
58.7954
  0
LINE
  8
0
 10
-46.393
 20
58.7954
 11
-46.1438
 21
58.59
  0
LINE
  8
0
 10
-46.1438
 20
58.59
 11
-45.8983
 21
58.3803
  0
LINE
  8
0
 10
-45.8983
 20
58.3803
 11
-45.6565
 21
58.1664
  0
LINE
  8
0
 10
-45.6565
 20
58.1664
 11
-45.4184
 21
57.9482
  0
LINE
  8
0
 10
-45.4184
 20
57.9482
 11
-45.1842
 21
57.726
  0
LINE
  8
0
 10
-45.1842
 20
57.726
 11
-44.9539
 21
57.4996
  0
LINE
  8
0
 10
-44.9539
 20
57.4996
 11
-44.7276
 21
57.2693
  0
LINE
  8
0
 10
-44.7276
 20
57.2693
 11
-44.5054
 21
57.0351
  0
LINE
  8
0
 10
-44.5054
 20
57.0351
 11
-44.2872
 21
56.7971
  0
LINE
  8
0
 10
-44.2872
 20
56.7971
 11
-44.0733
 21
56.5553
  0
LINE
  8
0
 10
-44.0733
 20
56.5553
 11
-43.8636
 21
56.3097
  0
LINE
  8
0
 10
-43.8636
 20
56.3097
 11
-43.6582
 21
56.0606
  0
LINE
  8
0
 10
-43.6582
 20
56.0606
 11
-43.4572
 21
55.8079
  0
LINE
  8
0
 10
-43.4572
 20
55.8079
 11
-43.2607
 21
55.5517
  0
LINE
  8
0
 10
-43.2607
 20
55.5517
 11
-43.0686
 21
55.2922
  0
LINE
  8
0
 10
-43.0686
 20
55.2922
 11
-42.8811
 21
55.0293
  0
LINE
  8
0
 10
-42.8811
 20
55.0293
 11
-42.6982
 21
54.7632
  0
LINE
  8
0
 10
-42.6982
 20
54.7632
 11
-42.52
 21
54.494
  0
LINE
  8
0
 10
-42.52
 20
54.494
 11
-42.3465
 21
54.2217
  0
LINE
  8
0
 10
-42.3465
 20
54.2217
 11
-42.1778
 21
53.9464
  0
LINE
  8
0
 10
-42.1778
 20
53.9464
 11
-42.0139
 21
53.6682
  0
LINE
  8
0
 10
-42.0139
 20
53.6682
 11
-41.8549
 21
53.3871
  0
LINE
  8
0
 10
-41.8549
 20
53.3871
 11
-41.7009
 21
53.1034
  0
LINE
  8
0
 10
-41.7009
 20
53.1034
 11
-41.5518
 21
52.817
  0
LINE
  8
0
 10
-41.5518
 20
52.817
 11
-41.4077
 21
52.528
  0
LINE
  8
0
 10
-41.4077
 20
52.528
 11
-41.2687
 21
52.2366
  0
LINE
  8
0
 10
-41.2687
 20
52.2366
 11
-41.1348
 21
51.9428
  0
LINE
  8
0
 10
-41.1348
 20
51.9428
 11
-41.0061
 21
51.6467
  0
LINE
  8
0
 10
-41.0061
 20
51.6467
 11
-40.8825
 21
51.3484
  0
LINE
  8
0
 10
-40.8825
 20
51.3484
 11
-40.7642
 21
51.048
  0
LINE
  8
0
 10
-40.7642
 20
51.048
 11
-40.6511
 21
50.7455
  0
LINE
  8
0
 10
-40.6511
 20
50.7455
 11
-40.5433
 21
50.4412
  0
LINE
  8
0
 10
-40.5433
 20
50.4412
 11
-40.4409
 21
50.135
  0
LINE
  8
0
 10
-40.4409
 20
50.135
 11
-40.3438
 21
49.827
  0
LINE
  8
0
 10
-40.3438
 20
49.827
 11
-40.2521
 21
49.5175
  0
LINE
  8
0
 10
-40.2521
 20
49.5175
 11
-40.1658
 21
49.2063
  0
LINE
  8
0
 10
-40.1658
 20
49.2063
 11
-40.0849
 21
48.8937
  0
LINE
  8
0
 10
-40.0849
 20
48.8937
 11
-40.0096
 21
48.5798
  0
LINE
  8
0
 10
-40.0096
 20
48.5798
 11
-39.9397
 21
48.2645
  0
LINE
  8
0
 10
-39.9397
 20
48.2645
 11
-39.8753
 21
47.9481
  0
LINE
  8
0
 10
-39.8753
 20
47.9481
 11
-39.8165
 21
47.6307
  0
LINE
  8
0
 10
-39.8165
 20
47.6307
 11
-39.7632
 21
47.3122
  0
LINE
  8
0
 10
-39.7632
 20
47.3122
 11
-39.7155
 21
46.9929
  0
LINE
  8
0
 10
-39.7155
 20
46.9929
 11
-39.6733
 21
46.6727
  0
LINE
  8
0
 10
-39.6733
 20
46.6727
 11
-39.6367
 21
46.3519
  0
LINE
  8
0
 10
-39.6367
 20
46.3519
 11
-39.6058
 21
46.0305
  0
LINE
  8
0
 10
-39.6058
 20
46.0305
 11
-39.5805
 21
45.7087
  0
LINE
  8
0
 10
-39.5805
 20
45.7087
 11
-39.5608
 21
45.3864
  0
LINE
  8
0
 10
-39.5608
 20
45.3864
 11
-39.5467
 21
45.0638
  0
LINE
  8
0
 10
-39.5467
 20
45.0638
 11
-39.5382
 21
44.741
  0
LINE
  8
0
 10
-39.5382
 20
44.741
 11
-39.5354
 21
44.4182
  0
LINE
  8
0
 10
-39.5354
 20
44.4182
 11
-39.5382
 21
44.0953
  0
LINE
  8
0
 10
-39.5382
 20
44.0953
 11
-39.5467
 21
43.7725
  0
LINE
  8
0
 10
-39.5467
 20
43.7725
 11
-39.5608
 21
43.45
  0
LINE
  8
0
 10
-39.5608
 20
43.45
 11
-39.5805
 21
43.1277
  0
LINE
  8
0
 10
-39.5805
 20
43.1277
 11
-39.6058
 21
42.8058
  0
LINE
  8
0
 10
-39.6058
 20
42.8058
 11
-39.6367
 21
42.4844
  0
LINE
  8
0
 10
-39.6367
 20
42.4844
 11
-39.6733
 21
42.1636
  0
LINE
  8
0
 10
-39.6733
 20
42.1636
 11
-39.7155
 21
41.8435
  0
LINE
  8
0
 10
-39.7155
 20
41.8435
 11
-39.7632
 21
41.5241
  0
LINE
  8
0
 10
-39.7632
 20
41.5241
 11
-39.8165
 21
41.2057
  0
LINE
  8
0
 10
-39.8165
 20
41.2057
 11
-39.8753
 21
40.8882
  0
LINE
  8
0
 10
-39.8753
 20
40.8882
 11
-39.9397
 21
40.5718
  0
LINE
  8
0
 10
-39.9397
 20
40.5718
 11
-40.0096
 21
40.2566
  0
LINE
  8
0
 10
-40.0096
 20
40.2566
 11
-40.0849
 21
39.9426
  0
LINE
  8
0
 10
-40.0849
 20
39.9426
 11
-40.1658
 21
39.63
  0
LINE
  8
0
 10
-40.1658
 20
39.63
 11
-40.2521
 21
39.3189
  0
LINE
  8
0
 10
-40.2521
 20
39.3189
 11
-40.3438
 21
39.0093
  0
LINE
  8
0
 10
-40.3438
 20
39.0093
 11
-40.4409
 21
38.7014
  0
LINE
  8
0
 10
-40.4409
 20
38.7014
 11
-40.5433
 21
38.3952
  0
LINE
  8
0
 10
-40.5433
 20
38.3952
 11
-40.6511
 21
38.0908
  0
LINE
  8
0
 10
-40.6511
 20
38.0908
 11
-40.7642
 21
37.7884
  0
LINE
  8
0
 10
-40.7642
 20
37.7884
 11
-40.8825
 21
37.4879
  0
LINE
  8
0
 10
-40.8825
 20
37.4879
 11
-41.0061
 21
37.1896
  0
LINE
  8
0
 10
-41.0061
 20
37.1896
 11
-41.1348
 21
36.8935
  0
LINE
  8
0
 10
-41.1348
 20
36.8935
 11
-41.2687
 21
36.5997
  0
LINE
  8
0
 10
-41.2687
 20
36.5997
 11
-41.4077
 21
36.3083
  0
LINE
  8
0
 10
-41.4077
 20
36.3083
 11
-41.5518
 21
36.0193
  0
LINE
  8
0
 10
-41.5518
 20
36.0193
 11
-41.7009
 21
35.7329
  0
LINE
  8
0
 10
-41.7009
 20
35.7329
 11
-41.8549
 21
35.4492
  0
LINE
  8
0
 10
-41.8549
 20
35.4492
 11
-42.0139
 21
35.1682
  0
LINE
  8
0
 10
-42.0139
 20
35.1682
 11
-42.1778
 21
34.89
  0
LINE
  8
0
 10
-42.1778
 20
34.89
 11
-42.3465
 21
34.6147
  0
LINE
  8
0
 10
-42.3465
 20
34.6147
 11
-42.52
 21
34.3423
  0
LINE
  8
0
 10
-42.52
 20
34.3423
 11
-42.6982
 21
34.0731
  0
LINE
  8
0
 10
-42.6982
 20
34.0731
 11
-42.8811
 21
33.807
  0
LINE
  8
0
 10
-42.8811
 20
33.807
 11
-43.0686
 21
33.5441
  0
LINE
  8
0
 10
-43.0686
 20
33.5441
 11
-43.2607
 21
33.2846
  0
LINE
  8
0
 10
-43.2607
 20
33.2846
 11
-43.4572
 21
33.0284
  0
LINE
  8
0
 10
-43.4572
 20
33.0284
 11
-43.6582
 21
32.7757
  0
LINE
  8
0
 10
-43.6582
 20
32.7757
 11
-43.8636
 21
32.5266
  0
LINE
  8
0
 10
-43.8636
 20
32.5266
 11
-44.0733
 21
32.2811
  0
LINE
  8
0
 10
-44.0733
 20
32.2811
 11
-44.2872
 21
32.0392
  0
LINE
  8
0
 10
-44.2872
 20
32.0392
 11
-44.5054
 21
31.8012
  0
LINE
  8
0
 10
-44.5054
 20
31.8012
 11
-44.7276
 21
31.567
  0
LINE
  8
0
 10
-44.7276
 20
31.567
 11
-44.9539
 21
31.3367
  0
LINE
  8
0
 10
-44.9539
 20
31.3367
 11
-45.1842
 21
31.1104
  0
LINE
  8
0
 10
-45.1842
 20
31.1104
 11
-45.4184
 21
30.8881
  0
LINE
  8
0
 10
-45.4184
 20
30.8881
 11
-45.6565
 21
30.67
  0
LINE
  8
0
 10
-45.6565
 20
30.67
 11
-45.8983
 21
30.456
  0
LINE
  8
0
 10
-45.8983
 20
30.456
 11
-46.1438
 21
30.2464
  0
LINE
  8
0
 10
-46.1438
 20
30.2464
 11
-46.393
 21
30.041
  0
LINE
  8
0
 10
-46.393
 20
30.041
 11
-46.6457
 21
29.84
  0
LINE
  8
0
 10
-46.6457
 20
29.84
 11
-46.9018
 21
29.6434
  0
LINE
  8
0
 10
-46.9018
 20
29.6434
 11
-47.1614
 21
29.4514
  0
LINE
  8
0
 10
-47.1614
 20
29.4514
 11
-47.4242
 21
29.2639
  0
LINE
  8
0
 10
-47.4242
 20
29.2639
 11
-47.6903
 21
29.081
  0
LINE
  8
0
 10
-47.6903
 20
29.081
 11
-47.9596
 21
28.9028
  0
LINE
  8
0
 10
-47.9596
 20
28.9028
 11
-48.2319
 21
28.7293
  0
LINE
  8
0
 10
-48.2319
 20
28.7293
 11
-48.5072
 21
28.5606
  0
LINE
  8
0
 10
-48.5072
 20
28.5606
 11
-48.7854
 21
28.3967
  0
LINE
  8
0
 10
-48.7854
 20
28.3967
 11
-49.0664
 21
28.2377
  0
LINE
  8
0
 10
-49.0664
 20
28.2377
 11
-49.3502
 21
28.0836
  0
LINE
  8
0
 10
-49.3502
 20
28.0836
 11
-49.6366
 21
27.9345
  0
LINE
  8
0
 10
-49.6366
 20
27.9345
 11
-49.9255
 21
27.7905
  0
LINE
  8
0
 10
-49.9255
 20
27.7905
 11
-50.217
 21
27.6515
  0
LINE
  8
0
 10
-50.217
 20
27.6515
 11
-50.5108
 21
27.5176
  0
LINE
  8
0
 10
-50.5108
 20
27.5176
 11
-50.8069
 21
27.3888
  0
LINE
  8
0
 10
-50.8069
 20
27.3888
 11
-51.1052
 21
27.2653
  0
LINE
  8
0
 10
-51.1052
 20
27.2653
 11
-51.4056
 21
27.1469
  0
LINE
  8
0
 10
-51.4056
 20
27.1469
 11
-51.708
 21
27.0339
  0
LINE
  8
0
 10
-51.708
 20
27.0339
 11
-52.0124
 21
26.9261
  0
LINE
  8
0
 10
-52.0124
 20
26.9261
 11
-52.3186
 21
26.8236
  0
LINE
  8
0
 10
-52.3186
 20
26.8236
 11
-52.6265
 21
26.7265
  0
LINE
  8
0
 10
-52.6265
 20
26.7265
 11
-52.9361
 21
26.6348
  0
LINE
  8
0
 10
-52.9361
 20
26.6348
 11
-53.2473
 21
26.5485
  0
LINE
  8
0
 10
-53.2473
 20
26.5485
 11
-53.5599
 21
26.4677
  0
LINE
  8
0
 10
-53.5599
 20
26.4677
 11
-53.8738
 21
26.3923
  0
LINE
  8
0
 10
-53.8738
 20
26.3923
 11
-54.189
 21
26.3224
  0
LINE
  8
0
 10
-54.189
 20
26.3224
 11
-54.5054
 21
26.2581
  0
LINE
  8
0
 10
-54.5054
 20
26.2581
 11
-54.8229
 21
26.1992
  0
LINE
  8
0
 10
-54.8229
 20
26.1992
 11
-55.1414
 21
26.1459
  0
LINE
  8
0
 10
-55.1414
 20
26.1459
 11
-55.4607
 21
26.0982
  0
LINE
  8
0
 10
-55.4607
 20
26.0982
 11
-55.7808
 21
26.0561
  0
LINE
  8
0
 10
-55.7808
 20
26.0561
 11
-56.1016
 21
26.0195
  0
LINE
  8
0
 10
-56.1016
 20
26.0195
 11
-56.423
 21
25.9886
  0
LINE
  8
0
 10
-56.423
 20
25.9886
 11
-56.7449
 21
25.9632
  0
LINE
  8
0
 10
-56.7449
 20
25.9632
 11
-57.0672
 21
25.9435
  0
LINE
  8
0
 10
-57.0672
 20
25.9435
 11
-57.3898
 21
25.9294
  0
LINE
  8
0
 10
-57.3898
 20
25.9294
 11
-57.7125
 21
25.921
  0
LINE
  8
0
 10
-57.7125
 20
25.921
 11
-58.0354
 21
25.9182
  0
LINE
  8
0
 10
-58.0354
 20
25.9182
 11
-58.3583
 21
25.921
  0
LINE
  8
0
 10
-58.3583
 20
25.921
 11
-58.681
 21
25.9294
  0
LINE
  8
0
 10
-58.681
 20
25.9294
 11
-59.0036
 21
25.9435
  0
LINE
  8
0
 10
-59.0036
 20
25.9435
 11
-59.3259
 21
25.9632
  0
LINE
  8
0
 10
-59.3259
 20
25.9632
 11
-59.6478
 21
25.9886
  0
LINE
  8
0
 10
-59.6478
 20
25.9886
 11
-59.9692
 21
26.0195
  0
LINE
  8
0
 10
-59.9692
 20
26.0195
 11
-60.29
 21
26.0561
  0
LINE
  8
0
 10
-60.29
 20
26.0561
 11
-60.6101
 21
26.0982
  0
LINE
  8
0
 10
-60.6101
 20
26.0982
 11
-60.9294
 21
26.1459
  0
LINE
  8
0
 10
-60.9294
 20
26.1459
 11
-61.2479
 21
26.1992
  0
LINE
  8
0
 10
-61.2479
 20
26.1992
 11
-61.5654
 21
26.2581
  0
LINE
  8
0
 10
-61.5654
 20
26.2581
 11
-61.8818
 21
26.3224
  0
LINE
  8
0
 10
-61.8818
 20
26.3224
 11
-62.197
 21
26.3923
  0
LINE
  8
0
 10
-62.197
 20
26.3923
 11
-62.511
 21
26.4677
  0
LINE
  8
0
 10
-62.511
 20
26.4677
 11
-62.8236
 21
26.5485
  0
LINE
  8
0
 10
-62.8236
 20
26.5485
 11
-75.6351
 21
-21.2648
  0
LINE
  8
0
 10
-75.6351
 20
-21.2648
 11
-72.2705
 21
-22.1663
  0
LINE
  8
0
 10
-72.2705
 20
-22.1663
 11
-72.236
 21
-22.1757
  0
LINE
  8
0
 10
-72.236
 20
-22.1757
 11
-72.0188
 21
-22.236
  0
LINE
  8
0
 10
-72.0188
 20
-22.236
 11
-71.9421
 21
-22.258
  0
LINE
  8
0
 10
-71.9421
 20
-22.258
 11
-71.7655
 21
-22.3103
  0
LINE
  8
0
 10
-71.7655
 20
-22.3103
 11
-71.6913
 21
-22.333
  0
LINE
  8
0
 10
-71.6913
 20
-22.333
 11
-71.5186
 21
-22.3874
  0
LINE
  8
0
 10
-71.5186
 20
-22.3874
 11
-71.4411
 21
-22.4126
  0
LINE
  8
0
 10
-71.4411
 20
-22.4126
 11
-71.2691
 21
-22.4701
  0
LINE
  8
0
 10
-71.2691
 20
-22.4701
 11
-71.1952
 21
-22.4956
  0
LINE
  8
0
 10
-71.1952
 20
-22.4956
 11
-71.021
 21
-22.5573
  0
LINE
  8
0
 10
-71.021
 20
-22.5573
 11
-70.9467
 21
-22.5843
  0
LINE
  8
0
 10
-70.9467
 20
-22.5843
 11
-70.7764
 21
-22.648
  0
LINE
  8
0
 10
-70.7764
 20
-22.648
 11
-70.7016
 21
-22.6767
  0
LINE
  8
0
 10
-70.7016
 20
-22.6767
 11
-70.533
 21
-22.7431
  0
LINE
  8
0
 10
-70.533
 20
-22.7431
 11
-70.4607
 21
-22.7723
  0
LINE
  8
0
 10
-70.4607
 20
-22.7723
 11
-70.2888
 21
-22.8435
  0
LINE
  8
0
 10
-70.2888
 20
-22.8435
 11
-70.2186
 21
-22.8733
  0
LINE
  8
0
 10
-70.2186
 20
-22.8733
 11
-70.0499
 21
-22.9467
  0
LINE
  8
0
 10
-70.0499
 20
-22.9467
 11
-69.9768
 21
-22.9792
  0
LINE
  8
0
 10
-69.9768
 20
-22.9792
 11
-69.812
 21
-23.0543
  0
LINE
  8
0
 10
-69.812
 20
-23.0543
 11
-69.7398
 21
-23.088
  0
LINE
  8
0
 10
-69.7398
 20
-23.088
 11
-69.575
 21
-23.1666
  0
LINE
  8
0
 10
-69.575
 20
-23.1666
 11
-69.5033
 21
-23.2016
  0
LINE
  8
0
 10
-69.5033
 20
-23.2016
 11
-69.3404
 21
-23.2828
  0
LINE
  8
0
 10
-69.3404
 20
-23.2828
 11
-69.2714
 21
-23.3179
  0
LINE
  8
0
 10
-69.2714
 20
-23.3179
 11
-69.1071
 21
-23.4035
  0
LINE
  8
0
 10
-69.1071
 20
-23.4035
 11
-69.0384
 21
-23.44
  0
LINE
  8
0
 10
-69.0384
 20
-23.44
 11
-68.8775
 21
-23.5273
  0
LINE
  8
0
 10
-68.8775
 20
-23.5273
 11
-68.8075
 21
-23.5662
  0
LINE
  8
0
 10
-68.8075
 20
-23.5662
 11
-68.6501
 21
-23.6552
  0
LINE
  8
0
 10
-68.6501
 20
-23.6552
 11
-68.5811
 21
-23.695
  0
LINE
  8
0
 10
-68.5811
 20
-23.695
 11
-68.4226
 21
-23.7884
  0
LINE
  8
0
 10
-68.4226
 20
-23.7884
 11
-68.3557
 21
-23.8286
  0
LINE
  8
0
 10
-68.3557
 20
-23.8286
 11
-68.1987
 21
-23.9248
  0
LINE
  8
0
 10
-68.1987
 20
-23.9248
 11
-68.132
 21
-23.9665
  0
LINE
  8
0
 10
-68.132
 20
-23.9665
 11
-67.979
 21
-24.064
  0
LINE
  8
0
 10
-67.979
 20
-24.064
 11
-67.9143
 21
-24.106
  0
LINE
  8
0
 10
-67.9143
 20
-24.106
 11
-67.7596
 21
-24.2084
  0
LINE
  8
0
 10
-67.7596
 20
-24.2084
 11
-67.6941
 21
-24.2526
  0
LINE
  8
0
 10
-67.6941
 20
-24.2526
 11
-67.5438
 21
-24.3559
  0
LINE
  8
0
 10
-67.5438
 20
-24.3559
 11
-67.4777
 21
-24.4021
  0
LINE
  8
0
 10
-67.4777
 20
-24.4021
 11
-67.3312
 21
-24.5066
  0
LINE
  8
0
 10
-67.3312
 20
-24.5066
 11
-67.2661
 21
-24.554
  0
LINE
  8
0
 10
-67.2661
 20
-24.554
 11
-67.1195
 21
-24.6624
  0
LINE
  8
0
 10
-67.1195
 20
-24.6624
 11
-67.0564
 21
-24.71
  0
LINE
  8
0
 10
-67.0564
 20
-24.71
 11
-66.9118
 21
-24.8209
  0
LINE
  8
0
 10
-66.9118
 20
-24.8209
 11
-66.848
 21
-24.8708
  0
LINE
  8
0
 10
-66.848
 20
-24.8708
 11
-66.7058
 21
-24.9839
  0
LINE
  8
0
 10
-66.7058
 20
-24.9839
 11
-66.6455
 21
-25.0327
  0
LINE
  8
0
 10
-66.6455
 20
-25.0327
 11
-66.5027
 21
-25.1504
  0
LINE
  8
0
 10
-66.5027
 20
-25.1504
 11
-66.4431
 21
-25.2004
  0
LINE
  8
0
 10
-66.4431
 20
-25.2004
 11
-66.3043
 21
-25.319
  0
LINE
  8
0
 10
-66.3043
 20
-25.319
 11
-66.2448
 21
-25.3707
  0
LINE
  8
0
 10
-66.2448
 20
-25.3707
 11
-66.1071
 21
-25.4926
  0
LINE
  8
0
 10
-66.1071
 20
-25.4926
 11
-66.0493
 21
-25.5445
  0
LINE
  8
0
 10
-66.0493
 20
-25.5445
 11
-65.913
 21
-25.6695
  0
LINE
  8
0
 10
-65.913
 20
-25.6695
 11
-65.8561
 21
-25.7225
  0
LINE
  8
0
 10
-65.8561
 20
-25.7225
 11
-65.7234
 21
-25.8484
  0
LINE
  8
0
 10
-65.7234
 20
-25.8484
 11
-65.6675
 21
-25.9025
  0
LINE
  8
0
 10
-65.6675
 20
-25.9025
 11
-65.5366
 21
-26.0311
  0
LINE
  8
0
 10
-65.5366
 20
-26.0311
 11
-65.4804
 21
-26.0873
  0
LINE
  8
0
 10
-65.4804
 20
-26.0873
 11
-65.3518
 21
-26.2182
  0
LINE
  8
0
 10
-65.3518
 20
-26.2182
 11
-65.2978
 21
-26.2741
  0
LINE
  8
0
 10
-65.2978
 20
-26.2741
 11
-65.1719
 21
-26.4068
  0
LINE
  8
0
 10
-65.1719
 20
-26.4068
 11
-65.1188
 21
-26.4637
  0
LINE
  8
0
 10
-65.1188
 20
-26.4637
 11
-64.9939
 21
-26.6
  0
LINE
  8
0
 10
-64.9939
 20
-26.6
 11
-64.9419
 21
-26.6577
  0
LINE
  8
0
 10
-64.9419
 20
-26.6577
 11
-64.82
 21
-26.7955
  0
LINE
  8
0
 10
-64.82
 20
-26.7955
 11
-64.7683
 21
-26.855
  0
LINE
  8
0
 10
-64.7683
 20
-26.855
 11
-64.6497
 21
-26.9938
  0
LINE
  8
0
 10
-64.6497
 20
-26.9938
 11
-64.5997
 21
-27.0534
  0
LINE
  8
0
 10
-64.5997
 20
-27.0534
 11
-64.482
 21
-27.1962
  0
LINE
  8
0
 10
-64.482
 20
-27.1962
 11
-64.4332
 21
-27.2564
  0
LINE
  8
0
 10
-64.4332
 20
-27.2564
 11
-64.3201
 21
-27.3987
  0
LINE
  8
0
 10
-64.3201
 20
-27.3987
 11
-64.2702
 21
-27.4625
  0
LINE
  8
0
 10
-64.2702
 20
-27.4625
 11
-64.1598
 21
-27.6064
  0
LINE
  8
0
 10
-64.1598
 20
-27.6064
 11
-64.1119
 21
-27.67
  0
LINE
  8
0
 10
-64.1119
 20
-27.67
 11
-64.0031
 21
-27.817
  0
LINE
  8
0
 10
-64.0031
 20
-27.817
 11
-63.9573
 21
-27.8801
  0
LINE
  8
0
 10
-63.9573
 20
-27.8801
 11
-63.8495
 21
-28.0312
  0
LINE
  8
0
 10
-63.8495
 20
-28.0312
 11
-63.8053
 21
-28.0943
  0
LINE
  8
0
 10
-63.8053
 20
-28.0943
 11
-63.7012
 21
-28.2458
  0
LINE
  8
0
 10
-63.7012
 20
-28.2458
 11
-63.6579
 21
-28.31
  0
LINE
  8
0
 10
-63.6579
 20
-28.31
 11
-63.557
 21
-28.4623
  0
LINE
  8
0
 10
-63.557
 20
-28.4623
 11
-63.5137
 21
-28.5291
  0
LINE
  8
0
 10
-63.5137
 20
-28.5291
 11
-63.4152
 21
-28.6837
  0
LINE
  8
0
 10
-63.4152
 20
-28.6837
 11
-63.3736
 21
-28.7502
  0
LINE
  8
0
 10
-63.3736
 20
-28.7502
 11
-63.2778
 21
-28.9067
  0
LINE
  8
0
 10
-63.2778
 20
-28.9067
 11
-63.2377
 21
-28.9733
  0
LINE
  8
0
 10
-63.2377
 20
-28.9733
 11
-62.0961
 21
-30.9114
  0
LINE
  8
0
 10
-62.0961
 20
-30.9114
 11
-62.044
 21
-30.9965
  0
LINE
  8
0
 10
-62.044
 20
-30.9965
 11
-61.9892
 21
-31.0798
  0
LINE
  8
0
 10
-61.9892
 20
-31.0798
 11
-61.9316
 21
-31.1612
  0
LINE
  8
0
 10
-61.9316
 20
-31.1612
 11
-61.8714
 21
-31.2407
  0
LINE
  8
0
 10
-61.8714
 20
-31.2407
 11
-61.8085
 21
-31.3181
  0
LINE
  8
0
 10
-61.8085
 20
-31.3181
 11
-61.7431
 21
-31.3934
  0
LINE
  8
0
 10
-61.7431
 20
-31.3934
 11
-61.6752
 21
-31.4665
  0
LINE
  8
0
 10
-61.6752
 20
-31.4665
 11
-61.605
 21
-31.5373
  0
LINE
  8
0
 10
-61.605
 20
-31.5373
 11
-61.5324
 21
-31.6057
  0
LINE
  8
0
 10
-61.5324
 20
-31.6057
 11
-61.4576
 21
-31.6716
  0
LINE
  8
0
 10
-61.4576
 20
-31.6716
 11
-61.3807
 21
-31.7351
  0
LINE
  8
0
 10
-61.3807
 20
-31.7351
 11
-61.3017
 21
-31.7959
  0
LINE
  8
0
 10
-61.3017
 20
-31.7959
 11
-61.2206
 21
-31.8541
  0
LINE
  8
0
 10
-61.2206
 20
-31.8541
 11
-61.1378
 21
-31.9095
  0
LINE
  8
0
 10
-61.1378
 20
-31.9095
 11
-61.0531
 21
-31.9622
  0
LINE
  8
0
 10
-61.0531
 20
-31.9622
 11
-60.9667
 21
-32.012
  0
LINE
  8
0
 10
-60.9667
 20
-32.012
 11
-60.8787
 21
-32.059
  0
LINE
  8
0
 10
-60.8787
 20
-32.059
 11
-60.7892
 21
-32.1029
  0
LINE
  8
0
 10
-60.7892
 20
-32.1029
 11
-60.6983
 21
-32.1439
  0
LINE
  8
0
 10
-60.6983
 20
-32.1439
 11
-60.606
 21
-32.1819
  0
LINE
  8
0
 10
-60.606
 20
-32.1819
 11
-60.5126
 21
-32.2167
  0
LINE
  8
0
 10
-60.5126
 20
-32.2167
 11
-60.418
 21
-32.2484
  0
LINE
  8
0
 10
-60.418
 20
-32.2484
 11
-60.3225
 21
-32.277
  0
LINE
  8
0
 10
-60.3225
 20
-32.277
 11
-60.226
 21
-32.3024
  0
LINE
  8
0
 10
-60.226
 20
-32.3024
 11
-60.1288
 21
-32.3245
  0
LINE
  8
0
 10
-60.1288
 20
-32.3245
 11
-60.0309
 21
-32.3434
  0
LINE
  8
0
 10
-60.0309
 20
-32.3434
 11
-59.9324
 21
-32.3591
  0
LINE
  8
0
 10
-59.9324
 20
-32.3591
 11
-59.8334
 21
-32.3714
  0
LINE
  8
0
 10
-59.8334
 20
-32.3714
 11
-59.7341
 21
-32.3805
  0
LINE
  8
0
 10
-59.7341
 20
-32.3805
 11
-59.6346
 21
-32.3862
  0
LINE
  8
0
 10
-59.6346
 20
-32.3862
 11
-59.5349
 21
-32.3887
  0
LINE
  8
0
 10
-59.5349
 20
-32.3887
 11
-59.4351
 21
-32.3878
  0
LINE
  8
0
 10
19.3757
 20
72.0078
 11
19.2775
 21
72.0251
  0
LINE
  8
0
 10
19.2775
 20
72.0251
 11
19.1815
 21
72.0521
  0
LINE
  8
0
 10
19.1815
 20
72.0521
 11
19.0887
 21
72.0885
  0
LINE
  8
0
 10
19.0887
 20
72.0885
 11
19
 21
72.134
  0
LINE
  8
0
 10
19
 20
72.134
 11
18.9162
 21
72.188
  0
LINE
  8
0
 10
18.9162
 20
72.188
 11
18.8383
 21
72.2502
  0
LINE
  8
0
 10
18.8383
 20
72.2502
 11
18.7669
 21
72.3198
  0
LINE
  8
0
 10
18.7669
 20
72.3198
 11
18.7029
 21
72.3962
  0
LINE
  8
0
 10
18.7029
 20
72.3962
 11
18.6467
 21
72.4786
  0
LINE
  8
0
 10
18.6467
 20
72.4786
 11
18.599
 21
72.5661
  0
LINE
  8
0
 10
18.599
 20
72.5661
 11
18.5603
 21
72.658
  0
LINE
  8
0
 10
18.5603
 20
72.658
 11
18.5309
 21
72.7532
  0
LINE
  8
0
 10
18.5309
 20
72.7532
 11
18.5112
 21
72.851
  0
LINE
  8
0
 10
18.5112
 20
72.851
 11
18.5012
 21
72.9501
  0
LINE
  8
0
 10
18.5012
 20
72.9501
 11
18.5012
 21
73.0498
  0
LINE
  8
0
 10
18.5012
 20
73.0498
 11
18.5112
 21
73.149
  0
LINE
  8
0
 10
18.5112
 20
73.149
 11
18.5309
 21
73.2467
  0
LINE
  8
0
 10
18.5309
 20
73.2467
 11
18.5603
 21
73.342
  0
LINE
  8
0
 10
18.5603
 20
73.342
 11
18.599
 21
73.4339
  0
LINE
  8
0
 10
18.599
 20
73.4339
 11
18.6467
 21
73.5214
  0
LINE
  8
0
 10
18.6467
 20
73.5214
 11
18.7029
 21
73.6038
  0
LINE
  8
0
 10
18.7029
 20
73.6038
 11
18.7669
 21
73.6802
  0
LINE
  8
0
 10
18.7669
 20
73.6802
 11
18.8383
 21
73.7498
  0
LINE
  8
0
 10
18.8383
 20
73.7498
 11
18.9162
 21
73.8119
  0
LINE
  8
0
 10
18.9162
 20
73.8119
 11
19
 21
73.866
  0
LINE
  8
0
 10
19
 20
73.866
 11
19.0887
 21
73.9115
  0
LINE
  8
0
 10
19.0887
 20
73.9115
 11
19.1815
 21
73.9479
  0
LINE
  8
0
 10
19.1815
 20
73.9479
 11
19.2775
 21
73.9749
  0
LINE
  8
0
 10
19.2775
 20
73.9749
 11
19.3757
 21
73.9922
  0
LINE
  8
0
 10
19.3757
 20
73.9922
 11
19.4751
 21
73.9997
  0
LINE
  8
0
 10
19.4751
 20
73.9997
 11
19.5747
 21
73.9972
  0
LINE
  8
0
 10
19.5747
 20
73.9972
 11
19.6736
 21
73.9848
  0
LINE
  8
0
 10
19.6736
 20
73.9848
 11
19.7708
 21
73.9626
  0
LINE
  8
0
 10
19.7708
 20
73.9626
 11
19.8653
 21
73.9309
  0
LINE
  8
0
 10
19.8653
 20
73.9309
 11
19.9562
 21
73.8899
  0
LINE
  8
0
 10
19.9562
 20
73.8899
 11
20.0425
 21
73.84
  0
LINE
  8
0
 10
20.0425
 20
73.84
 11
20.1235
 21
73.7818
  0
LINE
  8
0
 10
20.1235
 20
73.7818
 11
20.1982
 21
73.7159
  0
LINE
  8
0
 10
20.1982
 20
73.7159
 11
20.266
 21
73.6428
  0
LINE
  8
0
 10
20.266
 20
73.6428
 11
20.3262
 21
73.5633
  0
LINE
  8
0
 10
20.3262
 20
73.5633
 11
20.3782
 21
73.4782
  0
LINE
  8
0
 10
20.3782
 20
73.4782
 11
20.4215
 21
73.3884
  0
LINE
  8
0
 10
20.4215
 20
73.3884
 11
20.4556
 21
73.2948
  0
LINE
  8
0
 10
20.4556
 20
73.2948
 11
20.4802
 21
73.1981
  0
LINE
  8
0
 10
20.4802
 20
73.1981
 11
20.495
 21
73.0996
  0
LINE
  8
0
 10
20.495
 20
73.0996
 11
20.5
 21
73
  0
LINE
  8
0
 10
20.5
 20
73
 11
20.495
 21
72.9004
  0
LINE
  8
0
 10
20.495
 20
72.9004
 11
20.4802
 21
72.8018
  0
LINE
  8
0
 10
20.4802
 20
72.8018
 11
20.4556
 21
72.7052
  0
LINE
  8
0
 10
20.4556
 20
72.7052
 11
20.4215
 21
72.6116
  0
LINE
  8
0
 10
20.4215
 20
72.6116
 11
20.3782
 21
72.5217
  0
LINE
  8
0
 10
20.3782
 20
72.5217
 11
20.3262
 21
72.4367
  0
LINE
  8
0
 10
20.3262
 20
72.4367
 11
20.266
 21
72.3572
  0
LINE
  8
0
 10
20.266
 20
72.3572
 11
20.1982
 21
72.2841
  0
LINE
  8
0
 10
20.1982
 20
72.2841
 11
20.1235
 21
72.2182
  0
LINE
  8
0
 10
20.1235
 20
72.2182
 11
20.0425
 21
72.16
  0
LINE
  8
0
 10
20.0425
 20
72.16
 11
19.9562
 21
72.1101
  0
LINE
  8
0
 10
19.9562
 20
72.1101
 11
19.8653
 21
72.0691
  0
LINE
  8
0
 10
19.8653
 20
72.0691
 11
19.7708
 21
72.0374
  0
LINE
  8
0
 10
19.7708
 20
72.0374
 11
19.6736
 21
72.0152
  0
LINE
  8
0
 10
19.6736
 20
72.0152
 11
19.5747
 21
72.0028
  0
LINE
  8
0
 10
19.5747
 20
72.0028
 11
19.4751
 21
72.0003
  0
LINE
  8
0
 10
19.4751
 20
72.0003
 11
19.3757
 21
72.0078
  0
LINE
  8
0
 10
-44.3536
 20
69.7496
 11
-44.4517
 21
69.7669
  0
LINE
  8
0
 10
-44.4517
 20
69.7669
 11
-44.5477
 21
69.7939
  0
LINE
  8
0
 10
-44.5477
 20
69.7939
 11
-44.6405
 21
69.8303
  0
LINE
  8
0
 10
-44.6405
 20
69.8303
 11
-44.7292
 21
69.8758
  0
LINE
  8
0
 10
-44.7292
 20
69.8758
 11
-44.813
 21
69.9299
  0
LINE
  8
0
 10
-44.813
 20
69.9299
 11
-44.8909
 21
69.992
  0
LINE
  8
0
 10
-44.8909
 20
69.992
 11
-44.9623
 21
70.0616
  0
LINE
  8
0
 10
-44.9623
 20
70.0616
 11
-45.0264
 21
70.138
  0
LINE
  8
0
 10
-45.0264
 20
70.138
 11
-45.0825
 21
70.2204
  0
LINE
  8
0
 10
-45.0825
 20
70.2204
 11
-45.1302
 21
70.3079
  0
LINE
  8
0
 10
-45.1302
 20
70.3079
 11
-45.1689
 21
70.3998
  0
LINE
  8
0
 10
-45.1689
 20
70.3998
 11
-45.1983
 21
70.4951
  0
LINE
  8
0
 10
-45.1983
 20
70.4951
 11
-45.218
 21
70.5928
  0
LINE
  8
0
 10
-45.218
 20
70.5928
 11
-45.228
 21
70.692
  0
LINE
  8
0
 10
-45.228
 20
70.692
 11
-45.228
 21
70.7917
  0
LINE
  8
0
 10
-45.228
 20
70.7917
 11
-45.218
 21
70.8909
  0
LINE
  8
0
 10
-45.218
 20
70.8909
 11
-45.1983
 21
70.9886
  0
LINE
  8
0
 10
-45.1983
 20
70.9886
 11
-45.1689
 21
71.0838
  0
LINE
  8
0
 10
-45.1689
 20
71.0838
 11
-45.1302
 21
71.1757
  0
LINE
  8
0
 10
-45.1302
 20
71.1757
 11
-45.0825
 21
71.2633
  0
LINE
  8
0
 10
-45.0825
 20
71.2633
 11
-45.0264
 21
71.3456
  0
LINE
  8
0
 10
-45.0264
 20
71.3456
 11
-44.9623
 21
71.422
  0
LINE
  8
0
 10
-44.9623
 20
71.422
 11
-44.8909
 21
71.4916
  0
LINE
  8
0
 10
-44.8909
 20
71.4916
 11
-44.813
 21
71.5538
  0
LINE
  8
0
 10
-44.813
 20
71.5538
 11
-44.7292
 21
71.6078
  0
LINE
  8
0
 10
-44.7292
 20
71.6078
 11
-44.6405
 21
71.6533
  0
LINE
  8
0
 10
-44.6405
 20
71.6533
 11
-44.5477
 21
71.6897
  0
LINE
  8
0
 10
-44.5477
 20
71.6897
 11
-44.4517
 21
71.7168
  0
LINE
  8
0
 10
-44.4517
 20
71.7168
 11
-44.3536
 21
71.7341
  0
LINE
  8
0
 10
-44.3536
 20
71.7341
 11
-44.2542
 21
71.7415
  0
LINE
  8
0
 10
-44.2542
 20
71.7415
 11
-44.1545
 21
71.739
  0
LINE
  8
0
 10
-44.1545
 20
71.739
 11
-44.0556
 21
71.7266
  0
LINE
  8
0
 10
-44.0556
 20
71.7266
 11
-43.9584
 21
71.7044
  0
LINE
  8
0
 10
-43.9584
 20
71.7044
 11
-43.8639
 21
71.6727
  0
LINE
  8
0
 10
-43.8639
 20
71.6727
 11
-43.773
 21
71.6317
  0
LINE
  8
0
 10
-43.773
 20
71.6317
 11
-43.6867
 21
71.5818
  0
LINE
  8
0
 10
-43.6867
 20
71.5818
 11
-43.6057
 21
71.5237
  0
LINE
  8
0
 10
-43.6057
 20
71.5237
 11
-43.531
 21
71.4577
  0
LINE
  8
0
 10
-43.531
 20
71.4577
 11
-43.4632
 21
71.3846
  0
LINE
  8
0
 10
-43.4632
 20
71.3846
 11
-43.403
 21
71.3051
  0
LINE
  8
0
 10
-43.403
 20
71.3051
 11
-43.351
 21
71.2201
  0
LINE
  8
0
 10
-43.351
 20
71.2201
 11
-43.3077
 21
71.1302
  0
LINE
  8
0
 10
-43.3077
 20
71.1302
 11
-43.2737
 21
71.0366
  0
LINE
  8
0
 10
-43.2737
 20
71.0366
 11
-43.249
 21
70.94
  0
LINE
  8
0
 10
-43.249
 20
70.94
 11
-43.2342
 21
70.8414
  0
LINE
  8
0
 10
-43.2342
 20
70.8414
 11
-43.2292
 21
70.7418
  0
LINE
  8
0
 10
-43.2292
 20
70.7418
 11
-43.2342
 21
70.6423
  0
LINE
  8
0
 10
-43.2342
 20
70.6423
 11
-43.249
 21
70.5437
  0
LINE
  8
0
 10
-43.249
 20
70.5437
 11
-43.2737
 21
70.4471
  0
LINE
  8
0
 10
-43.2737
 20
70.4471
 11
-43.3077
 21
70.3534
  0
LINE
  8
0
 10
-43.3077
 20
70.3534
 11
-43.351
 21
70.2636
  0
LINE
  8
0
 10
-43.351
 20
70.2636
 11
-43.403
 21
70.1785
  0
LINE
  8
0
 10
-43.403
 20
70.1785
 11
-43.4632
 21
70.099
  0
LINE
  8
0
 10
-43.4632
 20
70.099
 11
-43.531
 21
70.026
  0
LINE
  8
0
 10
-43.531
 20
70.026
 11
-43.6057
 21
69.96
  0
LINE
  8
0
 10
-43.6057
 20
69.96
 11
-43.6867
 21
69.9018
  0
LINE
  8
0
 10
-43.6867
 20
69.9018
 11
-43.773
 21
69.8519
  0
LINE
  8
0
 10
-43.773
 20
69.8519
 11
-43.8639
 21
69.8109
  0
LINE
  8
0
 10
-43.8639
 20
69.8109
 11
-43.9584
 21
69.7792
  0
LINE
  8
0
 10
-43.9584
 20
69.7792
 11
-44.0556
 21
69.757
  0
LINE
  8
0
 10
-44.0556
 20
69.757
 11
-44.1545
 21
69.7446
  0
LINE
  8
0
 10
-44.1545
 20
69.7446
 11
-44.2542
 21
69.7421
  0
LINE
  8
0
 10
-44.2542
 20
69.7421
 11
-44.3536
 21
69.7496
  0
LINE
  8
0
 10
64.8757
 20
51.0078
 11
64.7775
 21
51.0251
  0
LINE
  8
0
 10
64.7775
 20
51.0251
 11
64.6815
 21
51.0521
  0
LINE
  8
0
 10
64.6815
 20
51.0521
 11
64.5887
 21
51.0885
  0
LINE
  8
0
 10
64.5887
 20
51.0885
 11
64.5
 21
51.134
  0
LINE
  8
0
 10
64.5
 20
51.134
 11
64.4162
 21
51.188
  0
LINE
  8
0
 10
64.4162
 20
51.188
 11
64.3383
 21
51.2502
  0
LINE
  8
0
 10
64.3383
 20
51.2502
 11
64.2669
 21
51.3198
  0
LINE
  8
0
 10
64.2669
 20
51.3198
 11
64.2029
 21
51.3962
  0
LINE
  8
0
 10
64.2029
 20
51.3962
 11
64.1467
 21
51.4786
  0
LINE
  8
0
 10
64.1467
 20
51.4786
 11
64.099
 21
51.5661
  0
LINE
  8
0
 10
64.099
 20
51.5661
 11
64.0603
 21
51.658
  0
LINE
  8
0
 10
64.0603
 20
51.658
 11
64.0309
 21
51.7532
  0
LINE
  8
0
 10
64.0309
 20
51.7532
 11
64.0112
 21
51.851
  0
LINE
  8
0
 10
64.0112
 20
51.851
 11
64.0012
 21
51.9501
  0
LINE
  8
0
 10
64.0012
 20
51.9501
 11
64.0012
 21
52.0498
  0
LINE
  8
0
 10
64.0012
 20
52.0498
 11
64.0112
 21
52.149
  0
LINE
  8
0
 10
64.0112
 20
52.149
 11
64.0309
 21
52.2467
  0
LINE
  8
0
 10
64.0309
 20
52.2467
 11
64.0603
 21
52.342
  0
LINE
  8
0
 10
64.0603
 20
52.342
 11
64.099
 21
52.4339
  0
LINE
  8
0
 10
64.099
 20
52.4339
 11
64.1467
 21
52.5214
  0
LINE
  8
0
 10
64.1467
 20
52.5214
 11
64.2029
 21
52.6038
  0
LINE
  8
0
 10
64.2029
 20
52.6038
 11
64.2669
 21
52.6802
  0
LINE
  8
0
 10
64.2669
 20
52.6802
 11
64.3383
 21
52.7498
  0
LINE
  8
0
 10
64.3383
 20
52.7498
 11
64.4162
 21
52.8119
  0
LINE
  8
0
 10
64.4162
 20
52.8119
 11
64.5
 21
52.866
  0
LINE
  8
0
 10
64.5
 20
52.866
 11
64.5887
 21
52.9115
  0
LINE
  8
0
 10
64.5887
 20
52.9115
 11
64.6815
 21
52.9479
  0
LINE
  8
0
 10
64.6815
 20
52.9479
 11
64.7775
 21
52.9749
  0
LINE
  8
0
 10
64.7775
 20
52.9749
 11
64.8757
 21
52.9922
  0
LINE
  8
0
 10
64.8757
 20
52.9922
 11
64.9751
 21
52.9997
  0
LINE
  8
0
 10
64.9751
 20
52.9997
 11
65.0747
 21
52.9972
  0
LINE
  8
0
 10
65.0747
 20
52.9972
 11
65.1736
 21
52.9848
  0
LINE
  8
0
 10
65.1736
 20
52.9848
 11
65.2708
 21
52.9626
  0
LINE
  8
0
 10
65.2708
 20
52.9626
 11
65.3653
 21
52.9309
  0
LINE
  8
0
 10
65.3653
 20
52.9309
 11
65.4562
 21
52.8899
  0
LINE
  8
0
 10
65.4562
 20
52.8899
 11
65.5425
 21
52.84
  0
LINE
  8
0
 10
65.5425
 20
52.84
 11
65.6235
 21
52.7818
  0
LINE
  8
0
 10
65.6235
 20
52.7818
 11
65.6982
 21
52.7159
  0
LINE
  8
0
 10
65.6982
 20
52.7159
 11
65.766
 21
52.6428
  0
LINE
  8
0
 10
65.766
 20
52.6428
 11
65.8262
 21
52.5633
  0
LINE
  8
0
 10
65.8262
 20
52.5633
 11
65.8782
 21
52.4782
  0
LINE
  8
0
 10
65.8782
 20
52.4782
 11
65.9215
 21
52.3884
  0
LINE
  8
0
 10
65.9215
 20
52.3884
 11
65.9556
 21
52.2948
  0
LINE
  8
0
 10
65.9556
 20
52.2948
 11
65.9802
 21
52.1981
  0
LINE
  8
0
 10
65.9802
 20
52.1981
 11
65.995
 21
52.0996
  0
LINE
  8
0
 10
65.995
 20
52.0996
 11
66
 21
52
  0
LINE
  8
0
 10
66
 20
52
 11
65.995
 21
51.9004
  0
LINE
  8
0
 10
65.995
 20
51.9004
 11
65.9802
 21
51.8018
  0
LINE
  8
0
 10
65.9802
 20
51.8018
 11
65.9556
 21
51.7052
  0
LINE
  8
0
 10
65.9556
 20
51.7052
 11
65.9215
 21
51.6116
  0
LINE
  8
0
 10
65.9215
 20
51.6116
 11
65.8782
 21
51.5217
  0
LINE
  8
0
 10
65.8782
 20
51.5217
 11
65.8262
 21
51.4367
  0
LINE
  8
0
 10
65.8262
 20
51.4367
 11
65.766
 21
51.3572
  0
LINE
  8
0
 10
65.766
 20
51.3572
 11
65.6982
 21
51.2841
  0
LINE
  8
0
 10
65.6982
 20
51.2841
 11
65.6235
 21
51.2182
  0
LINE
  8
0
 10
65.6235
 20
51.2182
 11
65.5425
 21
51.16
  0
LINE
  8
0
 10
65.5425
 20
51.16
 11
65.4562
 21
51.1101
  0
LINE
  8
0
 10
65.4562
 20
51.1101
 11
65.3653
 21
51.0691
  0
LINE
  8
0
 10
65.3653
 20
51.0691
 11
65.2708
 21
51.0374
  0
LINE
  8
0
 10
65.2708
 20
51.0374
 11
65.1736
 21
51.0152
  0
LINE
  8
0
 10
65.1736
 20
51.0152
 11
65.0747
 21
51.0028
  0
LINE
  8
0
 10
65.0747
 20
51.0028
 11
64.9751
 21
51.0003
  0
LINE
  8
0
 10
64.9751
 20
51.0003
 11
64.8757
 21
51.0078
  0
LINE
  8
0
 10
-57.4239
 20
20.9703
 11
-57.5221
 21
20.9876
  0
LINE
  8
0
 10
-57.5221
 20
20.9876
 11
-57.6181
 21
21.0146
  0
LINE
  8
0
 10
-57.6181
 20
21.0146
 11
-57.7109
 21
21.0511
  0
LINE
  8
0
 10
-57.7109
 20
21.0511
 11
-57.7996
 21
21.0965
  0
LINE
  8
0
 10
-57.7996
 20
21.0965
 11
-57.8833
 21
21.1506
  0
LINE
  8
0
 10
-57.8833
 20
21.1506
 11
-57.9613
 21
21.2128
  0
LINE
  8
0
 10
-57.9613
 20
21.2128
 11
-58.0326
 21
21.2824
  0
LINE
  8
0
 10
-58.0326
 20
21.2824
 11
-58.0967
 21
21.3588
  0
LINE
  8
0
 10
-58.0967
 20
21.3588
 11
-58.1529
 21
21.4411
  0
LINE
  8
0
 10
-58.1529
 20
21.4411
 11
-58.2005
 21
21.5287
  0
LINE
  8
0
 10
-58.2005
 20
21.5287
 11
-58.2393
 21
21.6205
  0
LINE
  8
0
 10
-58.2393
 20
21.6205
 11
-58.2687
 21
21.7158
  0
LINE
  8
0
 10
-58.2687
 20
21.7158
 11
-58.2884
 21
21.8135
  0
LINE
  8
0
 10
-58.2884
 20
21.8135
 11
-58.2983
 21
21.9127
  0
LINE
  8
0
 10
-58.2983
 20
21.9127
 11
-58.2983
 21
22.0124
  0
LINE
  8
0
 10
-58.2983
 20
22.0124
 11
-58.2884
 21
22.1116
  0
LINE
  8
0
 10
-58.2884
 20
22.1116
 11
-58.2687
 21
22.2093
  0
LINE
  8
0
 10
-58.2687
 20
22.2093
 11
-58.2393
 21
22.3046
  0
LINE
  8
0
 10
-58.2393
 20
22.3046
 11
-58.2005
 21
22.3965
  0
LINE
  8
0
 10
-58.2005
 20
22.3965
 11
-58.1529
 21
22.484
  0
LINE
  8
0
 10
-58.1529
 20
22.484
 11
-58.0967
 21
22.5664
  0
LINE
  8
0
 10
-58.0967
 20
22.5664
 11
-58.0326
 21
22.6427
  0
LINE
  8
0
 10
-58.0326
 20
22.6427
 11
-57.9613
 21
22.7123
  0
LINE
  8
0
 10
-57.9613
 20
22.7123
 11
-57.8833
 21
22.7745
  0
LINE
  8
0
 10
-57.8833
 20
22.7745
 11
-57.7996
 21
22.8286
  0
LINE
  8
0
 10
-57.7996
 20
22.8286
 11
-57.7109
 21
22.8741
  0
LINE
  8
0
 10
-57.7109
 20
22.8741
 11
-57.6181
 21
22.9105
  0
LINE
  8
0
 10
-57.6181
 20
22.9105
 11
-57.5221
 21
22.9375
  0
LINE
  8
0
 10
-57.5221
 20
22.9375
 11
-57.4239
 21
22.9548
  0
LINE
  8
0
 10
-57.4239
 20
22.9548
 11
-57.3245
 21
22.9622
  0
LINE
  8
0
 10
-57.3245
 20
22.9622
 11
-57.2249
 21
22.9598
  0
LINE
  8
0
 10
-57.2249
 20
22.9598
 11
-57.1259
 21
22.9474
  0
LINE
  8
0
 10
-57.1259
 20
22.9474
 11
-57.0287
 21
22.9252
  0
LINE
  8
0
 10
-57.0287
 20
22.9252
 11
-56.9342
 21
22.8934
  0
LINE
  8
0
 10
-56.9342
 20
22.8934
 11
-56.8434
 21
22.8524
  0
LINE
  8
0
 10
-56.8434
 20
22.8524
 11
-56.757
 21
22.8026
  0
LINE
  8
0
 10
-56.757
 20
22.8026
 11
-56.6761
 21
22.7444
  0
LINE
  8
0
 10
-56.6761
 20
22.7444
 11
-56.6013
 21
22.6784
  0
LINE
  8
0
 10
-56.6013
 20
22.6784
 11
-56.5335
 21
22.6053
  0
LINE
  8
0
 10
-56.5335
 20
22.6053
 11
-56.4733
 21
22.5259
  0
LINE
  8
0
 10
-56.4733
 20
22.5259
 11
-56.4214
 21
22.4408
  0
LINE
  8
0
 10
-56.4214
 20
22.4408
 11
-56.3781
 21
22.351
  0
LINE
  8
0
 10
-56.3781
 20
22.351
 11
-56.344
 21
22.2573
  0
LINE
  8
0
 10
-56.344
 20
22.2573
 11
-56.3194
 21
22.1607
  0
LINE
  8
0
 10
-56.3194
 20
22.1607
 11
-56.3046
 21
22.0621
  0
LINE
  8
0
 10
-56.3046
 20
22.0621
 11
-56.2996
 21
21.9626
  0
LINE
  8
0
 10
-56.2996
 20
21.9626
 11
-56.3046
 21
21.863
  0
LINE
  8
0
 10
-56.3046
 20
21.863
 11
-56.3194
 21
21.7644
  0
LINE
  8
0
 10
-56.3194
 20
21.7644
 11
-56.344
 21
21.6678
  0
LINE
  8
0
 10
-56.344
 20
21.6678
 11
-56.3781
 21
21.5741
  0
LINE
  8
0
 10
-56.3781
 20
21.5741
 11
-56.4214
 21
21.4843
  0
LINE
  8
0
 10
-56.4214
 20
21.4843
 11
-56.4733
 21
21.3992
  0
LINE
  8
0
 10
-56.4733
 20
21.3992
 11
-56.5335
 21
21.3198
  0
LINE
  8
0
 10
-56.5335
 20
21.3198
 11
-56.6013
 21
21.2467
  0
LINE
  8
0
 10
-56.6013
 20
21.2467
 11
-56.6761
 21
21.1807
  0
LINE
  8
0
 10
-56.6761
 20
21.1807
 11
-56.757
 21
21.1225
  0
LINE
  8
0
 10
-56.757
 20
21.1225
 11
-56.8434
 21
21.0727
  0
LINE
  8
0
 10
-56.8434
 20
21.0727
 11
-56.9342
 21
21.0317
  0
LINE
  8
0
 10
-56.9342
 20
21.0317
 11
-57.0287
 21
20.9999
  0
LINE
  8
0
 10
-57.0287
 20
20.9999
 11
-57.1259
 21
20.9778
  0
LINE
  8
0
 10
-57.1259
 20
20.9778
 11
-57.2249
 21
20.9654
  0
LINE
  8
0
 10
-57.2249
 20
20.9654
 11
-57.3245
 21
20.9629
  0
LINE
  8
0
 10
-57.3245
 20
20.9629
 11
-57.4239
 21
20.9703
  0
LINE
  8
0
 10
64.8757
 20
-2.99223
 11
64.7775
 21
-2.97491
  0
LINE
  8
0
 10
64.7775
 20
-2.97491
 11
64.6815
 21
-2.94792
  0
LINE
  8
0
 10
64.6815
 20
-2.94792
 11
64.5887
 21
-2.9115
  0
LINE
  8
0
 10
64.5887
 20
-2.9115
 11
64.5
 21
-2.86601
  0
LINE
  8
0
 10
64.5
 20
-2.86601
 11
64.4162
 21
-2.81194
  0
LINE
  8
0
 10
64.4162
 20
-2.81194
 11
64.3383
 21
-2.74977
  0
LINE
  8
0
 10
64.3383
 20
-2.74977
 11
64.2669
 21
-2.68016
  0
LINE
  8
0
 10
64.2669
 20
-2.68016
 11
64.2029
 21
-2.60379
  0
LINE
  8
0
 10
64.2029
 20
-2.60379
 11
64.1467
 21
-2.52142
  0
LINE
  8
0
 10
64.1467
 20
-2.52142
 11
64.099
 21
-2.43388
  0
LINE
  8
0
 10
64.099
 20
-2.43388
 11
64.0603
 21
-2.34201
  0
LINE
  8
0
 10
64.0603
 20
-2.34201
 11
64.0309
 21
-2.24675
  0
LINE
  8
0
 10
64.0309
 20
-2.24675
 11
64.0112
 21
-2.14903
  0
LINE
  8
0
 10
64.0112
 20
-2.14903
 11
64.0012
 21
-2.04984
  0
LINE
  8
0
 10
64.0012
 20
-2.04984
 11
64.0012
 21
-1.95015
  0
LINE
  8
0
 10
64.0012
 20
-1.95015
 11
64.0112
 21
-1.85095
  0
LINE
  8
0
 10
64.0112
 20
-1.85095
 11
64.0309
 21
-1.75323
  0
LINE
  8
0
 10
64.0309
 20
-1.75323
 11
64.0603
 21
-1.65797
  0
LINE
  8
0
 10
64.0603
 20
-1.65797
 11
64.099
 21
-1.5661
  0
LINE
  8
0
 10
64.099
 20
-1.5661
 11
64.1467
 21
-1.47856
  0
LINE
  8
0
 10
64.1467
 20
-1.47856
 11
64.2029
 21
-1.39619
  0
LINE
  8
0
 10
64.2029
 20
-1.39619
 11
64.2669
 21
-1.31982
  0
LINE
  8
0
 10
64.2669
 20
-1.31982
 11
64.3383
 21
-1.25021
  0
LINE
  8
0
 10
64.3383
 20
-1.25021
 11
64.4162
 21
-1.18805
  0
LINE
  8
0
 10
64.4162
 20
-1.18805
 11
64.5
 21
-1.13397
  0
LINE
  8
0
 10
64.5
 20
-1.13397
 11
64.5887
 21
-1.08849
  0
LINE
  8
0
 10
64.5887
 20
-1.08849
 11
64.6815
 21
-1.05206
  0
LINE
  8
0
 10
64.6815
 20
-1.05206
 11
64.7775
 21
-1.02507
  0
LINE
  8
0
 10
64.7775
 20
-1.02507
 11
64.8757
 21
-1.00775
  0
LINE
  8
0
 10
64.8757
 20
-1.00775
 11
64.9751
 21
-1.00031
  0
LINE
  8
0
 10
64.9751
 20
-1.00031
 11
65.0747
 21
-1.00279
  0
LINE
  8
0
 10
65.0747
 20
-1.00279
 11
65.1736
 21
-1.01518
  0
LINE
  8
0
 10
65.1736
 20
-1.01518
 11
65.2708
 21
-1.03737
  0
LINE
  8
0
 10
65.2708
 20
-1.03737
 11
65.3653
 21
-1.06912
  0
LINE
  8
0
 10
65.3653
 20
-1.06912
 11
65.4562
 21
-1.11012
  0
LINE
  8
0
 10
65.4562
 20
-1.11012
 11
65.5425
 21
-1.15997
  0
LINE
  8
0
 10
65.5425
 20
-1.15997
 11
65.6235
 21
-1.21815
  0
LINE
  8
0
 10
65.6235
 20
-1.21815
 11
65.6982
 21
-1.28412
  0
LINE
  8
0
 10
65.6982
 20
-1.28412
 11
65.766
 21
-1.35721
  0
LINE
  8
0
 10
65.766
 20
-1.35721
 11
65.8262
 21
-1.43668
  0
LINE
  8
0
 10
65.8262
 20
-1.43668
 11
65.8782
 21
-1.52174
  0
LINE
  8
0
 10
65.8782
 20
-1.52174
 11
65.9215
 21
-1.61156
  0
LINE
  8
0
 10
65.9215
 20
-1.61156
 11
65.9556
 21
-1.70523
  0
LINE
  8
0
 10
65.9556
 20
-1.70523
 11
65.9802
 21
-1.80185
  0
LINE
  8
0
 10
65.9802
 20
-1.80185
 11
65.995
 21
-1.90042
  0
LINE
  8
0
 10
65.995
 20
-1.90042
 11
66
 21
-2
  0
LINE
  8
0
 10
66
 20
-2
 11
65.995
 21
-2.09956
  0
LINE
  8
0
 10
65.995
 20
-2.09956
 11
65.9802
 21
-2.19814
  0
LINE
  8
0
 10
65.9802
 20
-2.19814
 11
65.9556
 21
-2.29475
  0
LINE
  8
0
 10
65.9556
 20
-2.29475
 11
65.9215
 21
-2.38843
  0
LINE
  8
0
 10
65.9215
 20
-2.38843
 11
65.8782
 21
-2.47824
  0
LINE
  8
0
 10
65.8782
 20
-2.47824
 11
65.8262
 21
-2.56331
  0
LINE
  8
0
 10
65.8262
 20
-2.56331
 11
65.766
 21
-2.64278
  0
LINE
  8
0
 10
65.766
 20
-2.64278
 11
65.6982
 21
-2.71587
  0
LINE
  8
0
 10
65.6982
 20
-2.71587
 11
65.6235
 21
-2.78183
  0
LINE
  8
0
 10
65.6235
 20
-2.78183
 11
65.5425
 21
-2.84001
  0
LINE
  8
0
 10
65.5425
 20
-2.84001
 11
65.4562
 21
-2.88986
  0
LINE
  8
0
 10
65.4562
 20
-2.88986
 11
65.3653
 21
-2.93086
  0
LINE
  8
0
 10
65.3653
 20
-2.93086
 11
65.2708
 21
-2.96262
  0
LINE
  8
0
 10
65.2708
 20
-2.96262
 11
65.1736
 21
-2.9848
  0
LINE
  8
0
 10
65.1736
 20
-2.9848
 11
65.0747
 21
-2.99719
  0
LINE
  8
0
 10
65.0747
 20
-2.99719
 11
64.9751
 21
-2.99968
  0
LINE
  8
0
 10
64.9751
 20
-2.99968
 11
64.8757
 21
-2.99223
  0
LINE
  8
0
 10
18.75
 20
-6
 11
18.75
 21
-3
  0
LINE
  8
0
 10
18.75
 20
-3
 11
21.75
 21
-3
  0
LINE
  8
0
 10
21.75
 20
-3
 11
21.75
 21
-6
  0
LINE
  8
0
 10
21.75
 20
-6
 11
18.75
 21
-6
  0
LINE
  8
0
 10
23.25
 20
-6
 11
23.25
 21
-3
  0
LINE
  8
0
 10
23.25
 20
-3
 11
26.25
 21
-3
  0
LINE
  8
0
 10
26.25
 20
-3
 11
26.25
 21
-6
  0
LINE
  8
0
 10
26.25
 20
-6
 11
23.25
 21
-6
  0
LINE
  8
0
 10
14.25
 20
-6
 11
14.25
 21
-3
  0
LINE
  8
0
 10
14.25
 20
-3
 11
17.25
 21
-3
  0
LINE
  8
0
 10
17.25
 20
-3
 11
17.25
 21
-6
  0
LINE
  8
0
 10
17.25
 20
-6
 11
14.25
 21
-6
  0
LINE
  8
0
 10
9.75
 20
-6
 11
9.75
 21
-3
  0
LINE
  8
0
 10
9.75
 20
-3
 11
12.75
 21
-3
  0
LINE
  8
0
 10
12.75
 20
-3
 11
12.75
 21
-6
  0
LINE
  8
0
 10
12.75
 20
-6
 11
9.75
 21
-6
  0
LINE
  8
0
 10
17.8757
 20
-11.4922
 11
17.7775
 21
-11.4749
  0
LINE
  8
0
 10
17.7775
 20
-11.4749
 11
17.6815
 21
-11.4479
  0
LINE
  8
0
 10
17.6815
 20
-11.4479
 11
17.5887
 21
-11.4115
  0
LINE
  8
0
 10
17.5887
 20
-11.4115
 11
17.5
 21
-11.366
  0
LINE
  8
0
 10
17.5
 20
-11.366
 11
17.4162
 21
-11.3119
  0
LINE
  8
0
 10
17.4162
 20
-11.3119
 11
17.3383
 21
-11.2498
  0
LINE
  8
0
 10
17.3383
 20
-11.2498
 11
17.2669
 21
-11.1802
  0
LINE
  8
0
 10
17.2669
 20
-11.1802
 11
17.2029
 21
-11.1038
  0
LINE
  8
0
 10
17.2029
 20
-11.1038
 11
17.1467
 21
-11.0214
  0
LINE
  8
0
 10
17.1467
 20
-11.0214
 11
17.099
 21
-10.9339
  0
LINE
  8
0
 10
17.099
 20
-10.9339
 11
17.0603
 21
-10.842
  0
LINE
  8
0
 10
17.0603
 20
-10.842
 11
17.0309
 21
-10.7467
  0
LINE
  8
0
 10
17.0309
 20
-10.7467
 11
17.0112
 21
-10.649
  0
LINE
  8
0
 10
17.0112
 20
-10.649
 11
17.0012
 21
-10.5498
  0
LINE
  8
0
 10
17.0012
 20
-10.5498
 11
17.0012
 21
-10.4501
  0
LINE
  8
0
 10
17.0012
 20
-10.4501
 11
17.0112
 21
-10.351
  0
LINE
  8
0
 10
17.0112
 20
-10.351
 11
17.0309
 21
-10.2532
  0
LINE
  8
0
 10
17.0309
 20
-10.2532
 11
17.0603
 21
-10.158
  0
LINE
  8
0
 10
17.0603
 20
-10.158
 11
17.099
 21
-10.0661
  0
LINE
  8
0
 10
17.099
 20
-10.0661
 11
17.1467
 21
-9.97856
  0
LINE
  8
0
 10
17.1467
 20
-9.97856
 11
17.2029
 21
-9.89619
  0
LINE
  8
0
 10
17.2029
 20
-9.89619
 11
17.2669
 21
-9.81982
  0
LINE
  8
0
 10
17.2669
 20
-9.81982
 11
17.3383
 21
-9.75021
  0
LINE
  8
0
 10
17.3383
 20
-9.75021
 11
17.4162
 21
-9.68805
  0
LINE
  8
0
 10
17.4162
 20
-9.68805
 11
17.5
 21
-9.63397
  0
LINE
  8
0
 10
17.5
 20
-9.63397
 11
17.5887
 21
-9.58849
  0
LINE
  8
0
 10
17.5887
 20
-9.58849
 11
17.6815
 21
-9.55206
  0
LINE
  8
0
 10
17.6815
 20
-9.55206
 11
17.7775
 21
-9.52507
  0
LINE
  8
0
 10
17.7775
 20
-9.52507
 11
17.8757
 21
-9.50775
  0
LINE
  8
0
 10
17.8757
 20
-9.50775
 11
17.9751
 21
-9.50031
  0
LINE
  8
0
 10
17.9751
 20
-9.50031
 11
18.0747
 21
-9.50279
  0
LINE
  8
0
 10
18.0747
 20
-9.50279
 11
18.1736
 21
-9.51518
  0
LINE
  8
0
 10
18.1736
 20
-9.51518
 11
18.2708
 21
-9.53737
  0
LINE
  8
0
 10
18.2708
 20
-9.53737
 11
18.3653
 21
-9.56912
  0
LINE
  8
0
 10
18.3653
 20
-9.56912
 11
18.4562
 21
-9.61012
  0
LINE
  8
0
 10
18.4562
 20
-9.61012
 11
18.5425
 21
-9.65997
  0
LINE
  8
0
 10
18.5425
 20
-9.65997
 11
18.6235
 21
-9.71815
  0
LINE
  8
0
 10
18.6235
 20
-9.71815
 11
18.6982
 21
-9.78412
  0
LINE
  8
0
 10
18.6982
 20
-9.78412
 11
18.766
 21
-9.85721
  0
LINE
  8
0
 10
18.766
 20
-9.85721
 11
18.8262
 21
-9.93668
  0
LINE
  8
0
 10
18.8262
 20
-9.93668
 11
18.8782
 21
-10.0217
  0
LINE
  8
0
 10
18.8782
 20
-10.0217
 11
18.9215
 21
-10.1116
  0
LINE
  8
0
 10
18.9215
 20
-10.1116
 11
18.9556
 21
-10.2052
  0
LINE
  8
0
 10
18.9556
 20
-10.2052
 11
18.9802
 21
-10.3018
  0
LINE
  8
0
 10
18.9802
 20
-10.3018
 11
18.995
 21
-10.4004
  0
LINE
  8
0
 10
18.995
 20
-10.4004
 11
19
 21
-10.5
  0
LINE
  8
0
 10
19
 20
-10.5
 11
18.995
 21
-10.5996
  0
LINE
  8
0
 10
18.995
 20
-10.5996
 11
18.9802
 21
-10.6981
  0
LINE
  8
0
 10
18.9802
 20
-10.6981
 11
18.9556
 21
-10.7948
  0
LINE
  8
0
 10
18.9556
 20
-10.7948
 11
18.9215
 21
-10.8884
  0
LINE
  8
0
 10
18.9215
 20
-10.8884
 11
18.8782
 21
-10.9782
  0
LINE
  8
0
 10
18.8782
 20
-10.9782
 11
18.8262
 21
-11.0633
  0
LINE
  8
0
 10
18.8262
 20
-11.0633
 11
18.766
 21
-11.1428
  0
LINE
  8
0
 10
18.766
 20
-11.1428
 11
18.6982
 21
-11.2159
  0
LINE
  8
0
 10
18.6982
 20
-11.2159
 11
18.6235
 21
-11.2818
  0
LINE
  8
0
 10
18.6235
 20
-11.2818
 11
18.5425
 21
-11.34
  0
LINE
  8
0
 10
18.5425
 20
-11.34
 11
18.4562
 21
-11.3899
  0
LINE
  8
0
 10
18.4562
 20
-11.3899
 11
18.3653
 21
-11.4309
  0
LINE
  8
0
 10
18.3653
 20
-11.4309
 11
18.2708
 21
-11.4626
  0
LINE
  8
0
 10
18.2708
 20
-11.4626
 11
18.1736
 21
-11.4848
  0
LINE
  8
0
 10
18.1736
 20
-11.4848
 11
18.0747
 21
-11.4972
  0
LINE
  8
0
 10
18.0747
 20
-11.4972
 11
17.9751
 21
-11.4997
  0
LINE
  8
0
 10
17.9751
 20
-11.4997
 11
17.8757
 21
-11.4922
  0
LINE
  8
0
 10
-68.6826
 20
-21.0474
 11
-68.7807
 21
-21.0301
  0
LINE
  8
0
 10
-68.7807
 20
-21.0301
 11
-68.8767
 21
-21.0031
  0
LINE
  8
0
 10
-68.8767
 20
-21.0031
 11
-68.9695
 21
-20.9667
  0
LINE
  8
0
 10
-68.9695
 20
-20.9667
 11
-69.0582
 21
-20.9212
  0
LINE
  8
0
 10
-69.0582
 20
-20.9212
 11
-69.142
 21
-20.8671
  0
LINE
  8
0
 10
-69.142
 20
-20.8671
 11
-69.2199
 21
-20.805
  0
LINE
  8
0
 10
-69.2199
 20
-20.805
 11
-69.2913
 21
-20.7354
  0
LINE
  8
0
 10
-69.2913
 20
-20.7354
 11
-69.3553
 21
-20.659
  0
LINE
  8
0
 10
-69.3553
 20
-20.659
 11
-69.4115
 21
-20.5766
  0
LINE
  8
0
 10
-69.4115
 20
-20.5766
 11
-69.4592
 21
-20.4891
  0
LINE
  8
0
 10
-69.4592
 20
-20.4891
 11
-69.4979
 21
-20.3972
  0
LINE
  8
0
 10
-69.4979
 20
-20.3972
 11
-69.5273
 21
-20.302
  0
LINE
  8
0
 10
-69.5273
 20
-20.302
 11
-69.547
 21
-20.2042
  0
LINE
  8
0
 10
-69.547
 20
-20.2042
 11
-69.557
 21
-20.105
  0
LINE
  8
0
 10
-69.557
 20
-20.105
 11
-69.557
 21
-20.0053
  0
LINE
  8
0
 10
-69.557
 20
-20.0053
 11
-69.547
 21
-19.9062
  0
LINE
  8
0
 10
-69.547
 20
-19.9062
 11
-69.5273
 21
-19.8084
  0
LINE
  8
0
 10
-69.5273
 20
-19.8084
 11
-69.4979
 21
-19.7132
  0
LINE
  8
0
 10
-69.4979
 20
-19.7132
 11
-69.4592
 21
-19.6213
  0
LINE
  8
0
 10
-69.4592
 20
-19.6213
 11
-69.4115
 21
-19.5338
  0
LINE
  8
0
 10
-69.4115
 20
-19.5338
 11
-69.3553
 21
-19.4514
  0
LINE
  8
0
 10
-69.3553
 20
-19.4514
 11
-69.2913
 21
-19.375
  0
LINE
  8
0
 10
-69.2913
 20
-19.375
 11
-69.2199
 21
-19.3054
  0
LINE
  8
0
 10
-69.2199
 20
-19.3054
 11
-69.142
 21
-19.2433
  0
LINE
  8
0
 10
-69.142
 20
-19.2433
 11
-69.0582
 21
-19.1892
  0
LINE
  8
0
 10
-69.0582
 20
-19.1892
 11
-68.9695
 21
-19.1437
  0
LINE
  8
0
 10
-68.9695
 20
-19.1437
 11
-68.8767
 21
-19.1073
  0
LINE
  8
0
 10
-68.8767
 20
-19.1073
 11
-68.7807
 21
-19.0803
  0
LINE
  8
0
 10
-68.7807
 20
-19.0803
 11
-68.6826
 21
-19.063
  0
LINE
  8
0
 10
-68.6826
 20
-19.063
 11
-68.5831
 21
-19.0555
  0
LINE
  8
0
 10
-68.5831
 20
-19.0555
 11
-68.4835
 21
-19.058
  0
LINE
  8
0
 10
-68.4835
 20
-19.058
 11
-68.3846
 21
-19.0704
  0
LINE
  8
0
 10
-68.3846
 20
-19.0704
 11
-68.2874
 21
-19.0926
  0
LINE
  8
0
 10
-68.2874
 20
-19.0926
 11
-68.1929
 21
-19.1243
  0
LINE
  8
0
 10
-68.1929
 20
-19.1243
 11
-68.102
 21
-19.1653
  0
LINE
  8
0
 10
-68.102
 20
-19.1653
 11
-68.0157
 21
-19.2152
  0
LINE
  8
0
 10
-68.0157
 20
-19.2152
 11
-67.9347
 21
-19.2734
  0
LINE
  8
0
 10
-67.9347
 20
-19.2734
 11
-67.86
 21
-19.3393
  0
LINE
  8
0
 10
-67.86
 20
-19.3393
 11
-67.7922
 21
-19.4124
  0
LINE
  8
0
 10
-67.7922
 20
-19.4124
 11
-67.732
 21
-19.4919
  0
LINE
  8
0
 10
-67.732
 20
-19.4919
 11
-67.68
 21
-19.5769
  0
LINE
  8
0
 10
-67.68
 20
-19.5769
 11
-67.6367
 21
-19.6668
  0
LINE
  8
0
 10
-67.6367
 20
-19.6668
 11
-67.6026
 21
-19.7604
  0
LINE
  8
0
 10
-67.6026
 20
-19.7604
 11
-67.578
 21
-19.857
  0
LINE
  8
0
 10
-67.578
 20
-19.857
 11
-67.5632
 21
-19.9556
  0
LINE
  8
0
 10
-67.5632
 20
-19.9556
 11
-67.5582
 21
-20.0552
  0
LINE
  8
0
 10
-67.5582
 20
-20.0552
 11
-67.5632
 21
-20.1548
  0
LINE
  8
0
 10
-67.5632
 20
-20.1548
 11
-67.578
 21
-20.2533
  0
LINE
  8
0
 10
-67.578
 20
-20.2533
 11
-67.6026
 21
-20.3499
  0
LINE
  8
0
 10
-67.6026
 20
-20.3499
 11
-67.6367
 21
-20.4436
  0
LINE
  8
0
 10
-67.6367
 20
-20.4436
 11
-67.68
 21
-20.5334
  0
LINE
  8
0
 10
-67.68
 20
-20.5334
 11
-67.732
 21
-20.6185
  0
LINE
  8
0
 10
-67.732
 20
-20.6185
 11
-67.7922
 21
-20.698
  0
LINE
  8
0
 10
-67.7922
 20
-20.698
 11
-67.86
 21
-20.7711
  0
LINE
  8
0
 10
-67.86
 20
-20.7711
 11
-67.9347
 21
-20.837
  0
LINE
  8
0
 10
-67.9347
 20
-20.837
 11
-68.0157
 21
-20.8952
  0
LINE
  8
0
 10
-68.0157
 20
-20.8952
 11
-68.102
 21
-20.9451
  0
LINE
  8
0
 10
-68.102
 20
-20.9451
 11
-68.1929
 21
-20.9861
  0
LINE
  8
0
 10
-68.1929
 20
-20.9861
 11
-68.2874
 21
-21.0178
  0
LINE
  8
0
 10
-68.2874
 20
-21.0178
 11
-68.3846
 21
-21.04
  0
LINE
  8
0
 10
-68.3846
 20
-21.04
 11
-68.4835
 21
-21.0524
  0
LINE
  8
0
 10
-68.4835
 20
-21.0524
 11
-68.5831
 21
-21.0549
  0
LINE
  8
0
 10
-68.5831
 20
-21.0549
 11
-68.6826
 21
-21.0474
  0
ENDSEC
  0
SECTION
  2
OBJECTS
  0
DICTIONARY
  0
ENDSEC
  0
EOF
