  0
SECTION
  2
HEADER
  9
$ACADVER
  1
AC1027
  9
$ACADMAINTVER
 70
105
  9
$DWGCODEPAGE
  3
ANSI_1252
  9
$LASTSAVEDBY
  1
ezdxf
  9
$REQUIREDVERSIONS
160
0
  9
$INSBASE
 10
0.0
 20
0.0
 30
0.0
  9
$EXTMIN
 10
1e+20
 20
1e+20
 30
1e+20
  9
$EXTMAX
 10
-1e+20
 20
-1e+20
 30
-1e+20
  9
$LIMMIN
 10
0.0
 20
0.0
  9
$LIMMAX
 10
420.0
 20
297.0
  9
$ORTHOMODE
 70
0
  9
$REGENMODE
 70
1
  9
$FILLMODE
 70
1
  9
$QTEXTMODE
 70
0
  9
$MIRRTEXT
 70
1
  9
$LTSCALE
 40
1.0
  9
$ATTMODE
 70
1
  9
$TEXTSIZE
 40
2.5
  9
$TRACEWID
 40
1.0
  9
$TEXTSTYLE
  7
Standard
  9
$CLAYER
  8
0
  9
$CELTYPE
  6
ByLayer
  9
$CECOLOR
 62
256
  9
$CELTSCALE
 40
1.0
  9
$DISPSILH
 70
0
  9
$DIMSCALE
 40
1.0
  9
$DIMASZ
 40
2.5
  9
$DIMEXO
 40
0.625
  9
$DIMDLI
 40
3.75
  9
$DIMRND
 40
0.0
  9
$DIMDLE
 40
0.0
  9
$DIMEXE
 40
1.25
  9
$DIMTP
 40
0.0
  9
$DIMTM
 40
0.0
  9
$DIMTXT
 40
2.5
  9
$DIMCEN
 40
2.5
  9
$DIMTSZ
 40
0.0
  9
$DIMTOL
 70
0
  9
$DIMLIM
 70
0
  9
$DIMTIH
 70
0
  9
$DIMTOH
 70
0
  9
$DIMSE1
 70
0
  9
$DIMSE2
 70
0
  9
$DIMTAD
 70
1
  9
$DIMZIN
 70
8
  9
$DIMBLK
  1

  9
$DIMASO
 70
1
  9
$DIMSHO
 70
1
  9
$DIMPOST
  1

  9
$DIMAPOST
  1

  9
$DIMALT
 70
0
  9
$DIMALTD
 70
3
  9
$DIMALTF
 40
0.03937007874
  9
$DIMLFAC
 40
1.0
  9
$DIMTOFL
 70
1
  9
$DIMTVP
 40
0.0
  9
$DIMTIX
 70
0
  9
$DIMSOXD
 70
0
  9
$DIMSAH
 70
0
  9
$DIMBLK1
  1

  9
$DIMBLK2
  1

  9
$DIMSTYLE
  2
ISO-25
  9
$DIMCLRD
 70
0
  9
$DIMCLRE
 70
0
  9
$DIMCLRT
 70
0
  9
$DIMTFAC
 40
1.0
  9
$DIMGAP
 40
0.625
  9
$DIMJUST
 70
0
  9
$DIMSD1
 70
0
  9
$DIMSD2
 70
0
  9
$DIMTOLJ
 70
0
  9
$DIMTZIN
 70
8
  9
$DIMALTZ
 70
0
  9
$DIMALTTZ
 70
0
  9
$DIMUPT
 70
0
  9
$DIMDEC
 70
2
  9
$DIMTDEC
 70
2
  9
$DIMALTU
 70
2
  9
$DIMALTTD
 70
3
  9
$DIMTXSTY
  7
Standard
  9
$DIMAUNIT
 70
0
  9
$DIMADEC
 70
0
  9
$DIMALTRND
 40
0.0
  9
$DIMAZIN
 70
0
  9
$DIMDSEP
 70
44
  9
$DIMATFIT
 70
3
  9
$DIMFRAC
 70
0
  9
$DIMLDRBLK
  1

  9
$DIMLUNIT
 70
2
  9
$DIMLWD
 70
-2
  9
$DIMLWE
 70
-2
  9
$DIMTMOVE
 70
0
  9
$DIMFXL
 40
1.0
  9
$DIMFXLON
 70
0
  9
$DIMJOGANG
 40
0.785398163397
  9
$DIMTFILL
 70
0
  9
$DIMTFILLCLR
 70
0
  9
$DIMARCSYM
 70
0
  9
$DIMLTYPE
  6

  9
$DIMLTEX1
  6

  9
$DIMLTEX2
  6

  9
$DIMTXTDIRECTION
 70
0
  9
$LUNITS
 70
2
  9
$LUPREC
 70
4
  9
$SKETCHINC
 40
1.0
  9
$FILLETRAD
 40
10.0
  9
$AUNITS
 70
0
  9
$AUPREC
 70
2
  9
$MENU
  1
.
  9
$ELEVATION
 40
0.0
  9
$PELEVATION
 40
0.0
  9
$THICKNESS
 40
0.0
  9
$LIMCHECK
 70
0
  9
$CHAMFERA
 40
0.0
  9
$CHAMFERB
 40
0.0
  9
$CHAMFERC
 40
0.0
  9
$CHAMFERD
 40
0.0
  9
$SKPOLY
 70
0
  9
$TDCREATE
 40
2461174.566145833
  9
$TDUCREATE
 40
2458532.153996898
  9
$TDUPDATE
 40
2461174.566145833
  9
$TDUUPDATE
 40
2458532.1544311
  9
$TDINDWG
 40
0.0
  9
$TDUSRTIMER
 40
0.0
  9
$USRTIMER
 70
1
  9
$ANGBASE
 50
0.0
  9
$ANGDIR
 70
0
  9
$PDMODE
 70
0
  9
$PDSIZE
 40
0.0
  9
$PLINEWID
 40
0.0
  9
$SPLFRAME
 70
0
  9
$SPLINETYPE
 70
6
  9
$SPLINESEGS
 70
8
  9
$HANDSEED
  5
50
  9
$SURFTAB1
 70
6
  9
$SURFTAB2
 70
6
  9
$SURFTYPE
 70
6
  9
$SURFU
 70
6
  9
$SURFV
 70
6
  9
$UCSBASE
  2

  9
$UCSNAME
  2

  9
$UCSORG
 10
0.0
 20
0.0
 30
0.0
  9
$UCSXDIR
 10
1.0
 20
0.0
 30
0.0
  9
$UCSYDIR
 10
0.0
 20
1.0
 30
0.0
  9
$UCSORTHOREF
  2

  9
$UCSORTHOVIEW
 70
0
  9
$UCSORGTOP
 10
0.0
 20
0.0
 30
0.0
  9
$UCSORGBOTTOM
 10
0.0
 20
0.0
 30
0.0
  9
$UCSORGLEFT
 10
0.0
 20
0.0
 30
0.0
  9
$UCSORGRIGHT
 10
0.0
 20
0.0
 30
0.0
  9
$UCSORGFRONT
 10
0.0
 20
0.0
 30
0.0
  9
$UCSORGBACK
 10
0.0
 20
0.0
 30
0.0
  9
$PUCSBASE
  2

  9
$PUCSNAME
  2

  9
$PUCSORG
 10
0.0
 20
0.0
 30
0.0
  9
$PUCSXDIR
 10
1.0
 20
0.0
 30
0.0
  9
$PUCSYDIR
 10
0.0
 20
1.0
 30
0.0
  9
$PUCSORTHOREF
  2

  9
$PUCSORTHOVIEW
 70
0
  9
$PUCSORGTOP
 10
0.0
 20
0.0
 30
0.0
  9
$PUCSORGBOTTOM
 10
0.0
 20
0.0
 30
0.0
  9
$PUCSORGLEFT
 10
0.0
 20
0.0
 30
0.0
  9
$PUCSORGRIGHT
 10
0.0
 20
0.0
 30
0.0
  9
$PUCSORGFRONT
 10
0.0
 20
0.0
 30
0.0
  9
$PUCSORGBACK
 10
0.0
 20
0.0
 30
0.0
  9
$USERI1
 70
0
  9
$USERI2
 70
0
  9
$USERI3
 70
0
  9
$USERI4
 70
0
  9
$USERI5
 70
0
  9
$USERR1
 40
0.0
  9
$USERR2
 40
0.0
  9
$USERR3
 40
0.0
  9
$USERR4
 40
0.0
  9
$USERR5
 40
0.0
  9
$WORLDVIEW
 70
1
  9
$SHADEDGE
 70
3
  9
$SHADEDIF
 70
70
  9
$TILEMODE
 70
1
  9
$MAXACTVP
 70
64
  9
$PINSBASE
 10
0.0
 20
0.0
 30
0.0
  9
$PLIMCHECK
 70
0
  9
$PEXTMIN
 10
1e+20
 20
1e+20
 30
1e+20
  9
$PEXTMAX
 10
-1e+20
 20
-1e+20
 30
-1e+20
  9
$PLIMMIN
 10
0.0
 20
0.0
  9
$PLIMMAX
 10
420.0
 20
297.0
  9
$UNITMODE
 70
0
  9
$VISRETAIN
 70
1
  9
$PLINEGEN
 70
0
  9
$PSLTSCALE
 70
1
  9
$TREEDEPTH
 70
3020
  9
$CMLSTYLE
  2
Standard
  9
$CMLJUST
 70
0
  9
$CMLSCALE
 40
20.0
  9
$PROXYGRAPHICS
 70
1
  9
$MEASUREMENT
 70
1
  9
$CELWEIGHT
370
-1
  9
$ENDCAPS
280
0
  9
$JOINSTYLE
280
0
  9
$LWDISPLAY
290
0
  9
$INSUNITS
 70
4
  9
$HYPERLINKBASE
  1

  9
$STYLESHEET
  1

  9
$XEDIT
290
1
  9
$CEPSNTYPE
380
0
  9
$PSTYLEMODE
290
1
  9
$FINGERPRINTGUID
  2
{29372EEA-5824-4355-9526-BCC5F3E0BA27}
  9
$VERSIONGUID
  2
{A8A7F648-2552-4430-AFBF-5DA6F18900E6}
  9
$EXTNAMES
290
1
  9
$PSVPSCALE
 40
0.0
  9
$OLESTARTUP
290
0
  9
$SORTENTS
280
127
  9
$INDEXCTL
280
0
  9
$HIDETEXT
280
1
  9
$XCLIPFRAME
280
1
  9
$HALOGAP
280
0
  9
$OBSCOLOR
 70
257
  9
$OBSLTYPE
280
0
  9
$INTERSECTIONDISPLAY
280
0
  9
$INTERSECTIONCOLOR
 70
257
  9
$DIMASSOC
280
2
  9
$PROJECTNAME
  1

  9
$CAMERADISPLAY
290
0
  9
$LENSLENGTH
 40
50.0
  9
$CAMERAHEIGHT
 40
0.0
  9
$STEPSPERSEC
 40
24.0
  9
$STEPSIZE
 40
100.0
  9
$3DDWFPREC
 40
2.0
  9
$PSOLWIDTH
 40
0.005
  9
$PSOLHEIGHT
 40
0.08
  9
$LOFTANG1
 40
1.570796326795
  9
$LOFTANG2
 40
1.570796326795
  9
$LOFTMAG1
 40
0.0
  9
$LOFTMAG2
 40
0.0
  9
$LOFTPARAM
 70
7
  9
$LOFTNORMALS
280
1
  9
$LATITUDE
 40
37.795
  9
$LONGITUDE
 40
-122.394
  9
$NORTHDIRECTION
 40
0.0
  9
$TIMEZONE
 70
-8000
  9
$LIGHTGLYPHDISPLAY
280
1
  9
$TILEMODELIGHTSYNCH
280
1
  9
$CMATERIAL
347
20
  9
$SOLIDHIST
280
0
  9
$SHOWHIST
280
1
  9
$DWFFRAME
280
2
  9
$DGNFRAME
280
2
  9
$REALWORLDSCALE
290
1
  9
$INTERFERECOLOR
 62
256
  9
$CSHADOW
280
0
  9
$SHADOWPLANELOCATION
 40
0.0
  0
ENDSEC
  0
SECTION
  2
CLASSES
  0
CLASS
  1
ACDBDICTIONARYWDFLT
  2
AcDbDictionaryWithDefault
  3
ObjectDBX Classes
 90
0
 91
0
280
0
281
0
  0
CLASS
  1
SUN
  2
AcDbSun
  3
SCENEOE
 90
1153
 91
0
280
0
281
0
  0
CLASS
  1
VISUALSTYLE
  2
AcDbVisualStyle
  3
ObjectDBX Classes
 90
4095
 91
0
280
0
281
0
  0
CLASS
  1
MATERIAL
  2
AcDbMaterial
  3
ObjectDBX Classes
 90
1153
 91
0
280
0
281
0
  0
CLASS
  1
SCALE
  2
AcDbScale
  3
ObjectDBX Classes
 90
1153
 91
0
280
0
281
0
  0
CLASS
  1
TABLESTYLE
  2
AcDbTableStyle
  3
ObjectDBX Classes
 90
4095
 91
0
280
0
281
0
  0
CLASS
  1
MLEADERSTYLE
  2
AcDbMLeaderStyle
  3
ACDB_MLEADERSTYLE_CLASS
 90
4095
 91
0
280
0
281
0
  0
CLASS
  1
DICTIONARYVAR
  2
AcDbDictionaryVar
  3
ObjectDBX Classes
 90
0
 91
0
280
0
281
0
  0
CLASS
  1
CELLSTYLEMAP
  2
AcDbCellStyleMap
  3
ObjectDBX Classes
 90
1152
 91
0
280
0
281
0
  0
CLASS
  1
MENTALRAYRENDERSETTINGS
  2
AcDbMentalRayRenderSettings
  3
SCENEOE
 90
1024
 91
0
280
0
281
0
  0
CLASS
  1
ACDBDETAILVIEWSTYLE
  2
AcDbDetailViewStyle
  3
ObjectDBX Classes
 90
1025
 91
0
280
0
281
0
  0
CLASS
  1
ACDBSECTIONVIEWSTYLE
  2
AcDbSectionViewStyle
  3
ObjectDBX Classes
 90
1025
 91
0
280
0
281
0
  0
CLASS
  1
RASTERVARIABLES
  2
AcDbRasterVariables
  3
ISM
 90
0
 91
0
280
0
281
0
  0
CLASS
  1
LAYOUT
  2
AcDbLayout
  3
ObjectDBX Classes
 90
0
 91
0
280
0
281
0
  0
CLASS
  1
ACDBPLACEHOLDER
  2
AcDbPlaceHolder
  3
ObjectDBX Classes
 90
0
 91
0
280
0
281
0
  0
ENDSEC
  0
SECTION
  2
TABLES
  0
TABLE
  2
VPORT
  5
8
330
0
100
AcDbSymbolTable
 70
1
  0
VPORT
  5
4C
330
8
100
AcDbSymbolTableRecord
100
AcDbViewportTableRecord
  2
*Active
 70
0
 10
0.0
 20
0.0
 11
1.0
 21
1.0
 12
-0.7416841062451169
 22
5.195998510577655e-20
 13
0.0
 23
0.0
 14
0.5
 24
0.5
 15
0.5
 25
0.5
 16
0.0
 26
0.0
 36
1.0
 17
0.0
 27
0.0
 37
0.0
 40
71.70675799218816
 41
1.34
 42
50.0
 43
0.0
 44
0.0
 50
0.0
 51
0.0
 71
0
 72
1000
 73
1
 74
3
 75
0
 76
0
 77
0
 78
0
281
0
 65
1
110
0.0
120
0.0
130
0.0
111
1.0
121
0.0
131
0.0
112
0.0
122
1.0
132
0.0
 79
0
146
0.0
  0
ENDTAB
  0
TABLE
  2
LTYPE
  5
2
330
0
100
AcDbSymbolTable
 70
3
  0
LTYPE
  5
24
330
2
100
AcDbSymbolTableRecord
100
AcDbLinetypeTableRecord
  2
ByBlock
 70
0
  3

 72
65
 73
0
 40
0.0
  0
LTYPE
  5
25
330
2
100
AcDbSymbolTableRecord
100
AcDbLinetypeTableRecord
  2
ByLayer
 70
0
  3

 72
65
 73
0
 40
0.0
  0
LTYPE
  5
26
330
2
100
AcDbSymbolTableRecord
100
AcDbLinetypeTableRecord
  2
Continuous
 70
0
  3

 72
65
 73
0
 40
0.0
  0
ENDTAB
  0
TABLE
  2
LAYER
  5
1
330
0
100
AcDbSymbolTable
 70
2
  0
LAYER
  5
27
330
1
100
AcDbSymbolTableRecord
100
AcDbLayerTableRecord
  2
0
 70
0
 62
7
  6
Continuous
370
-3
390
13
347
21
  0
LAYER
  5
28
330
1
100
AcDbSymbolTableRecord
100
AcDbLayerTableRecord
  2
Defpoints
 70
0
 62
7
  6
Continuous
290
0
370
-3
390
13
347
21
  0
ENDTAB
  0
TABLE
  2
STYLE
  5
5
330
0
100
AcDbSymbolTable
 70
1
  0
STYLE
  5
29
330
5
100
AcDbSymbolTableRecord
100
AcDbTextStyleTableRecord
  2
Standard
 70
0
 40
0.0
 41
1.0
 50
0.0
 71
0
 42
2.5
  3
txt
  4

  0
ENDTAB
  0
TABLE
  2
VIEW
  5
7
330
0
100
AcDbSymbolTable
 70
0
  0
ENDTAB
  0
TABLE
  2
UCS
  5
6
330
0
100
AcDbSymbolTable
 70
0
  0
ENDTAB
  0
TABLE
  2
APPID
  5
3
330
0
100
AcDbSymbolTable
 70
3
  0
APPID
  5
2A
330
3
100
AcDbSymbolTableRecord
100
AcDbRegAppTableRecord
  2
ACAD
 70
0
  0
APPID
  5
4D
330
3
100
AcDbSymbolTableRecord
100
AcDbRegAppTableRecord
  2
HATCHBACKGROUNDCOLOR
 70
0
  0
APPID
  5
4E
330
3
100
AcDbSymbolTableRecord
100
AcDbRegAppTableRecord
  2
EZDXF
 70
0
  0
ENDTAB
  0
TABLE
  2
DIMSTYLE
  5
4
330
0
100
AcDbSymbolTable
 70
1
100
AcDbDimStyleTable
  0
DIMSTYLE
105
2B
330
4
100
AcDbSymbolTableRecord
100
AcDbDimStyleTableRecord
  2
Standard
 70
0
 40
1.0
 41
2.5
 42
0.625
 43
3.75
 44
1.25
 45
0.0
 46
0.0
 47
0.0
 48
0.0
 49
2.5
140
2.5
141
2.5
142
0.0
143
0.03937007874
144
1.0
145
0.0
146
1.0
147
0.625
148
0.0
 69
0
 70
0
 71
0
 72
0
 73
0
 74
0
 75
0
 76
0
 77
1
 78
8
 79
3
170
0
171
3
172
1
173
0
174
0
175
0
176
0
177
0
178
0
179
2
271
2
272
2
273
2
274
3
275
0
276
0
277
2
278
44
279
0
280
0
281
0
282
0
283
0
284
8
285
0
286
0
288
0
289
3
290
0
371
-2
372
-2
  0
ENDTAB
  0
TABLE
  2
BLOCK_RECORD
  5
9
330
0
100
AcDbSymbolTable
 70
2
  0
BLOCK_RECORD
  5
17
330
9
100
AcDbSymbolTableRecord
100
AcDbBlockTableRecord
  2
*Model_Space
340
1A
 70
0
280
1
281
0
  0
BLOCK_RECORD
  5
1B
330
9
100
AcDbSymbolTableRecord
100
AcDbBlockTableRecord
  2
*Paper_Space
340
1E
 70
0
280
1
281
0
  0
ENDTAB
  0
ENDSEC
  0
SECTION
  2
BLOCKS
  0
BLOCK
  5
18
330
17
100
AcDbEntity
  8
0
100
AcDbBlockBegin
  2
*Model_Space
 70
0
 10
0.0
 20
0.0
 30
0.0
  3
*Model_Space
  1

  0
ENDBLK
  5
19
330
17
100
AcDbEntity
  8
0
100
AcDbBlockEnd
  0
BLOCK
  5
1C
330
1B
100
AcDbEntity
  8
0
100
AcDbBlockBegin
  2
*Paper_Space
 70
0
 10
0.0
 20
0.0
 30
0.0
  3
*Paper_Space
  1

  0
ENDBLK
  5
1D
330
1B
100
AcDbEntity
  8
0
100
AcDbBlockEnd
  0
ENDSEC
  0
SECTION
  2
ENTITIES
  0
LINE
  5
2F
330
17
100
AcDbEntity
  8
0
100
AcDbLine
 10
67.74622928224235
 20
9.767748635359303e-48
 30
0.0
 11
70.96507388594304
 21
9.443708802850959e-48
 31
0.0
  0
LINE
  5
30
330
17
100
AcDbEntity
  8
0
100
AcDbLine
 10
66.32369124935471
 20
8.585208104768666e-48
 30
0.0
 11
70.96507388594304
 21
9.443708802850959e-48
 31
0.0
  0
SPLINE
  5
31
330
17
100
AcDbEntity
  8
0
100
AcDbSpline
 70
0
 71
3
 72
32
 73
28
 74
0
 40
0.0
 40
0.0
 40
0.0
 40
0.0
 40
0.07142857142857142
 40
0.07142857142857142
 40
0.07142857142857142
 40
0.21428571428571427
 40
0.21428571428571427
 40
0.21428571428571427
 40
0.5
 40
0.5
 40
0.5
 40
0.6428571428571429
 40
0.6428571428571429
 40
0.6428571428571429
 40
0.7142857142857143
 40
0.7142857142857143
 40
0.7142857142857143
 40
0.7857142857142857
 40
0.7857142857142857
 40
0.7857142857142857
 40
0.8571428571428571
 40
0.8571428571428571
 40
0.8571428571428571
 40
0.9285714285714286
 40
0.9285714285714286
 40
0.9285714285714286
 40
1.0
 40
1.0
 40
1.0
 40
1.0
 10
66.32369124935471
 20
-2.6719779647248174e-16
 30
0.0
 10
66.25587986040767
 20
-2.6554133819608966e-16
 30
0.0
 10
66.18806847146064
 20
-2.6388487991969782e-16
 30
0.0
 10
66.12025708251363
 20
-2.622284216433058e-16
 30
0.0
 10
65.97981415994107
 20
-2.5756637166834657e-16
 30
0.0
 10
65.83577339344731
 20
-2.515005340173211e-16
 30
0.0
 10
65.68813478303215
 20
-2.4403090869022853e-16
 30
0.0
 10
65.39089840490908
 20
-2.27968382712157e-16
 30
0.0
 10
65.08432599952573
 20
-2.0543615673484907e-16
 30
0.0
 10
64.7880353033181
 20
-1.7787608026195493e-16
 30
0.0
 10
64.64094959657916
 20
-1.6368428140829593e-16
 30
0.0
 10
64.49764803327997
 20
-1.4863125058304957e-16
 30
0.0
 10
64.35813061342029
 20
-1.3271698778621547e-16
 30
0.0
 10
64.29086331259393
 20
-1.2444553503980325e-16
 30
0.0
 10
64.22359601176757
 20
-1.1617408229339134e-16
 30
0.0
 10
64.15632871094121
 20
-1.0790262954697913e-16
 30
0.0
 10
64.09294588536387
 20
-9.924982636150122e-17
 30
0.0
 10
64.02956305978657
 20
-9.05970231760234e-17
 30
0.0
 10
63.96618023420925
 20
-8.194421999054552e-17
 30
0.0
 10
63.90735390832925
 20
-7.30018088093822e-17
 30
0.0
 10
63.84852758244926
 20
-6.405939762821885e-17
 30
0.0
 10
63.789701256569245
 20
-5.511698644705554e-17
 30
0.0
 10
63.73605514396879
 20
-4.597978031909794e-17
 30
0.0
 10
63.682409031368394
 20
-3.684257419114035e-17
 30
0.0
 10
63.62876291876792
 20
-2.7705368063182746e-17
 30
0.0
 10
63.58086580916089
 20
-1.8470245375455186e-17
 30
0.0
 10
63.532968699553855
 20
-9.235122687727626e-18
 30
0.0
 10
63.48507158994683
 20
-6.625199008692091e-32
 30
0.0
  0
SPLINE
  5
32
330
17
100
AcDbEntity
  8
0
100
AcDbSpline
 70
0
 71
1
 72
17
 73
15
 74
0
 40
0.0
 40
0.0
 40
0.2957538237262005
 40
0.591507647452401
 40
0.8872614711786015
 40
1.183015294904802
 40
1.4787691186310026
 40
1.774522942357203
 40
2.0702767660834036
 40
2.366030589809604
 40
2.6617844135358046
 40
2.957538237262005
 40
3.2532920609882057
 40
3.549045884714406
 40
3.8447997084406067
 40
4.140553532166807
 40
4.140553532166807
 10
63.48507158994683
 20
0.0
 30
0.0
 10
63.18126857793939
 20
7.85260991971877e-17
 30
0.0
 10
63.057575058802016
 20
1.5023341659244706e-16
 30
0.0
 10
63.12473190882848
 20
2.0889527652101515e-16
 30
0.0
 10
63.37690759033238
 20
2.4941780029749155e-16
 30
0.0
 10
63.79220453084409
 20
2.6828223109427184e-16
 30
0.0
 10
64.33456058988662
 20
2.6385048375577234e-16
 30
0.0
 10
64.95688050023833
 20
2.3650738725492606e-16
 30
0.0
 10
65.60512536625734
 20
1.8862726822624662e-16
 30
0.0
 10
66.22300510934815
 20
1.2436777728073768e-16
 30
0.0
 10
66.7568663939823
 20
4.9308861110519034e-17
 30
0.0
 10
67.1603515932099
 20
-3.003176990675853e-17
 30
0.0
 10
67.39842423429164
 20
-1.0676460443072398e-16
 30
0.0
 10
67.450411376522
 20
-1.7422657806607968e-16
 30
0.0
 10
67.31179873760502
 20
-2.2655965784226135e-16
 30
0.0
  0
LINE
  5
33
330
17
100
AcDbEntity
  8
0
100
AcDbLine
 10
68.54082501807956
 20
8.305739871492738e-48
 30
0.0
 11
67.311798737605
 21
8.429465468439996e-48
 31
0.0
  0
LINE
  5
34
330
17
100
AcDbEntity
  8
0
100
AcDbLine
 10
19.657353906944476
 20
-7.360688651475749e-49
 30
0.0
 11
68.54082501807956
 21
8.30573987149274e-48
 31
0.0
  0
LINE
  5
35
330
17
100
AcDbEntity
  8
0
100
AcDbLine
 10
19.657353906944476
 20
-7.360688651475748e-49
 30
0.0
 11
18.428327626469923
 21
-6.123432682003172e-49
 31
0.0
  0
SPLINE
  5
36
330
17
100
AcDbEntity
  8
0
100
AcDbSpline
 70
0
 71
1
 72
17
 73
15
 74
0
 40
0.0
 40
0.0
 40
0.07142857142857144
 40
0.14285714285714288
 40
0.21428571428571433
 40
0.28571428571428575
 40
0.3571428571428572
 40
0.42857142857142866
 40
0.5
 40
0.5714285714285713
 40
0.6428571428571427
 40
0.714285714285714
 40
0.7857142857142854
 40
0.8571428571428567
 40
0.928571428571428
 40
1.0
 40
1.0
 10
18.428327626469923
 20
2.265596578422603e-16
 30
0.0
 10
19.07432571800898
 20
1.742265780660784e-16
 30
0.0
 10
19.676403350375182
 20
1.0676460443072251e-16
 30
0.0
 10
20.182279357880986
 20
3.0031769906757035e-17
 30
0.0
 10
20.548026203703856
 20
-4.9308861110520384e-17
 30
0.0
 10
20.741884409633286
 20
-1.2436777728073877e-16
 30
0.0
 10
20.747020377410102
 20
-1.886272682262474e-16
 30
0.0
 10
20.562988127366772
 20
-2.365073872549265e-16
 30
0.0
 10
20.205768024890006
 20
-2.638504837557725e-16
 30
0.0
 10
19.70637913190894
 20
-2.6828223109427184e-16
 30
0.0
 10
19.108185679301684
 20
-2.494178002974915e-16
 30
0.0
 10
18.463131551590358
 20
-2.0889527652101518e-16
 30
0.0
 10
17.827229760910605
 20
-1.502334165924473e-16
 30
0.0
 10
17.25569857994413
 20
-7.852609919718822e-17
 30
0.0
 10
16.798166685727622
 20
-6.77927340424307e-32
 30
0.0
  0
SPLINE
  5
37
330
17
100
AcDbEntity
  8
0
100
AcDbSpline
 70
0
 71
1
 72
17
 73
15
 74
0
 40
0.0
 40
0.0
 40
0.10301460134574374
 40
0.20602920269148747
 40
0.3090438040372312
 40
0.41205840538297495
 40
0.5150730067287187
 40
0.6180876080744624
 40
0.7211022094202061
 40
0.8241168107659498
 40
0.9271314121116935
 40
1.0301460134574372
 40
1.133160614803181
 40
1.2361752161489248
 40
1.3391898174946686
 40
1.4422044188404124
 40
1.4422044188404124
 10
16.798166685727622
 20
0.0
 30
0.0
 10
16.673245871427795
 20
2.770536806318266e-17
 30
0.0
 10
16.56842006042902
 20
5.511698644705545e-17
 30
0.0
 10
16.48480068168955
 20
8.194421999054541e-17
 30
0.0
 10
16.42327432027957
 20
1.0790262954697898e-16
 30
0.0
 10
16.384493317250534
 20
1.3271698778621532e-16
 30
0.0
 10
16.36886885310642
 20
1.5612419732732695e-16
 30
0.0
 10
16.37656658821028
 20
1.778760802619547e-16
 30
0.0
 10
16.40750490634921
 20
1.9774200949206264e-16
 30
0.0
 10
16.46135578008063
 20
2.155113539829995e-16
 30
0.0
 10
16.53754824868482
 20
2.3099571200576266e-16
 30
0.0
 10
16.635274471848426
 20
2.440309086902284e-16
 30
0.0
 10
16.753498294893788
 20
2.5447873671003767e-16
 30
0.0
 10
16.89096623474041
 20
2.622284216433057e-16
 30
0.0
 10
17.04622077011829
 20
2.671977964724817e-16
 30
0.0
  0
LINE
  5
38
330
17
100
AcDbEntity
  8
0
100
AcDbLine
 10
12.404838133529942
 20
-1.3879780477432808e-48
 30
0.0
 11
17.04622077011829
 21
-5.294773496609862e-49
 31
0.0
  0
LINE
  5
39
330
17
100
AcDbEntity
  8
0
100
AcDbLine
 10
9.185993529829245
 20
-1.0639382152349364e-48
 30
0.0
 11
12.404838133529939
 21
-1.3879780477432805e-48
 31
0.0
  0
SPLINE
  5
3A
330
17
100
AcDbEntity
  8
0
100
AcDbSpline
 70
0
 71
3
 72
29
 73
25
 74
0
 40
0.0
 40
0.0
 40
0.0
 40
0.0
 40
0.07142857142857127
 40
0.07142857142857127
 40
0.07142857142857127
 40
0.14285714285714254
 40
0.14285714285714254
 40
0.14285714285714254
 40
0.2142857142857138
 40
0.2142857142857138
 40
0.2142857142857138
 40
0.2857142857142851
 40
0.2857142857142851
 40
0.2857142857142851
 40
0.3571428571428563
 40
0.3571428571428563
 40
0.3571428571428563
 40
0.4285714285714276
 40
0.4285714285714276
 40
0.4285714285714276
 40
0.4999999999999989
 40
0.4999999999999989
 40
0.4999999999999989
 40
1.0
 40
1.0
 40
1.0
 40
1.0
 10
9.185993529829247
 20
-1.0639382152349367e-48
 30
0.0
 10
9.01405882103277
 20
-1.047625531106381e-48
 30
0.0
 10
8.842124112236279
 20
-1.0313128469778239e-48
 30
0.0
 10
8.670189403439803
 20
-1.0150001628492687e-48
 30
0.0
 10
8.491822334662364
 20
-1.0000286341703244e-48
 30
0.0
 10
8.313455265884915
 20
-9.850571054913794e-49
 30
0.0
 10
8.135088197107482
 20
-9.700855768124352e-49
 30
0.0
 10
7.950849964668953
 20
-9.56502308504739e-49
 30
0.0
 10
7.766611732230422
 20
-9.429190401970433e-49
 30
0.0
 10
7.582373499791892
 20
-9.293357718893465e-49
 30
0.0
 10
7.392843772454752
 20
-9.17183500990842e-49
 30
0.0
 10
7.203314045117594
 20
-9.05031230092335e-49
 30
0.0
 10
7.013784317780444
 20
-8.928789591938296e-49
 30
0.0
 10
6.8195594129378785
 20
-8.82195920395219e-49
 30
0.0
 10
6.625334508095309
 20
-8.715128815966067e-49
 30
0.0
 10
6.431109603252737
 20
-8.608298427979954e-49
 30
0.0
 10
6.23280061073525
 20
-8.516496481449316e-49
 30
0.0
 10
6.034491618217746
 20
-8.424694534918647e-49
 30
0.0
 10
5.83618262570025
 20
-8.332892588388002e-49
 30
0.0
 10
5.634413485103638
 20
-8.256407919783052e-49
 30
0.0
 10
5.432644344507012
 20
-8.179923251178082e-49
 30
0.0
 10
5.230875203910397
 20
-8.103438582573132e-49
 30
0.0
 10
3.8063342265010442
 20
-7.627605036686322e-49
 30
0.0
 10
2.3164329143780953
 20
-7.532865425650294e-49
 30
0.0
 10
0.8656368721903815
 20
-7.825862491954362e-49
 30
0.0
  0
LINE
  5
3B
330
17
100
AcDbEntity
  8
0
100
AcDbLine
 10
0.8656368722869829
 20
-7.82586249282778e-49
 30
0.0
 11
-2.8919309069607357
 21
-8.599658967092008e-49
 31
0.0
  0
SPLINE
  5
3C
330
17
100
AcDbEntity
  8
0
100
AcDbSpline
 70
0
 71
2
 72
26
 73
23
 74
0
 40
0.0
 40
0.0
 40
0.0
 40
0.07142857142857119
 40
0.07142857142857119
 40
0.14285714285714238
 40
0.14285714285714238
 40
0.21428571428571355
 40
0.21428571428571355
 40
0.28571428571428475
 40
0.28571428571428475
 40
0.35714285714285593
 40
0.35714285714285593
 40
0.4285714285714271
 40
0.4285714285714271
 40
0.4999999999999983
 40
0.4999999999999983
 40
0.5714285714285695
 40
0.5714285714285695
 40
0.6428571428571407
 40
0.6428571428571407
 40
0.785714285714283
 40
0.785714285714283
 40
1.0
 40
1.0
 40
1.0
 10
-5.167980495953881
 20
-6.308347783659356e-49
 30
0.0
 10
-5.1450546967694315
 20
-6.458139095661528e-49
 30
0.0
 10
-5.122128897584982
 20
-6.6079304076636995e-49
 30
0.0
 10
-5.0870567751828855
 20
-6.753277212300684e-49
 30
0.0
 10
-5.051984652780789
 20
-6.89862401693767e-49
 30
0.0
 10
-5.005207254554143
 20
-7.037698514096726e-49
 30
0.0
 10
-4.958429856327497
 20
-7.176773011255782e-49
 30
0.0
 10
-4.900535428670612
 20
-7.307826277854486e-49
 30
0.0
 10
-4.842641001013732
 20
-7.438879544453189e-49
 30
0.0
 10
-4.774357591864524
 20
-7.560263527917819e-49
 30
0.0
 10
-4.706074182715316
 20
-7.681647511382449e-49
 30
0.0
 10
-4.628260486031681
 20
-7.791835754635291e-49
 30
0.0
 10
-4.550446789348042
 20
-7.902023997888134e-49
 30
0.0
 10
-4.464081346652966
 20
-7.999630835217833e-49
 30
0.0
 10
-4.37771590395789
 20
-8.097237672547532e-49
 30
0.0
 10
-4.283884798748627
 20
-8.18103565496599e-49
 30
0.0
 10
-4.1900536935393635
 20
-8.264833637384448e-49
 30
0.0
 10
-4.089936893308894
 20
-8.333768968338693e-49
 30
0.0
 10
-3.989820093078425
 20
-8.402704299292939e-49
 30
0.0
 10
-3.7816107266280232
 20
-8.518312841234857e-49
 30
0.0
 10
-3.5618372505354277
 20
-8.582730188913904e-49
 30
0.0
 10
-3.2278312358178773
 20
-8.660986016354262e-49
 30
0.0
 10
-2.891930906960733
 20
-8.599658967092004e-49
 30
0.0
  0
LINE
  5
3D
330
17
100
AcDbEntity
  8
0
100
AcDbLine
 10
-5.167980495953916
 20
-6.308347783659364e-49
 30
0.0
 11
-7.078133292106498
 21
1.096252034293335e-48
 31
0.0
  0
SPLINE
  5
3E
330
17
100
AcDbEntity
  8
0
100
AcDbSpline
 70
0
 71
1
 72
17
 73
15
 74
0
 40
0.0
 40
0.0
 40
0.07142857142857155
 40
0.1428571428571431
 40
0.21428571428571466
 40
0.2857142857142862
 40
0.35714285714285776
 40
0.4285714285714293
 40
0.5000000000000009
 40
0.5714285714285724
 40
0.6428571428571439
 40
0.7142857142857155
 40
0.785714285714287
 40
0.8571428571428586
 40
0.9285714285714302
 40
1.0
 40
1.0
 10
-7.078133292106493
 20
1.0962520342933376e-48
 30
0.0
 10
-7.686900345376107
 20
1.5846054691769603e-48
 30
0.0
 10
-8.42905760009074
 20
2.0695112945682e-48
 30
0.0
 10
-9.303567082221491
 20
2.5502913258235125e-48
 30
0.0
 10
-10.309205711181608
 20
3.026273148595514e-48
 30
0.0
 10
-11.444567010415449
 20
3.496791059265263e-48
 30
0.0
 10
-12.708063074483
 20
3.961186995988942e-48
 30
0.0
 10
-14.097926789889328
 20
4.418811459056884e-48
 30
0.0
 10
-15.612214306552481
 20
4.869024419277615e-48
 30
0.0
 10
-17.248807756453708
 20
5.311196213116562e-48
 30
0.0
 10
-19.005418215667277
 20
5.744708423337461e-48
 30
0.0
 10
-20.879588905627664
 20
6.168954743914753e-48
 30
0.0
 10
-22.86869862915639
 20
6.583341828007398e-48
 30
0.0
 10
-24.969965436443474
 20
6.987290117808086e-48
 30
0.0
 10
-27.180450515855597
 20
7.380234655107221e-48
 30
0.0
  0
SPLINE
  5
3F
330
17
100
AcDbEntity
  8
0
100
AcDbSpline
 70
0
 71
1
 72
17
 73
15
 74
0
 40
0.0
 40
0.0
 40
0.07142857142857142
 40
0.14285714285714285
 40
0.21428571428571427
 40
0.2857142857142857
 40
0.35714285714285715
 40
0.42857142857142855
 40
0.5
 40
0.5714285714285714
 40
0.6428571428571429
 40
0.7142857142857143
 40
0.7857142857142857
 40
0.8571428571428571
 40
0.9285714285714286
 40
1.0
 40
1.0
 10
-27.180450515855703
 20
7.380234655107254e-48
 30
0.0
 10
-29.244902971491996
 20
7.731628675352884e-48
 30
0.0
 10
-31.321595156813096
 20
8.081677170483991e-48
 30
0.0
 10
-33.41047997616772
 20
8.430372202029006e-48
 30
0.0
 10
-35.51151005739726
 20
8.77770586221051e-48
 30
0.0
 10
-37.62463775291093
 20
9.123670274124472e-48
 30
0.0
 10
-39.74981514076531
 20
9.468257591919037e-48
 30
0.0
 10
-41.886994025751676
 20
9.811460000972334e-48
 30
0.0
 10
-44.03612594048887
 20
1.0153269718069749e-47
 30
0.0
 10
-46.19716214652274
 20
1.0493678991580384e-47
 30
0.0
 10
-48.37005363543102
 20
1.0832680101632916e-47
 30
0.0
 10
-50.554751129934616
 20
1.1170265360290667e-47
 30
0.0
 10
-52.751205085015854
 20
1.1506427111725884e-47
 30
0.0
 10
-54.95936568904136
 20
1.1841157732393428e-47
 30
0.0
 10
-57.17918286489211
 20
1.217444963120362e-47
 30
0.0
  0
SPLINE
  5
40
330
17
100
AcDbEntity
  8
0
100
AcDbSpline
 70
0
 71
3
 72
20
 73
16
 74
0
 40
0.0
 40
0.0
 40
0.0
 40
0.0
 40
0.04160768435547312
 40
0.04160768435547312
 40
0.04160768435547312
 40
0.05349559417132258
 40
0.05349559417132258
 40
0.05349559417132258
 40
0.06538350398717205
 40
0.06538350398717205
 40
0.06538350398717205
 40
0.07132745889509678
 40
0.07132745889509678
 40
0.07132745889509678
 40
0.08321536871094626
 40
0.08321536871094626
 40
0.08321536871094626
 40
0.08321536871094626
 10
-57.179182864892624
 20
1.2174449631203692e-47
 30
0.0
 10
-59.775003847595855
 20
1.2562606677600776e-47
 30
0.0
 10
-62.31258208028113
 20
1.2958004270166235e-47
 30
0.0
 10
-64.78988072606167
 20
1.3360325035275528e-47
 30
0.0
 10
-65.49628898204817
 20
1.3475433392447784e-47
 30
0.0
 10
-66.19876907077101
 20
1.3590986416051223e-47
 30
0.0
 10
-66.89732099223006
 20
1.37069841060858e-47
 30
0.0
 10
-67.59365151858485
 20
1.3823230230063487e-47
 30
0.0
 10
-68.28601541754603
 20
1.393991461697412e-47
 30
0.0
 10
-68.97441268911362
 20
1.4057037266817664e-47
 30
0.0
 10
-69.31677043452956
 20
1.4115798574594078e-47
 30
0.0
 10
-69.65912817994533
 20
1.4174559882370454e-47
 30
0.0
 10
-70.00148592536127
 20
1.423332119014686e-47
 30
0.0
 10
-70.68251579499557
 20
1.4351243112242992e-47
 30
0.0
 10
-71.35952239978047
 20
1.446959357618057e-47
 30
0.0
 10
-72.03250573971633
 20
1.4588372581959642e-47
 30
0.0
  0
SPLINE
  5
41
330
17
100
AcDbEntity
  8
0
100
AcDbSpline
 70
0
 71
1
 72
17
 73
15
 74
0
 40
0.0
 40
0.0
 40
0.07142857142857152
 40
0.14285714285714304
 40
0.21428571428571458
 40
0.2857142857142861
 40
0.35714285714285765
 40
0.42857142857142916
 40
0.5000000000000007
 40
0.5714285714285722
 40
0.6428571428571438
 40
0.7142857142857153
 40
0.7857142857142865
 40
0.8571428571428577
 40
0.9285714285714288
 40
1.0
 40
1.0
 10
-72.05808189699437
 20
1.4917039488141726e-47
 30
0.0
 10
-72.16068510429747
 20
1.4896103752239253e-47
 30
0.0
 10
-72.24870774194557
 20
1.4873966464310927e-47
 30
0.0
 10
-72.32140015977711
 20
1.485081615791941e-47
 30
0.0
 10
-72.37814326838262
 20
1.4826849994060883e-47
 30
0.0
 10
-72.41845381161716
 20
1.4802272082031406e-47
 30
0.0
 10
-72.441988482281
 20
1.4777291741117637e-47
 30
0.0
 10
-72.44854684591624
 20
1.4752121717916374e-47
 30
0.0
 10
-72.43807304781896
 20
1.472697637446518e-47
 30
0.0
 10
-72.4106562887294
 20
1.4702069862615017e-47
 30
0.0
 10
-72.36653006514837
 20
1.4677614300192965e-47
 30
0.0
 10
-72.30607018074994
 20
1.4653817964487794e-47
 30
0.0
 10
-72.2297915458267
 20
1.4630883518443725e-47
 30
0.0
 10
-72.13834379202481
 20
1.4609006284669139e-47
 30
0.0
 10
-72.0325057397163
 20
1.4588372581959632e-47
 30
0.0
  0
LINE
  5
42
330
17
100
AcDbEntity
  8
0
100
AcDbLine
 10
-38.94554137649119
 20
2.1041753048362169e-47
 30
0.0
 11
-72.05808191234729
 21
1.4917039489687301e-47
 31
0.0
  0
SPLINE
  5
43
330
17
100
AcDbEntity
  8
0
100
AcDbSpline
 70
0
 71
3
 72
11
 73
7
 74
0
 40
0.0
 40
0.0
 40
0.0
 40
0.0
 40
0.5000000000000014
 40
0.5000000000000014
 40
0.5000000000000014
 40
1.0
 40
1.0
 40
1.0
 40
1.0
 10
-37.38210885101918
 20
2.1152574972907732e-47
 30
0.0
 10
-37.68623011988096
 20
2.115149009228939e-47
 30
0.0
 10
-37.98765530473532
 20
2.1140941683631819e-47
 30
0.0
 10
-38.258067717852185
 20
2.112192069264565e-47
 30
0.0
 10
-38.52759966709547
 20
2.1102668411780108e-47
 30
0.0
 10
-38.76416540920812
 20
2.1075082015378205e-47
 30
0.0
 10
-38.94554132591406
 20
2.104175304327059e-47
 30
0.0
  0
SPLINE
  5
44
330
17
100
AcDbEntity
  8
0
100
AcDbSpline
 70
0
 71
1
 72
17
 73
15
 74
0
 40
0.0
 40
0.0
 40
0.08070965027217511
 40
0.16141930054435022
 40
0.24212895081652533
 40
0.32283860108870044
 40
0.4035482513608756
 40
0.4842579016330507
 40
0.5649675519052259
 40
0.645677202177401
 40
0.7263868524495761
 40
0.8070965027217513
 40
0.8878061529939264
 40
0.9685158032661015
 40
1.0492254535382766
 40
1.1299351038104515
 40
1.1299351038104515
 10
33.40658341193621
 20
1.5336411168085214e-47
 30
0.0
 10
30.39842609664087
 20
1.6080330952795705e-47
 30
0.0
 10
26.96053554425329
 20
1.678873501363915e-47
 30
0.0
 10
23.115294183661383
 20
1.7457011277230952e-47
 30
0.0
 10
18.88773650621941
 20
1.8080808922705997e-47
 30
0.0
 10
14.305386078382746
 20
1.865606670779157e-47
 30
0.0
 10
9.398076349188763
 20
1.917903940957532e-47
 30
0.0
 10
4.19775641921855
 20
1.9646322207825306e-47
 30
0.0
 10
-1.261716964417019
 20
2.0054872852114112e-47
 30
0.0
 10
-6.944799832847252
 20
2.0402031468427835e-47
 30
0.0
 10
-12.814492404889862
 20
2.0685537876308702e-47
 30
0.0
 10
-18.832579974583183
 20
2.0903546303787836e-47
 30
0.0
 10
-24.95988170850117
 20
2.1054637404306445e-47
 30
0.0
 10
-31.15650573305308
 20
2.1137827497389122e-47
 30
0.0
 10
-37.3821088510192
 20
2.1152574972907732e-47
 30
0.0
  0
SPLINE
  5
45
330
17
100
AcDbEntity
  8
0
100
AcDbSpline
 70
0
 71
1
 72
17
 73
15
 74
0
 40
0.0
 40
0.0
 40
0.0714285714285717
 40
0.1428571428571434
 40
0.2142857142857151
 40
0.2857142857142868
 40
0.3571428571428585
 40
0.4285714285714302
 40
0.5000000000000019
 40
0.5714285714285736
 40
0.6428571428571452
 40
0.714285714285717
 40
0.7857142857142887
 40
0.8571428571428604
 40
0.928571428571432
 40
1.0
 40
1.0
 10
67.74622928224235
 20
9.767748635359303e-48
 30
0.0
 10
64.69103518317276
 20
1.008628848851975e-47
 30
0.0
 10
61.716147184469605
 20
1.0418680826417717e-47
 30
0.0
 10
58.82493679873605
 20
1.0764548940768077e-47
 30
0.0
 10
56.02068070471034
 20
1.1123500850861962e-47
 30
0.0
 10
53.306557033726335
 20
1.1495129747807953e-47
 30
0.0
 10
50.68564176786043
 20
1.1879014455578493e-47
 30
0.0
 10
48.16090525384652
 20
1.227471990833884e-47
 30
0.0
 10
45.735208836710214
 20
1.2681797643517732e-47
 30
0.0
 10
43.41130161693704
 20
1.3099786310060868e-47
 30
0.0
 10
41.1918173348505
 20
1.3528212191291224e-47
 30
0.0
 10
39.07927138573028
 20
1.3966589741783678e-47
 30
0.0
 10
37.07605796905398
 20
1.4414422137645326e-47
 30
0.0
 10
35.18444737509269
 20
1.4871201839578074e-47
 30
0.0
 10
33.40658341193624
 20
1.5336411168085197e-47
 30
0.0
  0
SPLINE
  5
46
330
17
100
AcDbEntity
  8
0
100
AcDbSpline
 70
0
 71
1
 72
17
 73
15
 74
0
 40
0.0
 40
0.0
 40
0.4487989505128276
 40
0.8975979010256552
 40
1.3463968515384828
 40
1.7951958020513104
 40
2.243994752564138
 40
2.6927937030769655
 40
3.141592653589793
 40
3.5903916041026207
 40
4.039190554615448
 40
4.487989505128276
 40
4.9367884556411035
 40
5.385587406153931
 40
5.834386356666759
 40
6.283185307179586
 40
6.283185307179586
 10
-60.9606882643217
 20
0.0
 30
0.0
 10
-61.74134375170699
 20
1.1689795310872862e-16
 30
0.0
 10
-62.70108499846934
 20
2.1064283294496263e-16
 30
0.0
 10
-63.64982348023347
 20
2.626673163516341e-16
 30
0.0
 10
-64.39964990517217
 20
2.626673163516341e-16
 30
0.0
 10
-64.80205195380864
 20
2.1064283294496265e-16
 30
0.0
 10
-64.77732896527323
 20
1.1689795310872867e-16
 30
0.0
 10
-64.33037763065289
 20
2.465190328815662e-32
 30
0.0
 10
-63.5497221432676
 20
-1.168979531087286e-16
 30
0.0
 10
-62.58998089650524
 20
-2.1064283294496255e-16
 30
0.0
 10
-61.6412424147411
 20
-2.626673163516341e-16
 30
0.0
 10
-60.89141598980241
 20
-2.626673163516341e-16
 30
0.0
 10
-60.48901394116592
 20
-2.1064283294496263e-16
 30
0.0
 10
-60.513736929701366
 20
-1.1689795310872867e-16
 30
0.0
 10
-60.9606882643217
 20
-6.162975822039155e-32
 30
0.0
  0
SPLINE
  5
47
330
17
100
AcDbEntity
  8
0
100
AcDbSpline
 70
0
 71
1
 72
17
 73
15
 74
0
 40
0.0
 40
0.0
 40
0.4487989505128276
 40
0.8975979010256552
 40
1.3463968515384828
 40
1.7951958020513104
 40
2.243994752564138
 40
2.6927937030769655
 40
3.141592653589793
 40
3.5903916041026207
 40
4.039190554615448
 40
4.487989505128276
 40
4.9367884556411035
 40
5.385587406153931
 40
5.834386356666759
 40
6.283185307179586
 40
6.283185307179586
 10
-1.179045145944768
 20
0.0
 30
0.0
 10
-1.5369216812299205
 20
1.1689795310872862e-16
 30
0.0
 10
-2.254774130488821
 20
2.1064283294496263e-16
 30
0.0
 10
-3.1904230122632065
 20
2.626673163516341e-16
 30
0.0
 10
-4.158551590537174
 20
2.626673163516341e-16
 30
0.0
 10
-4.9674101270657385
 20
2.1064283294496265e-16
 30
0.0
 10
-5.456794268690464
 20
1.1689795310872867e-16
 30
0.0
 10
-5.529775484259957
 20
2.465190328815662e-32
 30
0.0
 10
-5.171898948974803
 20
-1.168979531087286e-16
 30
0.0
 10
-4.454046499715904
 20
-2.1064283294496255e-16
 30
0.0
 10
-3.5183976179415177
 20
-2.626673163516341e-16
 30
0.0
 10
-2.5502690396675494
 20
-2.626673163516341e-16
 30
0.0
 10
-1.7414105031389866
 20
-2.1064283294496263e-16
 30
0.0
 10
-1.2520263615142593
 20
-1.1689795310872867e-16
 30
0.0
 10
-1.1790451459447677
 20
-6.162975822039155e-32
 30
0.0
  0
SPLINE
  5
48
330
17
100
AcDbEntity
  8
0
100
AcDbSpline
 70
0
 71
1
 72
17
 73
15
 74
0
 40
0.0
 40
0.0
 40
0.4487989505128276
 40
0.8975979010256552
 40
1.3463968515384828
 40
1.7951958020513104
 40
2.243994752564138
 40
2.6927937030769655
 40
3.141592653589793
 40
3.5903916041026207
 40
4.039190554615448
 40
4.487989505128276
 40
4.9367884556411035
 40
5.385587406153931
 40
5.834386356666759
 40
6.283185307179586
 40
6.283185307179586
 10
43.7036183922954
 20
0.0
 30
0.0
 10
43.31225862586689
 20
1.1689795310872862e-16
 30
0.0
 10
43.34905486855786
 20
2.1064283294496263e-16
 30
0.0
 10
43.80671917322702
 20
2.626673163516341e-16
 30
0.0
 10
44.59460551145031
 20
2.626673163516341e-16
 30
0.0
 10
45.5566633311508
 20
2.1064283294496265e-16
 30
0.0
 10
46.50234528227192
 20
1.1689795310872867e-16
 30
0.0
 10
47.24434745636616
 20
2.465190328815662e-32
 30
0.0
 10
47.635707222794665
 20
-1.168979531087286e-16
 30
0.0
 10
47.598910980103696
 20
-2.1064283294496255e-16
 30
0.0
 10
47.14124667543453
 20
-2.626673163516341e-16
 30
0.0
 10
46.353360337211235
 20
-2.626673163516341e-16
 30
0.0
 10
45.39130251751076
 20
-2.1064283294496263e-16
 30
0.0
 10
44.445620566389636
 20
-1.1689795310872867e-16
 30
0.0
 10
43.7036183922954
 20
-6.162975822039155e-32
 30
0.0
  0
SPLINE
  5
49
330
17
100
AcDbEntity
  8
0
100
AcDbSpline
 70
0
 71
1
 72
17
 73
15
 74
0
 40
0.0
 40
0.0
 40
0.4487989505128276
 40
0.8975979010256552
 40
1.3463968515384828
 40
1.7951958020513104
 40
2.243994752564138
 40
2.6927937030769655
 40
3.141592653589793
 40
3.5903916041026207
 40
4.039190554615448
 40
4.487989505128276
 40
4.9367884556411035
 40
5.385587406153931
 40
5.834386356666759
 40
6.283185307179586
 40
6.283185307179586
 10
-51.478255889793374
 20
0.0
 30
0.0
 10
-51.08689612336488
 20
1.1689795310872862e-16
 30
0.0
 10
-51.12369236605585
 20
2.1064283294496263e-16
 30
0.0
 10
-51.581356670725
 20
2.626673163516341e-16
 30
0.0
 10
-52.3692430089483
 20
2.626673163516341e-16
 30
0.0
 10
-53.33130082864877
 20
2.1064283294496265e-16
 30
0.0
 10
-54.27698277976991
 20
1.1689795310872867e-16
 30
0.0
 10
-55.01898495386415
 20
2.465190328815662e-32
 30
0.0
 10
-55.41034472029264
 20
-1.168979531087286e-16
 30
0.0
 10
-55.37354847760167
 20
-2.1064283294496255e-16
 30
0.0
 10
-54.91588417293252
 20
-2.626673163516341e-16
 30
0.0
 10
-54.12799783470922
 20
-2.626673163516341e-16
 30
0.0
 10
-53.16594001500875
 20
-2.1064283294496263e-16
 30
0.0
 10
-52.22025806388761
 20
-1.1689795310872867e-16
 30
0.0
 10
-51.478255889793374
 20
-6.162975822039155e-32
 30
0.0
  0
SPLINE
  5
4A
330
17
100
AcDbEntity
  8
0
100
AcDbSpline
 70
0
 71
1
 72
17
 73
15
 74
0
 40
0.0
 40
0.0
 40
0.4487989505128276
 40
0.8975979010256552
 40
1.3463968515384828
 40
1.7951958020513104
 40
2.243994752564138
 40
2.6927937030769655
 40
3.141592653589793
 40
3.5903916041026207
 40
4.039190554615448
 40
4.487989505128276
 40
4.9367884556411035
 40
5.385587406153931
 40
5.834386356666759
 40
6.283185307179586
 40
6.283185307179586
 10
1.6186304050231115
 20
0.0
 30
0.0
 10
2.5487646355758358
 20
1.1689795310872862e-16
 30
0.0
 10
3.519438491147014
 20
2.1064283294496263e-16
 30
0.0
 10
4.338398110107121
 20
2.626673163516341e-16
 30
0.0
 10
4.843438496040562
 20
2.626673163516341e-16
 30
0.0
 10
4.9345302065993195
 20
2.1064283294496265e-16
 30
0.0
 10
4.5936314113407235
 20
1.1689795310872867e-16
 30
0.0
 10
3.8882612975151147
 20
2.465190328815662e-32
 30
0.0
 10
2.9581270669623763
 20
-1.168979531087286e-16
 30
0.0
 10
1.9874532113912124
 20
-2.1064283294496255e-16
 30
0.0
 10
1.1684935924310906
 20
-2.626673163516341e-16
 30
0.0
 10
0.6634532064976639
 20
-2.626673163516341e-16
 30
0.0
 10
0.5723614959388925
 20
-2.1064283294496263e-16
 30
0.0
 10
0.9132602911975027
 20
-1.1689795310872867e-16
 30
0.0
 10
1.6186304050231115
 20
-6.162975822039155e-32
 30
0.0
  0
SPLINE
  5
4B
330
17
100
AcDbEntity
  8
0
100
AcDbSpline
 70
0
 71
1
 72
17
 73
15
 74
0
 40
0.0
 40
0.0
 40
0.4487989505128276
 40
0.8975979010256552
 40
1.3463968515384828
 40
1.7951958020513104
 40
2.243994752564138
 40
2.6927937030769655
 40
3.141592653589793
 40
3.5903916041026207
 40
4.039190554615448
 40
4.487989505128276
 40
4.9367884556411035
 40
5.385587406153931
 40
5.834386356666759
 40
6.283185307179586
 40
6.283185307179586
 10
44.33515977427301
 20
0.0
 30
0.0
 10
45.116447946504096
 20
1.1689795310872862e-16
 30
0.0
 10
46.07639617159845
 20
2.1064283294496263e-16
 30
0.0
 10
47.024874930583735
 20
2.626673163516341e-16
 30
0.0
 10
47.774026372914335
 20
2.626673163516341e-16
 30
0.0
 10
48.17547186769717
 20
2.1064283294496265e-16
 30
0.0
 10
48.14970021128461
 20
1.1689795310872867e-16
 30
0.0
 10
47.701815796297794
 20
2.465190328815662e-32
 30
0.0
 10
46.92052762406671
 20
-1.168979531087286e-16
 30
0.0
 10
45.96057939897236
 20
-2.1064283294496255e-16
 30
0.0
 10
45.01210063998707
 20
-2.626673163516341e-16
 30
0.0
 10
44.26294919765647
 20
-2.626673163516341e-16
 30
0.0
 10
43.861503702873634
 20
-2.1064283294496263e-16
 30
0.0
 10
43.88727535928619
 20
-1.1689795310872867e-16
 30
0.0
 10
44.33515977427301
 20
-6.162975822039155e-32
 30
0.0
  0
ENDSEC
  0
SECTION
  2
OBJECTS
  0
DICTIONARY
  5
A
330
0
100
AcDbDictionary
281
1
  3
ACAD_COLOR
350
B
  3
ACAD_GROUP
350
C
  3
ACAD_LAYOUT
350
D
  3
ACAD_MATERIAL
350
E
  3
ACAD_MLEADERSTYLE
350
F
  3
ACAD_MLINESTYLE
350
10
  3
ACAD_PLOTSETTINGS
350
11
  3
ACAD_PLOTSTYLENAME
350
12
  3
ACAD_SCALELIST
350
14
  3
ACAD_TABLESTYLE
350
15
  3
ACAD_VISUALSTYLE
350
16
  3
EZDXF_META
350
2D
  0
DICTIONARY
  5
B
330
A
100
AcDbDictionary
281
1
  0
DICTIONARY
  5
C
330
A
100
AcDbDictionary
281
1
  0
DICTIONARY
  5
D
330
A
100
AcDbDictionary
281
1
  3
Model
350
1A
  3
Layout1
350
1E
  0
DICTIONARY
  5
E
330
A
100
AcDbDictionary
281
1
  3
ByBlock
350
1F
  3
ByLayer
350
20
  3
Global
350
21
  0
DICTIONARY
  5
F
330
A
100
AcDbDictionary
281
1
  3
Standard
350
2C
  0
DICTIONARY
  5
10
330
A
100
AcDbDictionary
281
1
  3
Standard
350
22
  0
DICTIONARY
  5
11
330
A
100
AcDbDictionary
281
1
  0
ACDBDICTIONARYWDFLT
  5
12
330
A
100
AcDbDictionary
281
1
  3
Normal
350
13
100
AcDbDictionaryWithDefault
340
13
  0
ACDBPLACEHOLDER
  5
13
330
12
  0
DICTIONARY
  5
14
330
A
100
AcDbDictionary
281
1
  0
DICTIONARY
  5
15
330
A
100
AcDbDictionary
281
1
  0
DICTIONARY
  5
16
330
A
100
AcDbDictionary
281
1
  0
LAYOUT
  5
1A
330
D
100
AcDbPlotSettings
  1

  4
A3
  6

 40
7.5
 41
20.0
 42
7.5
 43
20.0
 44
420.0
 45
297.0
 46
0.0
 47
0.0
 48
0.0
 49
0.0
140
0.0
141
0.0
142
1.0
143
1.0
 70
1024
 72
1
 73
0
 74
5
  7

 75
16
 76
0
 77
2
 78
300
147
1.0
148
0.0
149
0.0
100
AcDbLayout
  1
Model
 70
1
 71
0
 10
0.0
 20
0.0
 11
420.0
 21
297.0
 12
0.0
 22
0.0
 32
0.0
 14
1e+20
 24
1e+20
 34
1e+20
 15
-1e+20
 25
-1e+20
 35
-1e+20
146
0.0
 13
0.0
 23
0.0
 33
0.0
 16
1.0
 26
0.0
 36
0.0
 17
0.0
 27
1.0
 37
0.0
 76
1
330
17
  0
LAYOUT
  5
1E
330
D
100
AcDbPlotSettings
  1

  4
A3
  6

 40
7.5
 41
20.0
 42
7.5
 43
20.0
 44
420.0
 45
297.0
 46
0.0
 47
0.0
 48
0.0
 49
0.0
140
0.0
141
0.0
142
1.0
143
1.0
 70
0
 72
1
 73
0
 74
5
  7

 75
16
 76
0
 77
2
 78
300
147
1.0
148
0.0
149
0.0
100
AcDbLayout
  1
Layout1
 70
1
 71
1
 10
0.0
 20
0.0
 11
420.0
 21
297.0
 12
0.0
 22
0.0
 32
0.0
 14
1e+20
 24
1e+20
 34
1e+20
 15
-1e+20
 25
-1e+20
 35
-1e+20
146
0.0
 13
0.0
 23
0.0
 33
0.0
 16
1.0
 26
0.0
 36
0.0
 17
0.0
 27
1.0
 37
0.0
 76
1
330
1B
  0
MATERIAL
  5
1F
102
{ACAD_REACTORS
330
E
102
}
330
E
100
AcDbMaterial
  1
ByBlock
  2

 70
0
 40
1.0
 71
1
 41
1.0
 91
-1023410177
 42
1.0
 72
1
  3

 73
1
 74
1
 75
1
 44
0.5
 73
0
 45
1.0
 46
1.0
 77
1
  4

 78
1
 79
1
170
1
 48
1.0
171
1
  6

172
1
173
1
174
1
140
1.0
141
1.0
175
1
  7

176
1
177
1
178
1
143
1.0
179
1
  8

270
1
271
1
272
1
145
1.0
146
1.0
273
1
  9

274
1
275
1
276
1
 42
1.0
 72
1
  3

 73
1
 74
1
 75
1
 94
63
  0
MATERIAL
  5
20
102
{ACAD_REACTORS
330
E
102
}
330
E
100
AcDbMaterial
  1
ByLayer
  2

 70
0
 40
1.0
 71
1
 41
1.0
 91
-1023410177
 42
1.0
 72
1
  3

 73
1
 74
1
 75
1
 44
0.5
 73
0
 45
1.0
 46
1.0
 77
1
  4

 78
1
 79
1
170
1
 48
1.0
171
1
  6

172
1
173
1
174
1
140
1.0
141
1.0
175
1
  7

176
1
177
1
178
1
143
1.0
179
1
  8

270
1
271
1
272
1
145
1.0
146
1.0
273
1
  9

274
1
275
1
276
1
 42
1.0
 72
1
  3

 73
1
 74
1
 75
1
 94
63
  0
MATERIAL
  5
21
102
{ACAD_REACTORS
330
E
102
}
330
E
100
AcDbMaterial
  1
Global
  2

 70
0
 40
1.0
 71
1
 41
1.0
 91
-1023410177
 42
1.0
 72
1
  3

 73
1
 74
1
 75
1
 44
0.5
 73
0
 45
1.0
 46
1.0
 77
1
  4

 78
1
 79
1
170
1
 48
1.0
171
1
  6

172
1
173
1
174
1
140
1.0
141
1.0
175
1
  7

176
1
177
1
178
1
143
1.0
179
1
  8

270
1
271
1
272
1
145
1.0
146
1.0
273
1
  9

274
1
275
1
276
1
 42
1.0
 72
1
  3

 73
1
 74
1
 75
1
 94
63
  0
MLINESTYLE
  5
22
102
{ACAD_REACTORS
330
10
102
}
330
10
100
AcDbMlineStyle
  2
Standard
 70
0
  3

 62
256
 51
90.0
 52
90.0
 71
2
 49
0.5
 62
256
  6
BYLAYER
 49
-0.5
 62
256
  6
BYLAYER
  0
MLEADERSTYLE
  5
2C
102
{ACAD_REACTORS
330
F
102
}
330
F
100
AcDbMLeaderStyle
179
2
170
2
171
1
172
0
 90
2
 40
0.0
 41
0.0
173
1
 91
-1056964608
 92
-2
290
1
 42
2.0
291
1
 43
8.0
  3
Standard
 44
4.0
300

342
29
174
1
175
1
176
0
178
1
 93
-1056964608
 45
4.0
292
0
297
0
 46
4.0
 94
-1056964608
 47
1.0
 49
1.0
140
1.0
294
1
141
0.0
177
0
142
1.0
295
0
296
0
143
3.75
271
0
272
9
273
9
  0
DICTIONARY
  5
2D
330
A
100
AcDbDictionary
280
1
281
1
  3
CREATED_BY_EZDXF
350
2E
  3
WRITTEN_BY_EZDXF
350
4F
  0
DICTIONARYVAR
  5
2E
330
2D
100
DictionaryVariables
280
0
  1
1.4.3 @ 2026-05-13T18:35:15.262833+00:00
  0
DICTIONARYVAR
  5
4F
330
2D
100
DictionaryVariables
280
0
  1
1.4.3 @ 2026-05-13T18:35:15.323274+00:00
  0
ENDSEC
  0
EOF
