  0
SECTION
  2
HEADER
  9
$ACADVER
  1
AC1027
  9
$ACADMAINTVER
 70
105
  9
$DWGCODEPAGE
  3
ANSI_1252
  9
$LASTSAVEDBY
  1
ezdxf
  9
$REQUIREDVERSIONS
160
0
  9
$INSBASE
 10
0.0
 20
0.0
 30
0.0
  9
$EXTMIN
 10
1e+20
 20
1e+20
 30
1e+20
  9
$EXTMAX
 10
-1e+20
 20
-1e+20
 30
-1e+20
  9
$LIMMIN
 10
0.0
 20
0.0
  9
$LIMMAX
 10
420.0
 20
297.0
  9
$ORTHOMODE
 70
0
  9
$REGENMODE
 70
1
  9
$FILLMODE
 70
1
  9
$QTEXTMODE
 70
0
  9
$MIRRTEXT
 70
1
  9
$LTSCALE
 40
1.0
  9
$ATTMODE
 70
1
  9
$TEXTSIZE
 40
2.5
  9
$TRACEWID
 40
1.0
  9
$TEXTSTYLE
  7
Standard
  9
$CLAYER
  8
0
  9
$CELTYPE
  6
ByLayer
  9
$CECOLOR
 62
256
  9
$CELTSCALE
 40
1.0
  9
$DISPSILH
 70
0
  9
$DIMSCALE
 40
1.0
  9
$DIMASZ
 40
2.5
  9
$DIMEXO
 40
0.625
  9
$DIMDLI
 40
3.75
  9
$DIMRND
 40
0.0
  9
$DIMDLE
 40
0.0
  9
$DIMEXE
 40
1.25
  9
$DIMTP
 40
0.0
  9
$DIMTM
 40
0.0
  9
$DIMTXT
 40
2.5
  9
$DIMCEN
 40
2.5
  9
$DIMTSZ
 40
0.0
  9
$DIMTOL
 70
0
  9
$DIMLIM
 70
0
  9
$DIMTIH
 70
0
  9
$DIMTOH
 70
0
  9
$DIMSE1
 70
0
  9
$DIMSE2
 70
0
  9
$DIMTAD
 70
1
  9
$DIMZIN
 70
8
  9
$DIMBLK
  1

  9
$DIMASO
 70
1
  9
$DIMSHO
 70
1
  9
$DIMPOST
  1

  9
$DIMAPOST
  1

  9
$DIMALT
 70
0
  9
$DIMALTD
 70
3
  9
$DIMALTF
 40
0.03937007874
  9
$DIMLFAC
 40
1.0
  9
$DIMTOFL
 70
1
  9
$DIMTVP
 40
0.0
  9
$DIMTIX
 70
0
  9
$DIMSOXD
 70
0
  9
$DIMSAH
 70
0
  9
$DIMBLK1
  1

  9
$DIMBLK2
  1

  9
$DIMSTYLE
  2
ISO-25
  9
$DIMCLRD
 70
0
  9
$DIMCLRE
 70
0
  9
$DIMCLRT
 70
0
  9
$DIMTFAC
 40
1.0
  9
$DIMGAP
 40
0.625
  9
$DIMJUST
 70
0
  9
$DIMSD1
 70
0
  9
$DIMSD2
 70
0
  9
$DIMTOLJ
 70
0
  9
$DIMTZIN
 70
8
  9
$DIMALTZ
 70
0
  9
$DIMALTTZ
 70
0
  9
$DIMUPT
 70
0
  9
$DIMDEC
 70
2
  9
$DIMTDEC
 70
2
  9
$DIMALTU
 70
2
  9
$DIMALTTD
 70
3
  9
$DIMTXSTY
  7
Standard
  9
$DIMAUNIT
 70
0
  9
$DIMADEC
 70
0
  9
$DIMALTRND
 40
0.0
  9
$DIMAZIN
 70
0
  9
$DIMDSEP
 70
44
  9
$DIMATFIT
 70
3
  9
$DIMFRAC
 70
0
  9
$DIMLDRBLK
  1

  9
$DIMLUNIT
 70
2
  9
$DIMLWD
 70
-2
  9
$DIMLWE
 70
-2
  9
$DIMTMOVE
 70
0
  9
$DIMFXL
 40
1.0
  9
$DIMFXLON
 70
0
  9
$DIMJOGANG
 40
0.785398163397
  9
$DIMTFILL
 70
0
  9
$DIMTFILLCLR
 70
0
  9
$DIMARCSYM
 70
0
  9
$DIMLTYPE
  6

  9
$DIMLTEX1
  6

  9
$DIMLTEX2
  6

  9
$DIMTXTDIRECTION
 70
0
  9
$LUNITS
 70
2
  9
$LUPREC
 70
4
  9
$SKETCHINC
 40
1.0
  9
$FILLETRAD
 40
10.0
  9
$AUNITS
 70
0
  9
$AUPREC
 70
2
  9
$MENU
  1
.
  9
$ELEVATION
 40
0.0
  9
$PELEVATION
 40
0.0
  9
$THICKNESS
 40
0.0
  9
$LIMCHECK
 70
0
  9
$CHAMFERA
 40
0.0
  9
$CHAMFERB
 40
0.0
  9
$CHAMFERC
 40
0.0
  9
$CHAMFERD
 40
0.0
  9
$SKPOLY
 70
0
  9
$TDCREATE
 40
2461174.5661574076
  9
$TDUCREATE
 40
2458532.153996898
  9
$TDUPDATE
 40
2461174.5661574076
  9
$TDUUPDATE
 40
2458532.1544311
  9
$TDINDWG
 40
0.0
  9
$TDUSRTIMER
 40
0.0
  9
$USRTIMER
 70
1
  9
$ANGBASE
 50
0.0
  9
$ANGDIR
 70
0
  9
$PDMODE
 70
0
  9
$PDSIZE
 40
0.0
  9
$PLINEWID
 40
0.0
  9
$SPLFRAME
 70
0
  9
$SPLINETYPE
 70
6
  9
$SPLINESEGS
 70
8
  9
$HANDSEED
  5
110
  9
$SURFTAB1
 70
6
  9
$SURFTAB2
 70
6
  9
$SURFTYPE
 70
6
  9
$SURFU
 70
6
  9
$SURFV
 70
6
  9
$UCSBASE
  2

  9
$UCSNAME
  2

  9
$UCSORG
 10
0.0
 20
0.0
 30
0.0
  9
$UCSXDIR
 10
1.0
 20
0.0
 30
0.0
  9
$UCSYDIR
 10
0.0
 20
1.0
 30
0.0
  9
$UCSORTHOREF
  2

  9
$UCSORTHOVIEW
 70
0
  9
$UCSORGTOP
 10
0.0
 20
0.0
 30
0.0
  9
$UCSORGBOTTOM
 10
0.0
 20
0.0
 30
0.0
  9
$UCSORGLEFT
 10
0.0
 20
0.0
 30
0.0
  9
$UCSORGRIGHT
 10
0.0
 20
0.0
 30
0.0
  9
$UCSORGFRONT
 10
0.0
 20
0.0
 30
0.0
  9
$UCSORGBACK
 10
0.0
 20
0.0
 30
0.0
  9
$PUCSBASE
  2

  9
$PUCSNAME
  2

  9
$PUCSORG
 10
0.0
 20
0.0
 30
0.0
  9
$PUCSXDIR
 10
1.0
 20
0.0
 30
0.0
  9
$PUCSYDIR
 10
0.0
 20
1.0
 30
0.0
  9
$PUCSORTHOREF
  2

  9
$PUCSORTHOVIEW
 70
0
  9
$PUCSORGTOP
 10
0.0
 20
0.0
 30
0.0
  9
$PUCSORGBOTTOM
 10
0.0
 20
0.0
 30
0.0
  9
$PUCSORGLEFT
 10
0.0
 20
0.0
 30
0.0
  9
$PUCSORGRIGHT
 10
0.0
 20
0.0
 30
0.0
  9
$PUCSORGFRONT
 10
0.0
 20
0.0
 30
0.0
  9
$PUCSORGBACK
 10
0.0
 20
0.0
 30
0.0
  9
$USERI1
 70
0
  9
$USERI2
 70
0
  9
$USERI3
 70
0
  9
$USERI4
 70
0
  9
$USERI5
 70
0
  9
$USERR1
 40
0.0
  9
$USERR2
 40
0.0
  9
$USERR3
 40
0.0
  9
$USERR4
 40
0.0
  9
$USERR5
 40
0.0
  9
$WORLDVIEW
 70
1
  9
$SHADEDGE
 70
3
  9
$SHADEDIF
 70
70
  9
$TILEMODE
 70
1
  9
$MAXACTVP
 70
64
  9
$PINSBASE
 10
0.0
 20
0.0
 30
0.0
  9
$PLIMCHECK
 70
0
  9
$PEXTMIN
 10
1e+20
 20
1e+20
 30
1e+20
  9
$PEXTMAX
 10
-1e+20
 20
-1e+20
 30
-1e+20
  9
$PLIMMIN
 10
0.0
 20
0.0
  9
$PLIMMAX
 10
420.0
 20
297.0
  9
$UNITMODE
 70
0
  9
$VISRETAIN
 70
1
  9
$PLINEGEN
 70
0
  9
$PSLTSCALE
 70
1
  9
$TREEDEPTH
 70
3020
  9
$CMLSTYLE
  2
Standard
  9
$CMLJUST
 70
0
  9
$CMLSCALE
 40
20.0
  9
$PROXYGRAPHICS
 70
1
  9
$MEASUREMENT
 70
1
  9
$CELWEIGHT
370
-1
  9
$ENDCAPS
280
0
  9
$JOINSTYLE
280
0
  9
$LWDISPLAY
290
0
  9
$INSUNITS
 70
4
  9
$HYPERLINKBASE
  1

  9
$STYLESHEET
  1

  9
$XEDIT
290
1
  9
$CEPSNTYPE
380
0
  9
$PSTYLEMODE
290
1
  9
$FINGERPRINTGUID
  2
{42B1E5EB-F3AC-4A05-AD6D-F38EDE9CFE38}
  9
$VERSIONGUID
  2
{B831E32B-048A-459A-8B4E-2D6C18FAE0EC}
  9
$EXTNAMES
290
1
  9
$PSVPSCALE
 40
0.0
  9
$OLESTARTUP
290
0
  9
$SORTENTS
280
127
  9
$INDEXCTL
280
0
  9
$HIDETEXT
280
1
  9
$XCLIPFRAME
280
1
  9
$HALOGAP
280
0
  9
$OBSCOLOR
 70
257
  9
$OBSLTYPE
280
0
  9
$INTERSECTIONDISPLAY
280
0
  9
$INTERSECTIONCOLOR
 70
257
  9
$DIMASSOC
280
2
  9
$PROJECTNAME
  1

  9
$CAMERADISPLAY
290
0
  9
$LENSLENGTH
 40
50.0
  9
$CAMERAHEIGHT
 40
0.0
  9
$STEPSPERSEC
 40
24.0
  9
$STEPSIZE
 40
100.0
  9
$3DDWFPREC
 40
2.0
  9
$PSOLWIDTH
 40
0.005
  9
$PSOLHEIGHT
 40
0.08
  9
$LOFTANG1
 40
1.570796326795
  9
$LOFTANG2
 40
1.570796326795
  9
$LOFTMAG1
 40
0.0
  9
$LOFTMAG2
 40
0.0
  9
$LOFTPARAM
 70
7
  9
$LOFTNORMALS
280
1
  9
$LATITUDE
 40
37.795
  9
$LONGITUDE
 40
-122.394
  9
$NORTHDIRECTION
 40
0.0
  9
$TIMEZONE
 70
-8000
  9
$LIGHTGLYPHDISPLAY
280
1
  9
$TILEMODELIGHTSYNCH
280
1
  9
$CMATERIAL
347
20
  9
$SOLIDHIST
280
0
  9
$SHOWHIST
280
1
  9
$DWFFRAME
280
2
  9
$DGNFRAME
280
2
  9
$REALWORLDSCALE
290
1
  9
$INTERFERECOLOR
 62
256
  9
$CSHADOW
280
0
  9
$SHADOWPLANELOCATION
 40
0.0
  0
ENDSEC
  0
SECTION
  2
CLASSES
  0
CLASS
  1
ACDBDICTIONARYWDFLT
  2
AcDbDictionaryWithDefault
  3
ObjectDBX Classes
 90
0
 91
0
280
0
281
0
  0
CLASS
  1
SUN
  2
AcDbSun
  3
SCENEOE
 90
1153
 91
0
280
0
281
0
  0
CLASS
  1
VISUALSTYLE
  2
AcDbVisualStyle
  3
ObjectDBX Classes
 90
4095
 91
0
280
0
281
0
  0
CLASS
  1
MATERIAL
  2
AcDbMaterial
  3
ObjectDBX Classes
 90
1153
 91
0
280
0
281
0
  0
CLASS
  1
SCALE
  2
AcDbScale
  3
ObjectDBX Classes
 90
1153
 91
0
280
0
281
0
  0
CLASS
  1
TABLESTYLE
  2
AcDbTableStyle
  3
ObjectDBX Classes
 90
4095
 91
0
280
0
281
0
  0
CLASS
  1
MLEADERSTYLE
  2
AcDbMLeaderStyle
  3
ACDB_MLEADERSTYLE_CLASS
 90
4095
 91
0
280
0
281
0
  0
CLASS
  1
DICTIONARYVAR
  2
AcDbDictionaryVar
  3
ObjectDBX Classes
 90
0
 91
0
280
0
281
0
  0
CLASS
  1
CELLSTYLEMAP
  2
AcDbCellStyleMap
  3
ObjectDBX Classes
 90
1152
 91
0
280
0
281
0
  0
CLASS
  1
MENTALRAYRENDERSETTINGS
  2
AcDbMentalRayRenderSettings
  3
SCENEOE
 90
1024
 91
0
280
0
281
0
  0
CLASS
  1
ACDBDETAILVIEWSTYLE
  2
AcDbDetailViewStyle
  3
ObjectDBX Classes
 90
1025
 91
0
280
0
281
0
  0
CLASS
  1
ACDBSECTIONVIEWSTYLE
  2
AcDbSectionViewStyle
  3
ObjectDBX Classes
 90
1025
 91
0
280
0
281
0
  0
CLASS
  1
RASTERVARIABLES
  2
AcDbRasterVariables
  3
ISM
 90
0
 91
0
280
0
281
0
  0
CLASS
  1
LAYOUT
  2
AcDbLayout
  3
ObjectDBX Classes
 90
0
 91
0
280
0
281
0
  0
CLASS
  1
ACDBPLACEHOLDER
  2
AcDbPlaceHolder
  3
ObjectDBX Classes
 90
0
 91
0
280
0
281
0
  0
ENDSEC
  0
SECTION
  2
TABLES
  0
TABLE
  2
VPORT
  5
8
330
0
100
AcDbSymbolTable
 70
1
  0
VPORT
  5
10C
330
8
100
AcDbSymbolTableRecord
100
AcDbViewportTableRecord
  2
*Active
 70
0
 10
0.0
 20
0.0
 11
1.0
 21
1.0
 12
-2.6704620926117713
 22
4.8191403606067205
 13
0.0
 23
0.0
 14
0.5
 24
0.5
 15
0.5
 25
0.5
 16
0.0
 26
0.0
 36
1.0
 17
0.0
 27
0.0
 37
0.0
 40
69.06737036150854
 41
1.34
 42
50.0
 43
0.0
 44
0.0
 50
0.0
 51
0.0
 71
0
 72
1000
 73
1
 74
3
 75
0
 76
0
 77
0
 78
0
281
0
 65
1
110
0.0
120
0.0
130
0.0
111
1.0
121
0.0
131
0.0
112
0.0
122
1.0
132
0.0
 79
0
146
0.0
  0
ENDTAB
  0
TABLE
  2
LTYPE
  5
2
330
0
100
AcDbSymbolTable
 70
3
  0
LTYPE
  5
24
330
2
100
AcDbSymbolTableRecord
100
AcDbLinetypeTableRecord
  2
ByBlock
 70
0
  3

 72
65
 73
0
 40
0.0
  0
LTYPE
  5
25
330
2
100
AcDbSymbolTableRecord
100
AcDbLinetypeTableRecord
  2
ByLayer
 70
0
  3

 72
65
 73
0
 40
0.0
  0
LTYPE
  5
26
330
2
100
AcDbSymbolTableRecord
100
AcDbLinetypeTableRecord
  2
Continuous
 70
0
  3

 72
65
 73
0
 40
0.0
  0
ENDTAB
  0
TABLE
  2
LAYER
  5
1
330
0
100
AcDbSymbolTable
 70
2
  0
LAYER
  5
27
330
1
100
AcDbSymbolTableRecord
100
AcDbLayerTableRecord
  2
0
 70
0
 62
7
  6
Continuous
370
-3
390
13
347
21
  0
LAYER
  5
28
330
1
100
AcDbSymbolTableRecord
100
AcDbLayerTableRecord
  2
Defpoints
 70
0
 62
7
  6
Continuous
290
0
370
-3
390
13
347
21
  0
ENDTAB
  0
TABLE
  2
STYLE
  5
5
330
0
100
AcDbSymbolTable
 70
1
  0
STYLE
  5
29
330
5
100
AcDbSymbolTableRecord
100
AcDbTextStyleTableRecord
  2
Standard
 70
0
 40
0.0
 41
1.0
 50
0.0
 71
0
 42
2.5
  3
txt
  4

  0
ENDTAB
  0
TABLE
  2
VIEW
  5
7
330
0
100
AcDbSymbolTable
 70
0
  0
ENDTAB
  0
TABLE
  2
UCS
  5
6
330
0
100
AcDbSymbolTable
 70
0
  0
ENDTAB
  0
TABLE
  2
APPID
  5
3
330
0
100
AcDbSymbolTable
 70
3
  0
APPID
  5
2A
330
3
100
AcDbSymbolTableRecord
100
AcDbRegAppTableRecord
  2
ACAD
 70
0
  0
APPID
  5
10D
330
3
100
AcDbSymbolTableRecord
100
AcDbRegAppTableRecord
  2
HATCHBACKGROUNDCOLOR
 70
0
  0
APPID
  5
10E
330
3
100
AcDbSymbolTableRecord
100
AcDbRegAppTableRecord
  2
EZDXF
 70
0
  0
ENDTAB
  0
TABLE
  2
DIMSTYLE
  5
4
330
0
100
AcDbSymbolTable
 70
1
100
AcDbDimStyleTable
  0
DIMSTYLE
105
2B
330
4
100
AcDbSymbolTableRecord
100
AcDbDimStyleTableRecord
  2
Standard
 70
0
 40
1.0
 41
2.5
 42
0.625
 43
3.75
 44
1.25
 45
0.0
 46
0.0
 47
0.0
 48
0.0
 49
2.5
140
2.5
141
2.5
142
0.0
143
0.03937007874
144
1.0
145
0.0
146
1.0
147
0.625
148
0.0
 69
0
 70
0
 71
0
 72
0
 73
0
 74
0
 75
0
 76
0
 77
1
 78
8
 79
3
170
0
171
3
172
1
173
0
174
0
175
0
176
0
177
0
178
0
179
2
271
2
272
2
273
2
274
3
275
0
276
0
277
2
278
44
279
0
280
0
281
0
282
0
283
0
284
8
285
0
286
0
288
0
289
3
290
0
371
-2
372
-2
  0
ENDTAB
  0
TABLE
  2
BLOCK_RECORD
  5
9
330
0
100
AcDbSymbolTable
 70
2
  0
BLOCK_RECORD
  5
17
330
9
100
AcDbSymbolTableRecord
100
AcDbBlockTableRecord
  2
*Model_Space
340
1A
 70
0
280
1
281
0
  0
BLOCK_RECORD
  5
1B
330
9
100
AcDbSymbolTableRecord
100
AcDbBlockTableRecord
  2
*Paper_Space
340
1E
 70
0
280
1
281
0
  0
ENDTAB
  0
ENDSEC
  0
SECTION
  2
BLOCKS
  0
BLOCK
  5
18
330
17
100
AcDbEntity
  8
0
100
AcDbBlockBegin
  2
*Model_Space
 70
0
 10
0.0
 20
0.0
 30
0.0
  3
*Model_Space
  1

  0
ENDBLK
  5
19
330
17
100
AcDbEntity
  8
0
100
AcDbBlockEnd
  0
BLOCK
  5
1C
330
1B
100
AcDbEntity
  8
0
100
AcDbBlockBegin
  2
*Paper_Space
 70
0
 10
0.0
 20
0.0
 30
0.0
  3
*Paper_Space
  1

  0
ENDBLK
  5
1D
330
1B
100
AcDbEntity
  8
0
100
AcDbBlockEnd
  0
ENDSEC
  0
SECTION
  2
ENTITIES
  0
LINE
  5
2F
330
17
100
AcDbEntity
  8
0
100
AcDbLine
 10
30.956299378116274
 20
17.06024162084354
 30
0.0
 11
36.45935375236701
 21
25.753727211910345
 31
0.0
  0
LINE
  5
30
330
17
100
AcDbEntity
  8
0
100
AcDbLine
 10
30.956299378116274
 20
17.06024162084354
 30
0.0
 11
58.75425977919484
 21
3.029177919697073
 31
0.0
  0
LINE
  5
31
330
17
100
AcDbEntity
  8
0
100
AcDbLine
 10
9.517191354404673
 20
39.352825541360986
 30
0.0
 11
36.45935375236701
 21
25.753727211910345
 31
0.0
  0
ELLIPSE
  5
32
330
17
100
AcDbEntity
  8
0
100
AcDbEllipse
 10
145.48570414352682
 20
-29.27749253838919
 30
0.0
 11
-115.5117587362717
 21
7.078121258246002e-15
 31
0.0
 40
0.42345519721946095
 41
5.561729740572908
 42
5.615786465599762
  0
ELLIPSE
  5
33
330
17
100
AcDbEntity
  8
0
100
AcDbEllipse
 10
1.4832552614165877
 20
43.407967266337394
 30
0.0
 11
12.500000000000018
 21
-7.65952459697878e-16
 31
0.0
 40
0.42345519721946095
 41
-1.6581489911190745
 42
-0.8727595543685522
  0
LINE
  5
34
330
17
100
AcDbEntity
  8
0
100
AcDbLine
 10
53.50962932204578
 20
1.3890772006668337
 30
0.0
 11
54.758807320335244
 21
0.9976191340310259
 31
0.0
  0
LINE
  5
35
330
17
100
AcDbEntity
  8
0
100
AcDbLine
 10
0.39273505991544466
 20
38.13495927443953
 30
0.0
 11
-2.097858946311713
 21
38.2273212384212
 31
0.0
  0
ELLIPSE
  5
36
330
17
100
AcDbEntity
  8
0
100
AcDbEllipse
 10
51.4282063443768
 20
0.19807007683674982
 30
0.0
 11
3.499
 21
-2.1440541251862972e-16
 31
0.0
 40
0.42345519721946095
 41
-5.349483238169419
 42
-3.778686911374522
  0
ELLIPSE
  5
37
330
17
100
AcDbEntity
  8
0
100
AcDbEllipse
 10
-2.272342178560926
 20
37.38363995967385
 30
0.0
 11
-2.0
 21
1.225523935516603e-16
 31
0.0
 40
0.42345519721946095
 41
4.625036316060514
 42
6.195823916208482
  0
LINE
  5
38
330
17
100
AcDbEntity
  8
0
100
AcDbLine
 10
48.61561334360848
 20
1.0794594543488556
 30
0.0
 11
48.61442361985303
 21
1.0787786847583734
 31
0.0
  0
LINE
  5
39
330
17
100
AcDbEntity
  8
0
100
AcDbLine
 10
-4.264715019987772
 20
37.45753315375243
 30
0.0
 11
-4.395590103529679
 21
36.824774518920584
 31
0.0
  0
ELLIPSE
  5
3A
330
17
100
AcDbEntity
  8
0
100
AcDbEllipse
 10
51.427016620621345
 20
0.19738930724626869
 30
0.0
 11
3.499
 21
-2.1440541251862972e-16
 31
0.0
 40
0.42345519721946095
 41
-3.778686911374522
 42
-2.2078905845796255
  0
LINE
  5
3B
330
17
100
AcDbEntity
  8
0
100
AcDbLine
 10
-2.9003142870339076
 20
36.76931767680151
 30
0.0
 11
-4.3955901035296785
 21
36.824774518920584
 31
0.0
  0
LINE
  5
3C
330
17
100
AcDbEntity
  8
0
100
AcDbLine
 10
49.34559364219871
 20
-0.9936178170150632
 30
0.0
 11
50.5947716404888
 21
-1.385075883651069
 31
0.0
  0
ELLIPSE
  5
3D
330
17
100
AcDbEntity
  8
0
100
AcDbEllipse
 10
-3.2056031200656427
 20
35.29329840719998
 30
0.0
 11
3.499
 21
-1.3400338282414358e-16
 31
0.0
 40
0.42345519721946095
 41
-6.37054669815069
 42
-4.799750371355794
  0
ELLIPSE
  5
3E
330
17
100
AcDbEntity
  8
0
100
AcDbEllipse
 10
145.48570414352682
 20
-29.27749253838919
 30
0.0
 11
-115.5117587362717
 21
7.078121258246002e-15
 31
0.0
 40
0.42345519721946095
 41
5.676395633190173
 42
5.881756345978681
  0
LINE
  5
3F
330
17
100
AcDbEntity
  8
0
100
AcDbLine
 10
0.2798786631782974
 20
35.16317858412536
 30
0.0
 11
0.2800531636910216
 21
35.164022264245524
 31
0.0
  0
ELLIPSE
  5
40
330
17
100
AcDbEntity
  8
0
100
AcDbEllipse
 10
-30.680383185739895
 20
2.387953453514662
 30
0.0
 11
75.86836103756242
 21
-4.648924619997401e-15
 31
0.0
 40
0.423455197219461
 41
-0.9208988562729814
 42
-0.40142896120090477
  0
ELLIPSE
  5
41
330
17
100
AcDbEntity
  8
0
100
AcDbEllipse
 10
-3.205777620578367
 20
35.292454727079814
 30
0.0
 11
3.499
 21
-1.3400338282414358e-16
 31
0.0
 40
0.42345519721946095
 41
-1.6581577177660005
 42
-0.08736139097110396
  0
LINE
  5
42
330
17
100
AcDbEntity
  8
0
100
AcDbLine
 10
14.421617106393198
 20
-22.694624249601667
 30
0.0
 11
15.227924766702541
 21
-23.189706070542268
 31
0.0
  0
LINE
  5
43
330
17
100
AcDbEntity
  8
0
100
AcDbLine
 10
-3.51106645349956
 20
33.81643545801271
 30
0.0
 11
-5.00634226999533
 21
33.87189230013178
 31
0.0
  0
ELLIPSE
  5
44
330
17
100
AcDbEntity
  8
0
100
AcDbEllipse
 10
11.541194020574352
 20
-23.53581603737237
 30
0.0
 11
3.499
 21
0.0
 31
0.0
 40
0.42345519721946095
 41
-5.679436753003939
 42
-4.108640426209043
  0
LINE
  5
45
330
17
100
AcDbEntity
  8
0
100
AcDbLine
 10
-5.006342269995331
 20
33.87189230013178
 30
0.0
 11
-5.268091675683034
 21
32.606378711688016
 31
0.0
  0
LINE
  5
46
330
17
100
AcDbEntity
  8
0
100
AcDbLine
 10
9.55469865270518
 20
-22.31608591148292
 30
0.0
 11
9.553052227251198
 21
-22.316566729588384
 31
0.0
  0
ELLIPSE
  5
47
330
17
100
AcDbEntity
  8
0
100
AcDbEllipse
 10
-103.2634187457551
 20
36.24083285170584
 30
0.0
 11
98.37047072485228
 21
-2.2604131204001578e-15
 31
0.0
 40
0.42345519721946095
 41
-0.6109601665694102
 42
-0.08736139097110396
  0
ELLIPSE
  5
48
330
17
100
AcDbEntity
  8
0
100
AcDbEllipse
 10
11.539547595120382
 20
-23.536296855477836
 30
0.0
 11
3.499
 21
0.0
 31
0.0
 40
0.42345519721946095
 41
-4.108640426209043
 42
-2.537844099414146
  0
ELLIPSE
  5
49
330
17
100
AcDbEntity
  8
0
100
AcDbEllipse
 10
-591.4413854676498
 20
181.0180304965814
 30
0.0
 11
694.3653454953181
 21
-4.2548067544888404e-14
 31
0.0
 40
0.42345519721946095
 41
-0.6392547499560681
 42
-0.6109601665694111
  0
LINE
  5
4A
330
17
100
AcDbEntity
  8
0
100
AcDbLine
 10
8.659124508258577
 20
-24.377488643553114
 30
0.0
 11
9.465432168567265
 21
-24.872570464493315
 31
0.0
  0
LINE
  5
4B
330
17
100
AcDbEntity
  8
0
100
AcDbLine
 10
-32.97787095034688
 20
5.214892798640212
 30
0.0
 11
-34.185007924943875
 21
5.598903853441886
 31
0.0
  0
ELLIPSE
  5
4C
330
17
100
AcDbEntity
  8
0
100
AcDbEllipse
 10
-30.680383185739895
 20
2.387953453514662
 30
0.0
 11
75.86836103756242
 21
-4.648924619997401e-15
 31
0.0
 40
0.423455197219461
 41
-1.5227586806999458
 42
-1.0131966889658413
  0
ELLIPSE
  5
4D
330
17
100
AcDbEntity
  8
0
100
AcDbEllipse
 10
-35.079493515903394
 20
4.030263461787129
 30
0.0
 11
3.499
 21
-2.1440541251862972e-16
 31
0.0
 40
0.42345519721946095
 41
-6.927480652614468
 42
-5.356684325819572
  0
ELLIPSE
  5
4E
330
17
100
AcDbEntity
  8
0
100
AcDbEllipse
 10
-27.133285590835584
 20
-28.855903839848615
 30
0.0
 11
-2.0
 21
1.225523935516603e-16
 31
0.0
 40
0.42345519721946095
 41
0.6980367724263444
 42
1.6188339728898482
  0
LINE
  5
4F
330
17
100
AcDbEntity
  8
0
100
AcDbLine
 10
-32.283163088686145
 20
3.139643340023343
 30
0.0
 11
-32.28196181901768
 21
3.14032046412453
 31
0.0
  0
LINE
  5
50
330
17
100
AcDbEntity
  8
0
100
AcDbLine
 10
-28.66549652922191
 20
-29.400225766315707
 30
0.0
 11
-43.94496183280507
 21
-21.68789191517049
 31
0.0
  0
ELLIPSE
  5
51
330
17
100
AcDbEntity
  8
0
100
AcDbEllipse
 10
-35.080694785571865
 20
4.0295863376859415
 30
0.0
 11
3.499
 21
-2.1440541251862972e-16
 31
0.0
 40
0.42345519721946095
 41
-2.215091672229779
 42
-0.6442953454348825
  0
LINE
  5
52
330
17
100
AcDbEntity
  8
0
100
AcDbLine
 10
-42.795037539674226
 20
-21.2793783150865
 30
0.0
 11
-43.94496183280506
 21
-21.687891915170493
 31
0.0
  0
LINE
  5
53
330
17
100
AcDbEntity
  8
0
100
AcDbLine
 10
-37.18231735036743
 20
2.8449570012617977
 30
0.0
 11
-38.38945432496453
 21
3.2289680560635095
 31
0.0
  0
ELLIPSE
  5
54
330
17
100
AcDbEntity
  8
0
100
AcDbEllipse
 10
-45.04389693080771
 20
-20.144263043439047
 30
0.0
 11
3.499
 21
-2.1440541251862972e-16
 31
0.0
 40
0.42345519721946095
 41
-7.1559448615481385
 42
-5.585148534753242
  0
ELLIPSE
  5
55
330
17
100
AcDbEntity
  8
0
100
AcDbEllipse
 10
-591.4413854676498
 20
181.0180304965814
 30
0.0
 11
694.3653454953181
 21
-4.2548067544888404e-14
 31
0.0
 40
0.42345519721946095
 41
-0.6776305243003602
 42
-0.6493359409137067
  0
LINE
  5
56
330
17
100
AcDbEntity
  8
0
100
AcDbLine
 10
-42.363293931697264
 20
-19.191971846441113
 30
0.0
 11
-42.36457936068935
 21
-19.191323024160234
 31
0.0
  0
ELLIPSE
  5
57
330
17
100
AcDbEntity
  8
0
100
AcDbEllipse
 10
164.81175256007356
 20
-76.69453419673354
 30
0.0
 11
-276.3592542732039
 21
8.467122022833258e-15
 31
0.0
 40
0.42345519721946095
 41
5.605554782879226
 42
5.685198017418722
  0
ELLIPSE
  5
58
330
17
100
AcDbEntity
  8
0
100
AcDbEllipse
 10
-45.045182359799796
 20
-20.143614221158167
 30
0.0
 11
3.499
 21
-2.1440541251862972e-16
 31
0.0
 40
0.42345519721946095
 41
-5.585148534753242
 42
-4.014352207958345
  0
ELLIPSE
  5
59
330
17
100
AcDbEntity
  8
0
100
AcDbEllipse
 10
-61.93805119104277
 20
-11.288144346591267
 30
0.0
 11
-2.0
 21
1.225523935516603e-16
 31
0.0
 40
0.42345519721946095
 41
5.685198017418721
 42
6.9812220796059306
  0
LINE
  5
5A
330
17
100
AcDbEntity
  8
0
100
AcDbLine
 10
-47.29404175174755
 20
-19.008498949099714
 30
0.0
 11
-48.44396604487839
 21
-19.417012549183706
 31
0.0
  0
LINE
  5
5B
330
17
100
AcDbEntity
  8
0
100
AcDbLine
 10
-48.443966044878394
 20
-19.417012549183703
 30
0.0
 11
-63.47026210806498
 21
-11.832466265468693
 31
0.0
  0
ELLIPSE
  5
5C
330
17
100
AcDbEntity
  8
0
100
AcDbEllipse
 10
-43.843921214904114
 20
-4.25359762118844
 30
0.0
 11
0.5
 21
0.0
 31
0.0
 40
0.42345519721946095
 41
-3.839819282758912
 42
-2.2690229559640156
  0
LINE
  5
5D
330
17
100
AcDbEntity
  8
0
100
AcDbLine
 10
-44.22691292534667
 20
-4.117486348093271
 30
0.0
 11
-35.86972868702325
 21
0.09918923839967464
 31
0.0
  0
ELLIPSE
  5
5E
330
17
100
AcDbEntity
  8
0
100
AcDbEllipse
 10
-35.48673697657997
 20
-0.03692203469575617
 30
0.0
 11
0.5
 21
0.0
 31
0.0
 40
0.42345519721946095
 41
-5.410615609553808
 42
-3.839819282758912
  0
LINE
  5
5F
330
17
100
AcDbEntity
  8
0
100
AcDbLine
 10
-35.165306811991535
 20
0.12525779634914636
 30
0.0
 11
-25.20752234227442
 21
-3.4136353034894666
 31
0.0
  0
ELLIPSE
  5
60
330
17
100
AcDbEntity
  8
0
100
AcDbEllipse
 10
-25.528952505345224
 20
-3.57581513376865
 30
0.0
 11
0.5
 21
0.0
 31
0.0
 40
0.42345519721946095
 41
-6.981411936348705
 42
-5.410615609553808
  0
LINE
  5
61
330
17
100
AcDbEntity
  8
0
100
AcDbLine
 10
-33.50314503293471
 20
-7.928601994765399
 30
0.0
 11
-25.145960793093664
 21
-3.711926407506725
 31
0.0
  0
ELLIPSE
  5
62
330
17
100
AcDbEntity
  8
0
100
AcDbEllipse
 10
-33.886136745186256
 20
-7.7924907210273275
 30
0.0
 11
0.5
 21
0.0
 31
0.0
 40
0.42345519721946095
 41
-2.2690229559640156
 42
-0.6982266291691189
  0
LINE
  5
63
330
17
100
AcDbEntity
  8
0
100
AcDbLine
 10
-44.16535137797493
 20
-4.415777451467619
 30
0.0
 11
-34.20756690825707
 21
-7.954670551306499
 31
0.0
  0
ELLIPSE
  5
64
330
17
100
AcDbEntity
  8
0
100
AcDbEllipse
 10
-27.93763171184861
 20
1.2357790815864362
 30
0.0
 11
0.5
 21
-1.5319049193957538e-17
 31
0.0
 40
0.423455197219461
 41
-3.7525528201591953
 42
-2.1817564933642988
  0
LINE
  5
65
330
17
100
AcDbEntity
  8
0
100
AcDbLine
 10
-28.34718050780845
 20
1.3572375066277185
 30
0.0
 11
-20.88967598019405
 21
5.866302226085891
 31
0.0
  0
ELLIPSE
  5
66
330
17
100
AcDbEntity
  8
0
100
AcDbEllipse
 10
-20.480127184233417
 20
5.744843801044368
 30
0.0
 11
0.5
 21
-1.5319049193957538e-17
 31
0.0
 40
0.423455197219461
 41
-5.323349146954092
 42
-3.7525528201591953
  0
LINE
  5
67
330
17
100
AcDbEntity
  8
0
100
AcDbLine
 10
-20.19330008561115
 20
5.918269368027696
 30
0.0
 11
-9.545031392568536
 21
2.7603503175217177
 31
0.0
  0
ELLIPSE
  5
68
330
17
100
AcDbEntity
  8
0
100
AcDbEllipse
 10
-9.83185848983657
 20
2.5869247513572233
 30
0.0
 11
0.5
 21
-1.5319049193957538e-17
 31
0.0
 40
0.423455197219461
 41
-6.8941454737489885
 42
-5.323349146954092
  0
LINE
  5
69
330
17
100
AcDbEntity
  8
0
100
AcDbLine
 10
-16.879814220910905
 20
-2.043598394534762
 30
0.0
 11
-9.422309691942255
 21
2.4654663257422347
 31
0.0
  0
ELLIPSE
  5
6A
330
17
100
AcDbEntity
  8
0
100
AcDbEllipse
 10
-17.289363018805204
 20
-1.9221399689197796
 30
0.0
 11
0.5
 21
-1.5319049193957538e-17
 31
0.0
 40
0.423455197219461
 41
-2.1817564933642988
 42
-0.6109601665694024
  0
LINE
  5
6B
330
17
100
AcDbEntity
  8
0
100
AcDbLine
 10
-28.22445880911664
 20
1.0623535154219386
 30
0.0
 11
-17.576190116073228
 21
-2.0955655350842783
 31
0.0
  0
ELLIPSE
  5
6C
330
17
100
AcDbEntity
  8
0
100
AcDbEllipse
 10
0.6399930429265517
 20
29.62426377078856
 30
0.0
 11
0.5
 21
-1.531904919395754e-17
 31
0.0
 40
0.42345519721946095
 41
-3.228954044560897
 42
-1.6581577177660003
  0
LINE
  5
6D
330
17
100
AcDbEntity
  8
0
100
AcDbLine
 10
0.14189983290227315
 20
29.642737069295872
 30
0.0
 11
1.276153856132509
 21
35.12666118890779
 31
0.0
  0
ELLIPSE
  5
6E
330
17
100
AcDbEntity
  8
0
100
AcDbEllipse
 10
1.7742470661577534
 20
35.108187890400444
 30
0.0
 11
0.5
 21
-1.531904919395754e-17
 31
0.0
 40
0.42345519721946095
 41
-4.799750371355794
 42
-3.228954044560897
  0
LINE
  5
6F
330
17
100
AcDbEntity
  8
0
100
AcDbLine
 10
1.8178722211112746
 20
35.31910804988121
 30
0.0
 11
14.768295679415896
 21
34.83880228877728
 31
0.0
  0
ELLIPSE
  5
70
330
17
100
AcDbEntity
  8
0
100
AcDbEllipse
 10
14.724670524668351
 20
34.62788213029237
 30
0.0
 11
0.5
 21
-1.531904919395754e-17
 31
0.0
 40
0.42345519721946095
 41
-6.37054669815069
 42
-4.799750371355794
  0
LINE
  5
71
330
17
100
AcDbEntity
  8
0
100
AcDbLine
 10
14.088509713609126
 20
29.12548471109002
 30
0.0
 11
15.222763737045335
 21
34.60940883169779
 31
0.0
  0
ELLIPSE
  5
72
330
17
100
AcDbEntity
  8
0
100
AcDbEllipse
 10
13.590416501232157
 20
29.143958009684596
 30
0.0
 11
0.5
 21
-1.531904919395754e-17
 31
0.0
 40
0.42345519721946095
 41
-1.6581577177660003
 42
-0.08736139097110374
  0
LINE
  5
73
330
17
100
AcDbEntity
  8
0
100
AcDbLine
 10
0.5963678881790067
 20
29.413343612303645
 30
0.0
 11
13.546791346484607
 21
28.933037851199682
 31
0.0
  0
ELLIPSE
  5
74
330
17
100
AcDbEntity
  8
0
100
AcDbEllipse
 10
-3.6518194999569396
 20
22.084535443044466
 30
0.0
 11
0.5
 21
-7.659524596978769e-18
 31
0.0
 40
0.4234551972194609
 41
-3.40348696976033
 42
-1.8326906429654333
  0
LINE
  5
75
330
17
100
AcDbEntity
  8
0
100
AcDbLine
 10
-4.134770126289254
 20
22.139353991792238
 30
0.0
 11
-0.7689305367771644
 21
27.456560761578075
 31
0.0
  0
ELLIPSE
  5
76
330
17
100
AcDbEntity
  8
0
100
AcDbEllipse
 10
-0.28597991044391335
 20
27.401742212830204
 30
0.0
 11
0.5
 21
-7.659524596978769e-18
 31
0.0
 40
0.4234551972194609
 41
-4.974283296555226
 42
-3.40348696976033
  0
LINE
  5
77
330
17
100
AcDbEntity
  8
0
100
AcDbLine
 10
-0.15652454098179458
 20
27.60625016651699
 30
0.0
 11
12.400191741402455
 21
26.18096789933108
 31
0.0
  0
ELLIPSE
  5
78
330
17
100
AcDbEntity
  8
0
100
AcDbEllipse
 10
12.270736372551557
 20
25.97645994660987
 30
0.0
 11
0.5
 21
-7.659524596978769e-18
 31
0.0
 40
0.4234551972194609
 41
-6.545079623350123
 42
-4.974283296555226
  0
LINE
  5
79
330
17
100
AcDbEntity
  8
0
100
AcDbLine
 10
9.38784741104174
 20
20.604434626851752
 30
0.0
 11
12.753687001165051
 21
25.92164139760317
 31
0.0
  0
ELLIPSE
  5
7A
330
17
100
AcDbEntity
  8
0
100
AcDbEllipse
 10
8.904896782428262
 20
20.65925317585845
 30
0.0
 11
0.5
 21
-7.659524596978769e-18
 31
0.0
 40
0.4234551972194609
 41
-1.8326906429654333
 42
-0.2618943161705367
  0
LINE
  5
7B
330
17
100
AcDbEntity
  8
0
100
AcDbLine
 10
-3.7812748688078335
 20
21.88002749032326
 30
0.0
 11
8.775441413577365
 21
20.45474522313724
 31
0.0
  0
ELLIPSE
  5
7C
330
17
100
AcDbEntity
  8
0
100
AcDbEllipse
 10
-21.093020975865034
 20
8.511496076361325
 30
0.0
 11
0.5
 21
-1.5319049193957538e-17
 31
0.0
 40
0.423455197219461
 41
-3.7525528201591953
 42
-2.1817564933642988
  0
LINE
  5
7D
330
17
100
AcDbEntity
  8
0
100
AcDbLine
 10
-21.50256977182487
 20
8.632954501402608
 30
0.0
 11
-14.045065244210468
 21
13.14201922086078
 31
0.0
  0
ELLIPSE
  5
7E
330
17
100
AcDbEntity
  8
0
100
AcDbEllipse
 10
-13.635516448249838
 20
13.020560795819264
 30
0.0
 11
0.5
 21
-1.5319049193957538e-17
 31
0.0
 40
0.423455197219461
 41
-5.323349146954092
 42
-3.7525528201591953
  0
LINE
  5
7F
330
17
100
AcDbEntity
  8
0
100
AcDbLine
 10
-13.348689349627568
 20
13.193986362802589
 30
0.0
 11
-2.7004206565849564
 21
10.03606731229661
 31
0.0
  0
ELLIPSE
  5
80
330
17
100
AcDbEntity
  8
0
100
AcDbEllipse
 10
-2.9872477538529836
 20
9.862641746132109
 30
0.0
 11
0.5
 21
-1.5319049193957538e-17
 31
0.0
 40
0.423455197219461
 41
-6.8941454737489885
 42
-5.323349146954092
  0
LINE
  5
81
330
17
100
AcDbEntity
  8
0
100
AcDbLine
 10
-10.035203484927328
 20
5.232118600240135
 30
0.0
 11
-2.577698955958676
 21
9.74118332051713
 31
0.0
  0
ELLIPSE
  5
82
330
17
100
AcDbEntity
  8
0
100
AcDbEllipse
 10
-10.444752282821621
 20
5.353577025855113
 30
0.0
 11
0.5
 21
-1.5319049193957538e-17
 31
0.0
 40
0.423455197219461
 41
-2.1817564933642988
 42
-0.6109601665694024
  0
LINE
  5
83
330
17
100
AcDbEntity
  8
0
100
AcDbLine
 10
-21.37984807313306
 20
8.338070510196827
 30
0.0
 11
-10.731579380089649
 21
5.180151459690611
 31
0.0
  0
ELLIPSE
  5
84
330
17
100
AcDbEntity
  8
0
100
AcDbEllipse
 10
-10.970280080022647
 20
14.974939048630421
 30
0.0
 11
0.5
 21
1.5319049193957538e-17
 31
0.0
 40
0.4234551972194609
 41
-3.5780198949597626
 42
-2.007223568164866
  0
LINE
  5
85
330
17
100
AcDbEntity
  8
0
100
AcDbLine
 10
-11.4234139122667
 20
15.064437213754466
 30
0.0
 11
-5.928258089203068
 21
20.053365996650736
 31
0.0
  0
ELLIPSE
  5
86
330
17
100
AcDbEntity
  8
0
100
AcDbEllipse
 10
-5.475124256958143
 20
19.963867831526517
 30
0.0
 11
0.5
 21
1.5319049193957538e-17
 31
0.0
 40
0.4234551972194609
 41
-5.148816221754659
 42
-3.5780198949597626
  0
LINE
  5
87
330
17
100
AcDbEntity
  8
0
100
AcDbLine
 10
-5.263772108880955
 20
20.15574970873257
 30
0.0
 11
6.517707527347702
 21
17.828797415925493
 31
0.0
  0
ELLIPSE
  5
88
330
17
100
AcDbEntity
  8
0
100
AcDbEllipse
 10
6.306355380268414
 20
17.636915539625406
 30
0.0
 11
0.5
 21
1.5319049193957538e-17
 31
0.0
 40
0.4234551972194609
 41
-6.719612548549556
 42
-5.148816221754659
  0
LINE
  5
89
330
17
100
AcDbEntity
  8
0
100
AcDbLine
 10
1.264333390591276
 20
12.55848859027639
 30
0.0
 11
6.7594892146528025
 21
17.547417374078627
 31
0.0
  0
ELLIPSE
  5
8A
330
17
100
AcDbEntity
  8
0
100
AcDbEllipse
 10
0.8111995562068977
 20
12.647986755823169
 30
0.0
 11
0.5
 21
1.5319049193957538e-17
 31
0.0
 40
0.4234551972194609
 41
-2.007223568164866
 42
-0.43642724136996947
  0
LINE
  5
8B
330
17
100
AcDbEntity
  8
0
100
AcDbLine
 10
-11.181632227101936
 20
14.783057172330336
 30
0.0
 11
0.5998474091276087
 21
12.456104879523082
 31
0.0
  0
ELLIPSE
  5
8C
330
17
100
AcDbEntity
  8
0
100
AcDbEllipse
 10
3.1574135884451664
 20
10.625230006871742
 30
0.0
 11
0.5
 21
-1.5319049193957538e-17
 31
0.0
 40
0.423455197219461
 41
-3.7525528201591953
 42
-2.1817564933642988
  0
LINE
  5
8D
330
17
100
AcDbEntity
  8
0
100
AcDbLine
 10
2.7478647924853328
 20
10.746688431913025
 30
0.0
 11
10.205369320099736
 21
15.255753151371197
 31
0.0
  0
ELLIPSE
  5
8E
330
17
100
AcDbEntity
  8
0
100
AcDbEllipse
 10
10.614918116060359
 20
15.134294726329678
 30
0.0
 11
0.5
 21
-1.5319049193957538e-17
 31
0.0
 40
0.423455197219461
 41
-5.323349146954092
 42
-3.7525528201591953
  0
LINE
  5
8F
330
17
100
AcDbEntity
  8
0
100
AcDbLine
 10
10.901745214682633
 20
15.307720293313002
 30
0.0
 11
21.550013907725244
 21
12.149801242807024
 31
0.0
  0
ELLIPSE
  5
90
330
17
100
AcDbEntity
  8
0
100
AcDbEllipse
 10
21.263186810457213
 20
11.976375676642526
 30
0.0
 11
0.5
 21
-1.5319049193957538e-17
 31
0.0
 40
0.423455197219461
 41
-6.8941454737489885
 42
-5.323349146954092
  0
LINE
  5
91
330
17
100
AcDbEntity
  8
0
100
AcDbLine
 10
14.21523107938287
 20
7.345852530750548
 30
0.0
 11
21.67273560835152
 21
11.854917251027544
 31
0.0
  0
ELLIPSE
  5
92
330
17
100
AcDbEntity
  8
0
100
AcDbEllipse
 10
13.805682281488576
 20
7.467310956365527
 30
0.0
 11
0.5
 21
-1.5319049193957538e-17
 31
0.0
 40
0.423455197219461
 41
-2.1817564933642988
 42
-0.6109601665694024
  0
LINE
  5
93
330
17
100
AcDbEntity
  8
0
100
AcDbLine
 10
2.8705864911771384
 20
10.45180444070724
 30
0.0
 11
13.518855184220552
 21
7.293885390201025
 31
0.0
  0
ELLIPSE
  5
94
330
17
100
AcDbEntity
  8
0
100
AcDbEllipse
 10
12.768501795373552
 20
20.220704785616736
 30
0.0
 11
0.5
 21
-7.659524596978769e-18
 31
0.0
 40
0.4234551972194609
 41
-3.40348696976033
 42
-1.8326906429654333
  0
LINE
  5
95
330
17
100
AcDbEntity
  8
0
100
AcDbLine
 10
12.285551169041236
 20
20.275523334364507
 30
0.0
 11
15.651390758553326
 21
25.59273010415035
 31
0.0
  0
ELLIPSE
  5
96
330
17
100
AcDbEntity
  8
0
100
AcDbEllipse
 10
16.134341384886575
 20
25.537911555402474
 30
0.0
 11
0.5
 21
-7.659524596978769e-18
 31
0.0
 40
0.4234551972194609
 41
-4.974283296555226
 42
-3.40348696976033
  0
LINE
  5
97
330
17
100
AcDbEntity
  8
0
100
AcDbLine
 10
16.263796754348693
 20
25.742419509089263
 30
0.0
 11
28.820513036732944
 21
24.317137241903353
 31
0.0
  0
ELLIPSE
  5
98
330
17
100
AcDbEntity
  8
0
100
AcDbEllipse
 10
28.69105766788205
 20
24.11262928918214
 30
0.0
 11
0.5
 21
-7.659524596978769e-18
 31
0.0
 40
0.4234551972194609
 41
-6.545079623350123
 42
-4.974283296555226
  0
LINE
  5
99
330
17
100
AcDbEntity
  8
0
100
AcDbLine
 10
25.808168706372232
 20
18.740603969424022
 30
0.0
 11
29.17400829649554
 21
24.05781074017544
 31
0.0
  0
ELLIPSE
  5
9A
330
17
100
AcDbEntity
  8
0
100
AcDbEllipse
 10
25.325218077758752
 20
18.79542251843072
 30
0.0
 11
0.5
 21
-7.659524596978769e-18
 31
0.0
 40
0.4234551972194609
 41
-1.8326906429654333
 42
-0.2618943161705367
  0
LINE
  5
9B
330
17
100
AcDbEntity
  8
0
100
AcDbLine
 10
12.639046426522654
 20
20.01619683289553
 30
0.0
 11
25.195762708907854
 21
18.59091456570951
 31
0.0
  0
ELLIPSE
  5
9C
330
17
100
AcDbEntity
  8
0
100
AcDbEllipse
 10
-55.60124909596417
 20
-11.19238565025956
 30
0.0
 11
0.5
 21
-1.5319049193957535e-17
 31
0.0
 40
0.4234551972194609
 41
-4.0143522079583445
 42
-2.4435558811634484
  0
LINE
  5
9D
330
17
100
AcDbEntity
  8
0
100
AcDbLine
 10
-55.92260653968307
 20
-11.030179981260819
 30
0.0
 11
-45.96323558166431
 21
-7.4920875094903145
 31
0.0
  0
ELLIPSE
  5
9E
330
17
100
AcDbEntity
  8
0
100
AcDbEllipse
 10
-45.641878137944786
 20
-7.654293178489375
 30
0.0
 11
0.5
 21
-1.5319049193957535e-17
 31
0.0
 40
0.4234551972194609
 41
-5.585148534753241
 42
-4.0143522079583445
  0
LINE
  5
9F
330
17
100
AcDbEntity
  8
0
100
AcDbLine
 10
-45.25882540691209
 20
-7.518212698138683
 30
0.0
 11
-36.90353187172177
 21
-11.73556009134829
 31
0.0
  0
ELLIPSE
  5
A0
330
17
100
AcDbEntity
  8
0
100
AcDbEllipse
 10
-37.2865846009459
 20
-11.871640571056481
 30
0.0
 11
0.5
 21
-1.5319049193957535e-17
 31
0.0
 40
0.4234551972194609
 41
-7.155944861548138
 42
-5.585148534753241
  0
LINE
  5
A1
330
17
100
AcDbEntity
  8
0
100
AcDbLine
 10
-46.92459811553643
 20
-15.571938713234392
 30
0.0
 11
-36.965227155709094
 21
-12.033846240821386
 31
0.0
  0
ELLIPSE
  5
A2
330
17
100
AcDbEntity
  8
0
100
AcDbEllipse
 10
-47.245955560773226
 20
-15.409733043469487
 30
0.0
 11
0.5
 21
-1.5319049193957535e-17
 31
0.0
 40
0.4234551972194609
 41
-2.4435558811634484
 42
-0.8727595543685517
  0
LINE
  5
A3
330
17
100
AcDbEntity
  8
0
100
AcDbLine
 10
-55.98430182518831
 20
-11.328466129967751
 30
0.0
 11
-47.629008289997365
 21
-15.545813523177674
 31
0.0
  0
ELLIPSE
  5
A4
330
17
100
AcDbEntity
  8
0
100
AcDbEllipse
 10
-30.822203059832432
 20
-8.881380906433172
 30
0.0
 11
0.5
 21
0.0
 31
0.0
 40
0.42345519721946095
 41
-3.839819282758912
 42
-2.2690229559640156
  0
LINE
  5
A5
330
17
100
AcDbEntity
  8
0
100
AcDbLine
 10
-31.20519477027497
 20
-8.745269633337996
 30
0.0
 11
-22.84801053195155
 21
-4.5285940468450505
 31
0.0
  0
ELLIPSE
  5
A6
330
17
100
AcDbEntity
  8
0
100
AcDbEllipse
 10
-22.46501882150828
 20
-4.664705319940488
 30
0.0
 11
0.5
 21
0.0
 31
0.0
 40
0.42345519721946095
 41
-5.410615609553808
 42
-3.839819282758912
  0
LINE
  5
A7
330
17
100
AcDbEntity
  8
0
100
AcDbLine
 10
-22.14358865691984
 20
-4.502525488895579
 30
0.0
 11
-12.185804187202727
 21
-8.041418588734192
 31
0.0
  0
ELLIPSE
  5
A8
330
17
100
AcDbEntity
  8
0
100
AcDbEllipse
 10
-12.507234350273528
 20
-8.203598419013368
 30
0.0
 11
0.5
 21
0.0
 31
0.0
 40
0.42345519721946095
 41
-6.981411936348705
 42
-5.410615609553808
  0
LINE
  5
A9
330
17
100
AcDbEntity
  8
0
100
AcDbLine
 10
-20.481426877863015
 20
-12.556385280010131
 30
0.0
 11
-12.124242638021968
 21
-8.339709692751457
 31
0.0
  0
ELLIPSE
  5
AA
330
17
100
AcDbEntity
  8
0
100
AcDbEllipse
 10
-20.864418590114568
 20
-12.420274006272045
 30
0.0
 11
0.5
 21
0.0
 31
0.0
 40
0.42345519721946095
 41
-2.2690229559640156
 42
-0.6982266291691189
  0
LINE
  5
AB
330
17
100
AcDbEntity
  8
0
100
AcDbLine
 10
-31.143633222903244
 20
-9.043560736712344
 30
0.0
 11
-21.18584875318538
 21
-12.582453836551224
 31
0.0
  0
ELLIPSE
  5
AC
330
17
100
AcDbEntity
  8
0
100
AcDbEllipse
 10
-44.67509600950039
 20
-16.70737839622747
 30
0.0
 11
0.5
 21
-1.5319049193957535e-17
 31
0.0
 40
0.4234551972194609
 41
-4.0143522079583445
 42
-2.4435558811634484
  0
LINE
  5
AD
330
17
100
AcDbEntity
  8
0
100
AcDbLine
 10
-44.99645345321929
 20
-16.545172727228728
 30
0.0
 11
-35.03708249520052
 21
-13.007080255458224
 31
0.0
  0
ELLIPSE
  5
AE
330
17
100
AcDbEntity
  8
0
100
AcDbEllipse
 10
-34.715725051481
 20
-13.169285924457277
 30
0.0
 11
0.5
 21
-1.5319049193957535e-17
 31
0.0
 40
0.4234551972194609
 41
-5.585148534753241
 42
-4.0143522079583445
  0
LINE
  5
AF
330
17
100
AcDbEntity
  8
0
100
AcDbLine
 10
-34.3326723204483
 20
-13.033205444106585
 30
0.0
 11
-25.977378785257983
 21
-17.250552837316192
 31
0.0
  0
ELLIPSE
  5
B0
330
17
100
AcDbEntity
  8
0
100
AcDbEllipse
 10
-26.360431514482116
 20
-17.386633317024383
 30
0.0
 11
0.5
 21
-1.5319049193957535e-17
 31
0.0
 40
0.4234551972194609
 41
-7.155944861548138
 42
-5.585148534753241
  0
LINE
  5
B1
330
17
100
AcDbEntity
  8
0
100
AcDbLine
 10
-35.99844502907265
 20
-21.0869314592023
 30
0.0
 11
-26.03907406924531
 21
-17.548838986789296
 31
0.0
  0
ELLIPSE
  5
B2
330
17
100
AcDbEntity
  8
0
100
AcDbEllipse
 10
-36.31980247430945
 20
-20.924725789437396
 30
0.0
 11
0.5
 21
-1.5319049193957535e-17
 31
0.0
 40
0.4234551972194609
 41
-2.4435558811634484
 42
-0.8727595543685517
  0
LINE
  5
B3
330
17
100
AcDbEntity
  8
0
100
AcDbLine
 10
-45.058148738724526
 20
-16.843458875935667
 30
0.0
 11
-36.70285520353358
 21
-21.06080626914559
 31
0.0
  0
ELLIPSE
  5
B4
330
17
100
AcDbEntity
  8
0
100
AcDbEllipse
 10
-14.012972649187326
 20
-2.893807369825147
 30
0.0
 11
0.5
 21
-1.5319049193957538e-17
 31
0.0
 40
0.423455197219461
 41
-3.7525528201591953
 42
-2.1817564933642988
  0
LINE
  5
B5
330
17
100
AcDbEntity
  8
0
100
AcDbLine
 10
-14.42252144514716
 20
-2.772348944783858
 30
0.0
 11
-6.965016917532756
 21
1.7367157746743138
 31
0.0
  0
ELLIPSE
  5
B6
330
17
100
AcDbEntity
  8
0
100
AcDbEllipse
 10
-6.555468121572126
 20
1.6152573496327918
 30
0.0
 11
0.5
 21
-1.5319049193957538e-17
 31
0.0
 40
0.423455197219461
 41
-5.323349146954092
 42
-3.7525528201591953
  0
LINE
  5
B7
330
17
100
AcDbEntity
  8
0
100
AcDbLine
 10
-6.268641022949856
 20
1.7886829166161233
 30
0.0
 11
4.379627670092756
 21
-1.369236133889855
 31
0.0
  0
ELLIPSE
  5
B8
330
17
100
AcDbEntity
  8
0
100
AcDbEllipse
 10
4.092800572824721
 20
-1.54266170005436
 30
0.0
 11
0.5
 21
-1.5319049193957538e-17
 31
0.0
 40
0.423455197219461
 41
-6.8941454737489885
 42
-5.323349146954092
  0
LINE
  5
B9
330
17
100
AcDbEntity
  8
0
100
AcDbLine
 10
-2.955155158249615
 20
-6.173184845946331
 30
0.0
 11
4.5023493707190365
 21
-1.6641201256693345
 31
0.0
  0
ELLIPSE
  5
BA
330
17
100
AcDbEntity
  8
0
100
AcDbEllipse
 10
-3.364703956143906
 20
-6.051726420331356
 30
0.0
 11
0.5
 21
-1.5319049193957538e-17
 31
0.0
 40
0.423455197219461
 41
-2.1817564933642988
 42
-0.6109601665694024
  0
LINE
  5
BB
330
17
100
AcDbEntity
  8
0
100
AcDbLine
 10
-14.299799746455356
 20
-3.0672329359896446
 30
0.0
 11
-3.6515310534119427
 21
-6.225151986495861
 31
0.0
  0
ELLIPSE
  5
BC
330
17
100
AcDbEntity
  8
0
100
AcDbEllipse
 10
-33.748942923036616
 20
-22.222371142195378
 30
0.0
 11
0.5
 21
-1.5319049193957535e-17
 31
0.0
 40
0.4234551972194609
 41
-4.0143522079583445
 42
-2.4435558811634484
  0
LINE
  5
BD
330
17
100
AcDbEntity
  8
0
100
AcDbLine
 10
-34.07030036675552
 20
-22.06016547319663
 30
0.0
 11
-24.110929408736755
 21
-18.522073001426126
 31
0.0
  0
ELLIPSE
  5
BE
330
17
100
AcDbEntity
  8
0
100
AcDbEllipse
 10
-23.789571965017224
 20
-18.68427867042518
 30
0.0
 11
0.5
 21
-1.5319049193957535e-17
 31
0.0
 40
0.4234551972194609
 41
-5.585148534753241
 42
-4.0143522079583445
  0
LINE
  5
BF
330
17
100
AcDbEntity
  8
0
100
AcDbLine
 10
-23.406519233984525
 20
-18.548198190074487
 30
0.0
 11
-15.051225698794207
 21
-22.765545583284094
 31
0.0
  0
ELLIPSE
  5
C0
330
17
100
AcDbEntity
  8
0
100
AcDbEllipse
 10
-15.434278428018345
 20
-22.901626062992285
 30
0.0
 11
0.5
 21
-1.5319049193957535e-17
 31
0.0
 40
0.4234551972194609
 41
-7.155944861548138
 42
-5.585148534753241
  0
LINE
  5
C1
330
17
100
AcDbEntity
  8
0
100
AcDbLine
 10
-25.07229194260887
 20
-26.601924205170203
 30
0.0
 11
-15.112920982781532
 21
-23.063831732757198
 31
0.0
  0
ELLIPSE
  5
C2
330
17
100
AcDbEntity
  8
0
100
AcDbEllipse
 10
-25.39364938784567
 20
-26.439718535405298
 30
0.0
 11
0.5
 21
-1.5319049193957535e-17
 31
0.0
 40
0.4234551972194609
 41
-2.4435558811634484
 42
-0.8727595543685517
  0
LINE
  5
C3
330
17
100
AcDbEntity
  8
0
100
AcDbLine
 10
-34.13199565226075
 20
-22.35845162190357
 30
0.0
 11
-25.776702117069803
 21
-26.575799015113493
 31
0.0
  0
ELLIPSE
  5
C4
330
17
100
AcDbEntity
  8
0
100
AcDbEllipse
 10
-17.800484904760765
 20
-13.50916419167789
 30
0.0
 11
0.5
 21
0.0
 31
0.0
 40
0.42345519721946095
 41
-3.839819282758912
 42
-2.2690229559640156
  0
LINE
  5
C5
330
17
100
AcDbEntity
  8
0
100
AcDbLine
 10
-18.18347661520329
 20
-13.373052918582728
 30
0.0
 11
-9.82629237687987
 21
-9.156377332089782
 31
0.0
  0
ELLIPSE
  5
C6
330
17
100
AcDbEntity
  8
0
100
AcDbEllipse
 10
-9.443300666436599
 20
-9.292488605185213
 30
0.0
 11
0.5
 21
0.0
 31
0.0
 40
0.42345519721946095
 41
-5.410615609553808
 42
-3.839819282758912
  0
LINE
  5
C7
330
17
100
AcDbEntity
  8
0
100
AcDbLine
 10
-9.121870501848159
 20
-9.130308774140303
 30
0.0
 11
0.8359139678689536
 21
-12.669201873978917
 31
0.0
  0
ELLIPSE
  5
C8
330
17
100
AcDbEntity
  8
0
100
AcDbEllipse
 10
0.5144838047981466
 20
-12.831381704258092
 30
0.0
 11
0.5
 21
0.0
 31
0.0
 40
0.42345519721946095
 41
-6.981411936348705
 42
-5.410615609553808
  0
LINE
  5
C9
330
17
100
AcDbEntity
  8
0
100
AcDbLine
 10
-7.459708722791333
 20
-17.18416856525485
 30
0.0
 11
0.8974755170497124
 21
-12.967492977996175
 31
0.0
  0
ELLIPSE
  5
CA
330
17
100
AcDbEntity
  8
0
100
AcDbEllipse
 10
-7.842700435042893
 20
-17.04805729151677
 30
0.0
 11
0.5
 21
0.0
 31
0.0
 40
0.42345519721946095
 41
-2.2690229559640156
 42
-0.6982266291691189
  0
LINE
  5
CB
330
17
100
AcDbEntity
  8
0
100
AcDbLine
 10
-18.12191506783157
 20
-13.671344021957069
 30
0.0
 11
-8.164130598113704
 21
-17.21023712179595
 31
0.0
  0
ELLIPSE
  5
CC
330
17
100
AcDbEntity
  8
0
100
AcDbEllipse
 10
-0.08831358652601295
 20
-7.023393821236716
 30
0.0
 11
0.5
 21
-1.5319049193957538e-17
 31
0.0
 40
0.423455197219461
 41
-3.7525528201591953
 42
-2.1817564933642988
  0
LINE
  5
CD
330
17
100
AcDbEntity
  8
0
100
AcDbLine
 10
-0.4978623824858466
 20
-6.901935396195434
 30
0.0
 11
6.959642145128557
 21
-2.3928706767372625
 31
0.0
  0
ELLIPSE
  5
CE
330
17
100
AcDbEntity
  8
0
100
AcDbEllipse
 10
7.36919094108918
 20
-2.5143291017787845
 30
0.0
 11
0.5
 21
-1.5319049193957538e-17
 31
0.0
 40
0.423455197219461
 41
-5.323349146954092
 42
-3.7525528201591953
  0
LINE
  5
CF
330
17
100
AcDbEntity
  8
0
100
AcDbLine
 10
7.656018039711443
 20
-2.3409035347954603
 30
0.0
 11
18.304286732754054
 21
-5.498822585301438
 31
0.0
  0
ELLIPSE
  5
D0
330
17
100
AcDbEntity
  8
0
100
AcDbEllipse
 10
18.017459635486034
 20
-5.672248151465936
 30
0.0
 11
0.5
 21
-1.5319049193957538e-17
 31
0.0
 40
0.423455197219461
 41
-6.8941454737489885
 42
-5.323349146954092
  0
LINE
  5
D1
330
17
100
AcDbEntity
  8
0
100
AcDbLine
 10
10.96950390441169
 20
-10.302771297357914
 30
0.0
 11
18.42700843338034
 21
-5.793706577080918
 31
0.0
  0
ELLIPSE
  5
D2
330
17
100
AcDbEntity
  8
0
100
AcDbEllipse
 10
10.559955106517407
 20
-10.18131287174294
 30
0.0
 11
0.5
 21
-1.5319049193957538e-17
 31
0.0
 40
0.423455197219461
 41
-2.1817564933642988
 42
-0.6109601665694024
  0
LINE
  5
D3
330
17
100
AcDbEntity
  8
0
100
AcDbLine
 10
-0.3751406837940445
 20
-7.196819387401221
 30
0.0
 11
10.273128009249369
 21
-10.354738437907438
 31
0.0
  0
ELLIPSE
  5
D4
330
17
100
AcDbEntity
  8
0
100
AcDbEllipse
 10
-4.77876674968909
 20
-18.13694747692262
 30
0.0
 11
0.5
 21
0.0
 31
0.0
 40
0.42345519721946095
 41
-3.839819282758912
 42
-2.2690229559640156
  0
LINE
  5
D5
330
17
100
AcDbEntity
  8
0
100
AcDbLine
 10
-5.161758460131614
 20
-18.000836203827447
 30
0.0
 11
3.1954257781918045
 21
-13.7841606173345
 31
0.0
  0
ELLIPSE
  5
D6
330
17
100
AcDbEntity
  8
0
100
AcDbEllipse
 10
3.5784174886350826
 20
-13.920271890429937
 30
0.0
 11
0.5
 21
0.0
 31
0.0
 40
0.42345519721946095
 41
-5.410615609553808
 42
-3.839819282758912
  0
LINE
  5
D7
330
17
100
AcDbEntity
  8
0
100
AcDbLine
 10
3.8998476532235156
 20
-13.758092059385028
 30
0.0
 11
13.857632122940629
 21
-17.29698515922364
 31
0.0
  0
ELLIPSE
  5
D8
330
17
100
AcDbEntity
  8
0
100
AcDbEllipse
 10
13.536201959869821
 20
-17.459164989502817
 30
0.0
 11
0.5
 21
0.0
 31
0.0
 40
0.42345519721946095
 41
-6.981411936348705
 42
-5.410615609553808
  0
LINE
  5
D9
330
17
100
AcDbEntity
  8
0
100
AcDbLine
 10
5.562009432280342
 20
-21.811951850499582
 30
0.0
 11
13.919193672121388
 21
-17.595276263240905
 31
0.0
  0
ELLIPSE
  5
DA
330
17
100
AcDbEntity
  8
0
100
AcDbEllipse
 10
5.1790177200287815
 20
-21.675840576761495
 30
0.0
 11
0.5
 21
0.0
 31
0.0
 40
0.42345519721946095
 41
-2.2690229559640156
 42
-0.6982266291691189
  0
LINE
  5
DB
330
17
100
AcDbEntity
  8
0
100
AcDbLine
 10
-5.100196912759901
 20
-18.299127307201793
 30
0.0
 11
4.857587556957962
 21
-21.838020407040673
 31
0.0
  0
ELLIPSE
  5
DC
330
17
100
AcDbEntity
  8
0
100
AcDbEllipse
 10
13.836345476135286
 20
-11.1529802726483
 30
0.0
 11
0.5
 21
-1.5319049193957538e-17
 31
0.0
 40
0.423455197219461
 41
-3.7525528201591953
 42
-2.1817564933642988
  0
LINE
  5
DD
330
17
100
AcDbEntity
  8
0
100
AcDbLine
 10
13.426796680175451
 20
-11.031521847607017
 30
0.0
 11
20.884301207789854
 21
-6.5224571281488455
 31
0.0
  0
ELLIPSE
  5
DE
330
17
100
AcDbEntity
  8
0
100
AcDbEllipse
 10
21.293850003750485
 20
-6.643915553190368
 30
0.0
 11
0.5
 21
-1.5319049193957538e-17
 31
0.0
 40
0.423455197219461
 41
-5.323349146954092
 42
-3.7525528201591953
  0
LINE
  5
DF
330
17
100
AcDbEntity
  8
0
100
AcDbLine
 10
21.580677102372746
 20
-6.470489986207044
 30
0.0
 11
32.228945795415356
 21
-9.628409036713022
 31
0.0
  0
ELLIPSE
  5
E0
330
17
100
AcDbEntity
  8
0
100
AcDbEllipse
 10
31.94211869814734
 20
-9.80183460287752
 30
0.0
 11
0.5
 21
-1.5319049193957538e-17
 31
0.0
 40
0.423455197219461
 41
-6.8941454737489885
 42
-5.323349146954092
  0
LINE
  5
E1
330
17
100
AcDbEntity
  8
0
100
AcDbLine
 10
24.894162967072997
 20
-14.43235774876949
 30
0.0
 11
32.35166749604165
 21
-9.923293028492495
 31
0.0
  0
ELLIPSE
  5
E2
330
17
100
AcDbEntity
  8
0
100
AcDbEllipse
 10
24.484614169178712
 20
-14.310899323154516
 30
0.0
 11
0.5
 21
-1.5319049193957538e-17
 31
0.0
 40
0.423455197219461
 41
-2.1817564933642988
 42
-0.6109601665694024
  0
LINE
  5
E3
330
17
100
AcDbEntity
  8
0
100
AcDbLine
 10
13.549518378867262
 20
-11.326405838812798
 30
0.0
 11
24.197787071910675
 21
-14.484324889319014
 31
0.0
  0
ELLIPSE
  5
E4
330
17
100
AcDbEntity
  8
0
100
AcDbEllipse
 10
-7.168361913203732
 20
4.381909624949749
 30
0.0
 11
0.5
 21
-1.5319049193957538e-17
 31
0.0
 40
0.423455197219461
 41
-3.7525528201591953
 42
-2.1817564933642988
  0
LINE
  5
E5
330
17
100
AcDbEntity
  8
0
100
AcDbLine
 10
-7.577910709163573
 20
4.503368049991032
 30
0.0
 11
-0.12040618154916949
 21
9.012432769449203
 31
0.0
  0
ELLIPSE
  5
E6
330
17
100
AcDbEntity
  8
0
100
AcDbEllipse
 10
0.28914261441145683
 20
8.890974344407685
 30
0.0
 11
0.5
 21
-1.5319049193957538e-17
 31
0.0
 40
0.423455197219461
 41
-5.323349146954092
 42
-3.7525528201591953
  0
LINE
  5
E7
330
17
100
AcDbEntity
  8
0
100
AcDbLine
 10
0.5759697130337305
 20
9.064399911391009
 30
0.0
 11
11.224238406076342
 21
5.906480860885031
 31
0.0
  0
ELLIPSE
  5
E8
330
17
100
AcDbEntity
  8
0
100
AcDbEllipse
 10
10.937411308808311
 20
5.733055294720536
 30
0.0
 11
0.5
 21
-1.5319049193957538e-17
 31
0.0
 40
0.423455197219461
 41
-6.8941454737489885
 42
-5.323349146954092
  0
LINE
  5
E9
330
17
100
AcDbEntity
  8
0
100
AcDbLine
 10
3.889455577733971
 20
1.102532148828558
 30
0.0
 11
11.346960106702623
 21
5.611596869105554
 31
0.0
  0
ELLIPSE
  5
EA
330
17
100
AcDbEntity
  8
0
100
AcDbEllipse
 10
3.4799067798396806
 20
1.2239905744435333
 30
0.0
 11
0.5
 21
-1.5319049193957538e-17
 31
0.0
 40
0.423455197219461
 41
-2.1817564933642988
 42
-0.6109601665694024
  0
LINE
  5
EB
330
17
100
AcDbEntity
  8
0
100
AcDbLine
 10
-7.455189010471764
 20
4.208484058785252
 30
0.0
 11
3.1930796825716508
 21
1.0505650082790345
 31
0.0
  0
ELLIPSE
  5
EC
330
17
100
AcDbEntity
  8
0
100
AcDbEllipse
 10
6.756297149457566
 20
0.2523231735381799
 30
0.0
 11
0.5
 21
-1.5319049193957538e-17
 31
0.0
 40
0.423455197219461
 41
-3.7525528201591953
 42
-2.1817564933642988
  0
LINE
  5
ED
330
17
100
AcDbEntity
  8
0
100
AcDbLine
 10
6.346748353497725
 20
0.37378159857945503
 30
0.0
 11
13.804252881112129
 21
4.882846318037627
 31
0.0
  0
ELLIPSE
  5
EE
330
17
100
AcDbEntity
  8
0
100
AcDbEllipse
 10
14.213801677072759
 20
4.761387892996112
 30
0.0
 11
0.5
 21
-1.5319049193957538e-17
 31
0.0
 40
0.423455197219461
 41
-5.323349146954092
 42
-3.7525528201591953
  0
LINE
  5
EF
330
17
100
AcDbEntity
  8
0
100
AcDbLine
 10
14.500628775695025
 20
4.934813459979436
 30
0.0
 11
25.148897468737637
 21
1.7768944094734578
 31
0.0
  0
ELLIPSE
  5
F0
330
17
100
AcDbEntity
  8
0
100
AcDbEllipse
 10
24.862070371469606
 20
1.60346884330896
 30
0.0
 11
0.5
 21
-1.5319049193957538e-17
 31
0.0
 40
0.423455197219461
 41
-6.8941454737489885
 42
-5.323349146954092
  0
LINE
  5
F1
330
17
100
AcDbEntity
  8
0
100
AcDbLine
 10
17.814114640395267
 20
-3.0270543025830183
 30
0.0
 11
25.271619169363916
 21
1.4820104176939783
 31
0.0
  0
ELLIPSE
  5
F2
330
17
100
AcDbEntity
  8
0
100
AcDbEllipse
 10
17.40456584250098
 20
-2.905595876968043
 30
0.0
 11
0.5
 21
-1.5319049193957538e-17
 31
0.0
 40
0.423455197219461
 41
-2.1817564933642988
 42
-0.6109601665694024
  0
LINE
  5
F3
330
17
100
AcDbEntity
  8
0
100
AcDbLine
 10
6.469470052189535
 20
0.07889760737367513
 30
0.0
 11
17.11773874523295
 21
-3.079021443132542
 31
0.0
  0
ELLIPSE
  5
F4
330
17
100
AcDbEntity
  8
0
100
AcDbEllipse
 10
17.082072651106458
 20
6.495643555460166
 30
0.0
 11
0.5
 21
-1.5319049193957538e-17
 31
0.0
 40
0.423455197219461
 41
-3.7525528201591953
 42
-2.1817564933642988
  0
LINE
  5
F5
330
17
100
AcDbEntity
  8
0
100
AcDbLine
 10
16.672523855146625
 20
6.617101980501445
 30
0.0
 11
24.130028382761026
 21
11.126166699959617
 31
0.0
  0
ELLIPSE
  5
F6
330
17
100
AcDbEntity
  8
0
100
AcDbEllipse
 10
24.539577178721654
 20
11.004708274918102
 30
0.0
 11
0.5
 21
-1.5319049193957538e-17
 31
0.0
 40
0.423455197219461
 41
-5.323349146954092
 42
-3.7525528201591953
  0
LINE
  5
F7
330
17
100
AcDbEntity
  8
0
100
AcDbLine
 10
24.82640427734392
 20
11.178133841901426
 30
0.0
 11
35.474672970386536
 21
8.020214791395448
 31
0.0
  0
ELLIPSE
  5
F8
330
17
100
AcDbEntity
  8
0
100
AcDbEllipse
 10
35.187845873118505
 20
7.84678922523095
 30
0.0
 11
0.5
 21
-1.5319049193957538e-17
 31
0.0
 40
0.423455197219461
 41
-6.8941454737489885
 42
-5.323349146954092
  0
LINE
  5
F9
330
17
100
AcDbEntity
  8
0
100
AcDbLine
 10
28.139890142044163
 20
3.2162660793389715
 30
0.0
 11
35.597394671012815
 21
7.725330799615968
 31
0.0
  0
ELLIPSE
  5
FA
330
17
100
AcDbEntity
  8
0
100
AcDbEllipse
 10
27.730341344149874
 20
3.337724504953947
 30
0.0
 11
0.5
 21
-1.5319049193957538e-17
 31
0.0
 40
0.423455197219461
 41
-2.1817564933642988
 42
-0.6109601665694024
  0
LINE
  5
FB
330
17
100
AcDbEntity
  8
0
100
AcDbLine
 10
16.795245553838434
 20
6.322217989295665
 30
0.0
 11
27.443514246881847
 21
3.164298938789448
 31
0.0
  0
ELLIPSE
  5
FC
330
17
100
AcDbEntity
  8
0
100
AcDbEllipse
 10
20.680956212118865
 20
-3.8772632778734035
 30
0.0
 11
0.5
 21
-1.5319049193957538e-17
 31
0.0
 40
0.423455197219461
 41
-3.7525528201591953
 42
-2.1817564933642988
  0
LINE
  5
FD
330
17
100
AcDbEntity
  8
0
100
AcDbLine
 10
20.271407416159025
 20
-3.7558048528321213
 30
0.0
 11
27.728911943773426
 21
0.7532598666260504
 31
0.0
  0
ELLIPSE
  5
FE
330
17
100
AcDbEntity
  8
0
100
AcDbEllipse
 10
28.138460739734054
 20
0.6318014415845283
 30
0.0
 11
0.5
 21
-1.5319049193957538e-17
 31
0.0
 40
0.423455197219461
 41
-5.323349146954092
 42
-3.7525528201591953
  0
LINE
  5
FF
330
17
100
AcDbEntity
  8
0
100
AcDbLine
 10
28.42528783835632
 20
0.8052270085678528
 30
0.0
 11
39.073556531398935
 21
-2.3526920419381256
 31
0.0
  0
ELLIPSE
  5
100
330
17
100
AcDbEntity
  8
0
100
AcDbEllipse
 10
38.78672943413091
 20
-2.5261176081026235
 30
0.0
 11
0.5
 21
-1.5319049193957538e-17
 31
0.0
 40
0.423455197219461
 41
-6.8941454737489885
 42
-5.323349146954092
  0
LINE
  5
101
330
17
100
AcDbEntity
  8
0
100
AcDbLine
 10
31.73877370305657
 20
-7.156640753994601
 30
0.0
 11
39.19627823202522
 21
-2.647576033717605
 31
0.0
  0
ELLIPSE
  5
102
330
17
100
AcDbEntity
  8
0
100
AcDbEllipse
 10
31.329224905162285
 20
-7.035182328379626
 30
0.0
 11
0.5
 21
-1.5319049193957538e-17
 31
0.0
 40
0.423455197219461
 41
-2.1817564933642988
 42
-0.6109601665694024
  0
LINE
  5
103
330
17
100
AcDbEntity
  8
0
100
AcDbLine
 10
20.39412911485084
 20
-4.050688844037901
 30
0.0
 11
31.042397807894254
 21
-7.208607894544118
 31
0.0
  0
ELLIPSE
  5
104
330
17
100
AcDbEntity
  8
0
100
AcDbEllipse
 10
31.006731713767753
 20
2.3660571040485934
 30
0.0
 11
0.5
 21
-1.5319049193957538e-17
 31
0.0
 40
0.423455197219461
 41
-3.7525528201591953
 42
-2.1817564933642988
  0
LINE
  5
105
330
17
100
AcDbEntity
  8
0
100
AcDbLine
 10
30.597182917807917
 20
2.4875155290898685
 30
0.0
 11
38.05468744542232
 21
6.996580248548041
 31
0.0
  0
ELLIPSE
  5
106
330
17
100
AcDbEntity
  8
0
100
AcDbEllipse
 10
38.46423624138295
 20
6.875121823506525
 30
0.0
 11
0.5
 21
-1.5319049193957538e-17
 31
0.0
 40
0.423455197219461
 41
-5.323349146954092
 42
-3.7525528201591953
  0
LINE
  5
107
330
17
100
AcDbEntity
  8
0
100
AcDbLine
 10
38.75106334000522
 20
7.048547390489853
 30
0.0
 11
49.39933203304783
 21
3.890628339983875
 31
0.0
  0
ELLIPSE
  5
108
330
17
100
AcDbEntity
  8
0
100
AcDbEllipse
 10
49.1125049357798
 20
3.7172027738193734
 30
0.0
 11
0.5
 21
-1.5319049193957538e-17
 31
0.0
 40
0.423455197219461
 41
-6.8941454737489885
 42
-5.323349146954092
  0
LINE
  5
109
330
17
100
AcDbEntity
  8
0
100
AcDbLine
 10
42.06454920470546
 20
-0.9133203720726049
 30
0.0
 11
49.52205373367411
 21
3.595744348204392
 31
0.0
  0
ELLIPSE
  5
10A
330
17
100
AcDbEntity
  8
0
100
AcDbEllipse
 10
41.65500040681117
 20
-0.7918619464576295
 30
0.0
 11
0.5
 21
-1.5319049193957538e-17
 31
0.0
 40
0.423455197219461
 41
-2.1817564933642988
 42
-0.6109601665694024
  0
LINE
  5
10B
330
17
100
AcDbEntity
  8
0
100
AcDbLine
 10
30.719904616499733
 20
2.192631537884089
 30
0.0
 11
41.368173309543145
 21
-0.9652875126221283
 31
0.0
  0
ENDSEC
  0
SECTION
  2
OBJECTS
  0
DICTIONARY
  5
A
330
0
100
AcDbDictionary
281
1
  3
ACAD_COLOR
350
B
  3
ACAD_GROUP
350
C
  3
ACAD_LAYOUT
350
D
  3
ACAD_MATERIAL
350
E
  3
ACAD_MLEADERSTYLE
350
F
  3
ACAD_MLINESTYLE
350
10
  3
ACAD_PLOTSETTINGS
350
11
  3
ACAD_PLOTSTYLENAME
350
12
  3
ACAD_SCALELIST
350
14
  3
ACAD_TABLESTYLE
350
15
  3
ACAD_VISUALSTYLE
350
16
  3
EZDXF_META
350
2D
  0
DICTIONARY
  5
B
330
A
100
AcDbDictionary
281
1
  0
DICTIONARY
  5
C
330
A
100
AcDbDictionary
281
1
  0
DICTIONARY
  5
D
330
A
100
AcDbDictionary
281
1
  3
Model
350
1A
  3
Layout1
350
1E
  0
DICTIONARY
  5
E
330
A
100
AcDbDictionary
281
1
  3
ByBlock
350
1F
  3
ByLayer
350
20
  3
Global
350
21
  0
DICTIONARY
  5
F
330
A
100
AcDbDictionary
281
1
  3
Standard
350
2C
  0
DICTIONARY
  5
10
330
A
100
AcDbDictionary
281
1
  3
Standard
350
22
  0
DICTIONARY
  5
11
330
A
100
AcDbDictionary
281
1
  0
ACDBDICTIONARYWDFLT
  5
12
330
A
100
AcDbDictionary
281
1
  3
Normal
350
13
100
AcDbDictionaryWithDefault
340
13
  0
ACDBPLACEHOLDER
  5
13
330
12
  0
DICTIONARY
  5
14
330
A
100
AcDbDictionary
281
1
  0
DICTIONARY
  5
15
330
A
100
AcDbDictionary
281
1
  0
DICTIONARY
  5
16
330
A
100
AcDbDictionary
281
1
  0
LAYOUT
  5
1A
330
D
100
AcDbPlotSettings
  1

  4
A3
  6

 40
7.5
 41
20.0
 42
7.5
 43
20.0
 44
420.0
 45
297.0
 46
0.0
 47
0.0
 48
0.0
 49
0.0
140
0.0
141
0.0
142
1.0
143
1.0
 70
1024
 72
1
 73
0
 74
5
  7

 75
16
 76
0
 77
2
 78
300
147
1.0
148
0.0
149
0.0
100
AcDbLayout
  1
Model
 70
1
 71
0
 10
0.0
 20
0.0
 11
420.0
 21
297.0
 12
0.0
 22
0.0
 32
0.0
 14
1e+20
 24
1e+20
 34
1e+20
 15
-1e+20
 25
-1e+20
 35
-1e+20
146
0.0
 13
0.0
 23
0.0
 33
0.0
 16
1.0
 26
0.0
 36
0.0
 17
0.0
 27
1.0
 37
0.0
 76
1
330
17
  0
LAYOUT
  5
1E
330
D
100
AcDbPlotSettings
  1

  4
A3
  6

 40
7.5
 41
20.0
 42
7.5
 43
20.0
 44
420.0
 45
297.0
 46
0.0
 47
0.0
 48
0.0
 49
0.0
140
0.0
141
0.0
142
1.0
143
1.0
 70
0
 72
1
 73
0
 74
5
  7

 75
16
 76
0
 77
2
 78
300
147
1.0
148
0.0
149
0.0
100
AcDbLayout
  1
Layout1
 70
1
 71
1
 10
0.0
 20
0.0
 11
420.0
 21
297.0
 12
0.0
 22
0.0
 32
0.0
 14
1e+20
 24
1e+20
 34
1e+20
 15
-1e+20
 25
-1e+20
 35
-1e+20
146
0.0
 13
0.0
 23
0.0
 33
0.0
 16
1.0
 26
0.0
 36
0.0
 17
0.0
 27
1.0
 37
0.0
 76
1
330
1B
  0
MATERIAL
  5
1F
102
{ACAD_REACTORS
330
E
102
}
330
E
100
AcDbMaterial
  1
ByBlock
  2

 70
0
 40
1.0
 71
1
 41
1.0
 91
-1023410177
 42
1.0
 72
1
  3

 73
1
 74
1
 75
1
 44
0.5
 73
0
 45
1.0
 46
1.0
 77
1
  4

 78
1
 79
1
170
1
 48
1.0
171
1
  6

172
1
173
1
174
1
140
1.0
141
1.0
175
1
  7

176
1
177
1
178
1
143
1.0
179
1
  8

270
1
271
1
272
1
145
1.0
146
1.0
273
1
  9

274
1
275
1
276
1
 42
1.0
 72
1
  3

 73
1
 74
1
 75
1
 94
63
  0
MATERIAL
  5
20
102
{ACAD_REACTORS
330
E
102
}
330
E
100
AcDbMaterial
  1
ByLayer
  2

 70
0
 40
1.0
 71
1
 41
1.0
 91
-1023410177
 42
1.0
 72
1
  3

 73
1
 74
1
 75
1
 44
0.5
 73
0
 45
1.0
 46
1.0
 77
1
  4

 78
1
 79
1
170
1
 48
1.0
171
1
  6

172
1
173
1
174
1
140
1.0
141
1.0
175
1
  7

176
1
177
1
178
1
143
1.0
179
1
  8

270
1
271
1
272
1
145
1.0
146
1.0
273
1
  9

274
1
275
1
276
1
 42
1.0
 72
1
  3

 73
1
 74
1
 75
1
 94
63
  0
MATERIAL
  5
21
102
{ACAD_REACTORS
330
E
102
}
330
E
100
AcDbMaterial
  1
Global
  2

 70
0
 40
1.0
 71
1
 41
1.0
 91
-1023410177
 42
1.0
 72
1
  3

 73
1
 74
1
 75
1
 44
0.5
 73
0
 45
1.0
 46
1.0
 77
1
  4

 78
1
 79
1
170
1
 48
1.0
171
1
  6

172
1
173
1
174
1
140
1.0
141
1.0
175
1
  7

176
1
177
1
178
1
143
1.0
179
1
  8

270
1
271
1
272
1
145
1.0
146
1.0
273
1
  9

274
1
275
1
276
1
 42
1.0
 72
1
  3

 73
1
 74
1
 75
1
 94
63
  0
MLINESTYLE
  5
22
102
{ACAD_REACTORS
330
10
102
}
330
10
100
AcDbMlineStyle
  2
Standard
 70
0
  3

 62
256
 51
90.0
 52
90.0
 71
2
 49
0.5
 62
256
  6
BYLAYER
 49
-0.5
 62
256
  6
BYLAYER
  0
MLEADERSTYLE
  5
2C
102
{ACAD_REACTORS
330
F
102
}
330
F
100
AcDbMLeaderStyle
179
2
170
2
171
1
172
0
 90
2
 40
0.0
 41
0.0
173
1
 91
-1056964608
 92
-2
290
1
 42
2.0
291
1
 43
8.0
  3
Standard
 44
4.0
300

342
29
174
1
175
1
176
0
178
1
 93
-1056964608
 45
4.0
292
0
297
0
 46
4.0
 94
-1056964608
 47
1.0
 49
1.0
140
1.0
294
1
141
0.0
177
0
142
1.0
295
0
296
0
143
3.75
271
0
272
9
273
9
  0
DICTIONARY
  5
2D
330
A
100
AcDbDictionary
280
1
281
1
  3
CREATED_BY_EZDXF
350
2E
  3
WRITTEN_BY_EZDXF
350
10F
  0
DICTIONARYVAR
  5
2E
330
2D
100
DictionaryVariables
280
0
  1
1.4.3 @ 2026-05-13T18:35:16.108296+00:00
  0
DICTIONARYVAR
  5
10F
330
2D
100
DictionaryVariables
280
0
  1
1.4.3 @ 2026-05-13T18:35:16.210900+00:00
  0
ENDSEC
  0
EOF
