  0
SECTION
  2
HEADER
  9
$ACADVER
  1
AC1027
  9
$ACADMAINTVER
 70
105
  9
$DWGCODEPAGE
  3
ANSI_1252
  9
$LASTSAVEDBY
  1
ezdxf
  9
$REQUIREDVERSIONS
160
0
  9
$INSBASE
 10
0.0
 20
0.0
 30
0.0
  9
$EXTMIN
 10
1e+20
 20
1e+20
 30
1e+20
  9
$EXTMAX
 10
-1e+20
 20
-1e+20
 30
-1e+20
  9
$LIMMIN
 10
0.0
 20
0.0
  9
$LIMMAX
 10
420.0
 20
297.0
  9
$ORTHOMODE
 70
0
  9
$REGENMODE
 70
1
  9
$FILLMODE
 70
1
  9
$QTEXTMODE
 70
0
  9
$MIRRTEXT
 70
1
  9
$LTSCALE
 40
1.0
  9
$ATTMODE
 70
1
  9
$TEXTSIZE
 40
2.5
  9
$TRACEWID
 40
1.0
  9
$TEXTSTYLE
  7
Standard
  9
$CLAYER
  8
0
  9
$CELTYPE
  6
ByLayer
  9
$CECOLOR
 62
256
  9
$CELTSCALE
 40
1.0
  9
$DISPSILH
 70
0
  9
$DIMSCALE
 40
1.0
  9
$DIMASZ
 40
2.5
  9
$DIMEXO
 40
0.625
  9
$DIMDLI
 40
3.75
  9
$DIMRND
 40
0.0
  9
$DIMDLE
 40
0.0
  9
$DIMEXE
 40
1.25
  9
$DIMTP
 40
0.0
  9
$DIMTM
 40
0.0
  9
$DIMTXT
 40
2.5
  9
$DIMCEN
 40
2.5
  9
$DIMTSZ
 40
0.0
  9
$DIMTOL
 70
0
  9
$DIMLIM
 70
0
  9
$DIMTIH
 70
0
  9
$DIMTOH
 70
0
  9
$DIMSE1
 70
0
  9
$DIMSE2
 70
0
  9
$DIMTAD
 70
1
  9
$DIMZIN
 70
8
  9
$DIMBLK
  1

  9
$DIMASO
 70
1
  9
$DIMSHO
 70
1
  9
$DIMPOST
  1

  9
$DIMAPOST
  1

  9
$DIMALT
 70
0
  9
$DIMALTD
 70
3
  9
$DIMALTF
 40
0.03937007874
  9
$DIMLFAC
 40
1.0
  9
$DIMTOFL
 70
1
  9
$DIMTVP
 40
0.0
  9
$DIMTIX
 70
0
  9
$DIMSOXD
 70
0
  9
$DIMSAH
 70
0
  9
$DIMBLK1
  1

  9
$DIMBLK2
  1

  9
$DIMSTYLE
  2
ISO-25
  9
$DIMCLRD
 70
0
  9
$DIMCLRE
 70
0
  9
$DIMCLRT
 70
0
  9
$DIMTFAC
 40
1.0
  9
$DIMGAP
 40
0.625
  9
$DIMJUST
 70
0
  9
$DIMSD1
 70
0
  9
$DIMSD2
 70
0
  9
$DIMTOLJ
 70
0
  9
$DIMTZIN
 70
8
  9
$DIMALTZ
 70
0
  9
$DIMALTTZ
 70
0
  9
$DIMUPT
 70
0
  9
$DIMDEC
 70
2
  9
$DIMTDEC
 70
2
  9
$DIMALTU
 70
2
  9
$DIMALTTD
 70
3
  9
$DIMTXSTY
  7
Standard
  9
$DIMAUNIT
 70
0
  9
$DIMADEC
 70
0
  9
$DIMALTRND
 40
0.0
  9
$DIMAZIN
 70
0
  9
$DIMDSEP
 70
44
  9
$DIMATFIT
 70
3
  9
$DIMFRAC
 70
0
  9
$DIMLDRBLK
  1

  9
$DIMLUNIT
 70
2
  9
$DIMLWD
 70
-2
  9
$DIMLWE
 70
-2
  9
$DIMTMOVE
 70
0
  9
$DIMFXL
 40
1.0
  9
$DIMFXLON
 70
0
  9
$DIMJOGANG
 40
0.785398163397
  9
$DIMTFILL
 70
0
  9
$DIMTFILLCLR
 70
0
  9
$DIMARCSYM
 70
0
  9
$DIMLTYPE
  6

  9
$DIMLTEX1
  6

  9
$DIMLTEX2
  6

  9
$DIMTXTDIRECTION
 70
0
  9
$LUNITS
 70
2
  9
$LUPREC
 70
4
  9
$SKETCHINC
 40
1.0
  9
$FILLETRAD
 40
10.0
  9
$AUNITS
 70
0
  9
$AUPREC
 70
2
  9
$MENU
  1
.
  9
$ELEVATION
 40
0.0
  9
$PELEVATION
 40
0.0
  9
$THICKNESS
 40
0.0
  9
$LIMCHECK
 70
0
  9
$CHAMFERA
 40
0.0
  9
$CHAMFERB
 40
0.0
  9
$CHAMFERC
 40
0.0
  9
$CHAMFERD
 40
0.0
  9
$SKPOLY
 70
0
  9
$TDCREATE
 40
2461231.696585648
  9
$TDUCREATE
 40
2458532.153996898
  9
$TDUPDATE
 40
2461231.6965972222
  9
$TDUUPDATE
 40
2458532.1544311
  9
$TDINDWG
 40
0.0
  9
$TDUSRTIMER
 40
0.0
  9
$USRTIMER
 70
1
  9
$ANGBASE
 50
0.0
  9
$ANGDIR
 70
0
  9
$PDMODE
 70
0
  9
$PDSIZE
 40
0.0
  9
$PLINEWID
 40
0.0
  9
$SPLFRAME
 70
0
  9
$SPLINETYPE
 70
6
  9
$SPLINESEGS
 70
8
  9
$HANDSEED
  5
110
  9
$SURFTAB1
 70
6
  9
$SURFTAB2
 70
6
  9
$SURFTYPE
 70
6
  9
$SURFU
 70
6
  9
$SURFV
 70
6
  9
$UCSBASE
  2

  9
$UCSNAME
  2

  9
$UCSORG
 10
0.0
 20
0.0
 30
0.0
  9
$UCSXDIR
 10
1.0
 20
0.0
 30
0.0
  9
$UCSYDIR
 10
0.0
 20
1.0
 30
0.0
  9
$UCSORTHOREF
  2

  9
$UCSORTHOVIEW
 70
0
  9
$UCSORGTOP
 10
0.0
 20
0.0
 30
0.0
  9
$UCSORGBOTTOM
 10
0.0
 20
0.0
 30
0.0
  9
$UCSORGLEFT
 10
0.0
 20
0.0
 30
0.0
  9
$UCSORGRIGHT
 10
0.0
 20
0.0
 30
0.0
  9
$UCSORGFRONT
 10
0.0
 20
0.0
 30
0.0
  9
$UCSORGBACK
 10
0.0
 20
0.0
 30
0.0
  9
$PUCSBASE
  2

  9
$PUCSNAME
  2

  9
$PUCSORG
 10
0.0
 20
0.0
 30
0.0
  9
$PUCSXDIR
 10
1.0
 20
0.0
 30
0.0
  9
$PUCSYDIR
 10
0.0
 20
1.0
 30
0.0
  9
$PUCSORTHOREF
  2

  9
$PUCSORTHOVIEW
 70
0
  9
$PUCSORGTOP
 10
0.0
 20
0.0
 30
0.0
  9
$PUCSORGBOTTOM
 10
0.0
 20
0.0
 30
0.0
  9
$PUCSORGLEFT
 10
0.0
 20
0.0
 30
0.0
  9
$PUCSORGRIGHT
 10
0.0
 20
0.0
 30
0.0
  9
$PUCSORGFRONT
 10
0.0
 20
0.0
 30
0.0
  9
$PUCSORGBACK
 10
0.0
 20
0.0
 30
0.0
  9
$USERI1
 70
0
  9
$USERI2
 70
0
  9
$USERI3
 70
0
  9
$USERI4
 70
0
  9
$USERI5
 70
0
  9
$USERR1
 40
0.0
  9
$USERR2
 40
0.0
  9
$USERR3
 40
0.0
  9
$USERR4
 40
0.0
  9
$USERR5
 40
0.0
  9
$WORLDVIEW
 70
1
  9
$SHADEDGE
 70
3
  9
$SHADEDIF
 70
70
  9
$TILEMODE
 70
1
  9
$MAXACTVP
 70
64
  9
$PINSBASE
 10
0.0
 20
0.0
 30
0.0
  9
$PLIMCHECK
 70
0
  9
$PEXTMIN
 10
1e+20
 20
1e+20
 30
1e+20
  9
$PEXTMAX
 10
-1e+20
 20
-1e+20
 30
-1e+20
  9
$PLIMMIN
 10
0.0
 20
0.0
  9
$PLIMMAX
 10
420.0
 20
297.0
  9
$UNITMODE
 70
0
  9
$VISRETAIN
 70
1
  9
$PLINEGEN
 70
0
  9
$PSLTSCALE
 70
1
  9
$TREEDEPTH
 70
3020
  9
$CMLSTYLE
  2
Standard
  9
$CMLJUST
 70
0
  9
$CMLSCALE
 40
20.0
  9
$PROXYGRAPHICS
 70
1
  9
$MEASUREMENT
 70
1
  9
$CELWEIGHT
370
-1
  9
$ENDCAPS
280
0
  9
$JOINSTYLE
280
0
  9
$LWDISPLAY
290
0
  9
$INSUNITS
 70
4
  9
$HYPERLINKBASE
  1

  9
$STYLESHEET
  1

  9
$XEDIT
290
1
  9
$CEPSNTYPE
380
0
  9
$PSTYLEMODE
290
1
  9
$FINGERPRINTGUID
  2
{F21A63E2-7579-4F81-BB4D-1C52A3C5A64E}
  9
$VERSIONGUID
  2
{E76D679F-67E2-4BCB-9A04-7EC32E8C4C45}
  9
$EXTNAMES
290
1
  9
$PSVPSCALE
 40
0.0
  9
$OLESTARTUP
290
0
  9
$SORTENTS
280
127
  9
$INDEXCTL
280
0
  9
$HIDETEXT
280
1
  9
$XCLIPFRAME
280
1
  9
$HALOGAP
280
0
  9
$OBSCOLOR
 70
257
  9
$OBSLTYPE
280
0
  9
$INTERSECTIONDISPLAY
280
0
  9
$INTERSECTIONCOLOR
 70
257
  9
$DIMASSOC
280
2
  9
$PROJECTNAME
  1

  9
$CAMERADISPLAY
290
0
  9
$LENSLENGTH
 40
50.0
  9
$CAMERAHEIGHT
 40
0.0
  9
$STEPSPERSEC
 40
24.0
  9
$STEPSIZE
 40
100.0
  9
$3DDWFPREC
 40
2.0
  9
$PSOLWIDTH
 40
0.005
  9
$PSOLHEIGHT
 40
0.08
  9
$LOFTANG1
 40
1.570796326795
  9
$LOFTANG2
 40
1.570796326795
  9
$LOFTMAG1
 40
0.0
  9
$LOFTMAG2
 40
0.0
  9
$LOFTPARAM
 70
7
  9
$LOFTNORMALS
280
1
  9
$LATITUDE
 40
37.795
  9
$LONGITUDE
 40
-122.394
  9
$NORTHDIRECTION
 40
0.0
  9
$TIMEZONE
 70
-8000
  9
$LIGHTGLYPHDISPLAY
280
1
  9
$TILEMODELIGHTSYNCH
280
1
  9
$CMATERIAL
347
20
  9
$SOLIDHIST
280
0
  9
$SHOWHIST
280
1
  9
$DWFFRAME
280
2
  9
$DGNFRAME
280
2
  9
$REALWORLDSCALE
290
1
  9
$INTERFERECOLOR
 62
256
  9
$CSHADOW
280
0
  9
$SHADOWPLANELOCATION
 40
0.0
  0
ENDSEC
  0
SECTION
  2
CLASSES
  0
CLASS
  1
ACDBDICTIONARYWDFLT
  2
AcDbDictionaryWithDefault
  3
ObjectDBX Classes
 90
0
 91
0
280
0
281
0
  0
CLASS
  1
SUN
  2
AcDbSun
  3
SCENEOE
 90
1153
 91
0
280
0
281
0
  0
CLASS
  1
VISUALSTYLE
  2
AcDbVisualStyle
  3
ObjectDBX Classes
 90
4095
 91
0
280
0
281
0
  0
CLASS
  1
MATERIAL
  2
AcDbMaterial
  3
ObjectDBX Classes
 90
1153
 91
0
280
0
281
0
  0
CLASS
  1
SCALE
  2
AcDbScale
  3
ObjectDBX Classes
 90
1153
 91
0
280
0
281
0
  0
CLASS
  1
TABLESTYLE
  2
AcDbTableStyle
  3
ObjectDBX Classes
 90
4095
 91
0
280
0
281
0
  0
CLASS
  1
MLEADERSTYLE
  2
AcDbMLeaderStyle
  3
ACDB_MLEADERSTYLE_CLASS
 90
4095
 91
0
280
0
281
0
  0
CLASS
  1
DICTIONARYVAR
  2
AcDbDictionaryVar
  3
ObjectDBX Classes
 90
0
 91
0
280
0
281
0
  0
CLASS
  1
CELLSTYLEMAP
  2
AcDbCellStyleMap
  3
ObjectDBX Classes
 90
1152
 91
0
280
0
281
0
  0
CLASS
  1
MENTALRAYRENDERSETTINGS
  2
AcDbMentalRayRenderSettings
  3
SCENEOE
 90
1024
 91
0
280
0
281
0
  0
CLASS
  1
ACDBDETAILVIEWSTYLE
  2
AcDbDetailViewStyle
  3
ObjectDBX Classes
 90
1025
 91
0
280
0
281
0
  0
CLASS
  1
ACDBSECTIONVIEWSTYLE
  2
AcDbSectionViewStyle
  3
ObjectDBX Classes
 90
1025
 91
0
280
0
281
0
  0
CLASS
  1
RASTERVARIABLES
  2
AcDbRasterVariables
  3
ISM
 90
0
 91
0
280
0
281
0
  0
CLASS
  1
LAYOUT
  2
AcDbLayout
  3
ObjectDBX Classes
 90
0
 91
0
280
0
281
0
  0
CLASS
  1
ACDBPLACEHOLDER
  2
AcDbPlaceHolder
  3
ObjectDBX Classes
 90
0
 91
0
280
0
281
0
  0
ENDSEC
  0
SECTION
  2
TABLES
  0
TABLE
  2
VPORT
  5
8
330
0
100
AcDbSymbolTable
 70
1
  0
VPORT
  5
10C
330
8
100
AcDbSymbolTableRecord
100
AcDbViewportTableRecord
  2
*Active
 70
0
 10
0.0
 20
0.0
 11
1.0
 21
1.0
 12
-75.16299220328438
 22
57.12333517245757
 13
0.0
 23
0.0
 14
0.5
 24
0.5
 15
0.5
 25
0.5
 16
0.0
 26
0.0
 36
1.0
 17
0.0
 27
0.0
 37
0.0
 40
123.66660244463765
 41
1.34
 42
50.0
 43
0.0
 44
0.0
 50
0.0
 51
0.0
 71
0
 72
1000
 73
1
 74
3
 75
0
 76
0
 77
0
 78
0
281
0
 65
1
110
0.0
120
0.0
130
0.0
111
1.0
121
0.0
131
0.0
112
0.0
122
1.0
132
0.0
 79
0
146
0.0
  0
ENDTAB
  0
TABLE
  2
LTYPE
  5
2
330
0
100
AcDbSymbolTable
 70
3
  0
LTYPE
  5
24
330
2
100
AcDbSymbolTableRecord
100
AcDbLinetypeTableRecord
  2
ByBlock
 70
0
  3

 72
65
 73
0
 40
0.0
  0
LTYPE
  5
25
330
2
100
AcDbSymbolTableRecord
100
AcDbLinetypeTableRecord
  2
ByLayer
 70
0
  3

 72
65
 73
0
 40
0.0
  0
LTYPE
  5
26
330
2
100
AcDbSymbolTableRecord
100
AcDbLinetypeTableRecord
  2
Continuous
 70
0
  3

 72
65
 73
0
 40
0.0
  0
ENDTAB
  0
TABLE
  2
LAYER
  5
1
330
0
100
AcDbSymbolTable
 70
2
  0
LAYER
  5
27
330
1
100
AcDbSymbolTableRecord
100
AcDbLayerTableRecord
  2
0
 70
0
 62
7
  6
Continuous
370
-3
390
13
347
21
  0
LAYER
  5
28
330
1
100
AcDbSymbolTableRecord
100
AcDbLayerTableRecord
  2
Defpoints
 70
0
 62
7
  6
Continuous
290
0
370
-3
390
13
347
21
  0
ENDTAB
  0
TABLE
  2
STYLE
  5
5
330
0
100
AcDbSymbolTable
 70
1
  0
STYLE
  5
29
330
5
100
AcDbSymbolTableRecord
100
AcDbTextStyleTableRecord
  2
Standard
 70
0
 40
0.0
 41
1.0
 50
0.0
 71
0
 42
2.5
  3
txt
  4

  0
ENDTAB
  0
TABLE
  2
VIEW
  5
7
330
0
100
AcDbSymbolTable
 70
0
  0
ENDTAB
  0
TABLE
  2
UCS
  5
6
330
0
100
AcDbSymbolTable
 70
0
  0
ENDTAB
  0
TABLE
  2
APPID
  5
3
330
0
100
AcDbSymbolTable
 70
3
  0
APPID
  5
2A
330
3
100
AcDbSymbolTableRecord
100
AcDbRegAppTableRecord
  2
ACAD
 70
0
  0
APPID
  5
10D
330
3
100
AcDbSymbolTableRecord
100
AcDbRegAppTableRecord
  2
HATCHBACKGROUNDCOLOR
 70
0
  0
APPID
  5
10E
330
3
100
AcDbSymbolTableRecord
100
AcDbRegAppTableRecord
  2
EZDXF
 70
0
  0
ENDTAB
  0
TABLE
  2
DIMSTYLE
  5
4
330
0
100
AcDbSymbolTable
 70
1
100
AcDbDimStyleTable
  0
DIMSTYLE
105
2B
330
4
100
AcDbSymbolTableRecord
100
AcDbDimStyleTableRecord
  2
Standard
 70
0
 40
1.0
 41
2.5
 42
0.625
 43
3.75
 44
1.25
 45
0.0
 46
0.0
 47
0.0
 48
0.0
 49
2.5
140
2.5
141
2.5
142
0.0
143
0.03937007874
144
1.0
145
0.0
146
1.0
147
0.625
148
0.0
 69
0
 70
0
 71
0
 72
0
 73
0
 74
0
 75
0
 76
0
 77
1
 78
8
 79
3
170
0
171
3
172
1
173
0
174
0
175
0
176
0
177
0
178
0
179
2
271
2
272
2
273
2
274
3
275
0
276
0
277
2
278
44
279
0
280
0
281
0
282
0
283
0
284
8
285
0
286
0
288
0
289
3
290
0
371
-2
372
-2
  0
ENDTAB
  0
TABLE
  2
BLOCK_RECORD
  5
9
330
0
100
AcDbSymbolTable
 70
2
  0
BLOCK_RECORD
  5
17
330
9
100
AcDbSymbolTableRecord
100
AcDbBlockTableRecord
  2
*Model_Space
340
1A
 70
0
280
1
281
0
  0
BLOCK_RECORD
  5
1B
330
9
100
AcDbSymbolTableRecord
100
AcDbBlockTableRecord
  2
*Paper_Space
340
1E
 70
0
280
1
281
0
  0
ENDTAB
  0
ENDSEC
  0
SECTION
  2
BLOCKS
  0
BLOCK
  5
18
330
17
100
AcDbEntity
  8
0
100
AcDbBlockBegin
  2
*Model_Space
 70
0
 10
0.0
 20
0.0
 30
0.0
  3
*Model_Space
  1

  0
ENDBLK
  5
19
330
17
100
AcDbEntity
  8
0
100
AcDbBlockEnd
  0
BLOCK
  5
1C
330
1B
100
AcDbEntity
  8
0
100
AcDbBlockBegin
  2
*Paper_Space
 70
0
 10
0.0
 20
0.0
 30
0.0
  3
*Paper_Space
  1

  0
ENDBLK
  5
1D
330
1B
100
AcDbEntity
  8
0
100
AcDbBlockEnd
  0
ENDSEC
  0
SECTION
  2
ENTITIES
  0
LINE
  5
2F
330
17
100
AcDbEntity
  8
0
100
AcDbLine
 10
-29.457723563912992
 20
58.19156086455388
 30
0.0
 11
-8.360758025396787
 21
43.41930656113436
 31
0.0
  0
LINE
  5
30
330
17
100
AcDbEntity
  8
0
100
AcDbLine
 10
-29.457723563912985
 20
99.48453594582372
 30
0.0
 11
-29.457723563912992
 21
58.19156086455388
 31
0.0
  0
LINE
  5
31
330
17
100
AcDbEntity
  8
0
100
AcDbLine
 10
-8.360758025396784
 20
43.41930656113436
 30
0.0
 11
-8.360758025396784
 21
1.5
 31
0.0
  0
ARC
  5
32
330
17
100
AcDbEntity
  8
0
100
AcDbCircle
 10
-8.36075802539682
 20
213.05338929661434
 30
0.0
 40
115.5117587362717
100
AcDbArc
 50
-461.7663021205936
 51
-460.5235187542816
  0
ARC
  5
33
330
17
100
AcDbEntity
  8
0
100
AcDbCircle
 10
-8.360758025396791
 20
-11.000000000000014
 30
0.0
 40
12.500000000000018
100
AcDbArc
 50
450.0
 51
494.9994999999618
  0
LINE
  5
34
330
17
100
AcDbEntity
  8
0
100
AcDbLine
 10
-32.2788032995537
 20
98.45774008890561
 30
0.0
 11
-31.915951267988486
 21
99.9688223670336
 31
0.0
  0
LINE
  5
35
330
17
100
AcDbEntity
  8
0
100
AcDbLine
 10
-17.199515656044117
 20
-2.1610881025722
 30
0.0
 11
-18.967387510260902
 21
-3.928929101871276
 31
0.0
  0
ARC
  5
36
330
17
100
AcDbEntity
  8
0
100
AcDbCircle
 10
-35.68108819797354
 20
99.27472140436693
 30
0.0
 40
3.499
100
AcDbArc
 50
256.4973731280481
 51
346.4973731280481
  0
ARC
  5
37
330
17
100
AcDbEntity
  8
0
100
AcDbCircle
 10
-20.381588731237706
 20
-2.514703198209588
 30
0.0
 40
2.0
100
AcDbArc
 50
-135.0
 51
-45.000500000038315
  0
LINE
  5
38
330
17
100
AcDbEntity
  8
0
100
AcDbLine
 10
-36.500014230689246
 20
95.8729034855277
 30
0.0
 11
-36.498069513440576
 21
95.87243650592328
 31
0.0
  0
LINE
  5
39
330
17
100
AcDbEntity
  8
0
100
AcDbLine
 10
-21.79580229455192
 20
-3.9289167615238014
 30
0.0
 11
-22.856459381000914
 21
-2.868259675074807
 31
0.0
  0
ARC
  5
3A
330
17
100
AcDbEntity
  8
0
100
AcDbCircle
 10
-35.683032915222206
 20
99.27518838397135
 30
0.0
 40
3.499
100
AcDbArc
 50
166.4973731280481
 51
256.4973731280481
  0
LINE
  5
3B
330
17
100
AcDbEntity
  8
0
100
AcDbLine
 10
-22.856459381000914
 20
-2.868259675074806
 30
0.0
 11
-21.795092102439916
 21
-1.8068923965138086
 31
0.0
  0
LINE
  5
3C
330
17
100
AcDbEntity
  8
0
100
AcDbLine
 10
-38.72246578330852
 20
101.60325197785741
 30
0.0
 11
-39.08531781487396
 21
100.09216969972849
 31
0.0
  0
ARC
  5
3D
330
17
100
AcDbEntity
  8
0
100
AcDbCircle
 10
-24.269258730690183
 20
0.6672742317364586
 30
0.0
 40
3.499
100
AcDbArc
 50
-45.00000000000003
 51
44.99999999999997
  0
ARC
  5
3E
330
17
100
AcDbEntity
  8
0
100
AcDbCircle
 10
-8.36075802539682
 20
213.05338929661434
 30
0.0
 40
115.5117587362717
100
AcDbArc
 50
-477.0052537439038
 51
-465.2389516233239
  0
LINE
  5
3F
330
17
100
AcDbEntity
  8
0
100
AcDbLine
 10
-21.795092103318453
 20
3.1414408591081884
 30
0.0
 11
-21.79650631601961
 21
3.142855071809345
 31
0.0
  0
ARC
  5
40
330
17
100
AcDbEntity
  8
0
100
AcDbCircle
 10
-95.26114981564041
 20
42.54042160398028
 30
0.0
 40
75.86836103756242
100
AcDbArc
 50
62.99474625609618
 51
92.7581788278299
  0
ARC
  5
41
330
17
100
AcDbEntity
  8
0
100
AcDbCircle
 10
-24.27067294339134
 20
0.6686884444376158
 30
0.0
 40
3.499
100
AcDbArc
 50
44.99999999999997
 51
134.99999999999997
  0
LINE
  5
42
330
17
100
AcDbEntity
  8
0
100
AcDbLine
 10
-98.7782771380984
 20
116.90697459044519
 30
0.0
 11
-98.91198930002643
 21
118.32089123557581
 31
0.0
  0
LINE
  5
43
330
17
100
AcDbEntity
  8
0
100
AcDbLine
 10
-26.74483957074575
 20
3.1428550717920247
 30
0.0
 11
-27.806206849306747
 21
2.0814877932310267
 31
0.0
  0
ARC
  5
44
330
17
100
AcDbEntity
  8
0
100
AcDbCircle
 10
-102.26173513353388
 20
116.5775487355624
 30
0.0
 40
3.499
100
AcDbArc
 50
275.40231696357336
 51
365.40231696357336
  0
LINE
  5
45
330
17
100
AcDbEntity
  8
0
100
AcDbLine
 10
-27.806206849306747
 20
2.081487793231026
 30
0.0
 11
-29.927514851586466
 21
4.202795795510747
 31
0.0
  0
LINE
  5
46
330
17
100
AcDbEntity
  8
0
100
AcDbLine
 10
-101.93430039375261
 20
113.09390244307238
 30
0.0
 11
-101.93230927864879
 21
113.09409074010254
 31
0.0
  0
ARC
  5
47
330
17
100
AcDbEntity
  8
0
100
AcDbCircle
 10
-99.48594176964227
 20
-65.35563112254503
 30
0.0
 40
98.37047072485228
100
AcDbArc
 50
405.0
 51
435.0000000000004
  0
ARC
  5
48
330
17
100
AcDbEntity
  8
0
100
AcDbCircle
 10
-102.2637262486377
 20
116.57736043853224
 30
0.0
 40
3.499
100
AcDbArc
 50
185.40231696357333
 51
275.40231696357336
  0
ARC
  5
49
330
17
100
AcDbEntity
  8
0
100
AcDbCircle
 10
-253.74076614372626
 20
-641.0424729992583
 30
0.0
 40
694.3653454953181
100
AcDbArc
 50
435.00000000000045
 51
436.6211602111369
  0
LINE
  5
4A
330
17
100
AcDbEntity
  8
0
100
AcDbLine
 10
-105.8808964072624
 20
117.66185122865964
 30
0.0
 11
-105.74718424533447
 21
116.24793458353017
 31
0.0
  0
LINE
  5
4B
330
17
100
AcDbEntity
  8
0
100
AcDbLine
 10
-93.0725224705973
 20
34.47876907964536
 30
0.0
 11
-92.7305753173575
 21
35.949358002465
 31
0.0
  0
ARC
  5
4C
330
17
100
AcDbEntity
  8
0
100
AcDbCircle
 10
-95.26114981564041
 20
42.54042160398028
 30
0.0
 40
75.86836103756242
100
AcDbArc
 50
98.04645509933535
 51
127.24220662597966
  0
ARC
  5
4D
330
17
100
AcDbEntity
  8
0
100
AcDbCircle
 10
-96.1386551067379
 20
36.74181819573117
 30
0.0
 40
3.499
100
AcDbArc
 50
-13.090034941694325
 51
76.90996505830567
  0
ARC
  5
4E
330
17
100
AcDbEntity
  8
0
100
AcDbCircle
 10
-139.96522635312124
 20
101.34586610792674
 30
0.0
 40
2.0
100
AcDbArc
 50
127.24220662597962
 51
180.0
  0
LINE
  5
4F
330
17
100
AcDbEntity
  8
0
100
AcDbLine
 10
-95.34619491375312
 20
40.14989798390141
 30
0.0
 11
-95.34814294331171
 21
40.15035094743979
 31
0.0
  0
LINE
  5
50
330
17
100
AcDbEntity
  8
0
100
AcDbLine
 10
-141.96522638117196
 20
77.57254826171109
 30
0.0
 11
-141.96522638117196
 21
101.34586610792674
 31
0.0
  0
ARC
  5
51
330
17
100
AcDbEntity
  8
0
100
AcDbCircle
 10
-96.14060313629649
 20
36.74227115926955
 30
0.0
 40
3.499
100
AcDbArc
 50
76.90996505830567
 51
166.90996505830566
  0
LINE
  5
52
330
17
100
AcDbEntity
  8
0
100
AcDbLine
 10
-140.46422638117195
 20
77.57254826171109
 30
0.0
 11
-141.96522638117196
 21
77.57254826171109
 31
0.0
  0
LINE
  5
53
330
17
100
AcDbEntity
  8
0
100
AcDbLine
 10
-99.54868292444287
 20
37.534731352248784
 30
0.0
 11
-99.89063007768272
 21
36.064142429429
 31
0.0
  0
ARC
  5
54
330
17
100
AcDbEntity
  8
0
100
AcDbCircle
 10
-140.46422638117195
 20
74.07354826173558
 30
0.0
 40
3.499
100
AcDbArc
 50
360.0
 51
450.0
  0
ARC
  5
55
330
17
100
AcDbEntity
  8
0
100
AcDbCircle
 10
-253.74076614372626
 20
-641.0424729992583
 30
0.0
 40
694.3653454953181
100
AcDbArc
 50
437.19876990547505
 51
438.81993011661126
  0
LINE
  5
56
330
17
100
AcDbEntity
  8
0
100
AcDbLine
 10
-136.96522638117196
 20
74.07154826295353
 30
0.0
 11
-136.96522638117196
 21
74.07354826173558
 31
0.0
  0
ARC
  5
57
330
17
100
AcDbEntity
  8
0
100
AcDbCircle
 10
-65.52394677842577
 20
311.26035567645613
 30
0.0
 40
276.3592542732039
100
AcDbArc
 50
-105.7432910892724
 51
-101.18006988338873
  0
ARC
  5
58
330
17
100
AcDbEntity
  8
0
100
AcDbCircle
 10
-140.46422638117195
 20
74.07154826295353
 30
0.0
 40
3.499
100
AcDbArc
 50
270.0
 51
360.0
  0
ARC
  5
59
330
17
100
AcDbEntity
  8
0
100
AcDbCircle
 10
-139.96522638100788
 20
47.19313639985087
 30
0.0
 40
2.0
100
AcDbArc
 50
-180.0
 51
-105.74329108927236
  0
LINE
  5
5A
330
17
100
AcDbEntity
  8
0
100
AcDbLine
 10
-141.96522638117196
 20
70.57254826171109
 30
0.0
 11
-140.46422638117195
 21
70.57254826171109
 31
0.0
  0
LINE
  5
5B
330
17
100
AcDbEntity
  8
0
100
AcDbLine
 10
-141.96522638117196
 20
47.19313639985087
 30
0.0
 11
-141.96522638117196
 21
70.57254826171109
 31
0.0
  0
ARC
  5
5C
330
17
100
AcDbEntity
  8
0
100
AcDbCircle
 10
-115.42626950787368
 20
46.09576205427419
 30
0.0
 40
0.5
100
AcDbArc
 50
169.99999999999997
 51
260.0
  0
LINE
  5
5D
330
17
100
AcDbEntity
  8
0
100
AcDbLine
 10
-115.513093596707
 20
45.60335817776904
 30
0.0
 11
-102.71059280987316
 21
43.34593186850888
 31
0.0
  0
ARC
  5
5E
330
17
100
AcDbEntity
  8
0
100
AcDbCircle
 10
-102.6237687210397
 20
43.83833574501498
 30
0.0
 40
0.5
100
AcDbArc
 50
260.0
 51
350.0
  0
LINE
  5
5F
330
17
100
AcDbEntity
  8
0
100
AcDbLine
 10
-102.13136484220871
 20
43.75151165577158
 30
0.0
 11
-99.87393853294856
 21
56.554012442605405
 31
0.0
  0
ARC
  5
60
330
17
100
AcDbEntity
  8
0
100
AcDbCircle
 10
-100.36634240945466
 20
56.64083653143887
 30
0.0
 40
0.5
100
AcDbArc
 50
-10.000000000000009
 51
79.99999999999999
  0
LINE
  5
61
330
17
100
AcDbEntity
  8
0
100
AcDbLine
 10
-100.27951832021125
 20
57.13324041026985
 30
0.0
 11
-113.08201910936997
 21
59.390666719939944
 31
0.0
  0
ARC
  5
62
330
17
100
AcDbEntity
  8
0
100
AcDbCircle
 10
-113.16884319861336
 20
58.89826284110898
 30
0.0
 40
0.5
100
AcDbArc
 50
79.99999999999999
 51
169.99999999999997
  0
LINE
  5
63
330
17
100
AcDbEntity
  8
0
100
AcDbLine
 10
-113.66124707511946
 20
58.98508692994244
 30
0.0
 11
-115.91867338437979
 21
46.182586143107656
 31
0.0
  0
ARC
  5
64
330
17
100
AcDbEntity
  8
0
100
AcDbCircle
 10
-94.90866847958064
 20
46.38771633242125
 30
0.0
 40
0.5
100
AcDbArc
 50
165.0
 51
255.00000000000003
  0
LINE
  5
65
330
17
100
AcDbEntity
  8
0
100
AcDbLine
 10
-95.03807800213166
 20
45.90475341927765
 30
0.0
 11
-82.48104226265407
 21
42.540105833555884
 31
0.0
  0
ARC
  5
66
330
17
100
AcDbEntity
  8
0
100
AcDbCircle
 10
-82.35163274010281
 20
43.02306874670042
 30
0.0
 40
0.5
100
AcDbArc
 50
255.00000000000003
 51
345.0
  0
LINE
  5
67
330
17
100
AcDbEntity
  8
0
100
AcDbLine
 10
-81.86866982467798
 20
42.89365922353815
 30
0.0
 11
-78.50402223895621
 21
55.450694963015735
 31
0.0
  0
ARC
  5
68
330
17
100
AcDbEntity
  8
0
100
AcDbCircle
 10
-78.98698515210074
 20
55.58010448556699
 30
0.0
 40
0.5
100
AcDbArc
 50
-15.000000000000009
 51
74.99999999999999
  0
LINE
  5
69
330
17
100
AcDbEntity
  8
0
100
AcDbLine
 10
-78.85757562893848
 20
56.063067400991834
 30
0.0
 11
-91.41461137069636
 21
59.427714987324606
 31
0.0
  0
ARC
  5
6A
330
17
100
AcDbEntity
  8
0
100
AcDbCircle
 10
-91.54402089385863
 20
58.94475207189978
 30
0.0
 40
0.5
100
AcDbArc
 50
74.99999999999999
 51
165.0
  0
LINE
  5
6B
330
17
100
AcDbEntity
  8
0
100
AcDbLine
 10
-92.02698380700316
 20
59.07416159445104
 30
0.0
 11
-95.39163139272517
 21
46.51712585497251
 31
0.0
  0
ARC
  5
6C
330
17
100
AcDbEntity
  8
0
100
AcDbCircle
 10
-29.92751485158684
 20
13.395183950935547
 30
0.0
 40
0.5
100
AcDbArc
 50
135.0
 51
225.0
  0
LINE
  5
6D
330
17
100
AcDbEntity
  8
0
100
AcDbLine
 10
-30.281068242179426
 20
13.04163056034296
 30
0.0
 11
-21.088680088423605
 21
3.849242406587136
 31
0.0
  0
ARC
  5
6E
330
17
100
AcDbEntity
  8
0
100
AcDbCircle
 10
-20.73512669783033
 20
4.202795797180409
 30
0.0
 40
0.5
100
AcDbArc
 50
225.0
 51
315.0
  0
LINE
  5
6F
330
17
100
AcDbEntity
  8
0
100
AcDbLine
 10
-20.381573305567763
 20
3.84924240491784
 30
0.0
 11
-11.189185151811943
 21
13.04163055867366
 31
0.0
  0
ARC
  5
70
330
17
100
AcDbEntity
  8
0
100
AcDbCircle
 10
-11.542738542405214
 20
13.395183949266933
 30
0.0
 40
0.5
100
AcDbArc
 50
-45.00000000000001
 51
44.99999999999999
  0
LINE
  5
71
330
17
100
AcDbEntity
  8
0
100
AcDbLine
 10
-11.189185150142645
 20
13.748737341529502
 30
0.0
 11
-20.381573305567763
 21
22.94112549695462
 31
0.0
  0
ARC
  5
72
330
17
100
AcDbEntity
  8
0
100
AcDbCircle
 10
-20.735126697830324
 20
22.587572104692065
 30
0.0
 40
0.5
100
AcDbArc
 50
44.99999999999999
 51
135.0
  0
LINE
  5
73
330
17
100
AcDbEntity
  8
0
100
AcDbLine
 10
-21.088680088423594
 20
22.941125495285334
 30
0.0
 11
-30.281068242180112
 21
13.74873734152882
 31
0.0
  0
ARC
  5
74
330
17
100
AcDbEntity
  8
0
100
AcDbCircle
 10
-44.65919918070351
 20
24.277476193547965
 30
0.0
 40
0.5
100
AcDbArc
 50
145.0
 51
235.0
  0
LINE
  5
75
330
17
100
AcDbEntity
  8
0
100
AcDbLine
 10
-44.945987398878486
 20
23.867900171404262
 30
0.0
 11
-34.297010825055395
 21
16.41140650019473
 31
0.0
  0
ARC
  5
76
330
17
100
AcDbEntity
  8
0
100
AcDbCircle
 10
-34.01022260687987
 20
16.82098252233922
 30
0.0
 40
0.5
100
AcDbArc
 50
235.0
 51
325.0
  0
LINE
  5
77
330
17
100
AcDbEntity
  8
0
100
AcDbLine
 10
-33.60064658280157
 20
16.534194302809635
 30
0.0
 11
-26.144152911592037
 21
27.18317087663272
 31
0.0
  0
ARC
  5
78
330
17
100
AcDbEntity
  8
0
100
AcDbCircle
 10
-26.553728933736533
 20
27.469959094808242
 30
0.0
 40
0.5
100
AcDbArc
 50
-35.00000000000001
 51
54.99999999999999
  0
LINE
  5
79
330
17
100
AcDbEntity
  8
0
100
AcDbLine
 10
-26.266940714206942
 20
27.879535118886547
 30
0.0
 11
-36.915917289963836
 21
35.33602879145015
 31
0.0
  0
ARC
  5
7A
330
17
100
AcDbEntity
  8
0
100
AcDbCircle
 10
-37.20270550949342
 20
34.926452767371856
 30
0.0
 40
0.5
100
AcDbArc
 50
54.99999999999999
 51
145.0
  0
LINE
  5
7B
330
17
100
AcDbEntity
  8
0
100
AcDbLine
 10
-37.61228153163791
 20
35.21324098554738
 30
0.0
 11
-45.06877520284801
 21
24.56426441172349
 31
0.0
  0
ARC
  5
7C
330
17
100
AcDbEntity
  8
0
100
AcDbCircle
 10
-78.62198454806314
 20
37.62378875884733
 30
0.0
 40
0.5
100
AcDbArc
 50
165.0
 51
255.00000000000003
  0
LINE
  5
7D
330
17
100
AcDbEntity
  8
0
100
AcDbLine
 10
-78.75139407061415
 20
37.14082584570373
 30
0.0
 11
-66.19435833113657
 21
33.77617825998197
 31
0.0
  0
ARC
  5
7E
330
17
100
AcDbEntity
  8
0
100
AcDbCircle
 10
-66.06494880858531
 20
34.2591411731265
 30
0.0
 40
0.5
100
AcDbArc
 50
255.00000000000003
 51
345.0
  0
LINE
  5
7F
330
17
100
AcDbEntity
  8
0
100
AcDbLine
 10
-65.58198589316048
 20
34.129731649964235
 30
0.0
 11
-62.21733830743871
 21
46.68676738944182
 31
0.0
  0
ARC
  5
80
330
17
100
AcDbEntity
  8
0
100
AcDbCircle
 10
-62.70030122058324
 20
46.81617691199308
 30
0.0
 40
0.5
100
AcDbArc
 50
-15.000000000000009
 51
74.99999999999999
  0
LINE
  5
81
330
17
100
AcDbEntity
  8
0
100
AcDbLine
 10
-62.570891697420976
 20
47.29913982741792
 30
0.0
 11
-75.12792743917886
 21
50.66378741375068
 31
0.0
  0
ARC
  5
82
330
17
100
AcDbEntity
  8
0
100
AcDbCircle
 10
-75.25733696234113
 20
50.18082449832586
 30
0.0
 40
0.5
100
AcDbArc
 50
74.99999999999999
 51
165.0
  0
LINE
  5
83
330
17
100
AcDbEntity
  8
0
100
AcDbLine
 10
-75.74029987548566
 20
50.310234020877125
 30
0.0
 11
-79.10494746120767
 21
37.753198281398596
 31
0.0
  0
ARC
  5
84
330
17
100
AcDbEntity
  8
0
100
AcDbCircle
 10
-61.056766339714684
 20
32.4363118269017
 30
0.0
 40
0.5
100
AcDbArc
 50
155.0
 51
244.99999999999997
  0
LINE
  5
85
330
17
100
AcDbEntity
  8
0
100
AcDbLine
 10
-61.26807547058463
 20
31.983157933384256
 30
0.0
 11
-49.486074241247735
 21
26.489120531752853
 31
0.0
  0
ARC
  5
86
330
17
100
AcDbEntity
  8
0
100
AcDbCircle
 10
-49.27476511037739
 20
26.94227442527118
 30
0.0
 40
0.5
100
AcDbArc
 50
244.99999999999997
 51
335.0
  0
LINE
  5
87
330
17
100
AcDbEntity
  8
0
100
AcDbLine
 10
-48.8216112147195
 20
26.730965293403138
 30
0.0
 11
-43.32757381308811
 21
38.51296652274002
 31
0.0
  0
ARC
  5
88
330
17
100
AcDbEntity
  8
0
100
AcDbCircle
 10
-43.78072770660643
 20
38.72427565361038
 30
0.0
 40
0.5
100
AcDbArc
 50
-25.000000000000007
 51
64.99999999999999
  0
LINE
  5
89
330
17
100
AcDbEntity
  8
0
100
AcDbLine
 10
-43.569418574738386
 20
39.17742954926826
 30
0.0
 11
-55.351419806214835
 21
44.67146695189736
 31
0.0
  0
ARC
  5
8A
330
17
100
AcDbEntity
  8
0
100
AcDbCircle
 10
-55.56272893808287
 20
44.21831305623948
 30
0.0
 40
0.5
100
AcDbArc
 50
64.99999999999999
 51
155.0
  0
LINE
  5
8B
330
17
100
AcDbEntity
  8
0
100
AcDbLine
 10
-56.015882831601196
 20
44.42962218710983
 30
0.0
 11
-61.50992023323301
 21
32.647620957772055
 31
0.0
  0
ARC
  5
8C
330
17
100
AcDbEntity
  8
0
100
AcDbCircle
 10
-56.835395908117064
 20
49.38578499391612
 30
0.0
 40
0.5
100
AcDbArc
 50
165.0
 51
255.00000000000003
  0
LINE
  5
8D
330
17
100
AcDbEntity
  8
0
100
AcDbLine
 10
-56.96480543066807
 20
48.902822080772516
 30
0.0
 11
-44.40776969119049
 21
45.538174495050754
 31
0.0
  0
ARC
  5
8E
330
17
100
AcDbEntity
  8
0
100
AcDbCircle
 10
-44.278360168639225
 20
46.02113740819529
 30
0.0
 40
0.5
100
AcDbArc
 50
255.00000000000003
 51
345.0
  0
LINE
  5
8F
330
17
100
AcDbEntity
  8
0
100
AcDbLine
 10
-43.79539725321439
 20
45.89172788503302
 30
0.0
 11
-40.43074966749263
 21
58.448763624510605
 31
0.0
  0
ARC
  5
90
330
17
100
AcDbEntity
  8
0
100
AcDbCircle
 10
-40.91371258063716
 20
58.57817314706186
 30
0.0
 40
0.5
100
AcDbArc
 50
-15.000000000000009
 51
74.99999999999999
  0
LINE
  5
91
330
17
100
AcDbEntity
  8
0
100
AcDbLine
 10
-40.784303057474894
 20
59.0611360624867
 30
0.0
 11
-53.34133879923278
 21
62.425783648819476
 31
0.0
  0
ARC
  5
92
330
17
100
AcDbEntity
  8
0
100
AcDbCircle
 10
-53.47074832239504
 20
61.94282073339465
 30
0.0
 40
0.5
100
AcDbArc
 50
74.99999999999999
 51
165.0
  0
LINE
  5
93
330
17
100
AcDbEntity
  8
0
100
AcDbLine
 10
-53.95371123553957
 20
62.07223025594591
 30
0.0
 11
-57.3183588212616
 21
49.51519451646738
 31
0.0
  0
ARC
  5
94
330
17
100
AcDbEntity
  8
0
100
AcDbCircle
 10
-34.908399762735726
 20
38.20306094646082
 30
0.0
 40
0.5
100
AcDbArc
 50
145.0
 51
235.0
  0
LINE
  5
95
330
17
100
AcDbEntity
  8
0
100
AcDbLine
 10
-35.1951879809107
 20
37.79348492431712
 30
0.0
 11
-24.54621140708761
 21
30.336991253107584
 31
0.0
  0
ARC
  5
96
330
17
100
AcDbEntity
  8
0
100
AcDbCircle
 10
-24.259423188912088
 20
30.746567275252076
 30
0.0
 40
0.5
100
AcDbArc
 50
235.0
 51
325.0
  0
LINE
  5
97
330
17
100
AcDbEntity
  8
0
100
AcDbLine
 10
-23.849847164833786
 20
30.45977905572249
 30
0.0
 11
-16.393353493624254
 21
41.10875562954558
 31
0.0
  0
ARC
  5
98
330
17
100
AcDbEntity
  8
0
100
AcDbCircle
 10
-16.80292951576875
 20
41.3955438477211
 30
0.0
 40
0.5
100
AcDbArc
 50
-35.00000000000001
 51
54.99999999999999
  0
LINE
  5
99
330
17
100
AcDbEntity
  8
0
100
AcDbLine
 10
-16.51614129623916
 20
41.8051198717994
 30
0.0
 11
-27.165117871996053
 21
49.261613544363
 31
0.0
  0
ARC
  5
9A
330
17
100
AcDbEntity
  8
0
100
AcDbCircle
 10
-27.451906091525633
 20
48.85203752028471
 30
0.0
 40
0.5
100
AcDbArc
 50
54.99999999999999
 51
145.0
  0
LINE
  5
9B
330
17
100
AcDbEntity
  8
0
100
AcDbLine
 10
-27.861482113670128
 20
49.138825738460234
 30
0.0
 11
-35.317975784880225
 21
38.48984916463635
 31
0.0
  0
ARC
  5
9C
330
17
100
AcDbEntity
  8
0
100
AcDbCircle
 10
-134.96522638117193
 20
51.09264900169751
 30
0.0
 40
0.5
100
AcDbArc
 50
180.0
 51
270.0
  0
LINE
  5
9D
330
17
100
AcDbEntity
  8
0
100
AcDbLine
 10
-134.96522638117193
 20
50.592649001698476
 30
0.0
 11
-121.96522638353267
 21
50.592649001698476
 31
0.0
  0
ARC
  5
9E
330
17
100
AcDbEntity
  8
0
100
AcDbCircle
 10
-121.96522638353267
 20
51.092649001698476
 30
0.0
 40
0.5
100
AcDbArc
 50
270.0
 51
360.0
  0
LINE
  5
9F
330
17
100
AcDbEntity
  8
0
100
AcDbLine
 10
-121.46522638117193
 20
51.092649001698476
 30
0.0
 11
-121.46522638117193
 21
64.09264899933773
 31
0.0
  0
ARC
  5
A0
330
17
100
AcDbEntity
  8
0
100
AcDbCircle
 10
-121.96522638117193
 20
64.09264899933773
 30
0.0
 40
0.5
100
AcDbArc
 50
-7.951386703658793e-15
 51
89.99999999999999
  0
LINE
  5
A1
330
17
100
AcDbEntity
  8
0
100
AcDbLine
 10
-121.96522638117193
 20
64.59264900169848
 30
0.0
 11
-134.96522638117193
 21
64.59264900169848
 31
0.0
  0
ARC
  5
A2
330
17
100
AcDbEntity
  8
0
100
AcDbCircle
 10
-134.96522638117193
 20
64.09264899933774
 30
0.0
 40
0.5
100
AcDbArc
 50
89.99999999999999
 51
180.0
  0
LINE
  5
A3
330
17
100
AcDbEntity
  8
0
100
AcDbLine
 10
-135.46522638117193
 20
64.09264899933774
 30
0.0
 11
-135.46522638117193
 21
51.09264900169751
 31
0.0
  0
ARC
  5
A4
330
17
100
AcDbEntity
  8
0
100
AcDbCircle
 10
-112.47425048753587
 20
62.83749385548173
 30
0.0
 40
0.5
100
AcDbArc
 50
169.99999999999997
 51
260.0
  0
LINE
  5
A5
330
17
100
AcDbEntity
  8
0
100
AcDbLine
 10
-112.56107457636917
 20
62.34508997897658
 30
0.0
 11
-99.75857378953533
 21
60.08766366971642
 31
0.0
  0
ARC
  5
A6
330
17
100
AcDbEntity
  8
0
100
AcDbCircle
 10
-99.67174970070187
 20
60.58006754622252
 30
0.0
 40
0.5
100
AcDbArc
 50
260.0
 51
350.0
  0
LINE
  5
A7
330
17
100
AcDbEntity
  8
0
100
AcDbLine
 10
-99.17934582187088
 20
60.49324345697912
 30
0.0
 11
-96.92191951261073
 21
73.29574424381295
 31
0.0
  0
ARC
  5
A8
330
17
100
AcDbEntity
  8
0
100
AcDbCircle
 10
-97.41432338911683
 20
73.38256833264641
 30
0.0
 40
0.5
100
AcDbArc
 50
-10.000000000000009
 51
79.99999999999999
  0
LINE
  5
A9
330
17
100
AcDbEntity
  8
0
100
AcDbLine
 10
-97.32749929987342
 20
73.8749722114774
 30
0.0
 11
-110.13000008903214
 21
76.1323985211475
 31
0.0
  0
ARC
  5
AA
330
17
100
AcDbEntity
  8
0
100
AcDbCircle
 10
-110.21682417827553
 20
75.63999464231652
 30
0.0
 40
0.5
100
AcDbArc
 50
79.99999999999999
 51
169.99999999999997
  0
LINE
  5
AB
330
17
100
AcDbEntity
  8
0
100
AcDbLine
 10
-110.70922805478163
 20
75.72681873114999
 30
0.0
 11
-112.96665436404197
 21
62.9243179443152
 31
0.0
  0
ARC
  5
AC
330
17
100
AcDbEntity
  8
0
100
AcDbCircle
 10
-134.96522638117193
 20
68.09264900169751
 30
0.0
 40
0.5
100
AcDbArc
 50
180.0
 51
270.0
  0
LINE
  5
AD
330
17
100
AcDbEntity
  8
0
100
AcDbLine
 10
-134.96522638117193
 20
67.59264900169848
 30
0.0
 11
-121.96522638353267
 21
67.59264900169848
 31
0.0
  0
ARC
  5
AE
330
17
100
AcDbEntity
  8
0
100
AcDbCircle
 10
-121.96522638353267
 20
68.09264900169848
 30
0.0
 40
0.5
100
AcDbArc
 50
270.0
 51
360.0
  0
LINE
  5
AF
330
17
100
AcDbEntity
  8
0
100
AcDbLine
 10
-121.46522638117193
 20
68.09264900169848
 30
0.0
 11
-121.46522638117193
 21
81.09264899933773
 31
0.0
  0
ARC
  5
B0
330
17
100
AcDbEntity
  8
0
100
AcDbCircle
 10
-121.96522638117193
 20
81.09264899933773
 30
0.0
 40
0.5
100
AcDbArc
 50
-7.951386703658793e-15
 51
89.99999999999999
  0
LINE
  5
B1
330
17
100
AcDbEntity
  8
0
100
AcDbLine
 10
-121.96522638117193
 20
81.59264900169848
 30
0.0
 11
-134.96522638117193
 21
81.59264900169848
 31
0.0
  0
ARC
  5
B2
330
17
100
AcDbEntity
  8
0
100
AcDbCircle
 10
-134.96522638117193
 20
81.09264899933774
 30
0.0
 40
0.5
100
AcDbArc
 50
89.99999999999999
 51
180.0
  0
LINE
  5
B3
330
17
100
AcDbEntity
  8
0
100
AcDbLine
 10
-135.46522638117193
 20
81.09264899933774
 30
0.0
 11
-135.46522638117193
 21
68.09264900169751
 31
0.0
  0
ARC
  5
B4
330
17
100
AcDbEntity
  8
0
100
AcDbCircle
 10
-90.50874471283778
 20
62.80845537933541
 30
0.0
 40
0.5
100
AcDbArc
 50
165.0
 51
255.00000000000003
  0
LINE
  5
B5
330
17
100
AcDbEntity
  8
0
100
AcDbLine
 10
-90.6381542353888
 20
62.32549246619181
 30
0.0
 11
-78.08111849591121
 21
58.96084488047005
 31
0.0
  0
ARC
  5
B6
330
17
100
AcDbEntity
  8
0
100
AcDbCircle
 10
-77.95170897335996
 20
59.44380779361458
 30
0.0
 40
0.5
100
AcDbArc
 50
255.00000000000003
 51
345.0
  0
LINE
  5
B7
330
17
100
AcDbEntity
  8
0
100
AcDbLine
 10
-77.46874605793512
 20
59.314398270452315
 30
0.0
 11
-74.10409847221335
 21
71.8714340099299
 31
0.0
  0
ARC
  5
B8
330
17
100
AcDbEntity
  8
0
100
AcDbCircle
 10
-74.58706138535788
 20
72.00084353248116
 30
0.0
 40
0.5
100
AcDbArc
 50
-15.000000000000009
 51
74.99999999999999
  0
LINE
  5
B9
330
17
100
AcDbEntity
  8
0
100
AcDbLine
 10
-74.45765186219562
 20
72.48380644790599
 30
0.0
 11
-87.0146876039535
 21
75.84845403423877
 31
0.0
  0
ARC
  5
BA
330
17
100
AcDbEntity
  8
0
100
AcDbCircle
 10
-87.14409712711577
 20
75.36549111881395
 30
0.0
 40
0.5
100
AcDbArc
 50
74.99999999999999
 51
165.0
  0
LINE
  5
BB
330
17
100
AcDbEntity
  8
0
100
AcDbLine
 10
-87.6270600402603
 20
75.4949006413652
 30
0.0
 11
-90.99170762598231
 21
62.93786490188668
 31
0.0
  0
ARC
  5
BC
330
17
100
AcDbEntity
  8
0
100
AcDbCircle
 10
-134.96522638117193
 20
85.09264900169751
 30
0.0
 40
0.5
100
AcDbArc
 50
180.0
 51
270.0
  0
LINE
  5
BD
330
17
100
AcDbEntity
  8
0
100
AcDbLine
 10
-134.96522638117193
 20
84.59264900169848
 30
0.0
 11
-121.96522638353267
 21
84.59264900169848
 31
0.0
  0
ARC
  5
BE
330
17
100
AcDbEntity
  8
0
100
AcDbCircle
 10
-121.96522638353267
 20
85.09264900169848
 30
0.0
 40
0.5
100
AcDbArc
 50
270.0
 51
360.0
  0
LINE
  5
BF
330
17
100
AcDbEntity
  8
0
100
AcDbLine
 10
-121.46522638117193
 20
85.09264900169848
 30
0.0
 11
-121.46522638117193
 21
98.09264899933773
 31
0.0
  0
ARC
  5
C0
330
17
100
AcDbEntity
  8
0
100
AcDbCircle
 10
-121.96522638117193
 20
98.09264899933773
 30
0.0
 40
0.5
100
AcDbArc
 50
-7.951386703658793e-15
 51
89.99999999999999
  0
LINE
  5
C1
330
17
100
AcDbEntity
  8
0
100
AcDbLine
 10
-121.96522638117193
 20
98.59264900169848
 30
0.0
 11
-134.96522638117193
 21
98.59264900169848
 31
0.0
  0
ARC
  5
C2
330
17
100
AcDbEntity
  8
0
100
AcDbCircle
 10
-134.96522638117193
 20
98.09264899933774
 30
0.0
 40
0.5
100
AcDbArc
 50
89.99999999999999
 51
180.0
  0
LINE
  5
C3
330
17
100
AcDbEntity
  8
0
100
AcDbLine
 10
-135.46522638117193
 20
98.09264899933774
 30
0.0
 11
-135.46522638117193
 21
85.09264900169751
 31
0.0
  0
ARC
  5
C4
330
17
100
AcDbEntity
  8
0
100
AcDbCircle
 10
-109.52223146719805
 20
79.57922565668926
 30
0.0
 40
0.5
100
AcDbArc
 50
169.99999999999997
 51
260.0
  0
LINE
  5
C5
330
17
100
AcDbEntity
  8
0
100
AcDbLine
 10
-109.60905555603135
 20
79.08682178018411
 30
0.0
 11
-96.80655476919752
 21
76.82939547092396
 31
0.0
  0
ARC
  5
C6
330
17
100
AcDbEntity
  8
0
100
AcDbCircle
 10
-96.71973068036405
 20
77.32179934743006
 30
0.0
 40
0.5
100
AcDbArc
 50
260.0
 51
350.0
  0
LINE
  5
C7
330
17
100
AcDbEntity
  8
0
100
AcDbLine
 10
-96.22732680153307
 20
77.23497525818665
 30
0.0
 11
-93.96990049227291
 21
90.03747604502048
 31
0.0
  0
ARC
  5
C8
330
17
100
AcDbEntity
  8
0
100
AcDbCircle
 10
-94.46230436877902
 20
90.12430013385395
 30
0.0
 40
0.5
100
AcDbArc
 50
-10.000000000000009
 51
79.99999999999999
  0
LINE
  5
C9
330
17
100
AcDbEntity
  8
0
100
AcDbLine
 10
-94.37548027953561
 20
90.61670401268493
 30
0.0
 11
-107.17798106869432
 21
92.87413032235503
 31
0.0
  0
ARC
  5
CA
330
17
100
AcDbEntity
  8
0
100
AcDbCircle
 10
-107.26480515793772
 20
92.38172644352406
 30
0.0
 40
0.5
100
AcDbArc
 50
79.99999999999999
 51
169.99999999999997
  0
LINE
  5
CB
330
17
100
AcDbEntity
  8
0
100
AcDbLine
 10
-107.75720903444382
 20
92.46855053235753
 30
0.0
 11
-110.01463534370416
 21
79.66604974552273
 31
0.0
  0
ARC
  5
CC
330
17
100
AcDbEntity
  8
0
100
AcDbCircle
 10
-86.10882094609494
 20
79.22919442624956
 30
0.0
 40
0.5
100
AcDbArc
 50
165.0
 51
255.00000000000003
  0
LINE
  5
CD
330
17
100
AcDbEntity
  8
0
100
AcDbLine
 10
-86.23823046864595
 20
78.74623151310597
 30
0.0
 11
-73.68119472916837
 21
75.3815839273842
 31
0.0
  0
ARC
  5
CE
330
17
100
AcDbEntity
  8
0
100
AcDbCircle
 10
-73.55178520661711
 20
75.86454684052873
 30
0.0
 40
0.5
100
AcDbArc
 50
255.00000000000003
 51
345.0
  0
LINE
  5
CF
330
17
100
AcDbEntity
  8
0
100
AcDbLine
 10
-73.06882229119228
 20
75.73513731736647
 30
0.0
 11
-69.7041747054705
 21
88.29217305684405
 31
0.0
  0
ARC
  5
D0
330
17
100
AcDbEntity
  8
0
100
AcDbCircle
 10
-70.18713761861504
 20
88.4215825793953
 30
0.0
 40
0.5
100
AcDbArc
 50
-15.000000000000009
 51
74.99999999999999
  0
LINE
  5
D1
330
17
100
AcDbEntity
  8
0
100
AcDbLine
 10
-70.05772809545277
 20
88.90454549482014
 30
0.0
 11
-82.61476383721066
 21
92.26919308115292
 31
0.0
  0
ARC
  5
D2
330
17
100
AcDbEntity
  8
0
100
AcDbCircle
 10
-82.74417336037293
 20
91.7862301657281
 30
0.0
 40
0.5
100
AcDbArc
 50
74.99999999999999
 51
165.0
  0
LINE
  5
D3
330
17
100
AcDbEntity
  8
0
100
AcDbLine
 10
-83.22713627351746
 20
91.91563968827936
 30
0.0
 11
-86.59178385923947
 21
79.35860394880082
 31
0.0
  0
ARC
  5
D4
330
17
100
AcDbEntity
  8
0
100
AcDbCircle
 10
-106.57021244686024
 20
96.3209574578968
 30
0.0
 40
0.5
100
AcDbArc
 50
169.99999999999997
 51
260.0
  0
LINE
  5
D5
330
17
100
AcDbEntity
  8
0
100
AcDbLine
 10
-106.65703653569354
 20
95.82855358139165
 30
0.0
 11
-93.8545357488597
 21
93.57112727213149
 31
0.0
  0
ARC
  5
D6
330
17
100
AcDbEntity
  8
0
100
AcDbCircle
 10
-93.76771166002624
 20
94.0635311486376
 30
0.0
 40
0.5
100
AcDbArc
 50
260.0
 51
350.0
  0
LINE
  5
D7
330
17
100
AcDbEntity
  8
0
100
AcDbLine
 10
-93.27530778119525
 20
93.97670705939419
 30
0.0
 11
-91.0178814719351
 21
106.77920784622802
 31
0.0
  0
ARC
  5
D8
330
17
100
AcDbEntity
  8
0
100
AcDbCircle
 10
-91.5102853484412
 20
106.86603193506149
 30
0.0
 40
0.5
100
AcDbArc
 50
-10.000000000000009
 51
79.99999999999999
  0
LINE
  5
D9
330
17
100
AcDbEntity
  8
0
100
AcDbLine
 10
-91.4234612591978
 20
107.35843581389247
 30
0.0
 11
-104.22596204835651
 21
109.61586212356256
 31
0.0
  0
ARC
  5
DA
330
17
100
AcDbEntity
  8
0
100
AcDbCircle
 10
-104.3127861375999
 20
109.1234582447316
 30
0.0
 40
0.5
100
AcDbArc
 50
79.99999999999999
 51
169.99999999999997
  0
LINE
  5
DB
330
17
100
AcDbEntity
  8
0
100
AcDbLine
 10
-104.805190014106
 20
109.21028233356506
 30
0.0
 11
-107.06261632336634
 21
96.40778154673026
 31
0.0
  0
ARC
  5
DC
330
17
100
AcDbEntity
  8
0
100
AcDbCircle
 10
-81.70889717935208
 20
95.64993347316371
 30
0.0
 40
0.5
100
AcDbArc
 50
165.0
 51
255.00000000000003
  0
LINE
  5
DD
330
17
100
AcDbEntity
  8
0
100
AcDbLine
 10
-81.8383067019031
 20
95.16697056002012
 30
0.0
 11
-69.28127096242551
 21
91.80232297429835
 31
0.0
  0
ARC
  5
DE
330
17
100
AcDbEntity
  8
0
100
AcDbCircle
 10
-69.15186143987425
 20
92.28528588744288
 30
0.0
 40
0.5
100
AcDbArc
 50
255.00000000000003
 51
345.0
  0
LINE
  5
DF
330
17
100
AcDbEntity
  8
0
100
AcDbLine
 10
-68.66889852444942
 20
92.15587636428062
 30
0.0
 11
-65.30425093872765
 21
104.7129121037582
 31
0.0
  0
ARC
  5
E0
330
17
100
AcDbEntity
  8
0
100
AcDbCircle
 10
-65.78721385187218
 20
104.84232162630946
 30
0.0
 40
0.5
100
AcDbArc
 50
-15.000000000000009
 51
74.99999999999999
  0
LINE
  5
E1
330
17
100
AcDbEntity
  8
0
100
AcDbLine
 10
-65.65780432870991
 20
105.32528454173429
 30
0.0
 11
-78.2148400704678
 21
108.68993212806707
 31
0.0
  0
ARC
  5
E2
330
17
100
AcDbEntity
  8
0
100
AcDbCircle
 10
-78.34424959363007
 20
108.20696921264225
 30
0.0
 40
0.5
100
AcDbArc
 50
74.99999999999999
 51
165.0
  0
LINE
  5
E3
330
17
100
AcDbEntity
  8
0
100
AcDbLine
 10
-78.8272125067746
 20
108.3363787351935
 30
0.0
 11
-82.19186009249661
 21
95.77934299571497
 31
0.0
  0
ARC
  5
E4
330
17
100
AcDbEntity
  8
0
100
AcDbCircle
 10
-74.22206078132028
 20
54.04452780576149
 30
0.0
 40
0.5
100
AcDbArc
 50
165.0
 51
255.00000000000003
  0
LINE
  5
E5
330
17
100
AcDbEntity
  8
0
100
AcDbLine
 10
-74.3514703038713
 20
53.56156489261789
 30
0.0
 11
-61.79443456439371
 21
50.196917306896125
 31
0.0
  0
ARC
  5
E6
330
17
100
AcDbEntity
  8
0
100
AcDbCircle
 10
-61.66502504184245
 20
50.67988022004066
 30
0.0
 40
0.5
100
AcDbArc
 50
255.00000000000003
 51
345.0
  0
LINE
  5
E7
330
17
100
AcDbEntity
  8
0
100
AcDbLine
 10
-61.18206212641761
 20
50.55047069687839
 30
0.0
 11
-57.81741454069585
 21
63.107506436355976
 31
0.0
  0
ARC
  5
E8
330
17
100
AcDbEntity
  8
0
100
AcDbCircle
 10
-58.30037745384038
 20
63.23691595890723
 30
0.0
 40
0.5
100
AcDbArc
 50
-15.000000000000009
 51
74.99999999999999
  0
LINE
  5
E9
330
17
100
AcDbEntity
  8
0
100
AcDbLine
 10
-58.17096793067812
 20
63.719878874332075
 30
0.0
 11
-70.728003672436
 21
67.08452646066485
 31
0.0
  0
ARC
  5
EA
330
17
100
AcDbEntity
  8
0
100
AcDbCircle
 10
-70.85741319559827
 20
66.60156354524003
 30
0.0
 40
0.5
100
AcDbArc
 50
74.99999999999999
 51
165.0
  0
LINE
  5
EB
330
17
100
AcDbEntity
  8
0
100
AcDbLine
 10
-71.3403761087428
 20
66.73097306779128
 30
0.0
 11
-74.70502369446481
 21
54.17393732831275
 31
0.0
  0
ARC
  5
EC
330
17
100
AcDbEntity
  8
0
100
AcDbCircle
 10
-69.82213701457744
 20
70.46526685267565
 30
0.0
 40
0.5
100
AcDbArc
 50
165.0
 51
255.00000000000003
  0
LINE
  5
ED
330
17
100
AcDbEntity
  8
0
100
AcDbLine
 10
-69.95154653712845
 20
69.98230393953206
 30
0.0
 11
-57.39451079765086
 21
66.61765635381029
 31
0.0
  0
ARC
  5
EE
330
17
100
AcDbEntity
  8
0
100
AcDbCircle
 10
-57.265101275099596
 20
67.10061926695482
 30
0.0
 40
0.5
100
AcDbArc
 50
255.00000000000003
 51
345.0
  0
LINE
  5
EF
330
17
100
AcDbEntity
  8
0
100
AcDbLine
 10
-56.78213835967476
 20
66.97120974379256
 30
0.0
 11
-53.417490773953
 21
79.52824548327014
 31
0.0
  0
ARC
  5
F0
330
17
100
AcDbEntity
  8
0
100
AcDbCircle
 10
-53.90045368709753
 20
79.6576550058214
 30
0.0
 40
0.5
100
AcDbArc
 50
-15.000000000000009
 51
74.99999999999999
  0
LINE
  5
F1
330
17
100
AcDbEntity
  8
0
100
AcDbLine
 10
-53.771044163935265
 20
80.14061792124623
 30
0.0
 11
-66.32807990569314
 21
83.50526550757901
 31
0.0
  0
ARC
  5
F2
330
17
100
AcDbEntity
  8
0
100
AcDbCircle
 10
-66.45748942885541
 20
83.02230259215419
 30
0.0
 40
0.5
100
AcDbArc
 50
74.99999999999999
 51
165.0
  0
LINE
  5
F3
330
17
100
AcDbEntity
  8
0
100
AcDbLine
 10
-66.94045234199994
 20
83.15171211470545
 30
0.0
 11
-70.30509992772197
 21
70.59467637522691
 31
0.0
  0
ARC
  5
F4
330
17
100
AcDbEntity
  8
0
100
AcDbCircle
 10
-52.435472141374206
 20
65.80652404083027
 30
0.0
 40
0.5
100
AcDbArc
 50
165.0
 51
255.00000000000003
  0
LINE
  5
F5
330
17
100
AcDbEntity
  8
0
100
AcDbLine
 10
-52.56488166392522
 20
65.32356112768667
 30
0.0
 11
-40.007845924447636
 21
61.958913541964904
 31
0.0
  0
ARC
  5
F6
330
17
100
AcDbEntity
  8
0
100
AcDbCircle
 10
-39.87843640189637
 20
62.44187645510944
 30
0.0
 40
0.5
100
AcDbArc
 50
255.00000000000003
 51
345.0
  0
LINE
  5
F7
330
17
100
AcDbEntity
  8
0
100
AcDbLine
 10
-39.39547348647154
 20
62.31246693194717
 30
0.0
 11
-36.030825900749775
 21
74.86950267142475
 31
0.0
  0
ARC
  5
F8
330
17
100
AcDbEntity
  8
0
100
AcDbCircle
 10
-36.51378881389431
 20
74.99891219397601
 30
0.0
 40
0.5
100
AcDbArc
 50
-15.000000000000009
 51
74.99999999999999
  0
LINE
  5
F9
330
17
100
AcDbEntity
  8
0
100
AcDbLine
 10
-36.38437929073204
 20
75.48187510940085
 30
0.0
 11
-48.94141503248993
 21
78.84652269573363
 31
0.0
  0
ARC
  5
FA
330
17
100
AcDbEntity
  8
0
100
AcDbCircle
 10
-49.07082455565219
 20
78.3635597803088
 30
0.0
 40
0.5
100
AcDbArc
 50
74.99999999999999
 51
165.0
  0
LINE
  5
FB
330
17
100
AcDbEntity
  8
0
100
AcDbLine
 10
-49.55378746879673
 20
78.49296930286006
 30
0.0
 11
-52.918435054518746
 21
65.93593356338152
 31
0.0
  0
ARC
  5
FC
330
17
100
AcDbEntity
  8
0
100
AcDbCircle
 10
-65.42221324783458
 20
86.8860058995898
 30
0.0
 40
0.5
100
AcDbArc
 50
165.0
 51
255.00000000000003
  0
LINE
  5
FD
330
17
100
AcDbEntity
  8
0
100
AcDbLine
 10
-65.55162277038559
 20
86.40304298644621
 30
0.0
 11
-52.99458703090801
 21
83.03839540072444
 31
0.0
  0
ARC
  5
FE
330
17
100
AcDbEntity
  8
0
100
AcDbCircle
 10
-52.865177508356744
 20
83.52135831386897
 30
0.0
 40
0.5
100
AcDbArc
 50
255.00000000000003
 51
345.0
  0
LINE
  5
FF
330
17
100
AcDbEntity
  8
0
100
AcDbLine
 10
-52.38221459293191
 20
83.3919487907067
 30
0.0
 11
-49.01756700721015
 21
95.94898453018429
 31
0.0
  0
ARC
  5
100
330
17
100
AcDbEntity
  8
0
100
AcDbCircle
 10
-49.50052992035468
 20
96.07839405273555
 30
0.0
 40
0.5
100
AcDbArc
 50
-15.000000000000009
 51
74.99999999999999
  0
LINE
  5
101
330
17
100
AcDbEntity
  8
0
100
AcDbLine
 10
-49.37112039719241
 20
96.56135696816038
 30
0.0
 11
-61.9281561389503
 21
99.92600455449316
 31
0.0
  0
ARC
  5
102
330
17
100
AcDbEntity
  8
0
100
AcDbCircle
 10
-62.05756566211256
 20
99.44304163906834
 30
0.0
 40
0.5
100
AcDbArc
 50
74.99999999999999
 51
165.0
  0
LINE
  5
103
330
17
100
AcDbEntity
  8
0
100
AcDbLine
 10
-62.5405285752571
 20
99.5724511616196
 30
0.0
 11
-65.90517616097911
 21
87.01541542214106
 31
0.0
  0
ARC
  5
104
330
17
100
AcDbEntity
  8
0
100
AcDbCircle
 10
-48.03554837463135
 20
82.22726308774443
 30
0.0
 40
0.5
100
AcDbArc
 50
165.0
 51
255.00000000000003
  0
LINE
  5
105
330
17
100
AcDbEntity
  8
0
100
AcDbLine
 10
-48.16495789718236
 20
81.74430017460084
 30
0.0
 11
-35.60792215770478
 21
78.37965258887907
 31
0.0
  0
ARC
  5
106
330
17
100
AcDbEntity
  8
0
100
AcDbCircle
 10
-35.478512635153514
 20
78.8626155020236
 30
0.0
 40
0.5
100
AcDbArc
 50
255.00000000000003
 51
345.0
  0
LINE
  5
107
330
17
100
AcDbEntity
  8
0
100
AcDbLine
 10
-34.99554971972868
 20
78.73320597886133
 30
0.0
 11
-31.630902134006917
 21
91.29024171833892
 31
0.0
  0
ARC
  5
108
330
17
100
AcDbEntity
  8
0
100
AcDbCircle
 10
-32.11386504715145
 20
91.41965124089018
 30
0.0
 40
0.5
100
AcDbArc
 50
-15.000000000000009
 51
74.99999999999999
  0
LINE
  5
109
330
17
100
AcDbEntity
  8
0
100
AcDbLine
 10
-31.984455523989183
 20
91.90261415631501
 30
0.0
 11
-44.54149126574707
 21
95.26726174264779
 31
0.0
  0
ARC
  5
10A
330
17
100
AcDbEntity
  8
0
100
AcDbCircle
 10
-44.67090078890933
 20
94.78429882722297
 30
0.0
 40
0.5
100
AcDbArc
 50
74.99999999999999
 51
165.0
  0
LINE
  5
10B
330
17
100
AcDbEntity
  8
0
100
AcDbLine
 10
-45.15386370205387
 20
94.91370834977423
 30
0.0
 11
-48.51851128777589
 21
82.35667261029569
 31
0.0
  0
ENDSEC
  0
SECTION
  2
OBJECTS
  0
DICTIONARY
  5
A
330
0
100
AcDbDictionary
281
1
  3
ACAD_COLOR
350
B
  3
ACAD_GROUP
350
C
  3
ACAD_LAYOUT
350
D
  3
ACAD_MATERIAL
350
E
  3
ACAD_MLEADERSTYLE
350
F
  3
ACAD_MLINESTYLE
350
10
  3
ACAD_PLOTSETTINGS
350
11
  3
ACAD_PLOTSTYLENAME
350
12
  3
ACAD_SCALELIST
350
14
  3
ACAD_TABLESTYLE
350
15
  3
ACAD_VISUALSTYLE
350
16
  3
EZDXF_META
350
2D
  0
DICTIONARY
  5
B
330
A
100
AcDbDictionary
281
1
  0
DICTIONARY
  5
C
330
A
100
AcDbDictionary
281
1
  0
DICTIONARY
  5
D
330
A
100
AcDbDictionary
281
1
  3
Model
350
1A
  3
Layout1
350
1E
  0
DICTIONARY
  5
E
330
A
100
AcDbDictionary
281
1
  3
ByBlock
350
1F
  3
ByLayer
350
20
  3
Global
350
21
  0
DICTIONARY
  5
F
330
A
100
AcDbDictionary
281
1
  3
Standard
350
2C
  0
DICTIONARY
  5
10
330
A
100
AcDbDictionary
281
1
  3
Standard
350
22
  0
DICTIONARY
  5
11
330
A
100
AcDbDictionary
281
1
  0
ACDBDICTIONARYWDFLT
  5
12
330
A
100
AcDbDictionary
281
1
  3
Normal
350
13
100
AcDbDictionaryWithDefault
340
13
  0
ACDBPLACEHOLDER
  5
13
330
12
  0
DICTIONARY
  5
14
330
A
100
AcDbDictionary
281
1
  0
DICTIONARY
  5
15
330
A
100
AcDbDictionary
281
1
  0
DICTIONARY
  5
16
330
A
100
AcDbDictionary
281
1
  0
LAYOUT
  5
1A
330
D
100
AcDbPlotSettings
  1

  4
A3
  6

 40
7.5
 41
20.0
 42
7.5
 43
20.0
 44
420.0
 45
297.0
 46
0.0
 47
0.0
 48
0.0
 49
0.0
140
0.0
141
0.0
142
1.0
143
1.0
 70
1024
 72
1
 73
0
 74
5
  7

 75
16
 76
0
 77
2
 78
300
147
1.0
148
0.0
149
0.0
100
AcDbLayout
  1
Model
 70
1
 71
0
 10
0.0
 20
0.0
 11
420.0
 21
297.0
 12
0.0
 22
0.0
 32
0.0
 14
1e+20
 24
1e+20
 34
1e+20
 15
-1e+20
 25
-1e+20
 35
-1e+20
146
0.0
 13
0.0
 23
0.0
 33
0.0
 16
1.0
 26
0.0
 36
0.0
 17
0.0
 27
1.0
 37
0.0
 76
1
330
17
  0
LAYOUT
  5
1E
330
D
100
AcDbPlotSettings
  1

  4
A3
  6

 40
7.5
 41
20.0
 42
7.5
 43
20.0
 44
420.0
 45
297.0
 46
0.0
 47
0.0
 48
0.0
 49
0.0
140
0.0
141
0.0
142
1.0
143
1.0
 70
0
 72
1
 73
0
 74
5
  7

 75
16
 76
0
 77
2
 78
300
147
1.0
148
0.0
149
0.0
100
AcDbLayout
  1
Layout1
 70
1
 71
1
 10
0.0
 20
0.0
 11
420.0
 21
297.0
 12
0.0
 22
0.0
 32
0.0
 14
1e+20
 24
1e+20
 34
1e+20
 15
-1e+20
 25
-1e+20
 35
-1e+20
146
0.0
 13
0.0
 23
0.0
 33
0.0
 16
1.0
 26
0.0
 36
0.0
 17
0.0
 27
1.0
 37
0.0
 76
1
330
1B
  0
MATERIAL
  5
1F
102
{ACAD_REACTORS
330
E
102
}
330
E
100
AcDbMaterial
  1
ByBlock
  2

 70
0
 40
1.0
 71
1
 41
1.0
 91
-1023410177
 42
1.0
 72
1
  3

 73
1
 74
1
 75
1
 44
0.5
 73
0
 45
1.0
 46
1.0
 77
1
  4

 78
1
 79
1
170
1
 48
1.0
171
1
  6

172
1
173
1
174
1
140
1.0
141
1.0
175
1
  7

176
1
177
1
178
1
143
1.0
179
1
  8

270
1
271
1
272
1
145
1.0
146
1.0
273
1
  9

274
1
275
1
276
1
 42
1.0
 72
1
  3

 73
1
 74
1
 75
1
 94
63
  0
MATERIAL
  5
20
102
{ACAD_REACTORS
330
E
102
}
330
E
100
AcDbMaterial
  1
ByLayer
  2

 70
0
 40
1.0
 71
1
 41
1.0
 91
-1023410177
 42
1.0
 72
1
  3

 73
1
 74
1
 75
1
 44
0.5
 73
0
 45
1.0
 46
1.0
 77
1
  4

 78
1
 79
1
170
1
 48
1.0
171
1
  6

172
1
173
1
174
1
140
1.0
141
1.0
175
1
  7

176
1
177
1
178
1
143
1.0
179
1
  8

270
1
271
1
272
1
145
1.0
146
1.0
273
1
  9

274
1
275
1
276
1
 42
1.0
 72
1
  3

 73
1
 74
1
 75
1
 94
63
  0
MATERIAL
  5
21
102
{ACAD_REACTORS
330
E
102
}
330
E
100
AcDbMaterial
  1
Global
  2

 70
0
 40
1.0
 71
1
 41
1.0
 91
-1023410177
 42
1.0
 72
1
  3

 73
1
 74
1
 75
1
 44
0.5
 73
0
 45
1.0
 46
1.0
 77
1
  4

 78
1
 79
1
170
1
 48
1.0
171
1
  6

172
1
173
1
174
1
140
1.0
141
1.0
175
1
  7

176
1
177
1
178
1
143
1.0
179
1
  8

270
1
271
1
272
1
145
1.0
146
1.0
273
1
  9

274
1
275
1
276
1
 42
1.0
 72
1
  3

 73
1
 74
1
 75
1
 94
63
  0
MLINESTYLE
  5
22
102
{ACAD_REACTORS
330
10
102
}
330
10
100
AcDbMlineStyle
  2
Standard
 70
0
  3

 62
256
 51
90.0
 52
90.0
 71
2
 49
0.5
 62
256
  6
BYLAYER
 49
-0.5
 62
256
  6
BYLAYER
  0
MLEADERSTYLE
  5
2C
102
{ACAD_REACTORS
330
F
102
}
330
F
100
AcDbMLeaderStyle
179
2
170
2
171
1
172
0
 90
2
 40
0.0
 41
0.0
173
1
 91
-1056964608
 92
-2
290
1
 42
2.0
291
1
 43
8.0
  3
Standard
 44
4.0
300

342
29
174
1
175
1
176
0
178
1
 93
-1056964608
 45
4.0
292
0
297
0
 46
4.0
 94
-1056964608
 47
1.0
 49
1.0
140
1.0
294
1
141
0.0
177
0
142
1.0
295
0
296
0
143
3.75
271
0
272
9
273
9
  0
DICTIONARY
  5
2D
330
A
100
AcDbDictionary
280
1
281
1
  3
CREATED_BY_EZDXF
350
2E
  3
WRITTEN_BY_EZDXF
350
10F
  0
DICTIONARYVAR
  5
2E
330
2D
100
DictionaryVariables
280
0
  1
1.4.4 @ 2026-07-09T21:43:05.948973+00:00
  0
DICTIONARYVAR
  5
10F
330
2D
100
DictionaryVariables
280
0
  1
1.4.4 @ 2026-07-09T21:43:06.019547+00:00
  0
ENDSEC
  0
EOF
