  0
SECTION
  2
HEADER
  9
$ACADVER
  1
AC1027
  9
$ACADMAINTVER
 70
105
  9
$DWGCODEPAGE
  3
ANSI_1252
  9
$LASTSAVEDBY
  1
ezdxf
  9
$REQUIREDVERSIONS
160
0
  9
$INSBASE
 10
0.0
 20
0.0
 30
0.0
  9
$EXTMIN
 10
1e+20
 20
1e+20
 30
1e+20
  9
$EXTMAX
 10
-1e+20
 20
-1e+20
 30
-1e+20
  9
$LIMMIN
 10
0.0
 20
0.0
  9
$LIMMAX
 10
420.0
 20
297.0
  9
$ORTHOMODE
 70
0
  9
$REGENMODE
 70
1
  9
$FILLMODE
 70
1
  9
$QTEXTMODE
 70
0
  9
$MIRRTEXT
 70
1
  9
$LTSCALE
 40
1.0
  9
$ATTMODE
 70
1
  9
$TEXTSIZE
 40
2.5
  9
$TRACEWID
 40
1.0
  9
$TEXTSTYLE
  7
Standard
  9
$CLAYER
  8
0
  9
$CELTYPE
  6
ByLayer
  9
$CECOLOR
 62
256
  9
$CELTSCALE
 40
1.0
  9
$DISPSILH
 70
0
  9
$DIMSCALE
 40
1.0
  9
$DIMASZ
 40
2.5
  9
$DIMEXO
 40
0.625
  9
$DIMDLI
 40
3.75
  9
$DIMRND
 40
0.0
  9
$DIMDLE
 40
0.0
  9
$DIMEXE
 40
1.25
  9
$DIMTP
 40
0.0
  9
$DIMTM
 40
0.0
  9
$DIMTXT
 40
2.5
  9
$DIMCEN
 40
2.5
  9
$DIMTSZ
 40
0.0
  9
$DIMTOL
 70
0
  9
$DIMLIM
 70
0
  9
$DIMTIH
 70
0
  9
$DIMTOH
 70
0
  9
$DIMSE1
 70
0
  9
$DIMSE2
 70
0
  9
$DIMTAD
 70
1
  9
$DIMZIN
 70
8
  9
$DIMBLK
  1

  9
$DIMASO
 70
1
  9
$DIMSHO
 70
1
  9
$DIMPOST
  1

  9
$DIMAPOST
  1

  9
$DIMALT
 70
0
  9
$DIMALTD
 70
3
  9
$DIMALTF
 40
0.03937007874
  9
$DIMLFAC
 40
1.0
  9
$DIMTOFL
 70
1
  9
$DIMTVP
 40
0.0
  9
$DIMTIX
 70
0
  9
$DIMSOXD
 70
0
  9
$DIMSAH
 70
0
  9
$DIMBLK1
  1

  9
$DIMBLK2
  1

  9
$DIMSTYLE
  2
ISO-25
  9
$DIMCLRD
 70
0
  9
$DIMCLRE
 70
0
  9
$DIMCLRT
 70
0
  9
$DIMTFAC
 40
1.0
  9
$DIMGAP
 40
0.625
  9
$DIMJUST
 70
0
  9
$DIMSD1
 70
0
  9
$DIMSD2
 70
0
  9
$DIMTOLJ
 70
0
  9
$DIMTZIN
 70
8
  9
$DIMALTZ
 70
0
  9
$DIMALTTZ
 70
0
  9
$DIMUPT
 70
0
  9
$DIMDEC
 70
2
  9
$DIMTDEC
 70
2
  9
$DIMALTU
 70
2
  9
$DIMALTTD
 70
3
  9
$DIMTXSTY
  7
Standard
  9
$DIMAUNIT
 70
0
  9
$DIMADEC
 70
0
  9
$DIMALTRND
 40
0.0
  9
$DIMAZIN
 70
0
  9
$DIMDSEP
 70
44
  9
$DIMATFIT
 70
3
  9
$DIMFRAC
 70
0
  9
$DIMLDRBLK
  1

  9
$DIMLUNIT
 70
2
  9
$DIMLWD
 70
-2
  9
$DIMLWE
 70
-2
  9
$DIMTMOVE
 70
0
  9
$DIMFXL
 40
1.0
  9
$DIMFXLON
 70
0
  9
$DIMJOGANG
 40
0.785398163397
  9
$DIMTFILL
 70
0
  9
$DIMTFILLCLR
 70
0
  9
$DIMARCSYM
 70
0
  9
$DIMLTYPE
  6

  9
$DIMLTEX1
  6

  9
$DIMLTEX2
  6

  9
$DIMTXTDIRECTION
 70
0
  9
$LUNITS
 70
2
  9
$LUPREC
 70
4
  9
$SKETCHINC
 40
1.0
  9
$FILLETRAD
 40
10.0
  9
$AUNITS
 70
0
  9
$AUPREC
 70
2
  9
$MENU
  1
.
  9
$ELEVATION
 40
0.0
  9
$PELEVATION
 40
0.0
  9
$THICKNESS
 40
0.0
  9
$LIMCHECK
 70
0
  9
$CHAMFERA
 40
0.0
  9
$CHAMFERB
 40
0.0
  9
$CHAMFERC
 40
0.0
  9
$CHAMFERD
 40
0.0
  9
$SKPOLY
 70
0
  9
$TDCREATE
 40
2461244.644247685
  9
$TDUCREATE
 40
2458532.153996898
  9
$TDUPDATE
 40
2461244.644247685
  9
$TDUUPDATE
 40
2458532.1544311
  9
$TDINDWG
 40
0.0
  9
$TDUSRTIMER
 40
0.0
  9
$USRTIMER
 70
1
  9
$ANGBASE
 50
0.0
  9
$ANGDIR
 70
0
  9
$PDMODE
 70
0
  9
$PDSIZE
 40
0.0
  9
$PLINEWID
 40
0.0
  9
$SPLFRAME
 70
0
  9
$SPLINETYPE
 70
6
  9
$SPLINESEGS
 70
8
  9
$HANDSEED
  5
116
  9
$SURFTAB1
 70
6
  9
$SURFTAB2
 70
6
  9
$SURFTYPE
 70
6
  9
$SURFU
 70
6
  9
$SURFV
 70
6
  9
$UCSBASE
  2

  9
$UCSNAME
  2

  9
$UCSORG
 10
0.0
 20
0.0
 30
0.0
  9
$UCSXDIR
 10
1.0
 20
0.0
 30
0.0
  9
$UCSYDIR
 10
0.0
 20
1.0
 30
0.0
  9
$UCSORTHOREF
  2

  9
$UCSORTHOVIEW
 70
0
  9
$UCSORGTOP
 10
0.0
 20
0.0
 30
0.0
  9
$UCSORGBOTTOM
 10
0.0
 20
0.0
 30
0.0
  9
$UCSORGLEFT
 10
0.0
 20
0.0
 30
0.0
  9
$UCSORGRIGHT
 10
0.0
 20
0.0
 30
0.0
  9
$UCSORGFRONT
 10
0.0
 20
0.0
 30
0.0
  9
$UCSORGBACK
 10
0.0
 20
0.0
 30
0.0
  9
$PUCSBASE
  2

  9
$PUCSNAME
  2

  9
$PUCSORG
 10
0.0
 20
0.0
 30
0.0
  9
$PUCSXDIR
 10
1.0
 20
0.0
 30
0.0
  9
$PUCSYDIR
 10
0.0
 20
1.0
 30
0.0
  9
$PUCSORTHOREF
  2

  9
$PUCSORTHOVIEW
 70
0
  9
$PUCSORGTOP
 10
0.0
 20
0.0
 30
0.0
  9
$PUCSORGBOTTOM
 10
0.0
 20
0.0
 30
0.0
  9
$PUCSORGLEFT
 10
0.0
 20
0.0
 30
0.0
  9
$PUCSORGRIGHT
 10
0.0
 20
0.0
 30
0.0
  9
$PUCSORGFRONT
 10
0.0
 20
0.0
 30
0.0
  9
$PUCSORGBACK
 10
0.0
 20
0.0
 30
0.0
  9
$USERI1
 70
0
  9
$USERI2
 70
0
  9
$USERI3
 70
0
  9
$USERI4
 70
0
  9
$USERI5
 70
0
  9
$USERR1
 40
0.0
  9
$USERR2
 40
0.0
  9
$USERR3
 40
0.0
  9
$USERR4
 40
0.0
  9
$USERR5
 40
0.0
  9
$WORLDVIEW
 70
1
  9
$SHADEDGE
 70
3
  9
$SHADEDIF
 70
70
  9
$TILEMODE
 70
1
  9
$MAXACTVP
 70
64
  9
$PINSBASE
 10
0.0
 20
0.0
 30
0.0
  9
$PLIMCHECK
 70
0
  9
$PEXTMIN
 10
1e+20
 20
1e+20
 30
1e+20
  9
$PEXTMAX
 10
-1e+20
 20
-1e+20
 30
-1e+20
  9
$PLIMMIN
 10
0.0
 20
0.0
  9
$PLIMMAX
 10
420.0
 20
297.0
  9
$UNITMODE
 70
0
  9
$VISRETAIN
 70
1
  9
$PLINEGEN
 70
0
  9
$PSLTSCALE
 70
1
  9
$TREEDEPTH
 70
3020
  9
$CMLSTYLE
  2
Standard
  9
$CMLJUST
 70
0
  9
$CMLSCALE
 40
20.0
  9
$PROXYGRAPHICS
 70
1
  9
$MEASUREMENT
 70
1
  9
$CELWEIGHT
370
-1
  9
$ENDCAPS
280
0
  9
$JOINSTYLE
280
0
  9
$LWDISPLAY
290
0
  9
$INSUNITS
 70
4
  9
$HYPERLINKBASE
  1

  9
$STYLESHEET
  1

  9
$XEDIT
290
1
  9
$CEPSNTYPE
380
0
  9
$PSTYLEMODE
290
1
  9
$FINGERPRINTGUID
  2
{7A1F225C-243F-419B-B55B-FA05447ECD55}
  9
$VERSIONGUID
  2
{7F6C13F4-EB3B-404C-976C-B4C58059EE00}
  9
$EXTNAMES
290
1
  9
$PSVPSCALE
 40
0.0
  9
$OLESTARTUP
290
0
  9
$SORTENTS
280
127
  9
$INDEXCTL
280
0
  9
$HIDETEXT
280
1
  9
$XCLIPFRAME
280
1
  9
$HALOGAP
280
0
  9
$OBSCOLOR
 70
257
  9
$OBSLTYPE
280
0
  9
$INTERSECTIONDISPLAY
280
0
  9
$INTERSECTIONCOLOR
 70
257
  9
$DIMASSOC
280
2
  9
$PROJECTNAME
  1

  9
$CAMERADISPLAY
290
0
  9
$LENSLENGTH
 40
50.0
  9
$CAMERAHEIGHT
 40
0.0
  9
$STEPSPERSEC
 40
24.0
  9
$STEPSIZE
 40
100.0
  9
$3DDWFPREC
 40
2.0
  9
$PSOLWIDTH
 40
0.005
  9
$PSOLHEIGHT
 40
0.08
  9
$LOFTANG1
 40
1.570796326795
  9
$LOFTANG2
 40
1.570796326795
  9
$LOFTMAG1
 40
0.0
  9
$LOFTMAG2
 40
0.0
  9
$LOFTPARAM
 70
7
  9
$LOFTNORMALS
280
1
  9
$LATITUDE
 40
37.795
  9
$LONGITUDE
 40
-122.394
  9
$NORTHDIRECTION
 40
0.0
  9
$TIMEZONE
 70
-8000
  9
$LIGHTGLYPHDISPLAY
280
1
  9
$TILEMODELIGHTSYNCH
280
1
  9
$CMATERIAL
347
20
  9
$SOLIDHIST
280
0
  9
$SHOWHIST
280
1
  9
$DWFFRAME
280
2
  9
$DGNFRAME
280
2
  9
$REALWORLDSCALE
290
1
  9
$INTERFERECOLOR
 62
256
  9
$CSHADOW
280
0
  9
$SHADOWPLANELOCATION
 40
0.0
  0
ENDSEC
  0
SECTION
  2
CLASSES
  0
CLASS
  1
ACDBDICTIONARYWDFLT
  2
AcDbDictionaryWithDefault
  3
ObjectDBX Classes
 90
0
 91
0
280
0
281
0
  0
CLASS
  1
SUN
  2
AcDbSun
  3
SCENEOE
 90
1153
 91
0
280
0
281
0
  0
CLASS
  1
VISUALSTYLE
  2
AcDbVisualStyle
  3
ObjectDBX Classes
 90
4095
 91
0
280
0
281
0
  0
CLASS
  1
MATERIAL
  2
AcDbMaterial
  3
ObjectDBX Classes
 90
1153
 91
0
280
0
281
0
  0
CLASS
  1
SCALE
  2
AcDbScale
  3
ObjectDBX Classes
 90
1153
 91
0
280
0
281
0
  0
CLASS
  1
TABLESTYLE
  2
AcDbTableStyle
  3
ObjectDBX Classes
 90
4095
 91
0
280
0
281
0
  0
CLASS
  1
MLEADERSTYLE
  2
AcDbMLeaderStyle
  3
ACDB_MLEADERSTYLE_CLASS
 90
4095
 91
0
280
0
281
0
  0
CLASS
  1
DICTIONARYVAR
  2
AcDbDictionaryVar
  3
ObjectDBX Classes
 90
0
 91
0
280
0
281
0
  0
CLASS
  1
CELLSTYLEMAP
  2
AcDbCellStyleMap
  3
ObjectDBX Classes
 90
1152
 91
0
280
0
281
0
  0
CLASS
  1
MENTALRAYRENDERSETTINGS
  2
AcDbMentalRayRenderSettings
  3
SCENEOE
 90
1024
 91
0
280
0
281
0
  0
CLASS
  1
ACDBDETAILVIEWSTYLE
  2
AcDbDetailViewStyle
  3
ObjectDBX Classes
 90
1025
 91
0
280
0
281
0
  0
CLASS
  1
ACDBSECTIONVIEWSTYLE
  2
AcDbSectionViewStyle
  3
ObjectDBX Classes
 90
1025
 91
0
280
0
281
0
  0
CLASS
  1
RASTERVARIABLES
  2
AcDbRasterVariables
  3
ISM
 90
0
 91
0
280
0
281
0
  0
CLASS
  1
LAYOUT
  2
AcDbLayout
  3
ObjectDBX Classes
 90
0
 91
0
280
0
281
0
  0
CLASS
  1
ACDBPLACEHOLDER
  2
AcDbPlaceHolder
  3
ObjectDBX Classes
 90
0
 91
0
280
0
281
0
  0
ENDSEC
  0
SECTION
  2
TABLES
  0
TABLE
  2
VPORT
  5
8
330
0
100
AcDbSymbolTable
 70
1
  0
VPORT
  5
112
330
8
100
AcDbSymbolTableRecord
100
AcDbViewportTableRecord
  2
*Active
 70
0
 10
0.0
 20
0.0
 11
1.0
 21
1.0
 12
-75.27042046844727
 22
57.12333517245757
 13
0.0
 23
0.0
 14
0.5
 24
0.5
 15
0.5
 25
0.5
 16
0.0
 26
0.0
 36
1.0
 17
0.0
 27
0.0
 37
0.0
 40
123.66660244463765
 41
1.34
 42
50.0
 43
0.0
 44
0.0
 50
0.0
 51
0.0
 71
0
 72
1000
 73
1
 74
3
 75
0
 76
0
 77
0
 78
0
281
0
 65
1
110
0.0
120
0.0
130
0.0
111
1.0
121
0.0
131
0.0
112
0.0
122
1.0
132
0.0
 79
0
146
0.0
  0
ENDTAB
  0
TABLE
  2
LTYPE
  5
2
330
0
100
AcDbSymbolTable
 70
3
  0
LTYPE
  5
24
330
2
100
AcDbSymbolTableRecord
100
AcDbLinetypeTableRecord
  2
ByBlock
 70
0
  3

 72
65
 73
0
 40
0.0
  0
LTYPE
  5
25
330
2
100
AcDbSymbolTableRecord
100
AcDbLinetypeTableRecord
  2
ByLayer
 70
0
  3

 72
65
 73
0
 40
0.0
  0
LTYPE
  5
26
330
2
100
AcDbSymbolTableRecord
100
AcDbLinetypeTableRecord
  2
Continuous
 70
0
  3

 72
65
 73
0
 40
0.0
  0
ENDTAB
  0
TABLE
  2
LAYER
  5
1
330
0
100
AcDbSymbolTable
 70
2
  0
LAYER
  5
27
330
1
100
AcDbSymbolTableRecord
100
AcDbLayerTableRecord
  2
0
 70
0
 62
7
  6
Continuous
370
-3
390
13
347
21
  0
LAYER
  5
28
330
1
100
AcDbSymbolTableRecord
100
AcDbLayerTableRecord
  2
Defpoints
 70
0
 62
7
  6
Continuous
290
0
370
-3
390
13
347
21
  0
ENDTAB
  0
TABLE
  2
STYLE
  5
5
330
0
100
AcDbSymbolTable
 70
1
  0
STYLE
  5
29
330
5
100
AcDbSymbolTableRecord
100
AcDbTextStyleTableRecord
  2
Standard
 70
0
 40
0.0
 41
1.0
 50
0.0
 71
0
 42
2.5
  3
txt
  4

  0
ENDTAB
  0
TABLE
  2
VIEW
  5
7
330
0
100
AcDbSymbolTable
 70
0
  0
ENDTAB
  0
TABLE
  2
UCS
  5
6
330
0
100
AcDbSymbolTable
 70
0
  0
ENDTAB
  0
TABLE
  2
APPID
  5
3
330
0
100
AcDbSymbolTable
 70
3
  0
APPID
  5
2A
330
3
100
AcDbSymbolTableRecord
100
AcDbRegAppTableRecord
  2
ACAD
 70
0
  0
APPID
  5
113
330
3
100
AcDbSymbolTableRecord
100
AcDbRegAppTableRecord
  2
HATCHBACKGROUNDCOLOR
 70
0
  0
APPID
  5
114
330
3
100
AcDbSymbolTableRecord
100
AcDbRegAppTableRecord
  2
EZDXF
 70
0
  0
ENDTAB
  0
TABLE
  2
DIMSTYLE
  5
4
330
0
100
AcDbSymbolTable
 70
1
100
AcDbDimStyleTable
  0
DIMSTYLE
105
2B
330
4
100
AcDbSymbolTableRecord
100
AcDbDimStyleTableRecord
  2
Standard
 70
0
 40
1.0
 41
2.5
 42
0.625
 43
3.75
 44
1.25
 45
0.0
 46
0.0
 47
0.0
 48
0.0
 49
2.5
140
2.5
141
2.5
142
0.0
143
0.03937007874
144
1.0
145
0.0
146
1.0
147
0.625
148
0.0
 69
0
 70
0
 71
0
 72
0
 73
0
 74
0
 75
0
 76
0
 77
1
 78
8
 79
3
170
0
171
3
172
1
173
0
174
0
175
0
176
0
177
0
178
0
179
2
271
2
272
2
273
2
274
3
275
0
276
0
277
2
278
44
279
0
280
0
281
0
282
0
283
0
284
8
285
0
286
0
288
0
289
3
290
0
371
-2
372
-2
  0
ENDTAB
  0
TABLE
  2
BLOCK_RECORD
  5
9
330
0
100
AcDbSymbolTable
 70
2
  0
BLOCK_RECORD
  5
17
330
9
100
AcDbSymbolTableRecord
100
AcDbBlockTableRecord
  2
*Model_Space
340
1A
 70
0
280
1
281
0
  0
BLOCK_RECORD
  5
1B
330
9
100
AcDbSymbolTableRecord
100
AcDbBlockTableRecord
  2
*Paper_Space
340
1E
 70
0
280
1
281
0
  0
ENDTAB
  0
ENDSEC
  0
SECTION
  2
BLOCKS
  0
BLOCK
  5
18
330
17
100
AcDbEntity
  8
0
100
AcDbBlockBegin
  2
*Model_Space
 70
0
 10
0.0
 20
0.0
 30
0.0
  3
*Model_Space
  1

  0
ENDBLK
  5
19
330
17
100
AcDbEntity
  8
0
100
AcDbBlockEnd
  0
BLOCK
  5
1C
330
1B
100
AcDbEntity
  8
0
100
AcDbBlockBegin
  2
*Paper_Space
 70
0
 10
0.0
 20
0.0
 30
0.0
  3
*Paper_Space
  1

  0
ENDBLK
  5
1D
330
1B
100
AcDbEntity
  8
0
100
AcDbBlockEnd
  0
ENDSEC
  0
SECTION
  2
ENTITIES
  0
LINE
  5
2F
330
17
100
AcDbEntity
  8
0
100
AcDbLine
 10
-8.46818629055969
 20
43.41930656113436
 30
0.0
 11
-29.565151829075894
 21
58.19156086455388
 31
0.0
  0
LINE
  5
30
330
17
100
AcDbEntity
  8
0
100
AcDbLine
 10
-29.565151829075894
 20
58.19156086455388
 30
0.0
 11
-29.565151829075887
 21
99.48453594582372
 31
0.0
  0
ARC
  5
31
330
17
100
AcDbEntity
  8
0
100
AcDbCircle
 10
-8.468186290559714
 20
213.05338929661434
 30
0.0
 40
115.5117587362717
100
AcDbArc
 50
-101.76630212059362
 51
-100.52351875428154
  0
LINE
  5
32
330
17
100
AcDbEntity
  8
0
100
AcDbLine
 10
-32.02337953315139
 20
99.9688223670336
 30
0.0
 11
-32.3862315647166
 21
98.45774008890561
 31
0.0
  0
ARC
  5
33
330
17
100
AcDbEntity
  8
0
100
AcDbCircle
 10
-35.78851646313644
 20
99.27472140436693
 30
0.0
 40
3.499
100
AcDbArc
 50
256.4973731280481
 51
346.4973731280481
  0
LINE
  5
34
330
17
100
AcDbEntity
  8
0
100
AcDbLine
 10
-36.60549777860348
 20
95.87243650592328
 30
0.0
 11
-36.60744249585215
 21
95.8729034855277
 31
0.0
  0
ARC
  5
35
330
17
100
AcDbEntity
  8
0
100
AcDbCircle
 10
-35.79046118038511
 20
99.27518838397135
 30
0.0
 40
3.499
100
AcDbArc
 50
166.4973731280481
 51
256.4973731280481
  0
LINE
  5
36
330
17
100
AcDbEntity
  8
0
100
AcDbLine
 10
-39.19274608003686
 20
100.09216969972849
 30
0.0
 11
-38.829894048471424
 21
101.60325197785741
 31
0.0
  0
ARC
  5
37
330
17
100
AcDbEntity
  8
0
100
AcDbCircle
 10
-8.468186290559714
 20
213.05338929661434
 30
0.0
 40
115.5117587362717
100
AcDbArc
 50
-117.00525374390378
 51
-105.2389516233239
  0
ARC
  5
38
330
17
100
AcDbEntity
  8
0
100
AcDbCircle
 10
-95.36857808080332
 20
42.54042160398028
 30
0.0
 40
75.86836103756242
100
AcDbArc
 50
62.99474625609618
 51
92.7581788278299
  0
LINE
  5
39
330
17
100
AcDbEntity
  8
0
100
AcDbLine
 10
-99.01941756518933
 20
118.32089123557581
 30
0.0
 11
-98.8857054032613
 21
116.90697459044519
 31
0.0
  0
ARC
  5
3A
330
17
100
AcDbEntity
  8
0
100
AcDbCircle
 10
-102.36916339869677
 20
116.5775487355624
 30
0.0
 40
3.499
100
AcDbArc
 50
275.40231696357336
 51
365.40231696357336
  0
LINE
  5
3B
330
17
100
AcDbEntity
  8
0
100
AcDbLine
 10
-102.03973754381168
 20
113.09409074010254
 30
0.0
 11
-102.0417286589155
 21
113.09390244307238
 31
0.0
  0
ARC
  5
3C
330
17
100
AcDbEntity
  8
0
100
AcDbCircle
 10
-102.37115451380059
 20
116.57736043853224
 30
0.0
 40
3.499
100
AcDbArc
 50
185.40231696357333
 51
275.40231696357336
  0
LINE
  5
3D
330
17
100
AcDbEntity
  8
0
100
AcDbLine
 10
-105.85461251049736
 20
116.24793458353017
 30
0.0
 11
-105.98832467242529
 21
117.66185122865964
 31
0.0
  0
ARC
  5
3E
330
17
100
AcDbEntity
  8
0
100
AcDbCircle
 10
-95.36857808080332
 20
42.54042160398028
 30
0.0
 40
75.86836103756242
100
AcDbArc
 50
98.04645509933535
 51
100.79059238453281
  0
LINE
  5
3F
330
17
100
AcDbEntity
  8
0
100
AcDbLine
 10
-109.57265464633474
 20
117.06727861168184
 30
0.0
 11
-109.57265464633474
 21
102.09264900169802
 31
0.0
  0
LINE
  5
40
330
17
100
AcDbEntity
  8
0
100
AcDbLine
 10
-109.57265464633474
 20
102.09264900169802
 30
0.0
 11
-141.9280023780235
 21
102.09264900169802
 31
0.0
  0
ARC
  5
41
330
17
100
AcDbEntity
  8
0
100
AcDbCircle
 10
-140.07265461828413
 20
101.34586610792674
 30
0.0
 40
2.0
100
AcDbArc
 50
158.075070725286
 51
180.0
  0
LINE
  5
42
330
17
100
AcDbEntity
  8
0
100
AcDbLine
 10
-142.07265464633485
 20
101.34586610792674
 30
0.0
 11
-142.07265464633485
 21
77.57254826171109
 31
0.0
  0
LINE
  5
43
330
17
100
AcDbEntity
  8
0
100
AcDbLine
 10
-142.07265464633485
 20
77.57254826171109
 30
0.0
 11
-140.57165464633485
 21
77.57254826171109
 31
0.0
  0
ARC
  5
44
330
17
100
AcDbEntity
  8
0
100
AcDbCircle
 10
-140.57165464633485
 20
74.07354826173558
 30
0.0
 40
3.499
100
AcDbArc
 50
360.0
 51
450.0
  0
LINE
  5
45
330
17
100
AcDbEntity
  8
0
100
AcDbLine
 10
-137.07265464633485
 20
74.07354826173558
 30
0.0
 11
-137.07265464633485
 21
74.07154826295353
 31
0.0
  0
ARC
  5
46
330
17
100
AcDbEntity
  8
0
100
AcDbCircle
 10
-140.57165464633485
 20
74.07154826295353
 30
0.0
 40
3.499
100
AcDbArc
 50
270.0
 51
360.0
  0
LINE
  5
47
330
17
100
AcDbEntity
  8
0
100
AcDbLine
 10
-140.57165464633485
 20
70.57254826171109
 30
0.0
 11
-142.07265464633485
 21
70.57254826171109
 31
0.0
  0
LINE
  5
48
330
17
100
AcDbEntity
  8
0
100
AcDbLine
 10
-142.07265464633485
 20
70.57254826171109
 30
0.0
 11
-142.07265464633485
 21
47.19313639985087
 31
0.0
  0
ARC
  5
49
330
17
100
AcDbEntity
  8
0
100
AcDbCircle
 10
-140.07265464617078
 20
47.19313639985087
 30
0.0
 40
2.0
100
AcDbArc
 50
-180.0
 51
-105.74329108927236
  0
ARC
  5
4A
330
17
100
AcDbEntity
  8
0
100
AcDbCircle
 10
-65.63137504358866
 20
311.26035567645613
 30
0.0
 40
276.3592542732039
100
AcDbArc
 50
-105.7432910892724
 51
-101.18006988338873
  0
ARC
  5
4B
330
17
100
AcDbEntity
  8
0
100
AcDbCircle
 10
-253.84819440888916
 20
-641.0424729992583
 30
0.0
 40
694.3653454953181
100
AcDbArc
 50
77.19876990547503
 51
78.81993011661126
  0
LINE
  5
4C
330
17
100
AcDbEntity
  8
0
100
AcDbLine
 10
-99.99805834284561
 20
36.064142429429
 30
0.0
 11
-99.65611118960577
 21
37.534731352248784
 31
0.0
  0
ARC
  5
4D
330
17
100
AcDbEntity
  8
0
100
AcDbCircle
 10
-96.24803140145939
 20
36.74227115926955
 30
0.0
 40
3.499
100
AcDbArc
 50
76.90996505830567
 51
166.90996505830566
  0
LINE
  5
4E
330
17
100
AcDbEntity
  8
0
100
AcDbLine
 10
-95.45557120847461
 20
40.15035094743979
 30
0.0
 11
-95.45362317891602
 21
40.14989798390141
 31
0.0
  0
ARC
  5
4F
330
17
100
AcDbEntity
  8
0
100
AcDbCircle
 10
-96.2460833719008
 20
36.74181819573117
 30
0.0
 40
3.499
100
AcDbArc
 50
-13.090034941694325
 51
76.90996505830567
  0
LINE
  5
50
330
17
100
AcDbEntity
  8
0
100
AcDbLine
 10
-92.8380035825204
 20
35.949358002465
 30
0.0
 11
-93.1799507357602
 21
34.47876907964536
 31
0.0
  0
ARC
  5
51
330
17
100
AcDbEntity
  8
0
100
AcDbCircle
 10
-253.84819440888916
 20
-641.0424729992583
 30
0.0
 40
694.3653454953181
100
AcDbArc
 50
75.00000000000047
 51
76.6211602111369
  0
ARC
  5
52
330
17
100
AcDbEntity
  8
0
100
AcDbCircle
 10
-99.59337003480516
 20
-65.35563112254503
 30
0.0
 40
98.37047072485228
100
AcDbArc
 50
405.0
 51
435.0000000000004
  0
LINE
  5
53
330
17
100
AcDbEntity
  8
0
100
AcDbLine
 10
-30.034943116749368
 20
4.202795795510747
 30
0.0
 11
-27.91363511446965
 21
2.081487793231026
 31
0.0
  0
LINE
  5
54
330
17
100
AcDbEntity
  8
0
100
AcDbLine
 10
-27.91363511446965
 20
2.0814877932310267
 30
0.0
 11
-26.852267835908652
 21
3.1428550717920247
 31
0.0
  0
ARC
  5
55
330
17
100
AcDbEntity
  8
0
100
AcDbCircle
 10
-24.37810120855424
 20
0.6686884444376158
 30
0.0
 40
3.499
100
AcDbArc
 50
44.99999999999997
 51
134.99999999999997
  0
LINE
  5
56
330
17
100
AcDbEntity
  8
0
100
AcDbLine
 10
-21.90393458118251
 20
3.142855071809345
 30
0.0
 11
-21.902520368481355
 21
3.1414408591081884
 31
0.0
  0
ARC
  5
57
330
17
100
AcDbEntity
  8
0
100
AcDbCircle
 10
-24.376686995853085
 20
0.6672742317364586
 30
0.0
 40
3.499
100
AcDbArc
 50
-45.00000000000003
 51
44.99999999999997
  0
LINE
  5
58
330
17
100
AcDbEntity
  8
0
100
AcDbLine
 10
-21.90252036760282
 20
-1.8068923965138086
 30
0.0
 11
-22.963887646163816
 21
-2.868259675074806
 31
0.0
  0
LINE
  5
59
330
17
100
AcDbEntity
  8
0
100
AcDbLine
 10
-22.963887646163816
 20
-2.868259675074807
 30
0.0
 11
-21.90323055971482
 21
-3.9289167615238014
 31
0.0
  0
ARC
  5
5A
330
17
100
AcDbEntity
  8
0
100
AcDbCircle
 10
-20.489016996400608
 20
-2.514703198209588
 30
0.0
 40
2.0
100
AcDbArc
 50
-135.0
 51
-45.000500000038315
  0
LINE
  5
5B
330
17
100
AcDbEntity
  8
0
100
AcDbLine
 10
-19.074815775423804
 20
-3.928929101871276
 30
0.0
 11
-17.30694392120702
 21
-2.1610881025722
 31
0.0
  0
ARC
  5
5C
330
17
100
AcDbEntity
  8
0
100
AcDbCircle
 10
-8.468186290559686
 20
-11.000000000000014
 30
0.0
 40
12.500000000000018
100
AcDbArc
 50
90.0
 51
134.99949999996184
  0
LINE
  5
5D
330
17
100
AcDbEntity
  8
0
100
AcDbLine
 10
-8.468186290559686
 20
1.5
 30
0.0
 11
-8.468186290559686
 21
43.41930656113436
 31
0.0
  0
ARC
  5
5E
330
17
100
AcDbEntity
  8
0
100
AcDbCircle
 10
-30.03494311674974
 20
13.395183950935547
 30
0.0
 40
0.5
100
AcDbArc
 50
135.0
 51
225.0
  0
LINE
  5
5F
330
17
100
AcDbEntity
  8
0
100
AcDbLine
 10
-30.388496507343014
 20
13.74873734152882
 30
0.0
 11
-21.196108353586496
 21
22.941125495285334
 31
0.0
  0
ARC
  5
60
330
17
100
AcDbEntity
  8
0
100
AcDbCircle
 10
-20.842554962993226
 20
22.587572104692065
 30
0.0
 40
0.5
100
AcDbArc
 50
44.99999999999999
 51
135.0
  0
LINE
  5
61
330
17
100
AcDbEntity
  8
0
100
AcDbLine
 10
-20.489001570730665
 20
22.94112549695462
 30
0.0
 11
-11.296613415305547
 21
13.748737341529502
 31
0.0
  0
ARC
  5
62
330
17
100
AcDbEntity
  8
0
100
AcDbCircle
 10
-11.650166807568116
 20
13.395183949266933
 30
0.0
 40
0.5
100
AcDbArc
 50
-45.00000000000001
 51
44.99999999999999
  0
LINE
  5
63
330
17
100
AcDbEntity
  8
0
100
AcDbLine
 10
-11.296613416974843
 20
13.04163055867366
 30
0.0
 11
-20.489001570730665
 21
3.84924240491784
 31
0.0
  0
ARC
  5
64
330
17
100
AcDbEntity
  8
0
100
AcDbCircle
 10
-20.842554962993233
 20
4.202795797180409
 30
0.0
 40
0.5
100
AcDbArc
 50
-135.0
 51
-45.00000000000007
  0
LINE
  5
65
330
17
100
AcDbEntity
  8
0
100
AcDbLine
 10
-21.196108353586506
 20
3.849242406587134
 30
0.0
 11
-30.388496507342328
 21
13.04163056034296
 31
0.0
  0
ARC
  5
66
330
17
100
AcDbEntity
  8
0
100
AcDbCircle
 10
-135.07265464633483
 20
68.09264900169751
 30
0.0
 40
0.5
100
AcDbArc
 50
180.0
 51
270.0
  0
LINE
  5
67
330
17
100
AcDbEntity
  8
0
100
AcDbLine
 10
-135.57265464633483
 20
68.09264900169751
 30
0.0
 11
-135.57265464633483
 21
81.09264899933774
 31
0.0
  0
ARC
  5
68
330
17
100
AcDbEntity
  8
0
100
AcDbCircle
 10
-135.07265464633483
 20
81.09264899933774
 30
0.0
 40
0.5
100
AcDbArc
 50
89.99999999999999
 51
180.0
  0
LINE
  5
69
330
17
100
AcDbEntity
  8
0
100
AcDbLine
 10
-135.07265464633483
 20
81.59264900169848
 30
0.0
 11
-122.07265464633483
 21
81.59264900169848
 31
0.0
  0
ARC
  5
6A
330
17
100
AcDbEntity
  8
0
100
AcDbCircle
 10
-122.07265464633483
 20
81.09264899933773
 30
0.0
 40
0.5
100
AcDbArc
 50
-7.951386703658793e-15
 51
89.99999999999999
  0
LINE
  5
6B
330
17
100
AcDbEntity
  8
0
100
AcDbLine
 10
-121.57265464633483
 20
81.09264899933773
 30
0.0
 11
-121.57265464633483
 21
68.09264900169848
 31
0.0
  0
ARC
  5
6C
330
17
100
AcDbEntity
  8
0
100
AcDbCircle
 10
-122.07265464869556
 20
68.09264900169848
 30
0.0
 40
0.5
100
AcDbArc
 50
270.0
 51
360.0
  0
LINE
  5
6D
330
17
100
AcDbEntity
  8
0
100
AcDbLine
 10
-122.07265464869556
 20
67.59264900169848
 30
0.0
 11
-135.07265464633483
 21
67.59264900169848
 31
0.0
  0
ARC
  5
6E
330
17
100
AcDbEntity
  8
0
100
AcDbCircle
 10
-135.07265464633483
 20
85.09264900169751
 30
0.0
 40
0.5
100
AcDbArc
 50
180.0
 51
270.0
  0
LINE
  5
6F
330
17
100
AcDbEntity
  8
0
100
AcDbLine
 10
-135.57265464633483
 20
85.09264900169751
 30
0.0
 11
-135.57265464633483
 21
98.09264899933774
 31
0.0
  0
ARC
  5
70
330
17
100
AcDbEntity
  8
0
100
AcDbCircle
 10
-135.07265464633483
 20
98.09264899933774
 30
0.0
 40
0.5
100
AcDbArc
 50
89.99999999999999
 51
180.0
  0
LINE
  5
71
330
17
100
AcDbEntity
  8
0
100
AcDbLine
 10
-135.07265464633483
 20
98.59264900169848
 30
0.0
 11
-122.07265464633483
 21
98.59264900169848
 31
0.0
  0
ARC
  5
72
330
17
100
AcDbEntity
  8
0
100
AcDbCircle
 10
-122.07265464633483
 20
98.09264899933773
 30
0.0
 40
0.5
100
AcDbArc
 50
-7.951386703658793e-15
 51
89.99999999999999
  0
LINE
  5
73
330
17
100
AcDbEntity
  8
0
100
AcDbLine
 10
-121.57265464633483
 20
98.09264899933773
 30
0.0
 11
-121.57265464633483
 21
85.09264900169848
 31
0.0
  0
ARC
  5
74
330
17
100
AcDbEntity
  8
0
100
AcDbCircle
 10
-122.07265464869556
 20
85.09264900169848
 30
0.0
 40
0.5
100
AcDbArc
 50
270.0
 51
360.0
  0
LINE
  5
75
330
17
100
AcDbEntity
  8
0
100
AcDbLine
 10
-122.07265464869556
 20
84.59264900169848
 30
0.0
 11
-135.07265464633483
 21
84.59264900169848
 31
0.0
  0
LINE
  5
76
330
17
100
AcDbEntity
  8
0
100
AcDbLine
 10
-93.9619640140226
 20
93.57112727213149
 30
0.0
 11
-106.76446480085643
 21
95.82855358139165
 31
0.0
  0
ARC
  5
77
330
17
100
AcDbEntity
  8
0
100
AcDbCircle
 10
-106.67764071202313
 20
96.3209574578968
 30
0.0
 40
0.5
100
AcDbArc
 50
169.99999999999997
 51
260.0
  0
LINE
  5
78
330
17
100
AcDbEntity
  8
0
100
AcDbLine
 10
-107.17004458852924
 20
96.40778154673026
 30
0.0
 11
-104.9126182792689
 21
109.21028233356506
 31
0.0
  0
ARC
  5
79
330
17
100
AcDbEntity
  8
0
100
AcDbCircle
 10
-104.4202144027628
 20
109.1234582447316
 30
0.0
 40
0.5
100
AcDbArc
 50
79.99999999999999
 51
169.99999999999997
  0
LINE
  5
7A
330
17
100
AcDbEntity
  8
0
100
AcDbLine
 10
-104.3333903135194
 20
109.61586212356256
 30
0.0
 11
-91.53088952436069
 21
107.35843581389247
 31
0.0
  0
ARC
  5
7B
330
17
100
AcDbEntity
  8
0
100
AcDbCircle
 10
-91.6177136136041
 20
106.86603193506149
 30
0.0
 40
0.5
100
AcDbArc
 50
-10.000000000000009
 51
79.99999999999999
  0
LINE
  5
7C
330
17
100
AcDbEntity
  8
0
100
AcDbLine
 10
-91.125309737098
 20
106.77920784622802
 30
0.0
 11
-93.38273604635815
 21
93.97670705939419
 31
0.0
  0
ARC
  5
7D
330
17
100
AcDbEntity
  8
0
100
AcDbCircle
 10
-93.87513992518913
 20
94.0635311486376
 30
0.0
 40
0.5
100
AcDbArc
 50
260.0
 51
350.0
  0
LINE
  5
7E
330
17
100
AcDbEntity
  8
0
100
AcDbLine
 10
-61.901862829556606
 20
50.196917306896125
 30
0.0
 11
-74.45889856903419
 21
53.56156489261789
 31
0.0
  0
ARC
  5
7F
330
17
100
AcDbEntity
  8
0
100
AcDbCircle
 10
-74.32948904648318
 20
54.04452780576149
 30
0.0
 40
0.5
100
AcDbArc
 50
165.0
 51
255.00000000000003
  0
LINE
  5
80
330
17
100
AcDbEntity
  8
0
100
AcDbLine
 10
-74.81245195962771
 20
54.17393732831275
 30
0.0
 11
-71.4478043739057
 21
66.73097306779128
 31
0.0
  0
ARC
  5
81
330
17
100
AcDbEntity
  8
0
100
AcDbCircle
 10
-70.96484146076116
 20
66.60156354524003
 30
0.0
 40
0.5
100
AcDbArc
 50
74.99999999999999
 51
165.0
  0
LINE
  5
82
330
17
100
AcDbEntity
  8
0
100
AcDbLine
 10
-70.8354319375989
 20
67.08452646066485
 30
0.0
 11
-58.27839619584101
 21
63.719878874332075
 31
0.0
  0
ARC
  5
83
330
17
100
AcDbEntity
  8
0
100
AcDbCircle
 10
-58.40780571900328
 20
63.23691595890723
 30
0.0
 40
0.5
100
AcDbArc
 50
-15.000000000000009
 51
74.99999999999999
  0
LINE
  5
84
330
17
100
AcDbEntity
  8
0
100
AcDbLine
 10
-57.924842805858745
 20
63.107506436355976
 30
0.0
 11
-61.28949039158051
 21
50.55047069687839
 31
0.0
  0
ARC
  5
85
330
17
100
AcDbEntity
  8
0
100
AcDbCircle
 10
-61.77245330700534
 20
50.67988022004066
 30
0.0
 40
0.5
100
AcDbArc
 50
255.00000000000003
 51
345.0
  0
LINE
  5
86
330
17
100
AcDbEntity
  8
0
100
AcDbLine
 10
-40.11527418961053
 20
61.958913541964904
 30
0.0
 11
-52.672309929088115
 21
65.32356112768667
 31
0.0
  0
ARC
  5
87
330
17
100
AcDbEntity
  8
0
100
AcDbCircle
 10
-52.5429004065371
 20
65.80652404083027
 30
0.0
 40
0.5
100
AcDbArc
 50
165.0
 51
255.00000000000003
  0
LINE
  5
88
330
17
100
AcDbEntity
  8
0
100
AcDbLine
 10
-53.02586331968164
 20
65.93593356338152
 30
0.0
 11
-49.66121573395962
 21
78.49296930286006
 31
0.0
  0
ARC
  5
89
330
17
100
AcDbEntity
  8
0
100
AcDbCircle
 10
-49.17825282081508
 20
78.3635597803088
 30
0.0
 40
0.5
100
AcDbArc
 50
74.99999999999999
 51
165.0
  0
LINE
  5
8A
330
17
100
AcDbEntity
  8
0
100
AcDbLine
 10
-49.04884329765282
 20
78.84652269573363
 30
0.0
 11
-36.49180755589494
 21
75.48187510940085
 31
0.0
  0
ARC
  5
8B
330
17
100
AcDbEntity
  8
0
100
AcDbCircle
 10
-36.6212170790572
 20
74.99891219397601
 30
0.0
 40
0.5
100
AcDbArc
 50
-15.000000000000009
 51
74.99999999999999
  0
LINE
  5
8C
330
17
100
AcDbEntity
  8
0
100
AcDbLine
 10
-36.13825416591267
 20
74.86950267142475
 30
0.0
 11
-39.50290175163443
 21
62.31246693194717
 31
0.0
  0
ARC
  5
8D
330
17
100
AcDbEntity
  8
0
100
AcDbCircle
 10
-39.98586466705927
 20
62.44187645510944
 30
0.0
 40
0.5
100
AcDbArc
 50
255.00000000000003
 51
345.0
  0
LINE
  5
8E
330
17
100
AcDbEntity
  8
0
100
AcDbLine
 10
-57.501939062813754
 20
66.61765635381029
 30
0.0
 11
-70.05897480229135
 21
69.98230393953206
 31
0.0
  0
ARC
  5
8F
330
17
100
AcDbEntity
  8
0
100
AcDbCircle
 10
-69.92956527974033
 20
70.46526685267565
 30
0.0
 40
0.5
100
AcDbArc
 50
165.0
 51
255.00000000000003
  0
LINE
  5
90
330
17
100
AcDbEntity
  8
0
100
AcDbLine
 10
-70.41252819288486
 20
70.59467637522691
 30
0.0
 11
-67.04788060716284
 21
83.15171211470545
 31
0.0
  0
ARC
  5
91
330
17
100
AcDbEntity
  8
0
100
AcDbCircle
 10
-66.5649176940183
 20
83.02230259215419
 30
0.0
 40
0.5
100
AcDbArc
 50
74.99999999999999
 51
165.0
  0
LINE
  5
92
330
17
100
AcDbEntity
  8
0
100
AcDbLine
 10
-66.43550817085604
 20
83.50526550757901
 30
0.0
 11
-53.87847242909816
 21
80.14061792124623
 31
0.0
  0
ARC
  5
93
330
17
100
AcDbEntity
  8
0
100
AcDbCircle
 10
-54.007881952260426
 20
79.6576550058214
 30
0.0
 40
0.5
100
AcDbArc
 50
-15.000000000000009
 51
74.99999999999999
  0
LINE
  5
94
330
17
100
AcDbEntity
  8
0
100
AcDbLine
 10
-53.52491903911589
 20
79.52824548327014
 30
0.0
 11
-56.889566624837656
 21
66.97120974379256
 31
0.0
  0
ARC
  5
95
330
17
100
AcDbEntity
  8
0
100
AcDbCircle
 10
-57.37252954026249
 20
67.10061926695482
 30
0.0
 40
0.5
100
AcDbArc
 50
255.00000000000003
 51
345.0
  0
LINE
  5
96
330
17
100
AcDbEntity
  8
0
100
AcDbLine
 10
-35.71535042286767
 20
78.37965258887907
 30
0.0
 11
-48.272386162345256
 21
81.74430017460084
 31
0.0
  0
ARC
  5
97
330
17
100
AcDbEntity
  8
0
100
AcDbCircle
 10
-48.14297663979424
 20
82.22726308774443
 30
0.0
 40
0.5
100
AcDbArc
 50
165.0
 51
255.00000000000003
  0
LINE
  5
98
330
17
100
AcDbEntity
  8
0
100
AcDbLine
 10
-48.62593955293878
 20
82.35667261029569
 30
0.0
 11
-45.26129196721676
 21
94.91370834977423
 31
0.0
  0
ARC
  5
99
330
17
100
AcDbEntity
  8
0
100
AcDbCircle
 10
-44.77832905407222
 20
94.78429882722297
 30
0.0
 40
0.5
100
AcDbArc
 50
74.99999999999999
 51
165.0
  0
LINE
  5
9A
330
17
100
AcDbEntity
  8
0
100
AcDbLine
 10
-44.648919530909964
 20
95.26726174264779
 30
0.0
 11
-32.09188378915208
 21
91.90261415631501
 31
0.0
  0
ARC
  5
9B
330
17
100
AcDbEntity
  8
0
100
AcDbCircle
 10
-32.221293312314344
 20
91.41965124089018
 30
0.0
 40
0.5
100
AcDbArc
 50
-15.000000000000009
 51
74.99999999999999
  0
LINE
  5
9C
330
17
100
AcDbEntity
  8
0
100
AcDbLine
 10
-31.73833039916981
 20
91.29024171833892
 30
0.0
 11
-35.102977984891574
 21
78.73320597886133
 31
0.0
  0
ARC
  5
9D
330
17
100
AcDbEntity
  8
0
100
AcDbCircle
 10
-35.58594090031641
 20
78.8626155020236
 30
0.0
 40
0.5
100
AcDbArc
 50
255.00000000000003
 51
345.0
  0
LINE
  5
9E
330
17
100
AcDbEntity
  8
0
100
AcDbLine
 10
-69.3886992275884
 20
91.80232297429835
 30
0.0
 11
-81.94573496706599
 21
95.16697056002012
 31
0.0
  0
ARC
  5
9F
330
17
100
AcDbEntity
  8
0
100
AcDbCircle
 10
-81.81632544451497
 20
95.64993347316371
 30
0.0
 40
0.5
100
AcDbArc
 50
165.0
 51
255.00000000000003
  0
LINE
  5
A0
330
17
100
AcDbEntity
  8
0
100
AcDbLine
 10
-82.2992883576595
 20
95.77934299571497
 30
0.0
 11
-78.9346407719375
 21
108.3363787351935
 31
0.0
  0
ARC
  5
A1
330
17
100
AcDbEntity
  8
0
100
AcDbCircle
 10
-78.45167785879296
 20
108.20696921264225
 30
0.0
 40
0.5
100
AcDbArc
 50
74.99999999999999
 51
165.0
  0
LINE
  5
A2
330
17
100
AcDbEntity
  8
0
100
AcDbLine
 10
-78.3222683356307
 20
108.68993212806707
 30
0.0
 11
-65.76523259387281
 21
105.32528454173429
 31
0.0
  0
ARC
  5
A3
330
17
100
AcDbEntity
  8
0
100
AcDbCircle
 10
-65.89464211703508
 20
104.84232162630946
 30
0.0
 40
0.5
100
AcDbArc
 50
-15.000000000000009
 51
74.99999999999999
  0
LINE
  5
A4
330
17
100
AcDbEntity
  8
0
100
AcDbLine
 10
-65.41167920389054
 20
104.7129121037582
 30
0.0
 11
-68.77632678961231
 21
92.15587636428062
 31
0.0
  0
ARC
  5
A5
330
17
100
AcDbEntity
  8
0
100
AcDbCircle
 10
-69.25928970503715
 20
92.28528588744288
 30
0.0
 40
0.5
100
AcDbArc
 50
255.00000000000003
 51
345.0
  0
LINE
  5
A6
330
17
100
AcDbEntity
  8
0
100
AcDbLine
 10
-53.1020152960709
 20
83.03839540072444
 30
0.0
 11
-65.65905103554849
 21
86.40304298644621
 31
0.0
  0
ARC
  5
A7
330
17
100
AcDbEntity
  8
0
100
AcDbCircle
 10
-65.52964151299747
 20
86.8860058995898
 30
0.0
 40
0.5
100
AcDbArc
 50
165.0
 51
255.00000000000003
  0
LINE
  5
A8
330
17
100
AcDbEntity
  8
0
100
AcDbLine
 10
-66.012604426142
 20
87.01541542214106
 30
0.0
 11
-62.647956840419994
 21
99.5724511616196
 31
0.0
  0
ARC
  5
A9
330
17
100
AcDbEntity
  8
0
100
AcDbCircle
 10
-62.164993927275454
 20
99.44304163906834
 30
0.0
 40
0.5
100
AcDbArc
 50
74.99999999999999
 51
165.0
  0
LINE
  5
AA
330
17
100
AcDbEntity
  8
0
100
AcDbLine
 10
-62.035584404113195
 20
99.92600455449316
 30
0.0
 11
-49.47854866235531
 21
96.56135696816038
 31
0.0
  0
ARC
  5
AB
330
17
100
AcDbEntity
  8
0
100
AcDbCircle
 10
-49.607958185517575
 20
96.07839405273555
 30
0.0
 40
0.5
100
AcDbArc
 50
-15.000000000000009
 51
74.99999999999999
  0
LINE
  5
AC
330
17
100
AcDbEntity
  8
0
100
AcDbLine
 10
-49.12499527237304
 20
95.94898453018429
 30
0.0
 11
-52.489642858094804
 21
83.3919487907067
 31
0.0
  0
ARC
  5
AD
330
17
100
AcDbEntity
  8
0
100
AcDbCircle
 10
-52.97260577351964
 20
83.52135831386897
 30
0.0
 40
0.5
100
AcDbArc
 50
255.00000000000003
 51
345.0
  0
LINE
  5
AE
330
17
100
AcDbEntity
  8
0
100
AcDbLine
 10
-102.81802107503606
 20
43.34593186850888
 30
0.0
 11
-115.62052186186989
 21
45.60335817776904
 31
0.0
  0
ARC
  5
AF
330
17
100
AcDbEntity
  8
0
100
AcDbCircle
 10
-115.53369777303658
 20
46.09576205427419
 30
0.0
 40
0.5
100
AcDbArc
 50
169.99999999999997
 51
260.0
  0
LINE
  5
B0
330
17
100
AcDbEntity
  8
0
100
AcDbLine
 10
-116.02610164954268
 20
46.182586143107656
 30
0.0
 11
-113.76867534028236
 21
58.98508692994244
 31
0.0
  0
ARC
  5
B1
330
17
100
AcDbEntity
  8
0
100
AcDbCircle
 10
-113.27627146377625
 20
58.89826284110898
 30
0.0
 40
0.5
100
AcDbArc
 50
79.99999999999999
 51
169.99999999999997
  0
LINE
  5
B2
330
17
100
AcDbEntity
  8
0
100
AcDbLine
 10
-113.18944737453286
 20
59.390666719939944
 30
0.0
 11
-100.38694658537415
 21
57.13324041026985
 31
0.0
  0
ARC
  5
B3
330
17
100
AcDbEntity
  8
0
100
AcDbCircle
 10
-100.47377067461755
 20
56.64083653143887
 30
0.0
 40
0.5
100
AcDbArc
 50
-10.000000000000009
 51
79.99999999999999
  0
LINE
  5
B4
330
17
100
AcDbEntity
  8
0
100
AcDbLine
 10
-99.98136679811145
 20
56.554012442605405
 30
0.0
 11
-102.2387931073716
 21
43.75151165577158
 31
0.0
  0
ARC
  5
B5
330
17
100
AcDbEntity
  8
0
100
AcDbCircle
 10
-102.73119698620259
 20
43.83833574501498
 30
0.0
 40
0.5
100
AcDbArc
 50
260.0
 51
350.0
  0
LINE
  5
B6
330
17
100
AcDbEntity
  8
0
100
AcDbLine
 10
-82.58847052781697
 20
42.540105833555884
 30
0.0
 11
-95.14550626729455
 21
45.90475341927765
 31
0.0
  0
ARC
  5
B7
330
17
100
AcDbEntity
  8
0
100
AcDbCircle
 10
-95.01609674474354
 20
46.38771633242125
 30
0.0
 40
0.5
100
AcDbArc
 50
165.0
 51
255.00000000000003
  0
LINE
  5
B8
330
17
100
AcDbEntity
  8
0
100
AcDbLine
 10
-95.49905965788807
 20
46.51712585497251
 30
0.0
 11
-92.13441207216606
 21
59.07416159445104
 31
0.0
  0
ARC
  5
B9
330
17
100
AcDbEntity
  8
0
100
AcDbCircle
 10
-91.65144915902152
 20
58.94475207189978
 30
0.0
 40
0.5
100
AcDbArc
 50
74.99999999999999
 51
165.0
  0
LINE
  5
BA
330
17
100
AcDbEntity
  8
0
100
AcDbLine
 10
-91.52203963585926
 20
59.427714987324606
 30
0.0
 11
-78.96500389410137
 21
56.063067400991834
 31
0.0
  0
ARC
  5
BB
330
17
100
AcDbEntity
  8
0
100
AcDbCircle
 10
-79.09441341726364
 20
55.58010448556699
 30
0.0
 40
0.5
100
AcDbArc
 50
-15.000000000000009
 51
74.99999999999999
  0
LINE
  5
BC
330
17
100
AcDbEntity
  8
0
100
AcDbLine
 10
-78.6114505041191
 20
55.450694963015735
 30
0.0
 11
-81.97609808984087
 21
42.89365922353815
 31
0.0
  0
ARC
  5
BD
330
17
100
AcDbEntity
  8
0
100
AcDbCircle
 10
-82.45906100526571
 20
43.02306874670042
 30
0.0
 40
0.5
100
AcDbArc
 50
255.00000000000003
 51
345.0
  0
LINE
  5
BE
330
17
100
AcDbEntity
  8
0
100
AcDbLine
 10
-34.404439090218304
 20
16.41140650019473
 30
0.0
 11
-45.053415664041395
 21
23.867900171404262
 31
0.0
  0
ARC
  5
BF
330
17
100
AcDbEntity
  8
0
100
AcDbCircle
 10
-44.76662744586642
 20
24.277476193547965
 30
0.0
 40
0.5
100
AcDbArc
 50
145.0
 51
235.0
  0
LINE
  5
C0
330
17
100
AcDbEntity
  8
0
100
AcDbLine
 10
-45.17620346801092
 20
24.56426441172349
 30
0.0
 11
-37.71970979680082
 21
35.21324098554738
 31
0.0
  0
ARC
  5
C1
330
17
100
AcDbEntity
  8
0
100
AcDbCircle
 10
-37.31013377465633
 20
34.926452767371856
 30
0.0
 40
0.5
100
AcDbArc
 50
54.99999999999999
 51
145.0
  0
LINE
  5
C2
330
17
100
AcDbEntity
  8
0
100
AcDbLine
 10
-37.023345555126745
 20
35.33602879145015
 30
0.0
 11
-26.37436897936985
 21
27.879535118886547
 31
0.0
  0
ARC
  5
C3
330
17
100
AcDbEntity
  8
0
100
AcDbCircle
 10
-26.661157198899442
 20
27.469959094808242
 30
0.0
 40
0.5
100
AcDbArc
 50
-35.00000000000001
 51
54.99999999999999
  0
LINE
  5
C4
330
17
100
AcDbEntity
  8
0
100
AcDbLine
 10
-26.251581176754947
 20
27.183170876632722
 30
0.0
 11
-33.70807484796448
 21
16.534194302809635
 31
0.0
  0
ARC
  5
C5
330
17
100
AcDbEntity
  8
0
100
AcDbCircle
 10
-34.11765087204278
 20
16.82098252233922
 30
0.0
 40
0.5
100
AcDbArc
 50
235.0
 51
325.0
  0
LINE
  5
C6
330
17
100
AcDbEntity
  8
0
100
AcDbLine
 10
-49.593502506410644
 20
26.489120531752853
 30
0.0
 11
-61.375503735747536
 21
31.983157933384256
 31
0.0
  0
ARC
  5
C7
330
17
100
AcDbEntity
  8
0
100
AcDbCircle
 10
-61.16419460487759
 20
32.4363118269017
 30
0.0
 40
0.5
100
AcDbArc
 50
155.0
 51
244.99999999999997
  0
LINE
  5
C8
330
17
100
AcDbEntity
  8
0
100
AcDbLine
 10
-61.61734849839592
 20
32.647620957772055
 30
0.0
 11
-56.123311096764105
 21
44.42962218710983
 31
0.0
  0
ARC
  5
C9
330
17
100
AcDbEntity
  8
0
100
AcDbCircle
 10
-55.67015720324578
 20
44.21831305623948
 30
0.0
 40
0.5
100
AcDbArc
 50
64.99999999999999
 51
155.0
  0
LINE
  5
CA
330
17
100
AcDbEntity
  8
0
100
AcDbLine
 10
-55.458848071377744
 20
44.67146695189736
 30
0.0
 11
-43.676846839901295
 21
39.17742954926826
 31
0.0
  0
ARC
  5
CB
330
17
100
AcDbEntity
  8
0
100
AcDbCircle
 10
-43.888155971769336
 20
38.72427565361038
 30
0.0
 40
0.5
100
AcDbArc
 50
-25.000000000000007
 51
64.99999999999999
  0
LINE
  5
CC
330
17
100
AcDbEntity
  8
0
100
AcDbLine
 10
-43.43500207825102
 20
38.51296652274003
 30
0.0
 11
-48.92903947988241
 21
26.730965293403138
 31
0.0
  0
ARC
  5
CD
330
17
100
AcDbEntity
  8
0
100
AcDbCircle
 10
-49.3821933755403
 20
26.94227442527118
 30
0.0
 40
0.5
100
AcDbArc
 50
244.99999999999997
 51
335.0
  0
LINE
  5
CE
330
17
100
AcDbEntity
  8
0
100
AcDbLine
 10
-66.30178659629946
 20
33.77617825998197
 30
0.0
 11
-78.85882233577705
 21
37.14082584570373
 31
0.0
  0
ARC
  5
CF
330
17
100
AcDbEntity
  8
0
100
AcDbCircle
 10
-78.72941281322603
 20
37.62378875884733
 30
0.0
 40
0.5
100
AcDbArc
 50
165.0
 51
255.00000000000003
  0
LINE
  5
D0
330
17
100
AcDbEntity
  8
0
100
AcDbLine
 10
-79.21237572637057
 20
37.753198281398596
 30
0.0
 11
-75.84772814064856
 21
50.310234020877125
 31
0.0
  0
ARC
  5
D1
330
17
100
AcDbEntity
  8
0
100
AcDbCircle
 10
-75.36476522750402
 20
50.18082449832586
 30
0.0
 40
0.5
100
AcDbArc
 50
74.99999999999999
 51
165.0
  0
LINE
  5
D2
330
17
100
AcDbEntity
  8
0
100
AcDbLine
 10
-75.23535570434176
 20
50.66378741375068
 30
0.0
 11
-62.67831996258387
 21
47.29913982741792
 31
0.0
  0
ARC
  5
D3
330
17
100
AcDbEntity
  8
0
100
AcDbCircle
 10
-62.80772948574614
 20
46.81617691199308
 30
0.0
 40
0.5
100
AcDbArc
 50
-15.000000000000009
 51
74.99999999999999
  0
LINE
  5
D4
330
17
100
AcDbEntity
  8
0
100
AcDbLine
 10
-62.324766572601604
 20
46.68676738944182
 30
0.0
 11
-65.68941415832337
 21
34.129731649964235
 31
0.0
  0
ARC
  5
D5
330
17
100
AcDbEntity
  8
0
100
AcDbCircle
 10
-66.17237707374821
 20
34.2591411731265
 30
0.0
 40
0.5
100
AcDbArc
 50
255.00000000000003
 51
345.0
  0
LINE
  5
D6
330
17
100
AcDbEntity
  8
0
100
AcDbLine
 10
-44.51519795635338
 20
45.538174495050754
 30
0.0
 11
-57.07223369583097
 21
48.902822080772516
 31
0.0
  0
ARC
  5
D7
330
17
100
AcDbEntity
  8
0
100
AcDbCircle
 10
-56.94282417327996
 20
49.38578499391612
 30
0.0
 40
0.5
100
AcDbArc
 50
165.0
 51
255.00000000000003
  0
LINE
  5
D8
330
17
100
AcDbEntity
  8
0
100
AcDbLine
 10
-57.42578708642449
 20
49.51519451646738
 30
0.0
 11
-54.06113950070247
 21
62.07223025594591
 31
0.0
  0
ARC
  5
D9
330
17
100
AcDbEntity
  8
0
100
AcDbCircle
 10
-53.578176587557934
 20
61.94282073339465
 30
0.0
 40
0.5
100
AcDbArc
 50
74.99999999999999
 51
165.0
  0
LINE
  5
DA
330
17
100
AcDbEntity
  8
0
100
AcDbLine
 10
-53.448767064395675
 20
62.425783648819476
 30
0.0
 11
-40.89173132263779
 21
59.0611360624867
 31
0.0
  0
ARC
  5
DB
330
17
100
AcDbEntity
  8
0
100
AcDbCircle
 10
-41.021140845800055
 20
58.57817314706186
 30
0.0
 40
0.5
100
AcDbArc
 50
-15.000000000000009
 51
74.99999999999999
  0
LINE
  5
DC
330
17
100
AcDbEntity
  8
0
100
AcDbLine
 10
-40.53817793265552
 20
58.448763624510605
 30
0.0
 11
-43.902825518377284
 21
45.89172788503302
 31
0.0
  0
ARC
  5
DD
330
17
100
AcDbEntity
  8
0
100
AcDbCircle
 10
-44.38578843380212
 20
46.02113740819529
 30
0.0
 40
0.5
100
AcDbArc
 50
255.00000000000003
 51
345.0
  0
LINE
  5
DE
330
17
100
AcDbEntity
  8
0
100
AcDbLine
 10
-24.65363967225052
 20
30.336991253107584
 30
0.0
 11
-35.30261624607361
 21
37.79348492431712
 31
0.0
  0
ARC
  5
DF
330
17
100
AcDbEntity
  8
0
100
AcDbCircle
 10
-35.015828027898635
 20
38.20306094646082
 30
0.0
 40
0.5
100
AcDbArc
 50
145.0
 51
235.0
  0
LINE
  5
E0
330
17
100
AcDbEntity
  8
0
100
AcDbLine
 10
-35.425404050043134
 20
38.48984916463635
 30
0.0
 11
-27.968910378833037
 21
49.138825738460234
 31
0.0
  0
ARC
  5
E1
330
17
100
AcDbEntity
  8
0
100
AcDbCircle
 10
-27.55933435668854
 20
48.85203752028471
 30
0.0
 40
0.5
100
AcDbArc
 50
54.99999999999999
 51
145.0
  0
LINE
  5
E2
330
17
100
AcDbEntity
  8
0
100
AcDbLine
 10
-27.27254613715896
 20
49.261613544363
 30
0.0
 11
-16.623569561402068
 21
41.8051198717994
 31
0.0
  0
ARC
  5
E3
330
17
100
AcDbEntity
  8
0
100
AcDbCircle
 10
-16.91035778093166
 20
41.3955438477211
 30
0.0
 40
0.5
100
AcDbArc
 50
-35.00000000000001
 51
54.99999999999999
  0
LINE
  5
E4
330
17
100
AcDbEntity
  8
0
100
AcDbLine
 10
-16.500781758787163
 20
41.10875562954558
 30
0.0
 11
-23.957275429996695
 21
30.45977905572249
 31
0.0
  0
ARC
  5
E5
330
17
100
AcDbEntity
  8
0
100
AcDbCircle
 10
-24.366851454074997
 20
30.746567275252076
 30
0.0
 40
0.5
100
AcDbArc
 50
235.0
 51
325.0
  0
LINE
  5
E6
330
17
100
AcDbEntity
  8
0
100
AcDbLine
 10
-29.82121158327042
 20
53.04073878531228
 30
0.0
 11
-33.20215767719601
 21
45.79027648901908
 31
0.0
  0
LINE
  5
E7
330
17
100
AcDbEntity
  8
0
100
AcDbLine
 10
-33.20215767719601
 20
45.79027648901908
 30
0.0
 11
-40.45261997348921
 21
49.17122258294467
 31
0.0
  0
LINE
  5
E8
330
17
100
AcDbEntity
  8
0
100
AcDbLine
 10
-40.45261997348921
 20
49.17122258294467
 30
0.0
 11
-37.07167387956362
 21
56.42168487923787
 31
0.0
  0
LINE
  5
E9
330
17
100
AcDbEntity
  8
0
100
AcDbLine
 10
-37.07167387956362
 20
56.42168487923787
 30
0.0
 11
-29.82121158327042
 21
53.04073878531228
 31
0.0
  0
LINE
  5
EA
330
17
100
AcDbEntity
  8
0
100
AcDbLine
 10
-122.07265464869556
 20
50.592649001698476
 30
0.0
 11
-135.07265464633483
 21
50.592649001698476
 31
0.0
  0
ARC
  5
EB
330
17
100
AcDbEntity
  8
0
100
AcDbCircle
 10
-135.07265464633483
 20
51.09264900169751
 30
0.0
 40
0.5
100
AcDbArc
 50
180.0
 51
270.0
  0
LINE
  5
EC
330
17
100
AcDbEntity
  8
0
100
AcDbLine
 10
-135.57265464633483
 20
51.09264900169751
 30
0.0
 11
-135.57265464633483
 21
64.09264899933774
 31
0.0
  0
ARC
  5
ED
330
17
100
AcDbEntity
  8
0
100
AcDbCircle
 10
-135.07265464633483
 20
64.09264899933774
 30
0.0
 40
0.5
100
AcDbArc
 50
89.99999999999999
 51
180.0
  0
LINE
  5
EE
330
17
100
AcDbEntity
  8
0
100
AcDbLine
 10
-135.07265464633483
 20
64.59264900169848
 30
0.0
 11
-122.07265464633483
 21
64.59264900169848
 31
0.0
  0
ARC
  5
EF
330
17
100
AcDbEntity
  8
0
100
AcDbCircle
 10
-122.07265464633483
 20
64.09264899933773
 30
0.0
 40
0.5
100
AcDbArc
 50
-7.951386703658793e-15
 51
89.99999999999999
  0
LINE
  5
F0
330
17
100
AcDbEntity
  8
0
100
AcDbLine
 10
-121.57265464633483
 20
64.09264899933773
 30
0.0
 11
-121.57265464633483
 21
51.092649001698476
 31
0.0
  0
ARC
  5
F1
330
17
100
AcDbEntity
  8
0
100
AcDbCircle
 10
-122.07265464869556
 20
51.092649001698476
 30
0.0
 40
0.5
100
AcDbArc
 50
270.0
 51
360.0
  0
LINE
  5
F2
330
17
100
AcDbEntity
  8
0
100
AcDbLine
 10
-99.86600205469823
 20
60.08766366971642
 30
0.0
 11
-112.66850284153206
 21
62.34508997897658
 31
0.0
  0
ARC
  5
F3
330
17
100
AcDbEntity
  8
0
100
AcDbCircle
 10
-112.58167875269876
 20
62.83749385548173
 30
0.0
 40
0.5
100
AcDbArc
 50
169.99999999999997
 51
260.0
  0
LINE
  5
F4
330
17
100
AcDbEntity
  8
0
100
AcDbLine
 10
-113.07408262920487
 20
62.9243179443152
 30
0.0
 11
-110.81665631994453
 21
75.72681873114999
 31
0.0
  0
ARC
  5
F5
330
17
100
AcDbEntity
  8
0
100
AcDbCircle
 10
-110.32425244343843
 20
75.63999464231652
 30
0.0
 40
0.5
100
AcDbArc
 50
79.99999999999999
 51
169.99999999999997
  0
LINE
  5
F6
330
17
100
AcDbEntity
  8
0
100
AcDbLine
 10
-110.23742835419503
 20
76.1323985211475
 30
0.0
 11
-97.43492756503632
 21
73.8749722114774
 31
0.0
  0
ARC
  5
F7
330
17
100
AcDbEntity
  8
0
100
AcDbCircle
 10
-97.52175165427973
 20
73.38256833264641
 30
0.0
 40
0.5
100
AcDbArc
 50
-10.000000000000009
 51
79.99999999999999
  0
LINE
  5
F8
330
17
100
AcDbEntity
  8
0
100
AcDbLine
 10
-97.02934777777362
 20
73.29574424381295
 30
0.0
 11
-99.28677408703378
 21
60.49324345697912
 31
0.0
  0
ARC
  5
F9
330
17
100
AcDbEntity
  8
0
100
AcDbCircle
 10
-99.77917796586476
 20
60.58006754622252
 30
0.0
 40
0.5
100
AcDbArc
 50
260.0
 51
350.0
  0
LINE
  5
FA
330
17
100
AcDbEntity
  8
0
100
AcDbLine
 10
-78.18854676107411
 20
58.96084488047005
 30
0.0
 11
-90.74558250055169
 21
62.32549246619181
 31
0.0
  0
ARC
  5
FB
330
17
100
AcDbEntity
  8
0
100
AcDbCircle
 10
-90.61617297800068
 20
62.80845537933541
 30
0.0
 40
0.5
100
AcDbArc
 50
165.0
 51
255.00000000000003
  0
LINE
  5
FC
330
17
100
AcDbEntity
  8
0
100
AcDbLine
 10
-91.09913589114521
 20
62.93786490188668
 30
0.0
 11
-87.7344883054232
 21
75.4949006413652
 31
0.0
  0
ARC
  5
FD
330
17
100
AcDbEntity
  8
0
100
AcDbCircle
 10
-87.25152539227867
 20
75.36549111881395
 30
0.0
 40
0.5
100
AcDbArc
 50
74.99999999999999
 51
165.0
  0
LINE
  5
FE
330
17
100
AcDbEntity
  8
0
100
AcDbLine
 10
-87.1221158691164
 20
75.84845403423877
 30
0.0
 11
-74.56508012735851
 21
72.48380644790599
 31
0.0
  0
ARC
  5
FF
330
17
100
AcDbEntity
  8
0
100
AcDbCircle
 10
-74.69448965052078
 20
72.00084353248116
 30
0.0
 40
0.5
100
AcDbArc
 50
-15.000000000000009
 51
74.99999999999999
  0
LINE
  5
100
330
17
100
AcDbEntity
  8
0
100
AcDbLine
 10
-74.21152673737625
 20
71.8714340099299
 30
0.0
 11
-77.57617432309802
 21
59.314398270452315
 31
0.0
  0
ARC
  5
101
330
17
100
AcDbEntity
  8
0
100
AcDbCircle
 10
-78.05913723852285
 20
59.44380779361458
 30
0.0
 40
0.5
100
AcDbArc
 50
255.00000000000003
 51
345.0
  0
LINE
  5
102
330
17
100
AcDbEntity
  8
0
100
AcDbLine
 10
-96.91398303436041
 20
76.82939547092396
 30
0.0
 11
-109.71648382119425
 21
79.08682178018411
 31
0.0
  0
ARC
  5
103
330
17
100
AcDbEntity
  8
0
100
AcDbCircle
 10
-109.62965973236095
 20
79.57922565668926
 30
0.0
 40
0.5
100
AcDbArc
 50
169.99999999999997
 51
260.0
  0
LINE
  5
104
330
17
100
AcDbEntity
  8
0
100
AcDbLine
 10
-110.12206360886705
 20
79.66604974552273
 30
0.0
 11
-107.86463729960671
 21
92.46855053235753
 31
0.0
  0
ARC
  5
105
330
17
100
AcDbEntity
  8
0
100
AcDbCircle
 10
-107.37223342310061
 20
92.38172644352406
 30
0.0
 40
0.5
100
AcDbArc
 50
79.99999999999999
 51
169.99999999999997
  0
LINE
  5
106
330
17
100
AcDbEntity
  8
0
100
AcDbLine
 10
-107.28540933385722
 20
92.87413032235503
 30
0.0
 11
-94.4829085446985
 21
90.61670401268493
 31
0.0
  0
ARC
  5
107
330
17
100
AcDbEntity
  8
0
100
AcDbCircle
 10
-94.56973263394191
 20
90.12430013385395
 30
0.0
 40
0.5
100
AcDbArc
 50
-10.000000000000009
 51
79.99999999999999
  0
LINE
  5
108
330
17
100
AcDbEntity
  8
0
100
AcDbLine
 10
-94.07732875743581
 20
90.03747604502048
 30
0.0
 11
-96.33475506669596
 21
77.23497525818665
 31
0.0
  0
ARC
  5
109
330
17
100
AcDbEntity
  8
0
100
AcDbCircle
 10
-96.82715894552695
 20
77.32179934743006
 30
0.0
 40
0.5
100
AcDbArc
 50
260.0
 51
350.0
  0
LINE
  5
10A
330
17
100
AcDbEntity
  8
0
100
AcDbLine
 10
-73.78862299433126
 20
75.3815839273842
 30
0.0
 11
-86.34565873380885
 21
78.74623151310597
 31
0.0
  0
ARC
  5
10B
330
17
100
AcDbEntity
  8
0
100
AcDbCircle
 10
-86.21624921125783
 20
79.22919442624956
 30
0.0
 40
0.5
100
AcDbArc
 50
165.0
 51
255.00000000000003
  0
LINE
  5
10C
330
17
100
AcDbEntity
  8
0
100
AcDbLine
 10
-86.69921212440237
 20
79.35860394880082
 30
0.0
 11
-83.33456453868035
 21
91.91563968827936
 31
0.0
  0
ARC
  5
10D
330
17
100
AcDbEntity
  8
0
100
AcDbCircle
 10
-82.85160162553582
 20
91.7862301657281
 30
0.0
 40
0.5
100
AcDbArc
 50
74.99999999999999
 51
165.0
  0
LINE
  5
10E
330
17
100
AcDbEntity
  8
0
100
AcDbLine
 10
-82.72219210237355
 20
92.26919308115292
 30
0.0
 11
-70.16515636061567
 21
88.90454549482014
 31
0.0
  0
ARC
  5
10F
330
17
100
AcDbEntity
  8
0
100
AcDbCircle
 10
-70.29456588377793
 20
88.4215825793953
 30
0.0
 40
0.5
100
AcDbArc
 50
-15.000000000000009
 51
74.99999999999999
  0
LINE
  5
110
330
17
100
AcDbEntity
  8
0
100
AcDbLine
 10
-69.8116029706334
 20
88.29217305684405
 30
0.0
 11
-73.17625055635517
 21
75.73513731736647
 31
0.0
  0
ARC
  5
111
330
17
100
AcDbEntity
  8
0
100
AcDbCircle
 10
-73.65921347178
 20
75.86454684052873
 30
0.0
 40
0.5
100
AcDbArc
 50
255.00000000000003
 51
345.0
  0
ENDSEC
  0
SECTION
  2
OBJECTS
  0
DICTIONARY
  5
A
330
0
100
AcDbDictionary
281
1
  3
ACAD_COLOR
350
B
  3
ACAD_GROUP
350
C
  3
ACAD_LAYOUT
350
D
  3
ACAD_MATERIAL
350
E
  3
ACAD_MLEADERSTYLE
350
F
  3
ACAD_MLINESTYLE
350
10
  3
ACAD_PLOTSETTINGS
350
11
  3
ACAD_PLOTSTYLENAME
350
12
  3
ACAD_SCALELIST
350
14
  3
ACAD_TABLESTYLE
350
15
  3
ACAD_VISUALSTYLE
350
16
  3
EZDXF_META
350
2D
  0
DICTIONARY
  5
B
330
A
100
AcDbDictionary
281
1
  0
DICTIONARY
  5
C
330
A
100
AcDbDictionary
281
1
  0
DICTIONARY
  5
D
330
A
100
AcDbDictionary
281
1
  3
Model
350
1A
  3
Layout1
350
1E
  0
DICTIONARY
  5
E
330
A
100
AcDbDictionary
281
1
  3
ByBlock
350
1F
  3
ByLayer
350
20
  3
Global
350
21
  0
DICTIONARY
  5
F
330
A
100
AcDbDictionary
281
1
  3
Standard
350
2C
  0
DICTIONARY
  5
10
330
A
100
AcDbDictionary
281
1
  3
Standard
350
22
  0
DICTIONARY
  5
11
330
A
100
AcDbDictionary
281
1
  0
ACDBDICTIONARYWDFLT
  5
12
330
A
100
AcDbDictionary
281
1
  3
Normal
350
13
100
AcDbDictionaryWithDefault
340
13
  0
ACDBPLACEHOLDER
  5
13
330
12
  0
DICTIONARY
  5
14
330
A
100
AcDbDictionary
281
1
  0
DICTIONARY
  5
15
330
A
100
AcDbDictionary
281
1
  0
DICTIONARY
  5
16
330
A
100
AcDbDictionary
281
1
  0
LAYOUT
  5
1A
330
D
100
AcDbPlotSettings
  1

  4
A3
  6

 40
7.5
 41
20.0
 42
7.5
 43
20.0
 44
420.0
 45
297.0
 46
0.0
 47
0.0
 48
0.0
 49
0.0
140
0.0
141
0.0
142
1.0
143
1.0
 70
1024
 72
1
 73
0
 74
5
  7

 75
16
 76
0
 77
2
 78
300
147
1.0
148
0.0
149
0.0
100
AcDbLayout
  1
Model
 70
1
 71
0
 10
0.0
 20
0.0
 11
420.0
 21
297.0
 12
0.0
 22
0.0
 32
0.0
 14
1e+20
 24
1e+20
 34
1e+20
 15
-1e+20
 25
-1e+20
 35
-1e+20
146
0.0
 13
0.0
 23
0.0
 33
0.0
 16
1.0
 26
0.0
 36
0.0
 17
0.0
 27
1.0
 37
0.0
 76
1
330
17
  0
LAYOUT
  5
1E
330
D
100
AcDbPlotSettings
  1

  4
A3
  6

 40
7.5
 41
20.0
 42
7.5
 43
20.0
 44
420.0
 45
297.0
 46
0.0
 47
0.0
 48
0.0
 49
0.0
140
0.0
141
0.0
142
1.0
143
1.0
 70
0
 72
1
 73
0
 74
5
  7

 75
16
 76
0
 77
2
 78
300
147
1.0
148
0.0
149
0.0
100
AcDbLayout
  1
Layout1
 70
1
 71
1
 10
0.0
 20
0.0
 11
420.0
 21
297.0
 12
0.0
 22
0.0
 32
0.0
 14
1e+20
 24
1e+20
 34
1e+20
 15
-1e+20
 25
-1e+20
 35
-1e+20
146
0.0
 13
0.0
 23
0.0
 33
0.0
 16
1.0
 26
0.0
 36
0.0
 17
0.0
 27
1.0
 37
0.0
 76
1
330
1B
  0
MATERIAL
  5
1F
102
{ACAD_REACTORS
330
E
102
}
330
E
100
AcDbMaterial
  1
ByBlock
  2

 70
0
 40
1.0
 71
1
 41
1.0
 91
-1023410177
 42
1.0
 72
1
  3

 73
1
 74
1
 75
1
 44
0.5
 73
0
 45
1.0
 46
1.0
 77
1
  4

 78
1
 79
1
170
1
 48
1.0
171
1
  6

172
1
173
1
174
1
140
1.0
141
1.0
175
1
  7

176
1
177
1
178
1
143
1.0
179
1
  8

270
1
271
1
272
1
145
1.0
146
1.0
273
1
  9

274
1
275
1
276
1
 42
1.0
 72
1
  3

 73
1
 74
1
 75
1
 94
63
  0
MATERIAL
  5
20
102
{ACAD_REACTORS
330
E
102
}
330
E
100
AcDbMaterial
  1
ByLayer
  2

 70
0
 40
1.0
 71
1
 41
1.0
 91
-1023410177
 42
1.0
 72
1
  3

 73
1
 74
1
 75
1
 44
0.5
 73
0
 45
1.0
 46
1.0
 77
1
  4

 78
1
 79
1
170
1
 48
1.0
171
1
  6

172
1
173
1
174
1
140
1.0
141
1.0
175
1
  7

176
1
177
1
178
1
143
1.0
179
1
  8

270
1
271
1
272
1
145
1.0
146
1.0
273
1
  9

274
1
275
1
276
1
 42
1.0
 72
1
  3

 73
1
 74
1
 75
1
 94
63
  0
MATERIAL
  5
21
102
{ACAD_REACTORS
330
E
102
}
330
E
100
AcDbMaterial
  1
Global
  2

 70
0
 40
1.0
 71
1
 41
1.0
 91
-1023410177
 42
1.0
 72
1
  3

 73
1
 74
1
 75
1
 44
0.5
 73
0
 45
1.0
 46
1.0
 77
1
  4

 78
1
 79
1
170
1
 48
1.0
171
1
  6

172
1
173
1
174
1
140
1.0
141
1.0
175
1
  7

176
1
177
1
178
1
143
1.0
179
1
  8

270
1
271
1
272
1
145
1.0
146
1.0
273
1
  9

274
1
275
1
276
1
 42
1.0
 72
1
  3

 73
1
 74
1
 75
1
 94
63
  0
MLINESTYLE
  5
22
102
{ACAD_REACTORS
330
10
102
}
330
10
100
AcDbMlineStyle
  2
Standard
 70
0
  3

 62
256
 51
90.0
 52
90.0
 71
2
 49
0.5
 62
256
  6
BYLAYER
 49
-0.5
 62
256
  6
BYLAYER
  0
MLEADERSTYLE
  5
2C
102
{ACAD_REACTORS
330
F
102
}
330
F
100
AcDbMLeaderStyle
179
2
170
2
171
1
172
0
 90
2
 40
0.0
 41
0.0
173
1
 91
-1056964608
 92
-2
290
1
 42
2.0
291
1
 43
8.0
  3
Standard
 44
4.0
300

342
29
174
1
175
1
176
0
178
1
 93
-1056964608
 45
4.0
292
0
297
0
 46
4.0
 94
-1056964608
 47
1.0
 49
1.0
140
1.0
294
1
141
0.0
177
0
142
1.0
295
0
296
0
143
3.75
271
0
272
9
273
9
  0
DICTIONARY
  5
2D
330
A
100
AcDbDictionary
280
1
281
1
  3
CREATED_BY_EZDXF
350
2E
  3
WRITTEN_BY_EZDXF
350
115
  0
DICTIONARYVAR
  5
2E
330
2D
100
DictionaryVariables
280
0
  1
1.4.4 @ 2026-07-22T20:27:43.894144+00:00
  0
DICTIONARYVAR
  5
115
330
2D
100
DictionaryVariables
280
0
  1
1.4.4 @ 2026-07-22T20:27:43.931740+00:00
  0
ENDSEC
  0
EOF
