  0
SECTION
  2
HEADER
  9
$ACADVER
  1
AC1027
  9
$ACADMAINTVER
 70
105
  9
$DWGCODEPAGE
  3
ANSI_1252
  9
$LASTSAVEDBY
  1
ezdxf
  9
$REQUIREDVERSIONS
160
0
  9
$INSBASE
 10
0.0
 20
0.0
 30
0.0
  9
$EXTMIN
 10
1e+20
 20
1e+20
 30
1e+20
  9
$EXTMAX
 10
-1e+20
 20
-1e+20
 30
-1e+20
  9
$LIMMIN
 10
0.0
 20
0.0
  9
$LIMMAX
 10
420.0
 20
297.0
  9
$ORTHOMODE
 70
0
  9
$REGENMODE
 70
1
  9
$FILLMODE
 70
1
  9
$QTEXTMODE
 70
0
  9
$MIRRTEXT
 70
1
  9
$LTSCALE
 40
1.0
  9
$ATTMODE
 70
1
  9
$TEXTSIZE
 40
2.5
  9
$TRACEWID
 40
1.0
  9
$TEXTSTYLE
  7
Standard
  9
$CLAYER
  8
0
  9
$CELTYPE
  6
ByLayer
  9
$CECOLOR
 62
256
  9
$CELTSCALE
 40
1.0
  9
$DISPSILH
 70
0
  9
$DIMSCALE
 40
1.0
  9
$DIMASZ
 40
2.5
  9
$DIMEXO
 40
0.625
  9
$DIMDLI
 40
3.75
  9
$DIMRND
 40
0.0
  9
$DIMDLE
 40
0.0
  9
$DIMEXE
 40
1.25
  9
$DIMTP
 40
0.0
  9
$DIMTM
 40
0.0
  9
$DIMTXT
 40
2.5
  9
$DIMCEN
 40
2.5
  9
$DIMTSZ
 40
0.0
  9
$DIMTOL
 70
0
  9
$DIMLIM
 70
0
  9
$DIMTIH
 70
0
  9
$DIMTOH
 70
0
  9
$DIMSE1
 70
0
  9
$DIMSE2
 70
0
  9
$DIMTAD
 70
1
  9
$DIMZIN
 70
8
  9
$DIMBLK
  1

  9
$DIMASO
 70
1
  9
$DIMSHO
 70
1
  9
$DIMPOST
  1

  9
$DIMAPOST
  1

  9
$DIMALT
 70
0
  9
$DIMALTD
 70
3
  9
$DIMALTF
 40
0.03937007874
  9
$DIMLFAC
 40
1.0
  9
$DIMTOFL
 70
1
  9
$DIMTVP
 40
0.0
  9
$DIMTIX
 70
0
  9
$DIMSOXD
 70
0
  9
$DIMSAH
 70
0
  9
$DIMBLK1
  1

  9
$DIMBLK2
  1

  9
$DIMSTYLE
  2
ISO-25
  9
$DIMCLRD
 70
0
  9
$DIMCLRE
 70
0
  9
$DIMCLRT
 70
0
  9
$DIMTFAC
 40
1.0
  9
$DIMGAP
 40
0.625
  9
$DIMJUST
 70
0
  9
$DIMSD1
 70
0
  9
$DIMSD2
 70
0
  9
$DIMTOLJ
 70
0
  9
$DIMTZIN
 70
8
  9
$DIMALTZ
 70
0
  9
$DIMALTTZ
 70
0
  9
$DIMUPT
 70
0
  9
$DIMDEC
 70
2
  9
$DIMTDEC
 70
2
  9
$DIMALTU
 70
2
  9
$DIMALTTD
 70
3
  9
$DIMTXSTY
  7
Standard
  9
$DIMAUNIT
 70
0
  9
$DIMADEC
 70
0
  9
$DIMALTRND
 40
0.0
  9
$DIMAZIN
 70
0
  9
$DIMDSEP
 70
44
  9
$DIMATFIT
 70
3
  9
$DIMFRAC
 70
0
  9
$DIMLDRBLK
  1

  9
$DIMLUNIT
 70
2
  9
$DIMLWD
 70
-2
  9
$DIMLWE
 70
-2
  9
$DIMTMOVE
 70
0
  9
$DIMFXL
 40
1.0
  9
$DIMFXLON
 70
0
  9
$DIMJOGANG
 40
0.785398163397
  9
$DIMTFILL
 70
0
  9
$DIMTFILLCLR
 70
0
  9
$DIMARCSYM
 70
0
  9
$DIMLTYPE
  6

  9
$DIMLTEX1
  6

  9
$DIMLTEX2
  6

  9
$DIMTXTDIRECTION
 70
0
  9
$LUNITS
 70
2
  9
$LUPREC
 70
4
  9
$SKETCHINC
 40
1.0
  9
$FILLETRAD
 40
10.0
  9
$AUNITS
 70
0
  9
$AUPREC
 70
2
  9
$MENU
  1
.
  9
$ELEVATION
 40
0.0
  9
$PELEVATION
 40
0.0
  9
$THICKNESS
 40
0.0
  9
$LIMCHECK
 70
0
  9
$CHAMFERA
 40
0.0
  9
$CHAMFERB
 40
0.0
  9
$CHAMFERC
 40
0.0
  9
$CHAMFERD
 40
0.0
  9
$SKPOLY
 70
0
  9
$TDCREATE
 40
2461176.672025463
  9
$TDUCREATE
 40
2458532.153996898
  9
$TDUPDATE
 40
2461176.672025463
  9
$TDUUPDATE
 40
2458532.1544311
  9
$TDINDWG
 40
0.0
  9
$TDUSRTIMER
 40
0.0
  9
$USRTIMER
 70
1
  9
$ANGBASE
 50
0.0
  9
$ANGDIR
 70
0
  9
$PDMODE
 70
0
  9
$PDSIZE
 40
0.0
  9
$PLINEWID
 40
0.0
  9
$SPLFRAME
 70
0
  9
$SPLINETYPE
 70
6
  9
$SPLINESEGS
 70
8
  9
$HANDSEED
  5
110
  9
$SURFTAB1
 70
6
  9
$SURFTAB2
 70
6
  9
$SURFTYPE
 70
6
  9
$SURFU
 70
6
  9
$SURFV
 70
6
  9
$UCSBASE
  2

  9
$UCSNAME
  2

  9
$UCSORG
 10
0.0
 20
0.0
 30
0.0
  9
$UCSXDIR
 10
1.0
 20
0.0
 30
0.0
  9
$UCSYDIR
 10
0.0
 20
1.0
 30
0.0
  9
$UCSORTHOREF
  2

  9
$UCSORTHOVIEW
 70
0
  9
$UCSORGTOP
 10
0.0
 20
0.0
 30
0.0
  9
$UCSORGBOTTOM
 10
0.0
 20
0.0
 30
0.0
  9
$UCSORGLEFT
 10
0.0
 20
0.0
 30
0.0
  9
$UCSORGRIGHT
 10
0.0
 20
0.0
 30
0.0
  9
$UCSORGFRONT
 10
0.0
 20
0.0
 30
0.0
  9
$UCSORGBACK
 10
0.0
 20
0.0
 30
0.0
  9
$PUCSBASE
  2

  9
$PUCSNAME
  2

  9
$PUCSORG
 10
0.0
 20
0.0
 30
0.0
  9
$PUCSXDIR
 10
1.0
 20
0.0
 30
0.0
  9
$PUCSYDIR
 10
0.0
 20
1.0
 30
0.0
  9
$PUCSORTHOREF
  2

  9
$PUCSORTHOVIEW
 70
0
  9
$PUCSORGTOP
 10
0.0
 20
0.0
 30
0.0
  9
$PUCSORGBOTTOM
 10
0.0
 20
0.0
 30
0.0
  9
$PUCSORGLEFT
 10
0.0
 20
0.0
 30
0.0
  9
$PUCSORGRIGHT
 10
0.0
 20
0.0
 30
0.0
  9
$PUCSORGFRONT
 10
0.0
 20
0.0
 30
0.0
  9
$PUCSORGBACK
 10
0.0
 20
0.0
 30
0.0
  9
$USERI1
 70
0
  9
$USERI2
 70
0
  9
$USERI3
 70
0
  9
$USERI4
 70
0
  9
$USERI5
 70
0
  9
$USERR1
 40
0.0
  9
$USERR2
 40
0.0
  9
$USERR3
 40
0.0
  9
$USERR4
 40
0.0
  9
$USERR5
 40
0.0
  9
$WORLDVIEW
 70
1
  9
$SHADEDGE
 70
3
  9
$SHADEDIF
 70
70
  9
$TILEMODE
 70
1
  9
$MAXACTVP
 70
64
  9
$PINSBASE
 10
0.0
 20
0.0
 30
0.0
  9
$PLIMCHECK
 70
0
  9
$PEXTMIN
 10
1e+20
 20
1e+20
 30
1e+20
  9
$PEXTMAX
 10
-1e+20
 20
-1e+20
 30
-1e+20
  9
$PLIMMIN
 10
0.0
 20
0.0
  9
$PLIMMAX
 10
420.0
 20
297.0
  9
$UNITMODE
 70
0
  9
$VISRETAIN
 70
1
  9
$PLINEGEN
 70
0
  9
$PSLTSCALE
 70
1
  9
$TREEDEPTH
 70
3020
  9
$CMLSTYLE
  2
Standard
  9
$CMLJUST
 70
0
  9
$CMLSCALE
 40
20.0
  9
$PROXYGRAPHICS
 70
1
  9
$MEASUREMENT
 70
1
  9
$CELWEIGHT
370
-1
  9
$ENDCAPS
280
0
  9
$JOINSTYLE
280
0
  9
$LWDISPLAY
290
0
  9
$INSUNITS
 70
4
  9
$HYPERLINKBASE
  1

  9
$STYLESHEET
  1

  9
$XEDIT
290
1
  9
$CEPSNTYPE
380
0
  9
$PSTYLEMODE
290
1
  9
$FINGERPRINTGUID
  2
{62B9ED09-CB4E-499F-9BD2-4C4BBA9ECE3D}
  9
$VERSIONGUID
  2
{6627A71C-8110-4017-8C51-2EA5ECB4B168}
  9
$EXTNAMES
290
1
  9
$PSVPSCALE
 40
0.0
  9
$OLESTARTUP
290
0
  9
$SORTENTS
280
127
  9
$INDEXCTL
280
0
  9
$HIDETEXT
280
1
  9
$XCLIPFRAME
280
1
  9
$HALOGAP
280
0
  9
$OBSCOLOR
 70
257
  9
$OBSLTYPE
280
0
  9
$INTERSECTIONDISPLAY
280
0
  9
$INTERSECTIONCOLOR
 70
257
  9
$DIMASSOC
280
2
  9
$PROJECTNAME
  1

  9
$CAMERADISPLAY
290
0
  9
$LENSLENGTH
 40
50.0
  9
$CAMERAHEIGHT
 40
0.0
  9
$STEPSPERSEC
 40
24.0
  9
$STEPSIZE
 40
100.0
  9
$3DDWFPREC
 40
2.0
  9
$PSOLWIDTH
 40
0.005
  9
$PSOLHEIGHT
 40
0.08
  9
$LOFTANG1
 40
1.570796326795
  9
$LOFTANG2
 40
1.570796326795
  9
$LOFTMAG1
 40
0.0
  9
$LOFTMAG2
 40
0.0
  9
$LOFTPARAM
 70
7
  9
$LOFTNORMALS
280
1
  9
$LATITUDE
 40
37.795
  9
$LONGITUDE
 40
-122.394
  9
$NORTHDIRECTION
 40
0.0
  9
$TIMEZONE
 70
-8000
  9
$LIGHTGLYPHDISPLAY
280
1
  9
$TILEMODELIGHTSYNCH
280
1
  9
$CMATERIAL
347
20
  9
$SOLIDHIST
280
0
  9
$SHOWHIST
280
1
  9
$DWFFRAME
280
2
  9
$DGNFRAME
280
2
  9
$REALWORLDSCALE
290
1
  9
$INTERFERECOLOR
 62
256
  9
$CSHADOW
280
0
  9
$SHADOWPLANELOCATION
 40
0.0
  0
ENDSEC
  0
SECTION
  2
CLASSES
  0
CLASS
  1
ACDBDICTIONARYWDFLT
  2
AcDbDictionaryWithDefault
  3
ObjectDBX Classes
 90
0
 91
0
280
0
281
0
  0
CLASS
  1
SUN
  2
AcDbSun
  3
SCENEOE
 90
1153
 91
0
280
0
281
0
  0
CLASS
  1
VISUALSTYLE
  2
AcDbVisualStyle
  3
ObjectDBX Classes
 90
4095
 91
0
280
0
281
0
  0
CLASS
  1
MATERIAL
  2
AcDbMaterial
  3
ObjectDBX Classes
 90
1153
 91
0
280
0
281
0
  0
CLASS
  1
SCALE
  2
AcDbScale
  3
ObjectDBX Classes
 90
1153
 91
0
280
0
281
0
  0
CLASS
  1
TABLESTYLE
  2
AcDbTableStyle
  3
ObjectDBX Classes
 90
4095
 91
0
280
0
281
0
  0
CLASS
  1
MLEADERSTYLE
  2
AcDbMLeaderStyle
  3
ACDB_MLEADERSTYLE_CLASS
 90
4095
 91
0
280
0
281
0
  0
CLASS
  1
DICTIONARYVAR
  2
AcDbDictionaryVar
  3
ObjectDBX Classes
 90
0
 91
0
280
0
281
0
  0
CLASS
  1
CELLSTYLEMAP
  2
AcDbCellStyleMap
  3
ObjectDBX Classes
 90
1152
 91
0
280
0
281
0
  0
CLASS
  1
MENTALRAYRENDERSETTINGS
  2
AcDbMentalRayRenderSettings
  3
SCENEOE
 90
1024
 91
0
280
0
281
0
  0
CLASS
  1
ACDBDETAILVIEWSTYLE
  2
AcDbDetailViewStyle
  3
ObjectDBX Classes
 90
1025
 91
0
280
0
281
0
  0
CLASS
  1
ACDBSECTIONVIEWSTYLE
  2
AcDbSectionViewStyle
  3
ObjectDBX Classes
 90
1025
 91
0
280
0
281
0
  0
CLASS
  1
RASTERVARIABLES
  2
AcDbRasterVariables
  3
ISM
 90
0
 91
0
280
0
281
0
  0
CLASS
  1
LAYOUT
  2
AcDbLayout
  3
ObjectDBX Classes
 90
0
 91
0
280
0
281
0
  0
CLASS
  1
ACDBPLACEHOLDER
  2
AcDbPlaceHolder
  3
ObjectDBX Classes
 90
0
 91
0
280
0
281
0
  0
ENDSEC
  0
SECTION
  2
TABLES
  0
TABLE
  2
VPORT
  5
8
330
0
100
AcDbSymbolTable
 70
1
  0
VPORT
  5
10C
330
8
100
AcDbSymbolTableRecord
100
AcDbViewportTableRecord
  2
*Active
 70
0
 10
0.0
 20
0.0
 11
1.0
 21
1.0
 12
-54.781418897716264
 22
56.10251989228627
 13
0.0
 23
0.0
 14
0.5
 24
0.5
 15
0.5
 25
0.5
 16
0.0
 26
0.0
 36
1.0
 17
0.0
 27
0.0
 37
0.0
 40
123.66660244463765
 41
1.34
 42
50.0
 43
0.0
 44
0.0
 50
0.0
 51
0.0
 71
0
 72
1000
 73
1
 74
3
 75
0
 76
0
 77
0
 78
0
281
0
 65
1
110
0.0
120
0.0
130
0.0
111
1.0
121
0.0
131
0.0
112
0.0
122
1.0
132
0.0
 79
0
146
0.0
  0
ENDTAB
  0
TABLE
  2
LTYPE
  5
2
330
0
100
AcDbSymbolTable
 70
3
  0
LTYPE
  5
24
330
2
100
AcDbSymbolTableRecord
100
AcDbLinetypeTableRecord
  2
ByBlock
 70
0
  3

 72
65
 73
0
 40
0.0
  0
LTYPE
  5
25
330
2
100
AcDbSymbolTableRecord
100
AcDbLinetypeTableRecord
  2
ByLayer
 70
0
  3

 72
65
 73
0
 40
0.0
  0
LTYPE
  5
26
330
2
100
AcDbSymbolTableRecord
100
AcDbLinetypeTableRecord
  2
Continuous
 70
0
  3

 72
65
 73
0
 40
0.0
  0
ENDTAB
  0
TABLE
  2
LAYER
  5
1
330
0
100
AcDbSymbolTable
 70
2
  0
LAYER
  5
27
330
1
100
AcDbSymbolTableRecord
100
AcDbLayerTableRecord
  2
0
 70
0
 62
7
  6
Continuous
370
-3
390
13
347
21
  0
LAYER
  5
28
330
1
100
AcDbSymbolTableRecord
100
AcDbLayerTableRecord
  2
Defpoints
 70
0
 62
7
  6
Continuous
290
0
370
-3
390
13
347
21
  0
ENDTAB
  0
TABLE
  2
STYLE
  5
5
330
0
100
AcDbSymbolTable
 70
1
  0
STYLE
  5
29
330
5
100
AcDbSymbolTableRecord
100
AcDbTextStyleTableRecord
  2
Standard
 70
0
 40
0.0
 41
1.0
 50
0.0
 71
0
 42
2.5
  3
txt
  4

  0
ENDTAB
  0
TABLE
  2
VIEW
  5
7
330
0
100
AcDbSymbolTable
 70
0
  0
ENDTAB
  0
TABLE
  2
UCS
  5
6
330
0
100
AcDbSymbolTable
 70
0
  0
ENDTAB
  0
TABLE
  2
APPID
  5
3
330
0
100
AcDbSymbolTable
 70
3
  0
APPID
  5
2A
330
3
100
AcDbSymbolTableRecord
100
AcDbRegAppTableRecord
  2
ACAD
 70
0
  0
APPID
  5
10D
330
3
100
AcDbSymbolTableRecord
100
AcDbRegAppTableRecord
  2
HATCHBACKGROUNDCOLOR
 70
0
  0
APPID
  5
10E
330
3
100
AcDbSymbolTableRecord
100
AcDbRegAppTableRecord
  2
EZDXF
 70
0
  0
ENDTAB
  0
TABLE
  2
DIMSTYLE
  5
4
330
0
100
AcDbSymbolTable
 70
1
100
AcDbDimStyleTable
  0
DIMSTYLE
105
2B
330
4
100
AcDbSymbolTableRecord
100
AcDbDimStyleTableRecord
  2
Standard
 70
0
 40
1.0
 41
2.5
 42
0.625
 43
3.75
 44
1.25
 45
0.0
 46
0.0
 47
0.0
 48
0.0
 49
2.5
140
2.5
141
2.5
142
0.0
143
0.03937007874
144
1.0
145
0.0
146
1.0
147
0.625
148
0.0
 69
0
 70
0
 71
0
 72
0
 73
0
 74
0
 75
0
 76
0
 77
1
 78
8
 79
3
170
0
171
3
172
1
173
0
174
0
175
0
176
0
177
0
178
0
179
2
271
2
272
2
273
2
274
3
275
0
276
0
277
2
278
44
279
0
280
0
281
0
282
0
283
0
284
8
285
0
286
0
288
0
289
3
290
0
371
-2
372
-2
  0
ENDTAB
  0
TABLE
  2
BLOCK_RECORD
  5
9
330
0
100
AcDbSymbolTable
 70
2
  0
BLOCK_RECORD
  5
17
330
9
100
AcDbSymbolTableRecord
100
AcDbBlockTableRecord
  2
*Model_Space
340
1A
 70
0
280
1
281
0
  0
BLOCK_RECORD
  5
1B
330
9
100
AcDbSymbolTableRecord
100
AcDbBlockTableRecord
  2
*Paper_Space
340
1E
 70
0
280
1
281
0
  0
ENDTAB
  0
ENDSEC
  0
SECTION
  2
BLOCKS
  0
BLOCK
  5
18
330
17
100
AcDbEntity
  8
0
100
AcDbBlockBegin
  2
*Model_Space
 70
0
 10
0.0
 20
0.0
 30
0.0
  3
*Model_Space
  1

  0
ENDBLK
  5
19
330
17
100
AcDbEntity
  8
0
100
AcDbBlockEnd
  0
BLOCK
  5
1C
330
1B
100
AcDbEntity
  8
0
100
AcDbBlockBegin
  2
*Paper_Space
 70
0
 10
0.0
 20
0.0
 30
0.0
  3
*Paper_Space
  1

  0
ENDBLK
  5
1D
330
1B
100
AcDbEntity
  8
0
100
AcDbBlockEnd
  0
ENDSEC
  0
SECTION
  2
ENTITIES
  0
LINE
  5
2F
330
17
100
AcDbEntity
  8
0
100
AcDbLine
 10
-5.389966059044427
 20
54.58965162080286
 30
0.0
 11
12.020815280171318
 21
42.39849128096305
 31
0.0
  0
LINE
  5
30
330
17
100
AcDbEntity
  8
0
100
AcDbLine
 10
-5.389966059044427
 20
97.84049417066502
 30
0.0
 11
-5.389966059044427
 21
54.58965162080286
 31
0.0
  0
LINE
  5
31
330
17
100
AcDbEntity
  8
0
100
AcDbLine
 10
12.02081528017132
 20
42.39849128096305
 30
0.0
 11
12.02081528017132
 21
0.4791847198286945
 31
0.0
  0
ARC
  5
32
330
17
100
AcDbEntity
  8
0
100
AcDbCircle
 10
12.020815280171291
 20
212.03257401644302
 30
0.0
 40
115.5117587362717
100
AcDbArc
 50
-461.7663021205924
 51
-458.66907992225435
  0
ARC
  5
33
330
17
100
AcDbEntity
  8
0
100
AcDbCircle
 10
12.02081528017132
 20
-12.02081528017132
 30
0.0
 40
12.500000000000018
100
AcDbArc
 50
450.0
 51
494.9994999999618
  0
LINE
  5
34
330
17
100
AcDbEntity
  8
0
100
AcDbLine
 10
-11.897229993985597
 20
97.4369248087343
 30
0.0
 11
-11.534377962420342
 21
98.94800708686246
 31
0.0
  0
LINE
  5
35
330
17
100
AcDbEntity
  8
0
100
AcDbLine
 10
3.1820576495239865
 20
-3.1819033827435055
 30
0.0
 11
1.4141857953072001
 21
-4.9497443820425815
 31
0.0
  0
ARC
  5
36
330
17
100
AcDbEntity
  8
0
100
AcDbCircle
 10
-15.299514892405433
 20
98.25390612419562
 30
0.0
 40
3.499
100
AcDbArc
 50
256.4973731280481
 51
346.4973731280481
  0
ARC
  5
37
330
17
100
AcDbEntity
  8
0
100
AcDbCircle
 10
-1.5425669602109338e-05
 20
-3.5355184783808937
 30
0.0
 40
2.0
100
AcDbArc
 50
-135.0
 51
-45.000500000038315
  0
LINE
  5
38
330
17
100
AcDbEntity
  8
0
100
AcDbLine
 10
-16.11844092512114
 20
94.8520882053564
 30
0.0
 11
-16.11649620787247
 21
94.85162122575196
 31
0.0
  0
LINE
  5
39
330
17
100
AcDbEntity
  8
0
100
AcDbLine
 10
-1.4142289889838158
 20
-4.949732041695107
 30
0.0
 11
-2.47488607543281
 21
-3.8890749552461124
 31
0.0
  0
ARC
  5
3A
330
17
100
AcDbEntity
  8
0
100
AcDbCircle
 10
-15.301459609654104
 20
98.25437310380005
 30
0.0
 40
3.499
100
AcDbArc
 50
166.4973731280481
 51
256.4973731280481
  0
LINE
  5
3B
330
17
100
AcDbEntity
  8
0
100
AcDbLine
 10
-2.47488607543281
 20
-3.889074955246112
 30
0.0
 11
-1.413518796871812
 21
-2.8277076766851144
 31
0.0
  0
LINE
  5
3C
330
17
100
AcDbEntity
  8
0
100
AcDbLine
 10
-18.340892477740418
 20
100.5824366976861
 30
0.0
 11
-18.703744509305857
 21
99.07135441955718
 31
0.0
  0
ARC
  5
3D
330
17
100
AcDbEntity
  8
0
100
AcDbCircle
 10
-3.8876854251220787
 20
-0.3535410484348471
 30
0.0
 40
3.499
100
AcDbArc
 50
-45.00000000000003
 51
44.99999999999997
  0
ARC
  5
3E
330
17
100
AcDbEntity
  8
0
100
AcDbCircle
 10
12.020815280171291
 20
212.03257401644302
 30
0.0
 40
115.5117587362717
100
AcDbArc
 50
-477.0052537439038
 51
-465.238951623324
  0
LINE
  5
3F
330
17
100
AcDbEntity
  8
0
100
AcDbLine
 10
-1.4135187977503483
 20
2.120625578936883
 30
0.0
 11
-1.414933010451505
 21
2.1220397916380396
 31
0.0
  0
ARC
  5
40
330
17
100
AcDbEntity
  8
0
100
AcDbCircle
 10
-74.87957651007231
 20
41.51960632380897
 30
0.0
 40
75.86836103756242
100
AcDbArc
 50
62.99474625609618
 51
92.7581788278299
  0
ARC
  5
41
330
17
100
AcDbEntity
  8
0
100
AcDbCircle
 10
-3.889099637823236
 20
-0.35212683573368997
 30
0.0
 40
3.499
100
AcDbArc
 50
44.99999999999997
 51
134.99999999999997
  0
LINE
  5
42
330
17
100
AcDbEntity
  8
0
100
AcDbLine
 10
-78.39670383253029
 20
115.88615931027388
 30
0.0
 11
-78.53041599445832
 21
117.30007595540451
 31
0.0
  0
LINE
  5
43
330
17
100
AcDbEntity
  8
0
100
AcDbLine
 10
-6.363266265177645
 20
2.122039791620719
 30
0.0
 11
-7.424633543738642
 21
1.0606725130597212
 31
0.0
  0
ARC
  5
44
330
17
100
AcDbEntity
  8
0
100
AcDbCircle
 10
-81.88016182796576
 20
115.5567334553911
 30
0.0
 40
3.499
100
AcDbArc
 50
275.40231696357336
 51
365.40231696357336
  0
LINE
  5
45
330
17
100
AcDbEntity
  8
0
100
AcDbLine
 10
-7.424633543738642
 20
1.0606725130597203
 30
0.0
 11
-9.545941546018362
 21
3.1819805153394416
 31
0.0
  0
LINE
  5
46
330
17
100
AcDbEntity
  8
0
100
AcDbLine
 10
-81.5527270881845
 20
112.07308716290107
 30
0.0
 11
-81.55073597308068
 21
112.07327545993124
 31
0.0
  0
ARC
  5
47
330
17
100
AcDbEntity
  8
0
100
AcDbCircle
 10
-79.10436846407416
 20
-66.37644640271634
 30
0.0
 40
98.37047072485228
100
AcDbArc
 50
405.0
 51
435.0000000000004
  0
ARC
  5
48
330
17
100
AcDbEntity
  8
0
100
AcDbCircle
 10
-81.88215294306958
 20
115.55654515836093
 30
0.0
 40
3.499
100
AcDbArc
 50
185.40231696357333
 51
275.40231696357336
  0
ARC
  5
49
330
17
100
AcDbEntity
  8
0
100
AcDbCircle
 10
-233.35919283815815
 20
-642.0632882794296
 30
0.0
 40
694.3653454953181
100
AcDbArc
 50
435.00000000000045
 51
436.6211602111369
  0
LINE
  5
4A
330
17
100
AcDbEntity
  8
0
100
AcDbLine
 10
-85.49932310169429
 20
116.64103594848834
 30
0.0
 11
-85.36561093976636
 21
115.22711930335886
 31
0.0
  0
LINE
  5
4B
330
17
100
AcDbEntity
  8
0
100
AcDbLine
 10
-72.6909491650292
 20
33.457953799474055
 30
0.0
 11
-72.3490020117894
 21
34.92854272229369
 31
0.0
  0
ARC
  5
4C
330
17
100
AcDbEntity
  8
0
100
AcDbCircle
 10
-74.87957651007231
 20
41.51960632380897
 30
0.0
 40
75.86836103756242
100
AcDbArc
 50
98.04645509933535
 51
127.24220662597966
  0
ARC
  5
4D
330
17
100
AcDbEntity
  8
0
100
AcDbCircle
 10
-75.75708180116979
 20
35.721002915559865
 30
0.0
 40
3.499
100
AcDbArc
 50
-13.090034941694325
 51
76.90996505830567
  0
ARC
  5
4E
330
17
100
AcDbEntity
  8
0
100
AcDbCircle
 10
-119.58365304755313
 20
100.32505082775543
 30
0.0
 40
2.0
100
AcDbArc
 50
127.24220662597962
 51
180.0
  0
LINE
  5
4F
330
17
100
AcDbEntity
  8
0
100
AcDbLine
 10
-74.96462160818501
 20
39.129082703730106
 30
0.0
 11
-74.9665696377436
 21
39.129535667268485
 31
0.0
  0
LINE
  5
50
330
17
100
AcDbEntity
  8
0
100
AcDbLine
 10
-121.58365307560385
 20
76.55173298153979
 30
0.0
 11
-121.58365307560385
 21
100.32505082775543
 31
0.0
  0
ARC
  5
51
330
17
100
AcDbEntity
  8
0
100
AcDbCircle
 10
-75.75902983072838
 20
35.721455879098244
 30
0.0
 40
3.499
100
AcDbArc
 50
76.90996505830567
 51
166.90996505830566
  0
LINE
  5
52
330
17
100
AcDbEntity
  8
0
100
AcDbLine
 10
-120.08265307560384
 20
76.55173298153979
 30
0.0
 11
-121.58365307560385
 21
76.55173298153979
 31
0.0
  0
LINE
  5
53
330
17
100
AcDbEntity
  8
0
100
AcDbLine
 10
-79.16710961887476
 20
36.51391607207748
 30
0.0
 11
-79.5090567721146
 21
35.04332714925769
 31
0.0
  0
ARC
  5
54
330
17
100
AcDbEntity
  8
0
100
AcDbCircle
 10
-120.08265307560384
 20
73.05273298156428
 30
0.0
 40
3.499
100
AcDbArc
 50
360.0
 51
450.0
  0
ARC
  5
55
330
17
100
AcDbEntity
  8
0
100
AcDbCircle
 10
-233.35919283815815
 20
-642.0632882794296
 30
0.0
 40
694.3653454953181
100
AcDbArc
 50
437.19876990547505
 51
438.81993011661126
  0
LINE
  5
56
330
17
100
AcDbEntity
  8
0
100
AcDbLine
 10
-116.58365307560385
 20
73.05073298278222
 30
0.0
 11
-116.58365307560385
 21
73.05273298156428
 31
0.0
  0
ARC
  5
57
330
17
100
AcDbEntity
  8
0
100
AcDbCircle
 10
-45.142373472857656
 20
310.23954039628484
 30
0.0
 40
276.3592542732039
100
AcDbArc
 50
-105.7432910892724
 51
-101.18006988338873
  0
ARC
  5
58
330
17
100
AcDbEntity
  8
0
100
AcDbCircle
 10
-120.08265307560384
 20
73.05073298278222
 30
0.0
 40
3.499
100
AcDbArc
 50
270.0
 51
360.0
  0
ARC
  5
59
330
17
100
AcDbEntity
  8
0
100
AcDbCircle
 10
-119.58365307543977
 20
46.172321119679566
 30
0.0
 40
2.0
100
AcDbArc
 50
-180.0
 51
-105.74329108927236
  0
LINE
  5
5A
330
17
100
AcDbEntity
  8
0
100
AcDbLine
 10
-121.58365307560385
 20
69.55173298153979
 30
0.0
 11
-120.08265307560384
 21
69.55173298153979
 31
0.0
  0
LINE
  5
5B
330
17
100
AcDbEntity
  8
0
100
AcDbLine
 10
-121.58365307560385
 20
46.172321119679566
 30
0.0
 11
-121.58365307560385
 21
69.55173298153979
 31
0.0
  0
ARC
  5
5C
330
17
100
AcDbEntity
  8
0
100
AcDbCircle
 10
-95.0446962023056
 20
45.074946774102884
 30
0.0
 40
0.5
100
AcDbArc
 50
169.99999999999997
 51
260.0
  0
LINE
  5
5D
330
17
100
AcDbEntity
  8
0
100
AcDbLine
 10
-95.13152029113891
 20
44.58254289759773
 30
0.0
 11
-82.32901950430508
 21
42.32511658833757
 31
0.0
  0
ARC
  5
5E
330
17
100
AcDbEntity
  8
0
100
AcDbCircle
 10
-82.24219541547161
 20
42.817520464843675
 30
0.0
 40
0.5
100
AcDbArc
 50
260.0
 51
350.0
  0
LINE
  5
5F
330
17
100
AcDbEntity
  8
0
100
AcDbLine
 10
-81.74979153664063
 20
42.730696375600274
 30
0.0
 11
-79.49236522738047
 21
55.5331971624341
 31
0.0
  0
ARC
  5
60
330
17
100
AcDbEntity
  8
0
100
AcDbCircle
 10
-79.98476910388658
 20
55.620021251267566
 30
0.0
 40
0.5
100
AcDbArc
 50
-10.000000000000009
 51
79.99999999999999
  0
LINE
  5
61
330
17
100
AcDbEntity
  8
0
100
AcDbLine
 10
-79.89794501464317
 20
56.11242513009854
 30
0.0
 11
-92.70044580380188
 21
58.36985143976864
 31
0.0
  0
ARC
  5
62
330
17
100
AcDbEntity
  8
0
100
AcDbCircle
 10
-92.78726989304528
 20
57.877447560937675
 30
0.0
 40
0.5
100
AcDbArc
 50
79.99999999999999
 51
169.99999999999997
  0
LINE
  5
63
330
17
100
AcDbEntity
  8
0
100
AcDbLine
 10
-93.27967376955138
 20
57.964271649771135
 30
0.0
 11
-95.5371000788117
 21
45.16177086293635
 31
0.0
  0
ARC
  5
64
330
17
100
AcDbEntity
  8
0
100
AcDbCircle
 10
-74.52709517401256
 20
45.36690105224994
 30
0.0
 40
0.5
100
AcDbArc
 50
165.0
 51
255.00000000000003
  0
LINE
  5
65
330
17
100
AcDbEntity
  8
0
100
AcDbLine
 10
-74.65650469656357
 20
44.88393813910634
 30
0.0
 11
-62.09946895708599
 21
41.51929055338458
 31
0.0
  0
ARC
  5
66
330
17
100
AcDbEntity
  8
0
100
AcDbCircle
 10
-61.970059434534726
 20
42.00225346652911
 30
0.0
 40
0.5
100
AcDbArc
 50
255.00000000000003
 51
345.0
  0
LINE
  5
67
330
17
100
AcDbEntity
  8
0
100
AcDbLine
 10
-61.48709651910989
 20
41.872843943366846
 30
0.0
 11
-58.12244893338813
 21
54.42987968284443
 31
0.0
  0
ARC
  5
68
330
17
100
AcDbEntity
  8
0
100
AcDbCircle
 10
-58.60541184653266
 20
54.559289205395686
 30
0.0
 40
0.5
100
AcDbArc
 50
-15.000000000000009
 51
74.99999999999999
  0
LINE
  5
69
330
17
100
AcDbEntity
  8
0
100
AcDbLine
 10
-58.476002323370395
 20
55.04225212082053
 30
0.0
 11
-71.03303806512828
 21
58.4068997071533
 31
0.0
  0
ARC
  5
6A
330
17
100
AcDbEntity
  8
0
100
AcDbCircle
 10
-71.16244758829055
 20
57.92393679172847
 30
0.0
 40
0.5
100
AcDbArc
 50
74.99999999999999
 51
165.0
  0
LINE
  5
6B
330
17
100
AcDbEntity
  8
0
100
AcDbLine
 10
-71.64541050143508
 20
58.053346314279736
 30
0.0
 11
-75.01005808715709
 21
45.49631057480121
 31
0.0
  0
ARC
  5
6C
330
17
100
AcDbEntity
  8
0
100
AcDbCircle
 10
-9.545941546018735
 20
12.374368670764241
 30
0.0
 40
0.5
100
AcDbArc
 50
135.0
 51
225.0
  0
LINE
  5
6D
330
17
100
AcDbEntity
  8
0
100
AcDbLine
 10
-9.899494936611323
 20
12.020815280171654
 30
0.0
 11
-0.7071067828555009
 21
2.8284271264158303
 31
0.0
  0
ARC
  5
6E
330
17
100
AcDbEntity
  8
0
100
AcDbCircle
 10
-0.3535533922622278
 20
3.1819805170091033
 30
0.0
 40
0.5
100
AcDbArc
 50
225.0
 51
315.0
  0
LINE
  5
6F
330
17
100
AcDbEntity
  8
0
100
AcDbLine
 10
3.410605131648481e-13
 20
2.8284271247465345
 30
0.0
 11
9.192388153756163
 21
12.020815278502354
 31
0.0
  0
ARC
  5
70
330
17
100
AcDbEntity
  8
0
100
AcDbCircle
 10
8.83883476316289
 20
12.374368669095627
 30
0.0
 40
0.5
100
AcDbArc
 50
-45.00000000000001
 51
44.99999999999999
  0
LINE
  5
71
330
17
100
AcDbEntity
  8
0
100
AcDbLine
 10
9.192388155425459
 20
12.727922061358196
 30
0.0
 11
3.4283687000424834e-13
 21
21.920310216783314
 31
0.0
  0
ARC
  5
72
330
17
100
AcDbEntity
  8
0
100
AcDbCircle
 10
-0.35355339226221805
 20
21.56675682452076
 30
0.0
 40
0.5
100
AcDbArc
 50
44.99999999999999
 51
135.0
  0
LINE
  5
73
330
17
100
AcDbEntity
  8
0
100
AcDbLine
 10
-0.7071067828554911
 20
21.92031021511403
 30
0.0
 11
-9.899494936612008
 21
12.727922061357514
 31
0.0
  0
ARC
  5
74
330
17
100
AcDbEntity
  8
0
100
AcDbCircle
 10
-24.277625875135413
 20
23.25666091337666
 30
0.0
 40
0.5
100
AcDbArc
 50
145.0
 51
235.0
  0
LINE
  5
75
330
17
100
AcDbEntity
  8
0
100
AcDbLine
 10
-24.564414093310383
 20
22.847084891232956
 30
0.0
 11
-13.915437519487293
 21
15.390591220023422
 31
0.0
  0
ARC
  5
76
330
17
100
AcDbEntity
  8
0
100
AcDbCircle
 10
-13.62864930131177
 20
15.800167242167918
 30
0.0
 40
0.5
100
AcDbArc
 50
235.0
 51
325.0
  0
LINE
  5
77
330
17
100
AcDbEntity
  8
0
100
AcDbLine
 10
-13.21907327723347
 20
15.513379022638329
 30
0.0
 11
-5.762579606023936
 21
26.162355596461413
 31
0.0
  0
ARC
  5
78
330
17
100
AcDbEntity
  8
0
100
AcDbCircle
 10
-6.172155628168431
 20
26.449143814636937
 30
0.0
 40
0.5
100
AcDbArc
 50
-35.00000000000001
 51
54.99999999999999
  0
LINE
  5
79
330
17
100
AcDbEntity
  8
0
100
AcDbLine
 10
-5.885367408638841
 20
26.858719838715242
 30
0.0
 11
-16.534343984395733
 21
34.31521351127884
 31
0.0
  0
ARC
  5
7A
330
17
100
AcDbEntity
  8
0
100
AcDbCircle
 10
-16.821132203925316
 20
33.90563748720055
 30
0.0
 40
0.5
100
AcDbArc
 50
54.99999999999999
 51
145.0
  0
LINE
  5
7B
330
17
100
AcDbEntity
  8
0
100
AcDbLine
 10
-17.23070822606981
 20
34.192425705376074
 30
0.0
 11
-24.687201897279905
 21
23.543449131552183
 31
0.0
  0
ARC
  5
7C
330
17
100
AcDbEntity
  8
0
100
AcDbCircle
 10
-58.24041124249504
 20
36.60297347867603
 30
0.0
 40
0.5
100
AcDbArc
 50
165.0
 51
255.00000000000003
  0
LINE
  5
7D
330
17
100
AcDbEntity
  8
0
100
AcDbLine
 10
-58.36982076504605
 20
36.120010565532425
 30
0.0
 11
-45.812785025568466
 21
32.75536297981066
 31
0.0
  0
ARC
  5
7E
330
17
100
AcDbEntity
  8
0
100
AcDbCircle
 10
-45.6833755030172
 20
33.238325892955196
 30
0.0
 40
0.5
100
AcDbArc
 50
255.00000000000003
 51
345.0
  0
LINE
  5
7F
330
17
100
AcDbEntity
  8
0
100
AcDbLine
 10
-45.20041258759237
 20
33.10891636979293
 30
0.0
 11
-41.835765001870605
 21
45.66595210927051
 31
0.0
  0
ARC
  5
80
330
17
100
AcDbEntity
  8
0
100
AcDbCircle
 10
-42.31872791501514
 20
45.79536163182178
 30
0.0
 40
0.5
100
AcDbArc
 50
-15.000000000000009
 51
74.99999999999999
  0
LINE
  5
81
330
17
100
AcDbEntity
  8
0
100
AcDbLine
 10
-42.18931839185287
 20
46.27832454724661
 30
0.0
 11
-54.74635413361076
 21
49.64297213357938
 31
0.0
  0
ARC
  5
82
330
17
100
AcDbEntity
  8
0
100
AcDbCircle
 10
-54.87576365677302
 20
49.160009218154556
 30
0.0
 40
0.5
100
AcDbArc
 50
74.99999999999999
 51
165.0
  0
LINE
  5
83
330
17
100
AcDbEntity
  8
0
100
AcDbLine
 10
-55.35872656991755
 20
49.28941874070582
 30
0.0
 11
-58.723374155639576
 21
36.73238300122729
 31
0.0
  0
ARC
  5
84
330
17
100
AcDbEntity
  8
0
100
AcDbCircle
 10
-40.67519303414658
 20
31.4154965467304
 30
0.0
 40
0.5
100
AcDbArc
 50
155.0
 51
244.99999999999997
  0
LINE
  5
85
330
17
100
AcDbEntity
  8
0
100
AcDbLine
 10
-40.88650216501652
 20
30.96234265321295
 30
0.0
 11
-29.10450093567963
 21
25.468305251581548
 31
0.0
  0
ARC
  5
86
330
17
100
AcDbEntity
  8
0
100
AcDbCircle
 10
-28.893191804809284
 20
25.921459145099874
 30
0.0
 40
0.5
100
AcDbArc
 50
244.99999999999997
 51
335.0
  0
LINE
  5
87
330
17
100
AcDbEntity
  8
0
100
AcDbLine
 10
-28.4400379091514
 20
25.710150013231832
 30
0.0
 11
-22.94600050752
 21
37.49215124256872
 31
0.0
  0
ARC
  5
88
330
17
100
AcDbEntity
  8
0
100
AcDbCircle
 10
-23.399154401038324
 20
37.70346037343907
 30
0.0
 40
0.5
100
AcDbArc
 50
-25.000000000000007
 51
64.99999999999999
  0
LINE
  5
89
330
17
100
AcDbEntity
  8
0
100
AcDbLine
 10
-23.187845269170282
 20
38.156614269096956
 30
0.0
 11
-34.96984650064673
 21
43.65065167172605
 31
0.0
  0
ARC
  5
8A
330
17
100
AcDbEntity
  8
0
100
AcDbCircle
 10
-35.181155632514766
 20
43.197497776068175
 30
0.0
 40
0.5
100
AcDbArc
 50
64.99999999999999
 51
155.0
  0
LINE
  5
8B
330
17
100
AcDbEntity
  8
0
100
AcDbLine
 10
-35.63430952603309
 20
43.40880690693852
 30
0.0
 11
-41.12834692766491
 21
31.62680567760075
 31
0.0
  0
ARC
  5
8C
330
17
100
AcDbEntity
  8
0
100
AcDbCircle
 10
-36.45382260254896
 20
48.36496971374481
 30
0.0
 40
0.5
100
AcDbArc
 50
165.0
 51
255.00000000000003
  0
LINE
  5
8D
330
17
100
AcDbEntity
  8
0
100
AcDbLine
 10
-36.58323212509997
 20
47.88200680060121
 30
0.0
 11
-24.026196385622384
 21
44.51735921487945
 31
0.0
  0
ARC
  5
8E
330
17
100
AcDbEntity
  8
0
100
AcDbCircle
 10
-23.896786863071124
 20
45.00032212802398
 30
0.0
 40
0.5
100
AcDbArc
 50
255.00000000000003
 51
345.0
  0
LINE
  5
8F
330
17
100
AcDbEntity
  8
0
100
AcDbLine
 10
-23.413823947646293
 20
44.870912604861715
 30
0.0
 11
-20.049176361924523
 21
57.4279483443393
 31
0.0
  0
ARC
  5
90
330
17
100
AcDbEntity
  8
0
100
AcDbCircle
 10
-20.53213927506906
 20
57.557357866890555
 30
0.0
 40
0.5
100
AcDbArc
 50
-15.000000000000009
 51
74.99999999999999
  0
LINE
  5
91
330
17
100
AcDbEntity
  8
0
100
AcDbLine
 10
-20.402729751906794
 20
58.0403207823154
 30
0.0
 11
-32.959765493664676
 21
61.40496836864817
 31
0.0
  0
ARC
  5
92
330
17
100
AcDbEntity
  8
0
100
AcDbCircle
 10
-33.08917501682694
 20
60.92200545322334
 30
0.0
 40
0.5
100
AcDbArc
 50
74.99999999999999
 51
165.0
  0
LINE
  5
93
330
17
100
AcDbEntity
  8
0
100
AcDbLine
 10
-33.572137929971476
 20
61.051414975774605
 30
0.0
 11
-36.936785515693494
 21
48.494379236296076
 31
0.0
  0
ARC
  5
94
330
17
100
AcDbEntity
  8
0
100
AcDbCircle
 10
-14.526826457167626
 20
37.18224566628952
 30
0.0
 40
0.5
100
AcDbArc
 50
145.0
 51
235.0
  0
LINE
  5
95
330
17
100
AcDbEntity
  8
0
100
AcDbLine
 10
-14.813614675342595
 20
36.772669644145815
 30
0.0
 11
-4.1646381015195075
 21
29.31617597293628
 31
0.0
  0
ARC
  5
96
330
17
100
AcDbEntity
  8
0
100
AcDbCircle
 10
-3.8778498833439845
 20
29.72575199508077
 30
0.0
 40
0.5
100
AcDbArc
 50
235.0
 51
325.0
  0
LINE
  5
97
330
17
100
AcDbEntity
  8
0
100
AcDbLine
 10
-3.468273859265684
 20
29.438963775551183
 30
0.0
 11
3.98821981194385
 21
40.08794034937427
 31
0.0
  0
ARC
  5
98
330
17
100
AcDbEntity
  8
0
100
AcDbCircle
 10
3.5786437897993544
 20
40.374728567549795
 30
0.0
 40
0.5
100
AcDbArc
 50
-35.00000000000001
 51
54.99999999999999
  0
LINE
  5
99
330
17
100
AcDbEntity
  8
0
100
AcDbLine
 10
3.865432009328945
 20
40.78430459162809
 30
0.0
 11
-6.783544566427948
 21
48.240798264191696
 31
0.0
  0
ARC
  5
9A
330
17
100
AcDbEntity
  8
0
100
AcDbCircle
 10
-7.070332785957529
 20
47.831222240113405
 30
0.0
 40
0.5
100
AcDbArc
 50
54.99999999999999
 51
145.0
  0
LINE
  5
9B
330
17
100
AcDbEntity
  8
0
100
AcDbLine
 10
-7.479908808102026
 20
48.11801045828893
 30
0.0
 11
-14.936402479312122
 21
37.46903388446504
 31
0.0
  0
ARC
  5
9C
330
17
100
AcDbEntity
  8
0
100
AcDbCircle
 10
-114.58365307560385
 20
50.071833721526204
 30
0.0
 40
0.5
100
AcDbArc
 50
180.0
 51
270.0
  0
LINE
  5
9D
330
17
100
AcDbEntity
  8
0
100
AcDbLine
 10
-114.58365307560385
 20
49.57183372152717
 30
0.0
 11
-101.58365307796458
 21
49.57183372152717
 31
0.0
  0
ARC
  5
9E
330
17
100
AcDbEntity
  8
0
100
AcDbCircle
 10
-101.58365307796458
 20
50.07183372152717
 30
0.0
 40
0.5
100
AcDbArc
 50
270.0
 51
360.0
  0
LINE
  5
9F
330
17
100
AcDbEntity
  8
0
100
AcDbLine
 10
-101.08365307560385
 20
50.07183372152717
 30
0.0
 11
-101.08365307560385
 21
63.07183371916642
 31
0.0
  0
ARC
  5
A0
330
17
100
AcDbEntity
  8
0
100
AcDbCircle
 10
-101.58365307560385
 20
63.07183371916643
 30
0.0
 40
0.5
100
AcDbArc
 50
-7.951386703658793e-15
 51
89.99999999999999
  0
LINE
  5
A1
330
17
100
AcDbEntity
  8
0
100
AcDbLine
 10
-101.58365307560385
 20
63.57183372152717
 30
0.0
 11
-114.58365307560385
 21
63.57183372152717
 31
0.0
  0
ARC
  5
A2
330
17
100
AcDbEntity
  8
0
100
AcDbCircle
 10
-114.58365307560385
 20
63.07183371916644
 30
0.0
 40
0.5
100
AcDbArc
 50
89.99999999999999
 51
180.0
  0
LINE
  5
A3
330
17
100
AcDbEntity
  8
0
100
AcDbLine
 10
-115.08365307560385
 20
63.07183371916644
 30
0.0
 11
-115.08365307560385
 21
50.071833721526204
 31
0.0
  0
ARC
  5
A4
330
17
100
AcDbEntity
  8
0
100
AcDbCircle
 10
-92.09267718196779
 20
61.816678575310426
 30
0.0
 40
0.5
100
AcDbArc
 50
169.99999999999997
 51
260.0
  0
LINE
  5
A5
330
17
100
AcDbEntity
  8
0
100
AcDbLine
 10
-92.17950127080108
 20
61.324274698805276
 30
0.0
 11
-79.37700048396725
 21
59.066848389545115
 31
0.0
  0
ARC
  5
A6
330
17
100
AcDbEntity
  8
0
100
AcDbCircle
 10
-79.29017639513378
 20
59.55925226605122
 30
0.0
 40
0.5
100
AcDbArc
 50
260.0
 51
350.0
  0
LINE
  5
A7
330
17
100
AcDbEntity
  8
0
100
AcDbLine
 10
-78.7977725163028
 20
59.47242817680782
 30
0.0
 11
-76.54034620704265
 21
72.27492896364164
 31
0.0
  0
ARC
  5
A8
330
17
100
AcDbEntity
  8
0
100
AcDbCircle
 10
-77.03275008354875
 20
72.36175305247511
 30
0.0
 40
0.5
100
AcDbArc
 50
-10.000000000000009
 51
79.99999999999999
  0
LINE
  5
A9
330
17
100
AcDbEntity
  8
0
100
AcDbLine
 10
-76.94592599430534
 20
72.8541569313061
 30
0.0
 11
-89.74842678346405
 21
75.11158324097619
 31
0.0
  0
ARC
  5
AA
330
17
100
AcDbEntity
  8
0
100
AcDbCircle
 10
-89.83525087270745
 20
74.61917936214522
 30
0.0
 40
0.5
100
AcDbArc
 50
79.99999999999999
 51
169.99999999999997
  0
LINE
  5
AB
330
17
100
AcDbEntity
  8
0
100
AcDbLine
 10
-90.32765474921355
 20
74.70600345097868
 30
0.0
 11
-92.58508105847389
 21
61.90350266414389
 31
0.0
  0
ARC
  5
AC
330
17
100
AcDbEntity
  8
0
100
AcDbCircle
 10
-114.58365307560385
 20
67.0718337215262
 30
0.0
 40
0.5
100
AcDbArc
 50
180.0
 51
270.0
  0
LINE
  5
AD
330
17
100
AcDbEntity
  8
0
100
AcDbLine
 10
-114.58365307560385
 20
66.57183372152717
 30
0.0
 11
-101.58365307796458
 21
66.57183372152717
 31
0.0
  0
ARC
  5
AE
330
17
100
AcDbEntity
  8
0
100
AcDbCircle
 10
-101.58365307796458
 20
67.07183372152717
 30
0.0
 40
0.5
100
AcDbArc
 50
270.0
 51
360.0
  0
LINE
  5
AF
330
17
100
AcDbEntity
  8
0
100
AcDbLine
 10
-101.08365307560385
 20
67.07183372152717
 30
0.0
 11
-101.08365307560385
 21
80.07183371916642
 31
0.0
  0
ARC
  5
B0
330
17
100
AcDbEntity
  8
0
100
AcDbCircle
 10
-101.58365307560385
 20
80.07183371916642
 30
0.0
 40
0.5
100
AcDbArc
 50
-7.951386703658793e-15
 51
89.99999999999999
  0
LINE
  5
B1
330
17
100
AcDbEntity
  8
0
100
AcDbLine
 10
-101.58365307560385
 20
80.57183372152717
 30
0.0
 11
-114.58365307560385
 21
80.57183372152717
 31
0.0
  0
ARC
  5
B2
330
17
100
AcDbEntity
  8
0
100
AcDbCircle
 10
-114.58365307560385
 20
80.07183371916643
 30
0.0
 40
0.5
100
AcDbArc
 50
89.99999999999999
 51
180.0
  0
LINE
  5
B3
330
17
100
AcDbEntity
  8
0
100
AcDbLine
 10
-115.08365307560385
 20
80.07183371916643
 30
0.0
 11
-115.08365307560385
 21
67.0718337215262
 31
0.0
  0
ARC
  5
B4
330
17
100
AcDbEntity
  8
0
100
AcDbCircle
 10
-70.12717140726971
 20
61.78764009916409
 30
0.0
 40
0.5
100
AcDbArc
 50
165.0
 51
255.00000000000003
  0
LINE
  5
B5
330
17
100
AcDbEntity
  8
0
100
AcDbLine
 10
-70.25658092982073
 20
61.30467718602049
 30
0.0
 11
-57.69954519034314
 21
57.94002960029873
 31
0.0
  0
ARC
  5
B6
330
17
100
AcDbEntity
  8
0
100
AcDbCircle
 10
-57.570135667791874
 20
58.42299251344326
 30
0.0
 40
0.5
100
AcDbArc
 50
255.00000000000003
 51
345.0
  0
LINE
  5
B7
330
17
100
AcDbEntity
  8
0
100
AcDbLine
 10
-57.08717275236704
 20
58.293582990280996
 30
0.0
 11
-53.722525166645276
 21
70.85061872975858
 31
0.0
  0
ARC
  5
B8
330
17
100
AcDbEntity
  8
0
100
AcDbCircle
 10
-54.20548807978981
 20
70.98002825230984
 30
0.0
 40
0.5
100
AcDbArc
 50
-15.000000000000009
 51
74.99999999999999
  0
LINE
  5
B9
330
17
100
AcDbEntity
  8
0
100
AcDbLine
 10
-54.07607855662754
 20
71.46299116773467
 30
0.0
 11
-66.63311429838542
 21
74.82763875406745
 31
0.0
  0
ARC
  5
BA
330
17
100
AcDbEntity
  8
0
100
AcDbCircle
 10
-66.76252382154769
 20
74.34467583864263
 30
0.0
 40
0.5
100
AcDbArc
 50
74.99999999999999
 51
165.0
  0
LINE
  5
BB
330
17
100
AcDbEntity
  8
0
100
AcDbLine
 10
-67.24548673469222
 20
74.47408536119389
 30
0.0
 11
-70.61013432041425
 21
61.91704962171536
 31
0.0
  0
ARC
  5
BC
330
17
100
AcDbEntity
  8
0
100
AcDbCircle
 10
-114.58365307560385
 20
84.07183372152619
 30
0.0
 40
0.5
100
AcDbArc
 50
180.0
 51
270.0
  0
LINE
  5
BD
330
17
100
AcDbEntity
  8
0
100
AcDbLine
 10
-114.58365307560385
 20
83.57183372152716
 30
0.0
 11
-101.58365307796458
 21
83.57183372152716
 31
0.0
  0
ARC
  5
BE
330
17
100
AcDbEntity
  8
0
100
AcDbCircle
 10
-101.58365307796458
 20
84.07183372152716
 30
0.0
 40
0.5
100
AcDbArc
 50
270.0
 51
360.0
  0
LINE
  5
BF
330
17
100
AcDbEntity
  8
0
100
AcDbLine
 10
-101.08365307560385
 20
84.07183372152716
 30
0.0
 11
-101.08365307560385
 21
97.0718337191664
 31
0.0
  0
ARC
  5
C0
330
17
100
AcDbEntity
  8
0
100
AcDbCircle
 10
-101.58365307560385
 20
97.0718337191664
 30
0.0
 40
0.5
100
AcDbArc
 50
-7.951386703658793e-15
 51
89.99999999999999
  0
LINE
  5
C1
330
17
100
AcDbEntity
  8
0
100
AcDbLine
 10
-101.58365307560385
 20
97.57183372152716
 30
0.0
 11
-114.58365307560385
 21
97.57183372152716
 31
0.0
  0
ARC
  5
C2
330
17
100
AcDbEntity
  8
0
100
AcDbCircle
 10
-114.58365307560385
 20
97.07183371916642
 30
0.0
 40
0.5
100
AcDbArc
 50
89.99999999999999
 51
180.0
  0
LINE
  5
C3
330
17
100
AcDbEntity
  8
0
100
AcDbLine
 10
-115.08365307560385
 20
97.07183371916642
 30
0.0
 11
-115.08365307560385
 21
84.07183372152619
 31
0.0
  0
ARC
  5
C4
330
17
100
AcDbEntity
  8
0
100
AcDbCircle
 10
-89.14065816162997
 20
78.55841037651795
 30
0.0
 40
0.5
100
AcDbArc
 50
169.99999999999997
 51
260.0
  0
LINE
  5
C5
330
17
100
AcDbEntity
  8
0
100
AcDbLine
 10
-89.22748225046327
 20
78.0660065000128
 30
0.0
 11
-76.42498146362944
 21
75.80858019075265
 31
0.0
  0
ARC
  5
C6
330
17
100
AcDbEntity
  8
0
100
AcDbCircle
 10
-76.33815737479597
 20
76.30098406725875
 30
0.0
 40
0.5
100
AcDbArc
 50
260.0
 51
350.0
  0
LINE
  5
C7
330
17
100
AcDbEntity
  8
0
100
AcDbLine
 10
-75.84575349596498
 20
76.21415997801535
 30
0.0
 11
-73.58832718670483
 21
89.01666076484918
 31
0.0
  0
ARC
  5
C8
330
17
100
AcDbEntity
  8
0
100
AcDbCircle
 10
-74.08073106321093
 20
89.10348485368264
 30
0.0
 40
0.5
100
AcDbArc
 50
-10.000000000000009
 51
79.99999999999999
  0
LINE
  5
C9
330
17
100
AcDbEntity
  8
0
100
AcDbLine
 10
-73.99390697396753
 20
89.59588873251363
 30
0.0
 11
-86.79640776312624
 21
91.85331504218372
 31
0.0
  0
ARC
  5
CA
330
17
100
AcDbEntity
  8
0
100
AcDbCircle
 10
-86.88323185236963
 20
91.36091116335275
 30
0.0
 40
0.5
100
AcDbArc
 50
79.99999999999999
 51
169.99999999999997
  0
LINE
  5
CB
330
17
100
AcDbEntity
  8
0
100
AcDbLine
 10
-87.37563572887574
 20
91.44773525218622
 30
0.0
 11
-89.63306203813607
 21
78.64523446535142
 31
0.0
  0
ARC
  5
CC
330
17
100
AcDbEntity
  8
0
100
AcDbCircle
 10
-65.72724764052685
 20
78.20837914607826
 30
0.0
 40
0.5
100
AcDbArc
 50
165.0
 51
255.00000000000003
  0
LINE
  5
CD
330
17
100
AcDbEntity
  8
0
100
AcDbLine
 10
-65.85665716307787
 20
77.72541623293466
 30
0.0
 11
-53.29962142360028
 21
74.3607686472129
 31
0.0
  0
ARC
  5
CE
330
17
100
AcDbEntity
  8
0
100
AcDbCircle
 10
-53.170211901049015
 20
74.84373156035743
 30
0.0
 40
0.5
100
AcDbArc
 50
255.00000000000003
 51
345.0
  0
LINE
  5
CF
330
17
100
AcDbEntity
  8
0
100
AcDbLine
 10
-52.68724898562418
 20
74.71432203719516
 30
0.0
 11
-49.32260139990242
 21
87.27135777667274
 31
0.0
  0
ARC
  5
D0
330
17
100
AcDbEntity
  8
0
100
AcDbCircle
 10
-49.80556431304695
 20
87.400767299224
 30
0.0
 40
0.5
100
AcDbArc
 50
-15.000000000000009
 51
74.99999999999999
  0
LINE
  5
D1
330
17
100
AcDbEntity
  8
0
100
AcDbLine
 10
-49.676154789884684
 20
87.88373021464884
 30
0.0
 11
-62.23319053164257
 21
91.24837780098161
 31
0.0
  0
ARC
  5
D2
330
17
100
AcDbEntity
  8
0
100
AcDbCircle
 10
-62.36260005480483
 20
90.7654148855568
 30
0.0
 40
0.5
100
AcDbArc
 50
74.99999999999999
 51
165.0
  0
LINE
  5
D3
330
17
100
AcDbEntity
  8
0
100
AcDbLine
 10
-62.84556296794936
 20
90.89482440810805
 30
0.0
 11
-66.21021055367139
 21
78.33778866862951
 31
0.0
  0
ARC
  5
D4
330
17
100
AcDbEntity
  8
0
100
AcDbCircle
 10
-86.18863914129216
 20
95.30014217772549
 30
0.0
 40
0.5
100
AcDbArc
 50
169.99999999999997
 51
260.0
  0
LINE
  5
D5
330
17
100
AcDbEntity
  8
0
100
AcDbLine
 10
-86.27546323012545
 20
94.80773830122034
 30
0.0
 11
-73.47296244329162
 21
92.55031199196019
 31
0.0
  0
ARC
  5
D6
330
17
100
AcDbEntity
  8
0
100
AcDbCircle
 10
-73.38613835445815
 20
93.04271586846629
 30
0.0
 40
0.5
100
AcDbArc
 50
260.0
 51
350.0
  0
LINE
  5
D7
330
17
100
AcDbEntity
  8
0
100
AcDbLine
 10
-72.89373447562717
 20
92.95589177922288
 30
0.0
 11
-70.63630816636702
 21
105.75839256605671
 31
0.0
  0
ARC
  5
D8
330
17
100
AcDbEntity
  8
0
100
AcDbCircle
 10
-71.12871204287312
 20
105.84521665489018
 30
0.0
 40
0.5
100
AcDbArc
 50
-10.000000000000009
 51
79.99999999999999
  0
LINE
  5
D9
330
17
100
AcDbEntity
  8
0
100
AcDbLine
 10
-71.04188795362971
 20
106.33762053372116
 30
0.0
 11
-83.84438874278842
 21
108.59504684339126
 31
0.0
  0
ARC
  5
DA
330
17
100
AcDbEntity
  8
0
100
AcDbCircle
 10
-83.93121283203182
 20
108.10264296456029
 30
0.0
 40
0.5
100
AcDbArc
 50
79.99999999999999
 51
169.99999999999997
  0
LINE
  5
DB
330
17
100
AcDbEntity
  8
0
100
AcDbLine
 10
-84.42361670853792
 20
108.18946705339376
 30
0.0
 11
-86.68104301779826
 21
95.38696626655896
 31
0.0
  0
ARC
  5
DC
330
17
100
AcDbEntity
  8
0
100
AcDbCircle
 10
-61.327323873783996
 20
94.62911819299242
 30
0.0
 40
0.5
100
AcDbArc
 50
165.0
 51
255.00000000000003
  0
LINE
  5
DD
330
17
100
AcDbEntity
  8
0
100
AcDbLine
 10
-61.45673339633501
 20
94.14615527984883
 30
0.0
 11
-48.89969765685743
 21
90.78150769412706
 31
0.0
  0
ARC
  5
DE
330
17
100
AcDbEntity
  8
0
100
AcDbCircle
 10
-48.77028813430616
 20
91.26447060727159
 30
0.0
 40
0.5
100
AcDbArc
 50
255.00000000000003
 51
345.0
  0
LINE
  5
DF
330
17
100
AcDbEntity
  8
0
100
AcDbLine
 10
-48.28732521888133
 20
91.13506108410932
 30
0.0
 11
-44.922677633159566
 21
103.69209682358691
 31
0.0
  0
ARC
  5
E0
330
17
100
AcDbEntity
  8
0
100
AcDbCircle
 10
-45.4056405463041
 20
103.82150634613816
 30
0.0
 40
0.5
100
AcDbArc
 50
-15.000000000000009
 51
74.99999999999999
  0
LINE
  5
E1
330
17
100
AcDbEntity
  8
0
100
AcDbLine
 10
-45.27623102314183
 20
104.304469261563
 30
0.0
 11
-57.83326676489972
 21
107.66911684789578
 31
0.0
  0
ARC
  5
E2
330
17
100
AcDbEntity
  8
0
100
AcDbCircle
 10
-57.96267628806198
 20
107.18615393247096
 30
0.0
 40
0.5
100
AcDbArc
 50
74.99999999999999
 51
165.0
  0
LINE
  5
E3
330
17
100
AcDbEntity
  8
0
100
AcDbLine
 10
-58.44563920120652
 20
107.31556345502221
 30
0.0
 11
-61.810286786928536
 21
94.75852771554368
 31
0.0
  0
ARC
  5
E4
330
17
100
AcDbEntity
  8
0
100
AcDbCircle
 10
-53.840487475752184
 20
53.023712525590184
 30
0.0
 40
0.5
100
AcDbArc
 50
165.0
 51
255.00000000000003
  0
LINE
  5
E5
330
17
100
AcDbEntity
  8
0
100
AcDbLine
 10
-53.9698969983032
 20
52.54074961244658
 30
0.0
 11
-41.412861258825615
 21
49.17610202672482
 31
0.0
  0
ARC
  5
E6
330
17
100
AcDbEntity
  8
0
100
AcDbCircle
 10
-41.28345173627435
 20
49.65906493986935
 30
0.0
 40
0.5
100
AcDbArc
 50
255.00000000000003
 51
345.0
  0
LINE
  5
E7
330
17
100
AcDbEntity
  8
0
100
AcDbLine
 10
-40.800488820849516
 20
49.52965541670709
 30
0.0
 11
-37.435841235127754
 21
62.08669115618467
 31
0.0
  0
ARC
  5
E8
330
17
100
AcDbEntity
  8
0
100
AcDbCircle
 10
-37.91880414827229
 20
62.21610067873593
 30
0.0
 40
0.5
100
AcDbArc
 50
-15.000000000000009
 51
74.99999999999999
  0
LINE
  5
E9
330
17
100
AcDbEntity
  8
0
100
AcDbLine
 10
-37.78939462511002
 20
62.69906359416077
 30
0.0
 11
-50.34643036686791
 21
66.06371118049354
 31
0.0
  0
ARC
  5
EA
330
17
100
AcDbEntity
  8
0
100
AcDbCircle
 10
-50.475839890030166
 20
65.58074826506872
 30
0.0
 40
0.5
100
AcDbArc
 50
74.99999999999999
 51
165.0
  0
LINE
  5
EB
330
17
100
AcDbEntity
  8
0
100
AcDbLine
 10
-50.958802803174706
 20
65.71015778761998
 30
0.0
 11
-54.323450388896724
 21
53.15312204814145
 31
0.0
  0
ARC
  5
EC
330
17
100
AcDbEntity
  8
0
100
AcDbCircle
 10
-49.440563709009325
 20
69.44445157250433
 30
0.0
 40
0.5
100
AcDbArc
 50
165.0
 51
255.00000000000003
  0
LINE
  5
ED
330
17
100
AcDbEntity
  8
0
100
AcDbLine
 10
-49.56997323156034
 20
68.96148865936074
 30
0.0
 11
-37.012937492082756
 21
65.59684107363897
 31
0.0
  0
ARC
  5
EE
330
17
100
AcDbEntity
  8
0
100
AcDbCircle
 10
-36.88352796953149
 20
66.0798039867835
 30
0.0
 40
0.5
100
AcDbArc
 50
255.00000000000003
 51
345.0
  0
LINE
  5
EF
330
17
100
AcDbEntity
  8
0
100
AcDbLine
 10
-36.40056505410666
 20
65.95039446362124
 30
0.0
 11
-33.035917468384895
 21
78.50743020309882
 31
0.0
  0
ARC
  5
F0
330
17
100
AcDbEntity
  8
0
100
AcDbCircle
 10
-33.51888038152943
 20
78.63683972565008
 30
0.0
 40
0.5
100
AcDbArc
 50
-15.000000000000009
 51
74.99999999999999
  0
LINE
  5
F1
330
17
100
AcDbEntity
  8
0
100
AcDbLine
 10
-33.38947085836716
 20
79.11980264107491
 30
0.0
 11
-45.94650660012505
 21
82.48445022740769
 31
0.0
  0
ARC
  5
F2
330
17
100
AcDbEntity
  8
0
100
AcDbCircle
 10
-46.07591612328731
 20
82.00148731198287
 30
0.0
 40
0.5
100
AcDbArc
 50
74.99999999999999
 51
165.0
  0
LINE
  5
F3
330
17
100
AcDbEntity
  8
0
100
AcDbLine
 10
-46.55887903643185
 20
82.13089683453413
 30
0.0
 11
-49.923526622153865
 21
69.57386109505559
 31
0.0
  0
ARC
  5
F4
330
17
100
AcDbEntity
  8
0
100
AcDbCircle
 10
-32.05389883580611
 20
64.78570876065896
 30
0.0
 40
0.5
100
AcDbArc
 50
165.0
 51
255.00000000000003
  0
LINE
  5
F5
330
17
100
AcDbEntity
  8
0
100
AcDbLine
 10
-32.183308358357124
 20
64.30274584751537
 30
0.0
 11
-19.626272618879533
 21
60.9380982617936
 31
0.0
  0
ARC
  5
F6
330
17
100
AcDbEntity
  8
0
100
AcDbCircle
 10
-19.496863096328273
 20
61.42106117493813
 30
0.0
 40
0.5
100
AcDbArc
 50
255.00000000000003
 51
345.0
  0
LINE
  5
F7
330
17
100
AcDbEntity
  8
0
100
AcDbLine
 10
-19.01390018090344
 20
61.291651651775865
 30
0.0
 11
-15.649252595181673
 21
73.84868739125345
 31
0.0
  0
ARC
  5
F8
330
17
100
AcDbEntity
  8
0
100
AcDbCircle
 10
-16.132215508326208
 20
73.9780969138047
 30
0.0
 40
0.5
100
AcDbArc
 50
-15.000000000000009
 51
74.99999999999999
  0
LINE
  5
F9
330
17
100
AcDbEntity
  8
0
100
AcDbLine
 10
-16.002805985163942
 20
74.46105982922954
 30
0.0
 11
-28.559841726921828
 21
77.82570741556232
 31
0.0
  0
ARC
  5
FA
330
17
100
AcDbEntity
  8
0
100
AcDbCircle
 10
-28.68925125008409
 20
77.3427445001375
 30
0.0
 40
0.5
100
AcDbArc
 50
74.99999999999999
 51
165.0
  0
LINE
  5
FB
330
17
100
AcDbEntity
  8
0
100
AcDbLine
 10
-29.172214163228624
 20
77.47215402268876
 30
0.0
 11
-32.53686174895064
 21
64.91511828321022
 31
0.0
  0
ARC
  5
FC
330
17
100
AcDbEntity
  8
0
100
AcDbCircle
 10
-45.04063994226648
 20
85.8651906194185
 30
0.0
 40
0.5
100
AcDbArc
 50
165.0
 51
255.00000000000003
  0
LINE
  5
FD
330
17
100
AcDbEntity
  8
0
100
AcDbLine
 10
-45.17004946481749
 20
85.3822277062749
 30
0.0
 11
-32.613013725339904
 21
82.01758012055313
 31
0.0
  0
ARC
  5
FE
330
17
100
AcDbEntity
  8
0
100
AcDbCircle
 10
-32.48360420278864
 20
82.50054303369767
 30
0.0
 40
0.5
100
AcDbArc
 50
255.00000000000003
 51
345.0
  0
LINE
  5
FF
330
17
100
AcDbEntity
  8
0
100
AcDbLine
 10
-32.000641287363806
 20
82.3711335105354
 30
0.0
 11
-28.635993701642043
 21
94.92816925001299
 31
0.0
  0
ARC
  5
100
330
17
100
AcDbEntity
  8
0
100
AcDbCircle
 10
-29.118956614786576
 20
95.05757877256424
 30
0.0
 40
0.5
100
AcDbArc
 50
-15.000000000000009
 51
74.99999999999999
  0
LINE
  5
101
330
17
100
AcDbEntity
  8
0
100
AcDbLine
 10
-28.98954709162431
 20
95.54054168798908
 30
0.0
 11
-41.546582833382196
 21
98.90518927432186
 31
0.0
  0
ARC
  5
102
330
17
100
AcDbEntity
  8
0
100
AcDbCircle
 10
-41.675992356544455
 20
98.42222635889703
 30
0.0
 40
0.5
100
AcDbArc
 50
74.99999999999999
 51
165.0
  0
LINE
  5
103
330
17
100
AcDbEntity
  8
0
100
AcDbLine
 10
-42.15895526968899
 20
98.55163588144829
 30
0.0
 11
-45.52360285541101
 21
85.99460014196976
 31
0.0
  0
ARC
  5
104
330
17
100
AcDbEntity
  8
0
100
AcDbCircle
 10
-27.65397506906325
 20
81.20644780757311
 30
0.0
 40
0.5
100
AcDbArc
 50
165.0
 51
255.00000000000003
  0
LINE
  5
105
330
17
100
AcDbEntity
  8
0
100
AcDbLine
 10
-27.78338459161426
 20
80.72348489442952
 30
0.0
 11
-15.226348852136676
 21
77.35883730870775
 31
0.0
  0
ARC
  5
106
330
17
100
AcDbEntity
  8
0
100
AcDbCircle
 10
-15.096939329585414
 20
77.84180022185228
 30
0.0
 40
0.5
100
AcDbArc
 50
255.00000000000003
 51
345.0
  0
LINE
  5
107
330
17
100
AcDbEntity
  8
0
100
AcDbLine
 10
-14.61397641416058
 20
77.71239069869002
 30
0.0
 11
-11.249328828438815
 21
90.2694264381676
 31
0.0
  0
ARC
  5
108
330
17
100
AcDbEntity
  8
0
100
AcDbCircle
 10
-11.73229174158335
 20
90.39883596071886
 30
0.0
 40
0.5
100
AcDbArc
 50
-15.000000000000009
 51
74.99999999999999
  0
LINE
  5
109
330
17
100
AcDbEntity
  8
0
100
AcDbLine
 10
-11.602882218421083
 20
90.88179887614369
 30
0.0
 11
-24.15991796017897
 21
94.24644646247647
 31
0.0
  0
ARC
  5
10A
330
17
100
AcDbEntity
  8
0
100
AcDbCircle
 10
-24.289327483341232
 20
93.76348354705165
 30
0.0
 40
0.5
100
AcDbArc
 50
74.99999999999999
 51
165.0
  0
LINE
  5
10B
330
17
100
AcDbEntity
  8
0
100
AcDbLine
 10
-24.772290396485765
 20
93.8928930696029
 30
0.0
 11
-28.136937982207783
 21
81.33585733012437
 31
0.0
  0
ENDSEC
  0
SECTION
  2
OBJECTS
  0
DICTIONARY
  5
A
330
0
100
AcDbDictionary
281
1
  3
ACAD_COLOR
350
B
  3
ACAD_GROUP
350
C
  3
ACAD_LAYOUT
350
D
  3
ACAD_MATERIAL
350
E
  3
ACAD_MLEADERSTYLE
350
F
  3
ACAD_MLINESTYLE
350
10
  3
ACAD_PLOTSETTINGS
350
11
  3
ACAD_PLOTSTYLENAME
350
12
  3
ACAD_SCALELIST
350
14
  3
ACAD_TABLESTYLE
350
15
  3
ACAD_VISUALSTYLE
350
16
  3
EZDXF_META
350
2D
  0
DICTIONARY
  5
B
330
A
100
AcDbDictionary
281
1
  0
DICTIONARY
  5
C
330
A
100
AcDbDictionary
281
1
  0
DICTIONARY
  5
D
330
A
100
AcDbDictionary
281
1
  3
Model
350
1A
  3
Layout1
350
1E
  0
DICTIONARY
  5
E
330
A
100
AcDbDictionary
281
1
  3
ByBlock
350
1F
  3
ByLayer
350
20
  3
Global
350
21
  0
DICTIONARY
  5
F
330
A
100
AcDbDictionary
281
1
  3
Standard
350
2C
  0
DICTIONARY
  5
10
330
A
100
AcDbDictionary
281
1
  3
Standard
350
22
  0
DICTIONARY
  5
11
330
A
100
AcDbDictionary
281
1
  0
ACDBDICTIONARYWDFLT
  5
12
330
A
100
AcDbDictionary
281
1
  3
Normal
350
13
100
AcDbDictionaryWithDefault
340
13
  0
ACDBPLACEHOLDER
  5
13
330
12
  0
DICTIONARY
  5
14
330
A
100
AcDbDictionary
281
1
  0
DICTIONARY
  5
15
330
A
100
AcDbDictionary
281
1
  0
DICTIONARY
  5
16
330
A
100
AcDbDictionary
281
1
  0
LAYOUT
  5
1A
330
D
100
AcDbPlotSettings
  1

  4
A3
  6

 40
7.5
 41
20.0
 42
7.5
 43
20.0
 44
420.0
 45
297.0
 46
0.0
 47
0.0
 48
0.0
 49
0.0
140
0.0
141
0.0
142
1.0
143
1.0
 70
1024
 72
1
 73
0
 74
5
  7

 75
16
 76
0
 77
2
 78
300
147
1.0
148
0.0
149
0.0
100
AcDbLayout
  1
Model
 70
1
 71
0
 10
0.0
 20
0.0
 11
420.0
 21
297.0
 12
0.0
 22
0.0
 32
0.0
 14
1e+20
 24
1e+20
 34
1e+20
 15
-1e+20
 25
-1e+20
 35
-1e+20
146
0.0
 13
0.0
 23
0.0
 33
0.0
 16
1.0
 26
0.0
 36
0.0
 17
0.0
 27
1.0
 37
0.0
 76
1
330
17
  0
LAYOUT
  5
1E
330
D
100
AcDbPlotSettings
  1

  4
A3
  6

 40
7.5
 41
20.0
 42
7.5
 43
20.0
 44
420.0
 45
297.0
 46
0.0
 47
0.0
 48
0.0
 49
0.0
140
0.0
141
0.0
142
1.0
143
1.0
 70
0
 72
1
 73
0
 74
5
  7

 75
16
 76
0
 77
2
 78
300
147
1.0
148
0.0
149
0.0
100
AcDbLayout
  1
Layout1
 70
1
 71
1
 10
0.0
 20
0.0
 11
420.0
 21
297.0
 12
0.0
 22
0.0
 32
0.0
 14
1e+20
 24
1e+20
 34
1e+20
 15
-1e+20
 25
-1e+20
 35
-1e+20
146
0.0
 13
0.0
 23
0.0
 33
0.0
 16
1.0
 26
0.0
 36
0.0
 17
0.0
 27
1.0
 37
0.0
 76
1
330
1B
  0
MATERIAL
  5
1F
102
{ACAD_REACTORS
330
E
102
}
330
E
100
AcDbMaterial
  1
ByBlock
  2

 70
0
 40
1.0
 71
1
 41
1.0
 91
-1023410177
 42
1.0
 72
1
  3

 73
1
 74
1
 75
1
 44
0.5
 73
0
 45
1.0
 46
1.0
 77
1
  4

 78
1
 79
1
170
1
 48
1.0
171
1
  6

172
1
173
1
174
1
140
1.0
141
1.0
175
1
  7

176
1
177
1
178
1
143
1.0
179
1
  8

270
1
271
1
272
1
145
1.0
146
1.0
273
1
  9

274
1
275
1
276
1
 42
1.0
 72
1
  3

 73
1
 74
1
 75
1
 94
63
  0
MATERIAL
  5
20
102
{ACAD_REACTORS
330
E
102
}
330
E
100
AcDbMaterial
  1
ByLayer
  2

 70
0
 40
1.0
 71
1
 41
1.0
 91
-1023410177
 42
1.0
 72
1
  3

 73
1
 74
1
 75
1
 44
0.5
 73
0
 45
1.0
 46
1.0
 77
1
  4

 78
1
 79
1
170
1
 48
1.0
171
1
  6

172
1
173
1
174
1
140
1.0
141
1.0
175
1
  7

176
1
177
1
178
1
143
1.0
179
1
  8

270
1
271
1
272
1
145
1.0
146
1.0
273
1
  9

274
1
275
1
276
1
 42
1.0
 72
1
  3

 73
1
 74
1
 75
1
 94
63
  0
MATERIAL
  5
21
102
{ACAD_REACTORS
330
E
102
}
330
E
100
AcDbMaterial
  1
Global
  2

 70
0
 40
1.0
 71
1
 41
1.0
 91
-1023410177
 42
1.0
 72
1
  3

 73
1
 74
1
 75
1
 44
0.5
 73
0
 45
1.0
 46
1.0
 77
1
  4

 78
1
 79
1
170
1
 48
1.0
171
1
  6

172
1
173
1
174
1
140
1.0
141
1.0
175
1
  7

176
1
177
1
178
1
143
1.0
179
1
  8

270
1
271
1
272
1
145
1.0
146
1.0
273
1
  9

274
1
275
1
276
1
 42
1.0
 72
1
  3

 73
1
 74
1
 75
1
 94
63
  0
MLINESTYLE
  5
22
102
{ACAD_REACTORS
330
10
102
}
330
10
100
AcDbMlineStyle
  2
Standard
 70
0
  3

 62
256
 51
90.0
 52
90.0
 71
2
 49
0.5
 62
256
  6
BYLAYER
 49
-0.5
 62
256
  6
BYLAYER
  0
MLEADERSTYLE
  5
2C
102
{ACAD_REACTORS
330
F
102
}
330
F
100
AcDbMLeaderStyle
179
2
170
2
171
1
172
0
 90
2
 40
0.0
 41
0.0
173
1
 91
-1056964608
 92
-2
290
1
 42
2.0
291
1
 43
8.0
  3
Standard
 44
4.0
300

342
29
174
1
175
1
176
0
178
1
 93
-1056964608
 45
4.0
292
0
297
0
 46
4.0
 94
-1056964608
 47
1.0
 49
1.0
140
1.0
294
1
141
0.0
177
0
142
1.0
295
0
296
0
143
3.75
271
0
272
9
273
9
  0
DICTIONARY
  5
2D
330
A
100
AcDbDictionary
280
1
281
1
  3
CREATED_BY_EZDXF
350
2E
  3
WRITTEN_BY_EZDXF
350
10F
  0
DICTIONARYVAR
  5
2E
330
2D
100
DictionaryVariables
280
0
  1
1.4.4 @ 2026-05-15T21:07:43.637559+00:00
  0
DICTIONARYVAR
  5
10F
330
2D
100
DictionaryVariables
280
0
  1
1.4.4 @ 2026-05-15T21:07:43.719478+00:00
  0
ENDSEC
  0
EOF
