  0
SECTION
  2
HEADER
  9
$ACADVER
  1
AC1027
  9
$ACADMAINTVER
 70
105
  9
$DWGCODEPAGE
  3
ANSI_1252
  9
$LASTSAVEDBY
  1
ezdxf
  9
$REQUIREDVERSIONS
160
0
  9
$INSBASE
 10
0.0
 20
0.0
 30
0.0
  9
$EXTMIN
 10
1e+20
 20
1e+20
 30
1e+20
  9
$EXTMAX
 10
-1e+20
 20
-1e+20
 30
-1e+20
  9
$LIMMIN
 10
0.0
 20
0.0
  9
$LIMMAX
 10
420.0
 20
297.0
  9
$ORTHOMODE
 70
0
  9
$REGENMODE
 70
1
  9
$FILLMODE
 70
1
  9
$QTEXTMODE
 70
0
  9
$MIRRTEXT
 70
1
  9
$LTSCALE
 40
1.0
  9
$ATTMODE
 70
1
  9
$TEXTSIZE
 40
2.5
  9
$TRACEWID
 40
1.0
  9
$TEXTSTYLE
  7
Standard
  9
$CLAYER
  8
0
  9
$CELTYPE
  6
ByLayer
  9
$CECOLOR
 62
256
  9
$CELTSCALE
 40
1.0
  9
$DISPSILH
 70
0
  9
$DIMSCALE
 40
1.0
  9
$DIMASZ
 40
2.5
  9
$DIMEXO
 40
0.625
  9
$DIMDLI
 40
3.75
  9
$DIMRND
 40
0.0
  9
$DIMDLE
 40
0.0
  9
$DIMEXE
 40
1.25
  9
$DIMTP
 40
0.0
  9
$DIMTM
 40
0.0
  9
$DIMTXT
 40
2.5
  9
$DIMCEN
 40
2.5
  9
$DIMTSZ
 40
0.0
  9
$DIMTOL
 70
0
  9
$DIMLIM
 70
0
  9
$DIMTIH
 70
0
  9
$DIMTOH
 70
0
  9
$DIMSE1
 70
0
  9
$DIMSE2
 70
0
  9
$DIMTAD
 70
1
  9
$DIMZIN
 70
8
  9
$DIMBLK
  1

  9
$DIMASO
 70
1
  9
$DIMSHO
 70
1
  9
$DIMPOST
  1

  9
$DIMAPOST
  1

  9
$DIMALT
 70
0
  9
$DIMALTD
 70
3
  9
$DIMALTF
 40
0.03937007874
  9
$DIMLFAC
 40
1.0
  9
$DIMTOFL
 70
1
  9
$DIMTVP
 40
0.0
  9
$DIMTIX
 70
0
  9
$DIMSOXD
 70
0
  9
$DIMSAH
 70
0
  9
$DIMBLK1
  1

  9
$DIMBLK2
  1

  9
$DIMSTYLE
  2
ISO-25
  9
$DIMCLRD
 70
0
  9
$DIMCLRE
 70
0
  9
$DIMCLRT
 70
0
  9
$DIMTFAC
 40
1.0
  9
$DIMGAP
 40
0.625
  9
$DIMJUST
 70
0
  9
$DIMSD1
 70
0
  9
$DIMSD2
 70
0
  9
$DIMTOLJ
 70
0
  9
$DIMTZIN
 70
8
  9
$DIMALTZ
 70
0
  9
$DIMALTTZ
 70
0
  9
$DIMUPT
 70
0
  9
$DIMDEC
 70
2
  9
$DIMTDEC
 70
2
  9
$DIMALTU
 70
2
  9
$DIMALTTD
 70
3
  9
$DIMTXSTY
  7
Standard
  9
$DIMAUNIT
 70
0
  9
$DIMADEC
 70
0
  9
$DIMALTRND
 40
0.0
  9
$DIMAZIN
 70
0
  9
$DIMDSEP
 70
44
  9
$DIMATFIT
 70
3
  9
$DIMFRAC
 70
0
  9
$DIMLDRBLK
  1

  9
$DIMLUNIT
 70
2
  9
$DIMLWD
 70
-2
  9
$DIMLWE
 70
-2
  9
$DIMTMOVE
 70
0
  9
$DIMFXL
 40
1.0
  9
$DIMFXLON
 70
0
  9
$DIMJOGANG
 40
0.785398163397
  9
$DIMTFILL
 70
0
  9
$DIMTFILLCLR
 70
0
  9
$DIMARCSYM
 70
0
  9
$DIMLTYPE
  6

  9
$DIMLTEX1
  6

  9
$DIMLTEX2
  6

  9
$DIMTXTDIRECTION
 70
0
  9
$LUNITS
 70
2
  9
$LUPREC
 70
4
  9
$SKETCHINC
 40
1.0
  9
$FILLETRAD
 40
10.0
  9
$AUNITS
 70
0
  9
$AUPREC
 70
2
  9
$MENU
  1
.
  9
$ELEVATION
 40
0.0
  9
$PELEVATION
 40
0.0
  9
$THICKNESS
 40
0.0
  9
$LIMCHECK
 70
0
  9
$CHAMFERA
 40
0.0
  9
$CHAMFERB
 40
0.0
  9
$CHAMFERC
 40
0.0
  9
$CHAMFERD
 40
0.0
  9
$SKPOLY
 70
0
  9
$TDCREATE
 40
2461216.9394560186
  9
$TDUCREATE
 40
2458532.153996898
  9
$TDUPDATE
 40
2461216.9394560186
  9
$TDUUPDATE
 40
2458532.1544311
  9
$TDINDWG
 40
0.0
  9
$TDUSRTIMER
 40
0.0
  9
$USRTIMER
 70
1
  9
$ANGBASE
 50
0.0
  9
$ANGDIR
 70
0
  9
$PDMODE
 70
0
  9
$PDSIZE
 40
0.0
  9
$PLINEWID
 40
0.0
  9
$SPLFRAME
 70
0
  9
$SPLINETYPE
 70
6
  9
$SPLINESEGS
 70
8
  9
$HANDSEED
  5
110
  9
$SURFTAB1
 70
6
  9
$SURFTAB2
 70
6
  9
$SURFTYPE
 70
6
  9
$SURFU
 70
6
  9
$SURFV
 70
6
  9
$UCSBASE
  2

  9
$UCSNAME
  2

  9
$UCSORG
 10
0.0
 20
0.0
 30
0.0
  9
$UCSXDIR
 10
1.0
 20
0.0
 30
0.0
  9
$UCSYDIR
 10
0.0
 20
1.0
 30
0.0
  9
$UCSORTHOREF
  2

  9
$UCSORTHOVIEW
 70
0
  9
$UCSORGTOP
 10
0.0
 20
0.0
 30
0.0
  9
$UCSORGBOTTOM
 10
0.0
 20
0.0
 30
0.0
  9
$UCSORGLEFT
 10
0.0
 20
0.0
 30
0.0
  9
$UCSORGRIGHT
 10
0.0
 20
0.0
 30
0.0
  9
$UCSORGFRONT
 10
0.0
 20
0.0
 30
0.0
  9
$UCSORGBACK
 10
0.0
 20
0.0
 30
0.0
  9
$PUCSBASE
  2

  9
$PUCSNAME
  2

  9
$PUCSORG
 10
0.0
 20
0.0
 30
0.0
  9
$PUCSXDIR
 10
1.0
 20
0.0
 30
0.0
  9
$PUCSYDIR
 10
0.0
 20
1.0
 30
0.0
  9
$PUCSORTHOREF
  2

  9
$PUCSORTHOVIEW
 70
0
  9
$PUCSORGTOP
 10
0.0
 20
0.0
 30
0.0
  9
$PUCSORGBOTTOM
 10
0.0
 20
0.0
 30
0.0
  9
$PUCSORGLEFT
 10
0.0
 20
0.0
 30
0.0
  9
$PUCSORGRIGHT
 10
0.0
 20
0.0
 30
0.0
  9
$PUCSORGFRONT
 10
0.0
 20
0.0
 30
0.0
  9
$PUCSORGBACK
 10
0.0
 20
0.0
 30
0.0
  9
$USERI1
 70
0
  9
$USERI2
 70
0
  9
$USERI3
 70
0
  9
$USERI4
 70
0
  9
$USERI5
 70
0
  9
$USERR1
 40
0.0
  9
$USERR2
 40
0.0
  9
$USERR3
 40
0.0
  9
$USERR4
 40
0.0
  9
$USERR5
 40
0.0
  9
$WORLDVIEW
 70
1
  9
$SHADEDGE
 70
3
  9
$SHADEDIF
 70
70
  9
$TILEMODE
 70
1
  9
$MAXACTVP
 70
64
  9
$PINSBASE
 10
0.0
 20
0.0
 30
0.0
  9
$PLIMCHECK
 70
0
  9
$PEXTMIN
 10
1e+20
 20
1e+20
 30
1e+20
  9
$PEXTMAX
 10
-1e+20
 20
-1e+20
 30
-1e+20
  9
$PLIMMIN
 10
0.0
 20
0.0
  9
$PLIMMAX
 10
420.0
 20
297.0
  9
$UNITMODE
 70
0
  9
$VISRETAIN
 70
1
  9
$PLINEGEN
 70
0
  9
$PSLTSCALE
 70
1
  9
$TREEDEPTH
 70
3020
  9
$CMLSTYLE
  2
Standard
  9
$CMLJUST
 70
0
  9
$CMLSCALE
 40
20.0
  9
$PROXYGRAPHICS
 70
1
  9
$MEASUREMENT
 70
1
  9
$CELWEIGHT
370
-1
  9
$ENDCAPS
280
0
  9
$JOINSTYLE
280
0
  9
$LWDISPLAY
290
0
  9
$INSUNITS
 70
4
  9
$HYPERLINKBASE
  1

  9
$STYLESHEET
  1

  9
$XEDIT
290
1
  9
$CEPSNTYPE
380
0
  9
$PSTYLEMODE
290
1
  9
$FINGERPRINTGUID
  2
{65EA8167-8863-4DC5-B3E5-2BC2E2F3B516}
  9
$VERSIONGUID
  2
{8E84C225-2A0A-41C5-AAC3-26C753010D7B}
  9
$EXTNAMES
290
1
  9
$PSVPSCALE
 40
0.0
  9
$OLESTARTUP
290
0
  9
$SORTENTS
280
127
  9
$INDEXCTL
280
0
  9
$HIDETEXT
280
1
  9
$XCLIPFRAME
280
1
  9
$HALOGAP
280
0
  9
$OBSCOLOR
 70
257
  9
$OBSLTYPE
280
0
  9
$INTERSECTIONDISPLAY
280
0
  9
$INTERSECTIONCOLOR
 70
257
  9
$DIMASSOC
280
2
  9
$PROJECTNAME
  1

  9
$CAMERADISPLAY
290
0
  9
$LENSLENGTH
 40
50.0
  9
$CAMERAHEIGHT
 40
0.0
  9
$STEPSPERSEC
 40
24.0
  9
$STEPSIZE
 40
100.0
  9
$3DDWFPREC
 40
2.0
  9
$PSOLWIDTH
 40
0.005
  9
$PSOLHEIGHT
 40
0.08
  9
$LOFTANG1
 40
1.570796326795
  9
$LOFTANG2
 40
1.570796326795
  9
$LOFTMAG1
 40
0.0
  9
$LOFTMAG2
 40
0.0
  9
$LOFTPARAM
 70
7
  9
$LOFTNORMALS
280
1
  9
$LATITUDE
 40
37.795
  9
$LONGITUDE
 40
-122.394
  9
$NORTHDIRECTION
 40
0.0
  9
$TIMEZONE
 70
-8000
  9
$LIGHTGLYPHDISPLAY
280
1
  9
$TILEMODELIGHTSYNCH
280
1
  9
$CMATERIAL
347
20
  9
$SOLIDHIST
280
0
  9
$SHOWHIST
280
1
  9
$DWFFRAME
280
2
  9
$DGNFRAME
280
2
  9
$REALWORLDSCALE
290
1
  9
$INTERFERECOLOR
 62
256
  9
$CSHADOW
280
0
  9
$SHADOWPLANELOCATION
 40
0.0
  0
ENDSEC
  0
SECTION
  2
CLASSES
  0
CLASS
  1
ACDBDICTIONARYWDFLT
  2
AcDbDictionaryWithDefault
  3
ObjectDBX Classes
 90
0
 91
0
280
0
281
0
  0
CLASS
  1
SUN
  2
AcDbSun
  3
SCENEOE
 90
1153
 91
0
280
0
281
0
  0
CLASS
  1
VISUALSTYLE
  2
AcDbVisualStyle
  3
ObjectDBX Classes
 90
4095
 91
0
280
0
281
0
  0
CLASS
  1
MATERIAL
  2
AcDbMaterial
  3
ObjectDBX Classes
 90
1153
 91
0
280
0
281
0
  0
CLASS
  1
SCALE
  2
AcDbScale
  3
ObjectDBX Classes
 90
1153
 91
0
280
0
281
0
  0
CLASS
  1
TABLESTYLE
  2
AcDbTableStyle
  3
ObjectDBX Classes
 90
4095
 91
0
280
0
281
0
  0
CLASS
  1
MLEADERSTYLE
  2
AcDbMLeaderStyle
  3
ACDB_MLEADERSTYLE_CLASS
 90
4095
 91
0
280
0
281
0
  0
CLASS
  1
DICTIONARYVAR
  2
AcDbDictionaryVar
  3
ObjectDBX Classes
 90
0
 91
0
280
0
281
0
  0
CLASS
  1
CELLSTYLEMAP
  2
AcDbCellStyleMap
  3
ObjectDBX Classes
 90
1152
 91
0
280
0
281
0
  0
CLASS
  1
MENTALRAYRENDERSETTINGS
  2
AcDbMentalRayRenderSettings
  3
SCENEOE
 90
1024
 91
0
280
0
281
0
  0
CLASS
  1
ACDBDETAILVIEWSTYLE
  2
AcDbDetailViewStyle
  3
ObjectDBX Classes
 90
1025
 91
0
280
0
281
0
  0
CLASS
  1
ACDBSECTIONVIEWSTYLE
  2
AcDbSectionViewStyle
  3
ObjectDBX Classes
 90
1025
 91
0
280
0
281
0
  0
CLASS
  1
RASTERVARIABLES
  2
AcDbRasterVariables
  3
ISM
 90
0
 91
0
280
0
281
0
  0
CLASS
  1
LAYOUT
  2
AcDbLayout
  3
ObjectDBX Classes
 90
0
 91
0
280
0
281
0
  0
CLASS
  1
ACDBPLACEHOLDER
  2
AcDbPlaceHolder
  3
ObjectDBX Classes
 90
0
 91
0
280
0
281
0
  0
ENDSEC
  0
SECTION
  2
TABLES
  0
TABLE
  2
VPORT
  5
8
330
0
100
AcDbSymbolTable
 70
1
  0
VPORT
  5
10C
330
8
100
AcDbSymbolTableRecord
100
AcDbViewportTableRecord
  2
*Active
 70
0
 10
0.0
 20
0.0
 11
1.0
 21
1.0
 12
75.1271827815634
 22
57.123335169093245
 13
0.0
 23
0.0
 14
0.5
 24
0.5
 15
0.5
 25
0.5
 16
0.0
 26
0.0
 36
1.0
 17
0.0
 27
0.0
 37
0.0
 40
123.66660243979116
 41
1.34
 42
50.0
 43
0.0
 44
0.0
 50
0.0
 51
0.0
 71
0
 72
1000
 73
1
 74
3
 75
0
 76
0
 77
0
 78
0
281
0
 65
1
110
0.0
120
0.0
130
0.0
111
1.0
121
0.0
131
0.0
112
0.0
122
1.0
132
0.0
 79
0
146
0.0
  0
ENDTAB
  0
TABLE
  2
LTYPE
  5
2
330
0
100
AcDbSymbolTable
 70
3
  0
LTYPE
  5
24
330
2
100
AcDbSymbolTableRecord
100
AcDbLinetypeTableRecord
  2
ByBlock
 70
0
  3

 72
65
 73
0
 40
0.0
  0
LTYPE
  5
25
330
2
100
AcDbSymbolTableRecord
100
AcDbLinetypeTableRecord
  2
ByLayer
 70
0
  3

 72
65
 73
0
 40
0.0
  0
LTYPE
  5
26
330
2
100
AcDbSymbolTableRecord
100
AcDbLinetypeTableRecord
  2
Continuous
 70
0
  3

 72
65
 73
0
 40
0.0
  0
ENDTAB
  0
TABLE
  2
LAYER
  5
1
330
0
100
AcDbSymbolTable
 70
2
  0
LAYER
  5
27
330
1
100
AcDbSymbolTableRecord
100
AcDbLayerTableRecord
  2
0
 70
0
 62
7
  6
Continuous
370
-3
390
13
347
21
  0
LAYER
  5
28
330
1
100
AcDbSymbolTableRecord
100
AcDbLayerTableRecord
  2
Defpoints
 70
0
 62
7
  6
Continuous
290
0
370
-3
390
13
347
21
  0
ENDTAB
  0
TABLE
  2
STYLE
  5
5
330
0
100
AcDbSymbolTable
 70
1
  0
STYLE
  5
29
330
5
100
AcDbSymbolTableRecord
100
AcDbTextStyleTableRecord
  2
Standard
 70
0
 40
0.0
 41
1.0
 50
0.0
 71
0
 42
2.5
  3
txt
  4

  0
ENDTAB
  0
TABLE
  2
VIEW
  5
7
330
0
100
AcDbSymbolTable
 70
0
  0
ENDTAB
  0
TABLE
  2
UCS
  5
6
330
0
100
AcDbSymbolTable
 70
0
  0
ENDTAB
  0
TABLE
  2
APPID
  5
3
330
0
100
AcDbSymbolTable
 70
3
  0
APPID
  5
2A
330
3
100
AcDbSymbolTableRecord
100
AcDbRegAppTableRecord
  2
ACAD
 70
0
  0
APPID
  5
10D
330
3
100
AcDbSymbolTableRecord
100
AcDbRegAppTableRecord
  2
HATCHBACKGROUNDCOLOR
 70
0
  0
APPID
  5
10E
330
3
100
AcDbSymbolTableRecord
100
AcDbRegAppTableRecord
  2
EZDXF
 70
0
  0
ENDTAB
  0
TABLE
  2
DIMSTYLE
  5
4
330
0
100
AcDbSymbolTable
 70
1
100
AcDbDimStyleTable
  0
DIMSTYLE
105
2B
330
4
100
AcDbSymbolTableRecord
100
AcDbDimStyleTableRecord
  2
Standard
 70
0
 40
1.0
 41
2.5
 42
0.625
 43
3.75
 44
1.25
 45
0.0
 46
0.0
 47
0.0
 48
0.0
 49
2.5
140
2.5
141
2.5
142
0.0
143
0.03937007874
144
1.0
145
0.0
146
1.0
147
0.625
148
0.0
 69
0
 70
0
 71
0
 72
0
 73
0
 74
0
 75
0
 76
0
 77
1
 78
8
 79
3
170
0
171
3
172
1
173
0
174
0
175
0
176
0
177
0
178
0
179
2
271
2
272
2
273
2
274
3
275
0
276
0
277
2
278
44
279
0
280
0
281
0
282
0
283
0
284
8
285
0
286
0
288
0
289
3
290
0
371
-2
372
-2
  0
ENDTAB
  0
TABLE
  2
BLOCK_RECORD
  5
9
330
0
100
AcDbSymbolTable
 70
2
  0
BLOCK_RECORD
  5
17
330
9
100
AcDbSymbolTableRecord
100
AcDbBlockTableRecord
  2
*Model_Space
340
1A
 70
0
280
1
281
0
  0
BLOCK_RECORD
  5
1B
330
9
100
AcDbSymbolTableRecord
100
AcDbBlockTableRecord
  2
*Paper_Space
340
1E
 70
0
280
1
281
0
  0
ENDTAB
  0
ENDSEC
  0
SECTION
  2
BLOCKS
  0
BLOCK
  5
18
330
17
100
AcDbEntity
  8
0
100
AcDbBlockBegin
  2
*Model_Space
 70
0
 10
0.0
 20
0.0
 30
0.0
  3
*Model_Space
  1

  0
ENDBLK
  5
19
330
17
100
AcDbEntity
  8
0
100
AcDbBlockEnd
  0
BLOCK
  5
1C
330
1B
100
AcDbEntity
  8
0
100
AcDbBlockBegin
  2
*Paper_Space
 70
0
 10
0.0
 20
0.0
 30
0.0
  3
*Paper_Space
  1

  0
ENDBLK
  5
1D
330
1B
100
AcDbEntity
  8
0
100
AcDbBlockEnd
  0
ENDSEC
  0
SECTION
  2
ENTITIES
  0
LINE
  5
2F
330
17
100
AcDbEntity
  8
0
100
AcDbLine
 10
8.324948603675814
 20
43.41930656113436
 30
0.0
 11
29.421914142192023
 21
58.19156086455388
 31
0.0
  0
LINE
  5
30
330
17
100
AcDbEntity
  8
0
100
AcDbLine
 10
29.421914142192023
 20
58.19156086455388
 30
0.0
 11
29.421914142192016
 21
99.48453594582372
 31
0.0
  0
LINE
  5
31
330
17
100
AcDbEntity
  8
0
100
AcDbLine
 10
8.324948603675814
 20
1.5
 30
0.0
 11
8.324948603675814
 21
43.41930656113436
 31
0.0
  0
ARC
  5
32
330
17
100
AcDbEntity
  8
0
100
AcDbCircle
 10
8.324948603675836
 20
213.05338929661434
 30
0.0
 40
115.5117587362717
100
AcDbArc
 50
280.52351875428155
 51
281.7663021205936
  0
ARC
  5
33
330
17
100
AcDbEntity
  8
0
100
AcDbCircle
 10
8.324948603675807
 20
-11.000000000000014
 30
0.0
 40
12.500000000000018
100
AcDbArc
 50
-314.99949999996176
 51
-270.0
  0
LINE
  5
34
330
17
100
AcDbEntity
  8
0
100
AcDbLine
 10
31.880141846267513
 20
99.9688223670336
 30
0.0
 11
32.24299387783271
 21
98.45774008890561
 31
0.0
  0
LINE
  5
35
330
17
100
AcDbEntity
  8
0
100
AcDbLine
 10
18.93157808948105
 20
-3.9289291028123614
 30
0.0
 11
17.16370623432315
 21
-2.1610881025721858
 31
0.0
  0
ARC
  5
36
330
17
100
AcDbEntity
  8
0
100
AcDbCircle
 10
35.64527877625256
 20
99.27472140436691
 30
0.0
 40
3.499
100
AcDbArc
 50
-166.4973731280481
 51
-76.49737312804812
  0
ARC
  5
37
330
17
100
AcDbEntity
  8
0
100
AcDbCircle
 10
20.345779310457864
 20
-2.5147031991506736
 30
0.0
 40
2.0
100
AcDbArc
 50
225.0005000000383
 51
315.0
  0
LINE
  5
38
330
17
100
AcDbEntity
  8
0
100
AcDbLine
 10
36.46226009171959
 20
95.87243650592326
 30
0.0
 11
36.464204808968255
 21
95.87290348552769
 31
0.0
  0
LINE
  5
39
330
17
100
AcDbEntity
  8
0
100
AcDbLine
 10
22.82064995927996
 20
-2.8682596750747864
 30
0.0
 11
21.75999287283097
 21
-3.92891676152378
 31
0.0
  0
ARC
  5
3A
330
17
100
AcDbEntity
  8
0
100
AcDbCircle
 10
35.64722349350121
 20
99.27518838397134
 30
0.0
 40
3.499
100
AcDbArc
 50
-76.49737312804812
 51
13.502626871951879
  0
LINE
  5
3B
330
17
100
AcDbEntity
  8
0
100
AcDbLine
 10
21.75928268071897
 20
-1.8068923965137882
 30
0.0
 11
22.820649959279965
 21
-2.8682596750747855
 31
0.0
  0
LINE
  5
3C
330
17
100
AcDbEntity
  8
0
100
AcDbLine
 10
39.04950839315297
 20
100.09216969972849
 30
0.0
 11
38.68665636158753
 21
101.6032519778574
 31
0.0
  0
ARC
  5
3D
330
17
100
AcDbEntity
  8
0
100
AcDbCircle
 10
24.23344930896923
 20
0.6672742317364782
 30
0.0
 40
3.499
100
AcDbArc
 50
-225.0
 51
-135.0
  0
ARC
  5
3E
330
17
100
AcDbEntity
  8
0
100
AcDbCircle
 10
8.324948603675836
 20
213.05338929661434
 30
0.0
 40
115.5117587362717
100
AcDbArc
 50
285.2389516233239
 51
297.0052537439038
  0
LINE
  5
3F
330
17
100
AcDbEntity
  8
0
100
AcDbLine
 10
21.760696894298665
 20
3.142855071809368
 30
0.0
 11
21.7592826815975
 21
3.141440859108208
 31
0.0
  0
ARC
  5
40
330
17
100
AcDbEntity
  8
0
100
AcDbCircle
 10
95.22534039391945
 20
42.540421603980235
 30
0.0
 40
75.86836103756242
100
AcDbArc
 50
87.24182120292228
 51
117.00525374390384
  0
ARC
  5
41
330
17
100
AcDbEntity
  8
0
100
AcDbCircle
 10
24.234863521670395
 20
0.6686884444376384
 30
0.0
 40
3.499
100
AcDbArc
 50
-315.0
 51
-225.0
  0
LINE
  5
42
330
17
100
AcDbEntity
  8
0
100
AcDbLine
 10
98.87617983763215
 20
118.32089123753526
 30
0.0
 11
98.74246767646304
 21
116.90697459233289
 31
0.0
  0
LINE
  5
43
330
17
100
AcDbEntity
  8
0
100
AcDbLine
 10
27.770397427585795
 20
2.081487793231048
 30
0.0
 11
26.7090301490248
 21
3.142855071792045
 31
0.0
  0
ARC
  5
44
330
17
100
AcDbEntity
  8
0
100
AcDbCircle
 10
102.22592567207528
 20
116.57754873931975
 30
0.0
 40
3.499
100
AcDbArc
 50
-185.40231693282118
 51
-95.4023169328212
  0
LINE
  5
45
330
17
100
AcDbEntity
  8
0
100
AcDbLine
 10
29.89170542986551
 20
4.202795795510758
 30
0.0
 11
27.7703974275858
 21
2.081487793231047
 31
0.0
  0
LINE
  5
46
330
17
100
AcDbEntity
  8
0
100
AcDbLine
 10
101.89649981905987
 20
113.09409074368308
 30
0.0
 11
101.89849093416376
 21
113.093902446654
 31
0.0
  0
ARC
  5
47
330
17
100
AcDbEntity
  8
0
100
AcDbCircle
 10
99.45013234792128
 20
-65.35563112254502
 30
0.0
 40
98.37047072485228
100
AcDbArc
 50
-255.00000000000043
 51
-225.0
  0
ARC
  5
48
330
17
100
AcDbEntity
  8
0
100
AcDbCircle
 10
102.22791678717923
 20
116.57736044229067
 30
0.0
 40
3.499
100
AcDbArc
 50
-95.4023169328212
 51
-5.402316932821198
  0
ARC
  5
49
330
17
100
AcDbEntity
  8
0
100
AcDbCircle
 10
253.7049567220053
 20
-641.0424729992583
 30
0.0
 40
694.3653454953181
100
AcDbArc
 50
-256.6211602111369
 51
-255.00000000000048
  0
LINE
  5
4A
330
17
100
AcDbEntity
  8
0
100
AcDbLine
 10
105.7113747840528
 20
116.24793458915826
 30
0.0
 11
105.84508694522182
 21
117.66185123435952
 31
0.0
  0
LINE
  5
4B
330
17
100
AcDbEntity
  8
0
100
AcDbLine
 10
92.69476589563654
 20
35.949358002465004
 30
0.0
 11
93.03671304887636
 21
34.47876907964537
 31
0.0
  0
ARC
  5
4C
330
17
100
AcDbEntity
  8
0
100
AcDbCircle
 10
95.22534039391945
 20
42.540421603980235
 30
0.0
 40
75.86836103756242
100
AcDbArc
 50
52.75779340134949
 51
81.95354493141683
  0
ARC
  5
4D
330
17
100
AcDbEntity
  8
0
100
AcDbCircle
 10
96.10284568501693
 20
36.74181819573118
 30
0.0
 40
3.499
100
AcDbArc
 50
-256.9099650583057
 51
-166.9099650583057
  0
ARC
  5
4E
330
17
100
AcDbEntity
  8
0
100
AcDbCircle
 10
139.92941690335104
 20
101.34586612924981
 30
0.0
 40
2.0
100
AcDbArc
 50
0.0
 51
52.7577934013495
  0
LINE
  5
4F
330
17
100
AcDbEntity
  8
0
100
AcDbLine
 10
95.31233352159076
 20
40.1503509474398
 30
0.0
 11
95.31038549203218
 21
40.14989798390142
 31
0.0
  0
LINE
  5
50
330
17
100
AcDbEntity
  8
0
100
AcDbLine
 10
141.929416959451
 20
101.34586612924981
 30
0.0
 11
141.929416959451
 21
77.57254828651001
 31
0.0
  0
ARC
  5
51
330
17
100
AcDbEntity
  8
0
100
AcDbCircle
 10
96.10479371457554
 20
36.74227115926955
 30
0.0
 40
3.499
100
AcDbArc
 50
-346.9099650583057
 51
-256.9099650583057
  0
LINE
  5
52
330
17
100
AcDbEntity
  8
0
100
AcDbLine
 10
141.92941695945098
 20
77.57254828651001
 30
0.0
 11
140.428416959451
 21
77.57254828651001
 31
0.0
  0
LINE
  5
53
330
17
100
AcDbEntity
  8
0
100
AcDbLine
 10
99.85482065596177
 20
36.06414242942901
 30
0.0
 11
99.51287350272192
 21
37.534731352248784
 31
0.0
  0
ARC
  5
54
330
17
100
AcDbEntity
  8
0
100
AcDbCircle
 10
140.428416959451
 20
74.0735482865345
 30
0.0
 40
3.499
100
AcDbArc
 50
-270.0
 51
-180.0
  0
ARC
  5
55
330
17
100
AcDbEntity
  8
0
100
AcDbCircle
 10
253.7049567220053
 20
-641.0424729992583
 30
0.0
 40
694.3653454953181
100
AcDbArc
 50
-258.81993011661126
 51
-257.19876990547505
  0
LINE
  5
56
330
17
100
AcDbEntity
  8
0
100
AcDbLine
 10
136.92941695945098
 20
74.0735482865345
 30
0.0
 11
136.92941695945098
 21
74.07154828775245
 31
0.0
  0
ARC
  5
57
330
17
100
AcDbEntity
  8
0
100
AcDbCircle
 10
65.48813735670478
 20
311.26035567645613
 30
0.0
 40
276.3592542732039
100
AcDbArc
 50
-78.81993011661129
 51
-74.25670891072761
  0
ARC
  5
58
330
17
100
AcDbEntity
  8
0
100
AcDbCircle
 10
140.428416959451
 20
74.07154828775245
 30
0.0
 40
3.499
100
AcDbArc
 50
-180.0
 51
-90.0
  0
ARC
  5
59
330
17
100
AcDbEntity
  8
0
100
AcDbCircle
 10
139.9294169592869
 20
47.19313639985087
 30
0.0
 40
2.0
100
AcDbArc
 50
285.74329108927236
 51
360.0
  0
LINE
  5
5A
330
17
100
AcDbEntity
  8
0
100
AcDbLine
 10
140.428416959451
 20
70.57254828651001
 30
0.0
 11
141.92941695945098
 21
70.57254828651001
 31
0.0
  0
LINE
  5
5B
330
17
100
AcDbEntity
  8
0
100
AcDbLine
 10
141.929416959451
 20
70.57254828651001
 30
0.0
 11
141.929416959451
 21
47.19313639985087
 31
0.0
  0
ARC
  5
5C
330
17
100
AcDbEntity
  8
0
100
AcDbCircle
 10
115.39046008615267
 20
46.09576205427418
 30
0.0
 40
0.5
100
AcDbArc
 50
-440.0
 51
-350.0
  0
LINE
  5
5D
330
17
100
AcDbEntity
  8
0
100
AcDbLine
 10
102.67478338815215
 20
43.345931868508885
 30
0.0
 11
115.47728417498595
 21
45.60335817776904
 31
0.0
  0
ARC
  5
5E
330
17
100
AcDbEntity
  8
0
100
AcDbCircle
 10
102.58795929931867
 20
43.83833574501498
 30
0.0
 40
0.5
100
AcDbArc
 50
-530.0
 51
-440.0
  0
LINE
  5
5F
330
17
100
AcDbEntity
  8
0
100
AcDbLine
 10
99.83812911122754
 20
56.554012442605405
 30
0.0
 11
102.09555542048767
 21
43.75151165577158
 31
0.0
  0
ARC
  5
60
330
17
100
AcDbEntity
  8
0
100
AcDbCircle
 10
100.33053298773368
 20
56.64083653143887
 30
0.0
 40
0.5
100
AcDbArc
 50
-260.0
 51
-169.99999999999997
  0
LINE
  5
61
330
17
100
AcDbEntity
  8
0
100
AcDbLine
 10
113.04620968764891
 20
59.39066671993995
 30
0.0
 11
100.24370889849024
 21
57.13324041026985
 31
0.0
  0
ARC
  5
62
330
17
100
AcDbEntity
  8
0
100
AcDbCircle
 10
113.13303377689235
 20
58.89826284110897
 30
0.0
 40
0.5
100
AcDbArc
 50
-350.0
 51
-260.0
  0
LINE
  5
63
330
17
100
AcDbEntity
  8
0
100
AcDbLine
 10
115.88286396265877
 20
46.18258614310765
 30
0.0
 11
113.62543765339848
 21
58.98508692994244
 31
0.0
  0
ARC
  5
64
330
17
100
AcDbEntity
  8
0
100
AcDbCircle
 10
94.8728590578596
 20
46.38771633242124
 30
0.0
 40
0.5
100
AcDbArc
 50
-435.0
 51
-345.0
  0
LINE
  5
65
330
17
100
AcDbEntity
  8
0
100
AcDbLine
 10
82.44523284093306
 20
42.54010583355588
 30
0.0
 11
95.00226858041061
 21
45.90475341927765
 31
0.0
  0
ARC
  5
66
330
17
100
AcDbEntity
  8
0
100
AcDbCircle
 10
82.31582331838179
 20
43.02306874670041
 30
0.0
 40
0.5
100
AcDbArc
 50
-525.0
 51
-435.0
  0
LINE
  5
67
330
17
100
AcDbEntity
  8
0
100
AcDbLine
 10
78.4682128172352
 20
55.45069496301572
 30
0.0
 11
81.83286040295694
 21
42.89365922353815
 31
0.0
  0
ARC
  5
68
330
17
100
AcDbEntity
  8
0
100
AcDbCircle
 10
78.95117573037969
 20
55.580104485566984
 30
0.0
 40
0.5
100
AcDbArc
 50
-255.00000000000003
 51
-165.0
  0
LINE
  5
69
330
17
100
AcDbEntity
  8
0
100
AcDbLine
 10
91.37880194897535
 20
59.42771498732459
 30
0.0
 11
78.82176620721746
 21
56.06306740099182
 31
0.0
  0
ARC
  5
6A
330
17
100
AcDbEntity
  8
0
100
AcDbCircle
 10
91.5082114721376
 20
58.944752071899764
 30
0.0
 40
0.5
100
AcDbArc
 50
-345.0
 51
-255.00000000000003
  0
LINE
  5
6B
330
17
100
AcDbEntity
  8
0
100
AcDbLine
 10
95.35582197100415
 20
46.5171258549725
 30
0.0
 11
91.99117438528215
 21
59.07416159445103
 31
0.0
  0
ARC
  5
6C
330
17
100
AcDbEntity
  8
0
100
AcDbCircle
 10
29.89170542986587
 20
13.395183950935548
 30
0.0
 40
0.5
100
AcDbArc
 50
-405.0
 51
-315.0
  0
LINE
  5
6D
330
17
100
AcDbEntity
  8
0
100
AcDbLine
 10
21.052870666702635
 20
3.8492424065871322
 30
0.0
 11
30.245258820458456
 21
13.041630560342954
 31
0.0
  0
ARC
  5
6E
330
17
100
AcDbEntity
  8
0
100
AcDbCircle
 10
20.699317276109365
 20
4.202795797180409
 30
0.0
 40
0.5
100
AcDbArc
 50
-494.99999999999994
 51
-405.0
  0
LINE
  5
6F
330
17
100
AcDbEntity
  8
0
100
AcDbLine
 10
11.153375730090971
 20
13.04163055867366
 30
0.0
 11
20.345763883846796
 21
3.849242404917838
 31
0.0
  0
ARC
  5
70
330
17
100
AcDbEntity
  8
0
100
AcDbCircle
 10
11.506929120684244
 20
13.395183949266931
 30
0.0
 40
0.5
100
AcDbArc
 50
-225.0
 51
-135.0
  0
LINE
  5
71
330
17
100
AcDbEntity
  8
0
100
AcDbLine
 10
20.34576388384679
 20
22.94112549695462
 30
0.0
 11
11.153375728421675
 21
13.748737341529502
 31
0.0
  0
ARC
  5
72
330
17
100
AcDbEntity
  8
0
100
AcDbCircle
 10
20.69931727610935
 20
22.587572104692057
 30
0.0
 40
0.5
100
AcDbArc
 50
-315.0
 51
-225.0
  0
LINE
  5
73
330
17
100
AcDbEntity
  8
0
100
AcDbLine
 10
30.24525882045914
 20
13.748737341528818
 30
0.0
 11
21.052870666702628
 21
22.941125495285334
 31
0.0
  0
ARC
  5
74
330
17
100
AcDbEntity
  8
0
100
AcDbCircle
 10
44.62338975898252
 20
24.27747619354796
 30
0.0
 40
0.5
100
AcDbArc
 50
-415.0
 51
-325.0
  0
LINE
  5
75
330
17
100
AcDbEntity
  8
0
100
AcDbLine
 10
34.26120140333442
 20
16.411406500194722
 30
0.0
 11
44.91017797715751
 21
23.86790017140426
 31
0.0
  0
ARC
  5
76
330
17
100
AcDbEntity
  8
0
100
AcDbCircle
 10
33.9744131851589
 20
16.820982522339214
 30
0.0
 40
0.5
100
AcDbArc
 50
-504.99999999999994
 51
-415.0
  0
LINE
  5
77
330
17
100
AcDbEntity
  8
0
100
AcDbLine
 10
26.108343489871068
 20
27.183170876632715
 30
0.0
 11
33.5648371610806
 21
16.53419430280963
 31
0.0
  0
ARC
  5
78
330
17
100
AcDbEntity
  8
0
100
AcDbCircle
 10
26.51791951201556
 20
27.469959094808235
 30
0.0
 40
0.5
100
AcDbArc
 50
-235.0
 51
-145.0
  0
LINE
  5
79
330
17
100
AcDbEntity
  8
0
100
AcDbLine
 10
36.88010786824285
 20
35.33602879145014
 30
0.0
 11
26.231131292485962
 21
27.879535118886533
 31
0.0
  0
ARC
  5
7A
330
17
100
AcDbEntity
  8
0
100
AcDbCircle
 10
37.166896087772436
 20
34.92645276737184
 30
0.0
 40
0.5
100
AcDbArc
 50
-325.0
 51
-235.0
  0
LINE
  5
7B
330
17
100
AcDbEntity
  8
0
100
AcDbLine
 10
45.032965781127025
 20
24.564264411723485
 30
0.0
 11
37.57647210991693
 21
35.21324098554737
 31
0.0
  0
ARC
  5
7C
330
17
100
AcDbEntity
  8
0
100
AcDbCircle
 10
78.58617512634213
 20
37.62378875884733
 30
0.0
 40
0.5
100
AcDbArc
 50
-435.0
 51
-345.0
  0
LINE
  5
7D
330
17
100
AcDbEntity
  8
0
100
AcDbLine
 10
66.15854890941556
 20
33.77617825998196
 30
0.0
 11
78.71558464889311
 21
37.14082584570374
 31
0.0
  0
ARC
  5
7E
330
17
100
AcDbEntity
  8
0
100
AcDbCircle
 10
66.02913938686429
 20
34.259141173126494
 30
0.0
 40
0.5
100
AcDbArc
 50
-525.0
 51
-435.0
  0
LINE
  5
7F
330
17
100
AcDbEntity
  8
0
100
AcDbLine
 10
62.18152888571767
 20
46.68676738944182
 30
0.0
 11
65.54617647143944
 21
34.12973164996424
 31
0.0
  0
ARC
  5
80
330
17
100
AcDbEntity
  8
0
100
AcDbCircle
 10
62.664491798862215
 20
46.816176911993075
 30
0.0
 40
0.5
100
AcDbArc
 50
-255.00000000000003
 51
-165.0
  0
LINE
  5
81
330
17
100
AcDbEntity
  8
0
100
AcDbLine
 10
75.09211801745782
 20
50.66378741375068
 30
0.0
 11
62.53508227569996
 21
47.29913982741791
 31
0.0
  0
ARC
  5
82
330
17
100
AcDbEntity
  8
0
100
AcDbCircle
 10
75.2215275406201
 20
50.180824498325855
 30
0.0
 40
0.5
100
AcDbArc
 50
-345.0
 51
-255.00000000000003
  0
LINE
  5
83
330
17
100
AcDbEntity
  8
0
100
AcDbLine
 10
79.06913803948667
 20
37.75319828139859
 30
0.0
 11
75.70449045376462
 21
50.31023402087712
 31
0.0
  0
ARC
  5
84
330
17
100
AcDbEntity
  8
0
100
AcDbCircle
 10
61.0209569179937
 20
32.43631182690171
 30
0.0
 40
0.5
100
AcDbArc
 50
-425.0
 51
-335.0
  0
LINE
  5
85
330
17
100
AcDbEntity
  8
0
100
AcDbLine
 10
49.45026481952674
 20
26.489120531752853
 30
0.0
 11
61.232266048863636
 21
31.983157933384263
 31
0.0
  0
ARC
  5
86
330
17
100
AcDbEntity
  8
0
100
AcDbCircle
 10
49.238955688656404
 20
26.942274425271183
 30
0.0
 40
0.5
100
AcDbArc
 50
-514.9999999999999
 51
-425.0
  0
LINE
  5
87
330
17
100
AcDbEntity
  8
0
100
AcDbLine
 10
43.291764391367124
 20
38.51296652274003
 30
0.0
 11
48.78580179299853
 21
26.730965293403138
 31
0.0
  0
ARC
  5
88
330
17
100
AcDbEntity
  8
0
100
AcDbCircle
 10
43.74491828488544
 20
38.72427565361038
 30
0.0
 40
0.5
100
AcDbArc
 50
-244.99999999999997
 51
-154.99999999999997
  0
LINE
  5
89
330
17
100
AcDbEntity
  8
0
100
AcDbLine
 10
55.31561038449385
 20
44.67146695189735
 30
0.0
 11
43.53360915301741
 21
39.17742954926826
 31
0.0
  0
ARC
  5
8A
330
17
100
AcDbEntity
  8
0
100
AcDbCircle
 10
55.526919516361886
 20
44.21831305623948
 30
0.0
 40
0.5
100
AcDbArc
 50
-335.0
 51
-244.99999999999997
  0
LINE
  5
8B
330
17
100
AcDbEntity
  8
0
100
AcDbLine
 10
61.47411081151202
 20
32.647620957772055
 30
0.0
 11
55.980073409880205
 21
44.42962218710983
 31
0.0
  0
ARC
  5
8C
330
17
100
AcDbEntity
  8
0
100
AcDbCircle
 10
56.79958648639603
 20
49.38578499391611
 30
0.0
 40
0.5
100
AcDbArc
 50
-435.0
 51
-345.0
  0
LINE
  5
8D
330
17
100
AcDbEntity
  8
0
100
AcDbLine
 10
44.371960269469476
 20
45.53817449505075
 30
0.0
 11
56.92899600894706
 21
48.902822080772516
 31
0.0
  0
ARC
  5
8E
330
17
100
AcDbEntity
  8
0
100
AcDbCircle
 10
44.24255074691822
 20
46.02113740819528
 30
0.0
 40
0.5
100
AcDbArc
 50
-525.0
 51
-435.0
  0
LINE
  5
8F
330
17
100
AcDbEntity
  8
0
100
AcDbLine
 10
40.394940245771615
 20
58.448763624510605
 30
0.0
 11
43.75958783149337
 21
45.89172788503302
 31
0.0
  0
ARC
  5
90
330
17
100
AcDbEntity
  8
0
100
AcDbCircle
 10
40.87790315891613
 20
58.578173147061854
 30
0.0
 40
0.5
100
AcDbArc
 50
-255.00000000000003
 51
-165.0
  0
LINE
  5
91
330
17
100
AcDbEntity
  8
0
100
AcDbLine
 10
53.30552937751177
 20
62.42578364881946
 30
0.0
 11
40.74849363575387
 21
59.061136062486696
 31
0.0
  0
ARC
  5
92
330
17
100
AcDbEntity
  8
0
100
AcDbCircle
 10
53.434938900674005
 20
61.94282073339464
 30
0.0
 40
0.5
100
AcDbArc
 50
-345.0
 51
-255.00000000000003
  0
LINE
  5
93
330
17
100
AcDbEntity
  8
0
100
AcDbLine
 10
57.282549399540564
 20
49.515194516467375
 30
0.0
 11
53.91790181381855
 21
62.0722302559459
 31
0.0
  0
ARC
  5
94
330
17
100
AcDbEntity
  8
0
100
AcDbCircle
 10
34.872590341014764
 20
38.20306094646082
 30
0.0
 40
0.5
100
AcDbArc
 50
-415.0
 51
-325.0
  0
LINE
  5
95
330
17
100
AcDbEntity
  8
0
100
AcDbLine
 10
24.51040198536664
 20
30.336991253107588
 30
0.0
 11
35.159378559189726
 21
37.79348492431713
 31
0.0
  0
ARC
  5
96
330
17
100
AcDbEntity
  8
0
100
AcDbCircle
 10
24.223613767191125
 20
30.746567275252083
 30
0.0
 40
0.5
100
AcDbArc
 50
-504.99999999999994
 51
-415.0
  0
LINE
  5
97
330
17
100
AcDbEntity
  8
0
100
AcDbLine
 10
16.357544071903284
 20
41.10875562954558
 30
0.0
 11
23.81403774311282
 21
30.45977905572249
 31
0.0
  0
ARC
  5
98
330
17
100
AcDbEntity
  8
0
100
AcDbCircle
 10
16.767120094047783
 20
41.3955438477211
 30
0.0
 40
0.5
100
AcDbArc
 50
-235.0
 51
-145.0
  0
LINE
  5
99
330
17
100
AcDbEntity
  8
0
100
AcDbLine
 10
27.129308450275083
 20
49.261613544363
 30
0.0
 11
16.480331874518193
 21
41.8051198717994
 31
0.0
  0
ARC
  5
9A
330
17
100
AcDbEntity
  8
0
100
AcDbCircle
 10
27.416096669804666
 20
48.85203752028471
 30
0.0
 40
0.5
100
AcDbArc
 50
-325.0
 51
-235.0
  0
LINE
  5
9B
330
17
100
AcDbEntity
  8
0
100
AcDbLine
 10
35.282166363159256
 20
38.48984916463634
 30
0.0
 11
27.82567269194916
 21
49.138825738460234
 31
0.0
  0
ARC
  5
9C
330
17
100
AcDbEntity
  8
0
100
AcDbCircle
 10
134.92941695945083
 20
51.092649001697524
 30
0.0
 40
0.5
100
AcDbArc
 50
-450.0
 51
-360.0
  0
LINE
  5
9D
330
17
100
AcDbEntity
  8
0
100
AcDbLine
 10
121.92941696181157
 20
50.59264900169849
 30
0.0
 11
134.92941695945083
 21
50.59264900169849
 31
0.0
  0
ARC
  5
9E
330
17
100
AcDbEntity
  8
0
100
AcDbCircle
 10
121.92941696181157
 20
51.09264900169849
 30
0.0
 40
0.5
100
AcDbArc
 50
-540.0
 51
-450.0
  0
LINE
  5
9F
330
17
100
AcDbEntity
  8
0
100
AcDbLine
 10
121.42941695945083
 20
64.09264899933774
 30
0.0
 11
121.42941695945083
 21
51.09264900169848
 31
0.0
  0
ARC
  5
A0
330
17
100
AcDbEntity
  8
0
100
AcDbCircle
 10
121.92941695945083
 20
64.09264899933774
 30
0.0
 40
0.5
100
AcDbArc
 50
-270.0
 51
-180.0
  0
LINE
  5
A1
330
17
100
AcDbEntity
  8
0
100
AcDbLine
 10
134.92941695945083
 20
64.59264900169848
 30
0.0
 11
121.92941695945083
 21
64.59264900169848
 31
0.0
  0
ARC
  5
A2
330
17
100
AcDbEntity
  8
0
100
AcDbCircle
 10
134.92941695945083
 20
64.09264899933775
 30
0.0
 40
0.5
100
AcDbArc
 50
-360.0
 51
-270.0
  0
LINE
  5
A3
330
17
100
AcDbEntity
  8
0
100
AcDbLine
 10
135.42941695945083
 20
51.09264900169752
 30
0.0
 11
135.42941695945083
 21
64.09264899933775
 31
0.0
  0
ARC
  5
A4
330
17
100
AcDbEntity
  8
0
100
AcDbCircle
 10
112.43844106581484
 20
62.83749385548173
 30
0.0
 40
0.5
100
AcDbArc
 50
-440.0
 51
-350.0
  0
LINE
  5
A5
330
17
100
AcDbEntity
  8
0
100
AcDbLine
 10
99.72276436781432
 20
60.08766366971642
 30
0.0
 11
112.52526515464812
 21
62.34508997897658
 31
0.0
  0
ARC
  5
A6
330
17
100
AcDbEntity
  8
0
100
AcDbCircle
 10
99.63594027898081
 20
60.58006754622252
 30
0.0
 40
0.5
100
AcDbArc
 50
-530.0
 51
-440.0
  0
LINE
  5
A7
330
17
100
AcDbEntity
  8
0
100
AcDbLine
 10
96.88611009088969
 20
73.29574424381295
 30
0.0
 11
99.14353640014984
 21
60.493243456979116
 31
0.0
  0
ARC
  5
A8
330
17
100
AcDbEntity
  8
0
100
AcDbCircle
 10
97.37851396739582
 20
73.38256833264641
 30
0.0
 40
0.5
100
AcDbArc
 50
-260.0
 51
-169.99999999999997
  0
LINE
  5
A9
330
17
100
AcDbEntity
  8
0
100
AcDbLine
 10
110.09419066731111
 20
76.1323985211475
 30
0.0
 11
97.29168987815238
 21
73.8749722114774
 31
0.0
  0
ARC
  5
AA
330
17
100
AcDbEntity
  8
0
100
AcDbCircle
 10
110.18101475655449
 20
75.63999464231652
 30
0.0
 40
0.5
100
AcDbArc
 50
-350.0
 51
-260.0
  0
LINE
  5
AB
330
17
100
AcDbEntity
  8
0
100
AcDbLine
 10
112.93084494232095
 20
62.92431794431519
 30
0.0
 11
110.67341863306062
 21
75.72681873114999
 31
0.0
  0
ARC
  5
AC
330
17
100
AcDbEntity
  8
0
100
AcDbCircle
 10
134.92941695945083
 20
68.09264900169751
 30
0.0
 40
0.5
100
AcDbArc
 50
-450.0
 51
-360.0
  0
LINE
  5
AD
330
17
100
AcDbEntity
  8
0
100
AcDbLine
 10
121.92941696181157
 20
67.59264900169848
 30
0.0
 11
134.92941695945083
 21
67.59264900169848
 31
0.0
  0
ARC
  5
AE
330
17
100
AcDbEntity
  8
0
100
AcDbCircle
 10
121.92941696181157
 20
68.09264900169848
 30
0.0
 40
0.5
100
AcDbArc
 50
-540.0
 51
-450.0
  0
LINE
  5
AF
330
17
100
AcDbEntity
  8
0
100
AcDbLine
 10
121.42941695945083
 20
81.09264899933773
 30
0.0
 11
121.42941695945083
 21
68.09264900169848
 31
0.0
  0
ARC
  5
B0
330
17
100
AcDbEntity
  8
0
100
AcDbCircle
 10
121.92941695945083
 20
81.09264899933773
 30
0.0
 40
0.5
100
AcDbArc
 50
-270.0
 51
-180.0
  0
LINE
  5
B1
330
17
100
AcDbEntity
  8
0
100
AcDbLine
 10
134.92941695945083
 20
81.59264900169846
 30
0.0
 11
121.92941695945083
 21
81.59264900169846
 31
0.0
  0
ARC
  5
B2
330
17
100
AcDbEntity
  8
0
100
AcDbCircle
 10
134.92941695945083
 20
81.09264899933774
 30
0.0
 40
0.5
100
AcDbArc
 50
-360.0
 51
-270.0
  0
LINE
  5
B3
330
17
100
AcDbEntity
  8
0
100
AcDbLine
 10
135.42941695945083
 20
68.09264900169751
 30
0.0
 11
135.42941695945083
 21
81.09264899933774
 31
0.0
  0
ARC
  5
B4
330
17
100
AcDbEntity
  8
0
100
AcDbCircle
 10
90.47293529111674
 20
62.808455379335406
 30
0.0
 40
0.5
100
AcDbArc
 50
-435.0
 51
-345.0
  0
LINE
  5
B5
330
17
100
AcDbEntity
  8
0
100
AcDbLine
 10
78.04530907419017
 20
58.960844880470034
 30
0.0
 11
90.60234481366776
 21
62.32549246619181
 31
0.0
  0
ARC
  5
B6
330
17
100
AcDbEntity
  8
0
100
AcDbCircle
 10
77.9158995516389
 20
59.443807793614575
 30
0.0
 40
0.5
100
AcDbArc
 50
-525.0
 51
-435.0
  0
LINE
  5
B7
330
17
100
AcDbEntity
  8
0
100
AcDbLine
 10
74.06828905049231
 20
71.87143400992989
 30
0.0
 11
77.43293663621405
 21
59.31439827045231
 31
0.0
  0
ARC
  5
B8
330
17
100
AcDbEntity
  8
0
100
AcDbCircle
 10
74.55125196363683
 20
72.00084353248116
 30
0.0
 40
0.5
100
AcDbArc
 50
-255.00000000000003
 51
-165.0
  0
LINE
  5
B9
330
17
100
AcDbEntity
  8
0
100
AcDbLine
 10
86.97887818223244
 20
75.84845403423876
 30
0.0
 11
74.42184244047458
 21
72.48380644790598
 31
0.0
  0
ARC
  5
BA
330
17
100
AcDbEntity
  8
0
100
AcDbCircle
 10
87.10828770539472
 20
75.36549111881394
 30
0.0
 40
0.5
100
AcDbArc
 50
-345.0
 51
-255.00000000000003
  0
LINE
  5
BB
330
17
100
AcDbEntity
  8
0
100
AcDbLine
 10
90.95589820426129
 20
62.937864901886655
 30
0.0
 11
87.59125061853923
 21
75.49490064136519
 31
0.0
  0
ARC
  5
BC
330
17
100
AcDbEntity
  8
0
100
AcDbCircle
 10
134.92941695945083
 20
85.09264900169751
 30
0.0
 40
0.5
100
AcDbArc
 50
-450.0
 51
-360.0
  0
LINE
  5
BD
330
17
100
AcDbEntity
  8
0
100
AcDbLine
 10
121.92941696181157
 20
84.59264900169848
 30
0.0
 11
134.92941695945083
 21
84.59264900169848
 31
0.0
  0
ARC
  5
BE
330
17
100
AcDbEntity
  8
0
100
AcDbCircle
 10
121.92941696181157
 20
85.09264900169848
 30
0.0
 40
0.5
100
AcDbArc
 50
-540.0
 51
-450.0
  0
LINE
  5
BF
330
17
100
AcDbEntity
  8
0
100
AcDbLine
 10
121.42941695945083
 20
98.09264899933773
 30
0.0
 11
121.42941695945083
 21
85.09264900169848
 31
0.0
  0
ARC
  5
C0
330
17
100
AcDbEntity
  8
0
100
AcDbCircle
 10
121.92941695945083
 20
98.09264899933773
 30
0.0
 40
0.5
100
AcDbArc
 50
-270.0
 51
-180.0
  0
LINE
  5
C1
330
17
100
AcDbEntity
  8
0
100
AcDbLine
 10
134.92941695945083
 20
98.59264900169846
 30
0.0
 11
121.92941695945083
 21
98.59264900169846
 31
0.0
  0
ARC
  5
C2
330
17
100
AcDbEntity
  8
0
100
AcDbCircle
 10
134.92941695945083
 20
98.09264899933774
 30
0.0
 40
0.5
100
AcDbArc
 50
-360.0
 51
-270.0
  0
LINE
  5
C3
330
17
100
AcDbEntity
  8
0
100
AcDbLine
 10
135.42941695945083
 20
85.09264900169751
 30
0.0
 11
135.42941695945083
 21
98.09264899933774
 31
0.0
  0
ARC
  5
C4
330
17
100
AcDbEntity
  8
0
100
AcDbCircle
 10
109.48642204547703
 20
79.57922565668926
 30
0.0
 40
0.5
100
AcDbArc
 50
-440.0
 51
-350.0
  0
LINE
  5
C5
330
17
100
AcDbEntity
  8
0
100
AcDbLine
 10
96.7707453474765
 20
76.82939547092396
 30
0.0
 11
109.57324613431031
 21
79.08682178018412
 31
0.0
  0
ARC
  5
C6
330
17
100
AcDbEntity
  8
0
100
AcDbCircle
 10
96.68392125864305
 20
77.32179934743006
 30
0.0
 40
0.5
100
AcDbArc
 50
-530.0
 51
-440.0
  0
LINE
  5
C7
330
17
100
AcDbEntity
  8
0
100
AcDbLine
 10
93.93409107055187
 20
90.03747604502047
 30
0.0
 11
96.19151737981205
 21
77.23497525818667
 31
0.0
  0
ARC
  5
C8
330
17
100
AcDbEntity
  8
0
100
AcDbCircle
 10
94.426494947058
 20
90.12430013385395
 30
0.0
 40
0.5
100
AcDbArc
 50
-260.0
 51
-169.99999999999997
  0
LINE
  5
C9
330
17
100
AcDbEntity
  8
0
100
AcDbLine
 10
107.1421716469733
 20
92.87413032235503
 30
0.0
 11
94.3396708578146
 21
90.61670401268492
 31
0.0
  0
ARC
  5
CA
330
17
100
AcDbEntity
  8
0
100
AcDbCircle
 10
107.2289957362167
 20
92.38172644352406
 30
0.0
 40
0.5
100
AcDbArc
 50
-350.0
 51
-260.0
  0
LINE
  5
CB
330
17
100
AcDbEntity
  8
0
100
AcDbLine
 10
109.97882592198313
 20
79.66604974552273
 30
0.0
 11
107.72139961272283
 21
92.46855053235751
 31
0.0
  0
ARC
  5
CC
330
17
100
AcDbEntity
  8
0
100
AcDbCircle
 10
86.0730115243739
 20
79.22919442624956
 30
0.0
 40
0.5
100
AcDbArc
 50
-435.0
 51
-345.0
  0
LINE
  5
CD
330
17
100
AcDbEntity
  8
0
100
AcDbLine
 10
73.64538530744736
 20
75.3815839273842
 30
0.0
 11
86.20242104692491
 21
78.74623151310598
 31
0.0
  0
ARC
  5
CE
330
17
100
AcDbEntity
  8
0
100
AcDbCircle
 10
73.51597578489609
 20
75.86454684052873
 30
0.0
 40
0.5
100
AcDbArc
 50
-525.0
 51
-435.0
  0
LINE
  5
CF
330
17
100
AcDbEntity
  8
0
100
AcDbLine
 10
69.6683652837495
 20
88.29217305684405
 30
0.0
 11
73.03301286947124
 21
75.73513731736648
 31
0.0
  0
ARC
  5
D0
330
17
100
AcDbEntity
  8
0
100
AcDbCircle
 10
70.15132819689401
 20
88.4215825793953
 30
0.0
 40
0.5
100
AcDbArc
 50
-255.00000000000003
 51
-165.0
  0
LINE
  5
D1
330
17
100
AcDbEntity
  8
0
100
AcDbLine
 10
82.57895441548962
 20
92.26919308115292
 30
0.0
 11
70.02191867373173
 21
88.90454549482016
 31
0.0
  0
ARC
  5
D2
330
17
100
AcDbEntity
  8
0
100
AcDbCircle
 10
82.7083639386519
 20
91.78623016572809
 30
0.0
 40
0.5
100
AcDbArc
 50
-345.0
 51
-255.00000000000003
  0
LINE
  5
D3
330
17
100
AcDbEntity
  8
0
100
AcDbLine
 10
86.55597443751847
 20
79.35860394880083
 30
0.0
 11
83.19132685179642
 21
91.91563968827936
 31
0.0
  0
ARC
  5
D4
330
17
100
AcDbEntity
  8
0
100
AcDbCircle
 10
106.53440302513921
 20
96.32095745789681
 30
0.0
 40
0.5
100
AcDbArc
 50
-440.0
 51
-350.0
  0
LINE
  5
D5
330
17
100
AcDbEntity
  8
0
100
AcDbLine
 10
93.81872632713866
 20
93.5711272721315
 30
0.0
 11
106.6212271139725
 21
95.82855358139166
 31
0.0
  0
ARC
  5
D6
330
17
100
AcDbEntity
  8
0
100
AcDbCircle
 10
93.73190223830521
 20
94.06353114863761
 30
0.0
 40
0.5
100
AcDbArc
 50
-530.0
 51
-440.0
  0
LINE
  5
D7
330
17
100
AcDbEntity
  8
0
100
AcDbLine
 10
90.98207205021406
 20
106.77920784622802
 30
0.0
 11
93.23949835947421
 21
93.9767070593942
 31
0.0
  0
ARC
  5
D8
330
17
100
AcDbEntity
  8
0
100
AcDbCircle
 10
91.47447592672019
 20
106.8660319350615
 30
0.0
 40
0.5
100
AcDbArc
 50
-260.0
 51
-169.99999999999997
  0
LINE
  5
D9
330
17
100
AcDbEntity
  8
0
100
AcDbLine
 10
104.19015262663548
 20
109.61586212356258
 30
0.0
 11
91.38765183747675
 21
107.35843581389247
 31
0.0
  0
ARC
  5
DA
330
17
100
AcDbEntity
  8
0
100
AcDbCircle
 10
104.27697671587886
 20
109.12345824473161
 30
0.0
 40
0.5
100
AcDbArc
 50
-350.0
 51
-260.0
  0
LINE
  5
DB
330
17
100
AcDbEntity
  8
0
100
AcDbLine
 10
107.02680690164534
 20
96.40778154673028
 30
0.0
 11
104.76938059238499
 21
109.21028233356506
 31
0.0
  0
ARC
  5
DC
330
17
100
AcDbEntity
  8
0
100
AcDbCircle
 10
81.67308775763101
 20
95.64993347316371
 30
0.0
 40
0.5
100
AcDbArc
 50
-435.0
 51
-345.0
  0
LINE
  5
DD
330
17
100
AcDbEntity
  8
0
100
AcDbLine
 10
69.24546154070447
 20
91.80232297429835
 30
0.0
 11
81.80249728018205
 21
95.16697056002012
 31
0.0
  0
ARC
  5
DE
330
17
100
AcDbEntity
  8
0
100
AcDbCircle
 10
69.1160520181532
 20
92.28528588744288
 30
0.0
 40
0.5
100
AcDbArc
 50
-525.0
 51
-435.0
  0
LINE
  5
DF
330
17
100
AcDbEntity
  8
0
100
AcDbLine
 10
65.26844151700658
 20
104.7129121037582
 30
0.0
 11
68.63308910272838
 21
92.15587636428063
 31
0.0
  0
ARC
  5
E0
330
17
100
AcDbEntity
  8
0
100
AcDbCircle
 10
65.75140443015113
 20
104.84232162630946
 30
0.0
 40
0.5
100
AcDbArc
 50
-255.00000000000003
 51
-165.0
  0
LINE
  5
E1
330
17
100
AcDbEntity
  8
0
100
AcDbLine
 10
78.17903064874673
 20
108.68993212806706
 30
0.0
 11
65.62199490698887
 21
105.32528454173429
 31
0.0
  0
ARC
  5
E2
330
17
100
AcDbEntity
  8
0
100
AcDbCircle
 10
78.30844017190904
 20
108.20696921264224
 30
0.0
 40
0.5
100
AcDbArc
 50
-345.0
 51
-255.00000000000003
  0
LINE
  5
E3
330
17
100
AcDbEntity
  8
0
100
AcDbLine
 10
82.15605067077558
 20
95.77934299571498
 30
0.0
 11
78.79140308505353
 21
108.3363787351935
 31
0.0
  0
ARC
  5
E4
330
17
100
AcDbEntity
  8
0
100
AcDbCircle
 10
74.18625135959924
 20
54.0445278057615
 30
0.0
 40
0.5
100
AcDbArc
 50
-435.0
 51
-345.0
  0
LINE
  5
E5
330
17
100
AcDbEntity
  8
0
100
AcDbLine
 10
61.7586251426727
 20
50.19691730689613
 30
0.0
 11
74.31566088215028
 21
53.561564892617895
 31
0.0
  0
ARC
  5
E6
330
17
100
AcDbEntity
  8
0
100
AcDbCircle
 10
61.62921562012143
 20
50.67988022004066
 30
0.0
 40
0.5
100
AcDbArc
 50
-525.0
 51
-435.0
  0
LINE
  5
E7
330
17
100
AcDbEntity
  8
0
100
AcDbLine
 10
57.781605118974824
 20
63.107506436355976
 30
0.0
 11
61.14625270469659
 21
50.550470696878406
 31
0.0
  0
ARC
  5
E8
330
17
100
AcDbEntity
  8
0
100
AcDbCircle
 10
58.26456803211937
 20
63.23691595890724
 30
0.0
 40
0.5
100
AcDbArc
 50
-255.00000000000003
 51
-165.0
  0
LINE
  5
E9
330
17
100
AcDbEntity
  8
0
100
AcDbLine
 10
70.69219425071499
 20
67.08452646066485
 30
0.0
 11
58.13515850895709
 21
63.719878874332075
 31
0.0
  0
ARC
  5
EA
330
17
100
AcDbEntity
  8
0
100
AcDbCircle
 10
70.82160377387724
 20
66.60156354524003
 30
0.0
 40
0.5
100
AcDbArc
 50
-345.0
 51
-255.00000000000003
  0
LINE
  5
EB
330
17
100
AcDbEntity
  8
0
100
AcDbLine
 10
74.66921427274379
 20
54.17393732831276
 30
0.0
 11
71.30456668702176
 21
66.7309730677913
 31
0.0
  0
ARC
  5
EC
330
17
100
AcDbEntity
  8
0
100
AcDbCircle
 10
69.7863275928564
 20
70.46526685267565
 30
0.0
 40
0.5
100
AcDbArc
 50
-435.0
 51
-345.0
  0
LINE
  5
ED
330
17
100
AcDbEntity
  8
0
100
AcDbLine
 10
57.35870137592982
 20
66.61765635381029
 30
0.0
 11
69.91573711540741
 21
69.98230393953206
 31
0.0
  0
ARC
  5
EE
330
17
100
AcDbEntity
  8
0
100
AcDbCircle
 10
57.22929185337858
 20
67.10061926695482
 30
0.0
 40
0.5
100
AcDbArc
 50
-525.0
 51
-435.0
  0
LINE
  5
EF
330
17
100
AcDbEntity
  8
0
100
AcDbLine
 10
53.38168135223197
 20
79.52824548327014
 30
0.0
 11
56.74632893795374
 21
66.97120974379256
 31
0.0
  0
ARC
  5
F0
330
17
100
AcDbEntity
  8
0
100
AcDbCircle
 10
53.86464426537652
 20
79.6576550058214
 30
0.0
 40
0.5
100
AcDbArc
 50
-255.00000000000003
 51
-165.0
  0
LINE
  5
F1
330
17
100
AcDbEntity
  8
0
100
AcDbLine
 10
66.29227048397212
 20
83.505265507579
 30
0.0
 11
53.735234742214224
 21
80.14061792124625
 31
0.0
  0
ARC
  5
F2
330
17
100
AcDbEntity
  8
0
100
AcDbCircle
 10
66.42168000713437
 20
83.02230259215418
 30
0.0
 40
0.5
100
AcDbArc
 50
-345.0
 51
-255.00000000000003
  0
LINE
  5
F3
330
17
100
AcDbEntity
  8
0
100
AcDbLine
 10
70.26929050600091
 20
70.59467637522692
 30
0.0
 11
66.90464292027892
 21
83.15171211470545
 31
0.0
  0
ARC
  5
F4
330
17
100
AcDbEntity
  8
0
100
AcDbCircle
 10
52.39966271965319
 20
65.80652404083027
 30
0.0
 40
0.5
100
AcDbArc
 50
-435.0
 51
-345.0
  0
LINE
  5
F5
330
17
100
AcDbEntity
  8
0
100
AcDbLine
 10
39.972036502726624
 20
61.958913541964904
 30
0.0
 11
52.52907224220421
 21
65.32356112768667
 31
0.0
  0
ARC
  5
F6
330
17
100
AcDbEntity
  8
0
100
AcDbCircle
 10
39.84262698017535
 20
62.44187645510944
 30
0.0
 40
0.5
100
AcDbArc
 50
-525.0
 51
-435.0
  0
LINE
  5
F7
330
17
100
AcDbEntity
  8
0
100
AcDbLine
 10
35.99501647902875
 20
74.86950267142475
 30
0.0
 11
39.35966406475053
 21
62.31246693194717
 31
0.0
  0
ARC
  5
F8
330
17
100
AcDbEntity
  8
0
100
AcDbCircle
 10
36.477979392173296
 20
74.99891219397601
 30
0.0
 40
0.5
100
AcDbArc
 50
-255.00000000000003
 51
-165.0
  0
LINE
  5
F9
330
17
100
AcDbEntity
  8
0
100
AcDbLine
 10
48.905605610768916
 20
78.84652269573363
 30
0.0
 11
36.348569869011015
 21
75.48187510940085
 31
0.0
  0
ARC
  5
FA
330
17
100
AcDbEntity
  8
0
100
AcDbCircle
 10
49.03501513393117
 20
78.3635597803088
 30
0.0
 40
0.5
100
AcDbArc
 50
-345.0
 51
-255.00000000000003
  0
LINE
  5
FB
330
17
100
AcDbEntity
  8
0
100
AcDbLine
 10
52.88262563279771
 20
65.93593356338152
 30
0.0
 11
49.5179780470757
 21
78.49296930286006
 31
0.0
  0
ARC
  5
FC
330
17
100
AcDbEntity
  8
0
100
AcDbCircle
 10
65.38640382611355
 20
86.88600589958979
 30
0.0
 40
0.5
100
AcDbArc
 50
-435.0
 51
-345.0
  0
LINE
  5
FD
330
17
100
AcDbEntity
  8
0
100
AcDbLine
 10
52.95877760918697
 20
83.03839540072444
 30
0.0
 11
65.51581334866457
 21
86.4030429864462
 31
0.0
  0
ARC
  5
FE
330
17
100
AcDbEntity
  8
0
100
AcDbCircle
 10
52.82936808663571
 20
83.52135831386897
 30
0.0
 40
0.5
100
AcDbArc
 50
-525.0
 51
-435.0
  0
LINE
  5
FF
330
17
100
AcDbEntity
  8
0
100
AcDbLine
 10
48.98175758548912
 20
95.94898453018428
 30
0.0
 11
52.34640517121089
 21
83.39194879070669
 31
0.0
  0
ARC
  5
100
330
17
100
AcDbEntity
  8
0
100
AcDbCircle
 10
49.46472049863365
 20
96.07839405273555
 30
0.0
 40
0.5
100
AcDbArc
 50
-255.00000000000003
 51
-165.0
  0
LINE
  5
101
330
17
100
AcDbEntity
  8
0
100
AcDbLine
 10
61.89234671722927
 20
99.92600455449315
 30
0.0
 11
49.33531097547137
 21
96.56135696816038
 31
0.0
  0
ARC
  5
102
330
17
100
AcDbEntity
  8
0
100
AcDbCircle
 10
62.021756240391525
 20
99.44304163906833
 30
0.0
 40
0.5
100
AcDbArc
 50
-345.0
 51
-255.00000000000003
  0
LINE
  5
103
330
17
100
AcDbEntity
  8
0
100
AcDbLine
 10
65.86936673925808
 20
87.01541542214106
 30
0.0
 11
62.50471915353606
 21
99.57245116161958
 31
0.0
  0
ARC
  5
104
330
17
100
AcDbEntity
  8
0
100
AcDbCircle
 10
47.99973895291035
 20
82.22726308774442
 30
0.0
 40
0.5
100
AcDbArc
 50
-435.0
 51
-345.0
  0
LINE
  5
105
330
17
100
AcDbEntity
  8
0
100
AcDbLine
 10
35.57211273598378
 20
78.37965258887905
 30
0.0
 11
48.12914847546136
 21
81.74430017460082
 31
0.0
  0
ARC
  5
106
330
17
100
AcDbEntity
  8
0
100
AcDbCircle
 10
35.44270321343251
 20
78.8626155020236
 30
0.0
 40
0.5
100
AcDbArc
 50
-525.0
 51
-435.0
  0
LINE
  5
107
330
17
100
AcDbEntity
  8
0
100
AcDbLine
 10
31.595092712285904
 20
91.29024171833892
 30
0.0
 11
34.959740298007674
 21
78.73320597886133
 31
0.0
  0
ARC
  5
108
330
17
100
AcDbEntity
  8
0
100
AcDbCircle
 10
32.07805562543045
 20
91.41965124089018
 30
0.0
 40
0.5
100
AcDbArc
 50
-255.00000000000003
 51
-165.0
  0
LINE
  5
109
330
17
100
AcDbEntity
  8
0
100
AcDbLine
 10
44.50568184402607
 20
95.26726174264778
 30
0.0
 11
31.94864610226817
 21
91.902614156315
 31
0.0
  0
ARC
  5
10A
330
17
100
AcDbEntity
  8
0
100
AcDbCircle
 10
44.63509136718832
 20
94.78429882722295
 30
0.0
 40
0.5
100
AcDbArc
 50
-345.0
 51
-255.00000000000003
  0
LINE
  5
10B
330
17
100
AcDbEntity
  8
0
100
AcDbLine
 10
48.48270186605487
 20
82.35667261029569
 30
0.0
 11
45.118054280332856
 21
94.91370834977421
 31
0.0
  0
ENDSEC
  0
SECTION
  2
OBJECTS
  0
DICTIONARY
  5
A
330
0
100
AcDbDictionary
281
1
  3
ACAD_COLOR
350
B
  3
ACAD_GROUP
350
C
  3
ACAD_LAYOUT
350
D
  3
ACAD_MATERIAL
350
E
  3
ACAD_MLEADERSTYLE
350
F
  3
ACAD_MLINESTYLE
350
10
  3
ACAD_PLOTSETTINGS
350
11
  3
ACAD_PLOTSTYLENAME
350
12
  3
ACAD_SCALELIST
350
14
  3
ACAD_TABLESTYLE
350
15
  3
ACAD_VISUALSTYLE
350
16
  3
EZDXF_META
350
2D
  0
DICTIONARY
  5
B
330
A
100
AcDbDictionary
281
1
  0
DICTIONARY
  5
C
330
A
100
AcDbDictionary
281
1
  0
DICTIONARY
  5
D
330
A
100
AcDbDictionary
281
1
  3
Model
350
1A
  3
Layout1
350
1E
  0
DICTIONARY
  5
E
330
A
100
AcDbDictionary
281
1
  3
ByBlock
350
1F
  3
ByLayer
350
20
  3
Global
350
21
  0
DICTIONARY
  5
F
330
A
100
AcDbDictionary
281
1
  3
Standard
350
2C
  0
DICTIONARY
  5
10
330
A
100
AcDbDictionary
281
1
  3
Standard
350
22
  0
DICTIONARY
  5
11
330
A
100
AcDbDictionary
281
1
  0
ACDBDICTIONARYWDFLT
  5
12
330
A
100
AcDbDictionary
281
1
  3
Normal
350
13
100
AcDbDictionaryWithDefault
340
13
  0
ACDBPLACEHOLDER
  5
13
330
12
  0
DICTIONARY
  5
14
330
A
100
AcDbDictionary
281
1
  0
DICTIONARY
  5
15
330
A
100
AcDbDictionary
281
1
  0
DICTIONARY
  5
16
330
A
100
AcDbDictionary
281
1
  0
LAYOUT
  5
1A
330
D
100
AcDbPlotSettings
  1

  4
A3
  6

 40
7.5
 41
20.0
 42
7.5
 43
20.0
 44
420.0
 45
297.0
 46
0.0
 47
0.0
 48
0.0
 49
0.0
140
0.0
141
0.0
142
1.0
143
1.0
 70
1024
 72
1
 73
0
 74
5
  7

 75
16
 76
0
 77
2
 78
300
147
1.0
148
0.0
149
0.0
100
AcDbLayout
  1
Model
 70
1
 71
0
 10
0.0
 20
0.0
 11
420.0
 21
297.0
 12
0.0
 22
0.0
 32
0.0
 14
1e+20
 24
1e+20
 34
1e+20
 15
-1e+20
 25
-1e+20
 35
-1e+20
146
0.0
 13
0.0
 23
0.0
 33
0.0
 16
1.0
 26
0.0
 36
0.0
 17
0.0
 27
1.0
 37
0.0
 76
1
330
17
  0
LAYOUT
  5
1E
330
D
100
AcDbPlotSettings
  1

  4
A3
  6

 40
7.5
 41
20.0
 42
7.5
 43
20.0
 44
420.0
 45
297.0
 46
0.0
 47
0.0
 48
0.0
 49
0.0
140
0.0
141
0.0
142
1.0
143
1.0
 70
0
 72
1
 73
0
 74
5
  7

 75
16
 76
0
 77
2
 78
300
147
1.0
148
0.0
149
0.0
100
AcDbLayout
  1
Layout1
 70
1
 71
1
 10
0.0
 20
0.0
 11
420.0
 21
297.0
 12
0.0
 22
0.0
 32
0.0
 14
1e+20
 24
1e+20
 34
1e+20
 15
-1e+20
 25
-1e+20
 35
-1e+20
146
0.0
 13
0.0
 23
0.0
 33
0.0
 16
1.0
 26
0.0
 36
0.0
 17
0.0
 27
1.0
 37
0.0
 76
1
330
1B
  0
MATERIAL
  5
1F
102
{ACAD_REACTORS
330
E
102
}
330
E
100
AcDbMaterial
  1
ByBlock
  2

 70
0
 40
1.0
 71
1
 41
1.0
 91
-1023410177
 42
1.0
 72
1
  3

 73
1
 74
1
 75
1
 44
0.5
 73
0
 45
1.0
 46
1.0
 77
1
  4

 78
1
 79
1
170
1
 48
1.0
171
1
  6

172
1
173
1
174
1
140
1.0
141
1.0
175
1
  7

176
1
177
1
178
1
143
1.0
179
1
  8

270
1
271
1
272
1
145
1.0
146
1.0
273
1
  9

274
1
275
1
276
1
 42
1.0
 72
1
  3

 73
1
 74
1
 75
1
 94
63
  0
MATERIAL
  5
20
102
{ACAD_REACTORS
330
E
102
}
330
E
100
AcDbMaterial
  1
ByLayer
  2

 70
0
 40
1.0
 71
1
 41
1.0
 91
-1023410177
 42
1.0
 72
1
  3

 73
1
 74
1
 75
1
 44
0.5
 73
0
 45
1.0
 46
1.0
 77
1
  4

 78
1
 79
1
170
1
 48
1.0
171
1
  6

172
1
173
1
174
1
140
1.0
141
1.0
175
1
  7

176
1
177
1
178
1
143
1.0
179
1
  8

270
1
271
1
272
1
145
1.0
146
1.0
273
1
  9

274
1
275
1
276
1
 42
1.0
 72
1
  3

 73
1
 74
1
 75
1
 94
63
  0
MATERIAL
  5
21
102
{ACAD_REACTORS
330
E
102
}
330
E
100
AcDbMaterial
  1
Global
  2

 70
0
 40
1.0
 71
1
 41
1.0
 91
-1023410177
 42
1.0
 72
1
  3

 73
1
 74
1
 75
1
 44
0.5
 73
0
 45
1.0
 46
1.0
 77
1
  4

 78
1
 79
1
170
1
 48
1.0
171
1
  6

172
1
173
1
174
1
140
1.0
141
1.0
175
1
  7

176
1
177
1
178
1
143
1.0
179
1
  8

270
1
271
1
272
1
145
1.0
146
1.0
273
1
  9

274
1
275
1
276
1
 42
1.0
 72
1
  3

 73
1
 74
1
 75
1
 94
63
  0
MLINESTYLE
  5
22
102
{ACAD_REACTORS
330
10
102
}
330
10
100
AcDbMlineStyle
  2
Standard
 70
0
  3

 62
256
 51
90.0
 52
90.0
 71
2
 49
0.5
 62
256
  6
BYLAYER
 49
-0.5
 62
256
  6
BYLAYER
  0
MLEADERSTYLE
  5
2C
102
{ACAD_REACTORS
330
F
102
}
330
F
100
AcDbMLeaderStyle
179
2
170
2
171
1
172
0
 90
2
 40
0.0
 41
0.0
173
1
 91
-1056964608
 92
-2
290
1
 42
2.0
291
1
 43
8.0
  3
Standard
 44
4.0
300

342
29
174
1
175
1
176
0
178
1
 93
-1056964608
 45
4.0
292
0
297
0
 46
4.0
 94
-1056964608
 47
1.0
 49
1.0
140
1.0
294
1
141
0.0
177
0
142
1.0
295
0
296
0
143
3.75
271
0
272
9
273
9
  0
DICTIONARY
  5
2D
330
A
100
AcDbDictionary
280
1
281
1
  3
CREATED_BY_EZDXF
350
2E
  3
WRITTEN_BY_EZDXF
350
10F
  0
DICTIONARYVAR
  5
2E
330
2D
100
DictionaryVariables
280
0
  1
1.4.4 @ 2026-06-25T03:32:49.815829+00:00
  0
DICTIONARYVAR
  5
10F
330
2D
100
DictionaryVariables
280
0
  1
1.4.4 @ 2026-06-25T03:32:49.880217+00:00
  0
ENDSEC
  0
EOF
