  0
SECTION
  2
HEADER
  9
$ACADVER
  1
AC1027
  9
$ACADMAINTVER
 70
105
  9
$DWGCODEPAGE
  3
ANSI_1252
  9
$LASTSAVEDBY
  1
ezdxf
  9
$REQUIREDVERSIONS
160
0
  9
$INSBASE
 10
0.0
 20
0.0
 30
0.0
  9
$EXTMIN
 10
1e+20
 20
1e+20
 30
1e+20
  9
$EXTMAX
 10
-1e+20
 20
-1e+20
 30
-1e+20
  9
$LIMMIN
 10
0.0
 20
0.0
  9
$LIMMAX
 10
420.0
 20
297.0
  9
$ORTHOMODE
 70
0
  9
$REGENMODE
 70
1
  9
$FILLMODE
 70
1
  9
$QTEXTMODE
 70
0
  9
$MIRRTEXT
 70
1
  9
$LTSCALE
 40
1.0
  9
$ATTMODE
 70
1
  9
$TEXTSIZE
 40
2.5
  9
$TRACEWID
 40
1.0
  9
$TEXTSTYLE
  7
Standard
  9
$CLAYER
  8
0
  9
$CELTYPE
  6
ByLayer
  9
$CECOLOR
 62
256
  9
$CELTSCALE
 40
1.0
  9
$DISPSILH
 70
0
  9
$DIMSCALE
 40
1.0
  9
$DIMASZ
 40
2.5
  9
$DIMEXO
 40
0.625
  9
$DIMDLI
 40
3.75
  9
$DIMRND
 40
0.0
  9
$DIMDLE
 40
0.0
  9
$DIMEXE
 40
1.25
  9
$DIMTP
 40
0.0
  9
$DIMTM
 40
0.0
  9
$DIMTXT
 40
2.5
  9
$DIMCEN
 40
2.5
  9
$DIMTSZ
 40
0.0
  9
$DIMTOL
 70
0
  9
$DIMLIM
 70
0
  9
$DIMTIH
 70
0
  9
$DIMTOH
 70
0
  9
$DIMSE1
 70
0
  9
$DIMSE2
 70
0
  9
$DIMTAD
 70
1
  9
$DIMZIN
 70
8
  9
$DIMBLK
  1

  9
$DIMASO
 70
1
  9
$DIMSHO
 70
1
  9
$DIMPOST
  1

  9
$DIMAPOST
  1

  9
$DIMALT
 70
0
  9
$DIMALTD
 70
3
  9
$DIMALTF
 40
0.03937007874
  9
$DIMLFAC
 40
1.0
  9
$DIMTOFL
 70
1
  9
$DIMTVP
 40
0.0
  9
$DIMTIX
 70
0
  9
$DIMSOXD
 70
0
  9
$DIMSAH
 70
0
  9
$DIMBLK1
  1

  9
$DIMBLK2
  1

  9
$DIMSTYLE
  2
ISO-25
  9
$DIMCLRD
 70
0
  9
$DIMCLRE
 70
0
  9
$DIMCLRT
 70
0
  9
$DIMTFAC
 40
1.0
  9
$DIMGAP
 40
0.625
  9
$DIMJUST
 70
0
  9
$DIMSD1
 70
0
  9
$DIMSD2
 70
0
  9
$DIMTOLJ
 70
0
  9
$DIMTZIN
 70
8
  9
$DIMALTZ
 70
0
  9
$DIMALTTZ
 70
0
  9
$DIMUPT
 70
0
  9
$DIMDEC
 70
2
  9
$DIMTDEC
 70
2
  9
$DIMALTU
 70
2
  9
$DIMALTTD
 70
3
  9
$DIMTXSTY
  7
Standard
  9
$DIMAUNIT
 70
0
  9
$DIMADEC
 70
0
  9
$DIMALTRND
 40
0.0
  9
$DIMAZIN
 70
0
  9
$DIMDSEP
 70
44
  9
$DIMATFIT
 70
3
  9
$DIMFRAC
 70
0
  9
$DIMLDRBLK
  1

  9
$DIMLUNIT
 70
2
  9
$DIMLWD
 70
-2
  9
$DIMLWE
 70
-2
  9
$DIMTMOVE
 70
0
  9
$DIMFXL
 40
1.0
  9
$DIMFXLON
 70
0
  9
$DIMJOGANG
 40
0.785398163397
  9
$DIMTFILL
 70
0
  9
$DIMTFILLCLR
 70
0
  9
$DIMARCSYM
 70
0
  9
$DIMLTYPE
  6

  9
$DIMLTEX1
  6

  9
$DIMLTEX2
  6

  9
$DIMTXTDIRECTION
 70
0
  9
$LUNITS
 70
2
  9
$LUPREC
 70
4
  9
$SKETCHINC
 40
1.0
  9
$FILLETRAD
 40
10.0
  9
$AUNITS
 70
0
  9
$AUPREC
 70
2
  9
$MENU
  1
.
  9
$ELEVATION
 40
0.0
  9
$PELEVATION
 40
0.0
  9
$THICKNESS
 40
0.0
  9
$LIMCHECK
 70
0
  9
$CHAMFERA
 40
0.0
  9
$CHAMFERB
 40
0.0
  9
$CHAMFERC
 40
0.0
  9
$CHAMFERD
 40
0.0
  9
$SKPOLY
 70
0
  9
$TDCREATE
 40
2461197.9385300926
  9
$TDUCREATE
 40
2458532.153996898
  9
$TDUPDATE
 40
2461197.9385416666
  9
$TDUUPDATE
 40
2458532.1544311
  9
$TDINDWG
 40
0.0
  9
$TDUSRTIMER
 40
0.0
  9
$USRTIMER
 70
1
  9
$ANGBASE
 50
0.0
  9
$ANGDIR
 70
0
  9
$PDMODE
 70
0
  9
$PDSIZE
 40
0.0
  9
$PLINEWID
 40
0.0
  9
$SPLFRAME
 70
0
  9
$SPLINETYPE
 70
6
  9
$SPLINESEGS
 70
8
  9
$HANDSEED
  5
110
  9
$SURFTAB1
 70
6
  9
$SURFTAB2
 70
6
  9
$SURFTYPE
 70
6
  9
$SURFU
 70
6
  9
$SURFV
 70
6
  9
$UCSBASE
  2

  9
$UCSNAME
  2

  9
$UCSORG
 10
0.0
 20
0.0
 30
0.0
  9
$UCSXDIR
 10
1.0
 20
0.0
 30
0.0
  9
$UCSYDIR
 10
0.0
 20
1.0
 30
0.0
  9
$UCSORTHOREF
  2

  9
$UCSORTHOVIEW
 70
0
  9
$UCSORGTOP
 10
0.0
 20
0.0
 30
0.0
  9
$UCSORGBOTTOM
 10
0.0
 20
0.0
 30
0.0
  9
$UCSORGLEFT
 10
0.0
 20
0.0
 30
0.0
  9
$UCSORGRIGHT
 10
0.0
 20
0.0
 30
0.0
  9
$UCSORGFRONT
 10
0.0
 20
0.0
 30
0.0
  9
$UCSORGBACK
 10
0.0
 20
0.0
 30
0.0
  9
$PUCSBASE
  2

  9
$PUCSNAME
  2

  9
$PUCSORG
 10
0.0
 20
0.0
 30
0.0
  9
$PUCSXDIR
 10
1.0
 20
0.0
 30
0.0
  9
$PUCSYDIR
 10
0.0
 20
1.0
 30
0.0
  9
$PUCSORTHOREF
  2

  9
$PUCSORTHOVIEW
 70
0
  9
$PUCSORGTOP
 10
0.0
 20
0.0
 30
0.0
  9
$PUCSORGBOTTOM
 10
0.0
 20
0.0
 30
0.0
  9
$PUCSORGLEFT
 10
0.0
 20
0.0
 30
0.0
  9
$PUCSORGRIGHT
 10
0.0
 20
0.0
 30
0.0
  9
$PUCSORGFRONT
 10
0.0
 20
0.0
 30
0.0
  9
$PUCSORGBACK
 10
0.0
 20
0.0
 30
0.0
  9
$USERI1
 70
0
  9
$USERI2
 70
0
  9
$USERI3
 70
0
  9
$USERI4
 70
0
  9
$USERI5
 70
0
  9
$USERR1
 40
0.0
  9
$USERR2
 40
0.0
  9
$USERR3
 40
0.0
  9
$USERR4
 40
0.0
  9
$USERR5
 40
0.0
  9
$WORLDVIEW
 70
1
  9
$SHADEDGE
 70
3
  9
$SHADEDIF
 70
70
  9
$TILEMODE
 70
1
  9
$MAXACTVP
 70
64
  9
$PINSBASE
 10
0.0
 20
0.0
 30
0.0
  9
$PLIMCHECK
 70
0
  9
$PEXTMIN
 10
1e+20
 20
1e+20
 30
1e+20
  9
$PEXTMAX
 10
-1e+20
 20
-1e+20
 30
-1e+20
  9
$PLIMMIN
 10
0.0
 20
0.0
  9
$PLIMMAX
 10
420.0
 20
297.0
  9
$UNITMODE
 70
0
  9
$VISRETAIN
 70
1
  9
$PLINEGEN
 70
0
  9
$PSLTSCALE
 70
1
  9
$TREEDEPTH
 70
3020
  9
$CMLSTYLE
  2
Standard
  9
$CMLJUST
 70
0
  9
$CMLSCALE
 40
20.0
  9
$PROXYGRAPHICS
 70
1
  9
$MEASUREMENT
 70
1
  9
$CELWEIGHT
370
-1
  9
$ENDCAPS
280
0
  9
$JOINSTYLE
280
0
  9
$LWDISPLAY
290
0
  9
$INSUNITS
 70
4
  9
$HYPERLINKBASE
  1

  9
$STYLESHEET
  1

  9
$XEDIT
290
1
  9
$CEPSNTYPE
380
0
  9
$PSTYLEMODE
290
1
  9
$FINGERPRINTGUID
  2
{1CD96C07-FFA2-44C7-B5D7-ACB30E42FBD5}
  9
$VERSIONGUID
  2
{67ED00FE-85C6-4164-8510-89C5DA0337FE}
  9
$EXTNAMES
290
1
  9
$PSVPSCALE
 40
0.0
  9
$OLESTARTUP
290
0
  9
$SORTENTS
280
127
  9
$INDEXCTL
280
0
  9
$HIDETEXT
280
1
  9
$XCLIPFRAME
280
1
  9
$HALOGAP
280
0
  9
$OBSCOLOR
 70
257
  9
$OBSLTYPE
280
0
  9
$INTERSECTIONDISPLAY
280
0
  9
$INTERSECTIONCOLOR
 70
257
  9
$DIMASSOC
280
2
  9
$PROJECTNAME
  1

  9
$CAMERADISPLAY
290
0
  9
$LENSLENGTH
 40
50.0
  9
$CAMERAHEIGHT
 40
0.0
  9
$STEPSPERSEC
 40
24.0
  9
$STEPSIZE
 40
100.0
  9
$3DDWFPREC
 40
2.0
  9
$PSOLWIDTH
 40
0.005
  9
$PSOLHEIGHT
 40
0.08
  9
$LOFTANG1
 40
1.570796326795
  9
$LOFTANG2
 40
1.570796326795
  9
$LOFTMAG1
 40
0.0
  9
$LOFTMAG2
 40
0.0
  9
$LOFTPARAM
 70
7
  9
$LOFTNORMALS
280
1
  9
$LATITUDE
 40
37.795
  9
$LONGITUDE
 40
-122.394
  9
$NORTHDIRECTION
 40
0.0
  9
$TIMEZONE
 70
-8000
  9
$LIGHTGLYPHDISPLAY
280
1
  9
$TILEMODELIGHTSYNCH
280
1
  9
$CMATERIAL
347
20
  9
$SOLIDHIST
280
0
  9
$SHOWHIST
280
1
  9
$DWFFRAME
280
2
  9
$DGNFRAME
280
2
  9
$REALWORLDSCALE
290
1
  9
$INTERFERECOLOR
 62
256
  9
$CSHADOW
280
0
  9
$SHADOWPLANELOCATION
 40
0.0
  0
ENDSEC
  0
SECTION
  2
CLASSES
  0
CLASS
  1
ACDBDICTIONARYWDFLT
  2
AcDbDictionaryWithDefault
  3
ObjectDBX Classes
 90
0
 91
0
280
0
281
0
  0
CLASS
  1
SUN
  2
AcDbSun
  3
SCENEOE
 90
1153
 91
0
280
0
281
0
  0
CLASS
  1
VISUALSTYLE
  2
AcDbVisualStyle
  3
ObjectDBX Classes
 90
4095
 91
0
280
0
281
0
  0
CLASS
  1
MATERIAL
  2
AcDbMaterial
  3
ObjectDBX Classes
 90
1153
 91
0
280
0
281
0
  0
CLASS
  1
SCALE
  2
AcDbScale
  3
ObjectDBX Classes
 90
1153
 91
0
280
0
281
0
  0
CLASS
  1
TABLESTYLE
  2
AcDbTableStyle
  3
ObjectDBX Classes
 90
4095
 91
0
280
0
281
0
  0
CLASS
  1
MLEADERSTYLE
  2
AcDbMLeaderStyle
  3
ACDB_MLEADERSTYLE_CLASS
 90
4095
 91
0
280
0
281
0
  0
CLASS
  1
DICTIONARYVAR
  2
AcDbDictionaryVar
  3
ObjectDBX Classes
 90
0
 91
0
280
0
281
0
  0
CLASS
  1
CELLSTYLEMAP
  2
AcDbCellStyleMap
  3
ObjectDBX Classes
 90
1152
 91
0
280
0
281
0
  0
CLASS
  1
MENTALRAYRENDERSETTINGS
  2
AcDbMentalRayRenderSettings
  3
SCENEOE
 90
1024
 91
0
280
0
281
0
  0
CLASS
  1
ACDBDETAILVIEWSTYLE
  2
AcDbDetailViewStyle
  3
ObjectDBX Classes
 90
1025
 91
0
280
0
281
0
  0
CLASS
  1
ACDBSECTIONVIEWSTYLE
  2
AcDbSectionViewStyle
  3
ObjectDBX Classes
 90
1025
 91
0
280
0
281
0
  0
CLASS
  1
RASTERVARIABLES
  2
AcDbRasterVariables
  3
ISM
 90
0
 91
0
280
0
281
0
  0
CLASS
  1
ACDBPLACEHOLDER
  2
AcDbPlaceHolder
  3
ObjectDBX Classes
 90
0
 91
0
280
0
281
0
  0
CLASS
  1
LAYOUT
  2
AcDbLayout
  3
ObjectDBX Classes
 90
0
 91
0
280
0
281
0
  0
ENDSEC
  0
SECTION
  2
TABLES
  0
TABLE
  2
VPORT
  5
8
330
0
100
AcDbSymbolTable
 70
1
  0
VPORT
  5
10C
330
8
100
AcDbSymbolTableRecord
100
AcDbViewportTableRecord
  2
*Active
 70
0
 10
0.0
 20
0.0
 11
1.0
 21
1.0
 12
-73.80223417788758
 22
57.123335169093245
 13
0.0
 23
0.0
 14
0.5
 24
0.5
 15
0.5
 25
0.5
 16
0.0
 26
0.0
 36
1.0
 17
0.0
 27
0.0
 37
0.0
 40
123.66660243979116
 41
1.34
 42
50.0
 43
0.0
 44
0.0
 50
0.0
 51
0.0
 71
0
 72
1000
 73
1
 74
3
 75
0
 76
0
 77
0
 78
0
281
0
 65
1
110
0.0
120
0.0
130
0.0
111
1.0
121
0.0
131
0.0
112
0.0
122
1.0
132
0.0
 79
0
146
0.0
  0
ENDTAB
  0
TABLE
  2
LTYPE
  5
2
330
0
100
AcDbSymbolTable
 70
3
  0
LTYPE
  5
24
330
2
100
AcDbSymbolTableRecord
100
AcDbLinetypeTableRecord
  2
ByBlock
 70
0
  3

 72
65
 73
0
 40
0.0
  0
LTYPE
  5
25
330
2
100
AcDbSymbolTableRecord
100
AcDbLinetypeTableRecord
  2
ByLayer
 70
0
  3

 72
65
 73
0
 40
0.0
  0
LTYPE
  5
26
330
2
100
AcDbSymbolTableRecord
100
AcDbLinetypeTableRecord
  2
Continuous
 70
0
  3

 72
65
 73
0
 40
0.0
  0
ENDTAB
  0
TABLE
  2
LAYER
  5
1
330
0
100
AcDbSymbolTable
 70
2
  0
LAYER
  5
27
330
1
100
AcDbSymbolTableRecord
100
AcDbLayerTableRecord
  2
0
 70
0
 62
7
  6
Continuous
370
-3
390
13
347
21
  0
LAYER
  5
28
330
1
100
AcDbSymbolTableRecord
100
AcDbLayerTableRecord
  2
Defpoints
 70
0
 62
7
  6
Continuous
290
0
370
-3
390
13
347
21
  0
ENDTAB
  0
TABLE
  2
STYLE
  5
5
330
0
100
AcDbSymbolTable
 70
1
  0
STYLE
  5
29
330
5
100
AcDbSymbolTableRecord
100
AcDbTextStyleTableRecord
  2
Standard
 70
0
 40
0.0
 41
1.0
 50
0.0
 71
0
 42
2.5
  3
txt
  4

  0
ENDTAB
  0
TABLE
  2
VIEW
  5
7
330
0
100
AcDbSymbolTable
 70
0
  0
ENDTAB
  0
TABLE
  2
UCS
  5
6
330
0
100
AcDbSymbolTable
 70
0
  0
ENDTAB
  0
TABLE
  2
APPID
  5
3
330
0
100
AcDbSymbolTable
 70
3
  0
APPID
  5
2A
330
3
100
AcDbSymbolTableRecord
100
AcDbRegAppTableRecord
  2
ACAD
 70
0
  0
APPID
  5
10D
330
3
100
AcDbSymbolTableRecord
100
AcDbRegAppTableRecord
  2
HATCHBACKGROUNDCOLOR
 70
0
  0
APPID
  5
10E
330
3
100
AcDbSymbolTableRecord
100
AcDbRegAppTableRecord
  2
EZDXF
 70
0
  0
ENDTAB
  0
TABLE
  2
DIMSTYLE
  5
4
330
0
100
AcDbSymbolTable
 70
1
100
AcDbDimStyleTable
  0
DIMSTYLE
105
2B
330
4
100
AcDbSymbolTableRecord
100
AcDbDimStyleTableRecord
  2
Standard
 70
0
 40
1.0
 41
2.5
 42
0.625
 43
3.75
 44
1.25
 45
0.0
 46
0.0
 47
0.0
 48
0.0
 49
2.5
140
2.5
141
2.5
142
0.0
143
0.03937007874
144
1.0
145
0.0
146
1.0
147
0.625
148
0.0
 69
0
 70
0
 71
0
 72
0
 73
0
 74
0
 75
0
 76
0
 77
1
 78
8
 79
3
170
0
171
3
172
1
173
0
174
0
175
0
176
0
177
0
178
0
179
2
271
2
272
2
273
2
274
3
275
0
276
0
277
2
278
44
279
0
280
0
281
0
282
0
283
0
284
8
285
0
286
0
288
0
289
3
290
0
371
-2
372
-2
  0
ENDTAB
  0
TABLE
  2
BLOCK_RECORD
  5
9
330
0
100
AcDbSymbolTable
 70
2
  0
BLOCK_RECORD
  5
17
330
9
100
AcDbSymbolTableRecord
100
AcDbBlockTableRecord
  2
*Model_Space
340
1A
 70
0
280
1
281
0
  0
BLOCK_RECORD
  5
1B
330
9
100
AcDbSymbolTableRecord
100
AcDbBlockTableRecord
  2
*Paper_Space
340
1E
 70
0
280
1
281
0
  0
ENDTAB
  0
ENDSEC
  0
SECTION
  2
BLOCKS
  0
BLOCK
  5
18
330
17
100
AcDbEntity
  8
0
100
AcDbBlockBegin
  2
*Model_Space
 70
0
 10
0.0
 20
0.0
 30
0.0
  3
*Model_Space
  1

  0
ENDBLK
  5
19
330
17
100
AcDbEntity
  8
0
100
AcDbBlockEnd
  0
BLOCK
  5
1C
330
1B
100
AcDbEntity
  8
0
100
AcDbBlockBegin
  2
*Paper_Space
 70
0
 10
0.0
 20
0.0
 30
0.0
  3
*Paper_Space
  1

  0
ENDBLK
  5
1D
330
1B
100
AcDbEntity
  8
0
100
AcDbBlockEnd
  0
ENDSEC
  0
SECTION
  2
ENTITIES
  0
LINE
  5
2F
330
17
100
AcDbEntity
  8
0
100
AcDbLine
 10
-24.410781339215745
 20
55.61046690097417
 30
0.0
 11
-7.000000000000005
 21
43.41930656113436
 31
0.0
  0
LINE
  5
30
330
17
100
AcDbEntity
  8
0
100
AcDbLine
 10
-24.410781339215742
 20
98.86130945083633
 30
0.0
 11
-24.410781339215745
 21
55.61046690097417
 31
0.0
  0
LINE
  5
31
330
17
100
AcDbEntity
  8
0
100
AcDbLine
 10
-7.0
 20
43.419306561134356
 30
0.0
 11
-7.0
 21
1.5
 31
0.0
  0
ARC
  5
32
330
17
100
AcDbEntity
  8
0
100
AcDbCircle
 10
-7.000000000000028
 20
213.05338929661434
 30
0.0
 40
115.5117587362717
100
AcDbArc
 50
-461.7663021205924
 51
-458.66907992225435
  0
ARC
  5
33
330
17
100
AcDbEntity
  8
0
100
AcDbCircle
 10
-7.0
 20
-11.000000000000014
 30
0.0
 40
12.500000000000018
100
AcDbArc
 50
450.0
 51
494.99949999996176
  0
LINE
  5
34
330
17
100
AcDbEntity
  8
0
100
AcDbLine
 10
-30.918045274156917
 20
98.45774008890561
 30
0.0
 11
-30.555193242591663
 21
99.96882236703377
 31
0.0
  0
LINE
  5
35
330
17
100
AcDbEntity
  8
0
100
AcDbLine
 10
-15.838757630647333
 20
-2.1610881025721858
 30
0.0
 11
-17.606629485805236
 21
-3.9289291028123614
 31
0.0
  0
ARC
  5
36
330
17
100
AcDbEntity
  8
0
100
AcDbCircle
 10
-34.32033017257675
 20
99.27472140436693
 30
0.0
 40
3.499
100
AcDbArc
 50
256.4973731280481
 51
346.4973731280481
  0
ARC
  5
37
330
17
100
AcDbEntity
  8
0
100
AcDbCircle
 10
-19.02083070678205
 20
-2.5147031991506736
 30
0.0
 40
2.0
100
AcDbArc
 50
-135.0
 51
-45.000500000038315
  0
LINE
  5
38
330
17
100
AcDbEntity
  8
0
100
AcDbLine
 10
-35.139256205292455
 20
95.8729034855277
 30
0.0
 11
-35.137311488043785
 21
95.87243650592328
 31
0.0
  0
LINE
  5
39
330
17
100
AcDbEntity
  8
0
100
AcDbLine
 10
-20.435044269155156
 20
-3.92891676152378
 30
0.0
 11
-21.49570135560415
 21
-2.8682596750747864
 31
0.0
  0
ARC
  5
3A
330
17
100
AcDbEntity
  8
0
100
AcDbCircle
 10
-34.32227488982542
 20
99.27518838397135
 30
0.0
 40
3.499
100
AcDbArc
 50
166.49737312804814
 51
256.4973731280481
  0
LINE
  5
3B
330
17
100
AcDbEntity
  8
0
100
AcDbLine
 10
-21.495701355604147
 20
-2.8682596750747855
 30
0.0
 11
-20.43433407704315
 21
-1.8068923965137877
 31
0.0
  0
LINE
  5
3C
330
17
100
AcDbEntity
  8
0
100
AcDbLine
 10
-37.36170775791174
 20
101.60325197785741
 30
0.0
 11
-37.724559789477176
 21
100.09216969972849
 31
0.0
  0
ARC
  5
3D
330
17
100
AcDbEntity
  8
0
100
AcDbCircle
 10
-22.908500705293417
 20
0.667274231736479
 30
0.0
 40
3.499
100
AcDbArc
 50
-45.0
 51
45.0
  0
ARC
  5
3E
330
17
100
AcDbEntity
  8
0
100
AcDbCircle
 10
-7.000000000000028
 20
213.05338929661434
 30
0.0
 40
115.5117587362717
100
AcDbArc
 50
-477.0052537439038
 51
-465.238951623324
  0
LINE
  5
3F
330
17
100
AcDbEntity
  8
0
100
AcDbLine
 10
-20.434334077921687
 20
3.1414408591082097
 30
0.0
 11
-20.435748290622843
 21
3.1428550718093664
 31
0.0
  0
ARC
  5
40
330
17
100
AcDbEntity
  8
0
100
AcDbCircle
 10
-93.90039179024365
 20
42.540421603980235
 30
0.0
 40
75.86836103756242
100
AcDbArc
 50
62.99474625609618
 51
92.75817879707773
  0
ARC
  5
41
330
17
100
AcDbEntity
  8
0
100
AcDbCircle
 10
-22.909914917994573
 20
0.6686884444376362
 30
0.0
 40
3.499
100
AcDbArc
 50
45.0
 51
135.0
  0
LINE
  5
42
330
17
100
AcDbEntity
  8
0
100
AcDbLine
 10
-97.41751907278714
 20
116.90697459233287
 30
0.0
 11
-97.55123123395629
 21
118.32089123753525
 31
0.0
  0
LINE
  5
43
330
17
100
AcDbEntity
  8
0
100
AcDbLine
 10
-25.384081545348984
 20
3.142855071792045
 30
0.0
 11
-26.44544882390998
 21
2.081487793231048
 31
0.0
  0
ARC
  5
44
330
17
100
AcDbEntity
  8
0
100
AcDbCircle
 10
-100.90097706839943
 20
116.57754873931975
 30
0.0
 40
3.499
100
AcDbArc
 50
275.4023169328212
 51
365.4023169328212
  0
LINE
  5
45
330
17
100
AcDbEntity
  8
0
100
AcDbLine
 10
-26.445448823909985
 20
2.081487793231047
 30
0.0
 11
-28.566756826189692
 21
4.202795795510758
 31
0.0
  0
LINE
  5
46
330
17
100
AcDbEntity
  8
0
100
AcDbLine
 10
-100.57354233048791
 20
113.09390244665398
 30
0.0
 11
-100.57155121538399
 21
113.09409074368308
 31
0.0
  0
ARC
  5
47
330
17
100
AcDbEntity
  8
0
100
AcDbCircle
 10
-98.12518374424548
 20
-65.35563112254502
 30
0.0
 40
98.37047072485228
100
AcDbArc
 50
405.0
 51
435.0000000000004
  0
ARC
  5
48
330
17
100
AcDbEntity
  8
0
100
AcDbCircle
 10
-100.90296818350335
 20
116.57736044229065
 30
0.0
 40
3.499
100
AcDbArc
 50
185.40231693282118
 51
275.4023169328212
  0
ARC
  5
49
330
17
100
AcDbEntity
  8
0
100
AcDbCircle
 10
-252.38000811832947
 20
-641.0424729992583
 30
0.0
 40
694.3653454953181
100
AcDbArc
 50
435.00000000000045
 51
436.6211602111369
  0
LINE
  5
4A
330
17
100
AcDbEntity
  8
0
100
AcDbLine
 10
-104.52013834154597
 20
117.66185123435952
 30
0.0
 11
-104.38642618037694
 21
116.24793458915825
 31
0.0
  0
LINE
  5
4B
330
17
100
AcDbEntity
  8
0
100
AcDbLine
 10
-91.71176444520052
 20
34.47876907964536
 30
0.0
 11
-91.36981729196071
 21
35.949358002465
 31
0.0
  0
ARC
  5
4C
330
17
100
AcDbEntity
  8
0
100
AcDbCircle
 10
-93.90039179024365
 20
42.540421603980235
 30
0.0
 40
75.86836103756242
100
AcDbArc
 50
98.04645506858319
 51
127.24220659865051
  0
ARC
  5
4D
330
17
100
AcDbEntity
  8
0
100
AcDbCircle
 10
-94.77789708134111
 20
36.74181819573117
 30
0.0
 40
3.499
100
AcDbArc
 50
-13.090034941694311
 51
76.90996505830569
  0
ARC
  5
4E
330
17
100
AcDbEntity
  8
0
100
AcDbCircle
 10
-138.6044682996752
 20
101.34586612924981
 30
0.0
 40
2.0
100
AcDbArc
 50
127.24220659865051
 51
180.0
  0
LINE
  5
4F
330
17
100
AcDbEntity
  8
0
100
AcDbLine
 10
-93.98543688835633
 20
40.14989798390141
 30
0.0
 11
-93.98738491791492
 21
40.15035094743979
 31
0.0
  0
LINE
  5
50
330
17
100
AcDbEntity
  8
0
100
AcDbLine
 10
-140.60446835577517
 20
77.57254828651001
 30
0.0
 11
-140.60446835577517
 21
101.34586612924981
 31
0.0
  0
ARC
  5
51
330
17
100
AcDbEntity
  8
0
100
AcDbCircle
 10
-94.7798451108997
 20
36.74227115926955
 30
0.0
 40
3.499
100
AcDbArc
 50
76.90996505830569
 51
166.9099650583057
  0
LINE
  5
52
330
17
100
AcDbEntity
  8
0
100
AcDbLine
 10
-139.10346835577516
 20
77.57254828651001
 30
0.0
 11
-140.60446835577517
 21
77.57254828651001
 31
0.0
  0
LINE
  5
53
330
17
100
AcDbEntity
  8
0
100
AcDbLine
 10
-98.18792489904608
 20
37.534731352248784
 30
0.0
 11
-98.52987205228592
 21
36.064142429429
 31
0.0
  0
ARC
  5
54
330
17
100
AcDbEntity
  8
0
100
AcDbCircle
 10
-139.10346835577516
 20
74.0735482865345
 30
0.0
 40
3.499
100
AcDbArc
 50
0.0
 51
90.0
  0
ARC
  5
55
330
17
100
AcDbEntity
  8
0
100
AcDbCircle
 10
-252.38000811832947
 20
-641.0424729992583
 30
0.0
 40
694.3653454953181
100
AcDbArc
 50
437.19876990547505
 51
438.81993011661126
  0
LINE
  5
56
330
17
100
AcDbEntity
  8
0
100
AcDbLine
 10
-135.60446835577517
 20
74.07154828775245
 30
0.0
 11
-135.60446835577517
 21
74.0735482865345
 31
0.0
  0
ARC
  5
57
330
17
100
AcDbEntity
  8
0
100
AcDbCircle
 10
-64.16318875302898
 20
311.26035567645613
 30
0.0
 40
276.3592542732039
100
AcDbArc
 50
-105.7432910892724
 51
-101.18006988338873
  0
ARC
  5
58
330
17
100
AcDbEntity
  8
0
100
AcDbCircle
 10
-139.10346835577516
 20
74.07154828775245
 30
0.0
 40
3.499
100
AcDbArc
 50
-90.0
 51
0.0
  0
ARC
  5
59
330
17
100
AcDbEntity
  8
0
100
AcDbCircle
 10
-138.6044683556111
 20
47.19313639985087
 30
0.0
 40
2.0
100
AcDbArc
 50
-180.0
 51
-105.74329108927236
  0
LINE
  5
5A
330
17
100
AcDbEntity
  8
0
100
AcDbLine
 10
-140.60446835577517
 20
70.57254828651001
 30
0.0
 11
-139.10346835577516
 21
70.57254828651001
 31
0.0
  0
LINE
  5
5B
330
17
100
AcDbEntity
  8
0
100
AcDbLine
 10
-140.60446835577517
 20
47.19313639985087
 30
0.0
 11
-140.60446835577517
 21
70.57254828651001
 31
0.0
  0
ARC
  5
5C
330
17
100
AcDbEntity
  8
0
100
AcDbCircle
 10
-114.0655114824769
 20
46.09576205427419
 30
0.0
 40
0.5
100
AcDbArc
 50
169.99999999999997
 51
260.0
  0
LINE
  5
5D
330
17
100
AcDbEntity
  8
0
100
AcDbLine
 10
-114.1523355713102
 20
45.60335817776904
 30
0.0
 11
-101.34983478447637
 21
43.34593186850888
 31
0.0
  0
ARC
  5
5E
330
17
100
AcDbEntity
  8
0
100
AcDbCircle
 10
-101.2630106956429
 20
43.83833574501498
 30
0.0
 40
0.5
100
AcDbArc
 50
260.0
 51
350.0
  0
LINE
  5
5F
330
17
100
AcDbEntity
  8
0
100
AcDbLine
 10
-100.77060681681192
 20
43.75151165577158
 30
0.0
 11
-98.51318050755177
 21
56.554012442605405
 31
0.0
  0
ARC
  5
60
330
17
100
AcDbEntity
  8
0
100
AcDbCircle
 10
-99.00558438405787
 20
56.64083653143887
 30
0.0
 40
0.5
100
AcDbArc
 50
-10.000000000000009
 51
79.99999999999999
  0
LINE
  5
61
330
17
100
AcDbEntity
  8
0
100
AcDbLine
 10
-98.91876029481446
 20
57.13324041026985
 30
0.0
 11
-111.72126108397318
 21
59.390666719939944
 31
0.0
  0
ARC
  5
62
330
17
100
AcDbEntity
  8
0
100
AcDbCircle
 10
-111.80808517321657
 20
58.89826284110898
 30
0.0
 40
0.5
100
AcDbArc
 50
79.99999999999999
 51
169.99999999999997
  0
LINE
  5
63
330
17
100
AcDbEntity
  8
0
100
AcDbLine
 10
-112.30048904972267
 20
58.98508692994244
 30
0.0
 11
-114.557915358983
 21
46.182586143107656
 31
0.0
  0
ARC
  5
64
330
17
100
AcDbEntity
  8
0
100
AcDbCircle
 10
-93.54791045418385
 20
46.38771633242125
 30
0.0
 40
0.5
100
AcDbArc
 50
165.0
 51
255.00000000000003
  0
LINE
  5
65
330
17
100
AcDbEntity
  8
0
100
AcDbLine
 10
-93.67731997673486
 20
45.90475341927765
 30
0.0
 11
-81.12028423725728
 21
42.540105833555884
 31
0.0
  0
ARC
  5
66
330
17
100
AcDbEntity
  8
0
100
AcDbCircle
 10
-80.99087471470602
 20
43.02306874670042
 30
0.0
 40
0.5
100
AcDbArc
 50
255.00000000000003
 51
345.0
  0
LINE
  5
67
330
17
100
AcDbEntity
  8
0
100
AcDbLine
 10
-80.50791179928119
 20
42.89365922353815
 30
0.0
 11
-77.14326421355942
 21
55.450694963015735
 31
0.0
  0
ARC
  5
68
330
17
100
AcDbEntity
  8
0
100
AcDbCircle
 10
-77.62622712670395
 20
55.58010448556699
 30
0.0
 40
0.5
100
AcDbArc
 50
-15.000000000000009
 51
74.99999999999999
  0
LINE
  5
69
330
17
100
AcDbEntity
  8
0
100
AcDbLine
 10
-77.49681760354169
 20
56.063067400991834
 30
0.0
 11
-90.05385334529957
 21
59.427714987324606
 31
0.0
  0
ARC
  5
6A
330
17
100
AcDbEntity
  8
0
100
AcDbCircle
 10
-90.18326286846184
 20
58.94475207189978
 30
0.0
 40
0.5
100
AcDbArc
 50
74.99999999999999
 51
165.0
  0
LINE
  5
6B
330
17
100
AcDbEntity
  8
0
100
AcDbLine
 10
-90.66622578160637
 20
59.07416159445104
 30
0.0
 11
-94.03087336732838
 21
46.51712585497251
 31
0.0
  0
ARC
  5
6C
330
17
100
AcDbEntity
  8
0
100
AcDbCircle
 10
-28.566756826190055
 20
13.395183950935547
 30
0.0
 40
0.5
100
AcDbArc
 50
135.0
 51
225.0
  0
LINE
  5
6D
330
17
100
AcDbEntity
  8
0
100
AcDbLine
 10
-28.920310216782642
 20
13.04163056034296
 30
0.0
 11
-19.72792206302682
 21
3.849242406587136
 31
0.0
  0
ARC
  5
6E
330
17
100
AcDbEntity
  8
0
100
AcDbCircle
 10
-19.374368672433548
 20
4.202795797180409
 30
0.0
 40
0.5
100
AcDbArc
 50
225.0
 51
315.0
  0
LINE
  5
6F
330
17
100
AcDbEntity
  8
0
100
AcDbLine
 10
-19.02081528017098
 20
3.84924240491784
 30
0.0
 11
-9.828427126415159
 21
13.04163055867366
 31
0.0
  0
ARC
  5
70
330
17
100
AcDbEntity
  8
0
100
AcDbCircle
 10
-10.18198051700843
 20
13.395183949266933
 30
0.0
 40
0.5
100
AcDbArc
 50
-45.00000000000001
 51
44.99999999999999
  0
LINE
  5
71
330
17
100
AcDbEntity
  8
0
100
AcDbLine
 10
-9.828427124745861
 20
13.748737341529502
 30
0.0
 11
-19.02081528017098
 21
22.94112549695462
 31
0.0
  0
ARC
  5
72
330
17
100
AcDbEntity
  8
0
100
AcDbCircle
 10
-19.37436867243354
 20
22.587572104692065
 30
0.0
 40
0.5
100
AcDbArc
 50
44.99999999999999
 51
135.0
  0
LINE
  5
73
330
17
100
AcDbEntity
  8
0
100
AcDbLine
 10
-19.72792206302681
 20
22.941125495285334
 30
0.0
 11
-28.920310216783328
 21
13.74873734152882
 31
0.0
  0
ARC
  5
74
330
17
100
AcDbEntity
  8
0
100
AcDbCircle
 10
-43.29844115530673
 20
24.277476193547965
 30
0.0
 40
0.5
100
AcDbArc
 50
145.0
 51
235.0
  0
LINE
  5
75
330
17
100
AcDbEntity
  8
0
100
AcDbLine
 10
-43.585229373481695
 20
23.867900171404262
 30
0.0
 11
-32.93625279965861
 21
16.41140650019473
 31
0.0
  0
ARC
  5
76
330
17
100
AcDbEntity
  8
0
100
AcDbCircle
 10
-32.64946458148309
 20
16.82098252233922
 30
0.0
 40
0.5
100
AcDbArc
 50
235.0
 51
325.0
  0
LINE
  5
77
330
17
100
AcDbEntity
  8
0
100
AcDbLine
 10
-32.23988855740479
 20
16.534194302809635
 30
0.0
 11
-24.783394886195254
 21
27.18317087663272
 31
0.0
  0
ARC
  5
78
330
17
100
AcDbEntity
  8
0
100
AcDbCircle
 10
-25.19297090833975
 20
27.469959094808242
 30
0.0
 40
0.5
100
AcDbArc
 50
-35.00000000000001
 51
54.99999999999999
  0
LINE
  5
79
330
17
100
AcDbEntity
  8
0
100
AcDbLine
 10
-24.90618268881016
 20
27.879535118886547
 30
0.0
 11
-35.55515926456705
 21
35.33602879145015
 31
0.0
  0
ARC
  5
7A
330
17
100
AcDbEntity
  8
0
100
AcDbCircle
 10
-35.841947484096636
 20
34.926452767371856
 30
0.0
 40
0.5
100
AcDbArc
 50
54.99999999999999
 51
145.0
  0
LINE
  5
7B
330
17
100
AcDbEntity
  8
0
100
AcDbLine
 10
-36.25152350624113
 20
35.21324098554738
 30
0.0
 11
-43.708017177451225
 21
24.56426441172349
 31
0.0
  0
ARC
  5
7C
330
17
100
AcDbEntity
  8
0
100
AcDbCircle
 10
-77.26122652266635
 20
37.62378875884733
 30
0.0
 40
0.5
100
AcDbArc
 50
165.0
 51
255.00000000000003
  0
LINE
  5
7D
330
17
100
AcDbEntity
  8
0
100
AcDbLine
 10
-77.39063604521736
 20
37.14082584570373
 30
0.0
 11
-64.83360030573978
 21
33.77617825998197
 31
0.0
  0
ARC
  5
7E
330
17
100
AcDbEntity
  8
0
100
AcDbCircle
 10
-64.70419078318852
 20
34.2591411731265
 30
0.0
 40
0.5
100
AcDbArc
 50
255.00000000000003
 51
345.0
  0
LINE
  5
7F
330
17
100
AcDbEntity
  8
0
100
AcDbLine
 10
-64.22122786776369
 20
34.129731649964235
 30
0.0
 11
-60.85658028204192
 21
46.68676738944182
 31
0.0
  0
ARC
  5
80
330
17
100
AcDbEntity
  8
0
100
AcDbCircle
 10
-61.33954319518645
 20
46.81617691199308
 30
0.0
 40
0.5
100
AcDbArc
 50
-15.000000000000009
 51
74.99999999999999
  0
LINE
  5
81
330
17
100
AcDbEntity
  8
0
100
AcDbLine
 10
-61.210133672024185
 20
47.29913982741792
 30
0.0
 11
-73.76716941378207
 21
50.66378741375068
 31
0.0
  0
ARC
  5
82
330
17
100
AcDbEntity
  8
0
100
AcDbCircle
 10
-73.89657893694434
 20
50.18082449832586
 30
0.0
 40
0.5
100
AcDbArc
 50
74.99999999999999
 51
165.0
  0
LINE
  5
83
330
17
100
AcDbEntity
  8
0
100
AcDbLine
 10
-74.37954185008887
 20
50.310234020877125
 30
0.0
 11
-77.74418943581088
 21
37.753198281398596
 31
0.0
  0
ARC
  5
84
330
17
100
AcDbEntity
  8
0
100
AcDbCircle
 10
-59.6960083143179
 20
32.4363118269017
 30
0.0
 40
0.5
100
AcDbArc
 50
154.99999999999997
 51
244.99999999999997
  0
LINE
  5
85
330
17
100
AcDbEntity
  8
0
100
AcDbLine
 10
-59.90731744518784
 20
31.983157933384256
 30
0.0
 11
-48.12531621585095
 21
26.489120531752853
 31
0.0
  0
ARC
  5
86
330
17
100
AcDbEntity
  8
0
100
AcDbCircle
 10
-47.914007084980604
 20
26.94227442527118
 30
0.0
 40
0.5
100
AcDbArc
 50
244.99999999999997
 51
335.0
  0
LINE
  5
87
330
17
100
AcDbEntity
  8
0
100
AcDbLine
 10
-47.46085318932272
 20
26.730965293403138
 30
0.0
 11
-41.96681578769132
 21
38.51296652274002
 31
0.0
  0
ARC
  5
88
330
17
100
AcDbEntity
  8
0
100
AcDbCircle
 10
-42.41996968120964
 20
38.72427565361038
 30
0.0
 40
0.5
100
AcDbArc
 50
-25.00000000000001
 51
64.99999999999999
  0
LINE
  5
89
330
17
100
AcDbEntity
  8
0
100
AcDbLine
 10
-42.2086605493416
 20
39.17742954926826
 30
0.0
 11
-53.99066178081805
 21
44.67146695189736
 31
0.0
  0
ARC
  5
8A
330
17
100
AcDbEntity
  8
0
100
AcDbCircle
 10
-54.201970912686086
 20
44.21831305623948
 30
0.0
 40
0.5
100
AcDbArc
 50
64.99999999999999
 51
154.99999999999997
  0
LINE
  5
8B
330
17
100
AcDbEntity
  8
0
100
AcDbLine
 10
-54.65512480620441
 20
44.42962218710983
 30
0.0
 11
-60.14916220783623
 21
32.647620957772055
 31
0.0
  0
ARC
  5
8C
330
17
100
AcDbEntity
  8
0
100
AcDbCircle
 10
-55.47463788272027
 20
49.38578499391612
 30
0.0
 40
0.5
100
AcDbArc
 50
165.0
 51
255.00000000000003
  0
LINE
  5
8D
330
17
100
AcDbEntity
  8
0
100
AcDbLine
 10
-55.60404740527128
 20
48.902822080772516
 30
0.0
 11
-43.0470116657937
 21
45.538174495050754
 31
0.0
  0
ARC
  5
8E
330
17
100
AcDbEntity
  8
0
100
AcDbCircle
 10
-42.91760214324243
 20
46.02113740819529
 30
0.0
 40
0.5
100
AcDbArc
 50
255.00000000000003
 51
345.0
  0
LINE
  5
8F
330
17
100
AcDbEntity
  8
0
100
AcDbLine
 10
-42.4346392278176
 20
45.89172788503302
 30
0.0
 11
-39.069991642095836
 21
58.448763624510605
 31
0.0
  0
ARC
  5
90
330
17
100
AcDbEntity
  8
0
100
AcDbCircle
 10
-39.55295455524037
 20
58.57817314706186
 30
0.0
 40
0.5
100
AcDbArc
 50
-15.000000000000009
 51
74.99999999999999
  0
LINE
  5
91
330
17
100
AcDbEntity
  8
0
100
AcDbLine
 10
-39.4235450320781
 20
59.0611360624867
 30
0.0
 11
-51.98058077383599
 21
62.425783648819476
 31
0.0
  0
ARC
  5
92
330
17
100
AcDbEntity
  8
0
100
AcDbCircle
 10
-52.10999029699825
 20
61.94282073339465
 30
0.0
 40
0.5
100
AcDbArc
 50
74.99999999999999
 51
165.0
  0
LINE
  5
93
330
17
100
AcDbEntity
  8
0
100
AcDbLine
 10
-52.59295321014278
 20
62.07223025594591
 30
0.0
 11
-55.957600795864806
 21
49.51519451646738
 31
0.0
  0
ARC
  5
94
330
17
100
AcDbEntity
  8
0
100
AcDbCircle
 10
-33.54764173733895
 20
38.20306094646082
 30
0.0
 40
0.5
100
AcDbArc
 50
145.0
 51
235.0
  0
LINE
  5
95
330
17
100
AcDbEntity
  8
0
100
AcDbLine
 10
-33.83442995551391
 20
37.79348492431712
 30
0.0
 11
-23.185453381690827
 21
30.336991253107584
 31
0.0
  0
ARC
  5
96
330
17
100
AcDbEntity
  8
0
100
AcDbCircle
 10
-22.898665163515304
 20
30.746567275252076
 30
0.0
 40
0.5
100
AcDbArc
 50
235.0
 51
325.0
  0
LINE
  5
97
330
17
100
AcDbEntity
  8
0
100
AcDbLine
 10
-22.489089139437002
 20
30.45977905572249
 30
0.0
 11
-15.03259546822747
 21
41.10875562954558
 31
0.0
  0
ARC
  5
98
330
17
100
AcDbEntity
  8
0
100
AcDbCircle
 10
-15.442171490371965
 20
41.3955438477211
 30
0.0
 40
0.5
100
AcDbArc
 50
-35.00000000000001
 51
54.99999999999999
  0
LINE
  5
99
330
17
100
AcDbEntity
  8
0
100
AcDbLine
 10
-15.155383270842375
 20
41.8051198717994
 30
0.0
 11
-25.80435984659927
 21
49.261613544363
 31
0.0
  0
ARC
  5
9A
330
17
100
AcDbEntity
  8
0
100
AcDbCircle
 10
-26.09114806612885
 20
48.85203752028471
 30
0.0
 40
0.5
100
AcDbArc
 50
54.99999999999999
 51
145.0
  0
LINE
  5
9B
330
17
100
AcDbEntity
  8
0
100
AcDbLine
 10
-26.500724088273344
 20
49.138825738460234
 30
0.0
 11
-33.95721775948344
 21
38.48984916463635
 31
0.0
  0
ARC
  5
9C
330
17
100
AcDbEntity
  8
0
100
AcDbCircle
 10
-133.60446835577514
 20
51.09264900169751
 30
0.0
 40
0.5
100
AcDbArc
 50
180.0
 51
270.0
  0
LINE
  5
9D
330
17
100
AcDbEntity
  8
0
100
AcDbLine
 10
-133.60446835577514
 20
50.592649001698476
 30
0.0
 11
-120.60446835813588
 21
50.592649001698476
 31
0.0
  0
ARC
  5
9E
330
17
100
AcDbEntity
  8
0
100
AcDbCircle
 10
-120.60446835813588
 20
51.092649001698476
 30
0.0
 40
0.5
100
AcDbArc
 50
270.0
 51
360.0
  0
LINE
  5
9F
330
17
100
AcDbEntity
  8
0
100
AcDbLine
 10
-120.10446835577514
 20
51.092649001698476
 30
0.0
 11
-120.10446835577514
 21
64.09264899933773
 31
0.0
  0
ARC
  5
A0
330
17
100
AcDbEntity
  8
0
100
AcDbCircle
 10
-120.60446835577514
 20
64.09264899933773
 30
0.0
 40
0.5
100
AcDbArc
 50
-7.951386703658793e-15
 51
89.99999999999999
  0
LINE
  5
A1
330
17
100
AcDbEntity
  8
0
100
AcDbLine
 10
-120.60446835577514
 20
64.59264900169848
 30
0.0
 11
-133.60446835577514
 21
64.59264900169848
 31
0.0
  0
ARC
  5
A2
330
17
100
AcDbEntity
  8
0
100
AcDbCircle
 10
-133.60446835577514
 20
64.09264899933774
 30
0.0
 40
0.5
100
AcDbArc
 50
89.99999999999999
 51
180.0
  0
LINE
  5
A3
330
17
100
AcDbEntity
  8
0
100
AcDbLine
 10
-134.10446835577514
 20
64.09264899933774
 30
0.0
 11
-134.10446835577514
 21
51.09264900169751
 31
0.0
  0
ARC
  5
A4
330
17
100
AcDbEntity
  8
0
100
AcDbCircle
 10
-111.11349246213908
 20
62.83749385548173
 30
0.0
 40
0.5
100
AcDbArc
 50
169.99999999999997
 51
260.0
  0
LINE
  5
A5
330
17
100
AcDbEntity
  8
0
100
AcDbLine
 10
-111.20031655097237
 20
62.34508997897658
 30
0.0
 11
-98.39781576413854
 21
60.08766366971642
 31
0.0
  0
ARC
  5
A6
330
17
100
AcDbEntity
  8
0
100
AcDbCircle
 10
-98.31099167530508
 20
60.58006754622252
 30
0.0
 40
0.5
100
AcDbArc
 50
260.0
 51
350.0
  0
LINE
  5
A7
330
17
100
AcDbEntity
  8
0
100
AcDbLine
 10
-97.81858779647409
 20
60.49324345697912
 30
0.0
 11
-95.56116148721394
 21
73.29574424381295
 31
0.0
  0
ARC
  5
A8
330
17
100
AcDbEntity
  8
0
100
AcDbCircle
 10
-96.05356536372004
 20
73.38256833264641
 30
0.0
 40
0.5
100
AcDbArc
 50
-10.000000000000009
 51
79.99999999999999
  0
LINE
  5
A9
330
17
100
AcDbEntity
  8
0
100
AcDbLine
 10
-95.96674127447663
 20
73.8749722114774
 30
0.0
 11
-108.76924206363535
 21
76.1323985211475
 31
0.0
  0
ARC
  5
AA
330
17
100
AcDbEntity
  8
0
100
AcDbCircle
 10
-108.85606615287874
 20
75.63999464231652
 30
0.0
 40
0.5
100
AcDbArc
 50
79.99999999999999
 51
169.99999999999997
  0
LINE
  5
AB
330
17
100
AcDbEntity
  8
0
100
AcDbLine
 10
-109.34847002938484
 20
75.72681873114999
 30
0.0
 11
-111.60589633864518
 21
62.9243179443152
 31
0.0
  0
ARC
  5
AC
330
17
100
AcDbEntity
  8
0
100
AcDbCircle
 10
-133.60446835577514
 20
68.09264900169751
 30
0.0
 40
0.5
100
AcDbArc
 50
180.0
 51
270.0
  0
LINE
  5
AD
330
17
100
AcDbEntity
  8
0
100
AcDbLine
 10
-133.60446835577514
 20
67.59264900169848
 30
0.0
 11
-120.60446835813588
 21
67.59264900169848
 31
0.0
  0
ARC
  5
AE
330
17
100
AcDbEntity
  8
0
100
AcDbCircle
 10
-120.60446835813588
 20
68.09264900169848
 30
0.0
 40
0.5
100
AcDbArc
 50
270.0
 51
360.0
  0
LINE
  5
AF
330
17
100
AcDbEntity
  8
0
100
AcDbLine
 10
-120.10446835577514
 20
68.09264900169848
 30
0.0
 11
-120.10446835577514
 21
81.09264899933773
 31
0.0
  0
ARC
  5
B0
330
17
100
AcDbEntity
  8
0
100
AcDbCircle
 10
-120.60446835577514
 20
81.09264899933773
 30
0.0
 40
0.5
100
AcDbArc
 50
-7.951386703658793e-15
 51
89.99999999999999
  0
LINE
  5
B1
330
17
100
AcDbEntity
  8
0
100
AcDbLine
 10
-120.60446835577514
 20
81.59264900169848
 30
0.0
 11
-133.60446835577514
 21
81.59264900169848
 31
0.0
  0
ARC
  5
B2
330
17
100
AcDbEntity
  8
0
100
AcDbCircle
 10
-133.60446835577514
 20
81.09264899933774
 30
0.0
 40
0.5
100
AcDbArc
 50
89.99999999999999
 51
180.0
  0
LINE
  5
B3
330
17
100
AcDbEntity
  8
0
100
AcDbLine
 10
-134.10446835577514
 20
81.09264899933774
 30
0.0
 11
-134.10446835577514
 21
68.09264900169751
 31
0.0
  0
ARC
  5
B4
330
17
100
AcDbEntity
  8
0
100
AcDbCircle
 10
-89.14798668744099
 20
62.80845537933541
 30
0.0
 40
0.5
100
AcDbArc
 50
165.0
 51
255.00000000000003
  0
LINE
  5
B5
330
17
100
AcDbEntity
  8
0
100
AcDbLine
 10
-89.277396209992
 20
62.32549246619181
 30
0.0
 11
-76.72036047051442
 21
58.96084488047005
 31
0.0
  0
ARC
  5
B6
330
17
100
AcDbEntity
  8
0
100
AcDbCircle
 10
-76.59095094796317
 20
59.44380779361458
 30
0.0
 40
0.5
100
AcDbArc
 50
255.00000000000003
 51
345.0
  0
LINE
  5
B7
330
17
100
AcDbEntity
  8
0
100
AcDbLine
 10
-76.10798803253833
 20
59.314398270452315
 30
0.0
 11
-72.74334044681656
 21
71.8714340099299
 31
0.0
  0
ARC
  5
B8
330
17
100
AcDbEntity
  8
0
100
AcDbCircle
 10
-73.2263033599611
 20
72.00084353248116
 30
0.0
 40
0.5
100
AcDbArc
 50
-15.000000000000009
 51
74.99999999999999
  0
LINE
  5
B9
330
17
100
AcDbEntity
  8
0
100
AcDbLine
 10
-73.09689383679883
 20
72.48380644790599
 30
0.0
 11
-85.65392957855671
 21
75.84845403423877
 31
0.0
  0
ARC
  5
BA
330
17
100
AcDbEntity
  8
0
100
AcDbCircle
 10
-85.78333910171898
 20
75.36549111881395
 30
0.0
 40
0.5
100
AcDbArc
 50
74.99999999999999
 51
165.0
  0
LINE
  5
BB
330
17
100
AcDbEntity
  8
0
100
AcDbLine
 10
-86.26630201486351
 20
75.4949006413652
 30
0.0
 11
-89.63094960058552
 21
62.93786490188668
 31
0.0
  0
ARC
  5
BC
330
17
100
AcDbEntity
  8
0
100
AcDbCircle
 10
-133.60446835577514
 20
85.09264900169751
 30
0.0
 40
0.5
100
AcDbArc
 50
180.0
 51
270.0
  0
LINE
  5
BD
330
17
100
AcDbEntity
  8
0
100
AcDbLine
 10
-133.60446835577514
 20
84.59264900169848
 30
0.0
 11
-120.60446835813588
 21
84.59264900169848
 31
0.0
  0
ARC
  5
BE
330
17
100
AcDbEntity
  8
0
100
AcDbCircle
 10
-120.60446835813588
 20
85.09264900169848
 30
0.0
 40
0.5
100
AcDbArc
 50
270.0
 51
360.0
  0
LINE
  5
BF
330
17
100
AcDbEntity
  8
0
100
AcDbLine
 10
-120.10446835577514
 20
85.09264900169848
 30
0.0
 11
-120.10446835577514
 21
98.09264899933773
 31
0.0
  0
ARC
  5
C0
330
17
100
AcDbEntity
  8
0
100
AcDbCircle
 10
-120.60446835577514
 20
98.09264899933773
 30
0.0
 40
0.5
100
AcDbArc
 50
-7.951386703658793e-15
 51
89.99999999999999
  0
LINE
  5
C1
330
17
100
AcDbEntity
  8
0
100
AcDbLine
 10
-120.60446835577514
 20
98.59264900169848
 30
0.0
 11
-133.60446835577514
 21
98.59264900169848
 31
0.0
  0
ARC
  5
C2
330
17
100
AcDbEntity
  8
0
100
AcDbCircle
 10
-133.60446835577514
 20
98.09264899933774
 30
0.0
 40
0.5
100
AcDbArc
 50
89.99999999999999
 51
180.0
  0
LINE
  5
C3
330
17
100
AcDbEntity
  8
0
100
AcDbLine
 10
-134.10446835577514
 20
98.09264899933774
 30
0.0
 11
-134.10446835577514
 21
85.09264900169751
 31
0.0
  0
ARC
  5
C4
330
17
100
AcDbEntity
  8
0
100
AcDbCircle
 10
-108.16147344180126
 20
79.57922565668926
 30
0.0
 40
0.5
100
AcDbArc
 50
169.99999999999997
 51
260.0
  0
LINE
  5
C5
330
17
100
AcDbEntity
  8
0
100
AcDbLine
 10
-108.24829753063456
 20
79.08682178018411
 30
0.0
 11
-95.44579674380073
 21
76.82939547092396
 31
0.0
  0
ARC
  5
C6
330
17
100
AcDbEntity
  8
0
100
AcDbCircle
 10
-95.35897265496726
 20
77.32179934743006
 30
0.0
 40
0.5
100
AcDbArc
 50
260.0
 51
350.0
  0
LINE
  5
C7
330
17
100
AcDbEntity
  8
0
100
AcDbLine
 10
-94.86656877613628
 20
77.23497525818665
 30
0.0
 11
-92.60914246687612
 21
90.03747604502048
 31
0.0
  0
ARC
  5
C8
330
17
100
AcDbEntity
  8
0
100
AcDbCircle
 10
-93.10154634338222
 20
90.12430013385395
 30
0.0
 40
0.5
100
AcDbArc
 50
-10.000000000000009
 51
79.99999999999999
  0
LINE
  5
C9
330
17
100
AcDbEntity
  8
0
100
AcDbLine
 10
-93.01472225413882
 20
90.61670401268493
 30
0.0
 11
-105.81722304329753
 21
92.87413032235503
 31
0.0
  0
ARC
  5
CA
330
17
100
AcDbEntity
  8
0
100
AcDbCircle
 10
-105.90404713254092
 20
92.38172644352406
 30
0.0
 40
0.5
100
AcDbArc
 50
79.99999999999999
 51
169.99999999999997
  0
LINE
  5
CB
330
17
100
AcDbEntity
  8
0
100
AcDbLine
 10
-106.39645100904703
 20
92.46855053235753
 30
0.0
 11
-108.65387731830737
 21
79.66604974552273
 31
0.0
  0
ARC
  5
CC
330
17
100
AcDbEntity
  8
0
100
AcDbCircle
 10
-84.74806292069815
 20
79.22919442624956
 30
0.0
 40
0.5
100
AcDbArc
 50
165.0
 51
255.00000000000003
  0
LINE
  5
CD
330
17
100
AcDbEntity
  8
0
100
AcDbLine
 10
-84.87747244324916
 20
78.74623151310597
 30
0.0
 11
-72.32043670377158
 21
75.3815839273842
 31
0.0
  0
ARC
  5
CE
330
17
100
AcDbEntity
  8
0
100
AcDbCircle
 10
-72.19102718122032
 20
75.86454684052873
 30
0.0
 40
0.5
100
AcDbArc
 50
255.00000000000003
 51
345.0
  0
LINE
  5
CF
330
17
100
AcDbEntity
  8
0
100
AcDbLine
 10
-71.70806426579549
 20
75.73513731736647
 30
0.0
 11
-68.34341668007372
 21
88.29217305684405
 31
0.0
  0
ARC
  5
D0
330
17
100
AcDbEntity
  8
0
100
AcDbCircle
 10
-68.82637959321825
 20
88.4215825793953
 30
0.0
 40
0.5
100
AcDbArc
 50
-15.000000000000009
 51
74.99999999999999
  0
LINE
  5
D1
330
17
100
AcDbEntity
  8
0
100
AcDbLine
 10
-68.69697007005598
 20
88.90454549482014
 30
0.0
 11
-81.25400581181387
 21
92.26919308115292
 31
0.0
  0
ARC
  5
D2
330
17
100
AcDbEntity
  8
0
100
AcDbCircle
 10
-81.38341533497614
 20
91.7862301657281
 30
0.0
 40
0.5
100
AcDbArc
 50
74.99999999999999
 51
165.0
  0
LINE
  5
D3
330
17
100
AcDbEntity
  8
0
100
AcDbLine
 10
-81.86637824812067
 20
91.91563968827936
 30
0.0
 11
-85.23102583384268
 21
79.35860394880082
 31
0.0
  0
ARC
  5
D4
330
17
100
AcDbEntity
  8
0
100
AcDbCircle
 10
-105.20945442146345
 20
96.3209574578968
 30
0.0
 40
0.5
100
AcDbArc
 50
169.99999999999997
 51
260.0
  0
LINE
  5
D5
330
17
100
AcDbEntity
  8
0
100
AcDbLine
 10
-105.29627851029674
 20
95.82855358139165
 30
0.0
 11
-92.49377772346291
 21
93.57112727213149
 31
0.0
  0
ARC
  5
D6
330
17
100
AcDbEntity
  8
0
100
AcDbCircle
 10
-92.40695363462945
 20
94.0635311486376
 30
0.0
 40
0.5
100
AcDbArc
 50
260.0
 51
350.0
  0
LINE
  5
D7
330
17
100
AcDbEntity
  8
0
100
AcDbLine
 10
-91.91454975579846
 20
93.97670705939419
 30
0.0
 11
-89.65712344653831
 21
106.77920784622802
 31
0.0
  0
ARC
  5
D8
330
17
100
AcDbEntity
  8
0
100
AcDbCircle
 10
-90.14952732304441
 20
106.86603193506149
 30
0.0
 40
0.5
100
AcDbArc
 50
-10.000000000000009
 51
79.99999999999999
  0
LINE
  5
D9
330
17
100
AcDbEntity
  8
0
100
AcDbLine
 10
-90.062703233801
 20
107.35843581389247
 30
0.0
 11
-102.86520402295972
 21
109.61586212356256
 31
0.0
  0
ARC
  5
DA
330
17
100
AcDbEntity
  8
0
100
AcDbCircle
 10
-102.95202811220311
 20
109.1234582447316
 30
0.0
 40
0.5
100
AcDbArc
 50
79.99999999999999
 51
169.99999999999997
  0
LINE
  5
DB
330
17
100
AcDbEntity
  8
0
100
AcDbLine
 10
-103.44443198870921
 20
109.21028233356506
 30
0.0
 11
-105.70185829796955
 21
96.40778154673026
 31
0.0
  0
ARC
  5
DC
330
17
100
AcDbEntity
  8
0
100
AcDbCircle
 10
-80.34813915395529
 20
95.64993347316371
 30
0.0
 40
0.5
100
AcDbArc
 50
165.0
 51
255.00000000000003
  0
LINE
  5
DD
330
17
100
AcDbEntity
  8
0
100
AcDbLine
 10
-80.4775486765063
 20
95.16697056002012
 30
0.0
 11
-67.92051293702872
 21
91.80232297429835
 31
0.0
  0
ARC
  5
DE
330
17
100
AcDbEntity
  8
0
100
AcDbCircle
 10
-67.79110341447746
 20
92.28528588744288
 30
0.0
 40
0.5
100
AcDbArc
 50
255.00000000000003
 51
345.0
  0
LINE
  5
DF
330
17
100
AcDbEntity
  8
0
100
AcDbLine
 10
-67.30814049905263
 20
92.15587636428062
 30
0.0
 11
-63.94349291333086
 21
104.7129121037582
 31
0.0
  0
ARC
  5
E0
330
17
100
AcDbEntity
  8
0
100
AcDbCircle
 10
-64.42645582647539
 20
104.84232162630946
 30
0.0
 40
0.5
100
AcDbArc
 50
-15.000000000000009
 51
74.99999999999999
  0
LINE
  5
E1
330
17
100
AcDbEntity
  8
0
100
AcDbLine
 10
-64.29704630331312
 20
105.32528454173429
 30
0.0
 11
-76.85408204507101
 21
108.68993212806707
 31
0.0
  0
ARC
  5
E2
330
17
100
AcDbEntity
  8
0
100
AcDbCircle
 10
-76.98349156823328
 20
108.20696921264225
 30
0.0
 40
0.5
100
AcDbArc
 50
74.99999999999999
 51
165.0
  0
LINE
  5
E3
330
17
100
AcDbEntity
  8
0
100
AcDbLine
 10
-77.46645448137781
 20
108.3363787351935
 30
0.0
 11
-80.83110206709982
 21
95.77934299571497
 31
0.0
  0
ARC
  5
E4
330
17
100
AcDbEntity
  8
0
100
AcDbCircle
 10
-72.86130275592349
 20
54.04452780576149
 30
0.0
 40
0.5
100
AcDbArc
 50
165.0
 51
255.00000000000003
  0
LINE
  5
E5
330
17
100
AcDbEntity
  8
0
100
AcDbLine
 10
-72.9907122784745
 20
53.56156489261789
 30
0.0
 11
-60.43367653899692
 21
50.196917306896125
 31
0.0
  0
ARC
  5
E6
330
17
100
AcDbEntity
  8
0
100
AcDbCircle
 10
-60.30426701644566
 20
50.67988022004066
 30
0.0
 40
0.5
100
AcDbArc
 50
255.00000000000003
 51
345.0
  0
LINE
  5
E7
330
17
100
AcDbEntity
  8
0
100
AcDbLine
 10
-59.82130410102082
 20
50.55047069687839
 30
0.0
 11
-56.45665651529906
 21
63.107506436355976
 31
0.0
  0
ARC
  5
E8
330
17
100
AcDbEntity
  8
0
100
AcDbCircle
 10
-56.93961942844359
 20
63.23691595890723
 30
0.0
 40
0.5
100
AcDbArc
 50
-15.000000000000009
 51
74.99999999999999
  0
LINE
  5
E9
330
17
100
AcDbEntity
  8
0
100
AcDbLine
 10
-56.810209905281326
 20
63.719878874332075
 30
0.0
 11
-69.36724564703921
 21
67.08452646066485
 31
0.0
  0
ARC
  5
EA
330
17
100
AcDbEntity
  8
0
100
AcDbCircle
 10
-69.49665517020148
 20
66.60156354524003
 30
0.0
 40
0.5
100
AcDbArc
 50
74.99999999999999
 51
165.0
  0
LINE
  5
EB
330
17
100
AcDbEntity
  8
0
100
AcDbLine
 10
-69.97961808334601
 20
66.73097306779128
 30
0.0
 11
-73.34426566906802
 21
54.17393732831275
 31
0.0
  0
ARC
  5
EC
330
17
100
AcDbEntity
  8
0
100
AcDbCircle
 10
-68.46137898918064
 20
70.46526685267565
 30
0.0
 40
0.5
100
AcDbArc
 50
165.0
 51
255.00000000000003
  0
LINE
  5
ED
330
17
100
AcDbEntity
  8
0
100
AcDbLine
 10
-68.59078851173166
 20
69.98230393953206
 30
0.0
 11
-56.03375277225407
 21
66.61765635381029
 31
0.0
  0
ARC
  5
EE
330
17
100
AcDbEntity
  8
0
100
AcDbCircle
 10
-55.904343249702805
 20
67.10061926695482
 30
0.0
 40
0.5
100
AcDbArc
 50
255.00000000000003
 51
345.0
  0
LINE
  5
EF
330
17
100
AcDbEntity
  8
0
100
AcDbLine
 10
-55.42138033427797
 20
66.97120974379256
 30
0.0
 11
-52.05673274855621
 21
79.52824548327014
 31
0.0
  0
ARC
  5
F0
330
17
100
AcDbEntity
  8
0
100
AcDbCircle
 10
-52.53969566170074
 20
79.6576550058214
 30
0.0
 40
0.5
100
AcDbArc
 50
-15.000000000000009
 51
74.99999999999999
  0
LINE
  5
F1
330
17
100
AcDbEntity
  8
0
100
AcDbLine
 10
-52.410286138538474
 20
80.14061792124623
 30
0.0
 11
-64.96732188029635
 21
83.50526550757901
 31
0.0
  0
ARC
  5
F2
330
17
100
AcDbEntity
  8
0
100
AcDbCircle
 10
-65.09673140345862
 20
83.02230259215419
 30
0.0
 40
0.5
100
AcDbArc
 50
74.99999999999999
 51
165.0
  0
LINE
  5
F3
330
17
100
AcDbEntity
  8
0
100
AcDbLine
 10
-65.57969431660315
 20
83.15171211470545
 30
0.0
 11
-68.94434190232518
 21
70.59467637522691
 31
0.0
  0
ARC
  5
F4
330
17
100
AcDbEntity
  8
0
100
AcDbCircle
 10
-51.074714115977415
 20
65.80652404083027
 30
0.0
 40
0.5
100
AcDbArc
 50
165.0
 51
255.00000000000003
  0
LINE
  5
F5
330
17
100
AcDbEntity
  8
0
100
AcDbLine
 10
-51.20412363852843
 20
65.32356112768667
 30
0.0
 11
-38.647087899050845
 21
61.958913541964904
 31
0.0
  0
ARC
  5
F6
330
17
100
AcDbEntity
  8
0
100
AcDbCircle
 10
-38.51767837649958
 20
62.44187645510944
 30
0.0
 40
0.5
100
AcDbArc
 50
255.00000000000003
 51
345.0
  0
LINE
  5
F7
330
17
100
AcDbEntity
  8
0
100
AcDbLine
 10
-38.03471546107475
 20
62.31246693194717
 30
0.0
 11
-34.670067875352984
 21
74.86950267142475
 31
0.0
  0
ARC
  5
F8
330
17
100
AcDbEntity
  8
0
100
AcDbCircle
 10
-35.15303078849752
 20
74.99891219397601
 30
0.0
 40
0.5
100
AcDbArc
 50
-15.000000000000009
 51
74.99999999999999
  0
LINE
  5
F9
330
17
100
AcDbEntity
  8
0
100
AcDbLine
 10
-35.02362126533525
 20
75.48187510940085
 30
0.0
 11
-47.58065700709314
 21
78.84652269573363
 31
0.0
  0
ARC
  5
FA
330
17
100
AcDbEntity
  8
0
100
AcDbCircle
 10
-47.710066530255396
 20
78.3635597803088
 30
0.0
 40
0.5
100
AcDbArc
 50
74.99999999999999
 51
165.0
  0
LINE
  5
FB
330
17
100
AcDbEntity
  8
0
100
AcDbLine
 10
-48.193029443399936
 20
78.49296930286006
 30
0.0
 11
-51.557677029121955
 21
65.93593356338152
 31
0.0
  0
ARC
  5
FC
330
17
100
AcDbEntity
  8
0
100
AcDbCircle
 10
-64.06145522243779
 20
86.8860058995898
 30
0.0
 40
0.5
100
AcDbArc
 50
165.0
 51
255.00000000000003
  0
LINE
  5
FD
330
17
100
AcDbEntity
  8
0
100
AcDbLine
 10
-64.1908647449888
 20
86.40304298644621
 30
0.0
 11
-51.63382900551122
 21
83.03839540072444
 31
0.0
  0
ARC
  5
FE
330
17
100
AcDbEntity
  8
0
100
AcDbCircle
 10
-51.50441948295995
 20
83.52135831386897
 30
0.0
 40
0.5
100
AcDbArc
 50
255.00000000000003
 51
345.0
  0
LINE
  5
FF
330
17
100
AcDbEntity
  8
0
100
AcDbLine
 10
-51.02145656753512
 20
83.3919487907067
 30
0.0
 11
-47.656808981813356
 21
95.94898453018429
 31
0.0
  0
ARC
  5
100
330
17
100
AcDbEntity
  8
0
100
AcDbCircle
 10
-48.13977189495789
 20
96.07839405273555
 30
0.0
 40
0.5
100
AcDbArc
 50
-15.000000000000009
 51
74.99999999999999
  0
LINE
  5
101
330
17
100
AcDbEntity
  8
0
100
AcDbLine
 10
-48.01036237179562
 20
96.56135696816038
 30
0.0
 11
-60.56739811355351
 21
99.92600455449316
 31
0.0
  0
ARC
  5
102
330
17
100
AcDbEntity
  8
0
100
AcDbCircle
 10
-60.69680763671577
 20
99.44304163906834
 30
0.0
 40
0.5
100
AcDbArc
 50
74.99999999999999
 51
165.0
  0
LINE
  5
103
330
17
100
AcDbEntity
  8
0
100
AcDbLine
 10
-61.17977054986031
 20
99.5724511616196
 30
0.0
 11
-64.54441813558232
 21
87.01541542214106
 31
0.0
  0
ARC
  5
104
330
17
100
AcDbEntity
  8
0
100
AcDbCircle
 10
-46.674790349234556
 20
82.22726308774443
 30
0.0
 40
0.5
100
AcDbArc
 50
165.0
 51
255.00000000000003
  0
LINE
  5
105
330
17
100
AcDbEntity
  8
0
100
AcDbLine
 10
-46.80419987178557
 20
81.74430017460084
 30
0.0
 11
-34.24716413230799
 21
78.37965258887907
 31
0.0
  0
ARC
  5
106
330
17
100
AcDbEntity
  8
0
100
AcDbCircle
 10
-34.11775460975672
 20
78.8626155020236
 30
0.0
 40
0.5
100
AcDbArc
 50
255.00000000000003
 51
345.0
  0
LINE
  5
107
330
17
100
AcDbEntity
  8
0
100
AcDbLine
 10
-33.63479169433189
 20
78.73320597886133
 30
0.0
 11
-30.270144108610125
 21
91.29024171833892
 31
0.0
  0
ARC
  5
108
330
17
100
AcDbEntity
  8
0
100
AcDbCircle
 10
-30.75310702175466
 20
91.41965124089018
 30
0.0
 40
0.5
100
AcDbArc
 50
-15.000000000000009
 51
74.99999999999999
  0
LINE
  5
109
330
17
100
AcDbEntity
  8
0
100
AcDbLine
 10
-30.623697498592392
 20
91.90261415631501
 30
0.0
 11
-43.18073324035028
 21
95.26726174264779
 31
0.0
  0
ARC
  5
10A
330
17
100
AcDbEntity
  8
0
100
AcDbCircle
 10
-43.31014276351254
 20
94.78429882722297
 30
0.0
 40
0.5
100
AcDbArc
 50
74.99999999999999
 51
165.0
  0
LINE
  5
10B
330
17
100
AcDbEntity
  8
0
100
AcDbLine
 10
-43.79310567665708
 20
94.91370834977423
 30
0.0
 11
-47.157753262379096
 21
82.35667261029569
 31
0.0
  0
ENDSEC
  0
SECTION
  2
OBJECTS
  0
DICTIONARY
  5
A
330
0
100
AcDbDictionary
281
1
  3
ACAD_COLOR
350
B
  3
ACAD_GROUP
350
C
  3
ACAD_LAYOUT
350
D
  3
ACAD_MATERIAL
350
E
  3
ACAD_MLEADERSTYLE
350
F
  3
ACAD_MLINESTYLE
350
10
  3
ACAD_PLOTSETTINGS
350
11
  3
ACAD_PLOTSTYLENAME
350
12
  3
ACAD_SCALELIST
350
14
  3
ACAD_TABLESTYLE
350
15
  3
ACAD_VISUALSTYLE
350
16
  3
EZDXF_META
350
2D
  0
DICTIONARY
  5
B
330
A
100
AcDbDictionary
281
1
  0
DICTIONARY
  5
C
330
A
100
AcDbDictionary
281
1
  0
DICTIONARY
  5
D
330
A
100
AcDbDictionary
281
1
  3
Model
350
1A
  3
Layout1
350
1E
  0
DICTIONARY
  5
E
330
A
100
AcDbDictionary
281
1
  3
ByBlock
350
1F
  3
ByLayer
350
20
  3
Global
350
21
  0
DICTIONARY
  5
F
330
A
100
AcDbDictionary
281
1
  3
Standard
350
2C
  0
DICTIONARY
  5
10
330
A
100
AcDbDictionary
281
1
  3
Standard
350
22
  0
DICTIONARY
  5
11
330
A
100
AcDbDictionary
281
1
  0
ACDBDICTIONARYWDFLT
  5
12
330
A
100
AcDbDictionary
281
1
  3
Normal
350
13
100
AcDbDictionaryWithDefault
340
13
  0
ACDBPLACEHOLDER
  5
13
330
12
  0
DICTIONARY
  5
14
330
A
100
AcDbDictionary
281
1
  0
DICTIONARY
  5
15
330
A
100
AcDbDictionary
281
1
  0
DICTIONARY
  5
16
330
A
100
AcDbDictionary
281
1
  0
LAYOUT
  5
1A
330
D
100
AcDbPlotSettings
  1

  4
A3
  6

 40
7.5
 41
20.0
 42
7.5
 43
20.0
 44
420.0
 45
297.0
 46
0.0
 47
0.0
 48
0.0
 49
0.0
140
0.0
141
0.0
142
1.0
143
1.0
 70
1024
 72
1
 73
0
 74
5
  7

 75
16
 76
0
 77
2
 78
300
147
1.0
148
0.0
149
0.0
100
AcDbLayout
  1
Model
 70
1
 71
0
 10
0.0
 20
0.0
 11
420.0
 21
297.0
 12
0.0
 22
0.0
 32
0.0
 14
1e+20
 24
1e+20
 34
1e+20
 15
-1e+20
 25
-1e+20
 35
-1e+20
146
0.0
 13
0.0
 23
0.0
 33
0.0
 16
1.0
 26
0.0
 36
0.0
 17
0.0
 27
1.0
 37
0.0
 76
1
330
17
  0
LAYOUT
  5
1E
330
D
100
AcDbPlotSettings
  1

  4
A3
  6

 40
7.5
 41
20.0
 42
7.5
 43
20.0
 44
420.0
 45
297.0
 46
0.0
 47
0.0
 48
0.0
 49
0.0
140
0.0
141
0.0
142
1.0
143
1.0
 70
0
 72
1
 73
0
 74
5
  7

 75
16
 76
0
 77
2
 78
300
147
1.0
148
0.0
149
0.0
100
AcDbLayout
  1
Layout1
 70
1
 71
1
 10
0.0
 20
0.0
 11
420.0
 21
297.0
 12
0.0
 22
0.0
 32
0.0
 14
1e+20
 24
1e+20
 34
1e+20
 15
-1e+20
 25
-1e+20
 35
-1e+20
146
0.0
 13
0.0
 23
0.0
 33
0.0
 16
1.0
 26
0.0
 36
0.0
 17
0.0
 27
1.0
 37
0.0
 76
1
330
1B
  0
MATERIAL
  5
1F
102
{ACAD_REACTORS
330
E
102
}
330
E
100
AcDbMaterial
  1
ByBlock
  2

 70
0
 40
1.0
 71
1
 41
1.0
 91
-1023410177
 42
1.0
 72
1
  3

 73
1
 74
1
 75
1
 44
0.5
 73
0
 45
1.0
 46
1.0
 77
1
  4

 78
1
 79
1
170
1
 48
1.0
171
1
  6

172
1
173
1
174
1
140
1.0
141
1.0
175
1
  7

176
1
177
1
178
1
143
1.0
179
1
  8

270
1
271
1
272
1
145
1.0
146
1.0
273
1
  9

274
1
275
1
276
1
 42
1.0
 72
1
  3

 73
1
 74
1
 75
1
 94
63
  0
MATERIAL
  5
20
102
{ACAD_REACTORS
330
E
102
}
330
E
100
AcDbMaterial
  1
ByLayer
  2

 70
0
 40
1.0
 71
1
 41
1.0
 91
-1023410177
 42
1.0
 72
1
  3

 73
1
 74
1
 75
1
 44
0.5
 73
0
 45
1.0
 46
1.0
 77
1
  4

 78
1
 79
1
170
1
 48
1.0
171
1
  6

172
1
173
1
174
1
140
1.0
141
1.0
175
1
  7

176
1
177
1
178
1
143
1.0
179
1
  8

270
1
271
1
272
1
145
1.0
146
1.0
273
1
  9

274
1
275
1
276
1
 42
1.0
 72
1
  3

 73
1
 74
1
 75
1
 94
63
  0
MATERIAL
  5
21
102
{ACAD_REACTORS
330
E
102
}
330
E
100
AcDbMaterial
  1
Global
  2

 70
0
 40
1.0
 71
1
 41
1.0
 91
-1023410177
 42
1.0
 72
1
  3

 73
1
 74
1
 75
1
 44
0.5
 73
0
 45
1.0
 46
1.0
 77
1
  4

 78
1
 79
1
170
1
 48
1.0
171
1
  6

172
1
173
1
174
1
140
1.0
141
1.0
175
1
  7

176
1
177
1
178
1
143
1.0
179
1
  8

270
1
271
1
272
1
145
1.0
146
1.0
273
1
  9

274
1
275
1
276
1
 42
1.0
 72
1
  3

 73
1
 74
1
 75
1
 94
63
  0
MLINESTYLE
  5
22
102
{ACAD_REACTORS
330
10
102
}
330
10
100
AcDbMlineStyle
  2
Standard
 70
0
  3

 62
256
 51
90.0
 52
90.0
 71
2
 49
0.5
 62
256
  6
BYLAYER
 49
-0.5
 62
256
  6
BYLAYER
  0
MLEADERSTYLE
  5
2C
102
{ACAD_REACTORS
330
F
102
}
330
F
100
AcDbMLeaderStyle
179
2
170
2
171
1
172
0
 90
2
 40
0.0
 41
0.0
173
1
 91
-1056964608
 92
-2
290
1
 42
2.0
291
1
 43
8.0
  3
Standard
 44
4.0
300

342
29
174
1
175
1
176
0
178
1
 93
-1056964608
 45
4.0
292
0
297
0
 46
4.0
 94
-1056964608
 47
1.0
 49
1.0
140
1.0
294
1
141
0.0
177
0
142
1.0
295
0
296
0
143
3.75
271
0
272
9
273
9
  0
DICTIONARY
  5
2D
330
A
100
AcDbDictionary
280
1
281
1
  3
CREATED_BY_EZDXF
350
2E
  3
WRITTEN_BY_EZDXF
350
10F
  0
DICTIONARYVAR
  5
2E
330
2D
100
DictionaryVariables
280
0
  1
1.4.4 @ 2026-06-06T03:31:29.962396+00:00
  0
DICTIONARYVAR
  5
10F
330
2D
100
DictionaryVariables
280
0
  1
1.4.4 @ 2026-06-06T03:31:30.020441+00:00
  0
ENDSEC
  0
EOF
