  0
SECTION
  2
HEADER
  9
$ACADVER
  1
AC1027
  9
$ACADMAINTVER
 70
105
  9
$DWGCODEPAGE
  3
ANSI_1252
  9
$LASTSAVEDBY
  1
ezdxf
  9
$REQUIREDVERSIONS
160
0
  9
$INSBASE
 10
0.0
 20
0.0
 30
0.0
  9
$EXTMIN
 10
1e+20
 20
1e+20
 30
1e+20
  9
$EXTMAX
 10
-1e+20
 20
-1e+20
 30
-1e+20
  9
$LIMMIN
 10
0.0
 20
0.0
  9
$LIMMAX
 10
420.0
 20
297.0
  9
$ORTHOMODE
 70
0
  9
$REGENMODE
 70
1
  9
$FILLMODE
 70
1
  9
$QTEXTMODE
 70
0
  9
$MIRRTEXT
 70
1
  9
$LTSCALE
 40
1.0
  9
$ATTMODE
 70
1
  9
$TEXTSIZE
 40
2.5
  9
$TRACEWID
 40
1.0
  9
$TEXTSTYLE
  7
Standard
  9
$CLAYER
  8
0
  9
$CELTYPE
  6
ByLayer
  9
$CECOLOR
 62
256
  9
$CELTSCALE
 40
1.0
  9
$DISPSILH
 70
0
  9
$DIMSCALE
 40
1.0
  9
$DIMASZ
 40
2.5
  9
$DIMEXO
 40
0.625
  9
$DIMDLI
 40
3.75
  9
$DIMRND
 40
0.0
  9
$DIMDLE
 40
0.0
  9
$DIMEXE
 40
1.25
  9
$DIMTP
 40
0.0
  9
$DIMTM
 40
0.0
  9
$DIMTXT
 40
2.5
  9
$DIMCEN
 40
2.5
  9
$DIMTSZ
 40
0.0
  9
$DIMTOL
 70
0
  9
$DIMLIM
 70
0
  9
$DIMTIH
 70
0
  9
$DIMTOH
 70
0
  9
$DIMSE1
 70
0
  9
$DIMSE2
 70
0
  9
$DIMTAD
 70
1
  9
$DIMZIN
 70
8
  9
$DIMBLK
  1

  9
$DIMASO
 70
1
  9
$DIMSHO
 70
1
  9
$DIMPOST
  1

  9
$DIMAPOST
  1

  9
$DIMALT
 70
0
  9
$DIMALTD
 70
3
  9
$DIMALTF
 40
0.03937007874
  9
$DIMLFAC
 40
1.0
  9
$DIMTOFL
 70
1
  9
$DIMTVP
 40
0.0
  9
$DIMTIX
 70
0
  9
$DIMSOXD
 70
0
  9
$DIMSAH
 70
0
  9
$DIMBLK1
  1

  9
$DIMBLK2
  1

  9
$DIMSTYLE
  2
ISO-25
  9
$DIMCLRD
 70
0
  9
$DIMCLRE
 70
0
  9
$DIMCLRT
 70
0
  9
$DIMTFAC
 40
1.0
  9
$DIMGAP
 40
0.625
  9
$DIMJUST
 70
0
  9
$DIMSD1
 70
0
  9
$DIMSD2
 70
0
  9
$DIMTOLJ
 70
0
  9
$DIMTZIN
 70
8
  9
$DIMALTZ
 70
0
  9
$DIMALTTZ
 70
0
  9
$DIMUPT
 70
0
  9
$DIMDEC
 70
2
  9
$DIMTDEC
 70
2
  9
$DIMALTU
 70
2
  9
$DIMALTTD
 70
3
  9
$DIMTXSTY
  7
Standard
  9
$DIMAUNIT
 70
0
  9
$DIMADEC
 70
0
  9
$DIMALTRND
 40
0.0
  9
$DIMAZIN
 70
0
  9
$DIMDSEP
 70
44
  9
$DIMATFIT
 70
3
  9
$DIMFRAC
 70
0
  9
$DIMLDRBLK
  1

  9
$DIMLUNIT
 70
2
  9
$DIMLWD
 70
-2
  9
$DIMLWE
 70
-2
  9
$DIMTMOVE
 70
0
  9
$DIMFXL
 40
1.0
  9
$DIMFXLON
 70
0
  9
$DIMJOGANG
 40
0.785398163397
  9
$DIMTFILL
 70
0
  9
$DIMTFILLCLR
 70
0
  9
$DIMARCSYM
 70
0
  9
$DIMLTYPE
  6

  9
$DIMLTEX1
  6

  9
$DIMLTEX2
  6

  9
$DIMTXTDIRECTION
 70
0
  9
$LUNITS
 70
2
  9
$LUPREC
 70
4
  9
$SKETCHINC
 40
1.0
  9
$FILLETRAD
 40
10.0
  9
$AUNITS
 70
0
  9
$AUPREC
 70
2
  9
$MENU
  1
.
  9
$ELEVATION
 40
0.0
  9
$PELEVATION
 40
0.0
  9
$THICKNESS
 40
0.0
  9
$LIMCHECK
 70
0
  9
$CHAMFERA
 40
0.0
  9
$CHAMFERB
 40
0.0
  9
$CHAMFERC
 40
0.0
  9
$CHAMFERD
 40
0.0
  9
$SKPOLY
 70
0
  9
$TDCREATE
 40
2461174.5661689816
  9
$TDUCREATE
 40
2458532.153996898
  9
$TDUPDATE
 40
2461174.5661689816
  9
$TDUUPDATE
 40
2458532.1544311
  9
$TDINDWG
 40
0.0
  9
$TDUSRTIMER
 40
0.0
  9
$USRTIMER
 70
1
  9
$ANGBASE
 50
0.0
  9
$ANGDIR
 70
0
  9
$PDMODE
 70
0
  9
$PDSIZE
 40
0.0
  9
$PLINEWID
 40
0.0
  9
$SPLFRAME
 70
0
  9
$SPLINETYPE
 70
6
  9
$SPLINESEGS
 70
8
  9
$HANDSEED
  5
76
  9
$SURFTAB1
 70
6
  9
$SURFTAB2
 70
6
  9
$SURFTYPE
 70
6
  9
$SURFU
 70
6
  9
$SURFV
 70
6
  9
$UCSBASE
  2

  9
$UCSNAME
  2

  9
$UCSORG
 10
0.0
 20
0.0
 30
0.0
  9
$UCSXDIR
 10
1.0
 20
0.0
 30
0.0
  9
$UCSYDIR
 10
0.0
 20
1.0
 30
0.0
  9
$UCSORTHOREF
  2

  9
$UCSORTHOVIEW
 70
0
  9
$UCSORGTOP
 10
0.0
 20
0.0
 30
0.0
  9
$UCSORGBOTTOM
 10
0.0
 20
0.0
 30
0.0
  9
$UCSORGLEFT
 10
0.0
 20
0.0
 30
0.0
  9
$UCSORGRIGHT
 10
0.0
 20
0.0
 30
0.0
  9
$UCSORGFRONT
 10
0.0
 20
0.0
 30
0.0
  9
$UCSORGBACK
 10
0.0
 20
0.0
 30
0.0
  9
$PUCSBASE
  2

  9
$PUCSNAME
  2

  9
$PUCSORG
 10
0.0
 20
0.0
 30
0.0
  9
$PUCSXDIR
 10
1.0
 20
0.0
 30
0.0
  9
$PUCSYDIR
 10
0.0
 20
1.0
 30
0.0
  9
$PUCSORTHOREF
  2

  9
$PUCSORTHOVIEW
 70
0
  9
$PUCSORGTOP
 10
0.0
 20
0.0
 30
0.0
  9
$PUCSORGBOTTOM
 10
0.0
 20
0.0
 30
0.0
  9
$PUCSORGLEFT
 10
0.0
 20
0.0
 30
0.0
  9
$PUCSORGRIGHT
 10
0.0
 20
0.0
 30
0.0
  9
$PUCSORGFRONT
 10
0.0
 20
0.0
 30
0.0
  9
$PUCSORGBACK
 10
0.0
 20
0.0
 30
0.0
  9
$USERI1
 70
0
  9
$USERI2
 70
0
  9
$USERI3
 70
0
  9
$USERI4
 70
0
  9
$USERI5
 70
0
  9
$USERR1
 40
0.0
  9
$USERR2
 40
0.0
  9
$USERR3
 40
0.0
  9
$USERR4
 40
0.0
  9
$USERR5
 40
0.0
  9
$WORLDVIEW
 70
1
  9
$SHADEDGE
 70
3
  9
$SHADEDIF
 70
70
  9
$TILEMODE
 70
1
  9
$MAXACTVP
 70
64
  9
$PINSBASE
 10
0.0
 20
0.0
 30
0.0
  9
$PLIMCHECK
 70
0
  9
$PEXTMIN
 10
1e+20
 20
1e+20
 30
1e+20
  9
$PEXTMAX
 10
-1e+20
 20
-1e+20
 30
-1e+20
  9
$PLIMMIN
 10
0.0
 20
0.0
  9
$PLIMMAX
 10
420.0
 20
297.0
  9
$UNITMODE
 70
0
  9
$VISRETAIN
 70
1
  9
$PLINEGEN
 70
0
  9
$PSLTSCALE
 70
1
  9
$TREEDEPTH
 70
3020
  9
$CMLSTYLE
  2
Standard
  9
$CMLJUST
 70
0
  9
$CMLSCALE
 40
20.0
  9
$PROXYGRAPHICS
 70
1
  9
$MEASUREMENT
 70
1
  9
$CELWEIGHT
370
-1
  9
$ENDCAPS
280
0
  9
$JOINSTYLE
280
0
  9
$LWDISPLAY
290
0
  9
$INSUNITS
 70
4
  9
$HYPERLINKBASE
  1

  9
$STYLESHEET
  1

  9
$XEDIT
290
1
  9
$CEPSNTYPE
380
0
  9
$PSTYLEMODE
290
1
  9
$FINGERPRINTGUID
  2
{1F0F3148-158F-46D7-9D5E-2A52F81EC0A5}
  9
$VERSIONGUID
  2
{AB5BA859-1829-451F-82FC-0D37A8157911}
  9
$EXTNAMES
290
1
  9
$PSVPSCALE
 40
0.0
  9
$OLESTARTUP
290
0
  9
$SORTENTS
280
127
  9
$INDEXCTL
280
0
  9
$HIDETEXT
280
1
  9
$XCLIPFRAME
280
1
  9
$HALOGAP
280
0
  9
$OBSCOLOR
 70
257
  9
$OBSLTYPE
280
0
  9
$INTERSECTIONDISPLAY
280
0
  9
$INTERSECTIONCOLOR
 70
257
  9
$DIMASSOC
280
2
  9
$PROJECTNAME
  1

  9
$CAMERADISPLAY
290
0
  9
$LENSLENGTH
 40
50.0
  9
$CAMERAHEIGHT
 40
0.0
  9
$STEPSPERSEC
 40
24.0
  9
$STEPSIZE
 40
100.0
  9
$3DDWFPREC
 40
2.0
  9
$PSOLWIDTH
 40
0.005
  9
$PSOLHEIGHT
 40
0.08
  9
$LOFTANG1
 40
1.570796326795
  9
$LOFTANG2
 40
1.570796326795
  9
$LOFTMAG1
 40
0.0
  9
$LOFTMAG2
 40
0.0
  9
$LOFTPARAM
 70
7
  9
$LOFTNORMALS
280
1
  9
$LATITUDE
 40
37.795
  9
$LONGITUDE
 40
-122.394
  9
$NORTHDIRECTION
 40
0.0
  9
$TIMEZONE
 70
-8000
  9
$LIGHTGLYPHDISPLAY
280
1
  9
$TILEMODELIGHTSYNCH
280
1
  9
$CMATERIAL
347
20
  9
$SOLIDHIST
280
0
  9
$SHOWHIST
280
1
  9
$DWFFRAME
280
2
  9
$DGNFRAME
280
2
  9
$REALWORLDSCALE
290
1
  9
$INTERFERECOLOR
 62
256
  9
$CSHADOW
280
0
  9
$SHADOWPLANELOCATION
 40
0.0
  0
ENDSEC
  0
SECTION
  2
CLASSES
  0
CLASS
  1
ACDBDICTIONARYWDFLT
  2
AcDbDictionaryWithDefault
  3
ObjectDBX Classes
 90
0
 91
0
280
0
281
0
  0
CLASS
  1
SUN
  2
AcDbSun
  3
SCENEOE
 90
1153
 91
0
280
0
281
0
  0
CLASS
  1
VISUALSTYLE
  2
AcDbVisualStyle
  3
ObjectDBX Classes
 90
4095
 91
0
280
0
281
0
  0
CLASS
  1
MATERIAL
  2
AcDbMaterial
  3
ObjectDBX Classes
 90
1153
 91
0
280
0
281
0
  0
CLASS
  1
SCALE
  2
AcDbScale
  3
ObjectDBX Classes
 90
1153
 91
0
280
0
281
0
  0
CLASS
  1
TABLESTYLE
  2
AcDbTableStyle
  3
ObjectDBX Classes
 90
4095
 91
0
280
0
281
0
  0
CLASS
  1
MLEADERSTYLE
  2
AcDbMLeaderStyle
  3
ACDB_MLEADERSTYLE_CLASS
 90
4095
 91
0
280
0
281
0
  0
CLASS
  1
DICTIONARYVAR
  2
AcDbDictionaryVar
  3
ObjectDBX Classes
 90
0
 91
0
280
0
281
0
  0
CLASS
  1
CELLSTYLEMAP
  2
AcDbCellStyleMap
  3
ObjectDBX Classes
 90
1152
 91
0
280
0
281
0
  0
CLASS
  1
MENTALRAYRENDERSETTINGS
  2
AcDbMentalRayRenderSettings
  3
SCENEOE
 90
1024
 91
0
280
0
281
0
  0
CLASS
  1
ACDBDETAILVIEWSTYLE
  2
AcDbDetailViewStyle
  3
ObjectDBX Classes
 90
1025
 91
0
280
0
281
0
  0
CLASS
  1
ACDBSECTIONVIEWSTYLE
  2
AcDbSectionViewStyle
  3
ObjectDBX Classes
 90
1025
 91
0
280
0
281
0
  0
CLASS
  1
RASTERVARIABLES
  2
AcDbRasterVariables
  3
ISM
 90
0
 91
0
280
0
281
0
  0
CLASS
  1
LAYOUT
  2
AcDbLayout
  3
ObjectDBX Classes
 90
0
 91
0
280
0
281
0
  0
CLASS
  1
ACDBPLACEHOLDER
  2
AcDbPlaceHolder
  3
ObjectDBX Classes
 90
0
 91
0
280
0
281
0
  0
ENDSEC
  0
SECTION
  2
TABLES
  0
TABLE
  2
VPORT
  5
8
330
0
100
AcDbSymbolTable
 70
1
  0
VPORT
  5
72
330
8
100
AcDbSymbolTableRecord
100
AcDbViewportTableRecord
  2
*Active
 70
0
 10
0.0
 20
0.0
 11
1.0
 21
1.0
 12
-5.879619458976421
 22
5.582726800686579
 13
0.0
 23
0.0
 14
0.5
 24
0.5
 15
0.5
 25
0.5
 16
0.0
 26
0.0
 36
1.0
 17
0.0
 27
0.0
 37
0.0
 40
100.00381991448785
 41
1.34
 42
50.0
 43
0.0
 44
0.0
 50
0.0
 51
0.0
 71
0
 72
1000
 73
1
 74
3
 75
0
 76
0
 77
0
 78
0
281
0
 65
1
110
0.0
120
0.0
130
0.0
111
1.0
121
0.0
131
0.0
112
0.0
122
1.0
132
0.0
 79
0
146
0.0
  0
ENDTAB
  0
TABLE
  2
LTYPE
  5
2
330
0
100
AcDbSymbolTable
 70
3
  0
LTYPE
  5
24
330
2
100
AcDbSymbolTableRecord
100
AcDbLinetypeTableRecord
  2
ByBlock
 70
0
  3

 72
65
 73
0
 40
0.0
  0
LTYPE
  5
25
330
2
100
AcDbSymbolTableRecord
100
AcDbLinetypeTableRecord
  2
ByLayer
 70
0
  3

 72
65
 73
0
 40
0.0
  0
LTYPE
  5
26
330
2
100
AcDbSymbolTableRecord
100
AcDbLinetypeTableRecord
  2
Continuous
 70
0
  3

 72
65
 73
0
 40
0.0
  0
ENDTAB
  0
TABLE
  2
LAYER
  5
1
330
0
100
AcDbSymbolTable
 70
2
  0
LAYER
  5
27
330
1
100
AcDbSymbolTableRecord
100
AcDbLayerTableRecord
  2
0
 70
0
 62
7
  6
Continuous
370
-3
390
13
347
21
  0
LAYER
  5
28
330
1
100
AcDbSymbolTableRecord
100
AcDbLayerTableRecord
  2
Defpoints
 70
0
 62
7
  6
Continuous
290
0
370
-3
390
13
347
21
  0
ENDTAB
  0
TABLE
  2
STYLE
  5
5
330
0
100
AcDbSymbolTable
 70
1
  0
STYLE
  5
29
330
5
100
AcDbSymbolTableRecord
100
AcDbTextStyleTableRecord
  2
Standard
 70
0
 40
0.0
 41
1.0
 50
0.0
 71
0
 42
2.5
  3
txt
  4

  0
ENDTAB
  0
TABLE
  2
VIEW
  5
7
330
0
100
AcDbSymbolTable
 70
0
  0
ENDTAB
  0
TABLE
  2
UCS
  5
6
330
0
100
AcDbSymbolTable
 70
0
  0
ENDTAB
  0
TABLE
  2
APPID
  5
3
330
0
100
AcDbSymbolTable
 70
3
  0
APPID
  5
2A
330
3
100
AcDbSymbolTableRecord
100
AcDbRegAppTableRecord
  2
ACAD
 70
0
  0
APPID
  5
73
330
3
100
AcDbSymbolTableRecord
100
AcDbRegAppTableRecord
  2
HATCHBACKGROUNDCOLOR
 70
0
  0
APPID
  5
74
330
3
100
AcDbSymbolTableRecord
100
AcDbRegAppTableRecord
  2
EZDXF
 70
0
  0
ENDTAB
  0
TABLE
  2
DIMSTYLE
  5
4
330
0
100
AcDbSymbolTable
 70
1
100
AcDbDimStyleTable
  0
DIMSTYLE
105
2B
330
4
100
AcDbSymbolTableRecord
100
AcDbDimStyleTableRecord
  2
Standard
 70
0
 40
1.0
 41
2.5
 42
0.625
 43
3.75
 44
1.25
 45
0.0
 46
0.0
 47
0.0
 48
0.0
 49
2.5
140
2.5
141
2.5
142
0.0
143
0.03937007874
144
1.0
145
0.0
146
1.0
147
0.625
148
0.0
 69
0
 70
0
 71
0
 72
0
 73
0
 74
0
 75
0
 76
0
 77
1
 78
8
 79
3
170
0
171
3
172
1
173
0
174
0
175
0
176
0
177
0
178
0
179
2
271
2
272
2
273
2
274
3
275
0
276
0
277
2
278
44
279
0
280
0
281
0
282
0
283
0
284
8
285
0
286
0
288
0
289
3
290
0
371
-2
372
-2
  0
ENDTAB
  0
TABLE
  2
BLOCK_RECORD
  5
9
330
0
100
AcDbSymbolTable
 70
2
  0
BLOCK_RECORD
  5
17
330
9
100
AcDbSymbolTableRecord
100
AcDbBlockTableRecord
  2
*Model_Space
340
1A
 70
0
280
1
281
0
  0
BLOCK_RECORD
  5
1B
330
9
100
AcDbSymbolTableRecord
100
AcDbBlockTableRecord
  2
*Paper_Space
340
1E
 70
0
280
1
281
0
  0
ENDTAB
  0
ENDSEC
  0
SECTION
  2
BLOCKS
  0
BLOCK
  5
18
330
17
100
AcDbEntity
  8
0
100
AcDbBlockBegin
  2
*Model_Space
 70
0
 10
0.0
 20
0.0
 30
0.0
  3
*Model_Space
  1

  0
ENDBLK
  5
19
330
17
100
AcDbEntity
  8
0
100
AcDbBlockEnd
  0
BLOCK
  5
1C
330
1B
100
AcDbEntity
  8
0
100
AcDbBlockBegin
  2
*Paper_Space
 70
0
 10
0.0
 20
0.0
 30
0.0
  3
*Paper_Space
  1

  0
ENDBLK
  5
1D
330
1B
100
AcDbEntity
  8
0
100
AcDbBlockEnd
  0
ENDSEC
  0
SECTION
  2
ENTITIES
  0
LINE
  5
2F
330
17
100
AcDbEntity
  8
0
100
AcDbLine
 10
61.397161659291726
 20
1.8363131148098262
 30
0.0
 11
70.20991369600188
 21
5.059344724778578
 31
0.0
  0
LINE
  5
30
330
17
100
AcDbEntity
  8
0
100
AcDbLine
 10
69.16641672680451
 20
6.079628654824894
 30
0.0
 11
70.2099136960019
 21
5.059344724778555
 31
0.0
  0
LINE
  5
31
330
17
100
AcDbEntity
  8
0
100
AcDbLine
 10
69.1664167268045
 20
6.079628654824898
 30
0.0
 11
66.56763734722006
 21
5.129193642828078
 31
0.0
  0
LINE
  5
32
330
17
100
AcDbEntity
  8
0
100
AcDbLine
 10
63.25453447001837
 20
8.368595120725235
 30
0.0
 11
66.56763734722007
 21
5.1291936428281115
 31
0.0
  0
LINE
  5
33
330
17
100
AcDbEntity
  8
0
100
AcDbLine
 10
65.8533138496028
 20
9.31903013272203
 30
0.0
 11
63.25453447001837
 21
8.36859512072521
 31
0.0
  0
LINE
  5
34
330
17
100
AcDbEntity
  8
0
100
AcDbLine
 10
64.38899376327544
 20
10.750775788555632
 30
0.0
 11
65.85331384960281
 21
9.31903013272202
 31
0.0
  0
ELLIPSE
  5
35
330
17
100
AcDbEntity
  8
0
100
AcDbEllipse
 10
55.358335829816866
 20
19.984726744858065
 30
0.0
 11
17.88854381999832
 21
-6.194673004859314e-16
 31
0.0
 40
0.597986575382611
 41
-4.14377451094235
 42
-1.0416123231900387
  0
LINE
  5
36
330
17
100
AcDbEntity
  8
0
100
AcDbLine
 10
22.891692885358648
 20
51.324951349987046
 30
0.0
 11
45.72598015846068
 21
28.998622624061696
 31
0.0
  0
LINE
  5
37
330
17
100
AcDbEntity
  8
0
100
AcDbLine
 10
22.891692885358637
 20
51.324951349987046
 30
0.0
 11
20.29291350577421
 21
50.37451633799022
 31
0.0
  0
LINE
  5
38
330
17
100
AcDbEntity
  8
0
100
AcDbLine
 10
16.97981062857251
 20
53.613917815887376
 30
0.0
 11
20.29291350577421
 21
50.37451633799026
 31
0.0
  0
LINE
  5
39
330
17
100
AcDbEntity
  8
0
100
AcDbLine
 10
19.578590008156937
 20
54.564352827884164
 30
0.0
 11
16.97981062857251
 21
53.61391781588735
 31
0.0
  0
LINE
  5
3A
330
17
100
AcDbEntity
  8
0
100
AcDbLine
 10
18.535093038959563
 20
55.58463675793051
 30
0.0
 11
19.578590008156944
 21
54.56435282788417
 31
0.0
  0
LINE
  5
3B
330
17
100
AcDbEntity
  8
0
100
AcDbLine
 10
9.722341002249406
 20
52.361605147961754
 30
0.0
 11
18.53509303895956
 21
55.584636757930504
 31
0.0
  0
ELLIPSE
  5
3C
330
17
100
AcDbEntity
  8
0
100
AcDbEllipse
 10
3.983107671663779
 20
57.973166763216625
 30
0.0
 11
11.000000000000018
 21
-3.809220232743291e-16
 31
0.0
 40
0.597986575382611
 41
-1.8072865270218195
 42
-1.021897090271298
  0
LINE
  5
3D
330
17
100
AcDbEntity
  8
0
100
AcDbLine
 10
1.4058960289701405
 20
51.57840054114642
 30
0.0
 11
-2.482879368948781
 21
52.13883023962911
 31
0.0
  0
ELLIPSE
  5
3E
330
17
100
AcDbEntity
  8
0
100
AcDbEllipse
 10
-2.9514633040115594
 20
50.976145471911565
 30
0.0
 11
2.0
 21
-6.925854968624155e-17
 31
0.0
 40
0.597986575382611
 41
-4.948879180611611
 42
-3.378091580463643
  0
LINE
  5
3F
330
17
100
AcDbEntity
  8
0
100
AcDbLine
 10
-4.895791779544728
 20
51.25636252183512
 30
0.0
 11
-5.832985406048533
 21
48.93101816956964
 31
0.0
  0
LINE
  5
40
330
17
100
AcDbEntity
  8
0
100
AcDbLine
 10
-5.832985406048534
 20
48.93101816956963
 30
0.0
 11
14.582463515121313
 21
45.988739155738635
 31
0.0
  0
ELLIPSE
  5
41
330
17
100
AcDbEntity
  8
0
100
AcDbEllipse
 10
14.113862612572635
 20
44.826056833332075
 30
0.0
 11
2.0
 21
-6.925854968624155e-17
 31
0.0
 40
0.597986575382611
 41
-6.519684234053436
 42
-4.9488879072585386
  0
LINE
  5
42
330
17
100
AcDbEntity
  8
0
100
AcDbLine
 10
12.30938386086604
 20
35.244381205143235
 30
0.0
 11
16.058191081255476
 21
44.54583978439579
 31
0.0
  0
ELLIPSE
  5
43
330
17
100
AcDbEntity
  8
0
100
AcDbEllipse
 10
-4.217408122938111
 20
37.626226121101666
 30
0.0
 11
-17.0
 21
5.886976723330531e-16
 31
0.0
 40
0.5979865753826109
 41
2.8360193269158285
 42
2.9050937267159433
  0
ELLIPSE
  5
44
330
17
100
AcDbEntity
  8
0
100
AcDbEllipse
 10
13.902409841806534
 20
34.208158869680375
 30
0.0
 11
-2.0
 21
6.925854968624155e-17
 31
0.0
 40
0.597986575382611
 41
5.977611980505621
 42
7.442949781901198
  0
LINE
  5
45
330
17
100
AcDbEntity
  8
0
100
AcDbLine
 10
13.10329894453536
 20
33.11179948418314
 30
0.0
 11
25.11728079835084
 21
29.980504700139907
 31
0.0
  0
ELLIPSE
  5
46
330
17
100
AcDbEntity
  8
0
100
AcDbEllipse
 10
24.318169901079674
 20
28.884145314642666
 30
0.0
 11
2.0
 21
-6.925854968624155e-17
 31
0.0
 40
0.597986575382611
 41
-6.694217159252869
 42
-5.123420832457972
  0
LINE
  5
47
330
17
100
AcDbEntity
  8
0
100
AcDbLine
 10
20.557811677762068
 20
20.73177202735189
 30
0.0
 11
26.151587958660233
 21
28.406287725832556
 31
0.0
  0
ELLIPSE
  5
48
330
17
100
AcDbEntity
  8
0
100
AcDbEllipse
 10
18.724393620181512
 20
21.209629616162
 30
0.0
 11
2.0
 21
-6.925854968624155e-17
 31
0.0
 40
0.597986575382611
 41
-1.9818281788681773
 42
-0.4110318520732825
  0
LINE
  5
49
330
17
100
AcDbEntity
  8
0
100
AcDbLine
 10
5.911300869094872
 20
23.244565014708
 30
0.0
 11
17.925282722910346
 21
20.11327023066477
 31
0.0
  0
ELLIPSE
  5
4A
330
17
100
AcDbEntity
  8
0
100
AcDbEllipse
 10
5.11218997182371
 20
22.148205629210757
 30
0.0
 11
-2.0
 21
6.925854968624155e-17
 31
0.0
 40
0.597986575382611
 41
4.30135712831141
 42
5.766694929706987
  0
ELLIPSE
  5
4B
330
17
100
AcDbEntity
  8
0
100
AcDbEllipse
 10
-11.4094061983786
 20
27.758991651626527
 30
0.0
 11
-17.0
 21
1.1773953446661064e-15
 31
0.0
 40
0.5979865753826109
 41
2.556027876317078
 42
2.6251022761171923
  0
LINE
  5
4C
330
17
100
AcDbEntity
  8
0
100
AcDbLine
 10
2.182689550633172
 20
21.621538986874945
 30
0.0
 11
2.758395217321847
 21
22.140672976554377
 31
0.0
  0
ELLIPSE
  5
4D
330
17
100
AcDbEntity
  8
0
100
AcDbEllipse
 10
3.84948971718617
 20
20.9605603192194
 30
0.0
 11
-2.0
 21
6.925854968624155e-17
 31
0.0
 40
0.597986575382611
 41
5.697620529906872
 42
7.093883931502334
  0
LINE
  5
4E
330
17
100
AcDbEntity
  8
0
100
AcDbLine
 10
2.471505197001278
 20
20.093756415952363
 30
0.0
 11
38.87912574244602
 21
-0.602826387103157
 31
0.0
  0
ELLIPSE
  5
4F
330
17
100
AcDbEntity
  8
0
100
AcDbEllipse
 10
37.50114122226111
 20
-1.4696302903701834
 30
0.0
 11
2.0
 21
-6.925854968624155e-17
 31
0.0
 40
0.597986575382611
 41
-7.0432830096517325
 42
-5.4724866828568395
  0
LINE
  5
50
330
17
100
AcDbEntity
  8
0
100
AcDbLine
 10
38.950678618167416
 20
-2.2936465345257933
 30
0.0
 11
16.902926295209124
 21
-16.162508986798343
 31
0.0
  0
ELLIPSE
  5
51
330
17
100
AcDbEntity
  8
0
100
AcDbEllipse
 10
18.35246369111541
 20
-16.98652523095395
 30
0.0
 11
-2.0
 21
6.925854968624155e-17
 31
0.0
 40
0.597986575382611
 41
5.5230876047074355
 42
7.093883931502334
  0
LINE
  5
52
330
17
100
AcDbEntity
  8
0
100
AcDbLine
 10
16.97447917093052
 20
-17.853329134221
 30
0.0
 11
17.15567134541882
 21
-17.95633116474046
 31
0.0
  0
ELLIPSE
  5
53
330
17
100
AcDbEntity
  8
0
100
AcDbEllipse
 10
15.777686825233928
 20
-18.82313506800748
 30
0.0
 11
2.0
 21
-6.925854968624155e-17
 31
0.0
 40
0.597986575382611
 41
-7.043283009651739
 42
-5.4724866828568315
  0
LINE
  5
54
330
17
100
AcDbEntity
  8
0
100
AcDbLine
 10
7.5813325798459426
 20
-25.714778635032353
 30
0.0
 11
17.22722422114021
 21
-19.6471513121631
 31
0.0
  0
ELLIPSE
  5
55
330
17
100
AcDbEntity
  8
0
100
AcDbEllipse
 10
6.131795183939666
 20
-24.890762390876738
 30
0.0
 11
2.0
 21
-6.925854968624155e-17
 31
0.0
 40
0.597986575382611
 41
-2.3308940292670526
 42
-0.7600977024721538
  0
LINE
  5
56
330
17
100
AcDbEntity
  8
0
100
AcDbLine
 10
-41.63138600524676
 20
0.6109535188358954
 30
0.0
 11
4.753810663754777
 21
-25.75756629414377
 31
0.0
  0
ELLIPSE
  5
57
330
17
100
AcDbEntity
  8
0
100
AcDbEllipse
 10
-40.25340148506187
 20
1.4777574221029255
 30
0.0
 11
2.0
 21
-6.925854968624155e-17
 31
0.0
 40
0.597986575382611
 41
-3.901690356061942
 42
-2.3308940292670437
  0
LINE
  5
58
330
17
100
AcDbEntity
  8
0
100
AcDbLine
 10
-41.70293888096816
 20
2.30177366625853
 30
0.0
 11
-32.057047239673906
 21
8.369400989127774
 31
0.0
  0
ELLIPSE
  5
59
330
17
100
AcDbEntity
  8
0
100
AcDbEllipse
 10
-33.5065846355802
 20
9.193417233283391
 30
0.0
 11
2.0
 21
-6.925854968624155e-17
 31
0.0
 40
0.597986575382611
 41
-7.043283009651735
 42
-5.4724866828568395
  0
LINE
  5
5A
330
17
100
AcDbEntity
  8
0
100
AcDbLine
 10
-38.15030850468288
 20
13.483372235897352
 30
0.0
 11
-32.128600115395294
 21
10.060221136550433
 31
0.0
  0
ELLIPSE
  5
5B
330
17
100
AcDbEntity
  8
0
100
AcDbEllipse
 10
-534.074125844174
 20
302.8260555587131
 30
0.0
 11
692.8653454953181
 21
0.0
 31
0.0
 40
0.5979865753826109
 41
-0.826768060203106
 42
-0.7730876047234894
  0
ELLIPSE
  5
5C
330
17
100
AcDbEntity
  8
0
100
AcDbEllipse
 10
123.35608012497002
 20
-124.26019859383169
 30
0.0
 11
-277.8592542732039
 21
1.924412896786272e-14
 31
0.0
 40
0.5979865753826109
 41
5.45641724697648
 42
5.540179507179415
  0
ELLIPSE
  5
5D
330
17
100
AcDbEntity
  8
0
100
AcDbEllipse
 10
-79.7972818436167
 20
-12.663919400609991
 30
0.0
 11
2.0
 21
-6.925854968624155e-17
 31
0.0
 40
0.597986575382611
 41
-3.884598453589965
 42
-2.5926934170661946
  0
LINE
  5
5E
330
17
100
AcDbEntity
  8
0
100
AcDbLine
 10
-52.27242891857256
 20
-41.868710902129415
 30
0.0
 11
-81.50348056456377
 21
-13.287916579651625
 31
0.0
  0
ELLIPSE
  5
5F
330
17
100
AcDbEntity
  8
0
100
AcDbEllipse
 10
-50.566230197643
 20
-41.2447137230942
 30
0.0
 11
2.0
 21
-6.925854968624155e-17
 31
0.0
 40
0.597986575382611
 41
-2.5926934170661946
 42
-1.6818041199403404
  0
ELLIPSE
  5
60
330
17
100
AcDbEntity
  8
0
100
AcDbEllipse
 10
-42.216927151751605
 20
3.5471512110285985
 30
0.0
 11
77.36836103756242
 21
0.0
 31
0.0
 40
0.5979865753826109
 41
-1.6818041199403402
 42
-0.5505664971036508
  0
ELLIPSE
  5
61
330
17
100
AcDbEntity
  8
0
100
AcDbEllipse
 10
120.88262400637323
 20
-56.325869522659296
 30
0.0
 11
-114.0117587362717
 21
3.948144528625929e-15
 31
0.0
 40
0.5979865753826111
 41
5.261288216908288
 42
5.732618810075935
  0
ELLIPSE
  5
62
330
17
100
AcDbEntity
  8
0
100
AcDbEllipse
 10
-72.05288747302902
 20
-13.359314060216825
 30
0.0
 11
2.0
 21
-6.925854968624155e-17
 31
0.0
 40
0.597986575382611
 41
-4.163489743861091
 42
-2.592693417066191
  0
LINE
  5
63
330
17
100
AcDbEntity
  8
0
100
AcDbLine
 10
-73.75908619395102
 20
-13.983311239249304
 30
0.0
 11
-49.23690741781247
 21
-37.959983595338244
 31
0.0
  0
LINE
  5
64
330
17
100
AcDbEntity
  8
0
100
AcDbLine
 10
-73.0963844422264
 20
-12.339030130170487
 30
0.0
 11
-61.15299339577239
 21
-7.971049876943139
 31
0.0
  0
ELLIPSE
  5
65
330
17
100
AcDbEntity
  8
0
100
AcDbEllipse
 10
-47.530708696890464
 20
-37.335986416305765
 30
0.0
 11
-2.0
 21
6.925854968624155e-17
 31
0.0
 40
0.597986575382611
 41
0.5488992365235985
 42
2.119695563318495
  0
ELLIPSE
  5
66
330
17
100
AcDbEntity
  8
0
100
AcDbEllipse
 10
-60.10949642657502
 20
-8.991333806989473
 30
0.0
 11
2.0
 21
-6.925854968624155e-17
 31
0.0
 40
0.597986575382611
 41
-5.734286070655991
 42
-4.163489743861091
  0
LINE
  5
67
330
17
100
AcDbEntity
  8
0
100
AcDbLine
 10
-46.48721172769309
 20
-38.35627034635209
 30
0.0
 11
-34.543820681239076
 21
-33.988290093124746
 31
0.0
  0
LINE
  5
68
330
17
100
AcDbEntity
  8
0
100
AcDbLine
 10
-58.40329770565302
 20
-8.367336627957002
 30
0.0
 11
-33.881118929514464
 21
-32.34400898404594
 31
0.0
  0
ELLIPSE
  5
69
330
17
100
AcDbEntity
  8
0
100
AcDbEllipse
 10
-35.58731765043647
 20
-32.96800616307842
 30
0.0
 11
2.0
 21
-6.925854968624155e-17
 31
0.0
 40
0.597986575382611
 41
-7.305082397450884
 42
-5.734286070655988
  0
ELLIPSE
  5
6A
330
17
100
AcDbEntity
  8
0
100
AcDbEllipse
 10
-57.939553468002096
 20
-4.755987980244917
 30
0.0
 11
2.0
 21
-6.925854968624155e-17
 31
0.0
 40
0.597986575382611
 41
-3.988956818661655
 42
-2.4181604918667583
  0
LINE
  5
6B
330
17
100
AcDbEntity
  8
0
100
AcDbLine
 10
-59.438629849443515
 20
-5.547675685169246
 30
0.0
 11
-17.073119317088967
 21
-34.23335733557257
 31
0.0
  0
LINE
  5
6C
330
17
100
AcDbEntity
  8
0
100
AcDbLine
 10
-59.263475672138185
 20
-3.859560428669811
 30
0.0
 11
-48.76994100204835
 21
1.6822535058005017
 31
0.0
  0
ELLIPSE
  5
6D
330
17
100
AcDbEntity
  8
0
100
AcDbEllipse
 10
-15.574042935647569
 20
-33.44166963064824
 30
0.0
 11
-2.0
 21
6.925854968624155e-17
 31
0.0
 40
0.597986575382611
 41
0.7234321617230268
 42
2.294228488517939
  0
ELLIPSE
  5
6E
330
17
100
AcDbEntity
  8
0
100
AcDbEllipse
 10
-47.44601879791227
 20
0.7858259542253947
 30
0.0
 11
2.0
 21
-6.925854968624155e-17
 31
0.0
 40
0.597986575382611
 41
-5.559753145456559
 42
-3.988956818661655
  0
LINE
  5
6F
330
17
100
AcDbEntity
  8
0
100
AcDbLine
 10
-14.250120731511483
 20
-34.33809718222335
 30
0.0
 11
-3.756586061421646
 21
-28.796283247753035
 31
0.0
  0
LINE
  5
70
330
17
100
AcDbEntity
  8
0
100
AcDbLine
 10
-45.94694241647086
 20
1.57751365914973
 30
0.0
 11
-3.58143188411632
 21
-27.10816799125359
 31
0.0
  0
ELLIPSE
  5
71
330
17
100
AcDbEntity
  8
0
100
AcDbEllipse
 10
-5.080508265557725
 20
-27.89985569617793
 30
0.0
 11
2.0
 21
-6.925854968624155e-17
 31
0.0
 40
0.597986575382611
 41
-7.130549472251447
 42
-5.559753145456551
  0
ENDSEC
  0
SECTION
  2
OBJECTS
  0
DICTIONARY
  5
A
330
0
100
AcDbDictionary
281
1
  3
ACAD_COLOR
350
B
  3
ACAD_GROUP
350
C
  3
ACAD_LAYOUT
350
D
  3
ACAD_MATERIAL
350
E
  3
ACAD_MLEADERSTYLE
350
F
  3
ACAD_MLINESTYLE
350
10
  3
ACAD_PLOTSETTINGS
350
11
  3
ACAD_PLOTSTYLENAME
350
12
  3
ACAD_SCALELIST
350
14
  3
ACAD_TABLESTYLE
350
15
  3
ACAD_VISUALSTYLE
350
16
  3
EZDXF_META
350
2D
  0
DICTIONARY
  5
B
330
A
100
AcDbDictionary
281
1
  0
DICTIONARY
  5
C
330
A
100
AcDbDictionary
281
1
  0
DICTIONARY
  5
D
330
A
100
AcDbDictionary
281
1
  3
Model
350
1A
  3
Layout1
350
1E
  0
DICTIONARY
  5
E
330
A
100
AcDbDictionary
281
1
  3
ByBlock
350
1F
  3
ByLayer
350
20
  3
Global
350
21
  0
DICTIONARY
  5
F
330
A
100
AcDbDictionary
281
1
  3
Standard
350
2C
  0
DICTIONARY
  5
10
330
A
100
AcDbDictionary
281
1
  3
Standard
350
22
  0
DICTIONARY
  5
11
330
A
100
AcDbDictionary
281
1
  0
ACDBDICTIONARYWDFLT
  5
12
330
A
100
AcDbDictionary
281
1
  3
Normal
350
13
100
AcDbDictionaryWithDefault
340
13
  0
ACDBPLACEHOLDER
  5
13
330
12
  0
DICTIONARY
  5
14
330
A
100
AcDbDictionary
281
1
  0
DICTIONARY
  5
15
330
A
100
AcDbDictionary
281
1
  0
DICTIONARY
  5
16
330
A
100
AcDbDictionary
281
1
  0
LAYOUT
  5
1A
330
D
100
AcDbPlotSettings
  1

  4
A3
  6

 40
7.5
 41
20.0
 42
7.5
 43
20.0
 44
420.0
 45
297.0
 46
0.0
 47
0.0
 48
0.0
 49
0.0
140
0.0
141
0.0
142
1.0
143
1.0
 70
1024
 72
1
 73
0
 74
5
  7

 75
16
 76
0
 77
2
 78
300
147
1.0
148
0.0
149
0.0
100
AcDbLayout
  1
Model
 70
1
 71
0
 10
0.0
 20
0.0
 11
420.0
 21
297.0
 12
0.0
 22
0.0
 32
0.0
 14
1e+20
 24
1e+20
 34
1e+20
 15
-1e+20
 25
-1e+20
 35
-1e+20
146
0.0
 13
0.0
 23
0.0
 33
0.0
 16
1.0
 26
0.0
 36
0.0
 17
0.0
 27
1.0
 37
0.0
 76
1
330
17
  0
LAYOUT
  5
1E
330
D
100
AcDbPlotSettings
  1

  4
A3
  6

 40
7.5
 41
20.0
 42
7.5
 43
20.0
 44
420.0
 45
297.0
 46
0.0
 47
0.0
 48
0.0
 49
0.0
140
0.0
141
0.0
142
1.0
143
1.0
 70
0
 72
1
 73
0
 74
5
  7

 75
16
 76
0
 77
2
 78
300
147
1.0
148
0.0
149
0.0
100
AcDbLayout
  1
Layout1
 70
1
 71
1
 10
0.0
 20
0.0
 11
420.0
 21
297.0
 12
0.0
 22
0.0
 32
0.0
 14
1e+20
 24
1e+20
 34
1e+20
 15
-1e+20
 25
-1e+20
 35
-1e+20
146
0.0
 13
0.0
 23
0.0
 33
0.0
 16
1.0
 26
0.0
 36
0.0
 17
0.0
 27
1.0
 37
0.0
 76
1
330
1B
  0
MATERIAL
  5
1F
102
{ACAD_REACTORS
330
E
102
}
330
E
100
AcDbMaterial
  1
ByBlock
  2

 70
0
 40
1.0
 71
1
 41
1.0
 91
-1023410177
 42
1.0
 72
1
  3

 73
1
 74
1
 75
1
 44
0.5
 73
0
 45
1.0
 46
1.0
 77
1
  4

 78
1
 79
1
170
1
 48
1.0
171
1
  6

172
1
173
1
174
1
140
1.0
141
1.0
175
1
  7

176
1
177
1
178
1
143
1.0
179
1
  8

270
1
271
1
272
1
145
1.0
146
1.0
273
1
  9

274
1
275
1
276
1
 42
1.0
 72
1
  3

 73
1
 74
1
 75
1
 94
63
  0
MATERIAL
  5
20
102
{ACAD_REACTORS
330
E
102
}
330
E
100
AcDbMaterial
  1
ByLayer
  2

 70
0
 40
1.0
 71
1
 41
1.0
 91
-1023410177
 42
1.0
 72
1
  3

 73
1
 74
1
 75
1
 44
0.5
 73
0
 45
1.0
 46
1.0
 77
1
  4

 78
1
 79
1
170
1
 48
1.0
171
1
  6

172
1
173
1
174
1
140
1.0
141
1.0
175
1
  7

176
1
177
1
178
1
143
1.0
179
1
  8

270
1
271
1
272
1
145
1.0
146
1.0
273
1
  9

274
1
275
1
276
1
 42
1.0
 72
1
  3

 73
1
 74
1
 75
1
 94
63
  0
MATERIAL
  5
21
102
{ACAD_REACTORS
330
E
102
}
330
E
100
AcDbMaterial
  1
Global
  2

 70
0
 40
1.0
 71
1
 41
1.0
 91
-1023410177
 42
1.0
 72
1
  3

 73
1
 74
1
 75
1
 44
0.5
 73
0
 45
1.0
 46
1.0
 77
1
  4

 78
1
 79
1
170
1
 48
1.0
171
1
  6

172
1
173
1
174
1
140
1.0
141
1.0
175
1
  7

176
1
177
1
178
1
143
1.0
179
1
  8

270
1
271
1
272
1
145
1.0
146
1.0
273
1
  9

274
1
275
1
276
1
 42
1.0
 72
1
  3

 73
1
 74
1
 75
1
 94
63
  0
MLINESTYLE
  5
22
102
{ACAD_REACTORS
330
10
102
}
330
10
100
AcDbMlineStyle
  2
Standard
 70
0
  3

 62
256
 51
90.0
 52
90.0
 71
2
 49
0.5
 62
256
  6
BYLAYER
 49
-0.5
 62
256
  6
BYLAYER
  0
MLEADERSTYLE
  5
2C
102
{ACAD_REACTORS
330
F
102
}
330
F
100
AcDbMLeaderStyle
179
2
170
2
171
1
172
0
 90
2
 40
0.0
 41
0.0
173
1
 91
-1056964608
 92
-2
290
1
 42
2.0
291
1
 43
8.0
  3
Standard
 44
4.0
300

342
29
174
1
175
1
176
0
178
1
 93
-1056964608
 45
4.0
292
0
297
0
 46
4.0
 94
-1056964608
 47
1.0
 49
1.0
140
1.0
294
1
141
0.0
177
0
142
1.0
295
0
296
0
143
3.75
271
0
272
9
273
9
  0
DICTIONARY
  5
2D
330
A
100
AcDbDictionary
280
1
281
1
  3
CREATED_BY_EZDXF
350
2E
  3
WRITTEN_BY_EZDXF
350
75
  0
DICTIONARYVAR
  5
2E
330
2D
100
DictionaryVariables
280
0
  1
1.4.3 @ 2026-05-13T18:35:17.386325+00:00
  0
DICTIONARYVAR
  5
75
330
2D
100
DictionaryVariables
280
0
  1
1.4.3 @ 2026-05-13T18:35:17.417871+00:00
  0
ENDSEC
  0
EOF
