%TF.GenerationSoftware,KiCad,Pcbnew,10.0.3-10.0.3~ubuntu26.04.1*%
%TF.CreationDate,2026-05-22T15:10:36-05:00*%
%TF.ProjectId,bottom_plate,626f7474-6f6d-45f7-906c-6174652e6b69,rev?*%
%TF.SameCoordinates,Original*%
%TF.FileFunction,Soldermask,Bot*%
%TF.FilePolarity,Negative*%
%FSLAX46Y46*%
G04 Gerber Fmt 4.6, Leading zero omitted, Abs format (unit mm)*
G04 Created by KiCad (PCBNEW 10.0.3-10.0.3~ubuntu26.04.1) date 2026-05-22 15:10:36*
%MOMM*%
%LPD*%
G01*
G04 APERTURE LIST*
%ADD10C,0.500000*%
%ADD11C,4.400000*%
G04 APERTURE END LIST*
D10*
%TO.C,REF\u002A\u002A*%
X198750000Y-99700000D03*
X201250000Y-99700000D03*
X198750000Y-98850000D03*
X201250000Y-98850000D03*
X198750000Y-98000000D03*
X201250000Y-98000000D03*
X198750000Y-97150000D03*
X201250000Y-97150000D03*
X198750000Y-96300000D03*
X201250000Y-96300000D03*
%TD*%
D11*
%TO.C,H1*%
X98097933Y-18113180D03*
%TD*%
%TO.C,H6*%
X176090085Y-134024356D03*
%TD*%
%TO.C,H8*%
X235321069Y-35415703D03*
%TD*%
D10*
%TO.C,REF\u002A\u002A*%
X198750000Y-73700000D03*
X201250000Y-73700000D03*
X198750000Y-72850000D03*
X201250000Y-72850000D03*
X198750000Y-72000000D03*
X201250000Y-72000000D03*
X198750000Y-71150000D03*
X201250000Y-71150000D03*
X198750000Y-70300000D03*
X201250000Y-70300000D03*
%TD*%
D11*
%TO.C,H7*%
X301902067Y-18113180D03*
%TD*%
%TO.C,H3*%
X59895532Y-60619082D03*
%TD*%
D10*
%TO.C,REF\u002A\u002A*%
X198750000Y-125700000D03*
X201250000Y-125700000D03*
X198750000Y-124850000D03*
X201250000Y-124850000D03*
X198750000Y-124000000D03*
X201250000Y-124000000D03*
X198750000Y-123150000D03*
X201250000Y-123150000D03*
X198750000Y-122300000D03*
X201250000Y-122300000D03*
%TD*%
D11*
%TO.C,H2*%
X164678931Y-35415703D03*
%TD*%
%TO.C,H11*%
X295779097Y-97950560D03*
%TD*%
%TO.C,H10*%
X204000000Y-78170815D03*
%TD*%
D10*
%TO.C,REF\u002A\u002A*%
X198750000Y-47700000D03*
X201250000Y-47700000D03*
X198750000Y-46850000D03*
X201250000Y-46850000D03*
X198750000Y-46000000D03*
X201250000Y-46000000D03*
X198750000Y-45150000D03*
X201250000Y-45150000D03*
X198750000Y-44300000D03*
X201250000Y-44300000D03*
%TD*%
D11*
%TO.C,H12*%
X223909915Y-134024356D03*
%TD*%
%TO.C,H4*%
X196000000Y-78170815D03*
%TD*%
%TO.C,H9*%
X340104468Y-60619082D03*
%TD*%
%TO.C,H5*%
X104220903Y-97950560D03*
%TD*%
M02*
