M48
; DRILL file KiCad 10.0.3-10.0.3~ubuntu26.04.1 date 2026-05-22T15:10:14
; FORMAT={-:-/ absolute / metric / decimal}
; #@! TF.CreationDate,2026-05-22T15:10:14-05:00
; #@! TF.GenerationSoftware,Kicad,Pcbnew,10.0.3-10.0.3~ubuntu26.04.1
; #@! TF.FileFunction,Plated,1,2,PTH
FMAT,2
METRIC
; #@! TA.AperFunction,Plated,PTH,ViaDrill
T1C0.300
; #@! TA.AperFunction,Plated,PTH,ComponentDrill
T2C2.200
%
G90
G05
T1
X86.0Y-23.0
X105.0Y-27.562
X107.324Y-36.762
X108.424Y-36.762
X109.524Y-36.762
X113.924Y-36.762
X115.5Y-42.5
X116.124Y-36.762
X117.224Y-36.762
X117.391Y-32.532
X126.0Y-42.5
X129.5Y-30.0
X129.5Y-35.5
X130.0Y-32.532
X132.5Y-41.5
X134.25Y-42.25
X137.5Y-43.0
X138.0Y-50.0
X138.5Y-43.0
X139.5Y-43.0
X151.0Y-63.5
X152.5Y-48.0
X154.0Y-52.5
X155.952Y-45.648
X159.452Y-76.429
X160.4Y-79.5
X160.4Y-91.5
X160.5Y-50.0
X161.519Y-49.07
X161.545Y-61.862
X161.545Y-76.862
X161.6Y-79.5
X162.045Y-46.862
X163.0Y-47.0
X176.6Y-38.225
X177.55Y-40.5
X185.05Y-40.5
X191.7Y-81.65
X191.7Y-84.15
X220.5Y-42.087
X229.0Y-57.843
X229.0Y-72.157
X239.455Y-83.138
X241.519Y-49.07
X244.5Y-57.843
X244.5Y-72.157
X244.5Y-87.5
T2
X59.896Y-60.619
X98.098Y-18.113
X104.221Y-97.951
X164.679Y-35.416
X176.09Y-134.024
X196.0Y-78.171
X204.0Y-78.171
X223.91Y-134.024
X235.321Y-35.416
X295.779Y-97.951
X301.902Y-18.113
X340.104Y-60.619
M30
