%TF.GenerationSoftware,KiCad,Pcbnew,10.0.4-10.0.4~ubuntu26.04.1*%
%TF.CreationDate,2026-07-08T23:09:26-05:00*%
%TF.ProjectId,bottom_plate,626f7474-6f6d-45f7-906c-6174652e6b69,rev?*%
%TF.SameCoordinates,Original*%
%TF.FileFunction,Copper,L1,Top*%
%TF.FilePolarity,Positive*%
%FSLAX46Y46*%
G04 Gerber Fmt 4.6, Leading zero omitted, Abs format (unit mm)*
G04 Created by KiCad (PCBNEW 10.0.4-10.0.4~ubuntu26.04.1) date 2026-07-08 23:09:26*
%MOMM*%
%LPD*%
G01*
G04 APERTURE LIST*
G04 Aperture macros list*
%AMRoundRect*
0 Rectangle with rounded corners*
0 $1 Rounding radius*
0 $2 $3 $4 $5 $6 $7 $8 $9 X,Y pos of 4 corners*
0 Add a 4 corners polygon primitive as box body*
4,1,4,$2,$3,$4,$5,$6,$7,$8,$9,$2,$3,0*
0 Add four circle primitives for the rounded corners*
1,1,$1+$1,$2,$3*
1,1,$1+$1,$4,$5*
1,1,$1+$1,$6,$7*
1,1,$1+$1,$8,$9*
0 Add four rect primitives between the rounded corners*
20,1,$1+$1,$2,$3,$4,$5,0*
20,1,$1+$1,$4,$5,$6,$7,0*
20,1,$1+$1,$6,$7,$8,$9,0*
20,1,$1+$1,$8,$9,$2,$3,0*%
%AMFreePoly0*
4,1,23,0.500000,-0.750000,0.000000,-0.750000,0.000000,-0.745722,-0.065263,-0.745722,-0.191342,-0.711940,-0.304381,-0.646677,-0.396677,-0.554381,-0.461940,-0.441342,-0.495722,-0.315263,-0.495722,-0.250000,-0.500000,-0.250000,-0.500000,0.250000,-0.495722,0.250000,-0.495722,0.315263,-0.461940,0.441342,-0.396677,0.554381,-0.304381,0.646677,-0.191342,0.711940,-0.065263,0.745722,0.000000,0.745722,
0.000000,0.750000,0.500000,0.750000,0.500000,-0.750000,0.500000,-0.750000,$1*%
%AMFreePoly1*
4,1,23,0.000000,0.745722,0.065263,0.745722,0.191342,0.711940,0.304381,0.646677,0.396677,0.554381,0.461940,0.441342,0.495722,0.315263,0.495722,0.250000,0.500000,0.250000,0.500000,-0.250000,0.495722,-0.250000,0.495722,-0.315263,0.461940,-0.441342,0.396677,-0.554381,0.304381,-0.646677,0.191342,-0.711940,0.065263,-0.745722,0.000000,-0.745722,0.000000,-0.750000,-0.500000,-0.750000,
-0.500000,0.750000,0.000000,0.750000,0.000000,0.745722,0.000000,0.745722,$1*%
G04 Aperture macros list end*
%TA.AperFunction,ComponentPad*%
%ADD10C,4.400000*%
%TD*%
%TA.AperFunction,SMDPad,CuDef*%
%ADD11RoundRect,0.250000X0.625000X-0.400000X0.625000X0.400000X-0.625000X0.400000X-0.625000X-0.400000X0*%
%TD*%
%TA.AperFunction,SMDPad,CuDef*%
%ADD12RoundRect,0.150000X0.150000X-0.587500X0.150000X0.587500X-0.150000X0.587500X-0.150000X-0.587500X0*%
%TD*%
%TA.AperFunction,SMDPad,CuDef*%
%ADD13FreePoly0,90.000000*%
%TD*%
%TA.AperFunction,SMDPad,CuDef*%
%ADD14FreePoly1,90.000000*%
%TD*%
%TA.AperFunction,SMDPad,CuDef*%
%ADD15R,1.250000X0.280000*%
%TD*%
%TA.AperFunction,SMDPad,CuDef*%
%ADD16R,2.000000X1.800000*%
%TD*%
%TA.AperFunction,SMDPad,CuDef*%
%ADD17RoundRect,0.250000X-0.650000X0.412500X-0.650000X-0.412500X0.650000X-0.412500X0.650000X0.412500X0*%
%TD*%
%TA.AperFunction,SMDPad,CuDef*%
%ADD18R,1.200000X0.800000*%
%TD*%
%TA.AperFunction,SMDPad,CuDef*%
%ADD19R,1.200000X0.850000*%
%TD*%
%TA.AperFunction,SMDPad,CuDef*%
%ADD20R,0.800000X1.200000*%
%TD*%
%TA.AperFunction,SMDPad,CuDef*%
%ADD21RoundRect,0.112500X0.187500X0.112500X-0.187500X0.112500X-0.187500X-0.112500X0.187500X-0.112500X0*%
%TD*%
%TA.AperFunction,SMDPad,CuDef*%
%ADD22RoundRect,0.150000X-0.512500X-0.150000X0.512500X-0.150000X0.512500X0.150000X-0.512500X0.150000X0*%
%TD*%
%TA.AperFunction,SMDPad,CuDef*%
%ADD23RoundRect,0.150000X0.512500X0.150000X-0.512500X0.150000X-0.512500X-0.150000X0.512500X-0.150000X0*%
%TD*%
%TA.AperFunction,SMDPad,CuDef*%
%ADD24RoundRect,0.250000X-0.625000X0.400000X-0.625000X-0.400000X0.625000X-0.400000X0.625000X0.400000X0*%
%TD*%
%TA.AperFunction,SMDPad,CuDef*%
%ADD25RoundRect,0.150000X0.524376X0.487370X0.278631X0.659443X-0.524376X-0.487370X-0.278631X-0.659443X0*%
%TD*%
%TA.AperFunction,SMDPad,CuDef*%
%ADD26RoundRect,0.250000X0.835722X0.757673X0.426146X1.044461X-0.835722X-0.757673X-0.426146X-1.044461X0*%
%TD*%
%TA.AperFunction,SMDPad,CuDef*%
%ADD27RoundRect,0.150000X-0.659443X-0.278631X-0.487370X-0.524376X0.659443X0.278631X0.487370X0.524376X0*%
%TD*%
%TA.AperFunction,SMDPad,CuDef*%
%ADD28RoundRect,0.250000X-1.044461X-0.426146X-0.757673X-0.835722X1.044461X0.426146X0.757673X0.835722X0*%
%TD*%
%TA.AperFunction,ViaPad*%
%ADD29C,0.600000*%
%TD*%
%TA.AperFunction,Conductor*%
%ADD30C,0.300000*%
%TD*%
%TA.AperFunction,Conductor*%
%ADD31C,0.200000*%
%TD*%
G04 APERTURE END LIST*
D10*
%TO.P,H12,1,1_1*%
%TO.N,/Right/GND*%
X223909915Y-134024356D03*
%TD*%
%TO.P,H11,1,1_1*%
%TO.N,/Right/GND*%
X295779097Y-97950560D03*
%TD*%
%TO.P,H10,1,1_1*%
%TO.N,/Right/GND*%
X204000000Y-78170815D03*
%TD*%
%TO.P,H9,1,1_1*%
%TO.N,/Right/GND*%
X340104468Y-60619082D03*
%TD*%
%TO.P,H8,1,1_1*%
%TO.N,/Right/GND*%
X235321069Y-35415703D03*
%TD*%
%TO.P,H7,1,1_1*%
%TO.N,/Right/GND*%
X301902067Y-18113180D03*
%TD*%
%TO.P,H6,1,1_1*%
%TO.N,/Left/GND*%
X176090085Y-134024356D03*
%TD*%
%TO.P,H5,1,1_1*%
%TO.N,/Left/GND*%
X104220903Y-97950560D03*
%TD*%
%TO.P,H4,1,1_1*%
%TO.N,/Left/GND*%
X196000000Y-78170815D03*
%TD*%
%TO.P,H3,1,1_1*%
%TO.N,/Left/GND*%
X59895532Y-60619082D03*
%TD*%
%TO.P,H2,1,1_1*%
%TO.N,/Left/GND*%
X164678931Y-35415703D03*
%TD*%
%TO.P,H1,1,1_1*%
%TO.N,/Left/GND*%
X98097933Y-18113180D03*
%TD*%
D11*
%TO.P,R_MON_1,1*%
%TO.N,/Left/VCC*%
X75500000Y-33650000D03*
%TO.P,R_MON_1,2*%
%TO.N,/Left/BATT_MON*%
X75500000Y-30550000D03*
%TD*%
D12*
%TO.P,Q_POW_1,1,G_1*%
%TO.N,/Right/VUSB*%
X240412500Y-85437500D03*
%TO.P,Q_POW_1,2,S_2*%
%TO.N,/Right/VCC*%
X242312500Y-85437500D03*
%TO.P,Q_POW_1,3,D_3*%
%TO.N,/Right/VBAT*%
X241362500Y-83562500D03*
%TD*%
D13*
%TO.P,JP_CHG_1,1,A_1*%
%TO.N,Net-(JP_CHG_1-A)*%
X241862500Y-74800000D03*
D14*
%TO.P,JP_CHG_1,2,B_2*%
%TO.N,Net-(JP_CHG_1-B)*%
X241862500Y-73500000D03*
%TD*%
D15*
%TO.P,J_VIK_OUT_INTC_1,1,3V3_1*%
%TO.N,/Left/VDD*%
X175208239Y-64650080D03*
%TO.P,J_VIK_OUT_INTC_1,2,GND_2*%
%TO.N,/Left/GND*%
X175208239Y-65150080D03*
%TO.P,J_VIK_OUT_INTC_1,3,SDA_3*%
%TO.N,/Left/SDA*%
X175208239Y-65650080D03*
%TO.P,J_VIK_OUT_INTC_1,4,SCL_4*%
%TO.N,/Left/SCL*%
X175208239Y-66150080D03*
%TO.P,J_VIK_OUT_INTC_1,5,RGB_DO_5*%
%TO.N,/Left/CS_DIS2*%
X175208239Y-66650080D03*
%TO.P,J_VIK_OUT_INTC_1,6,5V_6*%
%TO.N,/Left/VCC*%
X175208239Y-67150080D03*
%TO.P,J_VIK_OUT_INTC_1,7,GP_AD1_7*%
%TO.N,/Left/D+*%
X175208239Y-67650080D03*
%TO.P,J_VIK_OUT_INTC_1,8,MOSI_8*%
%TO.N,/Left/MOSI*%
X175208241Y-68150080D03*
%TO.P,J_VIK_OUT_INTC_1,9,GP_AD2_9*%
%TO.N,/Left/D-*%
X175208239Y-68650080D03*
%TO.P,J_VIK_OUT_INTC_1,10,SPI_CS_10*%
%TO.N,/Left/CS_PMW2*%
X175208239Y-69150079D03*
%TO.P,J_VIK_OUT_INTC_1,11,MISO_11*%
%TO.N,/Left/MISO*%
X175208239Y-69650080D03*
%TO.P,J_VIK_OUT_INTC_1,12,SCLK_12*%
%TO.N,/Left/SCLK*%
X175208238Y-70150080D03*
D16*
%TO.P,J_VIK_OUT_INTC_1,13,MP_13*%
%TO.N,/Left/GND*%
X172484239Y-71950080D03*
%TO.P,J_VIK_OUT_INTC_1,14,MP_14*%
X172484241Y-62850080D03*
%TD*%
D15*
%TO.P,J_VIK_IN_INTC_1,1,SCLK_1*%
%TO.N,/Right/SCLK*%
X224732000Y-70150080D03*
%TO.P,J_VIK_IN_INTC_1,2,MISO_2*%
%TO.N,/Right/MISO*%
X224732000Y-69650080D03*
%TO.P,J_VIK_IN_INTC_1,3,SPI_CS_3*%
%TO.N,/Right/CS_PMW2*%
X224732000Y-69150080D03*
%TO.P,J_VIK_IN_INTC_1,4,GP_AD2_4*%
%TO.N,/Right/D+*%
X224732000Y-68650080D03*
%TO.P,J_VIK_IN_INTC_1,5,MOSI_5*%
%TO.N,/Right/MOSI*%
X224732000Y-68150080D03*
%TO.P,J_VIK_IN_INTC_1,6,GP_AD1_6*%
%TO.N,/Right/D-*%
X224732000Y-67650080D03*
%TO.P,J_VIK_IN_INTC_1,7,5V_7*%
%TO.N,/Right/VCC*%
X224732000Y-67150080D03*
%TO.P,J_VIK_IN_INTC_1,8,RGB_DO_8*%
%TO.N,/Right/CS_DIS2*%
X224732000Y-66650080D03*
%TO.P,J_VIK_IN_INTC_1,9,SCL_9*%
%TO.N,/Right/SCL*%
X224732000Y-66150080D03*
%TO.P,J_VIK_IN_INTC_1,10,SDA_10*%
%TO.N,/Right/SDA*%
X224732000Y-65650080D03*
%TO.P,J_VIK_IN_INTC_1,11,GND_11*%
%TO.N,/Right/GND*%
X224732000Y-65150080D03*
%TO.P,J_VIK_IN_INTC_1,12,3V3_12*%
%TO.N,/Right/VDD*%
X224732000Y-64650080D03*
D16*
%TO.P,J_VIK_IN_INTC_1,13,MP_13*%
%TO.N,/Right/GND*%
X227456000Y-62850080D03*
%TO.P,J_VIK_IN_INTC_1,14,MP_14*%
X227456000Y-71950080D03*
%TD*%
D17*
%TO.P,C1,1*%
%TO.N,/Right/VBAT*%
X239362500Y-88437500D03*
%TO.P,C1,2*%
%TO.N,/Right/GND*%
X239362500Y-91562500D03*
%TD*%
D18*
%TO.P,U_MCU_1,1,GND_1*%
%TO.N,/Left/GND*%
X79250000Y-24300000D03*
%TO.P,U_MCU_1,2,[L]_P1.11_2*%
%TO.N,unconnected-(U_MCU_1-[L]_P1.11-Pad2)*%
X79250000Y-25400000D03*
%TO.P,U_MCU_1,3,[L]_P1.10_3*%
%TO.N,unconnected-(U_MCU_1-[L]_P1.10-Pad3)*%
X79250000Y-26500000D03*
%TO.P,U_MCU_1,4,[L]_P1.13_4*%
%TO.N,unconnected-(U_MCU_1-[L]_P1.13-Pad4)*%
X79250000Y-27600000D03*
D19*
%TO.P,U_MCU_1,5,[L]_P1.15_5*%
%TO.N,unconnected-(U_MCU_1-[L]_P1.15-Pad5)*%
X79250000Y-28700000D03*
D18*
%TO.P,U_MCU_1,6,[L]_A1_P0.03_6*%
%TO.N,/Left/BATT_MON*%
X79250000Y-29800000D03*
%TO.P,U_MCU_1,7,[L]_A0_P0.02_7*%
%TO.N,unconnected-(U_MCU_1-[L]_A0_P0.02-Pad7)*%
X79250000Y-30900000D03*
%TO.P,U_MCU_1,8,[L]_A4_P0.28_8*%
%TO.N,unconnected-(U_MCU_1-[L]_A4_P0.28-Pad8)*%
X79250000Y-32000000D03*
%TO.P,U_MCU_1,9,[L]_A5_P0.29_9*%
%TO.N,unconnected-(U_MCU_1-[L]_A5_P0.29-Pad9)*%
X79250000Y-33100000D03*
%TO.P,U_MCU_1,10,[L]_A6_P0.30_10*%
%TO.N,unconnected-(U_MCU_1-[L]_A6_P0.30-Pad10)*%
X79250000Y-34200000D03*
%TO.P,U_MCU_1,11,[L]_A7_P0.31_11*%
%TO.N,unconnected-(U_MCU_1-[L]_A7_P0.31-Pad11)*%
X79250000Y-35300000D03*
%TO.P,U_MCU_1,12,A2_P0.04_12*%
%TO.N,unconnected-(U_MCU_1-A2_P0.04-Pad12)*%
X79250000Y-36400000D03*
%TO.P,U_MCU_1,13,A3_P0.05_13*%
%TO.N,unconnected-(U_MCU_1-A3_P0.05-Pad13)*%
X79250000Y-37500000D03*
%TO.P,U_MCU_1,32,GND_32*%
%TO.N,/Left/GND*%
X92750000Y-24300000D03*
%TO.P,U_MCU_1,33,[L]_P0.10_33*%
%TO.N,/Left/CS_PMW1*%
X92750000Y-25400000D03*
%TO.P,U_MCU_1,34,[L]_P0.09_34*%
%TO.N,/Left/CS_PMW2*%
X92750000Y-26500000D03*
%TO.P,U_MCU_1,35,[L]_P1.06_35*%
%TO.N,/Left/CS_DIS1*%
X92750000Y-27600000D03*
%TO.P,U_MCU_1,36,[L]_P1.04_36*%
%TO.N,/Left/CS_DIS2*%
X92750000Y-28700000D03*
%TO.P,U_MCU_1,37,SWD_37*%
%TO.N,/Left/SWD*%
X92750000Y-29800000D03*
%TO.P,U_MCU_1,38,SWC_38*%
%TO.N,/Left/SWC*%
X92750000Y-30900000D03*
%TO.P,U_MCU_1,39,[L]_P1.02_39*%
%TO.N,unconnected-(U_MCU_1-[L]_P1.02-Pad39)*%
X92750000Y-32000000D03*
%TO.P,U_MCU_1,40,[L]_P1.01_40*%
%TO.N,unconnected-(U_MCU_1-[L]_P1.01-Pad40)*%
X92750000Y-33100000D03*
%TO.P,U_MCU_1,41,[L]_P1.03_41*%
%TO.N,unconnected-(U_MCU_1-[L]_P1.03-Pad41)*%
X92750000Y-34200000D03*
%TO.P,U_MCU_1,42,P1.00_42*%
%TO.N,/Left/SCL*%
X92750000Y-35300000D03*
%TO.P,U_MCU_1,43,P0.22_43*%
%TO.N,/Left/SDA*%
X92750000Y-36400000D03*
%TO.P,U_MCU_1,44,GND_44*%
%TO.N,/Left/GND*%
X92750000Y-37500000D03*
D20*
%TO.P,U_MCU_1,45,D+_45*%
%TO.N,/Left/D+*%
X91500000Y-39000000D03*
%TO.P,U_MCU_1,46,D-_46*%
%TO.N,/Left/D-*%
X90400000Y-39000000D03*
%TO.P,U_MCU_1,47,VBUS_47*%
%TO.N,/Left/VCC*%
X89300000Y-39000000D03*
%TO.P,U_MCU_1,48,Reset/P0.18_48*%
%TO.N,/Left/RST*%
X88200000Y-39000000D03*
%TO.P,U_MCU_1,49,P0.19_49*%
%TO.N,unconnected-(U_MCU_1-P0.19-Pad49)*%
X87100000Y-39000000D03*
%TO.P,U_MCU_1,50,P0.21_50*%
%TO.N,unconnected-(U_MCU_1-P0.21-Pad50)*%
X86000000Y-39000000D03*
%TO.P,U_MCU_1,51,P0.23_51*%
%TO.N,unconnected-(U_MCU_1-P0.23-Pad51)*%
X84900000Y-39000000D03*
%TO.P,U_MCU_1,52,P0.12_52*%
%TO.N,/Left/MOSI*%
X83800000Y-39000000D03*
%TO.P,U_MCU_1,53,P1.09_53*%
%TO.N,/Left/MISO*%
X82700000Y-39000000D03*
%TO.P,U_MCU_1,54,P0.07_54*%
%TO.N,/Left/SCLK*%
X81600000Y-39000000D03*
%TO.P,U_MCU_1,55,VDD_55*%
%TO.N,/Left/VDD*%
X80500000Y-39000000D03*
%TD*%
D11*
%TO.P,R_MON_2,1*%
%TO.N,/Left/BATT_MON*%
X75500000Y-28650000D03*
%TO.P,R_MON_2,2*%
%TO.N,/Left/GND*%
X75500000Y-25550000D03*
%TD*%
D21*
%TO.P,D_POW_1,1,K_1*%
%TO.N,/Right/VCC*%
X243912500Y-79500000D03*
%TO.P,D_POW_1,2,A_2*%
%TO.N,/Right/VUSB*%
X241812500Y-79500000D03*
%TD*%
D15*
%TO.P,J_VIK_OUT_SW_2,1,3V3_1*%
%TO.N,/Right/VDD*%
X224732000Y-81800000D03*
%TO.P,J_VIK_OUT_SW_2,2,GND_2*%
%TO.N,/Right/GND*%
X224732000Y-81300000D03*
%TO.P,J_VIK_OUT_SW_2,3,SDA_3*%
%TO.N,/Right/SDA*%
X224732000Y-80800000D03*
%TO.P,J_VIK_OUT_SW_2,4,SCL_4*%
%TO.N,/Right/SCL*%
X224732000Y-80300000D03*
%TO.P,J_VIK_OUT_SW_2,5,RGB_DO_5*%
%TO.N,/Right/CHG_STAT*%
X224732000Y-79800000D03*
%TO.P,J_VIK_OUT_SW_2,6,5V_6*%
%TO.N,/Right/VUSB*%
X224732000Y-79300000D03*
%TO.P,J_VIK_OUT_SW_2,7,GP_AD1_7*%
%TO.N,/Right/D-*%
X224732000Y-78800000D03*
%TO.P,J_VIK_OUT_SW_2,8,MOSI_8*%
%TO.N,/Right/MOSI*%
X224732000Y-78300000D03*
%TO.P,J_VIK_OUT_SW_2,9,GP_AD2_9*%
%TO.N,/Right/D+*%
X224732000Y-77800000D03*
%TO.P,J_VIK_OUT_SW_2,10,SPI_CS_10*%
%TO.N,unconnected-(J_VIK_OUT_SW_2-SPI_CS-Pad10)*%
X224732000Y-77300000D03*
%TO.P,J_VIK_OUT_SW_2,11,MISO_11*%
%TO.N,/Right/MISO*%
X224732000Y-76800000D03*
%TO.P,J_VIK_OUT_SW_2,12,SCLK_12*%
%TO.N,/Right/SCLK*%
X224732000Y-76300000D03*
D16*
%TO.P,J_VIK_OUT_SW_2,13,MP_13*%
%TO.N,/Right/GND*%
X227456000Y-74500000D03*
%TO.P,J_VIK_OUT_SW_2,14,MP_14*%
X227456000Y-83600000D03*
%TD*%
D22*
%TO.P,U_CHG_1,1,STAT_1*%
%TO.N,/Right/CHG_STAT*%
X237225000Y-78550000D03*
%TO.P,U_CHG_1,2,V_{SS}_2*%
%TO.N,/Right/GND*%
X237225000Y-79500000D03*
%TO.P,U_CHG_1,3,V_{BAT}_3*%
%TO.N,/Right/VBAT*%
X237225000Y-80450000D03*
%TO.P,U_CHG_1,4,V_{DD}_4*%
%TO.N,/Right/VUSB*%
X239500000Y-80450000D03*
%TO.P,U_CHG_1,5,PROG_5*%
%TO.N,Net-(JP_CHG_1-A)*%
X239500000Y-78550000D03*
%TD*%
D15*
%TO.P,J_VIK_OUT_SW_1,1,3V3_1*%
%TO.N,/Left/VDD*%
X175223998Y-76300000D03*
%TO.P,J_VIK_OUT_SW_1,2,GND_2*%
%TO.N,/Left/GND*%
X175223998Y-76800000D03*
%TO.P,J_VIK_OUT_SW_1,3,SDA_3*%
%TO.N,/Left/SDA*%
X175223998Y-77300000D03*
%TO.P,J_VIK_OUT_SW_1,4,SCL_4*%
%TO.N,/Left/SCL*%
X175223998Y-77800000D03*
%TO.P,J_VIK_OUT_SW_1,5,RGB_DO_5*%
%TO.N,unconnected-(J_VIK_OUT_SW_1-RGB_DO-Pad5)*%
X175223998Y-78300000D03*
%TO.P,J_VIK_OUT_SW_1,6,5V_6*%
%TO.N,/Left/VCC*%
X175223998Y-78800000D03*
%TO.P,J_VIK_OUT_SW_1,7,GP_AD1_7*%
%TO.N,/Left/RST*%
X175223998Y-79300000D03*
%TO.P,J_VIK_OUT_SW_1,8,MOSI_8*%
%TO.N,/Left/MOSI*%
X175224000Y-79800000D03*
%TO.P,J_VIK_OUT_SW_1,9,GP_AD2_9*%
%TO.N,unconnected-(J_VIK_OUT_SW_1-GP_AD2-Pad9)*%
X175223998Y-80300000D03*
%TO.P,J_VIK_OUT_SW_1,10,SPI_CS_10*%
%TO.N,unconnected-(J_VIK_OUT_SW_1-SPI_CS-Pad10)*%
X175223998Y-80799999D03*
%TO.P,J_VIK_OUT_SW_1,11,MISO_11*%
%TO.N,/Left/MISO*%
X175223998Y-81300000D03*
%TO.P,J_VIK_OUT_SW_1,12,SCLK_12*%
%TO.N,/Left/SCLK*%
X175223997Y-81800000D03*
D16*
%TO.P,J_VIK_OUT_SW_1,13,MP_13*%
%TO.N,/Left/GND*%
X172499998Y-83600000D03*
%TO.P,J_VIK_OUT_SW_1,14,MP_14*%
X172500000Y-74500000D03*
%TD*%
D23*
%TO.P,U_POW_1,1,VIN_1*%
%TO.N,/Left/VCC*%
X89375000Y-43525000D03*
%TO.P,U_POW_1,2,GND_2*%
%TO.N,/Left/GND*%
X89375000Y-42575000D03*
%TO.P,U_POW_1,3,CE_3*%
%TO.N,/Left/VCC*%
X89375000Y-41625000D03*
%TO.P,U_POW_1,4,NC_4*%
%TO.N,unconnected-(U_POW_1-NC-Pad4)*%
X87100000Y-41625000D03*
%TO.P,U_POW_1,5,VOUT_5*%
%TO.N,/Left/VDD*%
X87100000Y-43525000D03*
%TD*%
D24*
%TO.P,R_POW_1,1*%
%TO.N,/Right/VUSB*%
X244362500Y-88450000D03*
%TO.P,R_POW_1,2*%
%TO.N,/Right/GND*%
X244362500Y-91550000D03*
%TD*%
D15*
%TO.P,J_VIK_OUT_SENS_1,1,3V3_1*%
%TO.N,/Left/VDD*%
X175192481Y-53000160D03*
%TO.P,J_VIK_OUT_SENS_1,2,GND_2*%
%TO.N,/Left/GND*%
X175192481Y-53500160D03*
%TO.P,J_VIK_OUT_SENS_1,3,SDA_3*%
%TO.N,/Left/SDA*%
X175192481Y-54000160D03*
%TO.P,J_VIK_OUT_SENS_1,4,SCL_4*%
%TO.N,/Left/SCL*%
X175192481Y-54500160D03*
%TO.P,J_VIK_OUT_SENS_1,5,RGB_DO_5*%
%TO.N,unconnected-(J_VIK_OUT_SENS_1-RGB_DO-Pad5)*%
X175192481Y-55000160D03*
%TO.P,J_VIK_OUT_SENS_1,6,5V_6*%
%TO.N,/Left/VCC*%
X175192481Y-55500160D03*
%TO.P,J_VIK_OUT_SENS_1,7,GP_AD1_7*%
%TO.N,/Left/INT_PMW1*%
X175192481Y-56000160D03*
%TO.P,J_VIK_OUT_SENS_1,8,MOSI_8*%
%TO.N,/Left/MOSI*%
X175192483Y-56500160D03*
%TO.P,J_VIK_OUT_SENS_1,9,GP_AD2_9*%
%TO.N,unconnected-(J_VIK_OUT_SENS_1-GP_AD2-Pad9)*%
X175192481Y-57000160D03*
%TO.P,J_VIK_OUT_SENS_1,10,SPI_CS_10*%
%TO.N,/Left/CS_PMW1*%
X175192481Y-57500159D03*
%TO.P,J_VIK_OUT_SENS_1,11,MISO_11*%
%TO.N,/Left/MISO*%
X175192481Y-58000160D03*
%TO.P,J_VIK_OUT_SENS_1,12,SCLK_12*%
%TO.N,/Left/SCLK*%
X175192480Y-58500160D03*
D16*
%TO.P,J_VIK_OUT_SENS_1,13,MP_13*%
%TO.N,/Left/GND*%
X172468481Y-60300160D03*
%TO.P,J_VIK_OUT_SENS_1,14,MP_14*%
X172468483Y-51200160D03*
%TD*%
D25*
%TO.P,J_SWD_1,1,Pin_1_1*%
%TO.N,/Left/VDD*%
X189474794Y-87590887D03*
%TO.P,J_SWD_1,2,Pin_2_2*%
%TO.N,/Left/SWC*%
X188450854Y-86873917D03*
%TO.P,J_SWD_1,3,Pin_3_3*%
%TO.N,/Left/GND*%
X187426914Y-86156946D03*
%TO.P,J_SWD_1,4,Pin_4_4*%
%TO.N,/Left/SWD*%
X186402973Y-85439975D03*
D26*
%TO.P,J_SWD_1,MP,MountPin_MP*%
%TO.N,/Left/GND*%
X192825670Y-86030717D03*
X186722986Y-81757573D03*
%TD*%
D11*
%TO.P,R_CHG_1,1*%
%TO.N,Net-(JP_CHG_1-A)*%
X238337500Y-74825000D03*
%TO.P,R_CHG_1,2*%
%TO.N,Net-(JP_CHG_1-B)*%
X238337500Y-71725000D03*
%TD*%
D15*
%TO.P,J_VIK_OUT_SENS_2,1,3V3_1*%
%TO.N,/Right/VDD*%
X224732000Y-58500160D03*
%TO.P,J_VIK_OUT_SENS_2,2,GND_2*%
%TO.N,/Right/GND*%
X224732000Y-58000160D03*
%TO.P,J_VIK_OUT_SENS_2,3,SDA_3*%
%TO.N,/Right/SDA*%
X224732000Y-57500160D03*
%TO.P,J_VIK_OUT_SENS_2,4,SCL_4*%
%TO.N,/Right/SCL*%
X224732000Y-57000160D03*
%TO.P,J_VIK_OUT_SENS_2,5,RGB_DO_5*%
%TO.N,unconnected-(J_VIK_OUT_SENS_2-RGB_DO-Pad5)*%
X224732000Y-56500160D03*
%TO.P,J_VIK_OUT_SENS_2,6,5V_6*%
%TO.N,/Right/VCC*%
X224732000Y-56000160D03*
%TO.P,J_VIK_OUT_SENS_2,7,GP_AD1_7*%
%TO.N,/Right/INT_PMW2*%
X224732000Y-55500160D03*
%TO.P,J_VIK_OUT_SENS_2,8,MOSI_8*%
%TO.N,/Right/MOSI*%
X224732000Y-55000160D03*
%TO.P,J_VIK_OUT_SENS_2,9,GP_AD2_9*%
%TO.N,unconnected-(J_VIK_OUT_SENS_2-GP_AD2-Pad9)*%
X224732000Y-54500160D03*
%TO.P,J_VIK_OUT_SENS_2,10,SPI_CS_10*%
%TO.N,/Right/CS_PMW2*%
X224732000Y-54000160D03*
%TO.P,J_VIK_OUT_SENS_2,11,MISO_11*%
%TO.N,/Right/MISO*%
X224732000Y-53500160D03*
%TO.P,J_VIK_OUT_SENS_2,12,SCLK_12*%
%TO.N,/Right/SCLK*%
X224732000Y-53000160D03*
D16*
%TO.P,J_VIK_OUT_SENS_2,13,MP_13*%
%TO.N,/Right/GND*%
X227456000Y-51200160D03*
%TO.P,J_VIK_OUT_SENS_2,14,MP_14*%
X227456000Y-60300160D03*
%TD*%
D27*
%TO.P,J_BAT_1,1,Pin_1_1*%
%TO.N,/Right/VBAT*%
X214656946Y-81926914D03*
%TO.P,J_BAT_1,2,Pin_2_2*%
%TO.N,/Right/GND*%
X215373916Y-82950853D03*
D28*
%TO.P,J_BAT_1,MP,MountPin_MP*%
X210974543Y-82246927D03*
X213813746Y-86301729D03*
%TD*%
D11*
%TO.P,R_CHG_2,1*%
%TO.N,Net-(JP_CHG_1-B)*%
X238337500Y-69825000D03*
%TO.P,R_CHG_2,2*%
%TO.N,/Right/GND*%
X238337500Y-66725000D03*
%TD*%
D15*
%TO.P,J_VIK_OUT_DISP_1,1,3V3_1*%
%TO.N,/Left/VDD*%
X175176724Y-41350238D03*
%TO.P,J_VIK_OUT_DISP_1,2,GND_2*%
%TO.N,/Left/GND*%
X175176724Y-41850238D03*
%TO.P,J_VIK_OUT_DISP_1,3,SDA_3*%
%TO.N,/Left/SDA*%
X175176724Y-42350238D03*
%TO.P,J_VIK_OUT_DISP_1,4,SCL_4*%
%TO.N,/Left/SCL*%
X175176724Y-42850238D03*
%TO.P,J_VIK_OUT_DISP_1,5,RGB_DO_5*%
%TO.N,unconnected-(J_VIK_OUT_DISP_1-RGB_DO-Pad5)*%
X175176724Y-43350238D03*
%TO.P,J_VIK_OUT_DISP_1,6,5V_6*%
%TO.N,/Left/VCC*%
X175176724Y-43850238D03*
%TO.P,J_VIK_OUT_DISP_1,7,GP_AD1_7*%
%TO.N,unconnected-(J_VIK_OUT_DISP_1-GP_AD1-Pad7)*%
X175176724Y-44350238D03*
%TO.P,J_VIK_OUT_DISP_1,8,MOSI_8*%
%TO.N,/Left/MOSI*%
X175176724Y-44850238D03*
%TO.P,J_VIK_OUT_DISP_1,9,GP_AD2_9*%
%TO.N,unconnected-(J_VIK_OUT_DISP_1-GP_AD2-Pad9)*%
X175176724Y-45350238D03*
%TO.P,J_VIK_OUT_DISP_1,10,SPI_CS_10*%
%TO.N,/Left/CS_DIS1*%
X175176724Y-45850238D03*
%TO.P,J_VIK_OUT_DISP_1,11,MISO_11*%
%TO.N,/Left/MISO*%
X175176724Y-46350238D03*
%TO.P,J_VIK_OUT_DISP_1,12,SCLK_12*%
%TO.N,/Left/SCLK*%
X175176724Y-46850238D03*
D16*
%TO.P,J_VIK_OUT_DISP_1,13,MP_13*%
%TO.N,/Left/GND*%
X172452724Y-48650238D03*
%TO.P,J_VIK_OUT_DISP_1,14,MP_14*%
X172452724Y-39550238D03*
%TD*%
D15*
%TO.P,J_VIK_OUT_DISP_2,1,3V3_1*%
%TO.N,/Right/VDD*%
X224732000Y-46850238D03*
%TO.P,J_VIK_OUT_DISP_2,2,GND_2*%
%TO.N,/Right/GND*%
X224732000Y-46350238D03*
%TO.P,J_VIK_OUT_DISP_2,3,SDA_3*%
%TO.N,/Right/SDA*%
X224732000Y-45850238D03*
%TO.P,J_VIK_OUT_DISP_2,4,SCL_4*%
%TO.N,/Right/SCL*%
X224732000Y-45350238D03*
%TO.P,J_VIK_OUT_DISP_2,5,RGB_DO_5*%
%TO.N,unconnected-(J_VIK_OUT_DISP_2-RGB_DO-Pad5)*%
X224732000Y-44850238D03*
%TO.P,J_VIK_OUT_DISP_2,6,5V_6*%
%TO.N,/Right/VCC*%
X224732000Y-44350238D03*
%TO.P,J_VIK_OUT_DISP_2,7,GP_AD1_7*%
%TO.N,unconnected-(J_VIK_OUT_DISP_2-GP_AD1-Pad7)*%
X224732000Y-43850238D03*
%TO.P,J_VIK_OUT_DISP_2,8,MOSI_8*%
%TO.N,/Right/MOSI*%
X224732000Y-43350238D03*
%TO.P,J_VIK_OUT_DISP_2,9,GP_AD2_9*%
%TO.N,unconnected-(J_VIK_OUT_DISP_2-GP_AD2-Pad9)*%
X224732000Y-42850238D03*
%TO.P,J_VIK_OUT_DISP_2,10,SPI_CS_10*%
%TO.N,/Right/CS_DIS2*%
X224732000Y-42350238D03*
%TO.P,J_VIK_OUT_DISP_2,11,MISO_11*%
%TO.N,/Right/MISO*%
X224732000Y-41850238D03*
%TO.P,J_VIK_OUT_DISP_2,12,SCLK_12*%
%TO.N,/Right/SCLK*%
X224732000Y-41350238D03*
D16*
%TO.P,J_VIK_OUT_DISP_2,13,MP_13*%
%TO.N,/Right/GND*%
X227456000Y-39550238D03*
%TO.P,J_VIK_OUT_DISP_2,14,MP_14*%
X227456000Y-48650238D03*
%TD*%
D17*
%TO.P,C2,1*%
%TO.N,/Right/VUSB*%
X241862500Y-88437500D03*
%TO.P,C2,2*%
%TO.N,/Right/GND*%
X241862500Y-91562500D03*
%TD*%
D29*
%TO.N,/Right/GND*%
X234500000Y-72500000D03*
%TO.N,/Left/GND*%
X115500000Y-33500000D03*
X154500000Y-40500000D03*
X160500000Y-51000000D03*
X187426914Y-86156946D03*
X103500000Y-24500000D03*
X129500000Y-73500000D03*
X138500000Y-55000000D03*
X153500000Y-64000000D03*
X111000000Y-53500000D03*
X79250000Y-24300000D03*
%TO.N,/Left/VDD*%
X183000000Y-65000000D03*
%TO.N,/Left/SDA*%
X182000000Y-66000000D03*
%TO.N,/Left/GND*%
X92750000Y-24300000D03*
%TO.N,/Left/VDD*%
X80500000Y-39000000D03*
%TO.N,/Left/VCC*%
X89375000Y-43525000D03*
%TO.N,/Left/SCL*%
X92750000Y-35300000D03*
%TO.N,/Left/SDA*%
X92750000Y-36400000D03*
%TO.N,/Left/MOSI*%
X83800000Y-39000000D03*
%TO.N,/Left/MISO*%
X82700000Y-39000000D03*
%TO.N,/Left/SCLK*%
X81600000Y-39000000D03*
X177000000Y-59000000D03*
%TO.N,/Left/MISO*%
X178000000Y-58500000D03*
%TO.N,/Left/MOSI*%
X179000000Y-57000000D03*
%TO.N,/Left/VCC*%
X180000000Y-56000000D03*
%TO.N,/Left/SCL*%
X181000000Y-55000000D03*
%TO.N,/Left/SDA*%
X182000000Y-54500000D03*
%TO.N,/Left/VDD*%
X183000000Y-53500000D03*
%TO.N,/Left/SCL*%
X181000000Y-66500000D03*
%TO.N,/Left/VCC*%
X180000000Y-67500000D03*
%TO.N,/Left/MOSI*%
X179000000Y-68500000D03*
%TO.N,/Left/MISO*%
X178000000Y-70000000D03*
%TO.N,/Left/SCLK*%
X177000000Y-70500000D03*
%TO.N,/Left/VDD*%
X183000000Y-76500000D03*
%TO.N,/Left/SDA*%
X182000000Y-77500000D03*
%TO.N,/Left/SCL*%
X181000000Y-78000000D03*
%TO.N,/Left/VCC*%
X180000000Y-79000000D03*
%TO.N,/Left/MOSI*%
X179000000Y-80000000D03*
%TO.N,/Left/MISO*%
X178000000Y-81500000D03*
%TO.N,/Left/SCLK*%
X177000000Y-82000000D03*
X177000000Y-47000000D03*
%TO.N,/Left/MISO*%
X178000000Y-46500000D03*
%TO.N,/Left/MOSI*%
X179000000Y-45000000D03*
%TO.N,/Left/VCC*%
X180000000Y-44000000D03*
%TO.N,/Left/SCL*%
X181000000Y-43000000D03*
%TO.N,/Left/SDA*%
X182000000Y-42500000D03*
%TO.N,/Left/VDD*%
X183000000Y-41500000D03*
%TO.N,/Left/GND*%
X89375000Y-42575000D03*
%TO.N,/Right/VCC*%
X220500000Y-56000000D03*
X220500000Y-67000000D03*
X220500000Y-44500000D03*
%TO.N,/Right/VBAT*%
X239362500Y-88437500D03*
X241362500Y-83562500D03*
%TO.N,/Right/SCLK*%
X217500000Y-70000000D03*
X217500000Y-53000000D03*
X217500000Y-41500000D03*
X217500000Y-76500000D03*
%TO.N,/Right/MISO*%
X218500000Y-42000000D03*
X218500000Y-69500000D03*
X218500000Y-53600160D03*
X218500000Y-77000000D03*
%TO.N,/Right/MOSI*%
X219500000Y-78500000D03*
X219500000Y-55000000D03*
X219500000Y-43500000D03*
X219500000Y-68000000D03*
%TO.N,/Right/SCL*%
X221500000Y-80500000D03*
X221500000Y-57000000D03*
X221500000Y-45500000D03*
X221500000Y-66000000D03*
%TO.N,/Right/SDA*%
X222500000Y-46000000D03*
X222500000Y-65500000D03*
X222500000Y-57600160D03*
X222500000Y-81000000D03*
%TO.N,/Right/GND*%
X237225000Y-79500000D03*
%TO.N,/Right/VDD*%
X223500000Y-58500000D03*
X223500000Y-64500000D03*
X223500000Y-82000000D03*
X223500000Y-47000000D03*
%TD*%
%TO.N,/Right/VCC*%
D30*
X224732000Y-67150080D02*
X236882124Y-67150080D01*
X238892956Y-68500000D02*
X243912500Y-73519544D01*
X236882124Y-67150080D02*
X238232044Y-68500000D01*
X238232044Y-68500000D02*
X238892956Y-68500000D01*
X243912500Y-73519544D02*
X243912500Y-79500000D01*
%TO.N,/Right/VBAT*%
X214656946Y-81926914D02*
X214657999Y-81925861D01*
X214657999Y-81925861D02*
X216925861Y-81925861D01*
X216925861Y-81925861D02*
X223437500Y-88437500D01*
X223437500Y-88437500D02*
X235087500Y-88437500D01*
X235087500Y-88437500D02*
X237225000Y-86300000D01*
%TO.N,/Right/GND*%
X227456000Y-83600000D02*
X229400000Y-83600000D01*
X229400000Y-83600000D02*
X229500000Y-83500000D01*
X229500000Y-83500000D02*
X229500000Y-81500000D01*
X229500000Y-81500000D02*
X231500000Y-79500000D01*
X231500000Y-79500000D02*
X237225000Y-79500000D01*
%TO.N,/Right/CHG_STAT*%
D31*
X224732000Y-79800000D02*
X229972792Y-79800000D01*
X229972792Y-79800000D02*
X231222792Y-78550000D01*
X231222792Y-78550000D02*
X237225000Y-78550000D01*
%TO.N,/Right/VUSB*%
D30*
X224732000Y-79300000D02*
X229836396Y-79300000D01*
X229836396Y-79300000D02*
X231236396Y-77900000D01*
X237948762Y-77900000D02*
X238237500Y-78188738D01*
X238237500Y-78188738D02*
X238237500Y-79187500D01*
X238237500Y-79187500D02*
X239500000Y-80450000D01*
X231236396Y-77900000D02*
X237948762Y-77900000D01*
%TO.N,/Left/GND*%
X103300000Y-24300000D02*
X103500000Y-24500000D01*
X92750000Y-24300000D02*
X103300000Y-24300000D01*
%TO.N,/Right/CS_PMW2*%
D31*
X224732000Y-69150080D02*
X219801551Y-69150080D01*
X219801551Y-69150080D02*
X218900000Y-68248529D01*
X218900000Y-68248529D02*
X218900000Y-54751471D01*
X218900000Y-54751471D02*
X219651311Y-54000160D01*
X219651311Y-54000160D02*
X224732000Y-54000160D01*
%TO.N,/Left/RST*%
X175223998Y-79300000D02*
X118463604Y-79300000D01*
X118463604Y-79300000D02*
X74325000Y-35161396D01*
X88200000Y-30700000D02*
X88200000Y-39000000D01*
X74325000Y-35161396D02*
X74325000Y-24675000D01*
X74325000Y-24675000D02*
X75500000Y-23500000D01*
X75500000Y-23500000D02*
X81000000Y-23500000D01*
X81000000Y-23500000D02*
X88200000Y-30700000D01*
%TO.N,/Left/GND*%
D30*
X186583860Y-87000000D02*
X185000000Y-87000000D01*
X187426914Y-86156946D02*
X186583860Y-87000000D01*
X185000000Y-87000000D02*
X185000000Y-83480559D01*
X185000000Y-83480559D02*
X186722986Y-81757573D01*
%TO.N,/Left/VDD*%
X189474794Y-87590887D02*
X189031706Y-88033975D01*
X189031706Y-88033975D02*
X184033975Y-88033975D01*
X184033975Y-88033975D02*
X183000000Y-87000000D01*
X183000000Y-87000000D02*
X183000000Y-76500000D01*
%TO.N,/Left/SWD*%
D31*
X186402973Y-85439975D02*
X189100000Y-82742948D01*
X189100000Y-82742948D02*
X189100000Y-46751471D01*
X189100000Y-46751471D02*
X180698767Y-38350238D01*
X180698767Y-38350238D02*
X134981610Y-38350238D01*
X134981610Y-38350238D02*
X119831371Y-23200000D01*
X119831371Y-23200000D02*
X91684315Y-23200000D01*
X91684315Y-23200000D02*
X91450000Y-23434315D01*
X91450000Y-23434315D02*
X91450000Y-29000000D01*
X91450000Y-29000000D02*
X92250000Y-29800000D01*
X92250000Y-29800000D02*
X92750000Y-29800000D01*
%TO.N,/Left/SWC*%
X188450854Y-86873917D02*
X189500000Y-85824771D01*
X189500000Y-46585786D02*
X180864453Y-37950238D01*
X189500000Y-85824771D02*
X189500000Y-46585786D01*
X91518630Y-22800000D02*
X91050000Y-23268629D01*
X180864453Y-37950238D02*
X135147296Y-37950238D01*
X135147296Y-37950238D02*
X119997057Y-22800000D01*
X119997057Y-22800000D02*
X91518630Y-22800000D01*
X91050000Y-23268629D02*
X91050000Y-30000000D01*
X91050000Y-30000000D02*
X91950000Y-30900000D01*
X91950000Y-30900000D02*
X92750000Y-30900000D01*
%TO.N,/Left/CS_PMW2*%
X175208239Y-69150079D02*
X179698450Y-69150079D01*
X179698450Y-69150079D02*
X183600000Y-65248529D01*
X183600000Y-65248529D02*
X183600000Y-64751471D01*
X183600000Y-64751471D02*
X180498609Y-61650080D01*
X93250000Y-26500000D02*
X92750000Y-26500000D01*
X180498609Y-61650080D02*
X128400080Y-61650080D01*
X128400080Y-61650080D02*
X93250000Y-26500000D01*
%TO.N,/Left/CS_DIS2*%
X175208239Y-66650080D02*
X131200080Y-66650080D01*
X131200080Y-66650080D02*
X93250000Y-28700000D01*
X93250000Y-28700000D02*
X92750000Y-28700000D01*
%TO.N,/Left/CS_DIS1*%
X175176724Y-45850238D02*
X141915924Y-45850238D01*
X141915924Y-45850238D02*
X119665686Y-23600000D01*
X91850000Y-27200000D02*
X92250000Y-27600000D01*
X119665686Y-23600000D02*
X91850000Y-23600000D01*
X91850000Y-23600000D02*
X91850000Y-27200000D01*
X92250000Y-27600000D02*
X92750000Y-27600000D01*
%TO.N,/Left/D+*%
X92452044Y-42154700D02*
X92382177Y-42224568D01*
X92382177Y-42224568D02*
G75*
G03*
X92382151Y-42564006I169723J-169732D01*
G01*
X92367192Y-41730436D02*
X92452044Y-41815288D01*
X91618502Y-41800304D02*
G75*
G03*
X91957905Y-41800297I169698J169704D01*
G01*
X92382177Y-42563980D02*
X117743278Y-67925080D01*
X174270738Y-67650080D02*
X175208239Y-67650080D01*
X117743278Y-67925080D02*
X173995738Y-67925080D01*
X173995738Y-67925080D02*
X174270738Y-67650080D01*
X91175000Y-41356802D02*
X91618502Y-41800304D01*
X91957914Y-41800305D02*
X92027780Y-41730436D01*
X91500000Y-39000000D02*
X91500000Y-39900001D01*
X91500000Y-39900001D02*
X91175000Y-40225001D01*
X92452044Y-41815288D02*
G75*
G02*
X92452050Y-42154706I-169744J-169712D01*
G01*
X92027780Y-41730436D02*
G75*
G02*
X92367192Y-41730436I169706J-169708D01*
G01*
X91175000Y-40225001D02*
X91175000Y-41356802D01*
%TO.N,/Left/D-*%
X117556882Y-68375080D02*
X173995738Y-68375080D01*
X90400000Y-39000000D02*
X90400000Y-39900001D01*
X173995738Y-68375080D02*
X174270738Y-68650080D01*
X90725000Y-41543198D02*
X117556882Y-68375080D01*
X90400000Y-39900001D02*
X90725000Y-40225001D01*
X90725000Y-40225001D02*
X90725000Y-41543198D01*
X174270738Y-68650080D02*
X175208239Y-68650080D01*
%TO.N,/Left/CS_PMW1*%
X92750000Y-25400000D02*
X120900000Y-25400000D01*
X120900000Y-25400000D02*
X153000159Y-57500159D01*
X153000159Y-57500159D02*
X175192481Y-57500159D01*
%TO.N,/Left/GND*%
D30*
X175223998Y-76800000D02*
X173600000Y-76800000D01*
X172500000Y-75700000D02*
X172500000Y-74500000D01*
X173600000Y-76800000D02*
X172500000Y-75700000D01*
X175208239Y-65150080D02*
X173584241Y-65150080D01*
X173584241Y-65150080D02*
X172484241Y-64050080D01*
X172484241Y-64050080D02*
X172484241Y-62850080D01*
X175192481Y-53500160D02*
X173568483Y-53500160D01*
X173568483Y-53500160D02*
X172468483Y-52400160D01*
X172468483Y-52400160D02*
X172468483Y-51200160D01*
X172452724Y-39550238D02*
X172452724Y-40750238D01*
X172452724Y-40750238D02*
X173552724Y-41850238D01*
X173552724Y-41850238D02*
X175176724Y-41850238D01*
%TO.N,/Left/SCLK*%
D31*
X175192480Y-58500160D02*
X176500160Y-58500160D01*
X176500160Y-58500160D02*
X177000000Y-59000000D01*
%TO.N,/Left/MISO*%
X177500160Y-58000160D02*
X178000000Y-58500000D01*
X175192481Y-58000160D02*
X177500160Y-58000160D01*
%TO.N,/Left/MOSI*%
X175192483Y-56500160D02*
X178500160Y-56500160D01*
X178500160Y-56500160D02*
X179000000Y-57000000D01*
%TO.N,/Left/VCC*%
D30*
X175192481Y-55500160D02*
X179500160Y-55500160D01*
X179500160Y-55500160D02*
X180000000Y-56000000D01*
%TO.N,/Left/SCL*%
D31*
X175192481Y-54500160D02*
X180500160Y-54500160D01*
X180500160Y-54500160D02*
X181000000Y-55000000D01*
%TO.N,/Left/SDA*%
X175192481Y-54000160D02*
X181500160Y-54000160D01*
X181500160Y-54000160D02*
X182000000Y-54500000D01*
%TO.N,/Left/VDD*%
D30*
X175192481Y-53000160D02*
X182500160Y-53000160D01*
X182500160Y-53000160D02*
X183000000Y-53500000D01*
%TO.N,/Left/SCL*%
D31*
X175208239Y-66150080D02*
X180650080Y-66150080D01*
X180650080Y-66150080D02*
X181000000Y-66500000D01*
%TO.N,/Left/VCC*%
D30*
X175208239Y-67150080D02*
X179650080Y-67150080D01*
X179650080Y-67150080D02*
X180000000Y-67500000D01*
%TO.N,/Left/MOSI*%
D31*
X175208241Y-68150080D02*
X178650080Y-68150080D01*
X178650080Y-68150080D02*
X179000000Y-68500000D01*
%TO.N,/Left/MISO*%
X175208239Y-69650080D02*
X177650080Y-69650080D01*
X177650080Y-69650080D02*
X178000000Y-70000000D01*
%TO.N,/Left/SCLK*%
X175208238Y-70150080D02*
X176650080Y-70150080D01*
X176650080Y-70150080D02*
X177000000Y-70500000D01*
%TO.N,/Left/VDD*%
D30*
X175223998Y-76300000D02*
X182800000Y-76300000D01*
X182800000Y-76300000D02*
X183000000Y-76500000D01*
%TO.N,/Left/SDA*%
D31*
X175223998Y-77300000D02*
X181800000Y-77300000D01*
X181800000Y-77300000D02*
X182000000Y-77500000D01*
%TO.N,/Left/SCL*%
X180800000Y-77800000D02*
X181000000Y-78000000D01*
X175223998Y-77800000D02*
X180800000Y-77800000D01*
%TO.N,/Left/VCC*%
D30*
X175223998Y-78800000D02*
X179800000Y-78800000D01*
X179800000Y-78800000D02*
X180000000Y-79000000D01*
%TO.N,/Left/MOSI*%
D31*
X175224000Y-79800000D02*
X178800000Y-79800000D01*
X178800000Y-79800000D02*
X179000000Y-80000000D01*
%TO.N,/Left/MISO*%
X175223998Y-81300000D02*
X177800000Y-81300000D01*
X177800000Y-81300000D02*
X178000000Y-81500000D01*
%TO.N,/Left/SCLK*%
X175223997Y-81800000D02*
X176800000Y-81800000D01*
X176800000Y-81800000D02*
X177000000Y-82000000D01*
X175176724Y-46850238D02*
X176850238Y-46850238D01*
X176850238Y-46850238D02*
X177000000Y-47000000D01*
%TO.N,/Left/MISO*%
X175176724Y-46350238D02*
X177850238Y-46350238D01*
X177850238Y-46350238D02*
X178000000Y-46500000D01*
%TO.N,/Left/MOSI*%
X175176724Y-44850238D02*
X178850238Y-44850238D01*
X178850238Y-44850238D02*
X179000000Y-45000000D01*
%TO.N,/Left/VCC*%
D30*
X175176724Y-43850238D02*
X179850238Y-43850238D01*
X179850238Y-43850238D02*
X180000000Y-44000000D01*
%TO.N,/Left/SCL*%
D31*
X181000000Y-43000000D02*
X180850238Y-42850238D01*
X180850238Y-42850238D02*
X175176724Y-42850238D01*
%TO.N,/Left/SDA*%
X182000000Y-42500000D02*
X181850238Y-42350238D01*
X181850238Y-42350238D02*
X175176724Y-42350238D01*
%TO.N,/Left/VDD*%
D30*
X183000000Y-41500000D02*
X182850238Y-41350238D01*
X182850238Y-41350238D02*
X175176724Y-41350238D01*
X87100000Y-43525000D02*
X84125000Y-43525000D01*
X84125000Y-43525000D02*
X80500000Y-39900000D01*
X80500000Y-39900000D02*
X80500000Y-39000000D01*
%TO.N,/Left/VCC*%
X88725000Y-44175000D02*
X89375000Y-43525000D01*
X83975000Y-44175000D02*
X88725000Y-44175000D01*
X89375000Y-41625000D02*
X88712501Y-41625000D01*
X88712501Y-43525000D02*
X89375000Y-43525000D01*
X89375000Y-39075000D02*
X89300000Y-39000000D01*
X75500000Y-35700000D02*
X83975000Y-44175000D01*
X88262500Y-43074999D02*
X88712501Y-43525000D01*
X75500000Y-33650000D02*
X75500000Y-35700000D01*
X88712501Y-41625000D02*
X88262500Y-42075001D01*
X89375000Y-41625000D02*
X89375000Y-39075000D01*
X88262500Y-42075001D02*
X88262500Y-43074999D01*
%TO.N,/Left/BATT_MON*%
D31*
X79250000Y-29800000D02*
X76250000Y-29800000D01*
X76250000Y-29800000D02*
X75500000Y-30550000D01*
X75500000Y-28650000D02*
X75500000Y-30550000D01*
%TO.N,/Right/VUSB*%
D30*
X240412500Y-85437500D02*
X240412500Y-86987500D01*
X240412500Y-86987500D02*
X241862500Y-88437500D01*
X239500000Y-80450000D02*
X240862500Y-80450000D01*
X240862500Y-80450000D02*
X241812500Y-79500000D01*
X240412500Y-81362500D02*
X240412500Y-85437500D01*
X241862500Y-88437500D02*
X244350000Y-88437500D01*
X239500000Y-80450000D02*
X240412500Y-81362500D01*
X244350000Y-88437500D02*
X244362500Y-88450000D01*
%TO.N,/Right/VCC*%
X242312500Y-85437500D02*
X242312500Y-81100000D01*
X224732000Y-56000160D02*
X220500160Y-56000160D01*
X224732000Y-44350238D02*
X220649762Y-44350238D01*
X242312500Y-81100000D02*
X243912500Y-79500000D01*
X220500160Y-56000160D02*
X220500000Y-56000000D01*
X224732000Y-67150080D02*
X220650080Y-67150080D01*
X220650080Y-67150080D02*
X220500000Y-67000000D01*
X220649762Y-44350238D02*
X220500000Y-44500000D01*
%TO.N,/Right/VBAT*%
X237225000Y-86300000D02*
X237225000Y-80450000D01*
X239362500Y-88437500D02*
X237225000Y-86300000D01*
%TO.N,Net-(JP_CHG_1-A)*%
D31*
X238562500Y-74800000D02*
X241862500Y-74800000D01*
X239500000Y-78550000D02*
X238337500Y-77387500D01*
X238537500Y-74825000D02*
X238562500Y-74800000D01*
X238337500Y-77387500D02*
X238337500Y-74825000D01*
X238337500Y-74825000D02*
X238537500Y-74825000D01*
%TO.N,Net-(JP_CHG_1-B)*%
X240112500Y-73500000D02*
X238337500Y-71725000D01*
X241862500Y-73500000D02*
X240112500Y-73500000D01*
X238337500Y-71725000D02*
X238337500Y-69825000D01*
%TO.N,/Right/SCLK*%
X224732000Y-70150080D02*
X217650080Y-70150080D01*
X217500160Y-53000160D02*
X224732000Y-53000160D01*
X224732000Y-41350238D02*
X217649762Y-41350238D01*
X217500000Y-53000000D02*
X217500160Y-53000160D01*
X217650080Y-70150080D02*
X217500000Y-70000000D01*
X224732000Y-76300000D02*
X217700000Y-76300000D01*
X217700000Y-76300000D02*
X217500000Y-76500000D01*
X217649762Y-41350238D02*
X217500000Y-41500000D01*
%TO.N,/Right/MISO*%
X218649762Y-41850238D02*
X218500000Y-42000000D01*
X218600000Y-53500160D02*
X218500000Y-53600160D01*
X224732000Y-41850238D02*
X218649762Y-41850238D01*
X224732000Y-76800000D02*
X218700000Y-76800000D01*
X218650080Y-69650080D02*
X218500000Y-69500000D01*
X218700000Y-76800000D02*
X218500000Y-77000000D01*
X224732000Y-69650080D02*
X218650080Y-69650080D01*
X224732000Y-53500160D02*
X218600000Y-53500160D01*
%TO.N,/Right/D+*%
X228700000Y-77800000D02*
X224732000Y-77800000D01*
X230000000Y-74046276D02*
X230000000Y-76500000D01*
X228650080Y-68650080D02*
X230000000Y-70000000D01*
X229411241Y-73206276D02*
X230207375Y-73206276D01*
X230000000Y-76500000D02*
X228700000Y-77800000D01*
X229411254Y-72006276D02*
X230202196Y-72006276D01*
X230404392Y-71570668D02*
X230404392Y-71804080D01*
X229411241Y-73806276D02*
X229760000Y-73806276D01*
X224732000Y-68650080D02*
X228650080Y-68650080D01*
X230414749Y-72813650D02*
X230414749Y-72998902D01*
X229171254Y-72246276D02*
X229171254Y-72366276D01*
X229411254Y-72606276D02*
X230207375Y-72606276D01*
X230000000Y-70000000D02*
X230000000Y-71166276D01*
X229171241Y-73446276D02*
X229171241Y-73566276D01*
X229171241Y-73566276D02*
G75*
G03*
X229411241Y-73806259I239959J-24D01*
G01*
X229760000Y-73806276D02*
G75*
G02*
X230000024Y-74046276I0J-240024D01*
G01*
X230000000Y-71166276D02*
G75*
G03*
X230202196Y-71368500I202200J-24D01*
G01*
X230202196Y-71368472D02*
G75*
G02*
X230404428Y-71570668I4J-202228D01*
G01*
X230414749Y-72998902D02*
G75*
G02*
X230207375Y-73206249I-207349J2D01*
G01*
X230404392Y-71804080D02*
G75*
G02*
X230202196Y-72006292I-202192J-20D01*
G01*
X229411241Y-73206276D02*
G75*
G03*
X229171176Y-73446276I-41J-240024D01*
G01*
X229411254Y-72006276D02*
G75*
G03*
X229171276Y-72246276I46J-240024D01*
G01*
X229171254Y-72366276D02*
G75*
G03*
X229411254Y-72606346I240046J-24D01*
G01*
X230207375Y-72606276D02*
G75*
G02*
X230414724Y-72813650I25J-207324D01*
G01*
%TO.N,/Right/MOSI*%
X224732000Y-55000160D02*
X219500160Y-55000160D01*
X224732000Y-43350238D02*
X219649762Y-43350238D01*
X219500160Y-55000160D02*
X219500000Y-55000000D01*
X224732000Y-78300000D02*
X219700000Y-78300000D01*
X219650080Y-68150080D02*
X219500000Y-68000000D01*
X219700000Y-78300000D02*
X219500000Y-78500000D01*
X219649762Y-43350238D02*
X219500000Y-43500000D01*
X224732000Y-68150080D02*
X219650080Y-68150080D01*
%TO.N,/Right/D-*%
X231000000Y-69000000D02*
X231000000Y-77500000D01*
X231000000Y-77500000D02*
X229700000Y-78800000D01*
X224732000Y-67650080D02*
X229650080Y-67650080D01*
X229700000Y-78800000D02*
X224732000Y-78800000D01*
X229650080Y-67650080D02*
X231000000Y-69000000D01*
%TO.N,/Right/CS_DIS2*%
X228756000Y-45509238D02*
X225597000Y-42350238D01*
X225597000Y-42350238D02*
X224732000Y-42350238D01*
X224732000Y-66650080D02*
X226156000Y-66650080D01*
X228756000Y-64050080D02*
X228756000Y-45509238D01*
X226156000Y-66650080D02*
X228756000Y-64050080D01*
%TO.N,/Right/SCL*%
X221649762Y-45350238D02*
X221500000Y-45500000D01*
X221650080Y-66150080D02*
X221500000Y-66000000D01*
X221700000Y-80300000D02*
X221500000Y-80500000D01*
X224732000Y-80300000D02*
X221700000Y-80300000D01*
X224732000Y-45350238D02*
X221649762Y-45350238D01*
X221500160Y-57000160D02*
X221500000Y-57000000D01*
X224732000Y-57000160D02*
X221500160Y-57000160D01*
X224732000Y-66150080D02*
X221650080Y-66150080D01*
%TO.N,/Right/SDA*%
X222699840Y-65500000D02*
X222849920Y-65650080D01*
X224732000Y-57500160D02*
X222600000Y-57500160D01*
X222800000Y-80800000D02*
X224732000Y-80800000D01*
X224732000Y-45850238D02*
X222649762Y-45850238D01*
X222600000Y-57500160D02*
X222500000Y-57600160D01*
X222849920Y-65650080D02*
X224732000Y-65650080D01*
X222649762Y-45850238D02*
X222500000Y-46000000D01*
X222500000Y-81000000D02*
X222600000Y-81000000D01*
X222500000Y-65500000D02*
X222699840Y-65500000D01*
X222600000Y-81000000D02*
X222800000Y-80800000D01*
%TO.N,/Right/GND*%
D30*
X227456000Y-58956000D02*
X227456000Y-60300160D01*
X226849920Y-65150080D02*
X227456000Y-64544000D01*
X227456000Y-64544000D02*
X227456000Y-62850080D01*
X224732000Y-81300000D02*
X226800000Y-81300000D01*
X227456000Y-46953119D02*
X227456000Y-48650238D01*
X224732000Y-58000160D02*
X226500160Y-58000160D01*
X224732000Y-65150080D02*
X226849920Y-65150080D01*
X226853119Y-46350238D02*
X227456000Y-46953119D01*
X227456000Y-81956000D02*
X227456000Y-83600000D01*
X226500160Y-58000160D02*
X227456000Y-58956000D01*
X224732000Y-46350238D02*
X226853119Y-46350238D01*
X226800000Y-81300000D02*
X227456000Y-81956000D01*
%TO.N,/Right/VDD*%
X223650080Y-64650080D02*
X223500000Y-64500000D01*
X224732000Y-46850238D02*
X223649762Y-46850238D01*
X224732000Y-64650080D02*
X223650080Y-64650080D01*
X223649762Y-46850238D02*
X223500000Y-47000000D01*
X223600000Y-82000000D02*
X223800000Y-81800000D01*
X223500000Y-82000000D02*
X223600000Y-82000000D01*
X224732000Y-58500160D02*
X223500160Y-58500160D01*
X223800000Y-81800000D02*
X224732000Y-81800000D01*
X223500160Y-58500160D02*
X223500000Y-58500000D01*
%TO.N,/Left/SDA*%
D31*
X181650080Y-65650080D02*
X182000000Y-66000000D01*
X175208239Y-65650080D02*
X181650080Y-65650080D01*
%TO.N,/Left/VDD*%
D30*
X182650080Y-64650080D02*
X183000000Y-65000000D01*
X175208239Y-64650080D02*
X182650080Y-64650080D01*
%TD*%
%TA.AperFunction,Conductor*%
%TO.N,/Left/GND*%
G36*
X73918441Y-24019685D02*
G01*
X73964196Y-24072489D01*
X73974140Y-24141647D01*
X73945115Y-24205203D01*
X73939083Y-24211681D01*
X73844481Y-24306282D01*
X73844479Y-24306285D01*
X73826348Y-24337689D01*
X73794888Y-24392182D01*
X73794361Y-24393094D01*
X73794359Y-24393096D01*
X73765425Y-24443209D01*
X73765424Y-24443210D01*
X73759414Y-24465641D01*
X73724499Y-24595943D01*
X73724499Y-24595945D01*
X73724499Y-24764046D01*
X73724500Y-24764059D01*
X73724500Y-35074726D01*
X73724499Y-35074744D01*
X73724499Y-35240450D01*
X73724498Y-35240450D01*
X73761675Y-35379192D01*
X73765423Y-35393181D01*
X73772564Y-35405550D01*
X73794358Y-35443296D01*
X73794359Y-35443300D01*
X73794360Y-35443300D01*
X73844479Y-35530110D01*
X73844481Y-35530113D01*
X73963349Y-35648981D01*
X73963355Y-35648986D01*
X117978743Y-79664374D01*
X117978753Y-79664385D01*
X117983083Y-79668715D01*
X117983084Y-79668716D01*
X118094888Y-79780520D01*
X118094890Y-79780521D01*
X118094894Y-79780524D01*
X118148904Y-79811706D01*
X118231820Y-79859577D01*
X118322207Y-79883796D01*
X118384546Y-79900500D01*
X118384547Y-79900500D01*
X173977724Y-79900500D01*
X173979926Y-79901146D01*
X173982152Y-79900579D01*
X174013293Y-79910944D01*
X174044763Y-79920185D01*
X174046265Y-79921919D01*
X174048446Y-79922645D01*
X174069047Y-79948210D01*
X174090518Y-79972989D01*
X174091294Y-79975818D01*
X174092286Y-79977049D01*
X174101014Y-80011247D01*
X174103754Y-80036737D01*
X174103754Y-80063241D01*
X174098498Y-80112127D01*
X174098498Y-80112132D01*
X174098498Y-80112133D01*
X174098498Y-80487869D01*
X174098499Y-80487872D01*
X174103752Y-80536741D01*
X174103753Y-80536745D01*
X174103753Y-80563249D01*
X174098498Y-80612126D01*
X174098498Y-80612131D01*
X174098498Y-80612132D01*
X174098498Y-80987868D01*
X174098499Y-80987873D01*
X174103753Y-81036745D01*
X174103753Y-81063250D01*
X174098498Y-81112127D01*
X174098498Y-81112132D01*
X174098498Y-81112133D01*
X174098498Y-81487869D01*
X174098499Y-81487879D01*
X174103752Y-81536744D01*
X174103752Y-81563249D01*
X174098497Y-81612130D01*
X174098497Y-81987869D01*
X174098498Y-81987876D01*
X174104905Y-82047483D01*
X174155199Y-82182328D01*
X174155203Y-82182335D01*
X174241449Y-82297544D01*
X174241452Y-82297547D01*
X174356661Y-82383793D01*
X174356668Y-82383797D01*
X174491514Y-82434091D01*
X174491513Y-82434091D01*
X174498441Y-82434835D01*
X174551124Y-82440500D01*
X175896869Y-82440499D01*
X175956480Y-82434091D01*
X176025581Y-82408318D01*
X176031210Y-82407302D01*
X176033979Y-82405523D01*
X176068914Y-82400500D01*
X176238573Y-82400500D01*
X176305612Y-82420185D01*
X176341675Y-82455610D01*
X176378207Y-82510284D01*
X176378213Y-82510292D01*
X176489707Y-82621786D01*
X176489711Y-82621789D01*
X176620814Y-82709390D01*
X176620827Y-82709397D01*
X176674938Y-82731810D01*
X176766503Y-82769737D01*
X176921153Y-82800499D01*
X176921156Y-82800500D01*
X176921158Y-82800500D01*
X177078844Y-82800500D01*
X177078845Y-82800499D01*
X177233497Y-82769737D01*
X177379179Y-82709394D01*
X177510289Y-82621789D01*
X177621789Y-82510289D01*
X177709394Y-82379179D01*
X177716677Y-82361593D01*
X177760514Y-82307190D01*
X177826807Y-82285122D01*
X177855431Y-82287426D01*
X177921155Y-82300500D01*
X177921158Y-82300500D01*
X178078844Y-82300500D01*
X178078845Y-82300499D01*
X178233497Y-82269737D01*
X178379179Y-82209394D01*
X178510289Y-82121789D01*
X178621789Y-82010289D01*
X178709394Y-81879179D01*
X178769737Y-81733497D01*
X178800500Y-81578842D01*
X178800500Y-81421158D01*
X178800500Y-81421155D01*
X178800499Y-81421153D01*
X178794060Y-81388784D01*
X178769737Y-81266503D01*
X178744879Y-81206490D01*
X178709397Y-81120827D01*
X178709390Y-81120814D01*
X178621789Y-80989711D01*
X178621786Y-80989707D01*
X178584746Y-80952667D01*
X178551261Y-80891344D01*
X178556245Y-80821652D01*
X178598117Y-80765719D01*
X178663581Y-80741302D01*
X178719878Y-80750424D01*
X178766503Y-80769737D01*
X178871418Y-80790606D01*
X178921153Y-80800499D01*
X178921156Y-80800500D01*
X178921158Y-80800500D01*
X179078844Y-80800500D01*
X179078845Y-80800499D01*
X179233497Y-80769737D01*
X179379179Y-80709394D01*
X179510289Y-80621789D01*
X179621789Y-80510289D01*
X179709394Y-80379179D01*
X179769737Y-80233497D01*
X179800500Y-80078842D01*
X179800500Y-79924500D01*
X179820185Y-79857461D01*
X179872989Y-79811706D01*
X179924500Y-79800500D01*
X180078844Y-79800500D01*
X180078845Y-79800499D01*
X180233497Y-79769737D01*
X180379179Y-79709394D01*
X180510289Y-79621789D01*
X180621789Y-79510289D01*
X180709394Y-79379179D01*
X180769737Y-79233497D01*
X180800500Y-79078842D01*
X180800500Y-78924500D01*
X180820185Y-78857461D01*
X180872989Y-78811706D01*
X180924500Y-78800500D01*
X181078844Y-78800500D01*
X181078845Y-78800499D01*
X181233497Y-78769737D01*
X181379179Y-78709394D01*
X181510289Y-78621789D01*
X181621789Y-78510289D01*
X181709394Y-78379179D01*
X181716677Y-78361593D01*
X181760514Y-78307190D01*
X181826807Y-78285122D01*
X181855431Y-78287426D01*
X181921155Y-78300500D01*
X181921158Y-78300500D01*
X182078844Y-78300500D01*
X182201308Y-78276140D01*
X182270900Y-78282367D01*
X182326077Y-78325230D01*
X182349322Y-78391120D01*
X182349500Y-78397757D01*
X182349500Y-87064069D01*
X182349500Y-87064071D01*
X182349499Y-87064071D01*
X182374497Y-87189738D01*
X182374499Y-87189744D01*
X182423535Y-87308127D01*
X182473880Y-87383475D01*
X182494726Y-87414673D01*
X183619302Y-88539249D01*
X183670467Y-88573436D01*
X183725841Y-88610436D01*
X183725847Y-88610439D01*
X183725848Y-88610440D01*
X183844231Y-88659476D01*
X183844235Y-88659476D01*
X183844236Y-88659477D01*
X183969903Y-88684475D01*
X183969906Y-88684475D01*
X188642977Y-88684475D01*
X188710016Y-88704160D01*
X188714083Y-88706888D01*
X188876865Y-88820869D01*
X188908736Y-88839642D01*
X188908737Y-88839642D01*
X188908738Y-88839643D01*
X189064316Y-88892606D01*
X189064318Y-88892607D01*
X189064320Y-88892607D01*
X189064323Y-88892608D01*
X189228193Y-88905217D01*
X189390050Y-88876677D01*
X189539725Y-88808782D01*
X189667813Y-88705796D01*
X189691341Y-88677255D01*
X190382946Y-87689540D01*
X191969341Y-87689540D01*
X191969342Y-87689541D01*
X192010269Y-87718199D01*
X192010287Y-87718210D01*
X192100438Y-87768527D01*
X192268398Y-87818810D01*
X192268405Y-87818812D01*
X192443429Y-87829006D01*
X192443430Y-87829006D01*
X192616088Y-87798562D01*
X192777074Y-87729119D01*
X192917712Y-87624420D01*
X192985213Y-87546311D01*
X192985214Y-87546310D01*
X193501427Y-86809080D01*
X193501427Y-86809079D01*
X192887063Y-86378897D01*
X192887062Y-86378897D01*
X191969341Y-87689540D01*
X190382946Y-87689540D01*
X190569709Y-87422815D01*
X190588483Y-87390944D01*
X190641448Y-87235358D01*
X190647409Y-87157901D01*
X190654058Y-87071490D01*
X190654058Y-87071487D01*
X190650337Y-87050388D01*
X190625518Y-86909630D01*
X190590437Y-86832295D01*
X191236119Y-86832295D01*
X191236119Y-86832296D01*
X191266563Y-87004954D01*
X191336006Y-87165941D01*
X191440702Y-87306575D01*
X191518833Y-87374093D01*
X191559764Y-87402754D01*
X191559764Y-87402753D01*
X192477487Y-86092110D01*
X192477487Y-86092109D01*
X192405706Y-86041848D01*
X192302128Y-85969322D01*
X193173851Y-85969322D01*
X193173851Y-85969323D01*
X193788214Y-86399503D01*
X194304425Y-85662279D01*
X194354742Y-85572128D01*
X194405024Y-85404169D01*
X194405026Y-85404162D01*
X194415220Y-85229138D01*
X194415220Y-85229137D01*
X194384776Y-85056479D01*
X194315333Y-84895492D01*
X194210637Y-84754858D01*
X194132518Y-84687350D01*
X194132514Y-84687347D01*
X194091573Y-84658679D01*
X193173851Y-85969322D01*
X192302128Y-85969322D01*
X191863124Y-85661928D01*
X191863123Y-85661928D01*
X191346917Y-86399149D01*
X191346916Y-86399150D01*
X191296597Y-86489305D01*
X191246315Y-86657264D01*
X191246313Y-86657271D01*
X191236119Y-86832295D01*
X190590437Y-86832295D01*
X190557622Y-86759955D01*
X190557621Y-86759954D01*
X190557621Y-86759953D01*
X190454640Y-86631869D01*
X190454639Y-86631868D01*
X190426101Y-86608344D01*
X190426095Y-86608339D01*
X190127847Y-86399503D01*
X190072725Y-86360906D01*
X190037704Y-86340278D01*
X189989931Y-86289292D01*
X189977307Y-86220573D01*
X189993250Y-86171437D01*
X190059577Y-86056555D01*
X190100501Y-85903828D01*
X190100501Y-85745713D01*
X190100501Y-85738118D01*
X190100500Y-85738100D01*
X190100500Y-85252353D01*
X192149911Y-85252353D01*
X192764275Y-85682535D01*
X192764276Y-85682535D01*
X193681997Y-84371892D01*
X193681996Y-84371891D01*
X193641060Y-84343227D01*
X193641055Y-84343224D01*
X193550900Y-84292905D01*
X193382941Y-84242623D01*
X193382934Y-84242621D01*
X193207910Y-84232427D01*
X193207909Y-84232427D01*
X193035251Y-84262871D01*
X192874265Y-84332314D01*
X192733627Y-84437013D01*
X192666129Y-84515119D01*
X192149912Y-85252353D01*
X192149911Y-85252353D01*
X190100500Y-85252353D01*
X190100500Y-46506731D01*
X190100500Y-46506729D01*
X190059577Y-46354002D01*
X190032622Y-46307314D01*
X189980524Y-46217076D01*
X189980521Y-46217072D01*
X189980520Y-46217070D01*
X189868716Y-46105266D01*
X189868715Y-46105265D01*
X189864385Y-46100935D01*
X189864374Y-46100925D01*
X181352043Y-37588593D01*
X181352041Y-37588590D01*
X181233170Y-37469719D01*
X181233169Y-37469718D01*
X181146357Y-37419598D01*
X181146357Y-37419597D01*
X181146353Y-37419596D01*
X181096238Y-37390661D01*
X180943510Y-37349737D01*
X180785396Y-37349737D01*
X180777800Y-37349737D01*
X180777784Y-37349738D01*
X135447394Y-37349738D01*
X135380355Y-37330053D01*
X135359713Y-37313419D01*
X132146303Y-34100009D01*
X122257972Y-24211680D01*
X122224488Y-24150358D01*
X122229472Y-24080666D01*
X122271344Y-24024733D01*
X122336808Y-24000316D01*
X122345654Y-24000000D01*
X140190969Y-24000000D01*
X140247273Y-24013520D01*
X140838771Y-24314964D01*
X142708406Y-25225497D01*
X143799092Y-25732423D01*
X144594245Y-26101992D01*
X146495660Y-26944156D01*
X148412029Y-27751716D01*
X150342721Y-28524404D01*
X151795531Y-29075500D01*
X152287112Y-29261972D01*
X154244514Y-29964157D01*
X154244534Y-29964164D01*
X156214373Y-30630762D01*
X158195972Y-31261544D01*
X160188680Y-31856301D01*
X162191842Y-32414838D01*
X164204798Y-32936972D01*
X166226889Y-33422531D01*
X168257450Y-33871356D01*
X170295813Y-34283299D01*
X172027495Y-34600704D01*
X172341323Y-34658227D01*
X174393261Y-34996009D01*
X175555536Y-35165759D01*
X176451005Y-35296543D01*
X178513856Y-35559726D01*
X180581139Y-35785472D01*
X182652174Y-35973708D01*
X184726281Y-36124371D01*
X186802778Y-36237411D01*
X188880984Y-36312792D01*
X190960214Y-36350489D01*
X191924112Y-36350498D01*
X191924120Y-36350500D01*
X191934108Y-36350500D01*
X192000000Y-36350500D01*
X192065892Y-36350500D01*
X195375500Y-36350500D01*
X195442539Y-36370185D01*
X195488294Y-36422989D01*
X195499500Y-36474500D01*
X195499500Y-43934108D01*
X195499500Y-44065892D01*
X195508703Y-44100238D01*
X195533608Y-44193187D01*
X195556884Y-44233501D01*
X195599500Y-44307314D01*
X195692686Y-44400500D01*
X195806814Y-44466392D01*
X195934108Y-44500500D01*
X198216240Y-44500500D01*
X198220486Y-44501746D01*
X198224810Y-44500796D01*
X198253719Y-44511505D01*
X198283279Y-44520185D01*
X198287344Y-44523961D01*
X198290329Y-44525067D01*
X198298865Y-44534663D01*
X198315341Y-44549968D01*
X198319861Y-44555979D01*
X198349500Y-44607314D01*
X198385679Y-44643493D01*
X198390925Y-44650468D01*
X198400262Y-44675333D01*
X198412990Y-44698642D01*
X198412354Y-44707532D01*
X198415488Y-44715878D01*
X198409900Y-44741843D01*
X198408006Y-44768334D01*
X198402283Y-44777237D01*
X198400789Y-44784184D01*
X198392411Y-44792599D01*
X198379505Y-44812681D01*
X198349502Y-44842683D01*
X198349500Y-44842686D01*
X198283608Y-44956812D01*
X198262074Y-45037181D01*
X198249500Y-45084108D01*
X198249500Y-45215892D01*
X198254215Y-45233489D01*
X198283608Y-45343187D01*
X198304392Y-45379185D01*
X198349500Y-45457314D01*
X198349502Y-45457316D01*
X198379505Y-45487319D01*
X198412990Y-45548642D01*
X198408006Y-45618334D01*
X198379505Y-45662681D01*
X198349502Y-45692683D01*
X198349500Y-45692686D01*
X198283608Y-45806812D01*
X198249500Y-45934108D01*
X198249500Y-46065891D01*
X198283608Y-46193187D01*
X198297401Y-46217076D01*
X198349500Y-46307314D01*
X198349502Y-46307316D01*
X198379505Y-46337319D01*
X198412990Y-46398642D01*
X198408006Y-46468334D01*
X198379505Y-46512681D01*
X198349502Y-46542683D01*
X198349500Y-46542686D01*
X198283608Y-46656812D01*
X198249500Y-46784108D01*
X198249500Y-46915891D01*
X198283608Y-47043187D01*
X198288447Y-47051568D01*
X198349500Y-47157314D01*
X198349502Y-47157316D01*
X198379505Y-47187319D01*
X198412990Y-47248642D01*
X198408006Y-47318334D01*
X198379505Y-47362681D01*
X198349502Y-47392683D01*
X198349500Y-47392686D01*
X198283608Y-47506812D01*
X198280739Y-47517520D01*
X198249500Y-47634108D01*
X198249500Y-47765892D01*
X198250531Y-47769738D01*
X198283608Y-47893187D01*
X198316554Y-47950250D01*
X198349500Y-48007314D01*
X198442686Y-48100500D01*
X198442688Y-48100501D01*
X198449137Y-48105450D01*
X198447324Y-48107812D01*
X198485710Y-48148062D01*
X198499500Y-48204893D01*
X198499500Y-69795107D01*
X198479815Y-69862146D01*
X198447739Y-69892732D01*
X198449135Y-69894552D01*
X198442683Y-69899502D01*
X198349502Y-69992683D01*
X198349500Y-69992686D01*
X198283608Y-70106812D01*
X198280586Y-70118092D01*
X198249500Y-70234108D01*
X198249500Y-70365892D01*
X198253060Y-70379179D01*
X198283608Y-70493187D01*
X198306257Y-70532415D01*
X198349500Y-70607314D01*
X198349502Y-70607316D01*
X198379505Y-70637319D01*
X198412990Y-70698642D01*
X198408006Y-70768334D01*
X198379505Y-70812681D01*
X198349502Y-70842683D01*
X198349500Y-70842686D01*
X198283608Y-70956812D01*
X198249500Y-71084108D01*
X198249500Y-71215891D01*
X198283608Y-71343187D01*
X198310964Y-71390568D01*
X198349500Y-71457314D01*
X198349502Y-71457316D01*
X198379505Y-71487319D01*
X198412990Y-71548642D01*
X198408006Y-71618334D01*
X198379505Y-71662681D01*
X198349502Y-71692683D01*
X198349500Y-71692686D01*
X198283608Y-71806812D01*
X198249500Y-71934108D01*
X198249500Y-72065891D01*
X198283608Y-72193187D01*
X198287588Y-72200080D01*
X198349500Y-72307314D01*
X198349502Y-72307316D01*
X198379505Y-72337319D01*
X198412990Y-72398642D01*
X198408006Y-72468334D01*
X198379505Y-72512681D01*
X198349502Y-72542683D01*
X198349500Y-72542686D01*
X198283608Y-72656812D01*
X198249500Y-72784108D01*
X198249500Y-72915891D01*
X198283608Y-73043187D01*
X198311887Y-73092166D01*
X198349500Y-73157314D01*
X198349502Y-73157316D01*
X198379505Y-73187319D01*
X198412990Y-73248642D01*
X198408006Y-73318334D01*
X198379505Y-73362681D01*
X198349502Y-73392683D01*
X198349500Y-73392686D01*
X198283608Y-73506812D01*
X198249500Y-73634108D01*
X198249500Y-73765891D01*
X198283608Y-73893187D01*
X198316554Y-73950250D01*
X198349500Y-74007314D01*
X198442686Y-74100500D01*
X198442688Y-74100501D01*
X198449137Y-74105450D01*
X198447324Y-74107812D01*
X198485710Y-74148062D01*
X198499500Y-74204893D01*
X198499500Y-95795107D01*
X198479815Y-95862146D01*
X198447739Y-95892732D01*
X198449135Y-95894552D01*
X198442683Y-95899502D01*
X198349502Y-95992683D01*
X198349500Y-95992686D01*
X198283608Y-96106812D01*
X198249500Y-96234108D01*
X198249500Y-96365891D01*
X198283608Y-96493187D01*
X198287253Y-96499500D01*
X198349500Y-96607314D01*
X198349502Y-96607316D01*
X198379505Y-96637319D01*
X198412990Y-96698642D01*
X198408006Y-96768334D01*
X198379505Y-96812681D01*
X198349502Y-96842683D01*
X198349500Y-96842686D01*
X198283608Y-96956812D01*
X198249500Y-97084108D01*
X198249500Y-97215892D01*
X198266554Y-97279539D01*
X198283608Y-97343187D01*
X198310964Y-97390568D01*
X198349500Y-97457314D01*
X198349502Y-97457316D01*
X198379505Y-97487319D01*
X198412990Y-97548642D01*
X198408006Y-97618334D01*
X198379505Y-97662681D01*
X198349502Y-97692683D01*
X198349500Y-97692686D01*
X198283608Y-97806812D01*
X198249500Y-97934108D01*
X198249500Y-98065891D01*
X198283608Y-98193187D01*
X198316554Y-98250250D01*
X198349500Y-98307314D01*
X198349502Y-98307316D01*
X198379505Y-98337319D01*
X198412990Y-98398642D01*
X198408006Y-98468334D01*
X198379505Y-98512681D01*
X198349502Y-98542683D01*
X198349500Y-98542686D01*
X198283608Y-98656812D01*
X198249500Y-98784108D01*
X198249500Y-98915891D01*
X198283608Y-99043187D01*
X198316554Y-99100250D01*
X198349500Y-99157314D01*
X198349502Y-99157316D01*
X198379505Y-99187319D01*
X198412990Y-99248642D01*
X198408006Y-99318334D01*
X198379505Y-99362681D01*
X198349502Y-99392683D01*
X198349500Y-99392686D01*
X198283608Y-99506812D01*
X198249500Y-99634108D01*
X198249500Y-99765891D01*
X198283608Y-99893187D01*
X198316554Y-99950250D01*
X198349500Y-100007314D01*
X198442686Y-100100500D01*
X198442688Y-100100501D01*
X198449137Y-100105450D01*
X198447324Y-100107812D01*
X198485710Y-100148062D01*
X198499500Y-100204893D01*
X198499500Y-121795107D01*
X198479815Y-121862146D01*
X198447739Y-121892732D01*
X198449135Y-121894552D01*
X198442683Y-121899502D01*
X198349502Y-121992683D01*
X198349500Y-121992686D01*
X198283608Y-122106812D01*
X198249500Y-122234108D01*
X198249500Y-122365891D01*
X198283608Y-122493187D01*
X198287253Y-122499500D01*
X198349500Y-122607314D01*
X198349502Y-122607316D01*
X198379505Y-122637319D01*
X198412990Y-122698642D01*
X198408006Y-122768334D01*
X198379505Y-122812681D01*
X198349502Y-122842683D01*
X198349500Y-122842686D01*
X198283608Y-122956812D01*
X198249500Y-123084108D01*
X198249500Y-123215891D01*
X198283608Y-123343187D01*
X198310964Y-123390568D01*
X198349500Y-123457314D01*
X198349502Y-123457316D01*
X198379505Y-123487319D01*
X198412990Y-123548642D01*
X198408006Y-123618334D01*
X198379505Y-123662681D01*
X198349502Y-123692683D01*
X198349500Y-123692686D01*
X198283608Y-123806812D01*
X198249500Y-123934108D01*
X198249500Y-124065891D01*
X198283608Y-124193187D01*
X198316554Y-124250250D01*
X198349500Y-124307314D01*
X198349502Y-124307316D01*
X198379505Y-124337319D01*
X198412990Y-124398642D01*
X198408006Y-124468334D01*
X198379505Y-124512681D01*
X198349502Y-124542683D01*
X198349500Y-124542686D01*
X198283608Y-124656812D01*
X198249500Y-124784108D01*
X198249500Y-124915891D01*
X198283608Y-125043187D01*
X198316554Y-125100250D01*
X198349500Y-125157314D01*
X198349502Y-125157316D01*
X198379505Y-125187319D01*
X198412990Y-125248642D01*
X198408006Y-125318334D01*
X198379505Y-125362681D01*
X198349502Y-125392683D01*
X198349500Y-125392686D01*
X198283608Y-125506812D01*
X198249500Y-125634108D01*
X198249500Y-125717130D01*
X198229815Y-125784169D01*
X198177011Y-125829924D01*
X198125500Y-125841130D01*
X195934108Y-125841130D01*
X195806812Y-125875238D01*
X195692686Y-125941130D01*
X195692683Y-125941132D01*
X195599502Y-126034313D01*
X195599500Y-126034316D01*
X195533608Y-126148442D01*
X195499500Y-126275738D01*
X195499500Y-133867130D01*
X195479815Y-133934169D01*
X195427011Y-133979924D01*
X195375500Y-133991130D01*
X192065892Y-133991130D01*
X192000000Y-133991130D01*
X191671719Y-133991130D01*
X191016191Y-134027944D01*
X191016188Y-134027944D01*
X191016176Y-134027945D01*
X190363802Y-134101448D01*
X190363749Y-134101455D01*
X189716476Y-134211429D01*
X189076385Y-134357524D01*
X189076375Y-134357527D01*
X188445463Y-134539288D01*
X187825739Y-134756136D01*
X187219170Y-135007381D01*
X186627665Y-135292232D01*
X186627605Y-135292263D01*
X186052987Y-135609838D01*
X186052972Y-135609847D01*
X185497074Y-135959137D01*
X185497071Y-135959139D01*
X185497063Y-135959144D01*
X185497056Y-135959149D01*
X185366630Y-136051690D01*
X184961595Y-136339073D01*
X184448259Y-136748437D01*
X183958702Y-137185926D01*
X183958699Y-137185929D01*
X183755721Y-137388903D01*
X183755720Y-137388904D01*
X181086052Y-140058525D01*
X181086051Y-140058527D01*
X181042596Y-140101981D01*
X181036118Y-140108013D01*
X180884470Y-140239414D01*
X180870307Y-140250016D01*
X180705245Y-140356094D01*
X180689716Y-140364573D01*
X180511238Y-140446079D01*
X180494662Y-140452261D01*
X180306407Y-140507536D01*
X180289119Y-140511297D01*
X180094904Y-140539220D01*
X180077258Y-140540482D01*
X179881052Y-140540482D01*
X179863406Y-140539220D01*
X179669191Y-140511295D01*
X179651908Y-140507536D01*
X179530435Y-140471868D01*
X179463645Y-140452256D01*
X179447070Y-140446074D01*
X179268582Y-140364561D01*
X179253069Y-140356090D01*
X179088004Y-140250008D01*
X179073842Y-140239407D01*
X178922195Y-140108004D01*
X178915717Y-140101972D01*
X178872262Y-140058517D01*
X169821319Y-131007573D01*
X169198940Y-130385194D01*
X169198915Y-130385169D01*
X167835227Y-129073372D01*
X167835198Y-129073344D01*
X166446380Y-127788284D01*
X165383194Y-126842130D01*
X165032831Y-126530333D01*
X163595176Y-125300047D01*
X162133935Y-124097871D01*
X160649657Y-122924256D01*
X159142899Y-121779643D01*
X157614230Y-120664464D01*
X157440008Y-120542473D01*
X156064197Y-119579119D01*
X154983887Y-118853486D01*
X154493462Y-118524072D01*
X152902536Y-117499664D01*
X151292061Y-116506307D01*
X149662593Y-115544349D01*
X148014796Y-114614178D01*
X146349297Y-113716148D01*
X144666636Y-112850552D01*
X143671964Y-112363029D01*
X142967552Y-112017772D01*
X141252629Y-111218090D01*
X141252627Y-111218089D01*
X139522544Y-110451823D01*
X139522535Y-110451819D01*
X139522521Y-110451813D01*
X137777879Y-109719229D01*
X136019359Y-109020614D01*
X136019352Y-109020611D01*
X136019341Y-109020607D01*
X134247658Y-108356243D01*
X134247652Y-108356240D01*
X134247623Y-108356230D01*
X132463336Y-107726328D01*
X132463333Y-107726327D01*
X132463316Y-107726321D01*
X131086344Y-107270042D01*
X130667171Y-107131143D01*
X128859802Y-106570901D01*
X128684304Y-106520209D01*
X127041923Y-106045814D01*
X126415207Y-105877886D01*
X126191689Y-105817995D01*
X126191688Y-105817994D01*
X126128042Y-105800941D01*
X125332034Y-105587650D01*
X123894800Y-105202542D01*
X123894759Y-105202531D01*
X123894728Y-105202523D01*
X120960598Y-104437255D01*
X119420436Y-104035556D01*
X118073222Y-103693757D01*
X114938441Y-102898438D01*
X110448799Y-101791187D01*
X105952085Y-100713943D01*
X101448079Y-99666654D01*
X96937509Y-98649489D01*
X96937500Y-98649487D01*
X96937389Y-98649462D01*
X92419934Y-97662346D01*
X92419879Y-97662334D01*
X92419827Y-97662323D01*
X87896066Y-96705383D01*
X87896041Y-96705377D01*
X87895999Y-96705369D01*
X86236614Y-96365891D01*
X83365798Y-95778577D01*
X81097882Y-95330341D01*
X81097250Y-95330214D01*
X78272983Y-94756737D01*
X78271720Y-94756474D01*
X75453794Y-94153698D01*
X75452534Y-94153422D01*
X72640941Y-93521346D01*
X72639684Y-93521056D01*
X69834976Y-92859808D01*
X69833723Y-92859506D01*
X67035908Y-92169085D01*
X67034657Y-92168769D01*
X64244311Y-91449318D01*
X64243064Y-91448990D01*
X61460197Y-90700513D01*
X61458953Y-90700171D01*
X58688122Y-89923935D01*
X58679036Y-89921008D01*
X58489809Y-89851904D01*
X58473577Y-89844618D01*
X58299824Y-89751101D01*
X58284802Y-89741566D01*
X58126227Y-89624149D01*
X58112725Y-89612563D01*
X57972586Y-89473661D01*
X57960881Y-89460262D01*
X57842063Y-89302735D01*
X57832396Y-89287799D01*
X57737345Y-89114887D01*
X57729915Y-89098721D01*
X57660588Y-88913987D01*
X57655548Y-88896923D01*
X57654603Y-88892606D01*
X57613373Y-88704168D01*
X57610827Y-88686560D01*
X57596352Y-88485310D01*
X57596032Y-88476414D01*
X57596032Y-84547844D01*
X170999998Y-84547844D01*
X171006399Y-84607372D01*
X171006401Y-84607379D01*
X171056643Y-84742086D01*
X171056647Y-84742093D01*
X171142807Y-84857187D01*
X171142810Y-84857190D01*
X171257904Y-84943350D01*
X171257911Y-84943354D01*
X171392618Y-84993596D01*
X171392625Y-84993598D01*
X171452153Y-84999999D01*
X171452170Y-85000000D01*
X172249998Y-85000000D01*
X172749998Y-85000000D01*
X173547826Y-85000000D01*
X173547842Y-84999999D01*
X173607370Y-84993598D01*
X173607377Y-84993596D01*
X173742084Y-84943354D01*
X173742091Y-84943350D01*
X173857185Y-84857190D01*
X173857188Y-84857187D01*
X173943348Y-84742093D01*
X173943352Y-84742086D01*
X173993594Y-84607379D01*
X173993596Y-84607372D01*
X173999997Y-84547844D01*
X173999998Y-84547827D01*
X173999998Y-83850000D01*
X172749998Y-83850000D01*
X172749998Y-85000000D01*
X172249998Y-85000000D01*
X172249998Y-83850000D01*
X170999998Y-83850000D01*
X170999998Y-84547844D01*
X57596032Y-84547844D01*
X57596032Y-82652155D01*
X170999998Y-82652155D01*
X170999998Y-83350000D01*
X172249998Y-83350000D01*
X172749998Y-83350000D01*
X173999998Y-83350000D01*
X173999998Y-82652172D01*
X173999997Y-82652155D01*
X173993596Y-82592627D01*
X173993594Y-82592620D01*
X173943352Y-82457913D01*
X173943348Y-82457906D01*
X173857188Y-82342812D01*
X173857185Y-82342809D01*
X173742091Y-82256649D01*
X173742084Y-82256645D01*
X173607377Y-82206403D01*
X173607370Y-82206401D01*
X173547842Y-82200000D01*
X172749998Y-82200000D01*
X172749998Y-83350000D01*
X172249998Y-83350000D01*
X172249998Y-82200000D01*
X171452153Y-82200000D01*
X171392625Y-82206401D01*
X171392618Y-82206403D01*
X171257911Y-82256645D01*
X171257904Y-82256649D01*
X171142810Y-82342809D01*
X171142807Y-82342812D01*
X171056647Y-82457906D01*
X171056643Y-82457913D01*
X171006401Y-82592620D01*
X171006399Y-82592627D01*
X170999998Y-82652155D01*
X57596032Y-82652155D01*
X57596032Y-32708574D01*
X57596295Y-32700500D01*
X57598315Y-32669546D01*
X57608219Y-32517750D01*
X57610317Y-32501743D01*
X57620981Y-32447883D01*
X57645102Y-32326056D01*
X57649258Y-32310475D01*
X57706580Y-32140792D01*
X57712726Y-32125880D01*
X57791612Y-31965083D01*
X57799642Y-31951099D01*
X57898752Y-31801918D01*
X57908537Y-31789089D01*
X58026193Y-31654053D01*
X58037547Y-31642618D01*
X58174286Y-31521775D01*
X58181584Y-31515807D01*
X59558804Y-30474683D01*
X59560968Y-30473084D01*
X60964148Y-29461339D01*
X60966374Y-29459772D01*
X62391984Y-28480041D01*
X62394243Y-28478526D01*
X63841667Y-27531235D01*
X63843943Y-27529781D01*
X65312398Y-26615443D01*
X65314719Y-26614034D01*
X66803503Y-25733085D01*
X66805816Y-25731753D01*
X68314041Y-24884719D01*
X68316421Y-24883416D01*
X69843462Y-24070648D01*
X69845878Y-24069396D01*
X69957372Y-24013250D01*
X70013144Y-24000000D01*
X73851402Y-24000000D01*
X73918441Y-24019685D01*
G37*
%TD.AperFunction*%
%TA.AperFunction,Conductor*%
G36*
X120666942Y-26020185D02*
G01*
X120687584Y-26036819D01*
X152515298Y-57864533D01*
X152515308Y-57864544D01*
X152519638Y-57868874D01*
X152519639Y-57868875D01*
X152631443Y-57980679D01*
X152698926Y-58019640D01*
X152768374Y-58059736D01*
X152921101Y-58100659D01*
X152921102Y-58100659D01*
X173946204Y-58100659D01*
X173948406Y-58101305D01*
X173950631Y-58100738D01*
X173981776Y-58111104D01*
X174013243Y-58120344D01*
X174014745Y-58122077D01*
X174016925Y-58122803D01*
X174037524Y-58148366D01*
X174058998Y-58173148D01*
X174059774Y-58175977D01*
X174060765Y-58177207D01*
X174069494Y-58211405D01*
X174072235Y-58236902D01*
X174072235Y-58263409D01*
X174066980Y-58312290D01*
X174066980Y-58688029D01*
X174066981Y-58688036D01*
X174073388Y-58747643D01*
X174123682Y-58882488D01*
X174123686Y-58882495D01*
X174209932Y-58997704D01*
X174209935Y-58997707D01*
X174325144Y-59083953D01*
X174325151Y-59083957D01*
X174459997Y-59134251D01*
X174459996Y-59134251D01*
X174466924Y-59134995D01*
X174519607Y-59140660D01*
X175865352Y-59140659D01*
X175924963Y-59134251D01*
X175994064Y-59108478D01*
X175999693Y-59107462D01*
X176002462Y-59105683D01*
X176037397Y-59100660D01*
X176102076Y-59100660D01*
X176169115Y-59120345D01*
X176214870Y-59173149D01*
X176223693Y-59200469D01*
X176230261Y-59233489D01*
X176230263Y-59233498D01*
X176290602Y-59379172D01*
X176290609Y-59379185D01*
X176378210Y-59510288D01*
X176378213Y-59510292D01*
X176489707Y-59621786D01*
X176489711Y-59621789D01*
X176620814Y-59709390D01*
X176620827Y-59709397D01*
X176766498Y-59769735D01*
X176766503Y-59769737D01*
X176921153Y-59800499D01*
X176921156Y-59800500D01*
X176921158Y-59800500D01*
X177078844Y-59800500D01*
X177078845Y-59800499D01*
X177233497Y-59769737D01*
X177379179Y-59709394D01*
X177510289Y-59621789D01*
X177621789Y-59510289D01*
X177709394Y-59379179D01*
X177716677Y-59361593D01*
X177760514Y-59307190D01*
X177826807Y-59285122D01*
X177855431Y-59287426D01*
X177921155Y-59300500D01*
X177921158Y-59300500D01*
X178078844Y-59300500D01*
X178078845Y-59300499D01*
X178233497Y-59269737D01*
X178379179Y-59209394D01*
X178510289Y-59121789D01*
X178621789Y-59010289D01*
X178709394Y-58879179D01*
X178769737Y-58733497D01*
X178800500Y-58578842D01*
X178800500Y-58421158D01*
X178800500Y-58421155D01*
X178800499Y-58421153D01*
X178769737Y-58266503D01*
X178769735Y-58266498D01*
X178709397Y-58120827D01*
X178709390Y-58120814D01*
X178621789Y-57989711D01*
X178621786Y-57989707D01*
X178584746Y-57952667D01*
X178551261Y-57891344D01*
X178556245Y-57821652D01*
X178598117Y-57765719D01*
X178663581Y-57741302D01*
X178719878Y-57750424D01*
X178766503Y-57769737D01*
X178871418Y-57790606D01*
X178921153Y-57800499D01*
X178921156Y-57800500D01*
X178921158Y-57800500D01*
X179078844Y-57800500D01*
X179078845Y-57800499D01*
X179233497Y-57769737D01*
X179379179Y-57709394D01*
X179510289Y-57621789D01*
X179621789Y-57510289D01*
X179709394Y-57379179D01*
X179769737Y-57233497D01*
X179800500Y-57078842D01*
X179800500Y-56924500D01*
X179820185Y-56857461D01*
X179872989Y-56811706D01*
X179924500Y-56800500D01*
X180078844Y-56800500D01*
X180078845Y-56800499D01*
X180233497Y-56769737D01*
X180379179Y-56709394D01*
X180510289Y-56621789D01*
X180621789Y-56510289D01*
X180709394Y-56379179D01*
X180769737Y-56233497D01*
X180800500Y-56078842D01*
X180800500Y-55924500D01*
X180820185Y-55857461D01*
X180872989Y-55811706D01*
X180924500Y-55800500D01*
X181078844Y-55800500D01*
X181078845Y-55800499D01*
X181233497Y-55769737D01*
X181379179Y-55709394D01*
X181510289Y-55621789D01*
X181621789Y-55510289D01*
X181709394Y-55379179D01*
X181716677Y-55361593D01*
X181760514Y-55307190D01*
X181826807Y-55285122D01*
X181855431Y-55287426D01*
X181921155Y-55300500D01*
X181921158Y-55300500D01*
X182078844Y-55300500D01*
X182078845Y-55300499D01*
X182233497Y-55269737D01*
X182379179Y-55209394D01*
X182510289Y-55121789D01*
X182621789Y-55010289D01*
X182709394Y-54879179D01*
X182769737Y-54733497D01*
X182800500Y-54578842D01*
X182800500Y-54424500D01*
X182820185Y-54357461D01*
X182872989Y-54311706D01*
X182924500Y-54300500D01*
X183078844Y-54300500D01*
X183078845Y-54300499D01*
X183233497Y-54269737D01*
X183379179Y-54209394D01*
X183510289Y-54121789D01*
X183621789Y-54010289D01*
X183709394Y-53879179D01*
X183769737Y-53733497D01*
X183800500Y-53578842D01*
X183800500Y-53421158D01*
X183800500Y-53421155D01*
X183800499Y-53421153D01*
X183769738Y-53266510D01*
X183769737Y-53266503D01*
X183737235Y-53188036D01*
X183709397Y-53120827D01*
X183709390Y-53120814D01*
X183621789Y-52989711D01*
X183621786Y-52989707D01*
X183510292Y-52878213D01*
X183510288Y-52878210D01*
X183379185Y-52790609D01*
X183379172Y-52790602D01*
X183233501Y-52730264D01*
X183233489Y-52730261D01*
X183166420Y-52716920D01*
X183104509Y-52684535D01*
X183102930Y-52682984D01*
X182914834Y-52494887D01*
X182914833Y-52494886D01*
X182858656Y-52457350D01*
X182808287Y-52423695D01*
X182790593Y-52416366D01*
X182689904Y-52374659D01*
X182689898Y-52374657D01*
X182564231Y-52349660D01*
X182564229Y-52349660D01*
X175128412Y-52349660D01*
X175090111Y-52357278D01*
X175065922Y-52359660D01*
X174519610Y-52359660D01*
X174519604Y-52359661D01*
X174459997Y-52366068D01*
X174325152Y-52416362D01*
X174325145Y-52416366D01*
X174209936Y-52502612D01*
X174209933Y-52502615D01*
X174123687Y-52617824D01*
X174123683Y-52617831D01*
X174081749Y-52730264D01*
X174073390Y-52752677D01*
X174066981Y-52812287D01*
X174066981Y-52812294D01*
X174066981Y-52812295D01*
X174066981Y-53188029D01*
X174066982Y-53188036D01*
X174072488Y-53239253D01*
X174072487Y-53265761D01*
X174067482Y-53312313D01*
X174067481Y-53312332D01*
X174067481Y-53360160D01*
X174076156Y-53368835D01*
X174082495Y-53371200D01*
X174111937Y-53379845D01*
X174116121Y-53383740D01*
X174119206Y-53384891D01*
X174144163Y-53409847D01*
X174156141Y-53425847D01*
X174180560Y-53491311D01*
X174165710Y-53559584D01*
X174156141Y-53574473D01*
X174144163Y-53590473D01*
X174088229Y-53632343D01*
X174072451Y-53635189D01*
X174067481Y-53640160D01*
X174067481Y-53688004D01*
X174072487Y-53734556D01*
X174072488Y-53761065D01*
X174066981Y-53812290D01*
X174066981Y-54188029D01*
X174066982Y-54188034D01*
X174072236Y-54236906D01*
X174072236Y-54263410D01*
X174066981Y-54312287D01*
X174066981Y-54312292D01*
X174066981Y-54312293D01*
X174066981Y-54688029D01*
X174066982Y-54688032D01*
X174071869Y-54733497D01*
X174072236Y-54736906D01*
X174072236Y-54763410D01*
X174066981Y-54812287D01*
X174066981Y-54812292D01*
X174066981Y-54812293D01*
X174066981Y-55188029D01*
X174066982Y-55188034D01*
X174072236Y-55236906D01*
X174072236Y-55263410D01*
X174066981Y-55312287D01*
X174066981Y-55312292D01*
X174066981Y-55312293D01*
X174066981Y-55688029D01*
X174066982Y-55688034D01*
X174072236Y-55736906D01*
X174072236Y-55763410D01*
X174066981Y-55812287D01*
X174066981Y-55812292D01*
X174066981Y-55812293D01*
X174066981Y-56188029D01*
X174066982Y-56188032D01*
X174071868Y-56233489D01*
X174072237Y-56236916D01*
X174072237Y-56263419D01*
X174066983Y-56312287D01*
X174066983Y-56312294D01*
X174066983Y-56312295D01*
X174066983Y-56688029D01*
X174066984Y-56688034D01*
X174072237Y-56736896D01*
X174072237Y-56763401D01*
X174069493Y-56788914D01*
X174042758Y-56853463D01*
X173985366Y-56893313D01*
X173946205Y-56899659D01*
X153300256Y-56899659D01*
X153233217Y-56879974D01*
X153212575Y-56863340D01*
X148497239Y-52148004D01*
X170968483Y-52148004D01*
X170974884Y-52207532D01*
X170974886Y-52207539D01*
X171025128Y-52342246D01*
X171025132Y-52342253D01*
X171111292Y-52457347D01*
X171111295Y-52457350D01*
X171226389Y-52543510D01*
X171226396Y-52543514D01*
X171361103Y-52593756D01*
X171361110Y-52593758D01*
X171420638Y-52600159D01*
X171420655Y-52600160D01*
X172218483Y-52600160D01*
X172718483Y-52600160D01*
X173516311Y-52600160D01*
X173516327Y-52600159D01*
X173575855Y-52593758D01*
X173575862Y-52593756D01*
X173710569Y-52543514D01*
X173710576Y-52543510D01*
X173825670Y-52457350D01*
X173825673Y-52457347D01*
X173911833Y-52342253D01*
X173911837Y-52342246D01*
X173962079Y-52207539D01*
X173962081Y-52207532D01*
X173968482Y-52148004D01*
X173968483Y-52147987D01*
X173968483Y-51450160D01*
X172718483Y-51450160D01*
X172718483Y-52600160D01*
X172218483Y-52600160D01*
X172218483Y-51450160D01*
X170968483Y-51450160D01*
X170968483Y-52148004D01*
X148497239Y-52148004D01*
X145947317Y-49598082D01*
X170952724Y-49598082D01*
X170959125Y-49657610D01*
X170959127Y-49657617D01*
X171009369Y-49792324D01*
X171009370Y-49792326D01*
X171061089Y-49861413D01*
X171085506Y-49926877D01*
X171070655Y-49995150D01*
X171061089Y-50010034D01*
X171025132Y-50058066D01*
X171025128Y-50058073D01*
X170974886Y-50192780D01*
X170974884Y-50192787D01*
X170968483Y-50252315D01*
X170968483Y-50950160D01*
X172218483Y-50950160D01*
X172218483Y-50163145D01*
X172205558Y-50139475D01*
X172202724Y-50113117D01*
X172202724Y-49687252D01*
X172702724Y-49687252D01*
X172715649Y-49710923D01*
X172718483Y-49737281D01*
X172718483Y-50950160D01*
X173968483Y-50950160D01*
X173968483Y-50252332D01*
X173968482Y-50252315D01*
X173962081Y-50192787D01*
X173962079Y-50192780D01*
X173911837Y-50058073D01*
X173911833Y-50058066D01*
X173860118Y-49988984D01*
X173835700Y-49923520D01*
X173850551Y-49855247D01*
X173860118Y-49840361D01*
X173896076Y-49792327D01*
X173896078Y-49792324D01*
X173946320Y-49657617D01*
X173946322Y-49657610D01*
X173952723Y-49598082D01*
X173952724Y-49598065D01*
X173952724Y-48900238D01*
X172702724Y-48900238D01*
X172702724Y-49687252D01*
X172202724Y-49687252D01*
X172202724Y-48900238D01*
X170952724Y-48900238D01*
X170952724Y-49598082D01*
X145947317Y-49598082D01*
X144051628Y-47702393D01*
X170952724Y-47702393D01*
X170952724Y-48400238D01*
X172202724Y-48400238D01*
X172702724Y-48400238D01*
X173952724Y-48400238D01*
X173952724Y-47702410D01*
X173952723Y-47702393D01*
X173946322Y-47642865D01*
X173946320Y-47642858D01*
X173896078Y-47508151D01*
X173896074Y-47508144D01*
X173809914Y-47393050D01*
X173809911Y-47393047D01*
X173694817Y-47306887D01*
X173694810Y-47306883D01*
X173560103Y-47256641D01*
X173560096Y-47256639D01*
X173500568Y-47250238D01*
X172702724Y-47250238D01*
X172702724Y-48400238D01*
X172202724Y-48400238D01*
X172202724Y-47250238D01*
X171404879Y-47250238D01*
X171345351Y-47256639D01*
X171345344Y-47256641D01*
X171210637Y-47306883D01*
X171210630Y-47306887D01*
X171095536Y-47393047D01*
X171095533Y-47393050D01*
X171009373Y-47508144D01*
X171009369Y-47508151D01*
X170959127Y-47642858D01*
X170959125Y-47642865D01*
X170952724Y-47702393D01*
X144051628Y-47702393D01*
X143011654Y-46662419D01*
X142978169Y-46601096D01*
X142983153Y-46531404D01*
X143025025Y-46475471D01*
X143090489Y-46451054D01*
X143099335Y-46450738D01*
X173930448Y-46450738D01*
X173932650Y-46451384D01*
X173934876Y-46450817D01*
X173966017Y-46461182D01*
X173997487Y-46470423D01*
X173998989Y-46472157D01*
X174001170Y-46472883D01*
X174021765Y-46498442D01*
X174043242Y-46523227D01*
X174044018Y-46526057D01*
X174045010Y-46527288D01*
X174053738Y-46561486D01*
X174056479Y-46586986D01*
X174056479Y-46613488D01*
X174051224Y-46662365D01*
X174051224Y-46662370D01*
X174051224Y-46662371D01*
X174051224Y-47038107D01*
X174051225Y-47038114D01*
X174057632Y-47097721D01*
X174107926Y-47232566D01*
X174107930Y-47232573D01*
X174194176Y-47347782D01*
X174194179Y-47347785D01*
X174309388Y-47434031D01*
X174309395Y-47434035D01*
X174444241Y-47484329D01*
X174444240Y-47484329D01*
X174451168Y-47485073D01*
X174503851Y-47490738D01*
X175849596Y-47490737D01*
X175909207Y-47484329D01*
X175978308Y-47458556D01*
X176021641Y-47450738D01*
X176272141Y-47450738D01*
X176339180Y-47470423D01*
X176375245Y-47505850D01*
X176378211Y-47510290D01*
X176489707Y-47621786D01*
X176489711Y-47621789D01*
X176620814Y-47709390D01*
X176620827Y-47709397D01*
X176757218Y-47765891D01*
X176766503Y-47769737D01*
X176921153Y-47800499D01*
X176921156Y-47800500D01*
X176921158Y-47800500D01*
X177078844Y-47800500D01*
X177078845Y-47800499D01*
X177233497Y-47769737D01*
X177379179Y-47709394D01*
X177510289Y-47621789D01*
X177621789Y-47510289D01*
X177709394Y-47379179D01*
X177716677Y-47361593D01*
X177760514Y-47307190D01*
X177826807Y-47285122D01*
X177855431Y-47287426D01*
X177921155Y-47300500D01*
X177921158Y-47300500D01*
X178078844Y-47300500D01*
X178078845Y-47300499D01*
X178233497Y-47269737D01*
X178346166Y-47223067D01*
X178379172Y-47209397D01*
X178379172Y-47209396D01*
X178379179Y-47209394D01*
X178510289Y-47121789D01*
X178621789Y-47010289D01*
X178709394Y-46879179D01*
X178769737Y-46733497D01*
X178800500Y-46578842D01*
X178800500Y-46421158D01*
X178800500Y-46421155D01*
X178800499Y-46421153D01*
X178777855Y-46307314D01*
X178769737Y-46266503D01*
X178749262Y-46217072D01*
X178709397Y-46120827D01*
X178709390Y-46120814D01*
X178621789Y-45989711D01*
X178621786Y-45989707D01*
X178584746Y-45952667D01*
X178551261Y-45891344D01*
X178556245Y-45821652D01*
X178598117Y-45765719D01*
X178663581Y-45741302D01*
X178719878Y-45750424D01*
X178766503Y-45769737D01*
X178871418Y-45790606D01*
X178921153Y-45800499D01*
X178921156Y-45800500D01*
X178921158Y-45800500D01*
X179078844Y-45800500D01*
X179078845Y-45800499D01*
X179233497Y-45769737D01*
X179379179Y-45709394D01*
X179510289Y-45621789D01*
X179621789Y-45510289D01*
X179709394Y-45379179D01*
X179769737Y-45233497D01*
X179800500Y-45078842D01*
X179800500Y-44924500D01*
X179820185Y-44857461D01*
X179872989Y-44811706D01*
X179924500Y-44800500D01*
X180078844Y-44800500D01*
X180078845Y-44800499D01*
X180233497Y-44769737D01*
X180379179Y-44709394D01*
X180510289Y-44621789D01*
X180621789Y-44510289D01*
X180709394Y-44379179D01*
X180769737Y-44233497D01*
X180800500Y-44078842D01*
X180800500Y-43924500D01*
X180820185Y-43857461D01*
X180872989Y-43811706D01*
X180924500Y-43800500D01*
X181078844Y-43800500D01*
X181078845Y-43800499D01*
X181233497Y-43769737D01*
X181379179Y-43709394D01*
X181510289Y-43621789D01*
X181621789Y-43510289D01*
X181709394Y-43379179D01*
X181716677Y-43361593D01*
X181760514Y-43307190D01*
X181826807Y-43285122D01*
X181855431Y-43287426D01*
X181921155Y-43300500D01*
X181921158Y-43300500D01*
X182078844Y-43300500D01*
X182078845Y-43300499D01*
X182233497Y-43269737D01*
X182379179Y-43209394D01*
X182510289Y-43121789D01*
X182621789Y-43010289D01*
X182709394Y-42879179D01*
X182769737Y-42733497D01*
X182800500Y-42578842D01*
X182800500Y-42424500D01*
X182820185Y-42357461D01*
X182872989Y-42311706D01*
X182924500Y-42300500D01*
X183078844Y-42300500D01*
X183078845Y-42300499D01*
X183233497Y-42269737D01*
X183379179Y-42209394D01*
X183379184Y-42209390D01*
X183379187Y-42209389D01*
X183411409Y-42187858D01*
X183492091Y-42133948D01*
X183558766Y-42113070D01*
X183626147Y-42131554D01*
X183648662Y-42149369D01*
X188463181Y-46963887D01*
X188496666Y-47025210D01*
X188499500Y-47051568D01*
X188499500Y-80686809D01*
X188479815Y-80753848D01*
X188427011Y-80799603D01*
X188357853Y-80809547D01*
X188294297Y-80780522D01*
X188261641Y-80735923D01*
X188212649Y-80622348D01*
X188107953Y-80481714D01*
X188029834Y-80414206D01*
X188029830Y-80414203D01*
X187988889Y-80385535D01*
X187071167Y-81696178D01*
X187071167Y-81696179D01*
X187685530Y-82126359D01*
X188201741Y-81389135D01*
X188252058Y-81298983D01*
X188256709Y-81283449D01*
X188294793Y-81224871D01*
X188358501Y-81196182D01*
X188427606Y-81206490D01*
X188480168Y-81252523D01*
X188499500Y-81319011D01*
X188499500Y-82442850D01*
X188479815Y-82509889D01*
X188463181Y-82530531D01*
X186892785Y-84100926D01*
X186831462Y-84134411D01*
X186795592Y-84136880D01*
X186705173Y-84129923D01*
X186649574Y-84125645D01*
X186649573Y-84125645D01*
X186649571Y-84125645D01*
X186487715Y-84154185D01*
X186338041Y-84222080D01*
X186209953Y-84325066D01*
X186186427Y-84353604D01*
X185308054Y-85608052D01*
X185289283Y-85639918D01*
X185236319Y-85795501D01*
X185236317Y-85795511D01*
X185223708Y-85959371D01*
X185223708Y-85959374D01*
X185240845Y-86056556D01*
X185252249Y-86121232D01*
X185275022Y-86171435D01*
X185320145Y-86270908D01*
X185423126Y-86398992D01*
X185423127Y-86398993D01*
X185423746Y-86399503D01*
X185451672Y-86422523D01*
X185805044Y-86669957D01*
X185836915Y-86688730D01*
X185836916Y-86688730D01*
X185836917Y-86688731D01*
X185992495Y-86741694D01*
X185992497Y-86741695D01*
X185992499Y-86741695D01*
X185992502Y-86741696D01*
X186156372Y-86754305D01*
X186156374Y-86754304D01*
X186164151Y-86754903D01*
X186163986Y-86757045D01*
X186221173Y-86770833D01*
X186269461Y-86821331D01*
X186273408Y-86830966D01*
X186273448Y-86830949D01*
X186344514Y-86987612D01*
X186447420Y-87115602D01*
X186475939Y-87139111D01*
X186475947Y-87139118D01*
X186502772Y-87157901D01*
X186546397Y-87212478D01*
X186553589Y-87281976D01*
X186522067Y-87344331D01*
X186461837Y-87379744D01*
X186431648Y-87383475D01*
X184354783Y-87383475D01*
X184287744Y-87363790D01*
X184267102Y-87347156D01*
X183686819Y-86766873D01*
X183653334Y-86705550D01*
X183650500Y-86679192D01*
X183650500Y-83416396D01*
X185866657Y-83416396D01*
X185866658Y-83416397D01*
X185907585Y-83445055D01*
X185907603Y-83445066D01*
X185997754Y-83495383D01*
X186165714Y-83545666D01*
X186165721Y-83545668D01*
X186340745Y-83555862D01*
X186340746Y-83555862D01*
X186513404Y-83525418D01*
X186674390Y-83455975D01*
X186815028Y-83351276D01*
X186882529Y-83273167D01*
X186882530Y-83273166D01*
X187398743Y-82535936D01*
X187398743Y-82535935D01*
X186784379Y-82105753D01*
X186784378Y-82105753D01*
X185866657Y-83416396D01*
X183650500Y-83416396D01*
X183650500Y-82559151D01*
X185133435Y-82559151D01*
X185133435Y-82559152D01*
X185163879Y-82731810D01*
X185233322Y-82892797D01*
X185338018Y-83033431D01*
X185416149Y-83100949D01*
X185457080Y-83129610D01*
X185457080Y-83129609D01*
X186374803Y-81818966D01*
X186374803Y-81818965D01*
X185760440Y-81388784D01*
X185760439Y-81388784D01*
X185244233Y-82126005D01*
X185244232Y-82126006D01*
X185193913Y-82216161D01*
X185143631Y-82384120D01*
X185143629Y-82384127D01*
X185133435Y-82559151D01*
X183650500Y-82559151D01*
X183650500Y-80979209D01*
X186047227Y-80979209D01*
X186661591Y-81409391D01*
X186661592Y-81409391D01*
X187579313Y-80098748D01*
X187579312Y-80098747D01*
X187538376Y-80070083D01*
X187538371Y-80070080D01*
X187448216Y-80019761D01*
X187280257Y-79969479D01*
X187280250Y-79969477D01*
X187105226Y-79959283D01*
X187105225Y-79959283D01*
X186932567Y-79989727D01*
X186771581Y-80059170D01*
X186630943Y-80163869D01*
X186563445Y-80241975D01*
X186047228Y-80979209D01*
X186047227Y-80979209D01*
X183650500Y-80979209D01*
X183650500Y-77004935D01*
X183670185Y-76937896D01*
X183671366Y-76936090D01*
X183709394Y-76879179D01*
X183769737Y-76733497D01*
X183800500Y-76578842D01*
X183800500Y-76421158D01*
X183800500Y-76421155D01*
X183800499Y-76421153D01*
X183769738Y-76266510D01*
X183769737Y-76266503D01*
X183769735Y-76266498D01*
X183709397Y-76120827D01*
X183709390Y-76120814D01*
X183621789Y-75989711D01*
X183621786Y-75989707D01*
X183510292Y-75878213D01*
X183510288Y-75878210D01*
X183379185Y-75790609D01*
X183379172Y-75790602D01*
X183233501Y-75730264D01*
X183233489Y-75730261D01*
X183078845Y-75699500D01*
X183078842Y-75699500D01*
X183074767Y-75699500D01*
X183027315Y-75690061D01*
X182989748Y-75674500D01*
X182989738Y-75674497D01*
X182864071Y-75649500D01*
X182864069Y-75649500D01*
X175159929Y-75649500D01*
X175121628Y-75657118D01*
X175097439Y-75659500D01*
X174551127Y-75659500D01*
X174551121Y-75659501D01*
X174491514Y-75665908D01*
X174356669Y-75716202D01*
X174356662Y-75716206D01*
X174241453Y-75802452D01*
X174241450Y-75802455D01*
X174155204Y-75917664D01*
X174155200Y-75917671D01*
X174104908Y-76052513D01*
X174104907Y-76052517D01*
X174098498Y-76112127D01*
X174098498Y-76112134D01*
X174098498Y-76112135D01*
X174098498Y-76487869D01*
X174098499Y-76487876D01*
X174104005Y-76539093D01*
X174104004Y-76565601D01*
X174098999Y-76612153D01*
X174098998Y-76612172D01*
X174098998Y-76660000D01*
X174107673Y-76668675D01*
X174114012Y-76671040D01*
X174143454Y-76679685D01*
X174147638Y-76683580D01*
X174150723Y-76684731D01*
X174175680Y-76709687D01*
X174187658Y-76725687D01*
X174212077Y-76791151D01*
X174197227Y-76859424D01*
X174187658Y-76874313D01*
X174175680Y-76890313D01*
X174119746Y-76932183D01*
X174103968Y-76935029D01*
X174098998Y-76940000D01*
X174098998Y-76987844D01*
X174104004Y-77034396D01*
X174104005Y-77060905D01*
X174098498Y-77112130D01*
X174098498Y-77487869D01*
X174098499Y-77487874D01*
X174103753Y-77536746D01*
X174103753Y-77563250D01*
X174098498Y-77612127D01*
X174098498Y-77612132D01*
X174098498Y-77612133D01*
X174098498Y-77987869D01*
X174098499Y-77987874D01*
X174103753Y-78036746D01*
X174103753Y-78063250D01*
X174098498Y-78112127D01*
X174098498Y-78112132D01*
X174098498Y-78112133D01*
X174098498Y-78487869D01*
X174098499Y-78487874D01*
X174103753Y-78536746D01*
X174103753Y-78563250D01*
X174101010Y-78588754D01*
X174074275Y-78653304D01*
X174016884Y-78693154D01*
X173977722Y-78699500D01*
X118763701Y-78699500D01*
X118696662Y-78679815D01*
X118676020Y-78663181D01*
X115460683Y-75447844D01*
X171000000Y-75447844D01*
X171006401Y-75507372D01*
X171006403Y-75507379D01*
X171056645Y-75642086D01*
X171056649Y-75642093D01*
X171142809Y-75757187D01*
X171142812Y-75757190D01*
X171257906Y-75843350D01*
X171257913Y-75843354D01*
X171392620Y-75893596D01*
X171392627Y-75893598D01*
X171452155Y-75899999D01*
X171452172Y-75900000D01*
X172250000Y-75900000D01*
X172750000Y-75900000D01*
X173547828Y-75900000D01*
X173547844Y-75899999D01*
X173607372Y-75893598D01*
X173607379Y-75893596D01*
X173742086Y-75843354D01*
X173742093Y-75843350D01*
X173857187Y-75757190D01*
X173857190Y-75757187D01*
X173943350Y-75642093D01*
X173943354Y-75642086D01*
X173993596Y-75507379D01*
X173993598Y-75507372D01*
X173999999Y-75447844D01*
X174000000Y-75447827D01*
X174000000Y-74750000D01*
X172750000Y-74750000D01*
X172750000Y-75900000D01*
X172250000Y-75900000D01*
X172250000Y-74750000D01*
X171000000Y-74750000D01*
X171000000Y-75447844D01*
X115460683Y-75447844D01*
X112910763Y-72897924D01*
X170984239Y-72897924D01*
X170990640Y-72957452D01*
X170990642Y-72957459D01*
X171040884Y-73092166D01*
X171040885Y-73092168D01*
X171092604Y-73161255D01*
X171117021Y-73226719D01*
X171102170Y-73294992D01*
X171092605Y-73309876D01*
X171056646Y-73357911D01*
X171056645Y-73357913D01*
X171006403Y-73492620D01*
X171006401Y-73492627D01*
X171000000Y-73552155D01*
X171000000Y-74250000D01*
X172250000Y-74250000D01*
X172250000Y-73462988D01*
X172237073Y-73439315D01*
X172234239Y-73412957D01*
X172234239Y-72987091D01*
X172734239Y-72987091D01*
X172747166Y-73010765D01*
X172750000Y-73037123D01*
X172750000Y-74250000D01*
X174000000Y-74250000D01*
X174000000Y-73552172D01*
X173999999Y-73552155D01*
X173993598Y-73492627D01*
X173993596Y-73492620D01*
X173943354Y-73357913D01*
X173943350Y-73357906D01*
X173891635Y-73288824D01*
X173867217Y-73223360D01*
X173882068Y-73155087D01*
X173891635Y-73140201D01*
X173927591Y-73092169D01*
X173927593Y-73092166D01*
X173977835Y-72957459D01*
X173977837Y-72957452D01*
X173984238Y-72897924D01*
X173984239Y-72897907D01*
X173984239Y-72200080D01*
X172734239Y-72200080D01*
X172734239Y-72987091D01*
X172234239Y-72987091D01*
X172234239Y-72200080D01*
X170984239Y-72200080D01*
X170984239Y-72897924D01*
X112910763Y-72897924D01*
X111015074Y-71002235D01*
X170984239Y-71002235D01*
X170984239Y-71700080D01*
X172234239Y-71700080D01*
X172734239Y-71700080D01*
X173984239Y-71700080D01*
X173984239Y-71002252D01*
X173984238Y-71002235D01*
X173977837Y-70942707D01*
X173977835Y-70942700D01*
X173927593Y-70807993D01*
X173927589Y-70807986D01*
X173841429Y-70692892D01*
X173841426Y-70692889D01*
X173726332Y-70606729D01*
X173726325Y-70606725D01*
X173591618Y-70556483D01*
X173591611Y-70556481D01*
X173532083Y-70550080D01*
X172734239Y-70550080D01*
X172734239Y-71700080D01*
X172234239Y-71700080D01*
X172234239Y-70550080D01*
X171436394Y-70550080D01*
X171376866Y-70556481D01*
X171376859Y-70556483D01*
X171242152Y-70606725D01*
X171242145Y-70606729D01*
X171127051Y-70692889D01*
X171127048Y-70692892D01*
X171040888Y-70807986D01*
X171040884Y-70807993D01*
X170990642Y-70942700D01*
X170990640Y-70942707D01*
X170984239Y-71002235D01*
X111015074Y-71002235D01*
X85050020Y-45037181D01*
X85016535Y-44975858D01*
X85021519Y-44906166D01*
X85063391Y-44850233D01*
X85128855Y-44825816D01*
X85137701Y-44825500D01*
X88789071Y-44825500D01*
X88873615Y-44808682D01*
X88914744Y-44800501D01*
X89033127Y-44751465D01*
X89061407Y-44732569D01*
X89139669Y-44680277D01*
X89458127Y-44361819D01*
X89519450Y-44328334D01*
X89545808Y-44325500D01*
X89953186Y-44325500D01*
X89953194Y-44325500D01*
X89990069Y-44322598D01*
X89990071Y-44322597D01*
X89990073Y-44322597D01*
X90042680Y-44307313D01*
X90147898Y-44276744D01*
X90289365Y-44193081D01*
X90405581Y-44076865D01*
X90489244Y-43935398D01*
X90525180Y-43811706D01*
X90535097Y-43777573D01*
X90535098Y-43777567D01*
X90535714Y-43769737D01*
X90538000Y-43740694D01*
X90538000Y-43309306D01*
X90535098Y-43272431D01*
X90534315Y-43269737D01*
X90489245Y-43114606D01*
X90489245Y-43114605D01*
X90489244Y-43114604D01*
X90489244Y-43114602D01*
X90488074Y-43112624D01*
X90487630Y-43110874D01*
X90486147Y-43107446D01*
X90486700Y-43107206D01*
X90470896Y-43044901D01*
X90486253Y-42992603D01*
X90485684Y-42992357D01*
X90487682Y-42987738D01*
X90488081Y-42986382D01*
X90488781Y-42985197D01*
X90534600Y-42827486D01*
X90534795Y-42825001D01*
X90534795Y-42825000D01*
X90269315Y-42825000D01*
X90206194Y-42807732D01*
X90147896Y-42773255D01*
X90147893Y-42773254D01*
X89990073Y-42727402D01*
X89990067Y-42727401D01*
X89953201Y-42724500D01*
X89953194Y-42724500D01*
X89499000Y-42724500D01*
X89490314Y-42721949D01*
X89481353Y-42723238D01*
X89457312Y-42712259D01*
X89431961Y-42704815D01*
X89426033Y-42697974D01*
X89417797Y-42694213D01*
X89403507Y-42671978D01*
X89386206Y-42652011D01*
X89383918Y-42641496D01*
X89380023Y-42635435D01*
X89375000Y-42600500D01*
X89375000Y-42549500D01*
X89394685Y-42482461D01*
X89447489Y-42436706D01*
X89499000Y-42425500D01*
X89953186Y-42425500D01*
X89953194Y-42425500D01*
X89990069Y-42422598D01*
X89990071Y-42422597D01*
X89990073Y-42422597D01*
X90031691Y-42410505D01*
X90147898Y-42376744D01*
X90206194Y-42342268D01*
X90269315Y-42325000D01*
X90557893Y-42325000D01*
X90566185Y-42320040D01*
X90636018Y-42322283D01*
X90684963Y-42352396D01*
X117072021Y-68739454D01*
X117072031Y-68739465D01*
X117076361Y-68743795D01*
X117076362Y-68743796D01*
X117188166Y-68855600D01*
X117188168Y-68855601D01*
X117188172Y-68855604D01*
X117325091Y-68934653D01*
X117325098Y-68934657D01*
X117427916Y-68962207D01*
X117427915Y-68962207D01*
X117438462Y-68965032D01*
X117477824Y-68975580D01*
X117477825Y-68975580D01*
X173695640Y-68975580D01*
X173762679Y-68995265D01*
X173783321Y-69011899D01*
X173902022Y-69130600D01*
X173902023Y-69130601D01*
X173902025Y-69130602D01*
X174020739Y-69199141D01*
X174026293Y-69204966D01*
X174033814Y-69207838D01*
X174050055Y-69229887D01*
X174068954Y-69249707D01*
X174071538Y-69259052D01*
X174075252Y-69264093D01*
X174079337Y-69287249D01*
X174082488Y-69298638D01*
X174082739Y-69302585D01*
X174082740Y-69337951D01*
X174088281Y-69389504D01*
X174088453Y-69392189D01*
X174087994Y-69394223D01*
X174087994Y-69413330D01*
X174082739Y-69462207D01*
X174082739Y-69462212D01*
X174082739Y-69462213D01*
X174082739Y-69837949D01*
X174082740Y-69837959D01*
X174087993Y-69886824D01*
X174087993Y-69913329D01*
X174082738Y-69962210D01*
X174082738Y-70337949D01*
X174082739Y-70337956D01*
X174089146Y-70397563D01*
X174139440Y-70532408D01*
X174139444Y-70532415D01*
X174225690Y-70647624D01*
X174225693Y-70647627D01*
X174340902Y-70733873D01*
X174340909Y-70733877D01*
X174475755Y-70784171D01*
X174475754Y-70784171D01*
X174482682Y-70784915D01*
X174535365Y-70790580D01*
X175881110Y-70790579D01*
X175940721Y-70784171D01*
X176009822Y-70758398D01*
X176015451Y-70757382D01*
X176018220Y-70755603D01*
X176053155Y-70750580D01*
X176154485Y-70750580D01*
X176221524Y-70770265D01*
X176267279Y-70823069D01*
X176269034Y-70827099D01*
X176280250Y-70854178D01*
X176290605Y-70879178D01*
X176290609Y-70879185D01*
X176378210Y-71010288D01*
X176378213Y-71010292D01*
X176489707Y-71121786D01*
X176489711Y-71121789D01*
X176620814Y-71209390D01*
X176620827Y-71209397D01*
X176766498Y-71269735D01*
X176766503Y-71269737D01*
X176921153Y-71300499D01*
X176921156Y-71300500D01*
X176921158Y-71300500D01*
X177078844Y-71300500D01*
X177078845Y-71300499D01*
X177233497Y-71269737D01*
X177379179Y-71209394D01*
X177510289Y-71121789D01*
X177621789Y-71010289D01*
X177709394Y-70879179D01*
X177716677Y-70861593D01*
X177760514Y-70807190D01*
X177826807Y-70785122D01*
X177855431Y-70787426D01*
X177921155Y-70800500D01*
X177921158Y-70800500D01*
X178078844Y-70800500D01*
X178078845Y-70800499D01*
X178233497Y-70769737D01*
X178379179Y-70709394D01*
X178510289Y-70621789D01*
X178621789Y-70510289D01*
X178709394Y-70379179D01*
X178769737Y-70233497D01*
X178800500Y-70078842D01*
X178800500Y-69921158D01*
X178796047Y-69898771D01*
X178802274Y-69829180D01*
X178845136Y-69774002D01*
X178911025Y-69750757D01*
X178917664Y-69750579D01*
X179611781Y-69750579D01*
X179611797Y-69750580D01*
X179619393Y-69750580D01*
X179777504Y-69750580D01*
X179777507Y-69750580D01*
X179930235Y-69709656D01*
X179999683Y-69669560D01*
X180067166Y-69630599D01*
X180178970Y-69518795D01*
X180178970Y-69518793D01*
X180189174Y-69508590D01*
X180189178Y-69508585D01*
X183958506Y-65739257D01*
X183958511Y-65739253D01*
X183968714Y-65729049D01*
X183968716Y-65729049D01*
X184080520Y-65617245D01*
X184142271Y-65510289D01*
X184159577Y-65480314D01*
X184200501Y-65327586D01*
X184200501Y-65169472D01*
X184200501Y-65161877D01*
X184200500Y-65161859D01*
X184200500Y-64672417D01*
X184200500Y-64672414D01*
X184177349Y-64586011D01*
X184159577Y-64519686D01*
X184104064Y-64423535D01*
X184080520Y-64382755D01*
X183968716Y-64270951D01*
X183968713Y-64270949D01*
X180986199Y-61288435D01*
X180986197Y-61288432D01*
X180867326Y-61169561D01*
X180867325Y-61169560D01*
X180780513Y-61119440D01*
X180780513Y-61119439D01*
X180780509Y-61119438D01*
X180730394Y-61090503D01*
X180577666Y-61049579D01*
X180419552Y-61049579D01*
X180411956Y-61049579D01*
X180411940Y-61049580D01*
X174092481Y-61049580D01*
X174025442Y-61029895D01*
X173979687Y-60977091D01*
X173968481Y-60925580D01*
X173968481Y-60550160D01*
X172718481Y-60550160D01*
X172718481Y-60925580D01*
X172698796Y-60992619D01*
X172645992Y-61038374D01*
X172594481Y-61049580D01*
X172342481Y-61049580D01*
X172275442Y-61029895D01*
X172229687Y-60977091D01*
X172218481Y-60925580D01*
X172218481Y-60550160D01*
X170968481Y-60550160D01*
X170968481Y-60925580D01*
X170948796Y-60992619D01*
X170895992Y-61038374D01*
X170844481Y-61049580D01*
X128700177Y-61049580D01*
X128633138Y-61029895D01*
X128612496Y-61013261D01*
X126951550Y-59352315D01*
X170968481Y-59352315D01*
X170968481Y-60050160D01*
X172218481Y-60050160D01*
X172718481Y-60050160D01*
X173968481Y-60050160D01*
X173968481Y-59352332D01*
X173968480Y-59352315D01*
X173962079Y-59292787D01*
X173962077Y-59292780D01*
X173911835Y-59158073D01*
X173911831Y-59158066D01*
X173825671Y-59042972D01*
X173825668Y-59042969D01*
X173710574Y-58956809D01*
X173710567Y-58956805D01*
X173575860Y-58906563D01*
X173575853Y-58906561D01*
X173516325Y-58900160D01*
X172718481Y-58900160D01*
X172718481Y-60050160D01*
X172218481Y-60050160D01*
X172218481Y-58900160D01*
X171420636Y-58900160D01*
X171361108Y-58906561D01*
X171361101Y-58906563D01*
X171226394Y-58956805D01*
X171226387Y-58956809D01*
X171111293Y-59042969D01*
X171111290Y-59042972D01*
X171025130Y-59158066D01*
X171025126Y-59158073D01*
X170974884Y-59292780D01*
X170974882Y-59292787D01*
X170968481Y-59352315D01*
X126951550Y-59352315D01*
X93886818Y-26287583D01*
X93872114Y-26260655D01*
X93855522Y-26234837D01*
X93854630Y-26228636D01*
X93853333Y-26226260D01*
X93850499Y-26199902D01*
X93850499Y-26124500D01*
X93870184Y-26057461D01*
X93922988Y-26011706D01*
X93974499Y-26000500D01*
X120599903Y-26000500D01*
X120666942Y-26020185D01*
G37*
%TD.AperFunction*%
%TA.AperFunction,Conductor*%
G36*
X188818834Y-83975862D02*
G01*
X188874767Y-84017734D01*
X188899184Y-84083198D01*
X188899500Y-84092044D01*
X188899500Y-85441225D01*
X188879815Y-85508264D01*
X188827011Y-85554019D01*
X188765988Y-85564860D01*
X188734592Y-85562444D01*
X188697455Y-85559587D01*
X188697453Y-85559587D01*
X188689678Y-85558989D01*
X188689842Y-85556850D01*
X188632630Y-85543044D01*
X188584354Y-85492535D01*
X188580418Y-85482925D01*
X188580380Y-85482943D01*
X188509313Y-85326279D01*
X188406407Y-85198289D01*
X188404479Y-85196699D01*
X187702825Y-86198765D01*
X187648248Y-86242389D01*
X187578749Y-86249582D01*
X187530127Y-86229216D01*
X187323701Y-86084675D01*
X187280076Y-86030098D01*
X187272882Y-85960600D01*
X187293249Y-85911977D01*
X187994902Y-84909910D01*
X187994337Y-84907306D01*
X187951311Y-84861392D01*
X187938682Y-84792673D01*
X187965210Y-84728036D01*
X187974313Y-84717869D01*
X188687820Y-84004361D01*
X188749142Y-83970878D01*
X188818834Y-83975862D01*
G37*
%TD.AperFunction*%
%TA.AperFunction,Conductor*%
G36*
X90392539Y-24019685D02*
G01*
X90438294Y-24072489D01*
X90449500Y-24124000D01*
X90449500Y-29913330D01*
X90449499Y-29913348D01*
X90449499Y-30079054D01*
X90449498Y-30079054D01*
X90490423Y-30231785D01*
X90499711Y-30247873D01*
X90518560Y-30280519D01*
X90561782Y-30355383D01*
X90569479Y-30368714D01*
X90569481Y-30368717D01*
X90688349Y-30487585D01*
X90688355Y-30487590D01*
X91469478Y-31268713D01*
X91469480Y-31268716D01*
X91581284Y-31380520D01*
X91605096Y-31394268D01*
X91615358Y-31403800D01*
X91626346Y-31422272D01*
X91641180Y-31437829D01*
X91643854Y-31451706D01*
X91651078Y-31463849D01*
X91650335Y-31485328D01*
X91654404Y-31506436D01*
X91654264Y-31507815D01*
X91649500Y-31552127D01*
X91649500Y-31552133D01*
X91649500Y-31552134D01*
X91649500Y-32447870D01*
X91649501Y-32447876D01*
X91655908Y-32507479D01*
X91657692Y-32515026D01*
X91656229Y-32515371D01*
X91660585Y-32576371D01*
X91656173Y-32591396D01*
X91655908Y-32592517D01*
X91649501Y-32652116D01*
X91649501Y-32652123D01*
X91649500Y-32652135D01*
X91649500Y-33547870D01*
X91649501Y-33547876D01*
X91655908Y-33607479D01*
X91657692Y-33615026D01*
X91656229Y-33615371D01*
X91660585Y-33676371D01*
X91656173Y-33691396D01*
X91655908Y-33692517D01*
X91649501Y-33752116D01*
X91649501Y-33752123D01*
X91649500Y-33752135D01*
X91649500Y-34647870D01*
X91649501Y-34647876D01*
X91655908Y-34707479D01*
X91657692Y-34715026D01*
X91656229Y-34715371D01*
X91660585Y-34776371D01*
X91656173Y-34791396D01*
X91655908Y-34792517D01*
X91649950Y-34847942D01*
X91649501Y-34852123D01*
X91649500Y-34852135D01*
X91649500Y-35747870D01*
X91649501Y-35747876D01*
X91655908Y-35807479D01*
X91657692Y-35815026D01*
X91656229Y-35815371D01*
X91660585Y-35876371D01*
X91656173Y-35891396D01*
X91655908Y-35892517D01*
X91649501Y-35952116D01*
X91649501Y-35952123D01*
X91649500Y-35952135D01*
X91649500Y-36847870D01*
X91649501Y-36847876D01*
X91655909Y-36907487D01*
X91657692Y-36915031D01*
X91656438Y-36915327D01*
X91660856Y-36977069D01*
X91656864Y-36990664D01*
X91656401Y-36992624D01*
X91650000Y-37052155D01*
X91650000Y-37250000D01*
X91901931Y-37250000D01*
X91945263Y-37257817D01*
X92042517Y-37294091D01*
X92102127Y-37300500D01*
X93397872Y-37300499D01*
X93457483Y-37294091D01*
X93554736Y-37257817D01*
X93598069Y-37250000D01*
X93850000Y-37250000D01*
X93850000Y-37052172D01*
X93849999Y-37052155D01*
X93843598Y-36992627D01*
X93841814Y-36985076D01*
X93843459Y-36984687D01*
X93839143Y-36924361D01*
X93844058Y-36907619D01*
X93844091Y-36907481D01*
X93844091Y-36907479D01*
X93850500Y-36847873D01*
X93850499Y-35952128D01*
X93844091Y-35892517D01*
X93844090Y-35892515D01*
X93844090Y-35892512D01*
X93842308Y-35884969D01*
X93843773Y-35884622D01*
X93839409Y-35823651D01*
X93843819Y-35808633D01*
X93844089Y-35807488D01*
X93844091Y-35807483D01*
X93850500Y-35747873D01*
X93850499Y-34852128D01*
X93844091Y-34792517D01*
X93844090Y-34792515D01*
X93844090Y-34792512D01*
X93842308Y-34784969D01*
X93843773Y-34784622D01*
X93839409Y-34723651D01*
X93843819Y-34708633D01*
X93844089Y-34707488D01*
X93844091Y-34707483D01*
X93850500Y-34647873D01*
X93850499Y-33752128D01*
X93844091Y-33692517D01*
X93844090Y-33692515D01*
X93844090Y-33692512D01*
X93842308Y-33684969D01*
X93843773Y-33684622D01*
X93839409Y-33623651D01*
X93843819Y-33608633D01*
X93844089Y-33607488D01*
X93844091Y-33607483D01*
X93850500Y-33547873D01*
X93850499Y-32652128D01*
X93844091Y-32592517D01*
X93844090Y-32592515D01*
X93844090Y-32592512D01*
X93842308Y-32584969D01*
X93843773Y-32584622D01*
X93839409Y-32523651D01*
X93843819Y-32508633D01*
X93844089Y-32507488D01*
X93844091Y-32507483D01*
X93850500Y-32447873D01*
X93850499Y-31552128D01*
X93844091Y-31492517D01*
X93844090Y-31492515D01*
X93844090Y-31492512D01*
X93842308Y-31484969D01*
X93843773Y-31484622D01*
X93839409Y-31423651D01*
X93843819Y-31408633D01*
X93844089Y-31407488D01*
X93844091Y-31407483D01*
X93850500Y-31347873D01*
X93850499Y-30452128D01*
X93850499Y-30452127D01*
X93850499Y-30449096D01*
X93870183Y-30382057D01*
X93922987Y-30336302D01*
X93992146Y-30326358D01*
X94055702Y-30355383D01*
X94062180Y-30361415D01*
X130719558Y-67018793D01*
X130719560Y-67018796D01*
X130813664Y-67112900D01*
X130847148Y-67174221D01*
X130847147Y-67174222D01*
X130847148Y-67174223D01*
X130842164Y-67243914D01*
X130824238Y-67267859D01*
X130800293Y-67299847D01*
X130734829Y-67324264D01*
X130725982Y-67324580D01*
X118043375Y-67324580D01*
X117976336Y-67304895D01*
X117955694Y-67288261D01*
X93092612Y-42425180D01*
X93059127Y-42363857D01*
X93064111Y-42294165D01*
X93065706Y-42290111D01*
X93090539Y-42230162D01*
X93090540Y-42230157D01*
X93122840Y-42067779D01*
X93122840Y-41902208D01*
X93090540Y-41739831D01*
X93090539Y-41739830D01*
X93090539Y-41739826D01*
X93027178Y-41586862D01*
X93027174Y-41586856D01*
X93027172Y-41586852D01*
X92935196Y-41449204D01*
X92935195Y-41449203D01*
X92935193Y-41449200D01*
X92876655Y-41390664D01*
X92876654Y-41390663D01*
X92876654Y-41390662D01*
X92876653Y-41390662D01*
X92735908Y-41249917D01*
X92733272Y-41247281D01*
X92733271Y-41247280D01*
X92733267Y-41247276D01*
X92595612Y-41155299D01*
X92595609Y-41155297D01*
X92442653Y-41091942D01*
X92442651Y-41091941D01*
X92442650Y-41091941D01*
X92442645Y-41091940D01*
X92442641Y-41091939D01*
X92280272Y-41059642D01*
X92280268Y-41059642D01*
X92114704Y-41059642D01*
X92114699Y-41059642D01*
X91952327Y-41091939D01*
X91952312Y-41091944D01*
X91946948Y-41094166D01*
X91877478Y-41101632D01*
X91815001Y-41070355D01*
X91779351Y-41010264D01*
X91775500Y-40979603D01*
X91775500Y-40525098D01*
X91784143Y-40495661D01*
X91790667Y-40465672D01*
X91794422Y-40460655D01*
X91795185Y-40458059D01*
X91811818Y-40437418D01*
X91858503Y-40390732D01*
X91858508Y-40390728D01*
X91868714Y-40380521D01*
X91868716Y-40380521D01*
X91980520Y-40268717D01*
X92059577Y-40131785D01*
X92060035Y-40130074D01*
X92060817Y-40128791D01*
X92062689Y-40124273D01*
X92063393Y-40124564D01*
X92096396Y-40070412D01*
X92136480Y-40045977D01*
X92142331Y-40043796D01*
X92257546Y-39957546D01*
X92343796Y-39842331D01*
X92394091Y-39707483D01*
X92400500Y-39647873D01*
X92400499Y-38523999D01*
X92420184Y-38456961D01*
X92472987Y-38411206D01*
X92493188Y-38406811D01*
X92500000Y-38400000D01*
X93000000Y-38400000D01*
X93397828Y-38400000D01*
X93397844Y-38399999D01*
X93457372Y-38393598D01*
X93457379Y-38393596D01*
X93592086Y-38343354D01*
X93592093Y-38343350D01*
X93707187Y-38257190D01*
X93707190Y-38257187D01*
X93793350Y-38142093D01*
X93793354Y-38142086D01*
X93843596Y-38007379D01*
X93843598Y-38007372D01*
X93849999Y-37947844D01*
X93850000Y-37947827D01*
X93850000Y-37750000D01*
X93000000Y-37750000D01*
X93000000Y-38400000D01*
X92500000Y-38400000D01*
X92500000Y-37750000D01*
X91650000Y-37750000D01*
X91650000Y-37775500D01*
X91630315Y-37842539D01*
X91577511Y-37888294D01*
X91526000Y-37899500D01*
X91052129Y-37899500D01*
X91052123Y-37899501D01*
X90992520Y-37905908D01*
X90984974Y-37907692D01*
X90984628Y-37906230D01*
X90923622Y-37910584D01*
X90908600Y-37906172D01*
X90907482Y-37905908D01*
X90847883Y-37899501D01*
X90847881Y-37899500D01*
X90847873Y-37899500D01*
X90847864Y-37899500D01*
X89952129Y-37899500D01*
X89952123Y-37899501D01*
X89892520Y-37905908D01*
X89884974Y-37907692D01*
X89884628Y-37906230D01*
X89823622Y-37910584D01*
X89808600Y-37906172D01*
X89807482Y-37905908D01*
X89747883Y-37899501D01*
X89747881Y-37899500D01*
X89747873Y-37899500D01*
X89747865Y-37899500D01*
X88924500Y-37899500D01*
X88857461Y-37879815D01*
X88811706Y-37827011D01*
X88800500Y-37775500D01*
X88800500Y-30789060D01*
X88800501Y-30789047D01*
X88800501Y-30620944D01*
X88794821Y-30599745D01*
X88759577Y-30468216D01*
X88711515Y-30384969D01*
X88680524Y-30331290D01*
X88680518Y-30331282D01*
X85724736Y-27375500D01*
X82560915Y-24211680D01*
X82527431Y-24150358D01*
X82532415Y-24080666D01*
X82574287Y-24024733D01*
X82639751Y-24000316D01*
X82648597Y-24000000D01*
X90325500Y-24000000D01*
X90392539Y-24019685D01*
G37*
%TD.AperFunction*%
%TA.AperFunction,Conductor*%
G36*
X94055702Y-28155383D02*
G01*
X94062180Y-28161415D01*
X127915219Y-62014454D01*
X127915229Y-62014465D01*
X127919559Y-62018795D01*
X127919560Y-62018796D01*
X128031364Y-62130600D01*
X128118175Y-62180719D01*
X128118177Y-62180721D01*
X128156231Y-62202691D01*
X128168295Y-62209657D01*
X128321023Y-62250581D01*
X128321026Y-62250581D01*
X128486733Y-62250581D01*
X128486749Y-62250580D01*
X170860241Y-62250580D01*
X170927280Y-62270265D01*
X170973035Y-62323069D01*
X170984241Y-62374580D01*
X170984241Y-62600080D01*
X172234241Y-62600080D01*
X172234241Y-62374580D01*
X172253926Y-62307541D01*
X172306730Y-62261786D01*
X172358241Y-62250580D01*
X172610241Y-62250580D01*
X172677280Y-62270265D01*
X172723035Y-62323069D01*
X172734241Y-62374580D01*
X172734241Y-62600080D01*
X173984241Y-62600080D01*
X173984241Y-62374580D01*
X174003926Y-62307541D01*
X174056730Y-62261786D01*
X174108241Y-62250580D01*
X180198512Y-62250580D01*
X180265551Y-62270265D01*
X180286193Y-62286899D01*
X181787193Y-63787899D01*
X181820678Y-63849222D01*
X181815694Y-63918914D01*
X181773822Y-63974847D01*
X181708358Y-63999264D01*
X181699512Y-63999580D01*
X175144170Y-63999580D01*
X175105869Y-64007198D01*
X175081680Y-64009580D01*
X174535368Y-64009580D01*
X174535362Y-64009581D01*
X174475755Y-64015988D01*
X174340910Y-64066282D01*
X174340903Y-64066286D01*
X174225694Y-64152532D01*
X174225691Y-64152535D01*
X174139445Y-64267744D01*
X174139441Y-64267751D01*
X174089149Y-64402593D01*
X174089148Y-64402597D01*
X174082739Y-64462207D01*
X174082739Y-64462214D01*
X174082739Y-64462215D01*
X174082739Y-64837949D01*
X174082740Y-64837956D01*
X174088246Y-64889173D01*
X174088245Y-64915681D01*
X174083240Y-64962233D01*
X174083239Y-64962252D01*
X174083239Y-65010080D01*
X174091914Y-65018755D01*
X174098253Y-65021120D01*
X174127695Y-65029765D01*
X174131879Y-65033660D01*
X174134964Y-65034811D01*
X174159921Y-65059767D01*
X174171899Y-65075767D01*
X174196318Y-65141231D01*
X174181468Y-65209504D01*
X174171899Y-65224393D01*
X174159921Y-65240393D01*
X174103987Y-65282263D01*
X174088209Y-65285109D01*
X174083239Y-65290080D01*
X174083239Y-65337924D01*
X174088245Y-65384476D01*
X174088246Y-65410985D01*
X174082739Y-65462210D01*
X174082739Y-65837949D01*
X174082740Y-65837954D01*
X174087994Y-65886826D01*
X174087994Y-65913330D01*
X174085251Y-65938834D01*
X174058516Y-66003384D01*
X174001125Y-66043234D01*
X173961963Y-66049580D01*
X131500177Y-66049580D01*
X131433138Y-66029895D01*
X131412496Y-66013261D01*
X129197159Y-63797924D01*
X170984241Y-63797924D01*
X170990642Y-63857452D01*
X170990644Y-63857459D01*
X171040886Y-63992166D01*
X171040890Y-63992173D01*
X171127050Y-64107267D01*
X171127053Y-64107270D01*
X171242147Y-64193430D01*
X171242154Y-64193434D01*
X171376861Y-64243676D01*
X171376868Y-64243678D01*
X171436396Y-64250079D01*
X171436413Y-64250080D01*
X172234241Y-64250080D01*
X172734241Y-64250080D01*
X173532069Y-64250080D01*
X173532085Y-64250079D01*
X173591613Y-64243678D01*
X173591620Y-64243676D01*
X173726327Y-64193434D01*
X173726334Y-64193430D01*
X173841428Y-64107270D01*
X173841431Y-64107267D01*
X173927591Y-63992173D01*
X173927595Y-63992166D01*
X173977837Y-63857459D01*
X173977839Y-63857452D01*
X173984240Y-63797924D01*
X173984241Y-63797907D01*
X173984241Y-63100080D01*
X172734241Y-63100080D01*
X172734241Y-64250080D01*
X172234241Y-64250080D01*
X172234241Y-63100080D01*
X170984241Y-63100080D01*
X170984241Y-63797924D01*
X129197159Y-63797924D01*
X93886818Y-28487583D01*
X93872114Y-28460655D01*
X93855522Y-28434837D01*
X93854630Y-28428636D01*
X93853333Y-28426260D01*
X93850499Y-28399902D01*
X93850499Y-28249096D01*
X93870184Y-28182057D01*
X93922988Y-28136302D01*
X93992146Y-28126358D01*
X94055702Y-28155383D01*
G37*
%TD.AperFunction*%
%TA.AperFunction,Conductor*%
G36*
X170895763Y-38970423D02*
G01*
X170941518Y-39023227D01*
X170952724Y-39074738D01*
X170952724Y-39300238D01*
X173952724Y-39300238D01*
X173952724Y-39074738D01*
X173972409Y-39007699D01*
X174025213Y-38961944D01*
X174076724Y-38950738D01*
X180398670Y-38950738D01*
X180465709Y-38970423D01*
X180486351Y-38987057D01*
X181987351Y-40488057D01*
X182020836Y-40549380D01*
X182015852Y-40619072D01*
X181973980Y-40675005D01*
X181908516Y-40699422D01*
X181899670Y-40699738D01*
X175112655Y-40699738D01*
X175074354Y-40707356D01*
X175050165Y-40709738D01*
X174503853Y-40709738D01*
X174503847Y-40709739D01*
X174444240Y-40716146D01*
X174309395Y-40766440D01*
X174309388Y-40766444D01*
X174194179Y-40852690D01*
X174194176Y-40852693D01*
X174107930Y-40967902D01*
X174107926Y-40967909D01*
X174057634Y-41102751D01*
X174057633Y-41102755D01*
X174051224Y-41162365D01*
X174051224Y-41162372D01*
X174051224Y-41162373D01*
X174051224Y-41538107D01*
X174051225Y-41538114D01*
X174056731Y-41589331D01*
X174056730Y-41615839D01*
X174051725Y-41662391D01*
X174051724Y-41662410D01*
X174051724Y-41710238D01*
X174060399Y-41718913D01*
X174066738Y-41721278D01*
X174096180Y-41729923D01*
X174100364Y-41733818D01*
X174103449Y-41734969D01*
X174128406Y-41759925D01*
X174140384Y-41775925D01*
X174164803Y-41841389D01*
X174149953Y-41909662D01*
X174140384Y-41924551D01*
X174128406Y-41940551D01*
X174072472Y-41982421D01*
X174056694Y-41985267D01*
X174051724Y-41990238D01*
X174051724Y-42038082D01*
X174056730Y-42084634D01*
X174056731Y-42111143D01*
X174051224Y-42162368D01*
X174051224Y-42538107D01*
X174051225Y-42538112D01*
X174056479Y-42586984D01*
X174056479Y-42613488D01*
X174051224Y-42662365D01*
X174051224Y-42662370D01*
X174051224Y-42662371D01*
X174051224Y-43038107D01*
X174051225Y-43038112D01*
X174056479Y-43086984D01*
X174056479Y-43113488D01*
X174051224Y-43162365D01*
X174051224Y-43162370D01*
X174051224Y-43162371D01*
X174051224Y-43538107D01*
X174051225Y-43538112D01*
X174056479Y-43586984D01*
X174056479Y-43613488D01*
X174051224Y-43662365D01*
X174051224Y-43662370D01*
X174051224Y-43662371D01*
X174051224Y-44038107D01*
X174051225Y-44038112D01*
X174056479Y-44086984D01*
X174056479Y-44113488D01*
X174051224Y-44162365D01*
X174051224Y-44162370D01*
X174051224Y-44162371D01*
X174051224Y-44538107D01*
X174051225Y-44538112D01*
X174056479Y-44586984D01*
X174056479Y-44613488D01*
X174051224Y-44662365D01*
X174051224Y-44662370D01*
X174051224Y-44662371D01*
X174051224Y-45038107D01*
X174051225Y-45038112D01*
X174056479Y-45086984D01*
X174056479Y-45113488D01*
X174053736Y-45138992D01*
X174027001Y-45203542D01*
X173969610Y-45243392D01*
X173930448Y-45249738D01*
X142216021Y-45249738D01*
X142148982Y-45230053D01*
X142128340Y-45213419D01*
X137413003Y-40498082D01*
X170952724Y-40498082D01*
X170959125Y-40557610D01*
X170959127Y-40557617D01*
X171009369Y-40692324D01*
X171009373Y-40692331D01*
X171095533Y-40807425D01*
X171095536Y-40807428D01*
X171210630Y-40893588D01*
X171210637Y-40893592D01*
X171345344Y-40943834D01*
X171345351Y-40943836D01*
X171404879Y-40950237D01*
X171404896Y-40950238D01*
X172202724Y-40950238D01*
X172702724Y-40950238D01*
X173500552Y-40950238D01*
X173500568Y-40950237D01*
X173560096Y-40943836D01*
X173560103Y-40943834D01*
X173694810Y-40893592D01*
X173694817Y-40893588D01*
X173809911Y-40807428D01*
X173809914Y-40807425D01*
X173896074Y-40692331D01*
X173896078Y-40692324D01*
X173946320Y-40557617D01*
X173946322Y-40557610D01*
X173952723Y-40498082D01*
X173952724Y-40498065D01*
X173952724Y-39800238D01*
X172702724Y-39800238D01*
X172702724Y-40950238D01*
X172202724Y-40950238D01*
X172202724Y-39800238D01*
X170952724Y-39800238D01*
X170952724Y-40498082D01*
X137413003Y-40498082D01*
X136077340Y-39162419D01*
X136043855Y-39101096D01*
X136048839Y-39031404D01*
X136090711Y-38975471D01*
X136156175Y-38951054D01*
X136165021Y-38950738D01*
X170828724Y-38950738D01*
X170895763Y-38970423D01*
G37*
%TD.AperFunction*%
%TA.AperFunction,Conductor*%
G36*
X80766942Y-24120185D02*
G01*
X80787584Y-24136819D01*
X87563181Y-30912416D01*
X87596666Y-30973739D01*
X87599500Y-31000097D01*
X87599500Y-37775500D01*
X87579815Y-37842539D01*
X87527011Y-37888294D01*
X87475500Y-37899500D01*
X86652129Y-37899500D01*
X86652123Y-37899501D01*
X86592520Y-37905908D01*
X86584974Y-37907692D01*
X86584628Y-37906230D01*
X86523622Y-37910584D01*
X86508600Y-37906172D01*
X86507482Y-37905908D01*
X86447883Y-37899501D01*
X86447881Y-37899500D01*
X86447873Y-37899500D01*
X86447864Y-37899500D01*
X85552129Y-37899500D01*
X85552123Y-37899501D01*
X85492520Y-37905908D01*
X85484974Y-37907692D01*
X85484628Y-37906230D01*
X85423622Y-37910584D01*
X85408600Y-37906172D01*
X85407482Y-37905908D01*
X85347883Y-37899501D01*
X85347881Y-37899500D01*
X85347873Y-37899500D01*
X85347864Y-37899500D01*
X84452129Y-37899500D01*
X84452123Y-37899501D01*
X84392520Y-37905908D01*
X84384974Y-37907692D01*
X84384628Y-37906230D01*
X84323622Y-37910584D01*
X84308600Y-37906172D01*
X84307482Y-37905908D01*
X84247883Y-37899501D01*
X84247881Y-37899500D01*
X84247873Y-37899500D01*
X84247864Y-37899500D01*
X83352129Y-37899500D01*
X83352123Y-37899501D01*
X83292520Y-37905908D01*
X83284974Y-37907692D01*
X83284628Y-37906230D01*
X83223622Y-37910584D01*
X83208600Y-37906172D01*
X83207482Y-37905908D01*
X83147883Y-37899501D01*
X83147881Y-37899500D01*
X83147873Y-37899500D01*
X83147864Y-37899500D01*
X82252129Y-37899500D01*
X82252123Y-37899501D01*
X82192520Y-37905908D01*
X82184974Y-37907692D01*
X82184628Y-37906230D01*
X82123622Y-37910584D01*
X82108600Y-37906172D01*
X82107482Y-37905908D01*
X82047883Y-37899501D01*
X82047881Y-37899500D01*
X82047873Y-37899500D01*
X82047864Y-37899500D01*
X81152129Y-37899500D01*
X81152123Y-37899501D01*
X81092520Y-37905908D01*
X81084974Y-37907692D01*
X81084628Y-37906230D01*
X81023622Y-37910584D01*
X81008600Y-37906172D01*
X81007482Y-37905908D01*
X80947883Y-37899501D01*
X80947881Y-37899500D01*
X80947873Y-37899500D01*
X80947865Y-37899500D01*
X80474499Y-37899500D01*
X80407460Y-37879815D01*
X80361705Y-37827011D01*
X80350499Y-37775500D01*
X80350499Y-37052129D01*
X80350498Y-37052123D01*
X80349446Y-37042331D01*
X80344091Y-36992517D01*
X80344090Y-36992515D01*
X80344090Y-36992512D01*
X80342308Y-36984969D01*
X80343773Y-36984622D01*
X80339409Y-36923651D01*
X80343819Y-36908633D01*
X80344089Y-36907488D01*
X80344091Y-36907483D01*
X80350500Y-36847873D01*
X80350499Y-35952128D01*
X80344091Y-35892517D01*
X80344090Y-35892515D01*
X80344090Y-35892512D01*
X80342308Y-35884969D01*
X80343773Y-35884622D01*
X80339409Y-35823651D01*
X80343819Y-35808633D01*
X80344089Y-35807488D01*
X80344091Y-35807483D01*
X80350500Y-35747873D01*
X80350499Y-34852128D01*
X80344091Y-34792517D01*
X80344090Y-34792515D01*
X80344090Y-34792512D01*
X80342308Y-34784969D01*
X80343773Y-34784622D01*
X80339409Y-34723651D01*
X80343819Y-34708633D01*
X80344089Y-34707488D01*
X80344091Y-34707483D01*
X80350500Y-34647873D01*
X80350499Y-33752128D01*
X80344091Y-33692517D01*
X80344090Y-33692515D01*
X80344090Y-33692512D01*
X80342308Y-33684969D01*
X80343773Y-33684622D01*
X80339409Y-33623651D01*
X80343819Y-33608633D01*
X80344089Y-33607488D01*
X80344091Y-33607483D01*
X80350500Y-33547873D01*
X80350499Y-32652128D01*
X80344091Y-32592517D01*
X80344090Y-32592515D01*
X80344090Y-32592512D01*
X80342308Y-32584969D01*
X80343773Y-32584622D01*
X80339409Y-32523651D01*
X80343819Y-32508633D01*
X80344089Y-32507488D01*
X80344091Y-32507483D01*
X80350500Y-32447873D01*
X80350499Y-31552128D01*
X80344091Y-31492517D01*
X80344090Y-31492515D01*
X80344090Y-31492512D01*
X80342308Y-31484969D01*
X80343773Y-31484622D01*
X80339409Y-31423651D01*
X80343819Y-31408633D01*
X80344089Y-31407488D01*
X80344091Y-31407483D01*
X80350500Y-31347873D01*
X80350499Y-30452128D01*
X80344091Y-30392517D01*
X80344090Y-30392515D01*
X80344090Y-30392512D01*
X80342308Y-30384969D01*
X80343773Y-30384622D01*
X80339409Y-30323651D01*
X80343819Y-30308633D01*
X80344089Y-30307488D01*
X80344091Y-30307483D01*
X80350500Y-30247873D01*
X80350499Y-29352128D01*
X80344091Y-29292517D01*
X80344090Y-29292515D01*
X80343738Y-29291024D01*
X80343738Y-29289232D01*
X80343262Y-29284804D01*
X80343738Y-29284752D01*
X80343738Y-29240247D01*
X80343262Y-29240196D01*
X80343738Y-29235759D01*
X80343739Y-29233967D01*
X80344086Y-29232494D01*
X80344091Y-29232483D01*
X80350500Y-29172873D01*
X80350499Y-28227128D01*
X80344091Y-28167517D01*
X80344090Y-28167515D01*
X80343738Y-28166024D01*
X80343738Y-28164232D01*
X80343262Y-28159804D01*
X80343738Y-28159752D01*
X80343738Y-28115247D01*
X80343262Y-28115196D01*
X80343738Y-28110759D01*
X80343739Y-28108967D01*
X80344086Y-28107494D01*
X80344091Y-28107483D01*
X80350500Y-28047873D01*
X80350499Y-27152128D01*
X80344091Y-27092517D01*
X80344090Y-27092515D01*
X80344090Y-27092512D01*
X80342308Y-27084969D01*
X80343773Y-27084622D01*
X80339409Y-27023651D01*
X80343819Y-27008633D01*
X80344089Y-27007488D01*
X80344091Y-27007483D01*
X80350500Y-26947873D01*
X80350499Y-26052128D01*
X80344091Y-25992517D01*
X80344090Y-25992515D01*
X80344090Y-25992512D01*
X80342308Y-25984969D01*
X80343773Y-25984622D01*
X80339409Y-25923651D01*
X80343819Y-25908633D01*
X80344089Y-25907488D01*
X80344091Y-25907483D01*
X80350500Y-25847873D01*
X80350499Y-24952128D01*
X80344091Y-24892517D01*
X80344091Y-24892516D01*
X80342307Y-24884966D01*
X80343559Y-24884669D01*
X80339145Y-24822924D01*
X80343132Y-24809346D01*
X80343598Y-24807375D01*
X80349999Y-24747844D01*
X80350000Y-24747827D01*
X80350000Y-24550000D01*
X80098069Y-24550000D01*
X80054736Y-24542182D01*
X79957482Y-24505908D01*
X79957483Y-24505908D01*
X79897883Y-24499501D01*
X79897881Y-24499500D01*
X79897873Y-24499500D01*
X79897865Y-24499500D01*
X78602129Y-24499500D01*
X78602123Y-24499501D01*
X78542516Y-24505908D01*
X78445264Y-24542182D01*
X78401931Y-24550000D01*
X78150000Y-24550000D01*
X78150000Y-24747844D01*
X78156401Y-24807372D01*
X78158187Y-24814930D01*
X78156542Y-24815318D01*
X78160851Y-24875656D01*
X78155943Y-24892371D01*
X78155908Y-24892520D01*
X78149501Y-24952116D01*
X78149501Y-24952123D01*
X78149500Y-24952135D01*
X78149500Y-25847870D01*
X78149501Y-25847876D01*
X78155908Y-25907479D01*
X78157692Y-25915026D01*
X78156229Y-25915371D01*
X78160585Y-25976371D01*
X78156173Y-25991396D01*
X78155908Y-25992517D01*
X78149501Y-26052116D01*
X78149501Y-26052123D01*
X78149500Y-26052135D01*
X78149500Y-26947870D01*
X78149501Y-26947876D01*
X78155908Y-27007479D01*
X78157692Y-27015026D01*
X78156229Y-27015371D01*
X78160585Y-27076371D01*
X78156173Y-27091396D01*
X78155908Y-27092517D01*
X78149501Y-27152116D01*
X78149501Y-27152123D01*
X78149500Y-27152135D01*
X78149500Y-28047870D01*
X78149501Y-28047876D01*
X78155908Y-28107482D01*
X78156263Y-28108981D01*
X78156263Y-28110777D01*
X78156738Y-28115196D01*
X78156263Y-28115247D01*
X78156264Y-28159754D01*
X78156738Y-28159805D01*
X78156264Y-28164204D01*
X78156265Y-28166009D01*
X78155908Y-28167516D01*
X78149501Y-28227116D01*
X78149500Y-28227127D01*
X78149500Y-28670868D01*
X78149501Y-29075500D01*
X78129817Y-29142539D01*
X78077013Y-29188294D01*
X78025501Y-29199500D01*
X76999500Y-29199500D01*
X76932461Y-29179815D01*
X76886706Y-29127011D01*
X76875500Y-29075500D01*
X76875499Y-28199998D01*
X76875498Y-28199980D01*
X76864999Y-28097203D01*
X76864998Y-28097200D01*
X76848656Y-28047883D01*
X76809814Y-27930666D01*
X76717712Y-27781344D01*
X76593656Y-27657288D01*
X76444334Y-27565186D01*
X76277797Y-27510001D01*
X76277795Y-27510000D01*
X76175016Y-27499500D01*
X76175009Y-27499500D01*
X75049500Y-27499500D01*
X74982461Y-27479815D01*
X74936706Y-27427011D01*
X74925500Y-27375500D01*
X74925500Y-26823999D01*
X74945185Y-26756960D01*
X74997989Y-26711205D01*
X75049500Y-26699999D01*
X75250000Y-26699999D01*
X75750000Y-26699999D01*
X76174972Y-26699999D01*
X76174986Y-26699998D01*
X76277697Y-26689505D01*
X76444119Y-26634358D01*
X76444124Y-26634356D01*
X76593345Y-26542315D01*
X76717315Y-26418345D01*
X76809356Y-26269124D01*
X76809358Y-26269119D01*
X76864505Y-26102697D01*
X76864506Y-26102690D01*
X76874999Y-25999986D01*
X76875000Y-25999973D01*
X76875000Y-25800000D01*
X75750000Y-25800000D01*
X75750000Y-26699999D01*
X75250000Y-26699999D01*
X75250000Y-25674000D01*
X75269685Y-25606961D01*
X75322489Y-25561206D01*
X75374000Y-25550000D01*
X75500000Y-25550000D01*
X75500000Y-25424000D01*
X75519685Y-25356961D01*
X75572489Y-25311206D01*
X75624000Y-25300000D01*
X76874999Y-25300000D01*
X76874999Y-25100028D01*
X76874998Y-25100013D01*
X76864505Y-24997302D01*
X76809358Y-24830880D01*
X76809356Y-24830875D01*
X76717315Y-24681654D01*
X76593345Y-24557684D01*
X76444124Y-24465643D01*
X76444119Y-24465641D01*
X76277697Y-24410494D01*
X76277690Y-24410493D01*
X76174986Y-24400000D01*
X75748597Y-24400000D01*
X75727351Y-24393761D01*
X75705263Y-24392182D01*
X75694479Y-24384109D01*
X75681558Y-24380315D01*
X75667058Y-24363581D01*
X75649330Y-24350310D01*
X75644622Y-24337689D01*
X75635803Y-24327511D01*
X75632651Y-24305593D01*
X75624913Y-24284846D01*
X75627775Y-24271685D01*
X75625859Y-24258353D01*
X75635058Y-24238209D01*
X75639765Y-24216573D01*
X75653033Y-24198847D01*
X75654884Y-24194797D01*
X75660916Y-24188319D01*
X75712416Y-24136819D01*
X75773739Y-24103334D01*
X75800097Y-24100500D01*
X80699903Y-24100500D01*
X80766942Y-24120185D01*
G37*
%TD.AperFunction*%
%TA.AperFunction,Conductor*%
G36*
X119432628Y-24220185D02*
G01*
X119453270Y-24236819D01*
X119804270Y-24587819D01*
X119837755Y-24649142D01*
X119832771Y-24718834D01*
X119790899Y-24774767D01*
X119725435Y-24799184D01*
X119716589Y-24799500D01*
X93974000Y-24799500D01*
X93906961Y-24779815D01*
X93861206Y-24727011D01*
X93850000Y-24675500D01*
X93850000Y-24550000D01*
X93598069Y-24550000D01*
X93554736Y-24542182D01*
X93457482Y-24505908D01*
X93457483Y-24505908D01*
X93397883Y-24499501D01*
X93397881Y-24499500D01*
X93397873Y-24499500D01*
X93397865Y-24499500D01*
X92874000Y-24499500D01*
X92865314Y-24496949D01*
X92856353Y-24498238D01*
X92832312Y-24487259D01*
X92806961Y-24479815D01*
X92801033Y-24472974D01*
X92792797Y-24469213D01*
X92778507Y-24446978D01*
X92761206Y-24427011D01*
X92758918Y-24416496D01*
X92755023Y-24410435D01*
X92750000Y-24375500D01*
X92750000Y-24324500D01*
X92769685Y-24257461D01*
X92822489Y-24211706D01*
X92874000Y-24200500D01*
X119365589Y-24200500D01*
X119432628Y-24220185D01*
G37*
%TD.AperFunction*%
%TD*%
%TA.AperFunction,Conductor*%
%TO.N,/Right/GND*%
G36*
X236628355Y-67820265D02*
G01*
X236648997Y-67836899D01*
X237062678Y-68250580D01*
X237380690Y-68568591D01*
X237414175Y-68629914D01*
X237409191Y-68699605D01*
X237367319Y-68755539D01*
X237358106Y-68761811D01*
X237243842Y-68832289D01*
X237119789Y-68956342D01*
X237027687Y-69105663D01*
X237027686Y-69105666D01*
X236972501Y-69272203D01*
X236972501Y-69272204D01*
X236972500Y-69272204D01*
X236962000Y-69374983D01*
X236962000Y-70275001D01*
X236962001Y-70275019D01*
X236972500Y-70377796D01*
X236972501Y-70377799D01*
X237027685Y-70544331D01*
X237027687Y-70544336D01*
X237047213Y-70575992D01*
X237119787Y-70693655D01*
X237119789Y-70693657D01*
X237123295Y-70698091D01*
X237149434Y-70762887D01*
X237136392Y-70831529D01*
X237123295Y-70851909D01*
X237119789Y-70856342D01*
X237027687Y-71005663D01*
X237027686Y-71005666D01*
X236972501Y-71172203D01*
X236972501Y-71172204D01*
X236972500Y-71172204D01*
X236962000Y-71274983D01*
X236962000Y-72175001D01*
X236962001Y-72175019D01*
X236972500Y-72277796D01*
X236972501Y-72277799D01*
X237001819Y-72366273D01*
X237027686Y-72444334D01*
X237119788Y-72593656D01*
X237243844Y-72717712D01*
X237393166Y-72809814D01*
X237559703Y-72864999D01*
X237662491Y-72875500D01*
X238587402Y-72875499D01*
X238654441Y-72895183D01*
X238675083Y-72911818D01*
X239243324Y-73480059D01*
X239276809Y-73541382D01*
X239271825Y-73611074D01*
X239229953Y-73667007D01*
X239164489Y-73691424D01*
X239121979Y-73686113D01*
X239121914Y-73686418D01*
X239118402Y-73685666D01*
X239116640Y-73685446D01*
X239115299Y-73685001D01*
X239115295Y-73685000D01*
X239012510Y-73674500D01*
X237662498Y-73674500D01*
X237662481Y-73674501D01*
X237559703Y-73685000D01*
X237559700Y-73685001D01*
X237393168Y-73740185D01*
X237393163Y-73740187D01*
X237243842Y-73832289D01*
X237119789Y-73956342D01*
X237027687Y-74105663D01*
X237027685Y-74105668D01*
X237011173Y-74155499D01*
X236972501Y-74272203D01*
X236972501Y-74272204D01*
X236972500Y-74272204D01*
X236962000Y-74374983D01*
X236962000Y-75275001D01*
X236962001Y-75275019D01*
X236972500Y-75377796D01*
X236972501Y-75377799D01*
X237015438Y-75507372D01*
X237027686Y-75544334D01*
X237119788Y-75693656D01*
X237243844Y-75817712D01*
X237393166Y-75909814D01*
X237559703Y-75964999D01*
X237625603Y-75971731D01*
X237690294Y-75998127D01*
X237730445Y-76055307D01*
X237737000Y-76095089D01*
X237737000Y-77125500D01*
X237717315Y-77192539D01*
X237664511Y-77238294D01*
X237613000Y-77249500D01*
X231724500Y-77249500D01*
X231657461Y-77229815D01*
X231611706Y-77177011D01*
X231600500Y-77125500D01*
X231600500Y-68920945D01*
X231600500Y-68920943D01*
X231570271Y-68808127D01*
X231559577Y-68768215D01*
X231519904Y-68699500D01*
X231480520Y-68631284D01*
X231368716Y-68519480D01*
X231364385Y-68515149D01*
X231364374Y-68515139D01*
X230861496Y-68012261D01*
X230828011Y-67950938D01*
X230832995Y-67881246D01*
X230874867Y-67825313D01*
X230940331Y-67800896D01*
X230949177Y-67800580D01*
X236561316Y-67800580D01*
X236628355Y-67820265D01*
G37*
%TD.AperFunction*%
%TA.AperFunction,Conductor*%
G36*
X295150329Y-15483770D02*
G01*
X296879959Y-15508924D01*
X296882761Y-15508997D01*
X298611339Y-15573225D01*
X298613993Y-15573353D01*
X300340823Y-15676635D01*
X300343509Y-15676827D01*
X302067508Y-15819098D01*
X302070189Y-15819349D01*
X303790520Y-16000540D01*
X303793226Y-16000856D01*
X305509013Y-16220873D01*
X305511730Y-16221253D01*
X307222079Y-16479981D01*
X307224756Y-16480417D01*
X308928872Y-16777736D01*
X308931551Y-16778235D01*
X310122292Y-17013828D01*
X310628442Y-17113972D01*
X310631185Y-17114547D01*
X312320059Y-17488542D01*
X312322741Y-17489168D01*
X314002721Y-17901229D01*
X314005397Y-17901917D01*
X315675660Y-18351840D01*
X315678308Y-18352585D01*
X317337984Y-18840139D01*
X317340635Y-18840950D01*
X318504508Y-19211622D01*
X318988845Y-19365874D01*
X318991506Y-19366755D01*
X320147551Y-19763922D01*
X320627394Y-19928775D01*
X320630028Y-19929713D01*
X322252872Y-20528584D01*
X322255403Y-20529550D01*
X323392495Y-20978612D01*
X323864285Y-21164932D01*
X323866880Y-21165991D01*
X325460960Y-21837553D01*
X325463527Y-21838669D01*
X327042019Y-22546077D01*
X327044516Y-22547230D01*
X328151371Y-23073622D01*
X328606664Y-23290148D01*
X328609177Y-23291378D01*
X330154077Y-24069374D01*
X330156513Y-24070635D01*
X331683539Y-24883396D01*
X331685996Y-24884740D01*
X333194143Y-25731730D01*
X333196533Y-25733107D01*
X334554144Y-26536438D01*
X334685243Y-26614012D01*
X334687638Y-26615466D01*
X336156013Y-27529755D01*
X336158375Y-27531263D01*
X337605722Y-28478504D01*
X337608049Y-28480065D01*
X339033591Y-29459749D01*
X339035883Y-29461362D01*
X340438987Y-30473053D01*
X340441238Y-30474716D01*
X341818401Y-31515797D01*
X341825725Y-31521786D01*
X341962444Y-31642611D01*
X341973817Y-31654065D01*
X342091457Y-31789084D01*
X342101250Y-31801924D01*
X342200351Y-31951090D01*
X342208392Y-31965093D01*
X342287269Y-32125872D01*
X342293422Y-32140801D01*
X342350738Y-32310465D01*
X342354899Y-32326067D01*
X342389682Y-32501743D01*
X342391780Y-32517753D01*
X342403705Y-32700500D01*
X342403968Y-32708574D01*
X342403968Y-88476414D01*
X342403648Y-88485310D01*
X342389172Y-88686560D01*
X342386626Y-88704168D01*
X342344451Y-88896923D01*
X342339411Y-88913987D01*
X342270084Y-89098721D01*
X342262654Y-89114887D01*
X342167603Y-89287799D01*
X342157936Y-89302735D01*
X342039118Y-89460262D01*
X342027413Y-89473661D01*
X341887274Y-89612563D01*
X341873772Y-89624149D01*
X341715197Y-89741566D01*
X341700175Y-89751101D01*
X341526422Y-89844618D01*
X341510190Y-89851904D01*
X341320963Y-89921008D01*
X341311877Y-89923935D01*
X338541046Y-90700171D01*
X338539802Y-90700513D01*
X335756935Y-91448990D01*
X335755688Y-91449318D01*
X332965342Y-92168769D01*
X332964091Y-92169085D01*
X330166276Y-92859506D01*
X330165023Y-92859808D01*
X327360315Y-93521056D01*
X327359058Y-93521346D01*
X324547465Y-94153422D01*
X324546205Y-94153698D01*
X321728279Y-94756474D01*
X321727016Y-94756737D01*
X318902749Y-95330214D01*
X318902117Y-95330341D01*
X316634201Y-95778577D01*
X312583299Y-96607314D01*
X312219863Y-96681666D01*
X312103933Y-96705383D01*
X307580172Y-97662323D01*
X307580089Y-97662341D01*
X307580066Y-97662346D01*
X303062611Y-98649462D01*
X303062530Y-98649480D01*
X303062490Y-98649489D01*
X298551920Y-99666654D01*
X294047914Y-100713943D01*
X289551200Y-101791187D01*
X285061558Y-102898438D01*
X281079880Y-103908621D01*
X280579564Y-104035556D01*
X280579542Y-104035561D01*
X280579537Y-104035563D01*
X276105271Y-105202523D01*
X276105203Y-105202541D01*
X276105200Y-105202542D01*
X273871958Y-105800941D01*
X273808311Y-105817995D01*
X273808310Y-105817995D01*
X273474666Y-105907394D01*
X272958076Y-106045814D01*
X271140187Y-106570904D01*
X269332841Y-107131139D01*
X267536683Y-107726321D01*
X266642273Y-108042072D01*
X265752377Y-108356230D01*
X265752363Y-108356234D01*
X265752341Y-108356243D01*
X263980658Y-109020607D01*
X262222140Y-109719221D01*
X260477455Y-110451823D01*
X258747372Y-111218089D01*
X257032454Y-112017769D01*
X255333363Y-112850552D01*
X253650702Y-113716148D01*
X251985203Y-114614178D01*
X250337406Y-115544349D01*
X248707938Y-116506307D01*
X247097463Y-117499664D01*
X245506550Y-118524064D01*
X243935802Y-119579119D01*
X242385772Y-120664462D01*
X241252162Y-121491442D01*
X240857101Y-121779643D01*
X239531772Y-122786433D01*
X239350330Y-122924266D01*
X237866062Y-124097873D01*
X236404813Y-125300056D01*
X234967179Y-126530324D01*
X233553619Y-127788284D01*
X232164801Y-129073344D01*
X230801059Y-130385194D01*
X230178681Y-131007573D01*
X221127738Y-140058517D01*
X221127737Y-140058518D01*
X221084281Y-140101973D01*
X221077804Y-140108004D01*
X220926157Y-140239407D01*
X220911994Y-140250009D01*
X220746935Y-140356087D01*
X220731411Y-140364564D01*
X220632941Y-140409533D01*
X220552929Y-140446074D01*
X220536354Y-140452256D01*
X220348096Y-140507535D01*
X220330807Y-140511296D01*
X220136594Y-140539220D01*
X220118947Y-140540482D01*
X219922741Y-140540482D01*
X219905095Y-140539220D01*
X219710880Y-140511297D01*
X219693592Y-140507536D01*
X219505337Y-140452261D01*
X219488761Y-140446079D01*
X219310283Y-140364573D01*
X219294754Y-140356094D01*
X219129692Y-140250016D01*
X219115529Y-140239414D01*
X218963881Y-140108013D01*
X218957417Y-140101995D01*
X218913948Y-140058526D01*
X218913946Y-140058525D01*
X216226838Y-137371463D01*
X216226837Y-137371462D01*
X216226835Y-137371460D01*
X216226834Y-137371458D01*
X216041326Y-137185954D01*
X216041288Y-137185918D01*
X215551740Y-136748437D01*
X215405816Y-136632068D01*
X215038413Y-136339078D01*
X215038402Y-136339070D01*
X215038398Y-136339067D01*
X215038396Y-136339065D01*
X214502946Y-135959150D01*
X214502925Y-135959137D01*
X213947023Y-135609844D01*
X213946991Y-135609825D01*
X213372394Y-135292262D01*
X213372395Y-135292262D01*
X213372376Y-135292252D01*
X213372356Y-135292242D01*
X213372334Y-135292231D01*
X212780829Y-135007381D01*
X212174260Y-134756135D01*
X211554536Y-134539287D01*
X211554534Y-134539286D01*
X211554530Y-134539285D01*
X210923628Y-134357528D01*
X210923624Y-134357527D01*
X210923614Y-134357524D01*
X210283523Y-134211429D01*
X209636250Y-134101455D01*
X209636197Y-134101448D01*
X208983823Y-134027944D01*
X208983812Y-134027943D01*
X208983809Y-134027943D01*
X208328281Y-133991130D01*
X208328278Y-133991130D01*
X204624500Y-133991130D01*
X204557461Y-133971445D01*
X204511706Y-133918641D01*
X204500500Y-133867130D01*
X204500500Y-126275740D01*
X204500500Y-126275738D01*
X204466392Y-126148444D01*
X204400500Y-126034316D01*
X204307314Y-125941130D01*
X204250250Y-125908184D01*
X204193187Y-125875238D01*
X204129539Y-125858184D01*
X204065892Y-125841130D01*
X204065891Y-125841130D01*
X201874500Y-125841130D01*
X201807461Y-125821445D01*
X201761706Y-125768641D01*
X201750500Y-125717130D01*
X201750500Y-125634110D01*
X201750500Y-125634108D01*
X201716392Y-125506814D01*
X201650500Y-125392686D01*
X201620495Y-125362681D01*
X201587010Y-125301358D01*
X201591994Y-125231666D01*
X201620495Y-125187319D01*
X201650500Y-125157314D01*
X201716392Y-125043186D01*
X201750500Y-124915892D01*
X201750500Y-124784108D01*
X201716392Y-124656814D01*
X201650500Y-124542686D01*
X201620495Y-124512681D01*
X201587010Y-124451358D01*
X201591994Y-124381666D01*
X201620495Y-124337319D01*
X201650500Y-124307314D01*
X201716392Y-124193186D01*
X201750500Y-124065892D01*
X201750500Y-123934108D01*
X201716392Y-123806814D01*
X201650500Y-123692686D01*
X201620495Y-123662681D01*
X201587010Y-123601358D01*
X201591994Y-123531666D01*
X201620495Y-123487319D01*
X201650500Y-123457314D01*
X201716392Y-123343186D01*
X201750500Y-123215892D01*
X201750500Y-123084108D01*
X201716392Y-122956814D01*
X201650500Y-122842686D01*
X201620495Y-122812681D01*
X201587010Y-122751358D01*
X201591994Y-122681666D01*
X201620495Y-122637319D01*
X201650500Y-122607314D01*
X201716392Y-122493186D01*
X201750500Y-122365892D01*
X201750500Y-122234108D01*
X201716392Y-122106814D01*
X201650500Y-121992686D01*
X201557314Y-121899500D01*
X201557311Y-121899498D01*
X201550865Y-121894552D01*
X201552675Y-121892192D01*
X201514280Y-121851920D01*
X201500500Y-121795107D01*
X201500500Y-100204893D01*
X201520185Y-100137854D01*
X201552261Y-100107272D01*
X201550863Y-100105450D01*
X201557307Y-100100503D01*
X201557314Y-100100500D01*
X201650500Y-100007314D01*
X201716392Y-99893186D01*
X201750500Y-99765892D01*
X201750500Y-99634108D01*
X201716392Y-99506814D01*
X201650500Y-99392686D01*
X201620495Y-99362681D01*
X201587010Y-99301358D01*
X201591994Y-99231666D01*
X201620495Y-99187319D01*
X201650500Y-99157314D01*
X201716392Y-99043186D01*
X201750500Y-98915892D01*
X201750500Y-98784108D01*
X201716392Y-98656814D01*
X201650500Y-98542686D01*
X201620495Y-98512681D01*
X201587010Y-98451358D01*
X201591994Y-98381666D01*
X201620495Y-98337319D01*
X201650500Y-98307314D01*
X201716392Y-98193186D01*
X201750500Y-98065892D01*
X201750500Y-97934108D01*
X201716392Y-97806814D01*
X201650500Y-97692686D01*
X201620495Y-97662681D01*
X201587010Y-97601358D01*
X201591994Y-97531666D01*
X201620495Y-97487319D01*
X201650500Y-97457314D01*
X201716392Y-97343186D01*
X201750500Y-97215892D01*
X201750500Y-97084108D01*
X201716392Y-96956814D01*
X201650500Y-96842686D01*
X201620495Y-96812681D01*
X201587010Y-96751358D01*
X201591994Y-96681666D01*
X201620495Y-96637319D01*
X201650500Y-96607314D01*
X201716392Y-96493186D01*
X201750500Y-96365892D01*
X201750500Y-96234108D01*
X201716392Y-96106814D01*
X201650500Y-95992686D01*
X201557314Y-95899500D01*
X201557311Y-95899498D01*
X201550865Y-95894552D01*
X201552675Y-95892192D01*
X201514280Y-95851920D01*
X201500500Y-95795107D01*
X201500500Y-92024986D01*
X237962501Y-92024986D01*
X237972994Y-92127697D01*
X238028141Y-92294119D01*
X238028143Y-92294124D01*
X238120184Y-92443345D01*
X238244154Y-92567315D01*
X238393375Y-92659356D01*
X238393380Y-92659358D01*
X238559802Y-92714505D01*
X238559809Y-92714506D01*
X238662519Y-92724999D01*
X239112499Y-92724999D01*
X239612500Y-92724999D01*
X240062472Y-92724999D01*
X240062486Y-92724998D01*
X240165197Y-92714505D01*
X240331619Y-92659358D01*
X240331624Y-92659356D01*
X240480845Y-92567315D01*
X240524819Y-92523342D01*
X240586142Y-92489857D01*
X240655834Y-92494841D01*
X240700181Y-92523342D01*
X240744154Y-92567315D01*
X240893375Y-92659356D01*
X240893380Y-92659358D01*
X241059802Y-92714505D01*
X241059809Y-92714506D01*
X241162519Y-92724999D01*
X241612499Y-92724999D01*
X241612500Y-92724998D01*
X241612500Y-91812500D01*
X242112500Y-91812500D01*
X242112500Y-92724999D01*
X242562472Y-92724999D01*
X242562486Y-92724998D01*
X242665197Y-92714505D01*
X242831619Y-92659358D01*
X242831624Y-92659356D01*
X242980845Y-92567315D01*
X243049819Y-92498342D01*
X243111142Y-92464857D01*
X243180834Y-92469841D01*
X243225181Y-92498342D01*
X243269154Y-92542315D01*
X243418375Y-92634356D01*
X243418380Y-92634358D01*
X243584802Y-92689505D01*
X243584809Y-92689506D01*
X243687519Y-92699999D01*
X244112499Y-92699999D01*
X244612500Y-92699999D01*
X245037472Y-92699999D01*
X245037486Y-92699998D01*
X245140197Y-92689505D01*
X245306619Y-92634358D01*
X245306624Y-92634356D01*
X245455845Y-92542315D01*
X245579815Y-92418345D01*
X245671856Y-92269124D01*
X245671858Y-92269119D01*
X245727005Y-92102697D01*
X245727006Y-92102690D01*
X245737499Y-91999986D01*
X245737500Y-91999973D01*
X245737500Y-91800000D01*
X244612500Y-91800000D01*
X244612500Y-92699999D01*
X244112499Y-92699999D01*
X244112500Y-92699998D01*
X244112500Y-91800000D01*
X243372698Y-91800000D01*
X243354996Y-91809666D01*
X243328638Y-91812500D01*
X242112500Y-91812500D01*
X241612500Y-91812500D01*
X239612500Y-91812500D01*
X239612500Y-92724999D01*
X239112499Y-92724999D01*
X239112500Y-92724998D01*
X239112500Y-91812500D01*
X237962501Y-91812500D01*
X237962501Y-92024986D01*
X201500500Y-92024986D01*
X201500500Y-91100013D01*
X237962500Y-91100013D01*
X237962500Y-91312500D01*
X239112500Y-91312500D01*
X239612500Y-91312500D01*
X241612500Y-91312500D01*
X242112500Y-91312500D01*
X242877302Y-91312500D01*
X242895004Y-91302834D01*
X242921362Y-91300000D01*
X244112500Y-91300000D01*
X244612500Y-91300000D01*
X245737499Y-91300000D01*
X245737499Y-91100028D01*
X245737498Y-91100013D01*
X245727005Y-90997302D01*
X245671858Y-90830880D01*
X245671856Y-90830875D01*
X245579815Y-90681654D01*
X245455845Y-90557684D01*
X245306624Y-90465643D01*
X245306619Y-90465641D01*
X245140197Y-90410494D01*
X245140190Y-90410493D01*
X245037486Y-90400000D01*
X244612500Y-90400000D01*
X244612500Y-91300000D01*
X244112500Y-91300000D01*
X244112500Y-90400000D01*
X243687528Y-90400000D01*
X243687512Y-90400001D01*
X243584802Y-90410494D01*
X243418380Y-90465641D01*
X243418375Y-90465643D01*
X243269157Y-90557682D01*
X243212681Y-90614158D01*
X243151357Y-90647642D01*
X243081665Y-90642657D01*
X243037319Y-90614158D01*
X242980842Y-90557682D01*
X242831624Y-90465643D01*
X242831619Y-90465641D01*
X242665197Y-90410494D01*
X242665190Y-90410493D01*
X242562486Y-90400000D01*
X242112500Y-90400000D01*
X242112500Y-91312500D01*
X241612500Y-91312500D01*
X241612500Y-90400000D01*
X241162528Y-90400000D01*
X241162512Y-90400001D01*
X241059802Y-90410494D01*
X240893380Y-90465641D01*
X240893375Y-90465643D01*
X240744154Y-90557684D01*
X240700181Y-90601658D01*
X240638858Y-90635143D01*
X240569166Y-90630159D01*
X240524819Y-90601658D01*
X240480845Y-90557684D01*
X240331624Y-90465643D01*
X240331619Y-90465641D01*
X240165197Y-90410494D01*
X240165190Y-90410493D01*
X240062486Y-90400000D01*
X239612500Y-90400000D01*
X239612500Y-91312500D01*
X239112500Y-91312500D01*
X239112500Y-90400000D01*
X238662528Y-90400000D01*
X238662512Y-90400001D01*
X238559802Y-90410494D01*
X238393380Y-90465641D01*
X238393375Y-90465643D01*
X238244154Y-90557684D01*
X238120184Y-90681654D01*
X238028143Y-90830875D01*
X238028141Y-90830880D01*
X237972994Y-90997302D01*
X237972993Y-90997309D01*
X237962500Y-91100013D01*
X201500500Y-91100013D01*
X201500500Y-87567632D01*
X212441708Y-87567632D01*
X212470369Y-87608563D01*
X212537884Y-87686691D01*
X212537893Y-87686700D01*
X212678518Y-87791391D01*
X212839508Y-87860835D01*
X213012167Y-87891279D01*
X213187191Y-87881085D01*
X213187198Y-87881083D01*
X213355154Y-87830802D01*
X213355160Y-87830799D01*
X213445308Y-87780485D01*
X214182533Y-87264274D01*
X213752352Y-86649910D01*
X213752351Y-86649910D01*
X212441709Y-87567632D01*
X212441708Y-87567632D01*
X201500500Y-87567632D01*
X201500500Y-86683968D01*
X212015456Y-86683968D01*
X212015456Y-86683969D01*
X212025650Y-86858993D01*
X212025652Y-86859000D01*
X212075933Y-87026956D01*
X212075936Y-87026962D01*
X212126249Y-87117109D01*
X212126259Y-87117125D01*
X212154919Y-87158057D01*
X212154920Y-87158057D01*
X213290208Y-86363121D01*
X214161926Y-86363121D01*
X214161926Y-86363122D01*
X214592108Y-86977486D01*
X214592109Y-86977486D01*
X215329338Y-86461273D01*
X215329339Y-86461272D01*
X215407449Y-86393770D01*
X215407453Y-86393766D01*
X215512148Y-86253133D01*
X215581591Y-86092147D01*
X215612035Y-85919489D01*
X215612035Y-85919488D01*
X215601841Y-85744464D01*
X215601839Y-85744457D01*
X215551558Y-85576501D01*
X215551555Y-85576495D01*
X215501242Y-85486348D01*
X215501232Y-85486333D01*
X215472571Y-85445399D01*
X215472570Y-85445399D01*
X214161926Y-86363121D01*
X213290208Y-86363121D01*
X213393783Y-86290597D01*
X213465564Y-86240335D01*
X213465564Y-86240334D01*
X213035382Y-85625971D01*
X212298149Y-86142188D01*
X212220042Y-86209687D01*
X212220038Y-86209691D01*
X212115343Y-86350324D01*
X212045900Y-86511310D01*
X212015456Y-86683968D01*
X201500500Y-86683968D01*
X201500500Y-85339182D01*
X213444956Y-85339182D01*
X213875138Y-85953546D01*
X213875139Y-85953546D01*
X215185782Y-85035825D01*
X215185782Y-85035824D01*
X215157122Y-84994895D01*
X215157114Y-84994884D01*
X215089607Y-84916766D01*
X215089598Y-84916757D01*
X214948973Y-84812066D01*
X214787983Y-84742622D01*
X214615324Y-84712178D01*
X214440300Y-84722372D01*
X214440293Y-84722374D01*
X214272337Y-84772655D01*
X214272331Y-84772658D01*
X214182171Y-84822978D01*
X213444957Y-85339181D01*
X213444956Y-85339182D01*
X201500500Y-85339182D01*
X201500500Y-83928417D01*
X214413668Y-83928417D01*
X214415259Y-83930346D01*
X214543249Y-84033252D01*
X214692811Y-84101097D01*
X214692810Y-84101097D01*
X214854536Y-84129611D01*
X215018286Y-84117013D01*
X215173755Y-84064087D01*
X215205588Y-84045336D01*
X215205590Y-84045335D01*
X215627987Y-83749567D01*
X215312522Y-83299034D01*
X215312521Y-83299034D01*
X214413668Y-83928417D01*
X201500500Y-83928417D01*
X201500500Y-83512830D01*
X209602505Y-83512830D01*
X209631166Y-83553761D01*
X209698681Y-83631889D01*
X209698690Y-83631898D01*
X209839315Y-83736589D01*
X210000305Y-83806033D01*
X210172964Y-83836477D01*
X210347988Y-83826283D01*
X210347995Y-83826281D01*
X210515951Y-83776000D01*
X210515957Y-83775997D01*
X210606105Y-83725683D01*
X211343330Y-83209472D01*
X210913149Y-82595108D01*
X210913148Y-82595108D01*
X209602506Y-83512830D01*
X209602505Y-83512830D01*
X201500500Y-83512830D01*
X201500500Y-82629166D01*
X209176253Y-82629166D01*
X209176253Y-82629167D01*
X209186447Y-82804191D01*
X209186449Y-82804198D01*
X209236730Y-82972154D01*
X209236733Y-82972160D01*
X209287046Y-83062307D01*
X209287056Y-83062323D01*
X209315716Y-83103255D01*
X209315717Y-83103255D01*
X210451005Y-82308319D01*
X211322723Y-82308319D01*
X211322723Y-82308320D01*
X211752905Y-82922684D01*
X211752906Y-82922684D01*
X212490135Y-82406471D01*
X212490136Y-82406470D01*
X212568246Y-82338968D01*
X212568250Y-82338964D01*
X212672945Y-82198331D01*
X212683651Y-82173512D01*
X213342616Y-82173512D01*
X213342616Y-82173514D01*
X213342616Y-82173515D01*
X213345147Y-82206403D01*
X213355225Y-82337389D01*
X213355226Y-82337391D01*
X213408189Y-82492969D01*
X213408190Y-82492970D01*
X213408191Y-82492972D01*
X213426964Y-82524843D01*
X213674398Y-82878215D01*
X213674403Y-82878221D01*
X213697927Y-82906759D01*
X213697928Y-82906760D01*
X213826012Y-83009741D01*
X213826013Y-83009741D01*
X213826014Y-83009742D01*
X213968013Y-83074156D01*
X213982794Y-83080861D01*
X213981907Y-83082814D01*
X214030941Y-83115347D01*
X214059035Y-83179320D01*
X214059448Y-83189704D01*
X214059491Y-83189701D01*
X214072688Y-83361228D01*
X214125612Y-83516686D01*
X214125613Y-83516690D01*
X214126880Y-83518841D01*
X215128947Y-82817188D01*
X215195153Y-82794861D01*
X215262920Y-82811871D01*
X215301645Y-82847640D01*
X215373915Y-82950852D01*
X215477128Y-82878582D01*
X215543334Y-82856255D01*
X215611102Y-82873265D01*
X215649827Y-82909033D01*
X216037564Y-83462779D01*
X216459959Y-83167015D01*
X216488476Y-83143508D01*
X216591381Y-83015520D01*
X216659224Y-82865961D01*
X216660850Y-82856742D01*
X216691876Y-82794139D01*
X216751823Y-82758249D01*
X216821657Y-82760465D01*
X216870647Y-82790593D01*
X219999543Y-85919488D01*
X222932224Y-88852169D01*
X222980056Y-88900001D01*
X223022832Y-88942777D01*
X223129366Y-89013961D01*
X223129372Y-89013964D01*
X223129373Y-89013965D01*
X223247756Y-89063001D01*
X223247760Y-89063001D01*
X223247761Y-89063002D01*
X223373428Y-89088000D01*
X223373431Y-89088000D01*
X235151571Y-89088000D01*
X235236115Y-89071182D01*
X235277244Y-89063001D01*
X235395627Y-89013965D01*
X235412341Y-89002797D01*
X235502169Y-88942777D01*
X237137319Y-87307627D01*
X237198642Y-87274142D01*
X237268334Y-87279126D01*
X237312681Y-87307627D01*
X237925681Y-87920627D01*
X237959166Y-87981950D01*
X237962000Y-88008308D01*
X237962000Y-88900001D01*
X237962001Y-88900019D01*
X237972500Y-89002796D01*
X237972501Y-89002798D01*
X238004287Y-89098721D01*
X238027686Y-89169334D01*
X238119788Y-89318656D01*
X238243844Y-89442712D01*
X238393166Y-89534814D01*
X238559703Y-89589999D01*
X238662491Y-89600500D01*
X240062508Y-89600499D01*
X240165297Y-89589999D01*
X240331834Y-89534814D01*
X240481156Y-89442712D01*
X240524819Y-89399049D01*
X240586142Y-89365564D01*
X240655834Y-89370548D01*
X240700181Y-89399049D01*
X240743844Y-89442712D01*
X240893166Y-89534814D01*
X241059703Y-89589999D01*
X241162491Y-89600500D01*
X242562508Y-89600499D01*
X242665297Y-89589999D01*
X242831834Y-89534814D01*
X242981156Y-89442712D01*
X243037319Y-89386549D01*
X243098642Y-89353064D01*
X243168334Y-89358048D01*
X243212681Y-89386549D01*
X243268844Y-89442712D01*
X243418166Y-89534814D01*
X243584703Y-89589999D01*
X243687491Y-89600500D01*
X245037508Y-89600499D01*
X245140297Y-89589999D01*
X245306834Y-89534814D01*
X245456156Y-89442712D01*
X245580212Y-89318656D01*
X245672314Y-89169334D01*
X245727499Y-89002797D01*
X245738000Y-88900009D01*
X245737999Y-87999992D01*
X245727499Y-87897203D01*
X245672314Y-87730666D01*
X245580212Y-87581344D01*
X245456156Y-87457288D01*
X245306834Y-87365186D01*
X245140297Y-87310001D01*
X245140295Y-87310000D01*
X245037510Y-87299500D01*
X243687498Y-87299500D01*
X243687481Y-87299501D01*
X243584703Y-87310000D01*
X243584700Y-87310001D01*
X243418168Y-87365185D01*
X243418163Y-87365187D01*
X243268842Y-87457289D01*
X243225178Y-87500952D01*
X243163855Y-87534436D01*
X243094163Y-87529450D01*
X243049818Y-87500950D01*
X242981157Y-87432289D01*
X242981156Y-87432288D01*
X242831834Y-87340186D01*
X242665297Y-87285001D01*
X242665295Y-87285000D01*
X242562516Y-87274500D01*
X242562509Y-87274500D01*
X241670808Y-87274500D01*
X241603769Y-87254815D01*
X241583127Y-87238181D01*
X241099319Y-86754373D01*
X241084615Y-86727445D01*
X241068023Y-86701627D01*
X241067131Y-86695426D01*
X241065834Y-86693050D01*
X241063000Y-86666692D01*
X241063000Y-86490515D01*
X241080268Y-86427394D01*
X241100153Y-86393770D01*
X241164244Y-86285398D01*
X241210098Y-86127569D01*
X241213000Y-86090694D01*
X241213000Y-84924500D01*
X241215550Y-84915814D01*
X241214262Y-84906853D01*
X241225240Y-84882812D01*
X241232685Y-84857461D01*
X241239525Y-84851533D01*
X241243287Y-84843297D01*
X241265521Y-84829007D01*
X241285489Y-84811706D01*
X241296003Y-84809418D01*
X241302065Y-84805523D01*
X241337000Y-84800500D01*
X241388000Y-84800500D01*
X241455039Y-84820185D01*
X241500794Y-84872989D01*
X241512000Y-84924500D01*
X241512000Y-86090701D01*
X241514901Y-86127567D01*
X241514902Y-86127573D01*
X241560754Y-86285393D01*
X241560755Y-86285396D01*
X241644417Y-86426862D01*
X241644423Y-86426870D01*
X241760629Y-86543076D01*
X241760633Y-86543079D01*
X241760635Y-86543081D01*
X241902102Y-86626744D01*
X241943724Y-86638836D01*
X242059926Y-86672597D01*
X242059929Y-86672597D01*
X242059931Y-86672598D01*
X242096806Y-86675500D01*
X242096814Y-86675500D01*
X242528186Y-86675500D01*
X242528194Y-86675500D01*
X242565069Y-86672598D01*
X242565071Y-86672597D01*
X242565073Y-86672597D01*
X242606691Y-86660505D01*
X242722898Y-86626744D01*
X242864365Y-86543081D01*
X242980581Y-86426865D01*
X243064244Y-86285398D01*
X243110098Y-86127569D01*
X243113000Y-86090694D01*
X243113000Y-84784306D01*
X243110098Y-84747431D01*
X243108547Y-84742093D01*
X243064245Y-84589606D01*
X243064244Y-84589603D01*
X243064244Y-84589602D01*
X242980581Y-84448135D01*
X242980268Y-84447605D01*
X242963000Y-84384484D01*
X242963000Y-81420807D01*
X242982685Y-81353768D01*
X242999314Y-81333130D01*
X244070627Y-80261817D01*
X244131950Y-80228333D01*
X244158308Y-80225499D01*
X244161894Y-80225499D01*
X244161904Y-80225499D01*
X244196656Y-80222765D01*
X244345387Y-80179555D01*
X244478698Y-80100715D01*
X244588215Y-79991198D01*
X244667055Y-79857887D01*
X244710265Y-79709156D01*
X244713000Y-79674405D01*
X244712999Y-79325596D01*
X244710265Y-79290844D01*
X244667055Y-79142113D01*
X244589096Y-79010292D01*
X244584244Y-79002087D01*
X244585647Y-79001256D01*
X244563484Y-78944789D01*
X244563000Y-78933839D01*
X244563000Y-73455472D01*
X244538002Y-73329805D01*
X244538001Y-73329804D01*
X244538001Y-73329800D01*
X244488965Y-73211417D01*
X244488964Y-73211416D01*
X244488961Y-73211410D01*
X244417777Y-73104876D01*
X244405067Y-73092166D01*
X244327169Y-73014268D01*
X243119713Y-71806812D01*
X239307630Y-67994727D01*
X239302921Y-67990863D01*
X239304485Y-67988956D01*
X239266627Y-67943650D01*
X239257924Y-67874325D01*
X239288082Y-67811299D01*
X239315229Y-67788628D01*
X239430845Y-67717315D01*
X239554815Y-67593345D01*
X239646856Y-67444124D01*
X239646858Y-67444119D01*
X239702005Y-67277697D01*
X239702006Y-67277690D01*
X239712499Y-67174986D01*
X239712500Y-67174973D01*
X239712500Y-66975000D01*
X238461500Y-66975000D01*
X238394461Y-66955315D01*
X238348706Y-66902511D01*
X238337500Y-66851000D01*
X238337500Y-66725000D01*
X238211500Y-66725000D01*
X238144461Y-66705315D01*
X238098706Y-66652511D01*
X238087500Y-66601000D01*
X238087500Y-66475000D01*
X238587500Y-66475000D01*
X239712499Y-66475000D01*
X239712499Y-66275028D01*
X239712498Y-66275013D01*
X239702005Y-66172302D01*
X239646858Y-66005880D01*
X239646856Y-66005875D01*
X239554815Y-65856654D01*
X239430845Y-65732684D01*
X239281624Y-65640643D01*
X239281619Y-65640641D01*
X239115197Y-65585494D01*
X239115190Y-65585493D01*
X239012486Y-65575000D01*
X238587500Y-65575000D01*
X238587500Y-66475000D01*
X238087500Y-66475000D01*
X238087500Y-65575000D01*
X237662528Y-65575000D01*
X237662512Y-65575001D01*
X237559802Y-65585494D01*
X237393380Y-65640641D01*
X237393375Y-65640643D01*
X237244154Y-65732684D01*
X237120184Y-65856654D01*
X237028143Y-66005875D01*
X237028141Y-66005880D01*
X236972994Y-66172302D01*
X236972993Y-66172309D01*
X236962500Y-66275013D01*
X236962500Y-66375580D01*
X236942815Y-66442619D01*
X236890011Y-66488374D01*
X236838500Y-66499580D01*
X227455097Y-66499580D01*
X227388058Y-66479895D01*
X227342303Y-66427091D01*
X227332359Y-66357933D01*
X227361384Y-66294377D01*
X227367416Y-66287899D01*
X227798661Y-65856654D01*
X229114506Y-64540807D01*
X229114511Y-64540804D01*
X229124714Y-64530600D01*
X229124716Y-64530600D01*
X229236520Y-64418796D01*
X229299185Y-64310256D01*
X229315577Y-64281865D01*
X229356500Y-64129138D01*
X229356500Y-63971023D01*
X229356500Y-45598298D01*
X229356501Y-45598285D01*
X229356501Y-45430182D01*
X229356501Y-45430181D01*
X229315577Y-45277454D01*
X229311122Y-45269737D01*
X229236524Y-45140528D01*
X229236518Y-45140520D01*
X226084590Y-41988593D01*
X226084588Y-41988590D01*
X225965717Y-41869719D01*
X225965712Y-41869715D01*
X225919499Y-41843034D01*
X225913097Y-41836320D01*
X225904498Y-41832842D01*
X225889370Y-41811436D01*
X225871283Y-41792467D01*
X225868456Y-41781843D01*
X225864174Y-41775783D01*
X225859719Y-41748999D01*
X225857619Y-41741103D01*
X225857499Y-41738378D01*
X225857499Y-41662366D01*
X225851827Y-41609603D01*
X225851655Y-41605694D01*
X225852245Y-41603299D01*
X225852245Y-41586984D01*
X225853120Y-41578846D01*
X225857500Y-41538111D01*
X225857499Y-41162366D01*
X225851091Y-41102755D01*
X225808928Y-40989711D01*
X225800797Y-40967909D01*
X225800793Y-40967902D01*
X225714547Y-40852693D01*
X225714544Y-40852690D01*
X225599335Y-40766444D01*
X225599328Y-40766440D01*
X225464482Y-40716146D01*
X225464483Y-40716146D01*
X225404883Y-40709739D01*
X225404881Y-40709738D01*
X225404873Y-40709738D01*
X225404864Y-40709738D01*
X224059129Y-40709738D01*
X224059123Y-40709739D01*
X223999516Y-40716146D01*
X223930416Y-40741920D01*
X223887083Y-40749738D01*
X217805179Y-40749738D01*
X217757727Y-40740299D01*
X217733501Y-40730264D01*
X217733489Y-40730261D01*
X217578845Y-40699500D01*
X217578842Y-40699500D01*
X217421158Y-40699500D01*
X217421155Y-40699500D01*
X217266510Y-40730261D01*
X217266498Y-40730264D01*
X217120827Y-40790602D01*
X217120814Y-40790609D01*
X216989711Y-40878210D01*
X216989707Y-40878213D01*
X216878213Y-40989707D01*
X216878210Y-40989711D01*
X216790609Y-41120814D01*
X216790602Y-41120827D01*
X216730264Y-41266498D01*
X216730261Y-41266510D01*
X216699500Y-41421153D01*
X216699500Y-41578846D01*
X216730261Y-41733489D01*
X216730264Y-41733501D01*
X216790602Y-41879172D01*
X216790609Y-41879185D01*
X216878210Y-42010288D01*
X216878213Y-42010292D01*
X216989707Y-42121786D01*
X216989711Y-42121789D01*
X217120814Y-42209390D01*
X217120827Y-42209397D01*
X217256450Y-42265573D01*
X217266503Y-42269737D01*
X217386736Y-42293653D01*
X217421153Y-42300499D01*
X217421156Y-42300500D01*
X217421158Y-42300500D01*
X217578843Y-42300500D01*
X217595304Y-42297225D01*
X217644568Y-42287426D01*
X217714158Y-42293653D01*
X217769336Y-42336515D01*
X217783320Y-42361589D01*
X217790606Y-42379179D01*
X217790609Y-42379185D01*
X217878210Y-42510288D01*
X217878213Y-42510292D01*
X217989707Y-42621786D01*
X217989711Y-42621789D01*
X218120814Y-42709390D01*
X218120827Y-42709397D01*
X218219879Y-42750425D01*
X218266503Y-42769737D01*
X218371418Y-42790606D01*
X218421153Y-42800499D01*
X218421156Y-42800500D01*
X218421158Y-42800500D01*
X218578844Y-42800500D01*
X218578845Y-42800499D01*
X218733497Y-42769737D01*
X218780121Y-42750424D01*
X218849588Y-42742956D01*
X218912067Y-42774231D01*
X218947720Y-42834319D01*
X218945227Y-42904144D01*
X218915254Y-42952666D01*
X218878214Y-42989706D01*
X218878210Y-42989711D01*
X218790609Y-43120814D01*
X218790602Y-43120827D01*
X218730264Y-43266498D01*
X218730261Y-43266510D01*
X218699500Y-43421153D01*
X218699500Y-43578846D01*
X218730261Y-43733489D01*
X218730264Y-43733501D01*
X218790602Y-43879172D01*
X218790609Y-43879185D01*
X218878210Y-44010288D01*
X218878213Y-44010292D01*
X218989707Y-44121786D01*
X218989711Y-44121789D01*
X219120814Y-44209390D01*
X219120827Y-44209397D01*
X219266498Y-44269735D01*
X219266503Y-44269737D01*
X219421153Y-44300499D01*
X219421156Y-44300500D01*
X219575500Y-44300500D01*
X219642539Y-44320185D01*
X219688294Y-44372989D01*
X219699500Y-44424500D01*
X219699500Y-44578846D01*
X219730261Y-44733489D01*
X219730264Y-44733501D01*
X219790602Y-44879172D01*
X219790609Y-44879185D01*
X219878210Y-45010288D01*
X219878213Y-45010292D01*
X219989707Y-45121786D01*
X219989711Y-45121789D01*
X220120814Y-45209390D01*
X220120827Y-45209397D01*
X220266498Y-45269735D01*
X220266503Y-45269737D01*
X220421153Y-45300499D01*
X220421156Y-45300500D01*
X220575500Y-45300500D01*
X220642539Y-45320185D01*
X220688294Y-45372989D01*
X220699500Y-45424500D01*
X220699500Y-45578846D01*
X220730261Y-45733489D01*
X220730264Y-45733501D01*
X220790602Y-45879172D01*
X220790609Y-45879185D01*
X220878210Y-46010288D01*
X220878213Y-46010292D01*
X220989707Y-46121786D01*
X220989711Y-46121789D01*
X221120814Y-46209390D01*
X221120827Y-46209397D01*
X221256450Y-46265573D01*
X221266503Y-46269737D01*
X221372464Y-46290814D01*
X221421153Y-46300499D01*
X221421156Y-46300500D01*
X221421158Y-46300500D01*
X221578843Y-46300500D01*
X221595304Y-46297225D01*
X221644568Y-46287426D01*
X221714158Y-46293653D01*
X221769336Y-46336515D01*
X221783320Y-46361589D01*
X221790606Y-46379179D01*
X221790609Y-46379185D01*
X221878210Y-46510288D01*
X221878213Y-46510292D01*
X221989707Y-46621786D01*
X221989711Y-46621789D01*
X222120814Y-46709390D01*
X222120827Y-46709397D01*
X222266498Y-46769735D01*
X222266503Y-46769737D01*
X222421153Y-46800499D01*
X222421156Y-46800500D01*
X222575500Y-46800500D01*
X222642539Y-46820185D01*
X222688294Y-46872989D01*
X222699500Y-46924500D01*
X222699500Y-47078846D01*
X222730261Y-47233489D01*
X222730264Y-47233501D01*
X222790602Y-47379172D01*
X222790609Y-47379185D01*
X222878210Y-47510288D01*
X222878213Y-47510292D01*
X222989707Y-47621786D01*
X222989711Y-47621789D01*
X223120814Y-47709390D01*
X223120827Y-47709397D01*
X223257215Y-47765890D01*
X223266503Y-47769737D01*
X223421153Y-47800499D01*
X223421156Y-47800500D01*
X223421158Y-47800500D01*
X223578844Y-47800500D01*
X223578845Y-47800499D01*
X223733497Y-47769737D01*
X223879179Y-47709394D01*
X223889657Y-47702393D01*
X225956000Y-47702393D01*
X225956000Y-48400238D01*
X227206000Y-48400238D01*
X227206000Y-47250238D01*
X226408155Y-47250238D01*
X226348627Y-47256639D01*
X226348620Y-47256641D01*
X226213913Y-47306883D01*
X226213906Y-47306887D01*
X226098812Y-47393047D01*
X226098809Y-47393050D01*
X226012649Y-47508144D01*
X226012645Y-47508151D01*
X225962403Y-47642858D01*
X225962401Y-47642865D01*
X225956000Y-47702393D01*
X223889657Y-47702393D01*
X224010289Y-47621789D01*
X224095022Y-47537055D01*
X224156343Y-47503572D01*
X224182702Y-47500738D01*
X224796070Y-47500738D01*
X224816184Y-47496736D01*
X224834364Y-47493119D01*
X224858557Y-47490737D01*
X225404871Y-47490737D01*
X225404872Y-47490737D01*
X225464483Y-47484329D01*
X225599331Y-47434034D01*
X225714546Y-47347784D01*
X225800796Y-47232569D01*
X225851091Y-47097721D01*
X225857500Y-47038111D01*
X225857499Y-46662366D01*
X225857498Y-46662363D01*
X225857498Y-46662350D01*
X225851993Y-46611149D01*
X225851993Y-46584636D01*
X225856999Y-46538079D01*
X225857000Y-46538065D01*
X225857000Y-46490238D01*
X225848324Y-46481562D01*
X225841985Y-46479197D01*
X225812544Y-46470553D01*
X225808359Y-46466657D01*
X225805275Y-46465507D01*
X225780318Y-46440551D01*
X225768340Y-46424551D01*
X225743921Y-46359087D01*
X225758771Y-46290814D01*
X225768340Y-46275925D01*
X225780318Y-46259925D01*
X225836252Y-46218055D01*
X225852029Y-46215208D01*
X225857000Y-46210238D01*
X225857000Y-46162410D01*
X225856999Y-46162396D01*
X225851993Y-46115839D01*
X225851993Y-46089331D01*
X225857500Y-46038111D01*
X225857499Y-45662366D01*
X225852245Y-45613490D01*
X225852245Y-45586984D01*
X225853120Y-45578846D01*
X225857500Y-45538111D01*
X225857499Y-45162366D01*
X225852245Y-45113490D01*
X225852245Y-45086984D01*
X225852554Y-45084110D01*
X225857500Y-45038111D01*
X225857499Y-44662366D01*
X225852245Y-44613490D01*
X225852245Y-44586984D01*
X225853120Y-44578846D01*
X225857500Y-44538111D01*
X225857499Y-44162366D01*
X225852245Y-44113490D01*
X225852245Y-44086984D01*
X225857500Y-44038111D01*
X225857499Y-43759334D01*
X225877183Y-43692296D01*
X225929987Y-43646541D01*
X225999146Y-43636597D01*
X226062701Y-43665622D01*
X226069180Y-43671654D01*
X228119181Y-45721654D01*
X228152666Y-45782977D01*
X228155500Y-45809335D01*
X228155500Y-47126238D01*
X228135815Y-47193277D01*
X228083011Y-47239032D01*
X228031500Y-47250238D01*
X227706000Y-47250238D01*
X227706000Y-52600160D01*
X228031500Y-52600160D01*
X228098539Y-52619845D01*
X228144294Y-52672649D01*
X228155500Y-52724160D01*
X228155500Y-58776160D01*
X228135815Y-58843199D01*
X228083011Y-58888954D01*
X228031500Y-58900160D01*
X227706000Y-58900160D01*
X227706000Y-64199483D01*
X227686315Y-64266522D01*
X227669681Y-64287164D01*
X226069180Y-65887664D01*
X226007857Y-65921149D01*
X225938165Y-65916165D01*
X225882232Y-65874293D01*
X225857815Y-65808829D01*
X225857499Y-65800008D01*
X225857499Y-65462208D01*
X225857498Y-65462206D01*
X225857498Y-65462192D01*
X225851993Y-65410991D01*
X225851993Y-65384478D01*
X225856999Y-65337921D01*
X225857000Y-65337907D01*
X225857000Y-65290080D01*
X225848324Y-65281404D01*
X225841985Y-65279039D01*
X225812544Y-65270395D01*
X225808359Y-65266499D01*
X225805275Y-65265349D01*
X225780318Y-65240393D01*
X225768340Y-65224393D01*
X225743921Y-65158929D01*
X225758771Y-65090656D01*
X225768340Y-65075767D01*
X225780318Y-65059767D01*
X225836252Y-65017897D01*
X225852029Y-65015050D01*
X225857000Y-65010080D01*
X225857000Y-64962252D01*
X225856999Y-64962238D01*
X225851993Y-64915681D01*
X225851993Y-64889173D01*
X225857500Y-64837953D01*
X225857499Y-64462208D01*
X225851091Y-64402597D01*
X225808037Y-64287164D01*
X225800797Y-64267751D01*
X225800793Y-64267744D01*
X225714547Y-64152535D01*
X225714544Y-64152532D01*
X225599335Y-64066286D01*
X225599328Y-64066282D01*
X225464482Y-64015988D01*
X225464483Y-64015988D01*
X225404883Y-64009581D01*
X225404881Y-64009580D01*
X225404873Y-64009580D01*
X225404865Y-64009580D01*
X224858554Y-64009580D01*
X224834363Y-64007197D01*
X224818518Y-64004045D01*
X224796070Y-63999580D01*
X224796069Y-63999580D01*
X224183020Y-63999580D01*
X224115981Y-63979895D01*
X224095343Y-63963265D01*
X224010289Y-63878211D01*
X224010288Y-63878210D01*
X224010287Y-63878209D01*
X223890133Y-63797924D01*
X225956000Y-63797924D01*
X225962401Y-63857452D01*
X225962403Y-63857459D01*
X226012645Y-63992166D01*
X226012649Y-63992173D01*
X226098809Y-64107267D01*
X226098812Y-64107270D01*
X226213906Y-64193430D01*
X226213913Y-64193434D01*
X226348620Y-64243676D01*
X226348627Y-64243678D01*
X226408155Y-64250079D01*
X226408172Y-64250080D01*
X227206000Y-64250080D01*
X227206000Y-63100080D01*
X225956000Y-63100080D01*
X225956000Y-63797924D01*
X223890133Y-63797924D01*
X223879185Y-63790609D01*
X223879172Y-63790602D01*
X223733501Y-63730264D01*
X223733489Y-63730261D01*
X223578845Y-63699500D01*
X223578842Y-63699500D01*
X223421158Y-63699500D01*
X223421155Y-63699500D01*
X223266510Y-63730261D01*
X223266498Y-63730264D01*
X223120827Y-63790602D01*
X223120814Y-63790609D01*
X222989711Y-63878210D01*
X222989707Y-63878213D01*
X222878213Y-63989707D01*
X222878210Y-63989711D01*
X222790609Y-64120814D01*
X222790602Y-64120827D01*
X222730264Y-64266498D01*
X222730261Y-64266510D01*
X222699500Y-64421153D01*
X222699500Y-64575500D01*
X222679815Y-64642539D01*
X222627011Y-64688294D01*
X222575500Y-64699500D01*
X222421155Y-64699500D01*
X222266510Y-64730261D01*
X222266498Y-64730264D01*
X222120827Y-64790602D01*
X222120814Y-64790609D01*
X221989711Y-64878210D01*
X221989707Y-64878213D01*
X221878213Y-64989707D01*
X221878210Y-64989711D01*
X221790609Y-65120814D01*
X221790603Y-65120826D01*
X221783319Y-65138411D01*
X221739477Y-65192814D01*
X221673182Y-65214877D01*
X221644568Y-65212573D01*
X221578846Y-65199500D01*
X221578842Y-65199500D01*
X221421158Y-65199500D01*
X221421155Y-65199500D01*
X221266510Y-65230261D01*
X221266498Y-65230264D01*
X221120827Y-65290602D01*
X221120814Y-65290609D01*
X220989711Y-65378210D01*
X220989707Y-65378213D01*
X220878213Y-65489707D01*
X220878210Y-65489711D01*
X220790609Y-65620814D01*
X220790602Y-65620827D01*
X220730264Y-65766498D01*
X220730261Y-65766510D01*
X220699501Y-65921149D01*
X220699500Y-65921155D01*
X220699500Y-66075500D01*
X220679815Y-66142539D01*
X220627011Y-66188294D01*
X220575500Y-66199500D01*
X220421155Y-66199500D01*
X220266510Y-66230261D01*
X220266498Y-66230264D01*
X220120827Y-66290602D01*
X220120814Y-66290609D01*
X219989711Y-66378210D01*
X219989707Y-66378213D01*
X219878213Y-66489707D01*
X219878210Y-66489711D01*
X219790609Y-66620814D01*
X219790602Y-66620827D01*
X219739061Y-66745261D01*
X219695220Y-66799665D01*
X219628926Y-66821730D01*
X219561227Y-66804451D01*
X219513616Y-66753314D01*
X219500500Y-66697809D01*
X219500500Y-61248004D01*
X225956000Y-61248004D01*
X225962401Y-61307532D01*
X225962403Y-61307539D01*
X226012645Y-61442246D01*
X226012647Y-61442248D01*
X226056485Y-61500809D01*
X226080902Y-61566273D01*
X226066051Y-61634546D01*
X226056485Y-61649431D01*
X226012647Y-61707991D01*
X226012645Y-61707993D01*
X225962403Y-61842700D01*
X225962401Y-61842707D01*
X225956000Y-61902235D01*
X225956000Y-62600080D01*
X227206000Y-62600080D01*
X227206000Y-60550160D01*
X225956000Y-60550160D01*
X225956000Y-61248004D01*
X219500500Y-61248004D01*
X219500500Y-59352315D01*
X225956000Y-59352315D01*
X225956000Y-60050160D01*
X227206000Y-60050160D01*
X227206000Y-58900160D01*
X226408155Y-58900160D01*
X226348627Y-58906561D01*
X226348620Y-58906563D01*
X226213913Y-58956805D01*
X226213906Y-58956809D01*
X226098812Y-59042969D01*
X226098809Y-59042972D01*
X226012649Y-59158066D01*
X226012645Y-59158073D01*
X225962403Y-59292780D01*
X225962401Y-59292787D01*
X225956000Y-59352315D01*
X219500500Y-59352315D01*
X219500500Y-56302190D01*
X219520185Y-56235151D01*
X219572989Y-56189396D01*
X219642147Y-56179452D01*
X219705703Y-56208477D01*
X219739061Y-56254738D01*
X219790602Y-56379172D01*
X219790609Y-56379185D01*
X219878210Y-56510288D01*
X219878213Y-56510292D01*
X219989707Y-56621786D01*
X219989711Y-56621789D01*
X220120814Y-56709390D01*
X220120827Y-56709397D01*
X220225316Y-56752677D01*
X220266503Y-56769737D01*
X220421153Y-56800499D01*
X220421156Y-56800500D01*
X220575500Y-56800500D01*
X220642539Y-56820185D01*
X220688294Y-56872989D01*
X220699500Y-56924500D01*
X220699500Y-57078846D01*
X220730261Y-57233489D01*
X220730264Y-57233501D01*
X220790602Y-57379172D01*
X220790609Y-57379185D01*
X220878210Y-57510288D01*
X220878213Y-57510292D01*
X220989707Y-57621786D01*
X220989711Y-57621789D01*
X221120814Y-57709390D01*
X221120827Y-57709397D01*
X221256904Y-57765761D01*
X221266503Y-57769737D01*
X221421153Y-57800499D01*
X221421156Y-57800500D01*
X221421158Y-57800500D01*
X221578841Y-57800500D01*
X221578842Y-57800500D01*
X221606238Y-57795050D01*
X221675827Y-57801276D01*
X221731005Y-57844137D01*
X221744991Y-57869215D01*
X221790602Y-57979332D01*
X221790609Y-57979345D01*
X221878210Y-58110448D01*
X221878213Y-58110452D01*
X221989707Y-58221946D01*
X221989711Y-58221949D01*
X222120814Y-58309550D01*
X222120827Y-58309557D01*
X222266498Y-58369895D01*
X222266503Y-58369897D01*
X222421153Y-58400659D01*
X222421156Y-58400660D01*
X222575500Y-58400660D01*
X222642539Y-58420345D01*
X222688294Y-58473149D01*
X222699500Y-58524660D01*
X222699500Y-58578846D01*
X222730261Y-58733489D01*
X222730264Y-58733501D01*
X222790602Y-58879172D01*
X222790609Y-58879185D01*
X222878210Y-59010288D01*
X222878213Y-59010292D01*
X222989707Y-59121786D01*
X222989711Y-59121789D01*
X223120814Y-59209390D01*
X223120827Y-59209397D01*
X223266498Y-59269735D01*
X223266503Y-59269737D01*
X223421153Y-59300499D01*
X223421156Y-59300500D01*
X223421158Y-59300500D01*
X223578844Y-59300500D01*
X223578845Y-59300499D01*
X223733497Y-59269737D01*
X223879179Y-59209394D01*
X223940789Y-59168227D01*
X223946064Y-59165397D01*
X223974633Y-59159400D01*
X224002483Y-59150680D01*
X224004696Y-59150660D01*
X224796070Y-59150660D01*
X224816184Y-59146658D01*
X224834364Y-59143041D01*
X224858557Y-59140659D01*
X225404871Y-59140659D01*
X225404872Y-59140659D01*
X225464483Y-59134251D01*
X225599331Y-59083956D01*
X225714546Y-58997706D01*
X225800796Y-58882491D01*
X225851091Y-58747643D01*
X225857500Y-58688033D01*
X225857499Y-58312288D01*
X225857498Y-58312285D01*
X225857498Y-58312272D01*
X225851993Y-58261071D01*
X225851993Y-58234558D01*
X225856999Y-58188001D01*
X225857000Y-58187987D01*
X225857000Y-58140160D01*
X225848324Y-58131484D01*
X225841985Y-58129119D01*
X225812544Y-58120475D01*
X225808359Y-58116579D01*
X225805275Y-58115429D01*
X225780318Y-58090473D01*
X225768340Y-58074473D01*
X225743921Y-58009009D01*
X225758771Y-57940736D01*
X225768340Y-57925847D01*
X225780318Y-57909847D01*
X225836252Y-57867977D01*
X225852029Y-57865130D01*
X225857000Y-57860160D01*
X225857000Y-57812332D01*
X225856999Y-57812318D01*
X225851993Y-57765761D01*
X225851993Y-57739253D01*
X225857500Y-57688033D01*
X225857499Y-57312288D01*
X225852245Y-57263412D01*
X225852245Y-57236906D01*
X225852611Y-57233501D01*
X225857500Y-57188033D01*
X225857499Y-56812288D01*
X225852245Y-56763412D01*
X225852245Y-56736906D01*
X225857500Y-56688033D01*
X225857499Y-56312288D01*
X225852245Y-56263412D01*
X225852245Y-56236906D01*
X225852434Y-56235151D01*
X225857500Y-56188033D01*
X225857499Y-55812288D01*
X225852245Y-55763412D01*
X225852245Y-55736906D01*
X225857500Y-55688033D01*
X225857499Y-55312288D01*
X225852245Y-55263412D01*
X225852245Y-55236906D01*
X225857500Y-55188033D01*
X225857499Y-54812288D01*
X225852245Y-54763412D01*
X225852245Y-54736906D01*
X225857500Y-54688033D01*
X225857499Y-54312288D01*
X225852245Y-54263412D01*
X225852245Y-54236906D01*
X225857500Y-54188033D01*
X225857499Y-53812288D01*
X225852245Y-53763412D01*
X225852245Y-53736906D01*
X225857500Y-53688033D01*
X225857499Y-53312288D01*
X225852245Y-53263412D01*
X225852245Y-53236906D01*
X225852611Y-53233501D01*
X225857500Y-53188033D01*
X225857499Y-52812288D01*
X225851091Y-52752677D01*
X225801909Y-52620814D01*
X225800797Y-52617831D01*
X225800793Y-52617824D01*
X225714547Y-52502615D01*
X225714544Y-52502612D01*
X225599335Y-52416366D01*
X225599328Y-52416362D01*
X225464482Y-52366068D01*
X225464483Y-52366068D01*
X225404883Y-52359661D01*
X225404881Y-52359660D01*
X225404873Y-52359660D01*
X225404864Y-52359660D01*
X224059129Y-52359660D01*
X224059123Y-52359661D01*
X223999516Y-52366068D01*
X223930416Y-52391842D01*
X223887083Y-52399660D01*
X218080005Y-52399660D01*
X218012966Y-52379975D01*
X218011114Y-52378762D01*
X217879185Y-52290609D01*
X217879172Y-52290602D01*
X217733501Y-52230264D01*
X217733489Y-52230261D01*
X217578845Y-52199500D01*
X217578842Y-52199500D01*
X217421158Y-52199500D01*
X217421155Y-52199500D01*
X217266510Y-52230261D01*
X217266498Y-52230264D01*
X217120827Y-52290602D01*
X217120814Y-52290609D01*
X216989711Y-52378210D01*
X216989707Y-52378213D01*
X216878213Y-52489707D01*
X216878210Y-52489711D01*
X216790609Y-52620814D01*
X216790602Y-52620827D01*
X216730264Y-52766498D01*
X216730261Y-52766510D01*
X216699500Y-52921153D01*
X216699500Y-53078846D01*
X216730261Y-53233489D01*
X216730264Y-53233501D01*
X216790602Y-53379172D01*
X216790609Y-53379185D01*
X216878210Y-53510288D01*
X216878213Y-53510292D01*
X216989707Y-53621786D01*
X216989711Y-53621789D01*
X217120814Y-53709390D01*
X217120827Y-53709397D01*
X217225316Y-53752677D01*
X217266503Y-53769737D01*
X217421153Y-53800499D01*
X217421156Y-53800500D01*
X217421158Y-53800500D01*
X217578841Y-53800500D01*
X217578842Y-53800500D01*
X217606238Y-53795050D01*
X217675827Y-53801276D01*
X217731005Y-53844137D01*
X217744991Y-53869215D01*
X217790602Y-53979332D01*
X217790609Y-53979345D01*
X217878210Y-54110448D01*
X217878213Y-54110452D01*
X217989707Y-54221946D01*
X217989711Y-54221949D01*
X218120814Y-54309550D01*
X218120826Y-54309557D01*
X218227114Y-54353581D01*
X218266503Y-54369897D01*
X218266504Y-54369897D01*
X218268696Y-54370805D01*
X218323100Y-54414645D01*
X218345165Y-54480939D01*
X218341019Y-54517459D01*
X218299499Y-54672414D01*
X218299499Y-54840517D01*
X218299500Y-54840530D01*
X218299500Y-68161859D01*
X218299499Y-68161877D01*
X218299499Y-68327583D01*
X218299498Y-68327583D01*
X218340423Y-68480315D01*
X218340424Y-68480316D01*
X218357729Y-68510289D01*
X218375730Y-68541468D01*
X218392203Y-68609366D01*
X218369351Y-68675393D01*
X218314430Y-68718584D01*
X218292536Y-68725084D01*
X218266507Y-68730261D01*
X218266498Y-68730264D01*
X218120827Y-68790602D01*
X218120814Y-68790609D01*
X217989711Y-68878210D01*
X217989707Y-68878213D01*
X217878213Y-68989707D01*
X217878210Y-68989711D01*
X217790609Y-69120814D01*
X217790603Y-69120826D01*
X217783319Y-69138411D01*
X217739477Y-69192814D01*
X217673182Y-69214877D01*
X217644568Y-69212573D01*
X217578846Y-69199500D01*
X217578842Y-69199500D01*
X217421158Y-69199500D01*
X217421155Y-69199500D01*
X217266510Y-69230261D01*
X217266498Y-69230264D01*
X217120827Y-69290602D01*
X217120814Y-69290609D01*
X216989711Y-69378210D01*
X216989707Y-69378213D01*
X216878213Y-69489707D01*
X216878210Y-69489711D01*
X216790609Y-69620814D01*
X216790602Y-69620827D01*
X216730264Y-69766498D01*
X216730261Y-69766510D01*
X216699500Y-69921153D01*
X216699500Y-70078846D01*
X216730261Y-70233489D01*
X216730264Y-70233501D01*
X216790602Y-70379172D01*
X216790609Y-70379185D01*
X216878210Y-70510288D01*
X216878213Y-70510292D01*
X216989707Y-70621786D01*
X216989711Y-70621789D01*
X217120814Y-70709390D01*
X217120827Y-70709397D01*
X217266498Y-70769735D01*
X217266503Y-70769737D01*
X217421153Y-70800499D01*
X217421156Y-70800500D01*
X217421158Y-70800500D01*
X217578844Y-70800500D01*
X217578845Y-70800499D01*
X217733497Y-70769737D01*
X217756958Y-70760018D01*
X217804411Y-70750580D01*
X223887083Y-70750580D01*
X223930416Y-70758398D01*
X223999517Y-70784171D01*
X223999516Y-70784171D01*
X224006444Y-70784915D01*
X224059127Y-70790580D01*
X225404872Y-70790579D01*
X225464483Y-70784171D01*
X225599331Y-70733876D01*
X225714546Y-70647626D01*
X225800796Y-70532411D01*
X225851091Y-70397563D01*
X225857500Y-70337953D01*
X225857499Y-69962208D01*
X225852245Y-69913332D01*
X225852245Y-69886826D01*
X225854409Y-69866698D01*
X225857500Y-69837953D01*
X225857499Y-69462208D01*
X225852245Y-69413332D01*
X225852245Y-69386828D01*
X225853171Y-69378213D01*
X225854987Y-69361325D01*
X225881723Y-69296776D01*
X225939114Y-69256926D01*
X225978276Y-69250580D01*
X228349983Y-69250580D01*
X228417022Y-69270265D01*
X228437664Y-69286899D01*
X229363181Y-70212416D01*
X229396666Y-70273739D01*
X229399500Y-70300097D01*
X229399500Y-71245337D01*
X229403304Y-71264464D01*
X229402780Y-71270314D01*
X229405013Y-71275748D01*
X229399701Y-71304716D01*
X229397075Y-71334055D01*
X229393470Y-71338695D01*
X229392411Y-71344472D01*
X229372280Y-71365971D01*
X229354210Y-71389232D01*
X229347631Y-71392295D01*
X229344656Y-71395474D01*
X229323381Y-71403590D01*
X229312010Y-71408887D01*
X229308950Y-71409658D01*
X229166091Y-71438075D01*
X229119096Y-71457540D01*
X229110324Y-71459753D01*
X229084086Y-71458740D01*
X229057981Y-71461547D01*
X229049728Y-71457415D01*
X229040506Y-71457060D01*
X229018981Y-71442024D01*
X228995502Y-71430271D01*
X228990792Y-71422334D01*
X228983227Y-71417049D01*
X228973248Y-71392762D01*
X228959851Y-71370182D01*
X228958037Y-71355743D01*
X228956673Y-71352422D01*
X228957235Y-71349354D01*
X228956000Y-71339518D01*
X228956000Y-71002252D01*
X228955999Y-71002235D01*
X228949598Y-70942707D01*
X228949596Y-70942700D01*
X228899354Y-70807993D01*
X228899350Y-70807986D01*
X228813190Y-70692892D01*
X228813187Y-70692889D01*
X228698093Y-70606729D01*
X228698086Y-70606725D01*
X228563379Y-70556483D01*
X228563372Y-70556481D01*
X228503844Y-70550080D01*
X227706000Y-70550080D01*
X227706000Y-74250000D01*
X228884029Y-74250000D01*
X228951068Y-74269685D01*
X228952919Y-74270897D01*
X229013116Y-74311119D01*
X229013122Y-74311121D01*
X229013123Y-74311122D01*
X229166076Y-74374476D01*
X229166078Y-74374477D01*
X229299694Y-74401054D01*
X229361602Y-74433438D01*
X229396176Y-74494154D01*
X229399500Y-74522671D01*
X229399500Y-76199902D01*
X229379815Y-76266941D01*
X229363181Y-76287583D01*
X228487584Y-77163181D01*
X228426261Y-77196666D01*
X228399903Y-77199500D01*
X225978276Y-77199500D01*
X225976073Y-77198853D01*
X225973848Y-77199421D01*
X225942706Y-77189055D01*
X225911237Y-77179815D01*
X225909734Y-77178080D01*
X225907554Y-77177355D01*
X225886958Y-77151795D01*
X225865482Y-77127011D01*
X225864705Y-77124180D01*
X225863714Y-77122950D01*
X225854986Y-77088752D01*
X225852245Y-77063252D01*
X225852245Y-77036746D01*
X225857500Y-76987873D01*
X225857499Y-76612128D01*
X225852245Y-76563252D01*
X225852245Y-76536746D01*
X225857500Y-76487873D01*
X225857499Y-76112128D01*
X225851091Y-76052517D01*
X225827664Y-75989707D01*
X225800797Y-75917671D01*
X225800793Y-75917664D01*
X225714547Y-75802455D01*
X225714544Y-75802452D01*
X225599335Y-75716206D01*
X225599328Y-75716202D01*
X225464482Y-75665908D01*
X225464483Y-75665908D01*
X225404883Y-75659501D01*
X225404881Y-75659500D01*
X225404873Y-75659500D01*
X225404864Y-75659500D01*
X224059129Y-75659500D01*
X224059123Y-75659501D01*
X223999516Y-75665908D01*
X223930416Y-75691682D01*
X223887083Y-75699500D01*
X217779062Y-75699500D01*
X217779058Y-75699499D01*
X217620943Y-75699499D01*
X217615014Y-75701087D01*
X217600862Y-75701218D01*
X217594692Y-75699467D01*
X217585000Y-75699150D01*
X217584907Y-75700097D01*
X217578845Y-75699500D01*
X217578842Y-75699500D01*
X217421158Y-75699500D01*
X217421155Y-75699500D01*
X217266510Y-75730261D01*
X217266498Y-75730264D01*
X217120827Y-75790602D01*
X217120814Y-75790609D01*
X216989711Y-75878210D01*
X216989707Y-75878213D01*
X216878213Y-75989707D01*
X216878210Y-75989711D01*
X216790609Y-76120814D01*
X216790602Y-76120827D01*
X216730264Y-76266498D01*
X216730261Y-76266510D01*
X216699500Y-76421153D01*
X216699500Y-76578846D01*
X216730261Y-76733489D01*
X216730264Y-76733501D01*
X216790602Y-76879172D01*
X216790609Y-76879185D01*
X216878210Y-77010288D01*
X216878213Y-77010292D01*
X216989707Y-77121786D01*
X216989711Y-77121789D01*
X217120814Y-77209390D01*
X217120827Y-77209397D01*
X217256450Y-77265573D01*
X217266503Y-77269737D01*
X217386736Y-77293653D01*
X217421153Y-77300499D01*
X217421156Y-77300500D01*
X217421158Y-77300500D01*
X217578843Y-77300500D01*
X217595304Y-77297225D01*
X217644568Y-77287426D01*
X217714158Y-77293653D01*
X217769336Y-77336515D01*
X217783320Y-77361589D01*
X217790606Y-77379179D01*
X217790609Y-77379185D01*
X217878210Y-77510288D01*
X217878213Y-77510292D01*
X217989707Y-77621786D01*
X217989711Y-77621789D01*
X218120814Y-77709390D01*
X218120827Y-77709397D01*
X218224652Y-77752402D01*
X218266503Y-77769737D01*
X218371418Y-77790606D01*
X218421153Y-77800499D01*
X218421156Y-77800500D01*
X218421158Y-77800500D01*
X218578844Y-77800500D01*
X218578845Y-77800499D01*
X218733497Y-77769737D01*
X218780121Y-77750424D01*
X218849588Y-77742956D01*
X218912067Y-77774231D01*
X218947720Y-77834319D01*
X218945227Y-77904144D01*
X218915254Y-77952666D01*
X218878214Y-77989706D01*
X218878210Y-77989711D01*
X218790609Y-78120814D01*
X218790602Y-78120827D01*
X218730264Y-78266498D01*
X218730261Y-78266510D01*
X218699500Y-78421153D01*
X218699500Y-78578846D01*
X218730261Y-78733489D01*
X218730264Y-78733501D01*
X218790602Y-78879172D01*
X218790609Y-78879185D01*
X218878210Y-79010288D01*
X218878213Y-79010292D01*
X218989707Y-79121786D01*
X218989711Y-79121789D01*
X219120814Y-79209390D01*
X219120827Y-79209397D01*
X219218853Y-79250000D01*
X219266503Y-79269737D01*
X219421153Y-79300499D01*
X219421156Y-79300500D01*
X219421158Y-79300500D01*
X219578844Y-79300500D01*
X219578845Y-79300499D01*
X219733497Y-79269737D01*
X219879179Y-79209394D01*
X220010289Y-79121789D01*
X220121789Y-79010289D01*
X220146712Y-78972989D01*
X220158325Y-78955610D01*
X220211937Y-78910804D01*
X220261427Y-78900500D01*
X223485724Y-78900500D01*
X223487926Y-78901146D01*
X223490152Y-78900579D01*
X223521293Y-78910944D01*
X223552763Y-78920185D01*
X223554265Y-78921919D01*
X223556446Y-78922645D01*
X223577041Y-78948204D01*
X223598518Y-78972989D01*
X223599294Y-78975819D01*
X223600286Y-78977050D01*
X223609014Y-79011248D01*
X223611755Y-79036748D01*
X223611755Y-79063250D01*
X223606500Y-79112127D01*
X223606500Y-79112132D01*
X223606500Y-79112133D01*
X223606500Y-79487869D01*
X223606501Y-79487874D01*
X223611755Y-79536746D01*
X223611755Y-79563250D01*
X223609012Y-79588754D01*
X223582277Y-79653304D01*
X223524886Y-79693154D01*
X223485724Y-79699500D01*
X221786670Y-79699500D01*
X221786654Y-79699499D01*
X221779058Y-79699499D01*
X221620943Y-79699499D01*
X221620939Y-79699499D01*
X221615902Y-79700162D01*
X221585000Y-79699150D01*
X221584907Y-79700097D01*
X221578845Y-79699500D01*
X221578842Y-79699500D01*
X221421158Y-79699500D01*
X221421155Y-79699500D01*
X221266510Y-79730261D01*
X221266498Y-79730264D01*
X221120827Y-79790602D01*
X221120814Y-79790609D01*
X220989711Y-79878210D01*
X220989707Y-79878213D01*
X220878213Y-79989707D01*
X220878210Y-79989711D01*
X220790609Y-80120814D01*
X220790602Y-80120827D01*
X220730264Y-80266498D01*
X220730261Y-80266510D01*
X220699500Y-80421153D01*
X220699500Y-80578846D01*
X220730261Y-80733489D01*
X220730264Y-80733501D01*
X220790602Y-80879172D01*
X220790609Y-80879185D01*
X220878210Y-81010288D01*
X220878213Y-81010292D01*
X220989707Y-81121786D01*
X220989711Y-81121789D01*
X221120814Y-81209390D01*
X221120827Y-81209397D01*
X221220060Y-81250500D01*
X221266503Y-81269737D01*
X221410757Y-81298431D01*
X221421153Y-81300499D01*
X221421156Y-81300500D01*
X221421158Y-81300500D01*
X221578843Y-81300500D01*
X221595304Y-81297225D01*
X221644568Y-81287426D01*
X221714158Y-81293653D01*
X221769336Y-81336515D01*
X221783320Y-81361589D01*
X221790606Y-81379179D01*
X221790609Y-81379185D01*
X221878210Y-81510288D01*
X221878213Y-81510292D01*
X221989707Y-81621786D01*
X221989711Y-81621789D01*
X222120814Y-81709390D01*
X222120827Y-81709397D01*
X222266498Y-81769735D01*
X222266503Y-81769737D01*
X222421153Y-81800499D01*
X222421156Y-81800500D01*
X222575500Y-81800500D01*
X222642539Y-81820185D01*
X222688294Y-81872989D01*
X222699500Y-81924500D01*
X222699500Y-82078846D01*
X222730261Y-82233489D01*
X222730264Y-82233501D01*
X222790602Y-82379172D01*
X222790609Y-82379185D01*
X222878210Y-82510288D01*
X222878213Y-82510292D01*
X222989707Y-82621786D01*
X222989711Y-82621789D01*
X223120814Y-82709390D01*
X223120827Y-82709397D01*
X223238768Y-82758249D01*
X223266503Y-82769737D01*
X223392809Y-82794861D01*
X223421153Y-82800499D01*
X223421156Y-82800500D01*
X223421158Y-82800500D01*
X223578844Y-82800500D01*
X223578845Y-82800499D01*
X223733497Y-82769737D01*
X223879179Y-82709394D01*
X223964843Y-82652155D01*
X225956000Y-82652155D01*
X225956000Y-83350000D01*
X227206000Y-83350000D01*
X227706000Y-83350000D01*
X228956000Y-83350000D01*
X228956000Y-82652172D01*
X228955999Y-82652155D01*
X228949598Y-82592627D01*
X228949596Y-82592620D01*
X228899354Y-82457913D01*
X228899350Y-82457906D01*
X228813190Y-82342812D01*
X228813187Y-82342809D01*
X228698093Y-82256649D01*
X228698086Y-82256645D01*
X228563379Y-82206403D01*
X228563372Y-82206401D01*
X228503844Y-82200000D01*
X227706000Y-82200000D01*
X227706000Y-83350000D01*
X227206000Y-83350000D01*
X227206000Y-82200000D01*
X226408155Y-82200000D01*
X226348627Y-82206401D01*
X226348620Y-82206403D01*
X226213913Y-82256645D01*
X226213906Y-82256649D01*
X226098812Y-82342809D01*
X226098809Y-82342812D01*
X226012649Y-82457906D01*
X226012645Y-82457913D01*
X225962403Y-82592620D01*
X225962401Y-82592627D01*
X225956000Y-82652155D01*
X223964843Y-82652155D01*
X224010289Y-82621789D01*
X224121789Y-82510289D01*
X224130511Y-82497235D01*
X224137388Y-82489871D01*
X224159136Y-82477010D01*
X224178525Y-82460806D01*
X224190894Y-82458230D01*
X224197529Y-82454307D01*
X224207886Y-82454692D01*
X224228018Y-82450500D01*
X224796070Y-82450500D01*
X224816184Y-82446498D01*
X224834364Y-82442881D01*
X224858557Y-82440499D01*
X225404871Y-82440499D01*
X225404872Y-82440499D01*
X225464483Y-82434091D01*
X225599331Y-82383796D01*
X225714546Y-82297546D01*
X225800796Y-82182331D01*
X225851091Y-82047483D01*
X225857500Y-81987873D01*
X225857499Y-81612128D01*
X225857498Y-81612125D01*
X225857498Y-81612112D01*
X225851993Y-81560911D01*
X225851993Y-81534398D01*
X225856999Y-81487841D01*
X225857000Y-81487827D01*
X225857000Y-81440000D01*
X225848324Y-81431324D01*
X225841985Y-81428959D01*
X225812544Y-81420315D01*
X225808359Y-81416419D01*
X225805275Y-81415269D01*
X225780318Y-81390313D01*
X225768340Y-81374313D01*
X225743921Y-81308849D01*
X225758771Y-81240576D01*
X225768340Y-81225687D01*
X225780318Y-81209687D01*
X225836252Y-81167817D01*
X225852029Y-81164970D01*
X225857000Y-81160000D01*
X225857000Y-81112172D01*
X225856999Y-81112158D01*
X225851993Y-81065601D01*
X225851993Y-81039093D01*
X225857500Y-80987873D01*
X225857499Y-80612128D01*
X225852245Y-80563252D01*
X225852245Y-80536748D01*
X225854987Y-80511245D01*
X225881723Y-80446696D01*
X225939114Y-80406846D01*
X225978276Y-80400500D01*
X229886123Y-80400500D01*
X229886139Y-80400501D01*
X229893735Y-80400501D01*
X230051846Y-80400501D01*
X230051849Y-80400501D01*
X230204577Y-80359577D01*
X230254696Y-80330639D01*
X230341508Y-80280520D01*
X230453312Y-80168716D01*
X230453312Y-80168714D01*
X230463520Y-80158507D01*
X230463521Y-80158504D01*
X231435208Y-79186819D01*
X231496531Y-79153334D01*
X231522889Y-79150500D01*
X235938893Y-79150500D01*
X236005932Y-79170185D01*
X236051687Y-79222989D01*
X236054394Y-79238305D01*
X236065205Y-79250000D01*
X236330685Y-79250000D01*
X236393806Y-79267268D01*
X236452102Y-79301744D01*
X236493724Y-79313836D01*
X236609926Y-79347597D01*
X236609929Y-79347597D01*
X236609931Y-79347598D01*
X236646806Y-79350500D01*
X237101000Y-79350500D01*
X237109685Y-79353050D01*
X237118647Y-79351762D01*
X237142687Y-79362740D01*
X237168039Y-79370185D01*
X237173966Y-79377025D01*
X237182203Y-79380787D01*
X237196492Y-79403021D01*
X237213794Y-79422989D01*
X237216081Y-79433503D01*
X237219977Y-79439565D01*
X237225000Y-79474500D01*
X237225000Y-79525500D01*
X237205315Y-79592539D01*
X237152511Y-79638294D01*
X237101000Y-79649500D01*
X236646798Y-79649500D01*
X236609932Y-79652401D01*
X236609926Y-79652402D01*
X236452106Y-79698254D01*
X236452103Y-79698255D01*
X236393806Y-79732732D01*
X236330685Y-79750000D01*
X236065205Y-79750000D01*
X236065204Y-79750001D01*
X236065399Y-79752488D01*
X236065400Y-79752494D01*
X236111216Y-79910193D01*
X236111220Y-79910203D01*
X236111927Y-79911398D01*
X236112195Y-79912454D01*
X236114316Y-79917356D01*
X236113524Y-79917698D01*
X236129103Y-79979123D01*
X236113493Y-80032284D01*
X236113855Y-80032441D01*
X236112587Y-80035369D01*
X236111927Y-80037620D01*
X236110759Y-80039594D01*
X236110754Y-80039607D01*
X236064902Y-80197426D01*
X236064901Y-80197432D01*
X236062000Y-80234298D01*
X236062000Y-80665701D01*
X236064901Y-80702567D01*
X236064902Y-80702573D01*
X236110754Y-80860393D01*
X236110755Y-80860396D01*
X236110756Y-80860398D01*
X236121859Y-80879172D01*
X236194232Y-81001550D01*
X236194418Y-81001864D01*
X236194423Y-81001870D01*
X236310629Y-81118076D01*
X236310633Y-81118079D01*
X236310635Y-81118081D01*
X236452102Y-81201744D01*
X236485093Y-81211328D01*
X236543979Y-81248933D01*
X236573187Y-81312405D01*
X236574500Y-81330405D01*
X236574500Y-85979192D01*
X236554815Y-86046231D01*
X236538181Y-86066873D01*
X234854373Y-87750681D01*
X234793050Y-87784166D01*
X234766692Y-87787000D01*
X223758307Y-87787000D01*
X223691268Y-87767315D01*
X223670626Y-87750681D01*
X220467790Y-84547844D01*
X225956000Y-84547844D01*
X225962401Y-84607372D01*
X225962403Y-84607379D01*
X226012645Y-84742086D01*
X226012649Y-84742093D01*
X226098809Y-84857187D01*
X226098812Y-84857190D01*
X226213906Y-84943350D01*
X226213913Y-84943354D01*
X226348620Y-84993596D01*
X226348627Y-84993598D01*
X226408155Y-84999999D01*
X226408172Y-85000000D01*
X227206000Y-85000000D01*
X227706000Y-85000000D01*
X228503828Y-85000000D01*
X228503844Y-84999999D01*
X228563372Y-84993598D01*
X228563379Y-84993596D01*
X228698086Y-84943354D01*
X228698093Y-84943350D01*
X228813187Y-84857190D01*
X228813190Y-84857187D01*
X228899350Y-84742093D01*
X228899354Y-84742086D01*
X228949596Y-84607379D01*
X228949598Y-84607372D01*
X228955999Y-84547844D01*
X228956000Y-84547827D01*
X228956000Y-83850000D01*
X227706000Y-83850000D01*
X227706000Y-85000000D01*
X227206000Y-85000000D01*
X227206000Y-83850000D01*
X225956000Y-83850000D01*
X225956000Y-84547844D01*
X220467790Y-84547844D01*
X219806265Y-83886319D01*
X217340535Y-81420588D01*
X217340534Y-81420587D01*
X217336167Y-81417669D01*
X217233988Y-81349396D01*
X217115605Y-81300360D01*
X217115599Y-81300358D01*
X216989932Y-81275361D01*
X216989930Y-81275361D01*
X215913931Y-81275361D01*
X215846892Y-81255676D01*
X215812356Y-81222485D01*
X215768603Y-81160000D01*
X215639494Y-80975613D01*
X215631798Y-80966277D01*
X215615964Y-80947068D01*
X215615963Y-80947067D01*
X215487879Y-80844086D01*
X215406398Y-80807125D01*
X215338203Y-80776190D01*
X215281121Y-80766124D01*
X215176343Y-80747649D01*
X215012482Y-80760258D01*
X215012472Y-80760260D01*
X214856889Y-80813224D01*
X214825023Y-80831995D01*
X213570575Y-81710368D01*
X213542037Y-81733894D01*
X213439051Y-81861982D01*
X213371156Y-82011656D01*
X213342616Y-82173512D01*
X212683651Y-82173512D01*
X212704088Y-82126136D01*
X212742388Y-82037345D01*
X212772832Y-81864687D01*
X212772832Y-81864686D01*
X212762638Y-81689662D01*
X212762636Y-81689655D01*
X212712355Y-81521699D01*
X212712352Y-81521693D01*
X212662039Y-81431546D01*
X212662029Y-81431531D01*
X212633368Y-81390597D01*
X212633367Y-81390597D01*
X211322723Y-82308319D01*
X210451005Y-82308319D01*
X210554580Y-82235795D01*
X210626361Y-82185533D01*
X210626361Y-82185532D01*
X210196179Y-81571169D01*
X209458946Y-82087386D01*
X209380839Y-82154885D01*
X209380835Y-82154889D01*
X209276140Y-82295522D01*
X209206697Y-82456508D01*
X209176253Y-82629166D01*
X201500500Y-82629166D01*
X201500500Y-81284380D01*
X210605753Y-81284380D01*
X211035935Y-81898744D01*
X211035936Y-81898744D01*
X212346579Y-80981023D01*
X212346579Y-80981022D01*
X212317919Y-80940093D01*
X212317911Y-80940082D01*
X212250404Y-80861964D01*
X212250395Y-80861955D01*
X212109770Y-80757264D01*
X211948780Y-80687820D01*
X211776121Y-80657376D01*
X211601097Y-80667570D01*
X211601090Y-80667572D01*
X211433134Y-80717853D01*
X211433128Y-80717856D01*
X211342968Y-80768176D01*
X210605754Y-81284379D01*
X210605753Y-81284380D01*
X201500500Y-81284380D01*
X201500500Y-75447844D01*
X225956000Y-75447844D01*
X225962401Y-75507372D01*
X225962403Y-75507379D01*
X226012645Y-75642086D01*
X226012649Y-75642093D01*
X226098809Y-75757187D01*
X226098812Y-75757190D01*
X226213906Y-75843350D01*
X226213913Y-75843354D01*
X226348620Y-75893596D01*
X226348627Y-75893598D01*
X226408155Y-75899999D01*
X226408172Y-75900000D01*
X227206000Y-75900000D01*
X227706000Y-75900000D01*
X228503828Y-75900000D01*
X228503844Y-75899999D01*
X228563372Y-75893598D01*
X228563379Y-75893596D01*
X228698086Y-75843354D01*
X228698093Y-75843350D01*
X228813187Y-75757190D01*
X228813190Y-75757187D01*
X228899350Y-75642093D01*
X228899354Y-75642086D01*
X228949596Y-75507379D01*
X228949598Y-75507372D01*
X228955999Y-75447844D01*
X228956000Y-75447827D01*
X228956000Y-74750000D01*
X227706000Y-74750000D01*
X227706000Y-75900000D01*
X227206000Y-75900000D01*
X227206000Y-74750000D01*
X225956000Y-74750000D01*
X225956000Y-75447844D01*
X201500500Y-75447844D01*
X201500500Y-74204893D01*
X201520185Y-74137854D01*
X201552261Y-74107272D01*
X201550863Y-74105450D01*
X201557307Y-74100503D01*
X201557314Y-74100500D01*
X201650500Y-74007314D01*
X201716392Y-73893186D01*
X201750500Y-73765892D01*
X201750500Y-73634108D01*
X201716392Y-73506814D01*
X201650500Y-73392686D01*
X201620495Y-73362681D01*
X201587010Y-73301358D01*
X201591994Y-73231666D01*
X201620495Y-73187319D01*
X201650500Y-73157314D01*
X201716392Y-73043186D01*
X201750500Y-72915892D01*
X201750500Y-72897924D01*
X225956000Y-72897924D01*
X225962401Y-72957452D01*
X225962403Y-72957459D01*
X226012645Y-73092166D01*
X226012647Y-73092168D01*
X226056485Y-73150729D01*
X226080902Y-73216193D01*
X226066051Y-73284466D01*
X226056485Y-73299351D01*
X226012647Y-73357911D01*
X226012645Y-73357913D01*
X225962403Y-73492620D01*
X225962401Y-73492627D01*
X225956000Y-73552155D01*
X225956000Y-74250000D01*
X227206000Y-74250000D01*
X227206000Y-72200080D01*
X225956000Y-72200080D01*
X225956000Y-72897924D01*
X201750500Y-72897924D01*
X201750500Y-72784108D01*
X201716392Y-72656814D01*
X201650500Y-72542686D01*
X201620495Y-72512681D01*
X201587010Y-72451358D01*
X201591994Y-72381666D01*
X201620495Y-72337319D01*
X201624684Y-72333130D01*
X201650500Y-72307314D01*
X201716392Y-72193186D01*
X201750500Y-72065892D01*
X201750500Y-71934108D01*
X201716392Y-71806814D01*
X201650500Y-71692686D01*
X201620495Y-71662681D01*
X201587010Y-71601358D01*
X201591994Y-71531666D01*
X201620495Y-71487319D01*
X201650500Y-71457314D01*
X201716392Y-71343186D01*
X201750500Y-71215892D01*
X201750500Y-71084108D01*
X201728562Y-71002235D01*
X225956000Y-71002235D01*
X225956000Y-71700080D01*
X227206000Y-71700080D01*
X227206000Y-70550080D01*
X226408155Y-70550080D01*
X226348627Y-70556481D01*
X226348620Y-70556483D01*
X226213913Y-70606725D01*
X226213906Y-70606729D01*
X226098812Y-70692889D01*
X226098809Y-70692892D01*
X226012649Y-70807986D01*
X226012645Y-70807993D01*
X225962403Y-70942700D01*
X225962401Y-70942707D01*
X225956000Y-71002235D01*
X201728562Y-71002235D01*
X201716392Y-70956814D01*
X201650500Y-70842686D01*
X201620495Y-70812681D01*
X201587010Y-70751358D01*
X201591994Y-70681666D01*
X201620495Y-70637319D01*
X201650500Y-70607314D01*
X201716392Y-70493186D01*
X201750500Y-70365892D01*
X201750500Y-70234108D01*
X201716392Y-70106814D01*
X201650500Y-69992686D01*
X201557314Y-69899500D01*
X201557311Y-69899498D01*
X201550865Y-69894552D01*
X201552675Y-69892192D01*
X201514280Y-69851920D01*
X201500500Y-69795107D01*
X201500500Y-52148004D01*
X225956000Y-52148004D01*
X225962401Y-52207532D01*
X225962403Y-52207539D01*
X226012645Y-52342246D01*
X226012649Y-52342253D01*
X226098809Y-52457347D01*
X226098812Y-52457350D01*
X226213906Y-52543510D01*
X226213913Y-52543514D01*
X226348620Y-52593756D01*
X226348627Y-52593758D01*
X226408155Y-52600159D01*
X226408172Y-52600160D01*
X227206000Y-52600160D01*
X227206000Y-51450160D01*
X225956000Y-51450160D01*
X225956000Y-52148004D01*
X201500500Y-52148004D01*
X201500500Y-49598082D01*
X225956000Y-49598082D01*
X225962401Y-49657610D01*
X225962403Y-49657617D01*
X226012645Y-49792324D01*
X226012646Y-49792326D01*
X226056486Y-49850888D01*
X226080903Y-49916352D01*
X226066052Y-49984625D01*
X226056486Y-49999510D01*
X226012646Y-50058071D01*
X226012645Y-50058073D01*
X225962403Y-50192780D01*
X225962401Y-50192787D01*
X225956000Y-50252315D01*
X225956000Y-50950160D01*
X227206000Y-50950160D01*
X227206000Y-48900238D01*
X225956000Y-48900238D01*
X225956000Y-49598082D01*
X201500500Y-49598082D01*
X201500500Y-48204893D01*
X201520185Y-48137854D01*
X201552261Y-48107272D01*
X201550863Y-48105450D01*
X201557307Y-48100503D01*
X201557314Y-48100500D01*
X201650500Y-48007314D01*
X201716392Y-47893186D01*
X201750500Y-47765892D01*
X201750500Y-47634108D01*
X201716392Y-47506814D01*
X201650500Y-47392686D01*
X201620495Y-47362681D01*
X201587010Y-47301358D01*
X201591994Y-47231666D01*
X201620495Y-47187319D01*
X201650500Y-47157314D01*
X201716392Y-47043186D01*
X201750500Y-46915892D01*
X201750500Y-46784108D01*
X201716392Y-46656814D01*
X201650500Y-46542686D01*
X201620495Y-46512681D01*
X201587010Y-46451358D01*
X201591994Y-46381666D01*
X201620495Y-46337319D01*
X201621299Y-46336515D01*
X201650500Y-46307314D01*
X201716392Y-46193186D01*
X201750500Y-46065892D01*
X201750500Y-45934108D01*
X201716392Y-45806814D01*
X201650500Y-45692686D01*
X201620495Y-45662681D01*
X201587010Y-45601358D01*
X201591994Y-45531666D01*
X201620495Y-45487319D01*
X201650500Y-45457314D01*
X201716392Y-45343186D01*
X201750500Y-45215892D01*
X201750500Y-45084108D01*
X201716392Y-44956814D01*
X201650500Y-44842686D01*
X201620495Y-44812681D01*
X201620426Y-44812554D01*
X201620299Y-44812485D01*
X201603573Y-44781692D01*
X201587010Y-44751358D01*
X201587020Y-44751215D01*
X201586951Y-44751088D01*
X201589518Y-44716284D01*
X201591994Y-44681666D01*
X201592084Y-44681501D01*
X201592091Y-44681407D01*
X201592389Y-44680943D01*
X201609075Y-44650468D01*
X201614320Y-44643493D01*
X201650500Y-44607314D01*
X201680138Y-44555979D01*
X201684659Y-44549968D01*
X201706881Y-44533409D01*
X201726940Y-44514284D01*
X201735258Y-44512265D01*
X201740686Y-44508222D01*
X201756422Y-44507131D01*
X201783760Y-44500500D01*
X204065890Y-44500500D01*
X204065892Y-44500500D01*
X204193186Y-44466392D01*
X204307314Y-44400500D01*
X204400500Y-44307314D01*
X204466392Y-44193186D01*
X204500500Y-44065892D01*
X204500500Y-40498082D01*
X225956000Y-40498082D01*
X225962401Y-40557610D01*
X225962403Y-40557617D01*
X226012645Y-40692324D01*
X226012649Y-40692331D01*
X226098809Y-40807425D01*
X226098812Y-40807428D01*
X226213906Y-40893588D01*
X226213913Y-40893592D01*
X226348620Y-40943834D01*
X226348627Y-40943836D01*
X226408155Y-40950237D01*
X226408172Y-40950238D01*
X227206000Y-40950238D01*
X227706000Y-40950238D01*
X228503828Y-40950238D01*
X228503844Y-40950237D01*
X228563372Y-40943836D01*
X228563379Y-40943834D01*
X228698086Y-40893592D01*
X228698093Y-40893588D01*
X228813187Y-40807428D01*
X228813190Y-40807425D01*
X228899350Y-40692331D01*
X228899354Y-40692324D01*
X228949596Y-40557617D01*
X228949598Y-40557610D01*
X228955999Y-40498082D01*
X228956000Y-40498065D01*
X228956000Y-39800238D01*
X227706000Y-39800238D01*
X227706000Y-40950238D01*
X227206000Y-40950238D01*
X227206000Y-39800238D01*
X225956000Y-39800238D01*
X225956000Y-40498082D01*
X204500500Y-40498082D01*
X204500500Y-38602393D01*
X225956000Y-38602393D01*
X225956000Y-39300238D01*
X227206000Y-39300238D01*
X227706000Y-39300238D01*
X228956000Y-39300238D01*
X228956000Y-38602410D01*
X228955999Y-38602393D01*
X228949598Y-38542865D01*
X228949596Y-38542858D01*
X228899354Y-38408151D01*
X228899350Y-38408144D01*
X228813190Y-38293050D01*
X228813187Y-38293047D01*
X228698093Y-38206887D01*
X228698086Y-38206883D01*
X228563379Y-38156641D01*
X228563372Y-38156639D01*
X228503844Y-38150238D01*
X227706000Y-38150238D01*
X227706000Y-39300238D01*
X227206000Y-39300238D01*
X227206000Y-38150238D01*
X226408155Y-38150238D01*
X226348627Y-38156639D01*
X226348620Y-38156641D01*
X226213913Y-38206883D01*
X226213906Y-38206887D01*
X226098812Y-38293047D01*
X226098809Y-38293050D01*
X226012649Y-38408144D01*
X226012645Y-38408151D01*
X225962403Y-38542858D01*
X225962401Y-38542865D01*
X225956000Y-38602393D01*
X204500500Y-38602393D01*
X204500500Y-36474500D01*
X204520185Y-36407461D01*
X204572989Y-36361706D01*
X204624500Y-36350500D01*
X208080325Y-36350500D01*
X208080329Y-36350498D01*
X209039786Y-36350489D01*
X211119016Y-36312792D01*
X213197222Y-36237411D01*
X215273719Y-36124371D01*
X217347826Y-35973708D01*
X219418861Y-35785472D01*
X221486144Y-35559726D01*
X223548995Y-35296543D01*
X225025600Y-35080884D01*
X225606738Y-34996009D01*
X227658676Y-34658227D01*
X227742968Y-34642776D01*
X229704187Y-34283299D01*
X231742550Y-33871356D01*
X233773111Y-33422531D01*
X235795202Y-32936972D01*
X237808158Y-32414838D01*
X239811320Y-31856301D01*
X241804028Y-31261544D01*
X243785627Y-30630762D01*
X245755466Y-29964164D01*
X247712898Y-29261968D01*
X249657279Y-28524404D01*
X251587971Y-27751716D01*
X253504340Y-26944156D01*
X255405755Y-26101992D01*
X257291591Y-25225498D01*
X259161229Y-24314964D01*
X260028935Y-23872756D01*
X260028940Y-23872756D01*
X260087171Y-23843078D01*
X260088146Y-23842588D01*
X261638922Y-23074197D01*
X261641312Y-23073047D01*
X263208225Y-22340284D01*
X263210735Y-22339143D01*
X264793931Y-21641919D01*
X264796333Y-21640894D01*
X266394840Y-20979639D01*
X266397373Y-20978625D01*
X268010398Y-20353667D01*
X268012862Y-20352744D01*
X269639627Y-19764384D01*
X269642219Y-19763480D01*
X271281804Y-19212049D01*
X271284372Y-19211217D01*
X272935990Y-18696980D01*
X272938592Y-18696202D01*
X274601438Y-18219408D01*
X274604059Y-18218688D01*
X276277317Y-17779576D01*
X276279880Y-17778935D01*
X277962583Y-17377755D01*
X277965196Y-17377163D01*
X279656542Y-17014109D01*
X279659180Y-17013574D01*
X281358326Y-16688826D01*
X281360891Y-16688366D01*
X283066914Y-16402101D01*
X283069611Y-16401679D01*
X284781637Y-16154042D01*
X284784327Y-16153683D01*
X286501508Y-15944795D01*
X286504238Y-15944495D01*
X288225770Y-15774457D01*
X288228381Y-15774230D01*
X289953284Y-15643139D01*
X289955931Y-15642967D01*
X291683361Y-15550887D01*
X291686029Y-15550774D01*
X293415123Y-15497750D01*
X293417815Y-15497699D01*
X295147583Y-15483762D01*
X295150329Y-15483770D01*
G37*
%TD.AperFunction*%
%TD*%
M02*
