%TF.GenerationSoftware,KiCad,Pcbnew,10.0.3-10.0.3~ubuntu24.04.1*%
%TF.CreationDate,2026-05-19T22:11:57-05:00*%
%TF.ProjectId,bottom_plate,626f7474-6f6d-45f7-906c-6174652e6b69,rev?*%
%TF.SameCoordinates,Original*%
%TF.FileFunction,Copper,L1,Top*%
%TF.FilePolarity,Positive*%
%FSLAX46Y46*%
G04 Gerber Fmt 4.6, Leading zero omitted, Abs format (unit mm)*
G04 Created by KiCad (PCBNEW 10.0.3-10.0.3~ubuntu24.04.1) date 2026-05-19 22:11:57*
%MOMM*%
%LPD*%
G01*
G04 APERTURE LIST*
G04 Aperture macros list*
%AMRoundRect*
0 Rectangle with rounded corners*
0 $1 Rounding radius*
0 $2 $3 $4 $5 $6 $7 $8 $9 X,Y pos of 4 corners*
0 Add a 4 corners polygon primitive as box body*
4,1,4,$2,$3,$4,$5,$6,$7,$8,$9,$2,$3,0*
0 Add four circle primitives for the rounded corners*
1,1,$1+$1,$2,$3*
1,1,$1+$1,$4,$5*
1,1,$1+$1,$6,$7*
1,1,$1+$1,$8,$9*
0 Add four rect primitives between the rounded corners*
20,1,$1+$1,$2,$3,$4,$5,0*
20,1,$1+$1,$4,$5,$6,$7,0*
20,1,$1+$1,$6,$7,$8,$9,0*
20,1,$1+$1,$8,$9,$2,$3,0*%
%AMFreePoly0*
4,1,23,0.500000,-0.750000,0.000000,-0.750000,0.000000,-0.745722,-0.065263,-0.745722,-0.191342,-0.711940,-0.304381,-0.646677,-0.396677,-0.554381,-0.461940,-0.441342,-0.495722,-0.315263,-0.495722,-0.250000,-0.500000,-0.250000,-0.500000,0.250000,-0.495722,0.250000,-0.495722,0.315263,-0.461940,0.441342,-0.396677,0.554381,-0.304381,0.646677,-0.191342,0.711940,-0.065263,0.745722,0.000000,0.745722,
0.000000,0.750000,0.500000,0.750000,0.500000,-0.750000,0.500000,-0.750000,$1*%
%AMFreePoly1*
4,1,23,0.000000,0.745722,0.065263,0.745722,0.191342,0.711940,0.304381,0.646677,0.396677,0.554381,0.461940,0.441342,0.495722,0.315263,0.495722,0.250000,0.500000,0.250000,0.500000,-0.250000,0.495722,-0.250000,0.495722,-0.315263,0.461940,-0.441342,0.396677,-0.554381,0.304381,-0.646677,0.191342,-0.711940,0.065263,-0.745722,0.000000,-0.745722,0.000000,-0.750000,-0.500000,-0.750000,
-0.500000,0.750000,0.000000,0.750000,0.000000,0.745722,0.000000,0.745722,$1*%
G04 Aperture macros list end*
%TA.AperFunction,ComponentPad*%
%ADD10C,4.400000*%
%TD*%
%TA.AperFunction,SMDPad,CuDef*%
%ADD11RoundRect,0.150000X0.587500X0.150000X-0.587500X0.150000X-0.587500X-0.150000X0.587500X-0.150000X0*%
%TD*%
%TA.AperFunction,SMDPad,CuDef*%
%ADD12FreePoly0,180.000000*%
%TD*%
%TA.AperFunction,SMDPad,CuDef*%
%ADD13FreePoly1,180.000000*%
%TD*%
%TA.AperFunction,SMDPad,CuDef*%
%ADD14RoundRect,0.150000X0.512500X0.150000X-0.512500X0.150000X-0.512500X-0.150000X0.512500X-0.150000X0*%
%TD*%
%TA.AperFunction,SMDPad,CuDef*%
%ADD15RoundRect,0.100000X-0.217500X-0.100000X0.217500X-0.100000X0.217500X0.100000X-0.217500X0.100000X0*%
%TD*%
%TA.AperFunction,SMDPad,CuDef*%
%ADD16RoundRect,0.200000X0.200000X0.275000X-0.200000X0.275000X-0.200000X-0.275000X0.200000X-0.275000X0*%
%TD*%
%TA.AperFunction,SMDPad,CuDef*%
%ADD17R,1.200000X0.800000*%
%TD*%
%TA.AperFunction,SMDPad,CuDef*%
%ADD18R,1.200000X0.850000*%
%TD*%
%TA.AperFunction,SMDPad,CuDef*%
%ADD19R,0.800000X1.200000*%
%TD*%
%TA.AperFunction,SMDPad,CuDef*%
%ADD20R,0.280000X1.250000*%
%TD*%
%TA.AperFunction,SMDPad,CuDef*%
%ADD21R,1.800000X2.000000*%
%TD*%
%TA.AperFunction,SMDPad,CuDef*%
%ADD22RoundRect,0.200000X-0.200000X-0.275000X0.200000X-0.275000X0.200000X0.275000X-0.200000X0.275000X0*%
%TD*%
%TA.AperFunction,SMDPad,CuDef*%
%ADD23RoundRect,0.100000X0.217500X0.100000X-0.217500X0.100000X-0.217500X-0.100000X0.217500X-0.100000X0*%
%TD*%
%TA.AperFunction,SMDPad,CuDef*%
%ADD24R,2.510000X1.000000*%
%TD*%
%TA.AperFunction,ViaPad*%
%ADD25C,0.600000*%
%TD*%
%TA.AperFunction,Conductor*%
%ADD26C,0.200000*%
%TD*%
%TA.AperFunction,Conductor*%
%ADD27C,0.300000*%
%TD*%
%TA.AperFunction,Conductor*%
%ADD28C,1.000000*%
%TD*%
G04 APERTURE END LIST*
D10*
%TO.P,H7,1,1_1*%
%TO.N,/Power_Board/GND*%
X259902067Y-18113180D03*
%TD*%
D11*
%TO.P,Q_EXT_01,1,G_1*%
%TO.N,/Control_Board/VEXT_EN*%
X54723649Y-25262479D03*
%TO.P,Q_EXT_01,2,S_2*%
%TO.N,/Control_Board/VDD*%
X54723649Y-23362479D03*
%TO.P,Q_EXT_01,3,D_3*%
%TO.N,/Control_Board/VEXT*%
X52848649Y-24312479D03*
%TD*%
D12*
%TO.P,JP_CHG_01,1,A_1*%
%TO.N,Net-(JP_CHG_01-A)*%
X182559031Y-112462467D03*
D13*
%TO.P,JP_CHG_01,2,B_2*%
%TO.N,Net-(JP_CHG_01-B)*%
X181259031Y-112462467D03*
%TD*%
D14*
%TO.P,U_CHG_01,1,STAT_1*%
%TO.N,/Power_Board/CHG_STAT*%
X187129031Y-112412467D03*
%TO.P,U_CHG_01,2,V_{SS}_2*%
%TO.N,/Power_Board/GND*%
X187129031Y-111462467D03*
%TO.P,U_CHG_01,3,V_{BAT}_3*%
%TO.N,/Power_Board/VBAT*%
X187129031Y-110512467D03*
%TO.P,U_CHG_01,4,V_{DD}_4*%
%TO.N,/Power_Board/5V*%
X184854031Y-110512467D03*
%TO.P,U_CHG_01,5,PROG_5*%
%TO.N,Net-(JP_CHG_01-A)*%
X184854031Y-112412467D03*
%TD*%
D10*
%TO.P,H6,1,1_1*%
%TO.N,/Control_Board/GND*%
X134090085Y-134024356D03*
%TD*%
%TO.P,H10,1,1_1*%
%TO.N,/Power_Board/GND*%
X162000000Y-78170815D03*
%TD*%
D15*
%TO.P,R_CHG_02,1*%
%TO.N,Net-(JP_CHG_01-B)*%
X181584031Y-115462467D03*
%TO.P,R_CHG_02,2*%
%TO.N,/Power_Board/GND*%
X182399031Y-115462467D03*
%TD*%
D16*
%TO.P,R_MON_01,1*%
%TO.N,/Power_Board/VBAT*%
X187316531Y-107962467D03*
%TO.P,R_MON_01,2*%
%TO.N,/Power_Board/BATT_MON*%
X185666531Y-107962467D03*
%TD*%
D17*
%TO.P,U_MCU_01,1,GND_1*%
%TO.N,/Control_Board/GND*%
X62973649Y-22062479D03*
%TO.P,U_MCU_01,2,[L]_P1.11_2*%
%TO.N,/Control_Board/VEXT_EN*%
X62973649Y-23162479D03*
%TO.P,U_MCU_01,3,[L]_P1.10_3*%
%TO.N,/Control_Board/CHG_STAT*%
X62973649Y-24262479D03*
%TO.P,U_MCU_01,4,[L]_P1.13_4*%
%TO.N,unconnected-(U_MCU_01-[L]_P1.13-Pad4)*%
X62973649Y-25362479D03*
D18*
%TO.P,U_MCU_01,5,[L]_P1.15_5*%
%TO.N,unconnected-(U_MCU_01-[L]_P1.15-Pad5)*%
X62973649Y-26462479D03*
D17*
%TO.P,U_MCU_01,6,[L]_A1_P0.03_6*%
%TO.N,unconnected-(U_MCU_01-[L]_A1_P0.03-Pad6)*%
X62973649Y-27562479D03*
%TO.P,U_MCU_01,7,[L]_A0_P0.02_7*%
%TO.N,/Control_Board/BATT_MON*%
X62973649Y-28662479D03*
%TO.P,U_MCU_01,8,[L]_A4_P0.28_8*%
%TO.N,/Control_Board/GP12*%
X62973649Y-29762479D03*
%TO.P,U_MCU_01,9,[L]_A5_P0.29_9*%
%TO.N,/Control_Board/GP22*%
X62973649Y-30862479D03*
%TO.P,U_MCU_01,10,[L]_A6_P0.30_10*%
%TO.N,/Control_Board/GP31*%
X62973649Y-31962479D03*
%TO.P,U_MCU_01,11,[L]_A7_P0.31_11*%
%TO.N,/Control_Board/GP32*%
X62973649Y-33062479D03*
%TO.P,U_MCU_01,12,A2_P0.04_12*%
%TO.N,unconnected-(U_MCU_01-A2_P0.04-Pad12)*%
X62973649Y-34162479D03*
%TO.P,U_MCU_01,13,A3_P0.05_13*%
%TO.N,unconnected-(U_MCU_01-A3_P0.05-Pad13)*%
X62973649Y-35262479D03*
%TO.P,U_MCU_01,32,GND_32*%
%TO.N,/Control_Board/GND*%
X76473649Y-22062479D03*
%TO.P,U_MCU_01,33,[L]_P0.10_33*%
%TO.N,/Control_Board/CS_PMW1*%
X76473649Y-23162479D03*
%TO.P,U_MCU_01,34,[L]_P0.09_34*%
%TO.N,/Control_Board/CS_PMW2*%
X76473649Y-24262479D03*
%TO.P,U_MCU_01,35,[L]_P1.06_35*%
%TO.N,/Control_Board/CS_DIS1*%
X76473649Y-25362479D03*
%TO.P,U_MCU_01,36,[L]_P1.04_36*%
%TO.N,/Control_Board/CS_SW1*%
X76473649Y-26462479D03*
%TO.P,U_MCU_01,37,SWD_37*%
%TO.N,/Control_Board/SWD*%
X76473649Y-27562479D03*
%TO.P,U_MCU_01,38,SWC_38*%
%TO.N,/Control_Board/SWC*%
X76473649Y-28662479D03*
%TO.P,U_MCU_01,39,[L]_P1.02_39*%
%TO.N,/Control_Board/INT_PMW1*%
X76473649Y-29762479D03*
%TO.P,U_MCU_01,40,[L]_P1.01_40*%
%TO.N,/Control_Board/INT_PMW2*%
X76473649Y-30862479D03*
%TO.P,U_MCU_01,41,[L]_P1.03_41*%
%TO.N,unconnected-(U_MCU_01-[L]_P1.03-Pad41)*%
X76473649Y-31962479D03*
%TO.P,U_MCU_01,42,P1.00_42*%
%TO.N,/Control_Board/SCL*%
X76473649Y-33062479D03*
%TO.P,U_MCU_01,43,P0.22_43*%
%TO.N,/Control_Board/SDA*%
X76473649Y-34162479D03*
%TO.P,U_MCU_01,44,GND_44*%
%TO.N,/Control_Board/GND*%
X76473649Y-35262479D03*
D19*
%TO.P,U_MCU_01,45,D+_45*%
%TO.N,/Control_Board/D+*%
X75223649Y-36762479D03*
%TO.P,U_MCU_01,46,D-_46*%
%TO.N,/Control_Board/D-*%
X74123649Y-36762479D03*
%TO.P,U_MCU_01,47,VBUS_47*%
%TO.N,/Control_Board/5V*%
X73023649Y-36762479D03*
%TO.P,U_MCU_01,48,Reset/P0.18_48*%
%TO.N,/Control_Board/RST*%
X71923649Y-36762479D03*
%TO.P,U_MCU_01,49,P0.19_49*%
%TO.N,unconnected-(U_MCU_01-P0.19-Pad49)*%
X70823649Y-36762479D03*
%TO.P,U_MCU_01,50,P0.21_50*%
%TO.N,unconnected-(U_MCU_01-P0.21-Pad50)*%
X69723649Y-36762479D03*
%TO.P,U_MCU_01,51,P0.23_51*%
%TO.N,unconnected-(U_MCU_01-P0.23-Pad51)*%
X68623649Y-36762479D03*
%TO.P,U_MCU_01,52,P0.12_52*%
%TO.N,/Control_Board/MOSI*%
X67523649Y-36762479D03*
%TO.P,U_MCU_01,53,P1.09_53*%
%TO.N,/Control_Board/MISO*%
X66423649Y-36762479D03*
%TO.P,U_MCU_01,54,P0.07_54*%
%TO.N,/Control_Board/SCLK*%
X65323649Y-36762479D03*
%TO.P,U_MCU_01,55,VDD_55*%
%TO.N,/Control_Board/VDD*%
X64223649Y-36762479D03*
%TD*%
D20*
%TO.P,J_VIK_OUT_DISP_01,1,3V3_1*%
%TO.N,/Control_Board/VDD*%
X137973649Y-63538479D03*
%TO.P,J_VIK_OUT_DISP_01,2,GND_2*%
%TO.N,/Control_Board/GND*%
X138473649Y-63538479D03*
%TO.P,J_VIK_OUT_DISP_01,3,SDA_3*%
%TO.N,/Control_Board/SDA*%
X138973649Y-63538479D03*
%TO.P,J_VIK_OUT_DISP_01,4,SCL_4*%
%TO.N,/Control_Board/SCL*%
X139473649Y-63538479D03*
%TO.P,J_VIK_OUT_DISP_01,5,RGB_DO_5*%
%TO.N,/Control_Board/VEXT*%
X139973649Y-63538479D03*
%TO.P,J_VIK_OUT_DISP_01,6,5V_6*%
%TO.N,/Control_Board/5V*%
X140473649Y-63538479D03*
%TO.P,J_VIK_OUT_DISP_01,7,GP_AD1_7*%
%TO.N,/Control_Board/GP31*%
X140973649Y-63538479D03*
%TO.P,J_VIK_OUT_DISP_01,8,MOSI_8*%
%TO.N,/Control_Board/MOSI*%
X141473649Y-63538479D03*
%TO.P,J_VIK_OUT_DISP_01,9,GP_AD2_9*%
%TO.N,/Control_Board/GP32*%
X141973649Y-63538479D03*
%TO.P,J_VIK_OUT_DISP_01,10,SPI_CS_10*%
%TO.N,/Control_Board/CS_DIS1*%
X142473649Y-63538479D03*
%TO.P,J_VIK_OUT_DISP_01,11,MISO_11*%
%TO.N,/Control_Board/MISO*%
X142973649Y-63538479D03*
%TO.P,J_VIK_OUT_DISP_01,12,SCLK_12*%
%TO.N,/Control_Board/SCLK*%
X143473649Y-63538479D03*
D21*
%TO.P,J_VIK_OUT_DISP_01,13*%
%TO.N,N/C*%
X145273649Y-66262479D03*
%TO.P,J_VIK_OUT_DISP_01,14*%
X136173649Y-66262479D03*
%TD*%
D22*
%TO.P,R_MON_02,1*%
%TO.N,/Power_Board/BATT_MON*%
X185666531Y-106462467D03*
%TO.P,R_MON_02,2*%
%TO.N,/Power_Board/GND*%
X187316531Y-106462467D03*
%TD*%
D10*
%TO.P,H3,1,1_1*%
%TO.N,/Control_Board/GND*%
X17895532Y-60619082D03*
%TD*%
%TO.P,H2,1,1_1*%
%TO.N,/Control_Board/GND*%
X122678931Y-35415703D03*
%TD*%
%TO.P,H8,1,1_1*%
%TO.N,/Power_Board/GND*%
X193321069Y-35415703D03*
%TD*%
D20*
%TO.P,J_VIK_OUT_INTC_01,1,3V3_1*%
%TO.N,/Control_Board/VDD*%
X137973649Y-103538479D03*
%TO.P,J_VIK_OUT_INTC_01,2,GND_2*%
%TO.N,/Control_Board/GND*%
X138473649Y-103538479D03*
%TO.P,J_VIK_OUT_INTC_01,3,SDA_3*%
%TO.N,/Control_Board/SDA*%
X138973649Y-103538479D03*
%TO.P,J_VIK_OUT_INTC_01,4,SCL_4*%
%TO.N,/Control_Board/SCL*%
X139473649Y-103538479D03*
%TO.P,J_VIK_OUT_INTC_01,5,RGB_DO_5*%
%TO.N,/Control_Board/VEXT*%
X139973649Y-103538479D03*
%TO.P,J_VIK_OUT_INTC_01,6,5V_6*%
%TO.N,/Control_Board/5V*%
X140473649Y-103538479D03*
%TO.P,J_VIK_OUT_INTC_01,7,GP_AD1_7*%
%TO.N,/Control_Board/INT_PMW2*%
X140973649Y-103538479D03*
%TO.P,J_VIK_OUT_INTC_01,8,MOSI_8*%
%TO.N,/Control_Board/MOSI*%
X141473649Y-103538479D03*
%TO.P,J_VIK_OUT_INTC_01,9,GP_AD2_9*%
%TO.N,/Control_Board/GP22*%
X141973649Y-103538479D03*
%TO.P,J_VIK_OUT_INTC_01,10,SPI_CS_10*%
%TO.N,/Control_Board/CS_PMW2*%
X142473649Y-103538479D03*
%TO.P,J_VIK_OUT_INTC_01,11,MISO_11*%
%TO.N,/Control_Board/MISO*%
X142973649Y-103538479D03*
%TO.P,J_VIK_OUT_INTC_01,12,SCLK_12*%
%TO.N,/Control_Board/SCLK*%
X143473649Y-103538479D03*
D21*
%TO.P,J_VIK_OUT_INTC_01,13*%
%TO.N,N/C*%
X145273649Y-106262479D03*
%TO.P,J_VIK_OUT_INTC_01,14*%
X136173649Y-106262479D03*
%TD*%
D20*
%TO.P,J_VIK_OUT_SW_01,1,3V3_1*%
%TO.N,/Control_Board/VDD*%
X137973649Y-83538479D03*
%TO.P,J_VIK_OUT_SW_01,2,GND_2*%
%TO.N,/Control_Board/GND*%
X138473649Y-83538479D03*
%TO.P,J_VIK_OUT_SW_01,3,SDA_3*%
%TO.N,/Control_Board/SDA*%
X138973649Y-83538479D03*
%TO.P,J_VIK_OUT_SW_01,4,SCL_4*%
%TO.N,/Control_Board/SCL*%
X139473649Y-83538479D03*
%TO.P,J_VIK_OUT_SW_01,5,RGB_DO_5*%
%TO.N,/Control_Board/VEXT*%
X139973649Y-83538479D03*
%TO.P,J_VIK_OUT_SW_01,6,5V_6*%
%TO.N,/Control_Board/5V*%
X140473649Y-83538479D03*
%TO.P,J_VIK_OUT_SW_01,7,GP_AD1_7*%
%TO.N,/Control_Board/D-*%
X140973649Y-83538479D03*
%TO.P,J_VIK_OUT_SW_01,8,MOSI_8*%
%TO.N,/Control_Board/MOSI*%
X141473649Y-83538479D03*
%TO.P,J_VIK_OUT_SW_01,9,GP_AD2_9*%
%TO.N,/Control_Board/D+*%
X141973649Y-83538479D03*
%TO.P,J_VIK_OUT_SW_01,10,SPI_CS_10*%
%TO.N,/Control_Board/RST*%
X142473649Y-83538479D03*
%TO.P,J_VIK_OUT_SW_01,11,MISO_11*%
%TO.N,/Control_Board/MISO*%
X142973649Y-83538479D03*
%TO.P,J_VIK_OUT_SW_01,12,SCLK_12*%
%TO.N,/Control_Board/SCLK*%
X143473649Y-83538479D03*
D21*
%TO.P,J_VIK_OUT_SW_01,13*%
%TO.N,N/C*%
X145273649Y-86262479D03*
%TO.P,J_VIK_OUT_SW_01,14*%
X136173649Y-86262479D03*
%TD*%
D10*
%TO.P,H12,1,1_1*%
%TO.N,/Power_Board/GND*%
X181909915Y-134024356D03*
%TD*%
%TO.P,H5,1,1_1*%
%TO.N,/Control_Board/GND*%
X62220903Y-97950560D03*
%TD*%
%TO.P,H4,1,1_1*%
%TO.N,/Control_Board/GND*%
X154000000Y-78170815D03*
%TD*%
D20*
%TO.P,J_VIK_OUT_SENS_01,1,3V3_1*%
%TO.N,/Control_Board/VDD*%
X137973649Y-43538479D03*
%TO.P,J_VIK_OUT_SENS_01,2,GND_2*%
%TO.N,/Control_Board/GND*%
X138473649Y-43538479D03*
%TO.P,J_VIK_OUT_SENS_01,3,SDA_3*%
%TO.N,/Control_Board/SDA*%
X138973649Y-43538479D03*
%TO.P,J_VIK_OUT_SENS_01,4,SCL_4*%
%TO.N,/Control_Board/SCL*%
X139473649Y-43538479D03*
%TO.P,J_VIK_OUT_SENS_01,5,RGB_DO_5*%
%TO.N,/Control_Board/VEXT*%
X139973649Y-43538479D03*
%TO.P,J_VIK_OUT_SENS_01,6,5V_6*%
%TO.N,/Control_Board/5V*%
X140473649Y-43538479D03*
%TO.P,J_VIK_OUT_SENS_01,7,GP_AD1_7*%
%TO.N,/Control_Board/INT_PMW1*%
X140973649Y-43538479D03*
%TO.P,J_VIK_OUT_SENS_01,8,MOSI_8*%
%TO.N,/Control_Board/MOSI*%
X141473649Y-43538479D03*
%TO.P,J_VIK_OUT_SENS_01,9,GP_AD2_9*%
%TO.N,/Control_Board/GP12*%
X141973649Y-43538479D03*
%TO.P,J_VIK_OUT_SENS_01,10,SPI_CS_10*%
%TO.N,/Control_Board/CS_PMW1*%
X142473649Y-43538479D03*
%TO.P,J_VIK_OUT_SENS_01,11,MISO_11*%
%TO.N,/Control_Board/MISO*%
X142973649Y-43538479D03*
%TO.P,J_VIK_OUT_SENS_01,12,SCLK_12*%
%TO.N,/Control_Board/SCLK*%
X143473649Y-43538479D03*
D21*
%TO.P,J_VIK_OUT_SENS_01,13*%
%TO.N,N/C*%
X145273649Y-46262479D03*
%TO.P,J_VIK_OUT_SENS_01,14*%
X136173649Y-46262479D03*
%TD*%
D20*
%TO.P,J_VIK_OUT_SW_02,1,3V3_1*%
%TO.N,/Power_Board/VDD*%
X172526351Y-83738467D03*
%TO.P,J_VIK_OUT_SW_02,2,GND_2*%
%TO.N,/Power_Board/GND*%
X173026351Y-83738467D03*
%TO.P,J_VIK_OUT_SW_02,3,SDA_3*%
%TO.N,/Power_Board/SDA*%
X173526351Y-83738467D03*
%TO.P,J_VIK_OUT_SW_02,4,SCL_4*%
%TO.N,/Power_Board/SCL*%
X174026351Y-83738467D03*
%TO.P,J_VIK_OUT_SW_02,5,RGB_DO_5*%
%TO.N,/Power_Board/VEXT*%
X174526351Y-83738467D03*
%TO.P,J_VIK_OUT_SW_02,6,5V_6*%
%TO.N,/Power_Board/5V*%
X175026351Y-83738467D03*
%TO.P,J_VIK_OUT_SW_02,7,GP_AD1_7*%
%TO.N,unconnected-(J_VIK_OUT_SW_02-GP_AD1-Pad7)*%
X175526351Y-83738467D03*
%TO.P,J_VIK_OUT_SW_02,8,MOSI_8*%
%TO.N,/Power_Board/MOSI*%
X176026351Y-83738467D03*
%TO.P,J_VIK_OUT_SW_02,9,GP_AD2_9*%
%TO.N,unconnected-(J_VIK_OUT_SW_02-GP_AD2-Pad9)*%
X176526351Y-83738467D03*
%TO.P,J_VIK_OUT_SW_02,10,SPI_CS_10*%
%TO.N,unconnected-(J_VIK_OUT_SW_02-SPI_CS-Pad10)*%
X177026351Y-83738467D03*
%TO.P,J_VIK_OUT_SW_02,11,MISO_11*%
%TO.N,/Power_Board/MISO*%
X177526351Y-83738467D03*
%TO.P,J_VIK_OUT_SW_02,12,SCLK_12*%
%TO.N,/Power_Board/SCLK*%
X178026351Y-83738467D03*
D21*
%TO.P,J_VIK_OUT_SW_02,13*%
%TO.N,N/C*%
X179826351Y-86462467D03*
%TO.P,J_VIK_OUT_SW_02,14*%
X170726351Y-86462467D03*
%TD*%
D20*
%TO.P,J_VIK_IN_INTC_01,1,SCLK_1*%
%TO.N,/Power_Board/SCLK*%
X178026351Y-107814467D03*
%TO.P,J_VIK_IN_INTC_01,2,MISO_2*%
%TO.N,/Power_Board/MISO*%
X177526351Y-107814467D03*
%TO.P,J_VIK_IN_INTC_01,3,SPI_CS_3*%
%TO.N,/Power_Board/CS_PMW2*%
X177026351Y-107814467D03*
%TO.P,J_VIK_IN_INTC_01,4,GP_AD2_4*%
%TO.N,/Power_Board/BATT_MON*%
X176526351Y-107814467D03*
%TO.P,J_VIK_IN_INTC_01,5,MOSI_5*%
%TO.N,/Power_Board/MOSI*%
X176026351Y-107814467D03*
%TO.P,J_VIK_IN_INTC_01,6,GP_AD1_6*%
%TO.N,/Power_Board/INT_PMW2*%
X175526351Y-107814467D03*
%TO.P,J_VIK_IN_INTC_01,7,5V_7*%
%TO.N,/Power_Board/5V*%
X175026351Y-107814467D03*
%TO.P,J_VIK_IN_INTC_01,8,RGB_DO_8*%
%TO.N,/Power_Board/VEXT*%
X174526351Y-107814467D03*
%TO.P,J_VIK_IN_INTC_01,9,SCL_9*%
%TO.N,/Power_Board/SCL*%
X174026351Y-107814467D03*
%TO.P,J_VIK_IN_INTC_01,10,SDA_10*%
%TO.N,/Power_Board/SDA*%
X173526351Y-107814467D03*
%TO.P,J_VIK_IN_INTC_01,11,GND_11*%
%TO.N,/Power_Board/GND*%
X173026351Y-107814467D03*
%TO.P,J_VIK_IN_INTC_01,12,3V3_12*%
%TO.N,/Power_Board/VDD*%
X172526351Y-107814467D03*
D21*
%TO.P,J_VIK_IN_INTC_01,13*%
%TO.N,N/C*%
X170726351Y-105090467D03*
%TO.P,J_VIK_IN_INTC_01,14*%
X179826351Y-105090467D03*
%TD*%
D23*
%TO.P,R_CHG_01,1*%
%TO.N,Net-(JP_CHG_01-A)*%
X182399031Y-114462467D03*
%TO.P,R_CHG_01,2*%
%TO.N,Net-(JP_CHG_01-B)*%
X181584031Y-114462467D03*
%TD*%
D20*
%TO.P,J_VIK_OUT_SENS_02,1,3V3_1*%
%TO.N,/Power_Board/VDD*%
X172526351Y-43738467D03*
%TO.P,J_VIK_OUT_SENS_02,2,GND_2*%
%TO.N,/Power_Board/GND*%
X173026351Y-43738467D03*
%TO.P,J_VIK_OUT_SENS_02,3,SDA_3*%
%TO.N,/Power_Board/SDA*%
X173526351Y-43738467D03*
%TO.P,J_VIK_OUT_SENS_02,4,SCL_4*%
%TO.N,/Power_Board/SCL*%
X174026351Y-43738467D03*
%TO.P,J_VIK_OUT_SENS_02,5,RGB_DO_5*%
%TO.N,/Power_Board/VEXT*%
X174526351Y-43738467D03*
%TO.P,J_VIK_OUT_SENS_02,6,5V_6*%
%TO.N,/Power_Board/5V*%
X175026351Y-43738467D03*
%TO.P,J_VIK_OUT_SENS_02,7,GP_AD1_7*%
%TO.N,/Power_Board/INT_PMW2*%
X175526351Y-43738467D03*
%TO.P,J_VIK_OUT_SENS_02,8,MOSI_8*%
%TO.N,/Power_Board/MOSI*%
X176026351Y-43738467D03*
%TO.P,J_VIK_OUT_SENS_02,9,GP_AD2_9*%
%TO.N,unconnected-(J_VIK_OUT_SENS_02-GP_AD2-Pad9)*%
X176526351Y-43738467D03*
%TO.P,J_VIK_OUT_SENS_02,10,SPI_CS_10*%
%TO.N,/Power_Board/CS_PMW2*%
X177026351Y-43738467D03*
%TO.P,J_VIK_OUT_SENS_02,11,MISO_11*%
%TO.N,/Power_Board/MISO*%
X177526351Y-43738467D03*
%TO.P,J_VIK_OUT_SENS_02,12,SCLK_12*%
%TO.N,/Power_Board/SCLK*%
X178026351Y-43738467D03*
D21*
%TO.P,J_VIK_OUT_SENS_02,13*%
%TO.N,N/C*%
X179826351Y-46462467D03*
%TO.P,J_VIK_OUT_SENS_02,14*%
X170726351Y-46462467D03*
%TD*%
D10*
%TO.P,H11,1,1_1*%
%TO.N,/Power_Board/GND*%
X253779097Y-97950560D03*
%TD*%
%TO.P,H9,1,1_1*%
%TO.N,/Power_Board/GND*%
X298104468Y-60619082D03*
%TD*%
%TO.P,H1,1,1_1*%
%TO.N,/Control_Board/GND*%
X56097933Y-18113180D03*
%TD*%
D24*
%TO.P,J_SWD_01,1,Pin_1_1*%
%TO.N,/Control_Board/VDD*%
X83878649Y-31572479D03*
%TO.P,J_SWD_01,2,Pin_2_2*%
%TO.N,/Control_Board/SWC*%
X80568649Y-29032479D03*
%TO.P,J_SWD_01,3,Pin_3_3*%
%TO.N,/Control_Board/GND*%
X83878649Y-26492479D03*
%TO.P,J_SWD_01,4,Pin_4_4*%
%TO.N,/Control_Board/SWD*%
X80568649Y-23952479D03*
%TD*%
D16*
%TO.P,R_EXT_01,1*%
%TO.N,/Control_Board/VEXT_EN*%
X50611149Y-23312479D03*
%TO.P,R_EXT_01,2*%
%TO.N,/Control_Board/GND*%
X48961149Y-23312479D03*
%TD*%
D25*
%TO.N,/Control_Board/INT_PMW2*%
X137723649Y-39762479D03*
%TO.N,/Control_Board/GP31*%
X82723649Y-61262479D03*
%TO.N,/Control_Board/GP32*%
X84723649Y-62262479D03*
%TO.N,/Control_Board/VDD*%
X64223649Y-36762479D03*
%TO.N,/Control_Board/CS_PMW1*%
X142723649Y-42262479D03*
%TO.N,/Control_Board/D+*%
X75223649Y-36762479D03*
%TO.N,/Control_Board/RST*%
X142223649Y-82262479D03*
%TO.N,/Control_Board/VEXT*%
X140223649Y-46743241D03*
%TO.N,/Control_Board/GP22*%
X142223649Y-101262479D03*
%TO.N,/Control_Board/CS_PMW1*%
X76473649Y-23162479D03*
%TO.N,/Control_Board/CS_DIS1*%
X142373649Y-62262479D03*
%TO.N,/Control_Board/VDD*%
X54723649Y-23362479D03*
%TO.N,/Control_Board/GP12*%
X142373649Y-45262479D03*
X79723649Y-59262479D03*
%TO.N,/Control_Board/CS_PMW2*%
X98223649Y-42762479D03*
%TO.N,/Power_Board/GND*%
X179491531Y-95962467D03*
%TO.N,/Control_Board/INT_PMW2*%
X141223649Y-100262479D03*
%TO.N,/Control_Board/MOSI*%
X67523649Y-36762479D03*
%TO.N,/Control_Board/CS_PMW2*%
X76473649Y-24262479D03*
%TO.N,/Control_Board/D-*%
X74123649Y-36762479D03*
%TO.N,/Control_Board/GND*%
X123723649Y-43262479D03*
%TO.N,/Power_Board/BATT_MON*%
X185666531Y-107962467D03*
%TO.N,/Control_Board/VEXT*%
X52848649Y-24312479D03*
%TO.N,/Control_Board/GND*%
X102723649Y-53262479D03*
X92723649Y-50762479D03*
%TO.N,/Control_Board/GP22*%
X69723649Y-49262479D03*
%TO.N,/Control_Board/MOSI*%
X141773649Y-46028742D03*
%TO.N,/Control_Board/RST*%
X96223649Y-63262479D03*
%TO.N,/Control_Board/GP31*%
X141123649Y-61262479D03*
%TO.N,/Control_Board/GP32*%
X142356186Y-64663481D03*
%TO.N,/Power_Board/GND*%
X179491531Y-64962467D03*
%TO.N,/Control_Board/VDD*%
X83878649Y-31572479D03*
%TO.N,/Control_Board/GND*%
X83723649Y-33762479D03*
%TO.N,/Control_Board/D-*%
X141223649Y-85762479D03*
%TO.N,/Control_Board/D+*%
X142223649Y-84762479D03*
%TO.N,/Control_Board/CS_DIS1*%
X76473649Y-25362479D03*
%TO.N,/Control_Board/VDD*%
X137823649Y-43494479D03*
%TO.N,/Power_Board/BATT_MON*%
X176626351Y-106462467D03*
%TD*%
%TO.N,/Control_Board/MOSI*%
D26*
X141823649Y-100662479D02*
X141823649Y-85362479D01*
%TO.N,/Power_Board/VDD*%
D27*
X172526351Y-43738467D02*
X172526351Y-63738467D01*
%TO.N,/Control_Board/GND*%
X138473649Y-83494479D02*
X138473649Y-103494479D01*
%TO.N,/Control_Board/SCLK*%
D26*
X143473649Y-104490850D02*
X143473649Y-43494479D01*
%TO.N,/Control_Board/GP31*%
X62023649Y-31962479D02*
X62973649Y-31962479D01*
%TO.N,/Control_Board/GND*%
D27*
X138473649Y-63494479D02*
X138473649Y-83494479D01*
%TO.N,/Power_Board/VBAT*%
D26*
X187129031Y-108149967D02*
X187316531Y-107962467D01*
%TO.N,/Control_Board/MOSI*%
X141533649Y-83554479D02*
X141473649Y-83494479D01*
%TO.N,/Control_Board/VDD*%
D27*
X137973649Y-63494479D02*
X137973649Y-83494479D01*
%TO.N,/Control_Board/5V*%
X140473649Y-63538479D02*
X140473649Y-60993240D01*
%TO.N,/Control_Board/CS_PMW1*%
D26*
X142473649Y-42512479D02*
X142723649Y-42262479D01*
%TO.N,/Control_Board/MISO*%
X142973649Y-43494479D02*
X142973649Y-104425164D01*
%TO.N,/Power_Board/CS_PMW2*%
X177086351Y-108739467D02*
X178466351Y-108739467D01*
%TO.N,/Control_Board/SCL*%
X139473649Y-42327397D02*
X139473649Y-43538479D01*
%TO.N,/Control_Board/MISO*%
X136636334Y-110762479D02*
X135223649Y-110762479D01*
%TO.N,/Control_Board/GND*%
D27*
X138062649Y-42262479D02*
X137223649Y-42262479D01*
%TO.N,/Power_Board/5V*%
X176722955Y-110512467D02*
X184854031Y-110512467D01*
%TO.N,/Control_Board/VEXT*%
X139973649Y-103538479D02*
X139973649Y-83538479D01*
%TO.N,/Control_Board/5V*%
D26*
X140473649Y-105793792D02*
X140473649Y-103538479D01*
%TO.N,/Control_Board/SCL*%
X85223649Y-40762479D02*
X137908731Y-40762479D01*
%TO.N,/Control_Board/VEXT_EN*%
X51161149Y-22762479D02*
X53945597Y-22762479D01*
%TO.N,/Control_Board/RST*%
X142473649Y-82512479D02*
X142223649Y-82262479D01*
%TO.N,/Power_Board/SDA*%
X173526351Y-43738467D02*
X173526351Y-63738467D01*
%TO.N,/Power_Board/INT_PMW2*%
X175986351Y-109139467D02*
X175526351Y-108679467D01*
%TO.N,/Control_Board/MOSI*%
X141473649Y-85012479D02*
X141823649Y-85362479D01*
%TO.N,/Control_Board/5V*%
X134389335Y-78079636D02*
X134389335Y-107862479D01*
%TO.N,/Control_Board/MISO*%
X66423649Y-41962479D02*
X66423649Y-36762479D01*
%TO.N,/Control_Board/D-*%
X140973649Y-83538479D02*
X140973649Y-85512479D01*
%TO.N,/Control_Board/VEXT*%
D27*
X139973649Y-43538479D02*
X139973649Y-46493241D01*
%TO.N,/Control_Board/5V*%
X140473649Y-60993240D02*
X141204410Y-60262479D01*
%TO.N,/Control_Board/MOSI*%
D26*
X141473649Y-103538479D02*
X141473649Y-101012479D01*
%TO.N,/Control_Board/RST*%
X96223649Y-63262479D02*
X71923649Y-38962479D01*
%TO.N,/Power_Board/5V*%
D27*
X175026351Y-107814467D02*
X175026351Y-83738467D01*
%TO.N,/Control_Board/MISO*%
D26*
X142973649Y-104425164D02*
X136636334Y-110762479D01*
%TO.N,/Power_Board/INT_PMW2*%
X175526351Y-43738467D02*
X175526351Y-42873467D01*
%TO.N,/Control_Board/5V*%
D27*
X140473649Y-45762479D02*
X140473649Y-43538479D01*
%TO.N,/Control_Board/GP22*%
D26*
X62973649Y-30862479D02*
X61623649Y-30862479D01*
%TO.N,/Control_Board/INT_PMW1*%
X86273649Y-38762479D02*
X138223649Y-38762479D01*
%TO.N,/Power_Board/SCL*%
X174026351Y-107814467D02*
X174026351Y-83738467D01*
%TO.N,/Control_Board/SCLK*%
X137223649Y-111262479D02*
X139402020Y-109084108D01*
%TO.N,/Control_Board/SDA*%
X138343045Y-41762479D02*
X84723649Y-41762479D01*
%TO.N,/Control_Board/SWC*%
X78123649Y-28662479D02*
X78493649Y-29032479D01*
%TO.N,/Control_Board/GP12*%
X142373649Y-45262479D02*
X142373649Y-45062479D01*
%TO.N,Net-(JP_CHG_01-B)*%
X181259031Y-114137467D02*
X181584031Y-114462467D01*
%TO.N,/Power_Board/MOSI*%
X176026351Y-107814467D02*
X176026351Y-83738467D01*
%TO.N,/Control_Board/INT_PMW2*%
X137723649Y-39762479D02*
X85723649Y-39762479D01*
%TO.N,/Control_Board/VDD*%
D27*
X137973649Y-43494479D02*
X137823649Y-43494479D01*
%TO.N,/Control_Board/GP32*%
D26*
X62173649Y-33062479D02*
X62973649Y-33062479D01*
%TO.N,/Control_Board/SCL*%
X139473649Y-43538479D02*
X139473649Y-63538479D01*
%TO.N,/Power_Board/GND*%
D27*
X173026351Y-107814467D02*
X173026351Y-108927647D01*
%TO.N,/Power_Board/SDA*%
D26*
X173526351Y-63738467D02*
X173526351Y-83738467D01*
%TO.N,/Control_Board/CS_DIS1*%
X142473649Y-62362479D02*
X142473649Y-63494479D01*
%TO.N,/Control_Board/5V*%
D27*
X140473649Y-83494479D02*
X140473649Y-103538479D01*
%TO.N,/Control_Board/INT_PMW2*%
D26*
X85723649Y-39762479D02*
X76823649Y-30862479D01*
%TO.N,/Power_Board/5V*%
D27*
X175026351Y-83738467D02*
X175026351Y-43738467D01*
%TO.N,/Control_Board/SCL*%
D26*
X76473649Y-33062479D02*
X77523649Y-33062479D01*
%TO.N,/Power_Board/SCL*%
X174026351Y-63738467D02*
X174026351Y-43738467D01*
%TO.N,/Power_Board/BATT_MON*%
X176526351Y-107814467D02*
X176526351Y-106562467D01*
%TO.N,/Control_Board/SDA*%
X138973649Y-103494479D02*
X138973649Y-42393083D01*
%TO.N,/Control_Board/INT_PMW1*%
X77273649Y-29762479D02*
X86273649Y-38762479D01*
%TO.N,/Control_Board/GP32*%
X142356186Y-64663481D02*
X142356186Y-64619481D01*
%TO.N,/Power_Board/INT_PMW2*%
X175526351Y-42873467D02*
X175986351Y-42413467D01*
%TO.N,/Power_Board/GND*%
D27*
X173026351Y-63738467D02*
X173026351Y-43738467D01*
%TO.N,/Control_Board/RST*%
D26*
X71923649Y-38962479D02*
X71923649Y-36762479D01*
%TO.N,/Control_Board/GP12*%
X61223649Y-29762479D02*
X62973649Y-29762479D01*
%TO.N,/Control_Board/D+*%
X141973649Y-83538479D02*
X141973649Y-84512479D01*
%TO.N,/Power_Board/VEXT*%
D27*
X174526351Y-83738467D02*
X174526351Y-107814467D01*
%TO.N,/Power_Board/CS_PMW2*%
D26*
X177026351Y-42873467D02*
X177026351Y-43738467D01*
%TO.N,/Control_Board/INT_PMW1*%
X140973649Y-41512479D02*
X140973649Y-43538479D01*
%TO.N,/Control_Board/MOSI*%
X141473649Y-63538479D02*
X141473649Y-83538479D01*
%TO.N,/Control_Board/GND*%
D28*
X46967514Y-18532486D02*
X43000000Y-22500000D01*
%TO.N,/Power_Board/INT_PMW2*%
D26*
X175526351Y-108679467D02*
X175526351Y-107814467D01*
%TO.N,/Power_Board/GND*%
D27*
X173026351Y-83738467D02*
X173026351Y-63738467D01*
%TO.N,/Control_Board/GP22*%
D26*
X141973649Y-103538479D02*
X141973649Y-101512479D01*
%TO.N,/Control_Board/SDA*%
X84723649Y-41762479D02*
X77123649Y-34162479D01*
%TO.N,/Control_Board/VEXT_EN*%
X53945597Y-22762479D02*
X59723649Y-22762479D01*
%TO.N,/Control_Board/5V*%
D27*
X141204410Y-60262479D02*
X141223649Y-60262479D01*
%TO.N,/Control_Board/GP31*%
D26*
X140973649Y-61412479D02*
X141123649Y-61262479D01*
%TO.N,/Control_Board/GND*%
D27*
X138473649Y-42673479D02*
X138062649Y-42262479D01*
%TO.N,/Control_Board/GP12*%
D26*
X78223649Y-59262479D02*
X58723649Y-39762479D01*
%TO.N,/Control_Board/5V*%
D27*
X140473649Y-103538479D02*
X140473649Y-103494479D01*
%TO.N,/Control_Board/GND*%
X138473649Y-43538479D02*
X138473649Y-42673479D01*
%TO.N,/Control_Board/5V*%
D26*
X73023649Y-38062479D02*
X77123649Y-42162479D01*
%TO.N,/Control_Board/MOSI*%
X141773649Y-45453901D02*
X141473649Y-45153901D01*
%TO.N,/Power_Board/VBAT*%
X187129031Y-110512467D02*
X187129031Y-108149967D01*
%TO.N,/Control_Board/GP32*%
X61723649Y-33512479D02*
X62173649Y-33062479D01*
%TO.N,/Control_Board/MOSI*%
X141473649Y-61761008D02*
X141473649Y-63538479D01*
%TO.N,/Power_Board/BATT_MON*%
X176526351Y-106562467D02*
X176626351Y-106462467D01*
%TO.N,/Control_Board/RST*%
X142473649Y-83538479D02*
X142473649Y-82512479D01*
%TO.N,/Control_Board/MOSI*%
X141473649Y-45153901D02*
X141473649Y-43538479D01*
%TO.N,/Power_Board/GND*%
D27*
X173026351Y-107814467D02*
X173026351Y-83738467D01*
%TO.N,/Control_Board/SDA*%
D26*
X138973649Y-42393083D02*
X138343045Y-41762479D01*
%TO.N,/Control_Board/5V*%
X138404962Y-107862479D02*
X140473649Y-105793792D01*
%TO.N,/Power_Board/CS_PMW2*%
X178466351Y-108739467D02*
X178466351Y-42813467D01*
%TO.N,Net-(JP_CHG_01-A)*%
X184804031Y-112462467D02*
X184854031Y-112412467D01*
%TO.N,/Power_Board/CS_PMW2*%
X177026351Y-108679467D02*
X177086351Y-108739467D01*
%TO.N,/Power_Board/VEXT*%
D27*
X174526351Y-43738467D02*
X174526351Y-83738467D01*
%TO.N,/Power_Board/CS_PMW2*%
D26*
X177086351Y-42813467D02*
X177026351Y-42873467D01*
%TO.N,/Control_Board/INT_PMW1*%
X76473649Y-29762479D02*
X77273649Y-29762479D01*
%TO.N,/Control_Board/CS_PMW2*%
X134223649Y-108262479D02*
X138570648Y-108262479D01*
X98223649Y-72262479D02*
X134223649Y-108262479D01*
%TO.N,Net-(JP_CHG_01-A)*%
X182399031Y-112622467D02*
X182559031Y-112462467D01*
%TO.N,/Power_Board/INT_PMW2*%
X178632036Y-109139467D02*
X175986351Y-109139467D01*
%TO.N,/Control_Board/GP22*%
X59723649Y-32762479D02*
X59723649Y-39262479D01*
%TO.N,/Control_Board/MOSI*%
X141723649Y-46078742D02*
X141723649Y-61511008D01*
%TO.N,/Control_Board/VEXT_EN*%
X50611149Y-23312479D02*
X50611149Y-23787479D01*
%TO.N,/Power_Board/INT_PMW2*%
X178632036Y-42413467D02*
X181026351Y-44807782D01*
%TO.N,/Power_Board/SDA*%
X173526351Y-83738467D02*
X173526351Y-107814467D01*
%TO.N,/Power_Board/SCLK*%
X178026351Y-43738467D02*
X178026351Y-83738467D01*
%TO.N,/Control_Board/VDD*%
D27*
X137973649Y-43494479D02*
X137973649Y-63494479D01*
%TO.N,/Control_Board/MOSI*%
D26*
X141473649Y-83538479D02*
X141473649Y-85012479D01*
X141473649Y-103494479D02*
X141533649Y-103434479D01*
X141473649Y-101012479D02*
X141823649Y-100662479D01*
%TO.N,/Control_Board/GND*%
D28*
X56097933Y-18532486D02*
X46967514Y-18532486D01*
%TO.N,/Control_Board/VDD*%
D27*
X137973649Y-83494479D02*
X137973649Y-103494479D01*
%TO.N,/Control_Board/GP31*%
D26*
X60723649Y-39262479D02*
X60723649Y-33262479D01*
%TO.N,/Control_Board/GP22*%
X61623649Y-30862479D02*
X59723649Y-32762479D01*
%TO.N,/Control_Board/CS_PMW2*%
X98223649Y-42762479D02*
X98223649Y-72262479D01*
%TO.N,/Control_Board/GP12*%
X58723649Y-39762479D02*
X58723649Y-32262479D01*
%TO.N,/Power_Board/MISO*%
X177526351Y-83738467D02*
X177526351Y-43738467D01*
%TO.N,/Control_Board/GP32*%
X61723649Y-39262479D02*
X61723649Y-33512479D01*
%TO.N,/Control_Board/INT_PMW1*%
X138223649Y-38762479D02*
X140973649Y-41512479D01*
%TO.N,/Power_Board/INT_PMW2*%
X181026351Y-106745152D02*
X178632036Y-109139467D01*
X175986351Y-42413467D02*
X178632036Y-42413467D01*
%TO.N,/Control_Board/GP32*%
X141973649Y-64236944D02*
X141973649Y-63494479D01*
%TO.N,/Control_Board/SCLK*%
X65323649Y-36762479D02*
X65323649Y-41862479D01*
%TO.N,/Power_Board/5V*%
D27*
X175026351Y-108815863D02*
X176722955Y-110512467D01*
%TO.N,/Control_Board/SCL*%
D26*
X137908731Y-40762479D02*
X139473649Y-42327397D01*
%TO.N,/Control_Board/GND*%
D27*
X138473649Y-103538479D02*
X138473649Y-105012479D01*
%TO.N,/Control_Board/INT_PMW2*%
D26*
X140973649Y-100512479D02*
X141223649Y-100262479D01*
%TO.N,/Control_Board/CS_PMW2*%
X138570648Y-108262479D02*
X142473649Y-104359478D01*
%TO.N,/Control_Board/GND*%
D27*
X137223649Y-42262479D02*
X136723649Y-42762479D01*
%TO.N,/Control_Board/MISO*%
D26*
X135223649Y-110762479D02*
X66423649Y-41962479D01*
%TO.N,/Power_Board/SCL*%
X174026351Y-83738467D02*
X174026351Y-63738467D01*
%TO.N,/Control_Board/D-*%
X140973649Y-85512479D02*
X141223649Y-85762479D01*
%TO.N,/Control_Board/D+*%
X141973649Y-84512479D02*
X142223649Y-84762479D01*
%TO.N,/Power_Board/MOSI*%
X176026351Y-83738467D02*
X176026351Y-43738467D01*
%TO.N,/Control_Board/GP32*%
X142356186Y-64619481D02*
X141973649Y-64236944D01*
%TO.N,/Power_Board/GND*%
D27*
X173026351Y-43738467D02*
X173026351Y-42497287D01*
%TO.N,/Control_Board/GP31*%
D26*
X140973649Y-63494479D02*
X140973649Y-61412479D01*
%TO.N,/Control_Board/GP22*%
X59723649Y-39262479D02*
X69723649Y-49262479D01*
%TO.N,/Power_Board/VDD*%
D27*
X172526351Y-83738467D02*
X172526351Y-107814467D01*
%TO.N,/Control_Board/INT_PMW2*%
D26*
X140973649Y-103538479D02*
X140973649Y-100512479D01*
%TO.N,/Control_Board/SCL*%
X139473649Y-63538479D02*
X139473649Y-83538479D01*
%TO.N,/Power_Board/5V*%
D27*
X175026351Y-107814467D02*
X175026351Y-108815863D01*
%TO.N,/Control_Board/5V*%
D26*
X73023649Y-36762479D02*
X73023649Y-38062479D01*
%TO.N,/Power_Board/MISO*%
X177526351Y-107814467D02*
X177526351Y-83738467D01*
%TO.N,/Power_Board/CS_PMW2*%
X177026351Y-107814467D02*
X177026351Y-108679467D01*
%TO.N,/Control_Board/5V*%
D27*
X141223649Y-60262479D02*
X141223649Y-46512479D01*
%TO.N,Net-(JP_CHG_01-B)*%
D26*
X181259031Y-112462467D02*
X181259031Y-114137467D01*
%TO.N,/Control_Board/GP12*%
X79723649Y-59262479D02*
X78223649Y-59262479D01*
%TO.N,/Control_Board/SWD*%
X76958649Y-27562479D02*
X76473649Y-27562479D01*
%TO.N,/Control_Board/VEXT_EN*%
X53686149Y-23703031D02*
X53686149Y-23021927D01*
X54723649Y-24740531D02*
X53686149Y-23703031D01*
%TO.N,/Control_Board/CS_DIS1*%
X142373649Y-62262479D02*
X142473649Y-62362479D01*
%TO.N,/Control_Board/5V*%
D27*
X141223649Y-46512479D02*
X140473649Y-45762479D01*
%TO.N,/Control_Board/VEXT*%
X139973649Y-63538479D02*
X139973649Y-83538479D01*
%TO.N,/Control_Board/GND*%
X138473649Y-43494479D02*
X138473649Y-63494479D01*
%TO.N,/Power_Board/SCLK*%
D26*
X178026351Y-83738467D02*
X178026351Y-107814467D01*
%TO.N,Net-(JP_CHG_01-A)*%
X182559031Y-112462467D02*
X184804031Y-112462467D01*
%TO.N,/Control_Board/CS_PMW2*%
X142473649Y-104359478D02*
X142473649Y-103538479D01*
%TO.N,/Power_Board/CS_PMW2*%
X178466351Y-42813467D02*
X177086351Y-42813467D01*
%TO.N,/Control_Board/SCL*%
X77523649Y-33062479D02*
X85223649Y-40762479D01*
%TO.N,/Control_Board/GP12*%
X142373649Y-45062479D02*
X141973649Y-44662479D01*
%TO.N,/Control_Board/GP31*%
X60723649Y-33262479D02*
X62023649Y-31962479D01*
%TO.N,/Control_Board/VEXT_EN*%
X59723649Y-22762479D02*
X60123649Y-23162479D01*
X60123649Y-23162479D02*
X62973649Y-23162479D01*
%TO.N,/Control_Board/CS_PMW1*%
X142473649Y-43538479D02*
X142473649Y-42512479D01*
%TO.N,/Control_Board/SCLK*%
X134723649Y-111262479D02*
X137223649Y-111262479D01*
%TO.N,/Control_Board/5V*%
X134389335Y-107862479D02*
X138404962Y-107862479D01*
%TO.N,/Control_Board/GP31*%
X82723649Y-61262479D02*
X60723649Y-39262479D01*
%TO.N,/Control_Board/SCLK*%
X139402020Y-108562479D02*
X143473649Y-104490850D01*
%TO.N,/Control_Board/SCL*%
X139473649Y-83538479D02*
X139473649Y-103538479D01*
%TO.N,/Control_Board/GP12*%
X58723649Y-32262479D02*
X61223649Y-29762479D01*
%TO.N,/Control_Board/VEXT*%
D27*
X139973649Y-46493241D02*
X140223649Y-46743241D01*
%TO.N,/Control_Board/SWC*%
D26*
X80568649Y-29032479D02*
X78493649Y-29032479D01*
X76473649Y-28662479D02*
X78123649Y-28662479D01*
%TO.N,/Control_Board/GP12*%
X141973649Y-44662479D02*
X141973649Y-43538479D01*
%TO.N,/Control_Board/SCLK*%
X139402020Y-109084108D02*
X139402020Y-108562479D01*
%TO.N,/Control_Board/SDA*%
X77123649Y-34162479D02*
X76473649Y-34162479D01*
%TO.N,/Control_Board/GP22*%
X141973649Y-101512479D02*
X142223649Y-101262479D01*
%TO.N,/Control_Board/5V*%
D27*
X140473649Y-83538479D02*
X140473649Y-63538479D01*
D26*
X98472178Y-42162479D02*
X134389335Y-78079636D01*
%TO.N,Net-(JP_CHG_01-B)*%
X181584031Y-114462467D02*
X181584031Y-115462467D01*
%TO.N,/Control_Board/VEXT_EN*%
X54723649Y-25262479D02*
X54723649Y-24740531D01*
%TO.N,/Control_Board/MOSI*%
X141773649Y-46028742D02*
X141723649Y-46078742D01*
X141723649Y-61511008D02*
X141473649Y-61761008D01*
%TO.N,/Power_Board/INT_PMW2*%
X181026351Y-44807782D02*
X181026351Y-106745152D01*
%TO.N,Net-(JP_CHG_01-A)*%
X182399031Y-114462467D02*
X182399031Y-112622467D01*
%TO.N,/Power_Board/VDD*%
D27*
X172526351Y-63738467D02*
X172526351Y-83738467D01*
%TO.N,/Control_Board/GP32*%
D26*
X84723649Y-62262479D02*
X61723649Y-39262479D01*
%TO.N,/Control_Board/MOSI*%
X141773649Y-46028742D02*
X141773649Y-45453901D01*
%TO.N,/Control_Board/SWD*%
X80568649Y-23952479D02*
X76958649Y-27562479D01*
%TO.N,/Control_Board/VEXT_EN*%
X50611149Y-23312479D02*
X51161149Y-22762479D01*
%TO.N,/Control_Board/SCLK*%
X65323649Y-41862479D02*
X134723649Y-111262479D01*
%TO.N,/Control_Board/5V*%
X77123649Y-42162479D02*
X98472178Y-42162479D01*
%TO.N,/Control_Board/INT_PMW2*%
X76823649Y-30862479D02*
X76473649Y-30862479D01*
%TO.N,/Control_Board/VEXT_EN*%
X53686149Y-23021927D02*
X53945597Y-22762479D01*
%TO.N,/Power_Board/BATT_MON*%
X185666531Y-107962467D02*
X185666531Y-106462467D01*
%TD*%
%TA.AperFunction,Conductor*%
%TO.N,/Control_Board/GND*%
G36*
X135128802Y-87747043D02*
G01*
X135131482Y-87746658D01*
X135157166Y-87753213D01*
X135166166Y-87756570D01*
X135225776Y-87762979D01*
X137121521Y-87762978D01*
X137175056Y-87757223D01*
X137185896Y-87756058D01*
X137254655Y-87768465D01*
X137305792Y-87816076D01*
X137323149Y-87879348D01*
X137323149Y-103558549D01*
X137330766Y-103596841D01*
X137333149Y-103621033D01*
X137333149Y-104211349D01*
X137333150Y-104211355D01*
X137339557Y-104270962D01*
X137389851Y-104405807D01*
X137389855Y-104405814D01*
X137476101Y-104521023D01*
X137476104Y-104521026D01*
X137591313Y-104607272D01*
X137591320Y-104607276D01*
X137622813Y-104619022D01*
X137726166Y-104657570D01*
X137785776Y-104663979D01*
X138161521Y-104663978D01*
X138212741Y-104658472D01*
X138239254Y-104658472D01*
X138285809Y-104663478D01*
X138285821Y-104663479D01*
X138333649Y-104663479D01*
X138342324Y-104654803D01*
X138344689Y-104648463D01*
X138353334Y-104619022D01*
X138357229Y-104614837D01*
X138358380Y-104611753D01*
X138383336Y-104586796D01*
X138399337Y-104574817D01*
X138464800Y-104550399D01*
X138533073Y-104565249D01*
X138547955Y-104574813D01*
X138563962Y-104586796D01*
X138605832Y-104642730D01*
X138608678Y-104658508D01*
X138613649Y-104663479D01*
X138661477Y-104663479D01*
X138661488Y-104663478D01*
X138708045Y-104658472D01*
X138734555Y-104658472D01*
X138785776Y-104663979D01*
X139161521Y-104663978D01*
X139161524Y-104663977D01*
X139161536Y-104663977D01*
X139188025Y-104661128D01*
X139210397Y-104658724D01*
X139236899Y-104658724D01*
X139285776Y-104663979D01*
X139661521Y-104663978D01*
X139661525Y-104663977D01*
X139661534Y-104663977D01*
X139677230Y-104662289D01*
X139710397Y-104658724D01*
X139736899Y-104658724D01*
X139762405Y-104661466D01*
X139826956Y-104688204D01*
X139866804Y-104745597D01*
X139873149Y-104784755D01*
X139873149Y-105493695D01*
X139853464Y-105560734D01*
X139836830Y-105581376D01*
X138192546Y-107225660D01*
X138131223Y-107259145D01*
X138104865Y-107261979D01*
X137698149Y-107261979D01*
X137631110Y-107242294D01*
X137585355Y-107189490D01*
X137574149Y-107137979D01*
X137574148Y-105214608D01*
X137574147Y-105214602D01*
X137567740Y-105154995D01*
X137517446Y-105020150D01*
X137517442Y-105020143D01*
X137431196Y-104904934D01*
X137431193Y-104904931D01*
X137315984Y-104818685D01*
X137315977Y-104818681D01*
X137181131Y-104768387D01*
X137181132Y-104768387D01*
X137121532Y-104761980D01*
X137121530Y-104761979D01*
X137121522Y-104761979D01*
X137121513Y-104761979D01*
X135225778Y-104761979D01*
X135225772Y-104761980D01*
X135166164Y-104768388D01*
X135157163Y-104771745D01*
X135087471Y-104776726D01*
X135026149Y-104743238D01*
X134992668Y-104681913D01*
X134989835Y-104655561D01*
X134989835Y-87869396D01*
X134998479Y-87839956D01*
X135005003Y-87809969D01*
X135008233Y-87806738D01*
X135009520Y-87802357D01*
X135032704Y-87782267D01*
X135054409Y-87760563D01*
X135058873Y-87759591D01*
X135062324Y-87756602D01*
X135092692Y-87752235D01*
X135122682Y-87745712D01*
X135128802Y-87747043D01*
G37*
%TD.AperFunction*%
%TA.AperFunction,Conductor*%
G36*
X99029352Y-43569334D02*
G01*
X99035830Y-43575366D01*
X133752516Y-78292052D01*
X133786001Y-78353375D01*
X133788835Y-78379733D01*
X133788835Y-106679068D01*
X133769150Y-106746107D01*
X133716346Y-106791862D01*
X133647188Y-106801806D01*
X133583632Y-106772781D01*
X133577154Y-106766749D01*
X98860468Y-72050063D01*
X98826983Y-71988740D01*
X98824149Y-71962382D01*
X98824149Y-43663047D01*
X98843834Y-43596008D01*
X98896638Y-43550253D01*
X98965796Y-43540309D01*
X99029352Y-43569334D01*
G37*
%TD.AperFunction*%
%TA.AperFunction,Conductor*%
G36*
X137385749Y-42366773D02*
G01*
X137399185Y-42365813D01*
X137418621Y-42376426D01*
X137439865Y-42382664D01*
X137448683Y-42392841D01*
X137460508Y-42399298D01*
X137471121Y-42418735D01*
X137485620Y-42435468D01*
X137487536Y-42448799D01*
X137493992Y-42460622D01*
X137492412Y-42482706D01*
X137495564Y-42504626D01*
X137489859Y-42518398D01*
X137489007Y-42530313D01*
X137472093Y-42561290D01*
X137389852Y-42671148D01*
X137389851Y-42671150D01*
X137339558Y-42805994D01*
X137339355Y-42807884D01*
X137338788Y-42809251D01*
X137337775Y-42813541D01*
X137337079Y-42813376D01*
X137312612Y-42872434D01*
X137303747Y-42882302D01*
X137201862Y-42984186D01*
X137201859Y-42984190D01*
X137114258Y-43115293D01*
X137114251Y-43115306D01*
X137053913Y-43260977D01*
X137053910Y-43260989D01*
X137023149Y-43415632D01*
X137023149Y-43573325D01*
X137053910Y-43727968D01*
X137053913Y-43727980D01*
X137114251Y-43873651D01*
X137114258Y-43873664D01*
X137201858Y-44004766D01*
X137201859Y-44004767D01*
X137201860Y-44004768D01*
X137286831Y-44089739D01*
X137320315Y-44151060D01*
X137323149Y-44177419D01*
X137323149Y-44645610D01*
X137303464Y-44712649D01*
X137250660Y-44758404D01*
X137185895Y-44768900D01*
X137179405Y-44768202D01*
X137121522Y-44761979D01*
X137121514Y-44761979D01*
X135225778Y-44761979D01*
X135225772Y-44761980D01*
X135166165Y-44768387D01*
X135031320Y-44818681D01*
X135031313Y-44818685D01*
X134916104Y-44904931D01*
X134916101Y-44904934D01*
X134829855Y-45020143D01*
X134829851Y-45020150D01*
X134779557Y-45154996D01*
X134773150Y-45214595D01*
X134773150Y-45214602D01*
X134773149Y-45214614D01*
X134773149Y-47310349D01*
X134773150Y-47310355D01*
X134779557Y-47369962D01*
X134829851Y-47504807D01*
X134829855Y-47504814D01*
X134916101Y-47620023D01*
X134916104Y-47620026D01*
X135031313Y-47706272D01*
X135031320Y-47706276D01*
X135166166Y-47756570D01*
X135166165Y-47756570D01*
X135173093Y-47757314D01*
X135225776Y-47762979D01*
X137121521Y-47762978D01*
X137175056Y-47757223D01*
X137185896Y-47756058D01*
X137254655Y-47768465D01*
X137305792Y-47816076D01*
X137323149Y-47879348D01*
X137323149Y-64645610D01*
X137303464Y-64712649D01*
X137250660Y-64758404D01*
X137185895Y-64768900D01*
X137179405Y-64768202D01*
X137121522Y-64761979D01*
X137121514Y-64761979D01*
X135225778Y-64761979D01*
X135225772Y-64761980D01*
X135166165Y-64768387D01*
X135031320Y-64818681D01*
X135031313Y-64818685D01*
X134916104Y-64904931D01*
X134916101Y-64904934D01*
X134829855Y-65020143D01*
X134829851Y-65020150D01*
X134779557Y-65154996D01*
X134773150Y-65214595D01*
X134773150Y-65214602D01*
X134773149Y-65214614D01*
X134773149Y-67310349D01*
X134773150Y-67310355D01*
X134779557Y-67369962D01*
X134829851Y-67504807D01*
X134829855Y-67504814D01*
X134916101Y-67620023D01*
X134916104Y-67620026D01*
X135031313Y-67706272D01*
X135031320Y-67706276D01*
X135166166Y-67756570D01*
X135166165Y-67756570D01*
X135173093Y-67757314D01*
X135225776Y-67762979D01*
X137121521Y-67762978D01*
X137175056Y-67757223D01*
X137185896Y-67756058D01*
X137254655Y-67768465D01*
X137305792Y-67816076D01*
X137323149Y-67879348D01*
X137323149Y-84645610D01*
X137303464Y-84712649D01*
X137250660Y-84758404D01*
X137185895Y-84768900D01*
X137179405Y-84768202D01*
X137121522Y-84761979D01*
X137121514Y-84761979D01*
X135225778Y-84761979D01*
X135225772Y-84761980D01*
X135166164Y-84768388D01*
X135157163Y-84771745D01*
X135087471Y-84776726D01*
X135026149Y-84743238D01*
X134992668Y-84681913D01*
X134989835Y-84655561D01*
X134989835Y-78168696D01*
X134989836Y-78168683D01*
X134989836Y-78000580D01*
X134948911Y-77847850D01*
X134948908Y-77847845D01*
X134869859Y-77710926D01*
X134869853Y-77710918D01*
X117332367Y-60173432D01*
X99733593Y-42574659D01*
X99700109Y-42513337D01*
X99705093Y-42443645D01*
X99746965Y-42387712D01*
X99812429Y-42363295D01*
X99821275Y-42362979D01*
X137372826Y-42362979D01*
X137385749Y-42366773D01*
G37*
%TD.AperFunction*%
%TA.AperFunction,Conductor*%
G36*
X70295526Y-37852206D02*
G01*
X70299991Y-37851887D01*
X70315027Y-37856301D01*
X70316162Y-37856568D01*
X70316166Y-37856570D01*
X70375776Y-37862979D01*
X71199149Y-37862978D01*
X71266188Y-37882662D01*
X71311943Y-37935466D01*
X71323149Y-37986978D01*
X71323149Y-38875809D01*
X71323148Y-38875827D01*
X71323148Y-39041533D01*
X71323147Y-39041533D01*
X71364072Y-39194264D01*
X71392208Y-39242997D01*
X71392210Y-39242999D01*
X71443128Y-39331193D01*
X71443130Y-39331196D01*
X71561998Y-39450064D01*
X71562004Y-39450069D01*
X95389074Y-63277139D01*
X95422559Y-63338462D01*
X95423010Y-63340628D01*
X95453910Y-63495970D01*
X95453913Y-63495980D01*
X95514251Y-63641651D01*
X95514258Y-63641664D01*
X95601859Y-63772767D01*
X95601862Y-63772771D01*
X95713356Y-63884265D01*
X95713360Y-63884268D01*
X95844463Y-63971869D01*
X95844476Y-63971876D01*
X95990147Y-64032214D01*
X95990152Y-64032216D01*
X96144802Y-64062978D01*
X96144805Y-64062979D01*
X96144807Y-64062979D01*
X96302493Y-64062979D01*
X96302494Y-64062978D01*
X96457146Y-64032216D01*
X96602828Y-63971873D01*
X96733938Y-63884268D01*
X96845438Y-63772768D01*
X96933043Y-63641658D01*
X96993386Y-63495976D01*
X97024149Y-63341321D01*
X97024149Y-63183637D01*
X97024149Y-63183634D01*
X97024148Y-63183632D01*
X96993387Y-63028989D01*
X96993386Y-63028982D01*
X96933444Y-62884268D01*
X96933046Y-62883306D01*
X96933039Y-62883293D01*
X96845438Y-62752190D01*
X96845435Y-62752186D01*
X96733941Y-62640692D01*
X96733937Y-62640689D01*
X96602834Y-62553088D01*
X96602821Y-62553081D01*
X96457150Y-62492743D01*
X96457140Y-62492740D01*
X96301800Y-62461841D01*
X96239890Y-62429456D01*
X96238311Y-62427905D01*
X76707513Y-42897107D01*
X76674028Y-42835784D01*
X76679012Y-42766092D01*
X76720884Y-42710159D01*
X76786348Y-42685742D01*
X76854621Y-42700594D01*
X76857193Y-42702039D01*
X76891858Y-42722052D01*
X76891865Y-42722056D01*
X77044592Y-42762980D01*
X77044594Y-42762980D01*
X77210303Y-42762980D01*
X77210319Y-42762979D01*
X97305801Y-42762979D01*
X97372840Y-42782664D01*
X97418595Y-42835468D01*
X97427418Y-42862787D01*
X97453910Y-42995970D01*
X97453913Y-42995980D01*
X97514251Y-43141651D01*
X97514258Y-43141664D01*
X97593244Y-43259874D01*
X97593981Y-43260977D01*
X97602251Y-43273353D01*
X97623129Y-43340030D01*
X97623149Y-43342244D01*
X97623149Y-72013382D01*
X97603464Y-72080421D01*
X97550660Y-72126176D01*
X97481502Y-72136120D01*
X97417946Y-72107095D01*
X97411468Y-72101063D01*
X67060468Y-41750063D01*
X67026983Y-41688740D01*
X67024149Y-41662382D01*
X67024149Y-37986978D01*
X67043834Y-37919939D01*
X67096638Y-37874184D01*
X67148144Y-37862978D01*
X67971521Y-37862978D01*
X68031132Y-37856570D01*
X68031134Y-37856569D01*
X68031136Y-37856569D01*
X68038680Y-37854787D01*
X68039026Y-37856254D01*
X68099991Y-37851887D01*
X68115027Y-37856301D01*
X68116162Y-37856568D01*
X68116166Y-37856570D01*
X68175776Y-37862979D01*
X69071521Y-37862978D01*
X69131132Y-37856570D01*
X69131134Y-37856569D01*
X69131136Y-37856569D01*
X69138680Y-37854787D01*
X69139026Y-37856254D01*
X69199991Y-37851887D01*
X69215027Y-37856301D01*
X69216162Y-37856568D01*
X69216166Y-37856570D01*
X69275776Y-37862979D01*
X70171521Y-37862978D01*
X70231132Y-37856570D01*
X70231134Y-37856569D01*
X70231136Y-37856569D01*
X70238680Y-37854787D01*
X70239026Y-37856254D01*
X70256669Y-37854990D01*
X70282503Y-37849373D01*
X70295526Y-37852206D01*
G37*
%TD.AperFunction*%
%TA.AperFunction,Conductor*%
G36*
X61816688Y-21519685D02*
G01*
X61862443Y-21572489D01*
X61873649Y-21624000D01*
X61873649Y-21812479D01*
X64073649Y-21812479D01*
X64073649Y-21624000D01*
X64093334Y-21556961D01*
X64146138Y-21511206D01*
X64197649Y-21500000D01*
X75249649Y-21500000D01*
X75316688Y-21519685D01*
X75362443Y-21572489D01*
X75373649Y-21624000D01*
X75373649Y-21812479D01*
X77573649Y-21812479D01*
X77573649Y-21624000D01*
X77593334Y-21556961D01*
X77646138Y-21511206D01*
X77697649Y-21500000D01*
X92838434Y-21500000D01*
X92885833Y-21509417D01*
X93000766Y-21556961D01*
X93203601Y-21640867D01*
X93206100Y-21641934D01*
X94386974Y-22161979D01*
X94789244Y-22339135D01*
X94791795Y-22340294D01*
X94930017Y-22404933D01*
X96358652Y-23073031D01*
X96361110Y-23074214D01*
X97855357Y-23814595D01*
X97911746Y-23842535D01*
X97912898Y-23843114D01*
X97971060Y-23872756D01*
X97971064Y-23872756D01*
X97984145Y-23879422D01*
X97984146Y-23879423D01*
X98838771Y-24314964D01*
X100708406Y-25225497D01*
X101799092Y-25732423D01*
X102594245Y-26101992D01*
X104495660Y-26944156D01*
X106412029Y-27751716D01*
X108342721Y-28524404D01*
X109696618Y-29037979D01*
X110287112Y-29261972D01*
X112244514Y-29964157D01*
X112244534Y-29964164D01*
X114214373Y-30630762D01*
X116195972Y-31261544D01*
X118188680Y-31856301D01*
X120191842Y-32414838D01*
X122204798Y-32936972D01*
X124226889Y-33422531D01*
X126257450Y-33871356D01*
X128295813Y-34283299D01*
X130027495Y-34600704D01*
X130341323Y-34658227D01*
X132393261Y-34996009D01*
X133348118Y-35135466D01*
X134451005Y-35296543D01*
X136513856Y-35559726D01*
X138581139Y-35785472D01*
X140652174Y-35973708D01*
X142726281Y-36124371D01*
X144802778Y-36237411D01*
X146880984Y-36312792D01*
X148960214Y-36350489D01*
X149924112Y-36350498D01*
X149924120Y-36350500D01*
X149934108Y-36350500D01*
X150000000Y-36350500D01*
X150065892Y-36350500D01*
X153375500Y-36350500D01*
X153442539Y-36370185D01*
X153488294Y-36422989D01*
X153499500Y-36474500D01*
X153499500Y-44065891D01*
X153533608Y-44193187D01*
X153544091Y-44211343D01*
X153599500Y-44307314D01*
X153692686Y-44400500D01*
X153806814Y-44466392D01*
X153934108Y-44500500D01*
X156216240Y-44500500D01*
X156220486Y-44501746D01*
X156224810Y-44500796D01*
X156253719Y-44511505D01*
X156283279Y-44520185D01*
X156287344Y-44523961D01*
X156290329Y-44525067D01*
X156298865Y-44534663D01*
X156315341Y-44549968D01*
X156319861Y-44555979D01*
X156349500Y-44607314D01*
X156385679Y-44643493D01*
X156390925Y-44650468D01*
X156400262Y-44675333D01*
X156412990Y-44698642D01*
X156412354Y-44707532D01*
X156415488Y-44715878D01*
X156409900Y-44741843D01*
X156408006Y-44768334D01*
X156402283Y-44777237D01*
X156400789Y-44784184D01*
X156392411Y-44792599D01*
X156379505Y-44812681D01*
X156349502Y-44842683D01*
X156349500Y-44842686D01*
X156283608Y-44956812D01*
X156249500Y-45084108D01*
X156249500Y-45215891D01*
X156283608Y-45343187D01*
X156310964Y-45390568D01*
X156349500Y-45457314D01*
X156349502Y-45457316D01*
X156379505Y-45487319D01*
X156412990Y-45548642D01*
X156408006Y-45618334D01*
X156379505Y-45662681D01*
X156349502Y-45692683D01*
X156349500Y-45692686D01*
X156283608Y-45806812D01*
X156249500Y-45934108D01*
X156249500Y-46065891D01*
X156283608Y-46193187D01*
X156316554Y-46250250D01*
X156349500Y-46307314D01*
X156349502Y-46307316D01*
X156379505Y-46337319D01*
X156412990Y-46398642D01*
X156408006Y-46468334D01*
X156379505Y-46512681D01*
X156349502Y-46542683D01*
X156349500Y-46542686D01*
X156283608Y-46656812D01*
X156249500Y-46784108D01*
X156249500Y-46915891D01*
X156283608Y-47043187D01*
X156316554Y-47100250D01*
X156349500Y-47157314D01*
X156349502Y-47157316D01*
X156379505Y-47187319D01*
X156412990Y-47248642D01*
X156408006Y-47318334D01*
X156379505Y-47362681D01*
X156349502Y-47392683D01*
X156349500Y-47392686D01*
X156283608Y-47506812D01*
X156270711Y-47554947D01*
X156249500Y-47634108D01*
X156249500Y-47765892D01*
X156257703Y-47796506D01*
X156283608Y-47893187D01*
X156316554Y-47950250D01*
X156349500Y-48007314D01*
X156442686Y-48100500D01*
X156442688Y-48100501D01*
X156449137Y-48105450D01*
X156447324Y-48107812D01*
X156485710Y-48148062D01*
X156499500Y-48204893D01*
X156499500Y-69795107D01*
X156479815Y-69862146D01*
X156447739Y-69892732D01*
X156449135Y-69894552D01*
X156442683Y-69899502D01*
X156349502Y-69992683D01*
X156349500Y-69992686D01*
X156283608Y-70106812D01*
X156249500Y-70234108D01*
X156249500Y-70365891D01*
X156283608Y-70493187D01*
X156287253Y-70499500D01*
X156349500Y-70607314D01*
X156349502Y-70607316D01*
X156379505Y-70637319D01*
X156412990Y-70698642D01*
X156408006Y-70768334D01*
X156379505Y-70812681D01*
X156349502Y-70842683D01*
X156349500Y-70842686D01*
X156283608Y-70956812D01*
X156249500Y-71084108D01*
X156249500Y-71215891D01*
X156283608Y-71343187D01*
X156310964Y-71390568D01*
X156349500Y-71457314D01*
X156349502Y-71457316D01*
X156379505Y-71487319D01*
X156412990Y-71548642D01*
X156408006Y-71618334D01*
X156379505Y-71662681D01*
X156349502Y-71692683D01*
X156349500Y-71692686D01*
X156283608Y-71806812D01*
X156249500Y-71934108D01*
X156249500Y-72065891D01*
X156283608Y-72193187D01*
X156316554Y-72250250D01*
X156349500Y-72307314D01*
X156349502Y-72307316D01*
X156379505Y-72337319D01*
X156412990Y-72398642D01*
X156408006Y-72468334D01*
X156379505Y-72512681D01*
X156349502Y-72542683D01*
X156349500Y-72542686D01*
X156283608Y-72656812D01*
X156249500Y-72784108D01*
X156249500Y-72915891D01*
X156283608Y-73043187D01*
X156316554Y-73100250D01*
X156349500Y-73157314D01*
X156349502Y-73157316D01*
X156379505Y-73187319D01*
X156412990Y-73248642D01*
X156408006Y-73318334D01*
X156379505Y-73362681D01*
X156349502Y-73392683D01*
X156349500Y-73392686D01*
X156283608Y-73506812D01*
X156249500Y-73634108D01*
X156249500Y-73765891D01*
X156283608Y-73893187D01*
X156316554Y-73950250D01*
X156349500Y-74007314D01*
X156442686Y-74100500D01*
X156442688Y-74100501D01*
X156449137Y-74105450D01*
X156447324Y-74107812D01*
X156485710Y-74148062D01*
X156499500Y-74204893D01*
X156499500Y-95795107D01*
X156479815Y-95862146D01*
X156447739Y-95892732D01*
X156449135Y-95894552D01*
X156442683Y-95899502D01*
X156349502Y-95992683D01*
X156349500Y-95992686D01*
X156283608Y-96106812D01*
X156249500Y-96234108D01*
X156249500Y-96365891D01*
X156283608Y-96493187D01*
X156287253Y-96499500D01*
X156349500Y-96607314D01*
X156349502Y-96607316D01*
X156379505Y-96637319D01*
X156412990Y-96698642D01*
X156408006Y-96768334D01*
X156379505Y-96812681D01*
X156349502Y-96842683D01*
X156349500Y-96842686D01*
X156283608Y-96956812D01*
X156249500Y-97084108D01*
X156249500Y-97215892D01*
X156266554Y-97279539D01*
X156283608Y-97343187D01*
X156310964Y-97390568D01*
X156349500Y-97457314D01*
X156349502Y-97457316D01*
X156379505Y-97487319D01*
X156412990Y-97548642D01*
X156408006Y-97618334D01*
X156379505Y-97662681D01*
X156349502Y-97692683D01*
X156349500Y-97692686D01*
X156283608Y-97806812D01*
X156249500Y-97934108D01*
X156249500Y-98065891D01*
X156283608Y-98193187D01*
X156316554Y-98250250D01*
X156349500Y-98307314D01*
X156349502Y-98307316D01*
X156379505Y-98337319D01*
X156412990Y-98398642D01*
X156408006Y-98468334D01*
X156379505Y-98512681D01*
X156349502Y-98542683D01*
X156349500Y-98542686D01*
X156283608Y-98656812D01*
X156249500Y-98784108D01*
X156249500Y-98915891D01*
X156283608Y-99043187D01*
X156316554Y-99100250D01*
X156349500Y-99157314D01*
X156349502Y-99157316D01*
X156379505Y-99187319D01*
X156412990Y-99248642D01*
X156408006Y-99318334D01*
X156379505Y-99362681D01*
X156349502Y-99392683D01*
X156349500Y-99392686D01*
X156283608Y-99506812D01*
X156249500Y-99634108D01*
X156249500Y-99765891D01*
X156283608Y-99893187D01*
X156316554Y-99950250D01*
X156349500Y-100007314D01*
X156442686Y-100100500D01*
X156442688Y-100100501D01*
X156449137Y-100105450D01*
X156447324Y-100107812D01*
X156485710Y-100148062D01*
X156499500Y-100204893D01*
X156499500Y-121795107D01*
X156479815Y-121862146D01*
X156447739Y-121892732D01*
X156449135Y-121894552D01*
X156442683Y-121899502D01*
X156349502Y-121992683D01*
X156349500Y-121992686D01*
X156283608Y-122106812D01*
X156249500Y-122234108D01*
X156249500Y-122365891D01*
X156283608Y-122493187D01*
X156287253Y-122499500D01*
X156349500Y-122607314D01*
X156349502Y-122607316D01*
X156379505Y-122637319D01*
X156412990Y-122698642D01*
X156408006Y-122768334D01*
X156379505Y-122812681D01*
X156349502Y-122842683D01*
X156349500Y-122842686D01*
X156283608Y-122956812D01*
X156249500Y-123084108D01*
X156249500Y-123215891D01*
X156283608Y-123343187D01*
X156310964Y-123390568D01*
X156349500Y-123457314D01*
X156349502Y-123457316D01*
X156379505Y-123487319D01*
X156412990Y-123548642D01*
X156408006Y-123618334D01*
X156379505Y-123662681D01*
X156349502Y-123692683D01*
X156349500Y-123692686D01*
X156283608Y-123806812D01*
X156249500Y-123934108D01*
X156249500Y-124065891D01*
X156283608Y-124193187D01*
X156316554Y-124250250D01*
X156349500Y-124307314D01*
X156349502Y-124307316D01*
X156379505Y-124337319D01*
X156412990Y-124398642D01*
X156408006Y-124468334D01*
X156379505Y-124512681D01*
X156349502Y-124542683D01*
X156349500Y-124542686D01*
X156283608Y-124656812D01*
X156249500Y-124784108D01*
X156249500Y-124915891D01*
X156283608Y-125043187D01*
X156316554Y-125100250D01*
X156349500Y-125157314D01*
X156349502Y-125157316D01*
X156379505Y-125187319D01*
X156412990Y-125248642D01*
X156408006Y-125318334D01*
X156379505Y-125362681D01*
X156349502Y-125392683D01*
X156349500Y-125392686D01*
X156283608Y-125506812D01*
X156249500Y-125634108D01*
X156249500Y-125717130D01*
X156229815Y-125784169D01*
X156177011Y-125829924D01*
X156125500Y-125841130D01*
X153934108Y-125841130D01*
X153806812Y-125875238D01*
X153692686Y-125941130D01*
X153692683Y-125941132D01*
X153599502Y-126034313D01*
X153599500Y-126034316D01*
X153533608Y-126148442D01*
X153499500Y-126275738D01*
X153499500Y-133867130D01*
X153479815Y-133934169D01*
X153427011Y-133979924D01*
X153375500Y-133991130D01*
X150065892Y-133991130D01*
X150000000Y-133991130D01*
X149671719Y-133991130D01*
X149016191Y-134027944D01*
X149016188Y-134027944D01*
X149016176Y-134027945D01*
X148363802Y-134101448D01*
X148363749Y-134101455D01*
X147716476Y-134211429D01*
X147076385Y-134357524D01*
X147076375Y-134357527D01*
X146445463Y-134539288D01*
X145825739Y-134756136D01*
X145219170Y-135007381D01*
X144627665Y-135292232D01*
X144627605Y-135292263D01*
X144052987Y-135609838D01*
X144052972Y-135609847D01*
X143497074Y-135959137D01*
X143497071Y-135959139D01*
X143497063Y-135959144D01*
X143497056Y-135959149D01*
X143366630Y-136051690D01*
X142961595Y-136339073D01*
X142448259Y-136748437D01*
X141958702Y-137185926D01*
X141958699Y-137185929D01*
X141755721Y-137388903D01*
X141755720Y-137388904D01*
X139086052Y-140058525D01*
X139086051Y-140058527D01*
X139042596Y-140101981D01*
X139036118Y-140108013D01*
X138884470Y-140239414D01*
X138870307Y-140250016D01*
X138705245Y-140356094D01*
X138689716Y-140364573D01*
X138511238Y-140446079D01*
X138494662Y-140452261D01*
X138306407Y-140507536D01*
X138289119Y-140511297D01*
X138094904Y-140539220D01*
X138077258Y-140540482D01*
X137881052Y-140540482D01*
X137863406Y-140539220D01*
X137669191Y-140511295D01*
X137651908Y-140507536D01*
X137530435Y-140471868D01*
X137463645Y-140452256D01*
X137447070Y-140446074D01*
X137268582Y-140364561D01*
X137253069Y-140356090D01*
X137088004Y-140250008D01*
X137073842Y-140239407D01*
X136922195Y-140108004D01*
X136915717Y-140101972D01*
X136872262Y-140058517D01*
X127821319Y-131007573D01*
X127198940Y-130385194D01*
X127198915Y-130385169D01*
X125835227Y-129073372D01*
X125835198Y-129073344D01*
X124446380Y-127788284D01*
X123383194Y-126842130D01*
X123032831Y-126530333D01*
X121595176Y-125300047D01*
X120133935Y-124097871D01*
X118649657Y-122924256D01*
X117142899Y-121779643D01*
X115614230Y-120664464D01*
X115440008Y-120542473D01*
X114064197Y-119579119D01*
X112983887Y-118853486D01*
X112493462Y-118524072D01*
X110902536Y-117499664D01*
X109292061Y-116506307D01*
X107662593Y-115544349D01*
X106014796Y-114614178D01*
X104349297Y-113716148D01*
X102666636Y-112850552D01*
X101671964Y-112363029D01*
X100967552Y-112017772D01*
X99252629Y-111218090D01*
X99252627Y-111218089D01*
X97522544Y-110451823D01*
X97522535Y-110451819D01*
X97522521Y-110451813D01*
X95777879Y-109719229D01*
X94019359Y-109020614D01*
X94019352Y-109020611D01*
X94019341Y-109020607D01*
X92247658Y-108356243D01*
X92247652Y-108356240D01*
X92247623Y-108356230D01*
X90463336Y-107726328D01*
X90463333Y-107726327D01*
X90463316Y-107726321D01*
X89208023Y-107310362D01*
X88667171Y-107131143D01*
X87604713Y-106801806D01*
X86859812Y-106570904D01*
X85041923Y-106045814D01*
X84415207Y-105877886D01*
X84191689Y-105817995D01*
X84191688Y-105817994D01*
X84128042Y-105800941D01*
X83308619Y-105581376D01*
X81894800Y-105202542D01*
X81894759Y-105202531D01*
X81894728Y-105202523D01*
X79281782Y-104521025D01*
X77420436Y-104035556D01*
X75738446Y-103608822D01*
X72938441Y-102898438D01*
X68448799Y-101791187D01*
X63952085Y-100713943D01*
X59448079Y-99666654D01*
X54937509Y-98649489D01*
X54937500Y-98649487D01*
X54937389Y-98649462D01*
X50419934Y-97662346D01*
X50419879Y-97662334D01*
X50419827Y-97662323D01*
X45896066Y-96705383D01*
X45896041Y-96705377D01*
X45895999Y-96705369D01*
X44236614Y-96365891D01*
X41365798Y-95778577D01*
X39097882Y-95330341D01*
X39097250Y-95330214D01*
X36272983Y-94756737D01*
X36271720Y-94756474D01*
X33453794Y-94153698D01*
X33452534Y-94153422D01*
X30640941Y-93521346D01*
X30639684Y-93521056D01*
X27834976Y-92859808D01*
X27833723Y-92859506D01*
X25035908Y-92169085D01*
X25034657Y-92168769D01*
X22244311Y-91449318D01*
X22243064Y-91448990D01*
X19460197Y-90700513D01*
X19458953Y-90700171D01*
X16688122Y-89923935D01*
X16679036Y-89921008D01*
X16489809Y-89851904D01*
X16473577Y-89844618D01*
X16299824Y-89751101D01*
X16284802Y-89741566D01*
X16126227Y-89624149D01*
X16112725Y-89612563D01*
X15972586Y-89473661D01*
X15960881Y-89460262D01*
X15842063Y-89302735D01*
X15832396Y-89287799D01*
X15737345Y-89114887D01*
X15729915Y-89098721D01*
X15660588Y-88913987D01*
X15655548Y-88896923D01*
X15613373Y-88704168D01*
X15610827Y-88686560D01*
X15596352Y-88485310D01*
X15596032Y-88476414D01*
X15596032Y-32708574D01*
X15596295Y-32700500D01*
X15601899Y-32614607D01*
X15608219Y-32517750D01*
X15610317Y-32501743D01*
X15645102Y-32326056D01*
X15649258Y-32310475D01*
X15706580Y-32140792D01*
X15712726Y-32125880D01*
X15791612Y-31965083D01*
X15799642Y-31951099D01*
X15898752Y-31801918D01*
X15908537Y-31789089D01*
X16026193Y-31654053D01*
X16037547Y-31642618D01*
X16174286Y-31521775D01*
X16181584Y-31515807D01*
X17558804Y-30474683D01*
X17560968Y-30473084D01*
X18964148Y-29461339D01*
X18966374Y-29459772D01*
X20391984Y-28480041D01*
X20394243Y-28478526D01*
X21841667Y-27531235D01*
X21843943Y-27529781D01*
X23312398Y-26615443D01*
X23314719Y-26614034D01*
X24803503Y-25733085D01*
X24805816Y-25731753D01*
X26314041Y-24884719D01*
X26316421Y-24883416D01*
X27843523Y-24070615D01*
X27845817Y-24069427D01*
X28690485Y-23644061D01*
X48061150Y-23644061D01*
X48067557Y-23714581D01*
X48067558Y-23714586D01*
X48118130Y-23876875D01*
X48206076Y-24022356D01*
X48326271Y-24142551D01*
X48471753Y-24230498D01*
X48471752Y-24230498D01*
X48634043Y-24281069D01*
X48634042Y-24281069D01*
X48704557Y-24287477D01*
X48704575Y-24287478D01*
X48711148Y-24287477D01*
X48711149Y-24287477D01*
X48711149Y-23562479D01*
X48061150Y-23562479D01*
X48061150Y-23644061D01*
X28690485Y-23644061D01*
X29390858Y-23291360D01*
X29393297Y-23290166D01*
X30043584Y-22980906D01*
X48061149Y-22980906D01*
X48061149Y-23062479D01*
X48711149Y-23062479D01*
X48711149Y-22337479D01*
X49211149Y-22337479D01*
X49211149Y-24287478D01*
X49217730Y-24287478D01*
X49288251Y-24281070D01*
X49288256Y-24281069D01*
X49450545Y-24230497D01*
X49596026Y-24142551D01*
X49596027Y-24142550D01*
X49698112Y-24040464D01*
X49759435Y-24006978D01*
X49829126Y-24011962D01*
X49873475Y-24040463D01*
X49975960Y-24142948D01*
X49975962Y-24142949D01*
X49975964Y-24142951D01*
X50121543Y-24230957D01*
X50231633Y-24265261D01*
X50256740Y-24276259D01*
X50276172Y-24287478D01*
X50379365Y-24347056D01*
X50532092Y-24387979D01*
X50532094Y-24387979D01*
X50690204Y-24387979D01*
X50690206Y-24387979D01*
X50842933Y-24347056D01*
X50965562Y-24276255D01*
X50990663Y-24265261D01*
X51100755Y-24230957D01*
X51246334Y-24142951D01*
X51366621Y-24022664D01*
X51383077Y-23995441D01*
X51434602Y-23948257D01*
X51503461Y-23936418D01*
X51567790Y-23963686D01*
X51607165Y-24021404D01*
X51612810Y-24069321D01*
X51610649Y-24096774D01*
X51610649Y-24528180D01*
X51613550Y-24565046D01*
X51613551Y-24565052D01*
X51659403Y-24722872D01*
X51659404Y-24722875D01*
X51659405Y-24722877D01*
X51686053Y-24767937D01*
X51743066Y-24864341D01*
X51743072Y-24864349D01*
X51859278Y-24980555D01*
X51859282Y-24980558D01*
X51859284Y-24980560D01*
X52000751Y-25064223D01*
X52042373Y-25076315D01*
X52158575Y-25110076D01*
X52158578Y-25110076D01*
X52158580Y-25110077D01*
X52195455Y-25112979D01*
X52769807Y-25112979D01*
X52927491Y-25112979D01*
X53361649Y-25112979D01*
X53428688Y-25132664D01*
X53474443Y-25185468D01*
X53485649Y-25236979D01*
X53485649Y-25478180D01*
X53488550Y-25515046D01*
X53488551Y-25515052D01*
X53534403Y-25672872D01*
X53534404Y-25672875D01*
X53618066Y-25814341D01*
X53618072Y-25814349D01*
X53734278Y-25930555D01*
X53734282Y-25930558D01*
X53734284Y-25930560D01*
X53875751Y-26014223D01*
X53877073Y-26014607D01*
X54033575Y-26060076D01*
X54033578Y-26060076D01*
X54033580Y-26060077D01*
X54070455Y-26062979D01*
X54070463Y-26062979D01*
X55376835Y-26062979D01*
X55376843Y-26062979D01*
X55413718Y-26060077D01*
X55413720Y-26060076D01*
X55413722Y-26060076D01*
X55455340Y-26047984D01*
X55571547Y-26014223D01*
X55713014Y-25930560D01*
X55829230Y-25814344D01*
X55912893Y-25672877D01*
X55958747Y-25515048D01*
X55961649Y-25478173D01*
X55961649Y-25046785D01*
X55958747Y-25009910D01*
X55952758Y-24989297D01*
X55912894Y-24852085D01*
X55912893Y-24852082D01*
X55912893Y-24852081D01*
X55829230Y-24710614D01*
X55829228Y-24710612D01*
X55829225Y-24710608D01*
X55713019Y-24594402D01*
X55713011Y-24594396D01*
X55571545Y-24510734D01*
X55571542Y-24510733D01*
X55413722Y-24464881D01*
X55413716Y-24464880D01*
X55376850Y-24461979D01*
X55376843Y-24461979D01*
X55327817Y-24461979D01*
X55319417Y-24459512D01*
X55310758Y-24460800D01*
X55286404Y-24449818D01*
X55260778Y-24442294D01*
X55253373Y-24434925D01*
X55247064Y-24432080D01*
X55230714Y-24412374D01*
X55223824Y-24405517D01*
X55222047Y-24402781D01*
X55204169Y-24371815D01*
X55197799Y-24365445D01*
X55190702Y-24354517D01*
X55184278Y-24333023D01*
X55173529Y-24313337D01*
X55174468Y-24300197D01*
X55170696Y-24287573D01*
X55176912Y-24266019D01*
X55178513Y-24243645D01*
X55186409Y-24233097D01*
X55190060Y-24220440D01*
X55206941Y-24205670D01*
X55220385Y-24187712D01*
X55232728Y-24183107D01*
X55242644Y-24174433D01*
X55264831Y-24171134D01*
X55285849Y-24163295D01*
X55294695Y-24162979D01*
X55376835Y-24162979D01*
X55376843Y-24162979D01*
X55413718Y-24160077D01*
X55413720Y-24160076D01*
X55413722Y-24160076D01*
X55455340Y-24147984D01*
X55571547Y-24114223D01*
X55713014Y-24030560D01*
X55829230Y-23914344D01*
X55912893Y-23772877D01*
X55958747Y-23615048D01*
X55961649Y-23578173D01*
X55961649Y-23486979D01*
X55981334Y-23419940D01*
X56034138Y-23374185D01*
X56085649Y-23362979D01*
X59423552Y-23362979D01*
X59452992Y-23371623D01*
X59482979Y-23378147D01*
X59487994Y-23381901D01*
X59490591Y-23382664D01*
X59511233Y-23399298D01*
X59638788Y-23526853D01*
X59638798Y-23526864D01*
X59643128Y-23531194D01*
X59643129Y-23531195D01*
X59754933Y-23642999D01*
X59754935Y-23643000D01*
X59754939Y-23643003D01*
X59891858Y-23722052D01*
X59891865Y-23722056D01*
X60003668Y-23752013D01*
X60044591Y-23762979D01*
X60044592Y-23762979D01*
X61749149Y-23762979D01*
X61816188Y-23782664D01*
X61861943Y-23835468D01*
X61873149Y-23886979D01*
X61873149Y-24710349D01*
X61873150Y-24710355D01*
X61879557Y-24769958D01*
X61881341Y-24777505D01*
X61879878Y-24777850D01*
X61884234Y-24838850D01*
X61879822Y-24853875D01*
X61879557Y-24854996D01*
X61873150Y-24914595D01*
X61873150Y-24914602D01*
X61873149Y-24914614D01*
X61873149Y-25810349D01*
X61873150Y-25810355D01*
X61879557Y-25869961D01*
X61879912Y-25871460D01*
X61879912Y-25873256D01*
X61880387Y-25877675D01*
X61879912Y-25877726D01*
X61879913Y-25922233D01*
X61880387Y-25922284D01*
X61879913Y-25926683D01*
X61879914Y-25928488D01*
X61879557Y-25929995D01*
X61873150Y-25989595D01*
X61873150Y-25989602D01*
X61873149Y-25989614D01*
X61873149Y-26935349D01*
X61873150Y-26935355D01*
X61879557Y-26994961D01*
X61879912Y-26996460D01*
X61879912Y-26998256D01*
X61880387Y-27002675D01*
X61879912Y-27002726D01*
X61879913Y-27047233D01*
X61880387Y-27047284D01*
X61879913Y-27051683D01*
X61879914Y-27053488D01*
X61879557Y-27054995D01*
X61873150Y-27114595D01*
X61873150Y-27114602D01*
X61873149Y-27114614D01*
X61873149Y-28010349D01*
X61873150Y-28010355D01*
X61879557Y-28069958D01*
X61881341Y-28077505D01*
X61879878Y-28077850D01*
X61884234Y-28138850D01*
X61879822Y-28153875D01*
X61879557Y-28154996D01*
X61873150Y-28214595D01*
X61873150Y-28214602D01*
X61873149Y-28214614D01*
X61873150Y-29037979D01*
X61853466Y-29105018D01*
X61800662Y-29150773D01*
X61749150Y-29161979D01*
X61310318Y-29161979D01*
X61310302Y-29161978D01*
X61302706Y-29161978D01*
X61144592Y-29161978D01*
X61064659Y-29183396D01*
X60991865Y-29202901D01*
X60958687Y-29222057D01*
X60958686Y-29222056D01*
X60854936Y-29281956D01*
X60854931Y-29281960D01*
X58243130Y-31893761D01*
X58243129Y-31893763D01*
X58210032Y-31951090D01*
X58193010Y-31980573D01*
X58193008Y-31980575D01*
X58164074Y-32030688D01*
X58164073Y-32030689D01*
X58164072Y-32030694D01*
X58123148Y-32183422D01*
X58123148Y-32183424D01*
X58123148Y-32351525D01*
X58123149Y-32351538D01*
X58123149Y-39675809D01*
X58123148Y-39675827D01*
X58123148Y-39841533D01*
X58123147Y-39841533D01*
X58164072Y-39994264D01*
X58193007Y-40044379D01*
X58193008Y-40044383D01*
X58193009Y-40044383D01*
X58243128Y-40131193D01*
X58243130Y-40131196D01*
X58361998Y-40250064D01*
X58362004Y-40250069D01*
X77738788Y-59626853D01*
X77738798Y-59626864D01*
X77743128Y-59631194D01*
X77743129Y-59631195D01*
X77854933Y-59742999D01*
X77854935Y-59743000D01*
X77854939Y-59743003D01*
X77966360Y-59807331D01*
X77991865Y-59822056D01*
X78103668Y-59852013D01*
X78144591Y-59862979D01*
X78144592Y-59862979D01*
X79143883Y-59862979D01*
X79210922Y-59882664D01*
X79212774Y-59883877D01*
X79344463Y-59971869D01*
X79344476Y-59971876D01*
X79436790Y-60010113D01*
X79490152Y-60032216D01*
X79644802Y-60062978D01*
X79644805Y-60062979D01*
X79644807Y-60062979D01*
X79802493Y-60062979D01*
X79802494Y-60062978D01*
X79957146Y-60032216D01*
X80102828Y-59971873D01*
X80233938Y-59884268D01*
X80277389Y-59840816D01*
X80338709Y-59807331D01*
X80408401Y-59812314D01*
X80452751Y-59840816D01*
X81889074Y-61277139D01*
X81922559Y-61338462D01*
X81923010Y-61340628D01*
X81953910Y-61495970D01*
X81953913Y-61495980D01*
X82014251Y-61641651D01*
X82014258Y-61641664D01*
X82101859Y-61772767D01*
X82101862Y-61772771D01*
X82213356Y-61884265D01*
X82213360Y-61884268D01*
X82344463Y-61971869D01*
X82344476Y-61971876D01*
X82490147Y-62032214D01*
X82490152Y-62032216D01*
X82644802Y-62062978D01*
X82644805Y-62062979D01*
X82644807Y-62062979D01*
X82802493Y-62062979D01*
X82802494Y-62062978D01*
X82957146Y-62032216D01*
X83102828Y-61971873D01*
X83233938Y-61884268D01*
X83277389Y-61840816D01*
X83338709Y-61807331D01*
X83408401Y-61812314D01*
X83452751Y-61840816D01*
X83889074Y-62277139D01*
X83922559Y-62338462D01*
X83923010Y-62340628D01*
X83953910Y-62495970D01*
X83953913Y-62495980D01*
X84014251Y-62641651D01*
X84014258Y-62641664D01*
X84101859Y-62772767D01*
X84101862Y-62772771D01*
X84213356Y-62884265D01*
X84213360Y-62884268D01*
X84344463Y-62971869D01*
X84344476Y-62971876D01*
X84482332Y-63028977D01*
X84490152Y-63032216D01*
X84644802Y-63062978D01*
X84644805Y-63062979D01*
X84644807Y-63062979D01*
X84802493Y-63062979D01*
X84802494Y-63062978D01*
X84957146Y-63032216D01*
X85102828Y-62971873D01*
X85233938Y-62884268D01*
X85277389Y-62840816D01*
X85338709Y-62807331D01*
X85408401Y-62812314D01*
X85452751Y-62840816D01*
X134238788Y-111626853D01*
X134238798Y-111626864D01*
X134243128Y-111631194D01*
X134243129Y-111631195D01*
X134354933Y-111742999D01*
X134441744Y-111793118D01*
X134441746Y-111793120D01*
X134491862Y-111822055D01*
X134491864Y-111822056D01*
X134644591Y-111862979D01*
X134644592Y-111862979D01*
X137136980Y-111862979D01*
X137136996Y-111862980D01*
X137144592Y-111862980D01*
X137302703Y-111862980D01*
X137302706Y-111862980D01*
X137455434Y-111822056D01*
X137505553Y-111793118D01*
X137592365Y-111742999D01*
X137704169Y-111631195D01*
X137704169Y-111631193D01*
X137714377Y-111620986D01*
X137714379Y-111620983D01*
X139770733Y-109564629D01*
X139770736Y-109564628D01*
X139882540Y-109452824D01*
X139932659Y-109366012D01*
X139961597Y-109315893D01*
X140002521Y-109163165D01*
X140002521Y-109005051D01*
X140002521Y-108997456D01*
X140002520Y-108997438D01*
X140002520Y-108862575D01*
X140022205Y-108795536D01*
X140038834Y-108774899D01*
X143661468Y-105152264D01*
X143722791Y-105118780D01*
X143792483Y-105123764D01*
X143848416Y-105165636D01*
X143872833Y-105231100D01*
X143873149Y-105239946D01*
X143873149Y-107310349D01*
X143873150Y-107310355D01*
X143879557Y-107369962D01*
X143929851Y-107504807D01*
X143929855Y-107504814D01*
X144016101Y-107620023D01*
X144016104Y-107620026D01*
X144131313Y-107706272D01*
X144131320Y-107706276D01*
X144266166Y-107756570D01*
X144266165Y-107756570D01*
X144273093Y-107757314D01*
X144325776Y-107762979D01*
X146221521Y-107762978D01*
X146281132Y-107756570D01*
X146415980Y-107706275D01*
X146531195Y-107620025D01*
X146617445Y-107504810D01*
X146667740Y-107369962D01*
X146674149Y-107310352D01*
X146674148Y-105214607D01*
X146667740Y-105154996D01*
X146666721Y-105152265D01*
X146617446Y-105020150D01*
X146617442Y-105020143D01*
X146531196Y-104904934D01*
X146531193Y-104904931D01*
X146415984Y-104818685D01*
X146415977Y-104818681D01*
X146281131Y-104768387D01*
X146281132Y-104768387D01*
X146221532Y-104761980D01*
X146221530Y-104761979D01*
X146221522Y-104761979D01*
X146221513Y-104761979D01*
X144325778Y-104761979D01*
X144325772Y-104761980D01*
X144266166Y-104768387D01*
X144219099Y-104785942D01*
X144149408Y-104790925D01*
X144088085Y-104757439D01*
X144054601Y-104696115D01*
X144055992Y-104637669D01*
X144074150Y-104569907D01*
X144074150Y-104411793D01*
X144074150Y-104404198D01*
X144074149Y-104404180D01*
X144074149Y-104383396D01*
X144081967Y-104340063D01*
X144107740Y-104270961D01*
X144114149Y-104211352D01*
X144114148Y-102865607D01*
X144107740Y-102805996D01*
X144081967Y-102736894D01*
X144074149Y-102693561D01*
X144074149Y-87863545D01*
X144093834Y-87796506D01*
X144146638Y-87750751D01*
X144215796Y-87740807D01*
X144241482Y-87747363D01*
X144266166Y-87756570D01*
X144266165Y-87756570D01*
X144273093Y-87757314D01*
X144325776Y-87762979D01*
X146221521Y-87762978D01*
X146281132Y-87756570D01*
X146415980Y-87706275D01*
X146531195Y-87620025D01*
X146617445Y-87504810D01*
X146667740Y-87369962D01*
X146674149Y-87310352D01*
X146674148Y-85214607D01*
X146667740Y-85154996D01*
X146617445Y-85020148D01*
X146617444Y-85020147D01*
X146617442Y-85020143D01*
X146531196Y-84904934D01*
X146531193Y-84904931D01*
X146415984Y-84818685D01*
X146415977Y-84818681D01*
X146281131Y-84768387D01*
X146281132Y-84768387D01*
X146221532Y-84761980D01*
X146221530Y-84761979D01*
X146221522Y-84761979D01*
X146221513Y-84761979D01*
X144325778Y-84761979D01*
X144325772Y-84761980D01*
X144266163Y-84768388D01*
X144241481Y-84777594D01*
X144171789Y-84782578D01*
X144110467Y-84749092D01*
X144076982Y-84687768D01*
X144074149Y-84661412D01*
X144074149Y-84383396D01*
X144081967Y-84340063D01*
X144107740Y-84270961D01*
X144114149Y-84211352D01*
X144114148Y-82865607D01*
X144107740Y-82805996D01*
X144081967Y-82736894D01*
X144074149Y-82693561D01*
X144074149Y-67863545D01*
X144093834Y-67796506D01*
X144146638Y-67750751D01*
X144215796Y-67740807D01*
X144241482Y-67747363D01*
X144266166Y-67756570D01*
X144266165Y-67756570D01*
X144273093Y-67757314D01*
X144325776Y-67762979D01*
X146221521Y-67762978D01*
X146281132Y-67756570D01*
X146415980Y-67706275D01*
X146531195Y-67620025D01*
X146617445Y-67504810D01*
X146667740Y-67369962D01*
X146674149Y-67310352D01*
X146674148Y-65214607D01*
X146667740Y-65154996D01*
X146617445Y-65020148D01*
X146617444Y-65020147D01*
X146617442Y-65020143D01*
X146531196Y-64904934D01*
X146531193Y-64904931D01*
X146415984Y-64818685D01*
X146415977Y-64818681D01*
X146281131Y-64768387D01*
X146281132Y-64768387D01*
X146221532Y-64761980D01*
X146221530Y-64761979D01*
X146221522Y-64761979D01*
X146221513Y-64761979D01*
X144325778Y-64761979D01*
X144325772Y-64761980D01*
X144266163Y-64768388D01*
X144241481Y-64777594D01*
X144171789Y-64782578D01*
X144110467Y-64749092D01*
X144076982Y-64687768D01*
X144074149Y-64661412D01*
X144074149Y-64383396D01*
X144081967Y-64340063D01*
X144107740Y-64270961D01*
X144114149Y-64211352D01*
X144114148Y-62865607D01*
X144107740Y-62805996D01*
X144087670Y-62752186D01*
X144081967Y-62736894D01*
X144074149Y-62693561D01*
X144074149Y-47863545D01*
X144093834Y-47796506D01*
X144146638Y-47750751D01*
X144215796Y-47740807D01*
X144241482Y-47747363D01*
X144266166Y-47756570D01*
X144266165Y-47756570D01*
X144273093Y-47757314D01*
X144325776Y-47762979D01*
X146221521Y-47762978D01*
X146281132Y-47756570D01*
X146415980Y-47706275D01*
X146531195Y-47620025D01*
X146617445Y-47504810D01*
X146667740Y-47369962D01*
X146674149Y-47310352D01*
X146674148Y-45214607D01*
X146667740Y-45154996D01*
X146617445Y-45020148D01*
X146617444Y-45020147D01*
X146617442Y-45020143D01*
X146531196Y-44904934D01*
X146531193Y-44904931D01*
X146415984Y-44818685D01*
X146415977Y-44818681D01*
X146281131Y-44768387D01*
X146281132Y-44768387D01*
X146221532Y-44761980D01*
X146221530Y-44761979D01*
X146221522Y-44761979D01*
X146221513Y-44761979D01*
X144325778Y-44761979D01*
X144325772Y-44761980D01*
X144266163Y-44768388D01*
X144241481Y-44777594D01*
X144171789Y-44782578D01*
X144110467Y-44749092D01*
X144076982Y-44687768D01*
X144074149Y-44661412D01*
X144074149Y-44383396D01*
X144081967Y-44340063D01*
X144094181Y-44307316D01*
X144107740Y-44270962D01*
X144114149Y-44211352D01*
X144114148Y-42865607D01*
X144107740Y-42805996D01*
X144107739Y-42805994D01*
X144057446Y-42671150D01*
X144057442Y-42671143D01*
X143971196Y-42555934D01*
X143971193Y-42555931D01*
X143855984Y-42469685D01*
X143855977Y-42469681D01*
X143721131Y-42419387D01*
X143721132Y-42419387D01*
X143661532Y-42412980D01*
X143661530Y-42412979D01*
X143661522Y-42412979D01*
X143661514Y-42412979D01*
X143648149Y-42412979D01*
X143581110Y-42393294D01*
X143535355Y-42340490D01*
X143524149Y-42288979D01*
X143524149Y-42183634D01*
X143524148Y-42183632D01*
X143493386Y-42028982D01*
X143493384Y-42028977D01*
X143433046Y-41883306D01*
X143433039Y-41883293D01*
X143345438Y-41752190D01*
X143345435Y-41752186D01*
X143233941Y-41640692D01*
X143233937Y-41640689D01*
X143102834Y-41553088D01*
X143102821Y-41553081D01*
X142957150Y-41492743D01*
X142957138Y-41492740D01*
X142802494Y-41461979D01*
X142802491Y-41461979D01*
X142644807Y-41461979D01*
X142644804Y-41461979D01*
X142490159Y-41492740D01*
X142490147Y-41492743D01*
X142344476Y-41553081D01*
X142344463Y-41553088D01*
X142213360Y-41640689D01*
X142213356Y-41640692D01*
X142101862Y-41752186D01*
X142101859Y-41752190D01*
X142014258Y-41883293D01*
X142014251Y-41883306D01*
X141953913Y-42028977D01*
X141953910Y-42028989D01*
X141923149Y-42183632D01*
X141923149Y-42234114D01*
X141918380Y-42268172D01*
X141915519Y-42278187D01*
X141914072Y-42280694D01*
X141902995Y-42322030D01*
X141902708Y-42323037D01*
X141884547Y-42351758D01*
X141866885Y-42380734D01*
X141865933Y-42381196D01*
X141865367Y-42382092D01*
X141834546Y-42396442D01*
X141804038Y-42411262D01*
X141802428Y-42411397D01*
X141802027Y-42411584D01*
X141801332Y-42411489D01*
X141789069Y-42412519D01*
X141789074Y-42412615D01*
X141789076Y-42412625D01*
X141789075Y-42412625D01*
X141789085Y-42412803D01*
X141785767Y-42412980D01*
X141736897Y-42418233D01*
X141710392Y-42418233D01*
X141684895Y-42415492D01*
X141620344Y-42388754D01*
X141580495Y-42331362D01*
X141574149Y-42292202D01*
X141574149Y-41433422D01*
X141574148Y-41433418D01*
X141563523Y-41393764D01*
X141551876Y-41350298D01*
X141533226Y-41280694D01*
X141504288Y-41230574D01*
X141454169Y-41143763D01*
X141342365Y-41031959D01*
X141342364Y-41031958D01*
X141338034Y-41027628D01*
X141338023Y-41027618D01*
X138711239Y-38400834D01*
X138711237Y-38400831D01*
X138592366Y-38281960D01*
X138592365Y-38281959D01*
X138505553Y-38231839D01*
X138505553Y-38231838D01*
X138505549Y-38231837D01*
X138455434Y-38202902D01*
X138302706Y-38161978D01*
X138144592Y-38161978D01*
X138136996Y-38161978D01*
X138136980Y-38161979D01*
X86573746Y-38161979D01*
X86506707Y-38142294D01*
X86486065Y-38125660D01*
X79385019Y-31024614D01*
X82123149Y-31024614D01*
X82123149Y-32120349D01*
X82123150Y-32120355D01*
X82129557Y-32179962D01*
X82179851Y-32314807D01*
X82179855Y-32314814D01*
X82266101Y-32430023D01*
X82266104Y-32430026D01*
X82381313Y-32516272D01*
X82381320Y-32516276D01*
X82516166Y-32566570D01*
X82516165Y-32566570D01*
X82523093Y-32567314D01*
X82575776Y-32572979D01*
X85181521Y-32572978D01*
X85241132Y-32566570D01*
X85375980Y-32516275D01*
X85491195Y-32430025D01*
X85577445Y-32314810D01*
X85627740Y-32179962D01*
X85634149Y-32120352D01*
X85634148Y-31024607D01*
X85627740Y-30964996D01*
X85577445Y-30830148D01*
X85577444Y-30830147D01*
X85577442Y-30830143D01*
X85491196Y-30714934D01*
X85491193Y-30714931D01*
X85375984Y-30628685D01*
X85375977Y-30628681D01*
X85241131Y-30578387D01*
X85241132Y-30578387D01*
X85181532Y-30571980D01*
X85181530Y-30571979D01*
X85181522Y-30571979D01*
X85181513Y-30571979D01*
X82575778Y-30571979D01*
X82575772Y-30571980D01*
X82516165Y-30578387D01*
X82381320Y-30628681D01*
X82381313Y-30628685D01*
X82266104Y-30714931D01*
X82266101Y-30714934D01*
X82179855Y-30830143D01*
X82179851Y-30830150D01*
X82129557Y-30964996D01*
X82124334Y-31013583D01*
X82123150Y-31024602D01*
X82123149Y-31024614D01*
X79385019Y-31024614D01*
X78166441Y-29806036D01*
X78132956Y-29744713D01*
X78137940Y-29675021D01*
X78179812Y-29619088D01*
X78245276Y-29594671D01*
X78286209Y-29598579D01*
X78414592Y-29632980D01*
X78414595Y-29632980D01*
X78580302Y-29632980D01*
X78580318Y-29632979D01*
X78730858Y-29632979D01*
X78797897Y-29652664D01*
X78843652Y-29705468D01*
X78847040Y-29713646D01*
X78869851Y-29774807D01*
X78869855Y-29774814D01*
X78956101Y-29890023D01*
X78956104Y-29890026D01*
X79071313Y-29976272D01*
X79071320Y-29976276D01*
X79206166Y-30026570D01*
X79206165Y-30026570D01*
X79213093Y-30027314D01*
X79265776Y-30032979D01*
X81871521Y-30032978D01*
X81931132Y-30026570D01*
X82065980Y-29976275D01*
X82181195Y-29890025D01*
X82267445Y-29774810D01*
X82317740Y-29639962D01*
X82324149Y-29580352D01*
X82324148Y-28484607D01*
X82317740Y-28424996D01*
X82303142Y-28385858D01*
X82267446Y-28290150D01*
X82267442Y-28290143D01*
X82181196Y-28174934D01*
X82181193Y-28174931D01*
X82065984Y-28088685D01*
X82065977Y-28088681D01*
X81931131Y-28038387D01*
X81931132Y-28038387D01*
X81871532Y-28031980D01*
X81871530Y-28031979D01*
X81871522Y-28031979D01*
X81871513Y-28031979D01*
X79265778Y-28031979D01*
X79265772Y-28031980D01*
X79206165Y-28038387D01*
X79071320Y-28088681D01*
X79071313Y-28088685D01*
X78956104Y-28174931D01*
X78956101Y-28174934D01*
X78869855Y-28290143D01*
X78869849Y-28290153D01*
X78864123Y-28305506D01*
X78864123Y-28305508D01*
X78864121Y-28305509D01*
X78864121Y-28305512D01*
X78840307Y-28337320D01*
X78822251Y-28361441D01*
X78822249Y-28361441D01*
X78822248Y-28361444D01*
X78785739Y-28375059D01*
X78756787Y-28385858D01*
X78756784Y-28385857D01*
X78756783Y-28385858D01*
X78727079Y-28379395D01*
X78688514Y-28371006D01*
X78688511Y-28371004D01*
X78688510Y-28371004D01*
X78660260Y-28349855D01*
X78611239Y-28300834D01*
X78611237Y-28300831D01*
X78492366Y-28181960D01*
X78492365Y-28181959D01*
X78388609Y-28122056D01*
X78388608Y-28122055D01*
X78355432Y-28102901D01*
X78292841Y-28086130D01*
X78202706Y-28061978D01*
X78044592Y-28061978D01*
X78036996Y-28061978D01*
X78036980Y-28061979D01*
X77698149Y-28061979D01*
X77689463Y-28059428D01*
X77680503Y-28060717D01*
X77656461Y-28049738D01*
X77631110Y-28042294D01*
X77625183Y-28035454D01*
X77616947Y-28031693D01*
X77602656Y-28009457D01*
X77585355Y-27989490D01*
X77583067Y-27978977D01*
X77579172Y-27972915D01*
X77574149Y-27937980D01*
X77574148Y-27847576D01*
X77593832Y-27780537D01*
X77610462Y-27759899D01*
X78330038Y-27040323D01*
X82123649Y-27040323D01*
X82130050Y-27099851D01*
X82130052Y-27099858D01*
X82180294Y-27234565D01*
X82180298Y-27234572D01*
X82266458Y-27349666D01*
X82266461Y-27349669D01*
X82381555Y-27435829D01*
X82381562Y-27435833D01*
X82516269Y-27486075D01*
X82516276Y-27486077D01*
X82575804Y-27492478D01*
X82575821Y-27492479D01*
X83628649Y-27492479D01*
X84128649Y-27492479D01*
X85181477Y-27492479D01*
X85181493Y-27492478D01*
X85241021Y-27486077D01*
X85241028Y-27486075D01*
X85375735Y-27435833D01*
X85375742Y-27435829D01*
X85490836Y-27349669D01*
X85490839Y-27349666D01*
X85576999Y-27234572D01*
X85577003Y-27234565D01*
X85627245Y-27099858D01*
X85627247Y-27099851D01*
X85633648Y-27040323D01*
X85633649Y-27040306D01*
X85633649Y-26742479D01*
X84128649Y-26742479D01*
X84128649Y-27492479D01*
X83628649Y-27492479D01*
X83628649Y-26742479D01*
X82123649Y-26742479D01*
X82123649Y-27040323D01*
X78330038Y-27040323D01*
X79425728Y-25944634D01*
X82123649Y-25944634D01*
X82123649Y-26242479D01*
X83628649Y-26242479D01*
X84128649Y-26242479D01*
X85633649Y-26242479D01*
X85633649Y-25944651D01*
X85633648Y-25944634D01*
X85627247Y-25885106D01*
X85627245Y-25885099D01*
X85577003Y-25750392D01*
X85576999Y-25750385D01*
X85490839Y-25635291D01*
X85490836Y-25635288D01*
X85375742Y-25549128D01*
X85375735Y-25549124D01*
X85241028Y-25498882D01*
X85241021Y-25498880D01*
X85181493Y-25492479D01*
X84128649Y-25492479D01*
X84128649Y-26242479D01*
X83628649Y-26242479D01*
X83628649Y-25492479D01*
X82575804Y-25492479D01*
X82516276Y-25498880D01*
X82516269Y-25498882D01*
X82381562Y-25549124D01*
X82381555Y-25549128D01*
X82266461Y-25635288D01*
X82266458Y-25635291D01*
X82180298Y-25750385D01*
X82180294Y-25750392D01*
X82130052Y-25885099D01*
X82130050Y-25885106D01*
X82123649Y-25944634D01*
X79425728Y-25944634D01*
X80381065Y-24989297D01*
X80442388Y-24955812D01*
X80468746Y-24952978D01*
X81871520Y-24952978D01*
X81871521Y-24952978D01*
X81931132Y-24946570D01*
X82065980Y-24896275D01*
X82181195Y-24810025D01*
X82267445Y-24694810D01*
X82317740Y-24559962D01*
X82324149Y-24500352D01*
X82324148Y-23404607D01*
X82317740Y-23344996D01*
X82267445Y-23210148D01*
X82267444Y-23210147D01*
X82267442Y-23210143D01*
X82181196Y-23094934D01*
X82181193Y-23094931D01*
X82065984Y-23008685D01*
X82065977Y-23008681D01*
X81931131Y-22958387D01*
X81931132Y-22958387D01*
X81871532Y-22951980D01*
X81871530Y-22951979D01*
X81871522Y-22951979D01*
X81871513Y-22951979D01*
X79265778Y-22951979D01*
X79265772Y-22951980D01*
X79206165Y-22958387D01*
X79071320Y-23008681D01*
X79071313Y-23008685D01*
X78956104Y-23094931D01*
X78956101Y-23094934D01*
X78869855Y-23210143D01*
X78869851Y-23210150D01*
X78819557Y-23344996D01*
X78813605Y-23400367D01*
X78813150Y-23404602D01*
X78813149Y-23404614D01*
X78813149Y-24500349D01*
X78813150Y-24500355D01*
X78819558Y-24559963D01*
X78871133Y-24698246D01*
X78876117Y-24767937D01*
X78842632Y-24829259D01*
X77785829Y-25886062D01*
X77724506Y-25919547D01*
X77654814Y-25914563D01*
X77598881Y-25872691D01*
X77574464Y-25807227D01*
X77574148Y-25798408D01*
X77574148Y-24914607D01*
X77567740Y-24854996D01*
X77567739Y-24854994D01*
X77567739Y-24854991D01*
X77565957Y-24847448D01*
X77567422Y-24847101D01*
X77563058Y-24786130D01*
X77567468Y-24771112D01*
X77567738Y-24769967D01*
X77567740Y-24769962D01*
X77574149Y-24710352D01*
X77574148Y-23814607D01*
X77567740Y-23754996D01*
X77567739Y-23754994D01*
X77567739Y-23754991D01*
X77565957Y-23747448D01*
X77567422Y-23747101D01*
X77563058Y-23686130D01*
X77567468Y-23671112D01*
X77567738Y-23669967D01*
X77567740Y-23669962D01*
X77574149Y-23610352D01*
X77574148Y-22714607D01*
X77567740Y-22654996D01*
X77567740Y-22654995D01*
X77565956Y-22647445D01*
X77567208Y-22647148D01*
X77562794Y-22585403D01*
X77566781Y-22571825D01*
X77567247Y-22569854D01*
X77573648Y-22510323D01*
X77573649Y-22510306D01*
X77573649Y-22312479D01*
X77321718Y-22312479D01*
X77278385Y-22304661D01*
X77181131Y-22268387D01*
X77181132Y-22268387D01*
X77121532Y-22261980D01*
X77121530Y-22261979D01*
X77121522Y-22261979D01*
X77121514Y-22261979D01*
X75825778Y-22261979D01*
X75825772Y-22261980D01*
X75766165Y-22268387D01*
X75668913Y-22304661D01*
X75625580Y-22312479D01*
X75373649Y-22312479D01*
X75373649Y-22510323D01*
X75380050Y-22569851D01*
X75381836Y-22577409D01*
X75380191Y-22577797D01*
X75384500Y-22638135D01*
X75379592Y-22654850D01*
X75379557Y-22654999D01*
X75373150Y-22714595D01*
X75373150Y-22714602D01*
X75373149Y-22714614D01*
X75373149Y-23610349D01*
X75373150Y-23610355D01*
X75379557Y-23669958D01*
X75381341Y-23677505D01*
X75379878Y-23677850D01*
X75384234Y-23738850D01*
X75379822Y-23753875D01*
X75379557Y-23754996D01*
X75376583Y-23782664D01*
X75373150Y-23814602D01*
X75373149Y-23814614D01*
X75373149Y-24710349D01*
X75373150Y-24710355D01*
X75379557Y-24769958D01*
X75381341Y-24777505D01*
X75379878Y-24777850D01*
X75384234Y-24838850D01*
X75379822Y-24853875D01*
X75379557Y-24854996D01*
X75373150Y-24914595D01*
X75373150Y-24914602D01*
X75373149Y-24914614D01*
X75373149Y-25810349D01*
X75373150Y-25810355D01*
X75379557Y-25869958D01*
X75381341Y-25877505D01*
X75379878Y-25877850D01*
X75384234Y-25938850D01*
X75379822Y-25953875D01*
X75379557Y-25954996D01*
X75373150Y-26014595D01*
X75373149Y-26014614D01*
X75373149Y-26910349D01*
X75373150Y-26910355D01*
X75379557Y-26969958D01*
X75381341Y-26977505D01*
X75379878Y-26977850D01*
X75384234Y-27038850D01*
X75379822Y-27053875D01*
X75379557Y-27054996D01*
X75373150Y-27114595D01*
X75373150Y-27114602D01*
X75373149Y-27114614D01*
X75373149Y-28010349D01*
X75373150Y-28010355D01*
X75379557Y-28069958D01*
X75381341Y-28077505D01*
X75379878Y-28077850D01*
X75384234Y-28138850D01*
X75379822Y-28153875D01*
X75379557Y-28154996D01*
X75373150Y-28214595D01*
X75373150Y-28214602D01*
X75373149Y-28214614D01*
X75373149Y-29110349D01*
X75373150Y-29110355D01*
X75379557Y-29169958D01*
X75381341Y-29177505D01*
X75379878Y-29177850D01*
X75384234Y-29238850D01*
X75379822Y-29253875D01*
X75379557Y-29254996D01*
X75373150Y-29314595D01*
X75373150Y-29314602D01*
X75373149Y-29314614D01*
X75373149Y-30210349D01*
X75373150Y-30210355D01*
X75379557Y-30269958D01*
X75381341Y-30277505D01*
X75379878Y-30277850D01*
X75384234Y-30338850D01*
X75379822Y-30353875D01*
X75379557Y-30354996D01*
X75373150Y-30414595D01*
X75373150Y-30414602D01*
X75373149Y-30414614D01*
X75373149Y-31310349D01*
X75373150Y-31310355D01*
X75379557Y-31369958D01*
X75381341Y-31377505D01*
X75379878Y-31377850D01*
X75384234Y-31438850D01*
X75379822Y-31453875D01*
X75379557Y-31454996D01*
X75373150Y-31514595D01*
X75373150Y-31514602D01*
X75373149Y-31514614D01*
X75373149Y-32410349D01*
X75373150Y-32410355D01*
X75379557Y-32469958D01*
X75381341Y-32477505D01*
X75379878Y-32477850D01*
X75384234Y-32538850D01*
X75379822Y-32553875D01*
X75379557Y-32554996D01*
X75373150Y-32614595D01*
X75373150Y-32614602D01*
X75373149Y-32614614D01*
X75373149Y-33510349D01*
X75373150Y-33510355D01*
X75379557Y-33569958D01*
X75381341Y-33577505D01*
X75379878Y-33577850D01*
X75384234Y-33638850D01*
X75379822Y-33653875D01*
X75379557Y-33654996D01*
X75373150Y-33714595D01*
X75373150Y-33714602D01*
X75373149Y-33714614D01*
X75373149Y-34610349D01*
X75373150Y-34610355D01*
X75379558Y-34669966D01*
X75381341Y-34677510D01*
X75380087Y-34677806D01*
X75384505Y-34739548D01*
X75380513Y-34753143D01*
X75380050Y-34755103D01*
X75373649Y-34814634D01*
X75373649Y-35012479D01*
X75625580Y-35012479D01*
X75668912Y-35020296D01*
X75766166Y-35056570D01*
X75825776Y-35062979D01*
X76349651Y-35062978D01*
X76416688Y-35082662D01*
X76462443Y-35135466D01*
X76473649Y-35186978D01*
X76473649Y-35262479D01*
X76599649Y-35262479D01*
X76666688Y-35282164D01*
X76712443Y-35334968D01*
X76723649Y-35386479D01*
X76723649Y-36162479D01*
X77121477Y-36162479D01*
X77121493Y-36162478D01*
X77181021Y-36156077D01*
X77181028Y-36156075D01*
X77315735Y-36105833D01*
X77315742Y-36105829D01*
X77430836Y-36019669D01*
X77430839Y-36019666D01*
X77516999Y-35904572D01*
X77517003Y-35904565D01*
X77567245Y-35769858D01*
X77570075Y-35743539D01*
X77596812Y-35678988D01*
X77654204Y-35639138D01*
X77724029Y-35636643D01*
X77781046Y-35669111D01*
X83462233Y-41350298D01*
X83495718Y-41411621D01*
X83490734Y-41481313D01*
X83448862Y-41537246D01*
X83383398Y-41561663D01*
X83374552Y-41561979D01*
X77423747Y-41561979D01*
X77356708Y-41542294D01*
X77336066Y-41525660D01*
X73885064Y-38074659D01*
X73851579Y-38013336D01*
X73856563Y-37943644D01*
X73898435Y-37887711D01*
X73963899Y-37863294D01*
X73972726Y-37862978D01*
X74571521Y-37862978D01*
X74631132Y-37856570D01*
X74631134Y-37856569D01*
X74631136Y-37856569D01*
X74638680Y-37854787D01*
X74639026Y-37856254D01*
X74699991Y-37851887D01*
X74715027Y-37856301D01*
X74716162Y-37856568D01*
X74716166Y-37856570D01*
X74775776Y-37862979D01*
X75671521Y-37862978D01*
X75731132Y-37856570D01*
X75865980Y-37806275D01*
X75981195Y-37720025D01*
X76067445Y-37604810D01*
X76117740Y-37469962D01*
X76124149Y-37410352D01*
X76124148Y-36286478D01*
X76143833Y-36219440D01*
X76196636Y-36173685D01*
X76216837Y-36169290D01*
X76223649Y-36162479D01*
X76223649Y-35512479D01*
X75373649Y-35512479D01*
X75373649Y-35537979D01*
X75353964Y-35605018D01*
X75301160Y-35650773D01*
X75249649Y-35661979D01*
X74775778Y-35661979D01*
X74775772Y-35661980D01*
X74716169Y-35668387D01*
X74708623Y-35670171D01*
X74708277Y-35668709D01*
X74647271Y-35673063D01*
X74632249Y-35668651D01*
X74631131Y-35668387D01*
X74571532Y-35661980D01*
X74571530Y-35661979D01*
X74571522Y-35661979D01*
X74571513Y-35661979D01*
X73675778Y-35661979D01*
X73675772Y-35661980D01*
X73616169Y-35668387D01*
X73608623Y-35670171D01*
X73608277Y-35668709D01*
X73547271Y-35673063D01*
X73532249Y-35668651D01*
X73531131Y-35668387D01*
X73471532Y-35661980D01*
X73471530Y-35661979D01*
X73471522Y-35661979D01*
X73471513Y-35661979D01*
X72575778Y-35661979D01*
X72575772Y-35661980D01*
X72516169Y-35668387D01*
X72508623Y-35670171D01*
X72508277Y-35668709D01*
X72447271Y-35673063D01*
X72432249Y-35668651D01*
X72431131Y-35668387D01*
X72371532Y-35661980D01*
X72371530Y-35661979D01*
X72371522Y-35661979D01*
X72371513Y-35661979D01*
X71475778Y-35661979D01*
X71475772Y-35661980D01*
X71416169Y-35668387D01*
X71408623Y-35670171D01*
X71408277Y-35668709D01*
X71347271Y-35673063D01*
X71332249Y-35668651D01*
X71331131Y-35668387D01*
X71271532Y-35661980D01*
X71271530Y-35661979D01*
X71271522Y-35661979D01*
X71271513Y-35661979D01*
X70375778Y-35661979D01*
X70375772Y-35661980D01*
X70316169Y-35668387D01*
X70308623Y-35670171D01*
X70308277Y-35668709D01*
X70247271Y-35673063D01*
X70232249Y-35668651D01*
X70231131Y-35668387D01*
X70171532Y-35661980D01*
X70171530Y-35661979D01*
X70171522Y-35661979D01*
X70171513Y-35661979D01*
X69275778Y-35661979D01*
X69275772Y-35661980D01*
X69216169Y-35668387D01*
X69208623Y-35670171D01*
X69208277Y-35668709D01*
X69147271Y-35673063D01*
X69132249Y-35668651D01*
X69131131Y-35668387D01*
X69071532Y-35661980D01*
X69071530Y-35661979D01*
X69071522Y-35661979D01*
X69071513Y-35661979D01*
X68175778Y-35661979D01*
X68175772Y-35661980D01*
X68116169Y-35668387D01*
X68108623Y-35670171D01*
X68108277Y-35668709D01*
X68047271Y-35673063D01*
X68032249Y-35668651D01*
X68031131Y-35668387D01*
X67971532Y-35661980D01*
X67971530Y-35661979D01*
X67971522Y-35661979D01*
X67971513Y-35661979D01*
X67075778Y-35661979D01*
X67075772Y-35661980D01*
X67016169Y-35668387D01*
X67008623Y-35670171D01*
X67008277Y-35668709D01*
X66947271Y-35673063D01*
X66932249Y-35668651D01*
X66931131Y-35668387D01*
X66871532Y-35661980D01*
X66871530Y-35661979D01*
X66871522Y-35661979D01*
X66871513Y-35661979D01*
X65975778Y-35661979D01*
X65975772Y-35661980D01*
X65916169Y-35668387D01*
X65908623Y-35670171D01*
X65908277Y-35668709D01*
X65847271Y-35673063D01*
X65832249Y-35668651D01*
X65831131Y-35668387D01*
X65771532Y-35661980D01*
X65771530Y-35661979D01*
X65771522Y-35661979D01*
X65771513Y-35661979D01*
X64875778Y-35661979D01*
X64875772Y-35661980D01*
X64816169Y-35668387D01*
X64808623Y-35670171D01*
X64808277Y-35668709D01*
X64747271Y-35673063D01*
X64732249Y-35668651D01*
X64731131Y-35668387D01*
X64671532Y-35661980D01*
X64671530Y-35661979D01*
X64671522Y-35661979D01*
X64671514Y-35661979D01*
X64198148Y-35661979D01*
X64131109Y-35642294D01*
X64085354Y-35589490D01*
X64074148Y-35537979D01*
X64074148Y-34814608D01*
X64074147Y-34814602D01*
X64073095Y-34804810D01*
X64067740Y-34754996D01*
X64067739Y-34754994D01*
X64067739Y-34754991D01*
X64065957Y-34747448D01*
X64067422Y-34747101D01*
X64063058Y-34686130D01*
X64067468Y-34671112D01*
X64067738Y-34669967D01*
X64067740Y-34669962D01*
X64074149Y-34610352D01*
X64074148Y-33714607D01*
X64067740Y-33654996D01*
X64067739Y-33654994D01*
X64067739Y-33654991D01*
X64065957Y-33647448D01*
X64067422Y-33647101D01*
X64063058Y-33586130D01*
X64067468Y-33571112D01*
X64067738Y-33569967D01*
X64067740Y-33569962D01*
X64074149Y-33510352D01*
X64074148Y-32614607D01*
X64067740Y-32554996D01*
X64067739Y-32554994D01*
X64067739Y-32554991D01*
X64065957Y-32547448D01*
X64067422Y-32547101D01*
X64063058Y-32486130D01*
X64067468Y-32471112D01*
X64067738Y-32469967D01*
X64067740Y-32469962D01*
X64074149Y-32410352D01*
X64074148Y-31514607D01*
X64067740Y-31454996D01*
X64067739Y-31454994D01*
X64067739Y-31454991D01*
X64065957Y-31447448D01*
X64067422Y-31447101D01*
X64063058Y-31386130D01*
X64067468Y-31371112D01*
X64067738Y-31369967D01*
X64067740Y-31369962D01*
X64074149Y-31310352D01*
X64074148Y-30414607D01*
X64067740Y-30354996D01*
X64067739Y-30354994D01*
X64067739Y-30354991D01*
X64065957Y-30347448D01*
X64067422Y-30347101D01*
X64063058Y-30286130D01*
X64067468Y-30271112D01*
X64067738Y-30269967D01*
X64067740Y-30269962D01*
X64074149Y-30210352D01*
X64074148Y-29314607D01*
X64067740Y-29254996D01*
X64067739Y-29254994D01*
X64067739Y-29254991D01*
X64065957Y-29247448D01*
X64067422Y-29247101D01*
X64063058Y-29186130D01*
X64067468Y-29171112D01*
X64067738Y-29169967D01*
X64067740Y-29169962D01*
X64074149Y-29110352D01*
X64074148Y-28214607D01*
X64067740Y-28154996D01*
X64067739Y-28154994D01*
X64067739Y-28154991D01*
X64065957Y-28147448D01*
X64067422Y-28147101D01*
X64063058Y-28086130D01*
X64067468Y-28071112D01*
X64067738Y-28069967D01*
X64067740Y-28069962D01*
X64074149Y-28010352D01*
X64074148Y-27114607D01*
X64067740Y-27054996D01*
X64067739Y-27054994D01*
X64067387Y-27053503D01*
X64067387Y-27051711D01*
X64066911Y-27047283D01*
X64067387Y-27047231D01*
X64067387Y-27002726D01*
X64066911Y-27002675D01*
X64067387Y-26998238D01*
X64067388Y-26996446D01*
X64067735Y-26994973D01*
X64067740Y-26994962D01*
X64074149Y-26935352D01*
X64074148Y-25989607D01*
X64067740Y-25929996D01*
X64067739Y-25929994D01*
X64067387Y-25928503D01*
X64067387Y-25926711D01*
X64066911Y-25922283D01*
X64067387Y-25922231D01*
X64067387Y-25877726D01*
X64066911Y-25877675D01*
X64067387Y-25873238D01*
X64067388Y-25871446D01*
X64067735Y-25869973D01*
X64067740Y-25869962D01*
X64074149Y-25810352D01*
X64074148Y-24914607D01*
X64067740Y-24854996D01*
X64067739Y-24854994D01*
X64067739Y-24854991D01*
X64065957Y-24847448D01*
X64067422Y-24847101D01*
X64063058Y-24786130D01*
X64067468Y-24771112D01*
X64067738Y-24769967D01*
X64067740Y-24769962D01*
X64074149Y-24710352D01*
X64074148Y-23814607D01*
X64067740Y-23754996D01*
X64067739Y-23754994D01*
X64067739Y-23754991D01*
X64065957Y-23747448D01*
X64067422Y-23747101D01*
X64063058Y-23686130D01*
X64067468Y-23671112D01*
X64067738Y-23669967D01*
X64067740Y-23669962D01*
X64074149Y-23610352D01*
X64074148Y-22714607D01*
X64067740Y-22654996D01*
X64067740Y-22654995D01*
X64065956Y-22647445D01*
X64067208Y-22647148D01*
X64062794Y-22585403D01*
X64066781Y-22571825D01*
X64067247Y-22569854D01*
X64073648Y-22510323D01*
X64073649Y-22510306D01*
X64073649Y-22312479D01*
X63821718Y-22312479D01*
X63778385Y-22304661D01*
X63681131Y-22268387D01*
X63681132Y-22268387D01*
X63621532Y-22261980D01*
X63621530Y-22261979D01*
X63621522Y-22261979D01*
X63621514Y-22261979D01*
X62325778Y-22261979D01*
X62325772Y-22261980D01*
X62266165Y-22268387D01*
X62168913Y-22304661D01*
X62125580Y-22312479D01*
X61873649Y-22312479D01*
X61873649Y-22437979D01*
X61853964Y-22505018D01*
X61801160Y-22550773D01*
X61749649Y-22561979D01*
X60423746Y-22561979D01*
X60394305Y-22553334D01*
X60364319Y-22546811D01*
X60359303Y-22543056D01*
X60356707Y-22542294D01*
X60336065Y-22525660D01*
X60211239Y-22400834D01*
X60211237Y-22400831D01*
X60092366Y-22281960D01*
X60092365Y-22281959D01*
X60005553Y-22231839D01*
X60005553Y-22231838D01*
X60005549Y-22231837D01*
X59955434Y-22202902D01*
X59802706Y-22161978D01*
X59644592Y-22161978D01*
X59636996Y-22161978D01*
X59636980Y-22161979D01*
X54024658Y-22161979D01*
X54024654Y-22161978D01*
X53866540Y-22161978D01*
X53866536Y-22161979D01*
X51082089Y-22161979D01*
X51041168Y-22172943D01*
X51041168Y-22172944D01*
X51003900Y-22182930D01*
X50929363Y-22202902D01*
X50929358Y-22202905D01*
X50792439Y-22281954D01*
X50792431Y-22281960D01*
X50773732Y-22300660D01*
X50712409Y-22334145D01*
X50686051Y-22336979D01*
X50354533Y-22336979D01*
X50335294Y-22338727D01*
X50283956Y-22343392D01*
X50121542Y-22394001D01*
X49975960Y-22482009D01*
X49975959Y-22482010D01*
X49873476Y-22584494D01*
X49812153Y-22617979D01*
X49742461Y-22612995D01*
X49698114Y-22584494D01*
X49596026Y-22482406D01*
X49450544Y-22394459D01*
X49450545Y-22394459D01*
X49288254Y-22343888D01*
X49288255Y-22343888D01*
X49217721Y-22337479D01*
X49211149Y-22337479D01*
X48711149Y-22337479D01*
X48711148Y-22337478D01*
X48704585Y-22337479D01*
X48704566Y-22337480D01*
X48634046Y-22343887D01*
X48634041Y-22343888D01*
X48471752Y-22394460D01*
X48326271Y-22482406D01*
X48206076Y-22602601D01*
X48118129Y-22748083D01*
X48067558Y-22910372D01*
X48061149Y-22980906D01*
X30043584Y-22980906D01*
X30955516Y-22547214D01*
X30957946Y-22546092D01*
X32536504Y-21838654D01*
X32539006Y-21837567D01*
X33317197Y-21509726D01*
X33365339Y-21500000D01*
X61749649Y-21500000D01*
X61816688Y-21519685D01*
G37*
%TD.AperFunction*%
%TD*%
%TA.AperFunction,Conductor*%
%TO.N,/Power_Board/GND*%
G36*
X180368890Y-87982651D02*
G01*
X180414645Y-88035455D01*
X180425851Y-88086966D01*
X180425851Y-103465967D01*
X180406166Y-103533006D01*
X180353362Y-103578761D01*
X180301851Y-103589967D01*
X179190851Y-103589967D01*
X179123812Y-103570282D01*
X179078057Y-103517478D01*
X179066851Y-103465967D01*
X179066851Y-88086966D01*
X179086536Y-88019927D01*
X179139340Y-87974172D01*
X179190851Y-87962966D01*
X180301851Y-87962966D01*
X180368890Y-87982651D01*
G37*
%TD.AperFunction*%
%TA.AperFunction,Conductor*%
G36*
X180368890Y-47982651D02*
G01*
X180414645Y-48035455D01*
X180425851Y-48086966D01*
X180425851Y-84837967D01*
X180406166Y-84905006D01*
X180353362Y-84950761D01*
X180301851Y-84961967D01*
X179190851Y-84961967D01*
X179123812Y-84942282D01*
X179078057Y-84889478D01*
X179066851Y-84837967D01*
X179066851Y-48086966D01*
X179086536Y-48019927D01*
X179139340Y-47974172D01*
X179190851Y-47962966D01*
X180301851Y-47962966D01*
X180368890Y-47982651D01*
G37*
%TD.AperFunction*%
%TA.AperFunction,Conductor*%
G36*
X253150329Y-15483770D02*
G01*
X254879959Y-15508924D01*
X254882761Y-15508997D01*
X256611339Y-15573225D01*
X256613993Y-15573353D01*
X258340823Y-15676635D01*
X258343509Y-15676827D01*
X260067508Y-15819098D01*
X260070189Y-15819349D01*
X261790520Y-16000540D01*
X261793226Y-16000856D01*
X263509013Y-16220873D01*
X263511730Y-16221253D01*
X265222079Y-16479981D01*
X265224756Y-16480417D01*
X266928872Y-16777736D01*
X266931551Y-16778235D01*
X268122292Y-17013828D01*
X268628442Y-17113972D01*
X268631185Y-17114547D01*
X270320059Y-17488542D01*
X270322741Y-17489168D01*
X272002721Y-17901229D01*
X272005397Y-17901917D01*
X273675660Y-18351840D01*
X273678308Y-18352585D01*
X275337984Y-18840139D01*
X275340635Y-18840950D01*
X276504508Y-19211622D01*
X276988845Y-19365874D01*
X276991506Y-19366755D01*
X278147551Y-19763922D01*
X278627394Y-19928775D01*
X278630028Y-19929713D01*
X280252872Y-20528584D01*
X280255403Y-20529550D01*
X281392495Y-20978612D01*
X281864285Y-21164932D01*
X281866880Y-21165991D01*
X283460960Y-21837553D01*
X283463527Y-21838669D01*
X285042019Y-22546077D01*
X285044516Y-22547230D01*
X286151371Y-23073622D01*
X286606664Y-23290148D01*
X286609177Y-23291378D01*
X288154077Y-24069374D01*
X288156513Y-24070635D01*
X289683539Y-24883396D01*
X289685996Y-24884740D01*
X291194143Y-25731730D01*
X291196533Y-25733107D01*
X292554144Y-26536438D01*
X292685243Y-26614012D01*
X292687638Y-26615466D01*
X294156013Y-27529755D01*
X294158375Y-27531263D01*
X295605722Y-28478504D01*
X295608049Y-28480065D01*
X297033591Y-29459749D01*
X297035883Y-29461362D01*
X298438987Y-30473053D01*
X298441238Y-30474716D01*
X299818401Y-31515797D01*
X299825725Y-31521786D01*
X299962444Y-31642611D01*
X299973817Y-31654065D01*
X300091457Y-31789084D01*
X300101250Y-31801924D01*
X300200351Y-31951090D01*
X300208392Y-31965093D01*
X300287269Y-32125872D01*
X300293422Y-32140801D01*
X300350738Y-32310465D01*
X300354899Y-32326067D01*
X300389682Y-32501743D01*
X300391780Y-32517753D01*
X300403705Y-32700500D01*
X300403968Y-32708574D01*
X300403968Y-88476414D01*
X300403648Y-88485310D01*
X300389172Y-88686560D01*
X300386626Y-88704168D01*
X300344451Y-88896923D01*
X300339411Y-88913987D01*
X300270084Y-89098721D01*
X300262654Y-89114887D01*
X300167603Y-89287799D01*
X300157936Y-89302735D01*
X300039118Y-89460262D01*
X300027413Y-89473661D01*
X299887274Y-89612563D01*
X299873772Y-89624149D01*
X299715197Y-89741566D01*
X299700175Y-89751101D01*
X299526422Y-89844618D01*
X299510190Y-89851904D01*
X299320963Y-89921008D01*
X299311877Y-89923935D01*
X296541046Y-90700171D01*
X296539802Y-90700513D01*
X293756935Y-91448990D01*
X293755688Y-91449318D01*
X290965342Y-92168769D01*
X290964091Y-92169085D01*
X288166276Y-92859506D01*
X288165023Y-92859808D01*
X285360315Y-93521056D01*
X285359058Y-93521346D01*
X282547465Y-94153422D01*
X282546205Y-94153698D01*
X279728279Y-94756474D01*
X279727016Y-94756737D01*
X276902749Y-95330214D01*
X276902117Y-95330341D01*
X274634201Y-95778577D01*
X270583299Y-96607314D01*
X270219863Y-96681666D01*
X270103933Y-96705383D01*
X265580172Y-97662323D01*
X265580089Y-97662341D01*
X265580066Y-97662346D01*
X261062611Y-98649462D01*
X261062530Y-98649480D01*
X261062490Y-98649489D01*
X256551920Y-99666654D01*
X252047914Y-100713943D01*
X247551200Y-101791187D01*
X243061558Y-102898438D01*
X239318288Y-103848136D01*
X238579564Y-104035556D01*
X238579542Y-104035561D01*
X238579537Y-104035563D01*
X234105271Y-105202523D01*
X234105203Y-105202541D01*
X234105200Y-105202542D01*
X231871958Y-105800941D01*
X231808311Y-105817995D01*
X231808310Y-105817995D01*
X231510247Y-105897861D01*
X230958076Y-106045814D01*
X229140187Y-106570904D01*
X227332841Y-107131139D01*
X225536683Y-107726321D01*
X224642273Y-108042072D01*
X223752377Y-108356230D01*
X223752363Y-108356234D01*
X223752341Y-108356243D01*
X221980658Y-109020607D01*
X220222140Y-109719221D01*
X218477455Y-110451823D01*
X216747372Y-111218089D01*
X215032454Y-112017769D01*
X213333363Y-112850552D01*
X211650702Y-113716148D01*
X209985203Y-114614178D01*
X208337406Y-115544349D01*
X206707938Y-116506307D01*
X205097463Y-117499664D01*
X203506550Y-118524064D01*
X201935802Y-119579119D01*
X200385772Y-120664462D01*
X199252162Y-121491442D01*
X198857101Y-121779643D01*
X197531772Y-122786433D01*
X197350330Y-122924266D01*
X195866062Y-124097873D01*
X194404813Y-125300056D01*
X192967179Y-126530324D01*
X191553619Y-127788284D01*
X190164801Y-129073344D01*
X188801059Y-130385194D01*
X188178681Y-131007573D01*
X179127738Y-140058517D01*
X179127737Y-140058518D01*
X179084281Y-140101973D01*
X179077804Y-140108004D01*
X178926157Y-140239407D01*
X178911994Y-140250009D01*
X178746935Y-140356087D01*
X178731411Y-140364564D01*
X178632941Y-140409533D01*
X178552929Y-140446074D01*
X178536354Y-140452256D01*
X178348096Y-140507535D01*
X178330807Y-140511296D01*
X178136594Y-140539220D01*
X178118947Y-140540482D01*
X177922741Y-140540482D01*
X177905095Y-140539220D01*
X177710880Y-140511297D01*
X177693592Y-140507536D01*
X177505337Y-140452261D01*
X177488761Y-140446079D01*
X177310283Y-140364573D01*
X177294754Y-140356094D01*
X177129692Y-140250016D01*
X177115529Y-140239414D01*
X176963881Y-140108013D01*
X176957417Y-140101995D01*
X176913948Y-140058526D01*
X176913946Y-140058525D01*
X174226838Y-137371463D01*
X174226837Y-137371462D01*
X174226835Y-137371460D01*
X174226834Y-137371458D01*
X174041326Y-137185954D01*
X174041288Y-137185918D01*
X173551740Y-136748437D01*
X173405816Y-136632068D01*
X173038413Y-136339078D01*
X173038402Y-136339070D01*
X173038398Y-136339067D01*
X173038396Y-136339065D01*
X172502946Y-135959150D01*
X172502925Y-135959137D01*
X171947023Y-135609844D01*
X171946991Y-135609825D01*
X171372394Y-135292262D01*
X171372395Y-135292262D01*
X171372376Y-135292252D01*
X171372356Y-135292242D01*
X171372334Y-135292231D01*
X170780829Y-135007381D01*
X170174260Y-134756135D01*
X169554536Y-134539287D01*
X169554534Y-134539286D01*
X169554530Y-134539285D01*
X168923628Y-134357528D01*
X168923624Y-134357527D01*
X168923614Y-134357524D01*
X168283523Y-134211429D01*
X167636250Y-134101455D01*
X167636197Y-134101448D01*
X166983823Y-134027944D01*
X166983812Y-134027943D01*
X166983809Y-134027943D01*
X166328281Y-133991130D01*
X166328278Y-133991130D01*
X162624500Y-133991130D01*
X162557461Y-133971445D01*
X162511706Y-133918641D01*
X162500500Y-133867130D01*
X162500500Y-126275740D01*
X162500500Y-126275738D01*
X162466392Y-126148444D01*
X162400500Y-126034316D01*
X162307314Y-125941130D01*
X162250250Y-125908184D01*
X162193187Y-125875238D01*
X162129539Y-125858184D01*
X162065892Y-125841130D01*
X162065891Y-125841130D01*
X159874500Y-125841130D01*
X159807461Y-125821445D01*
X159761706Y-125768641D01*
X159750500Y-125717130D01*
X159750500Y-125634110D01*
X159750500Y-125634108D01*
X159716392Y-125506814D01*
X159650500Y-125392686D01*
X159620495Y-125362681D01*
X159587010Y-125301358D01*
X159591994Y-125231666D01*
X159620495Y-125187319D01*
X159650500Y-125157314D01*
X159716392Y-125043186D01*
X159750500Y-124915892D01*
X159750500Y-124784108D01*
X159716392Y-124656814D01*
X159650500Y-124542686D01*
X159620495Y-124512681D01*
X159587010Y-124451358D01*
X159591994Y-124381666D01*
X159620495Y-124337319D01*
X159650500Y-124307314D01*
X159716392Y-124193186D01*
X159750500Y-124065892D01*
X159750500Y-123934108D01*
X159716392Y-123806814D01*
X159650500Y-123692686D01*
X159620495Y-123662681D01*
X159587010Y-123601358D01*
X159591994Y-123531666D01*
X159620495Y-123487319D01*
X159650500Y-123457314D01*
X159716392Y-123343186D01*
X159750500Y-123215892D01*
X159750500Y-123084108D01*
X159716392Y-122956814D01*
X159650500Y-122842686D01*
X159620495Y-122812681D01*
X159587010Y-122751358D01*
X159591994Y-122681666D01*
X159620495Y-122637319D01*
X159650500Y-122607314D01*
X159716392Y-122493186D01*
X159750500Y-122365892D01*
X159750500Y-122234108D01*
X159716392Y-122106814D01*
X159650500Y-121992686D01*
X159557314Y-121899500D01*
X159557311Y-121899498D01*
X159550865Y-121894552D01*
X159552675Y-121892192D01*
X159514280Y-121851920D01*
X159500500Y-121795107D01*
X159500500Y-100204893D01*
X159520185Y-100137854D01*
X159552261Y-100107272D01*
X159550863Y-100105450D01*
X159557307Y-100100503D01*
X159557314Y-100100500D01*
X159650500Y-100007314D01*
X159716392Y-99893186D01*
X159750500Y-99765892D01*
X159750500Y-99634108D01*
X159716392Y-99506814D01*
X159650500Y-99392686D01*
X159620495Y-99362681D01*
X159587010Y-99301358D01*
X159591994Y-99231666D01*
X159620495Y-99187319D01*
X159650500Y-99157314D01*
X159716392Y-99043186D01*
X159750500Y-98915892D01*
X159750500Y-98784108D01*
X159716392Y-98656814D01*
X159650500Y-98542686D01*
X159620495Y-98512681D01*
X159587010Y-98451358D01*
X159591994Y-98381666D01*
X159620495Y-98337319D01*
X159650500Y-98307314D01*
X159716392Y-98193186D01*
X159750500Y-98065892D01*
X159750500Y-97934108D01*
X159716392Y-97806814D01*
X159650500Y-97692686D01*
X159620495Y-97662681D01*
X159587010Y-97601358D01*
X159591994Y-97531666D01*
X159620495Y-97487319D01*
X159650500Y-97457314D01*
X159716392Y-97343186D01*
X159750500Y-97215892D01*
X159750500Y-97084108D01*
X159716392Y-96956814D01*
X159650500Y-96842686D01*
X159620495Y-96812681D01*
X159587010Y-96751358D01*
X159591994Y-96681666D01*
X159620495Y-96637319D01*
X159650500Y-96607314D01*
X159716392Y-96493186D01*
X159750500Y-96365892D01*
X159750500Y-96234108D01*
X159716392Y-96106814D01*
X159650500Y-95992686D01*
X159557314Y-95899500D01*
X159557311Y-95899498D01*
X159550865Y-95894552D01*
X159552675Y-95892192D01*
X159514280Y-95851920D01*
X159500500Y-95795107D01*
X159500500Y-74204893D01*
X159520185Y-74137854D01*
X159552261Y-74107272D01*
X159550863Y-74105450D01*
X159557307Y-74100503D01*
X159557314Y-74100500D01*
X159650500Y-74007314D01*
X159716392Y-73893186D01*
X159750500Y-73765892D01*
X159750500Y-73634108D01*
X159716392Y-73506814D01*
X159650500Y-73392686D01*
X159620495Y-73362681D01*
X159587010Y-73301358D01*
X159591994Y-73231666D01*
X159620495Y-73187319D01*
X159650500Y-73157314D01*
X159716392Y-73043186D01*
X159750500Y-72915892D01*
X159750500Y-72784108D01*
X159716392Y-72656814D01*
X159650500Y-72542686D01*
X159620495Y-72512681D01*
X159587010Y-72451358D01*
X159591994Y-72381666D01*
X159620495Y-72337319D01*
X159650500Y-72307314D01*
X159716392Y-72193186D01*
X159750500Y-72065892D01*
X159750500Y-71934108D01*
X159716392Y-71806814D01*
X159650500Y-71692686D01*
X159620495Y-71662681D01*
X159587010Y-71601358D01*
X159591994Y-71531666D01*
X159620495Y-71487319D01*
X159650500Y-71457314D01*
X159716392Y-71343186D01*
X159750500Y-71215892D01*
X159750500Y-71084108D01*
X159716392Y-70956814D01*
X159650500Y-70842686D01*
X159620495Y-70812681D01*
X159587010Y-70751358D01*
X159591994Y-70681666D01*
X159620495Y-70637319D01*
X159650500Y-70607314D01*
X159716392Y-70493186D01*
X159750500Y-70365892D01*
X159750500Y-70234108D01*
X159716392Y-70106814D01*
X159650500Y-69992686D01*
X159557314Y-69899500D01*
X159557311Y-69899498D01*
X159550865Y-69894552D01*
X159552675Y-69892192D01*
X159514280Y-69851920D01*
X159500500Y-69795107D01*
X159500500Y-48204893D01*
X159520185Y-48137854D01*
X159552261Y-48107272D01*
X159550863Y-48105450D01*
X159557307Y-48100503D01*
X159557314Y-48100500D01*
X159650500Y-48007314D01*
X159716392Y-47893186D01*
X159750500Y-47765892D01*
X159750500Y-47634108D01*
X159716392Y-47506814D01*
X159650500Y-47392686D01*
X159620495Y-47362681D01*
X159587010Y-47301358D01*
X159591994Y-47231666D01*
X159620495Y-47187319D01*
X159650500Y-47157314D01*
X159716392Y-47043186D01*
X159750500Y-46915892D01*
X159750500Y-46784108D01*
X159716392Y-46656814D01*
X159650500Y-46542686D01*
X159620495Y-46512681D01*
X159587010Y-46451358D01*
X159591994Y-46381666D01*
X159620495Y-46337319D01*
X159650500Y-46307314D01*
X159716392Y-46193186D01*
X159750500Y-46065892D01*
X159750500Y-45934108D01*
X159716392Y-45806814D01*
X159650500Y-45692686D01*
X159620495Y-45662681D01*
X159587010Y-45601358D01*
X159591994Y-45531666D01*
X159605857Y-45504951D01*
X159612355Y-45495458D01*
X159650500Y-45457314D01*
X159675160Y-45414602D01*
X169325851Y-45414602D01*
X169325851Y-47510337D01*
X169325852Y-47510343D01*
X169332259Y-47569950D01*
X169382553Y-47704795D01*
X169382557Y-47704802D01*
X169468803Y-47820011D01*
X169468806Y-47820014D01*
X169584015Y-47906260D01*
X169584022Y-47906264D01*
X169718868Y-47956558D01*
X169718867Y-47956558D01*
X169725795Y-47957302D01*
X169778478Y-47962967D01*
X171674223Y-47962966D01*
X171727758Y-47957211D01*
X171738598Y-47956046D01*
X171807357Y-47968453D01*
X171858494Y-48016064D01*
X171875851Y-48079336D01*
X171875851Y-84845598D01*
X171856166Y-84912637D01*
X171803362Y-84958392D01*
X171738597Y-84968888D01*
X171732107Y-84968190D01*
X171674224Y-84961967D01*
X171674216Y-84961967D01*
X169778480Y-84961967D01*
X169778474Y-84961968D01*
X169718867Y-84968375D01*
X169584022Y-85018669D01*
X169584015Y-85018673D01*
X169468806Y-85104919D01*
X169468803Y-85104922D01*
X169382557Y-85220131D01*
X169382553Y-85220138D01*
X169332259Y-85354984D01*
X169325852Y-85414583D01*
X169325851Y-85414602D01*
X169325851Y-87510337D01*
X169325852Y-87510343D01*
X169332259Y-87569950D01*
X169382553Y-87704795D01*
X169382557Y-87704802D01*
X169468803Y-87820011D01*
X169468806Y-87820014D01*
X169584015Y-87906260D01*
X169584022Y-87906264D01*
X169718868Y-87956558D01*
X169718867Y-87956558D01*
X169725795Y-87957302D01*
X169778478Y-87962967D01*
X171674223Y-87962966D01*
X171727758Y-87957211D01*
X171738598Y-87956046D01*
X171807357Y-87968453D01*
X171858494Y-88016064D01*
X171875851Y-88079336D01*
X171875851Y-103473598D01*
X171856166Y-103540637D01*
X171803362Y-103586392D01*
X171738597Y-103596888D01*
X171732107Y-103596190D01*
X171674224Y-103589967D01*
X171674216Y-103589967D01*
X169778480Y-103589967D01*
X169778474Y-103589968D01*
X169718867Y-103596375D01*
X169584022Y-103646669D01*
X169584015Y-103646673D01*
X169468806Y-103732919D01*
X169468803Y-103732922D01*
X169382557Y-103848131D01*
X169382553Y-103848138D01*
X169332259Y-103982984D01*
X169325852Y-104042583D01*
X169325851Y-104042602D01*
X169325851Y-106138337D01*
X169325852Y-106138343D01*
X169332259Y-106197950D01*
X169382553Y-106332795D01*
X169382557Y-106332802D01*
X169468803Y-106448011D01*
X169468806Y-106448014D01*
X169584015Y-106534260D01*
X169584022Y-106534264D01*
X169718868Y-106584558D01*
X169718867Y-106584558D01*
X169725795Y-106585302D01*
X169778478Y-106590967D01*
X171674223Y-106590966D01*
X171727758Y-106585211D01*
X171738598Y-106584046D01*
X171807357Y-106596453D01*
X171858494Y-106644064D01*
X171875851Y-106707336D01*
X171875851Y-107878537D01*
X171883468Y-107916829D01*
X171885851Y-107941021D01*
X171885851Y-108487337D01*
X171885852Y-108487343D01*
X171892259Y-108546950D01*
X171942553Y-108681795D01*
X171942557Y-108681802D01*
X172028803Y-108797011D01*
X172028806Y-108797014D01*
X172144015Y-108883260D01*
X172144022Y-108883264D01*
X172175515Y-108895010D01*
X172278868Y-108933558D01*
X172338478Y-108939967D01*
X172714223Y-108939966D01*
X172765443Y-108934460D01*
X172791956Y-108934460D01*
X172838511Y-108939466D01*
X172838523Y-108939467D01*
X172886351Y-108939467D01*
X172895026Y-108930791D01*
X172897391Y-108924451D01*
X172906036Y-108895010D01*
X172909931Y-108890825D01*
X172911082Y-108887741D01*
X172936038Y-108862784D01*
X172944244Y-108856641D01*
X172952039Y-108850805D01*
X173017502Y-108826387D01*
X173085775Y-108841237D01*
X173100657Y-108850801D01*
X173108458Y-108856641D01*
X173116664Y-108862784D01*
X173158534Y-108918718D01*
X173161380Y-108934496D01*
X173166351Y-108939467D01*
X173214179Y-108939467D01*
X173214190Y-108939466D01*
X173260747Y-108934460D01*
X173287257Y-108934460D01*
X173338478Y-108939967D01*
X173714223Y-108939966D01*
X173714226Y-108939965D01*
X173714238Y-108939965D01*
X173740727Y-108937116D01*
X173763099Y-108934712D01*
X173789601Y-108934712D01*
X173838478Y-108939967D01*
X174214223Y-108939966D01*
X174214227Y-108939965D01*
X174214236Y-108939965D01*
X174229932Y-108938277D01*
X174263099Y-108934712D01*
X174289601Y-108934712D01*
X174302151Y-108936061D01*
X174366701Y-108962799D01*
X174403455Y-109011897D01*
X174449884Y-109123988D01*
X174521077Y-109230536D01*
X176308282Y-111017741D01*
X176308285Y-111017743D01*
X176378011Y-111064332D01*
X176414828Y-111088932D01*
X176533211Y-111137968D01*
X176533215Y-111137968D01*
X176533216Y-111137969D01*
X176658883Y-111162967D01*
X176658886Y-111162967D01*
X180609777Y-111162967D01*
X180676816Y-111182652D01*
X180722571Y-111235456D01*
X180732515Y-111304614D01*
X180703490Y-111368170D01*
X180685264Y-111385342D01*
X180594586Y-111454922D01*
X180594576Y-111454931D01*
X180501495Y-111548012D01*
X180501486Y-111548022D01*
X180421163Y-111652699D01*
X180421151Y-111652717D01*
X180355334Y-111766715D01*
X180355333Y-111766716D01*
X180304831Y-111888637D01*
X180270755Y-112015808D01*
X180253531Y-112146633D01*
X180253531Y-112778300D01*
X180270058Y-112903829D01*
X180270756Y-112909129D01*
X180304831Y-113036296D01*
X180325051Y-113085112D01*
X180355333Y-113158217D01*
X180355334Y-113158218D01*
X180421151Y-113272216D01*
X180421163Y-113272234D01*
X180467795Y-113333005D01*
X180501490Y-113376916D01*
X180594576Y-113470002D01*
X180594584Y-113470010D01*
X180610017Y-113481852D01*
X180651220Y-113538279D01*
X180658531Y-113580228D01*
X180658531Y-114050797D01*
X180658530Y-114050815D01*
X180658530Y-114216521D01*
X180658529Y-114216521D01*
X180699454Y-114369252D01*
X180728389Y-114419367D01*
X180728391Y-114419371D01*
X180749419Y-114455794D01*
X180749425Y-114455822D01*
X180766031Y-114517791D01*
X180766031Y-114601829D01*
X180781484Y-114719220D01*
X180781487Y-114719229D01*
X180841995Y-114865308D01*
X180858626Y-114886983D01*
X180883818Y-114952153D01*
X180869778Y-115020597D01*
X180858626Y-115037951D01*
X180841995Y-115059625D01*
X180781487Y-115205704D01*
X180781486Y-115205706D01*
X180766031Y-115323105D01*
X180766031Y-115601830D01*
X180781484Y-115719220D01*
X180781487Y-115719229D01*
X180841995Y-115865308D01*
X180938249Y-115990749D01*
X181063690Y-116087003D01*
X181209769Y-116147511D01*
X181327170Y-116162967D01*
X181840891Y-116162966D01*
X181840892Y-116162966D01*
X181860458Y-116160390D01*
X181958293Y-116147511D01*
X181958302Y-116147507D01*
X181960410Y-116146943D01*
X181962607Y-116146943D01*
X181966352Y-116146450D01*
X181966417Y-116146943D01*
X182016714Y-116146943D01*
X182016843Y-116145962D01*
X182024294Y-116146943D01*
X182024603Y-116146943D01*
X182024901Y-116147022D01*
X182142207Y-116162466D01*
X182199030Y-116162465D01*
X182199031Y-116162465D01*
X182199031Y-116072893D01*
X182218716Y-116005854D01*
X182225385Y-115997597D01*
X182224865Y-115997198D01*
X182263716Y-115946564D01*
X182326067Y-115865308D01*
X182360470Y-115782252D01*
X182404311Y-115727848D01*
X182470605Y-115705783D01*
X182538304Y-115723062D01*
X182585915Y-115774199D01*
X182599031Y-115829704D01*
X182599031Y-116162466D01*
X182655855Y-116162466D01*
X182773159Y-116147024D01*
X182773164Y-116147022D01*
X182919116Y-116086567D01*
X183044455Y-115990391D01*
X183140631Y-115865053D01*
X183201086Y-115719098D01*
X183208543Y-115662467D01*
X182586825Y-115662467D01*
X182552385Y-115681272D01*
X182482694Y-115676286D01*
X182426761Y-115634413D01*
X182402346Y-115568948D01*
X182402030Y-115560128D01*
X182402030Y-115386466D01*
X182421715Y-115319428D01*
X182474519Y-115273673D01*
X182526030Y-115262467D01*
X183208541Y-115262467D01*
X183208542Y-115262465D01*
X183201088Y-115205839D01*
X183201086Y-115205833D01*
X183140631Y-115059879D01*
X183140629Y-115059877D01*
X183124121Y-115038363D01*
X183098927Y-114973194D01*
X183112965Y-114904749D01*
X183124117Y-114887397D01*
X183141067Y-114865308D01*
X183201575Y-114719229D01*
X183217031Y-114601828D01*
X183217030Y-114323107D01*
X183217030Y-114323103D01*
X183201577Y-114205713D01*
X183201575Y-114205708D01*
X183201575Y-114205705D01*
X183141067Y-114059626D01*
X183044813Y-113934185D01*
X183044810Y-113934182D01*
X183044808Y-113934180D01*
X183042883Y-113932255D01*
X183042328Y-113932002D01*
X183041784Y-113931156D01*
X183039067Y-113928439D01*
X183039658Y-113927847D01*
X183025346Y-113905578D01*
X183006838Y-113880225D01*
X183006013Y-113875495D01*
X183004554Y-113873224D01*
X182999531Y-113838289D01*
X182999531Y-113690786D01*
X183019216Y-113623747D01*
X183061530Y-113583399D01*
X183118788Y-113550342D01*
X183223480Y-113470008D01*
X183316572Y-113376916D01*
X183396906Y-113272224D01*
X183462732Y-113158210D01*
X183470475Y-113139515D01*
X183514315Y-113085112D01*
X183580609Y-113063046D01*
X183585037Y-113062967D01*
X183876015Y-113062967D01*
X183939136Y-113080235D01*
X183947383Y-113085112D01*
X184081133Y-113164211D01*
X184122755Y-113176303D01*
X184238957Y-113210064D01*
X184238960Y-113210064D01*
X184238962Y-113210065D01*
X184275837Y-113212967D01*
X184275845Y-113212967D01*
X185432217Y-113212967D01*
X185432225Y-113212967D01*
X185469100Y-113210065D01*
X185469102Y-113210064D01*
X185469104Y-113210064D01*
X185510722Y-113197972D01*
X185626929Y-113164211D01*
X185768396Y-113080548D01*
X185884612Y-112964332D01*
X185884798Y-112964016D01*
X185885008Y-112963820D01*
X185889392Y-112958169D01*
X185890303Y-112958876D01*
X185935867Y-112916333D01*
X186004608Y-112903829D01*
X186069198Y-112930473D01*
X186093386Y-112958388D01*
X186093670Y-112958169D01*
X186097710Y-112963378D01*
X186098263Y-112964015D01*
X186098450Y-112964332D01*
X186098452Y-112964334D01*
X186098454Y-112964337D01*
X186214660Y-113080543D01*
X186214664Y-113080546D01*
X186214666Y-113080548D01*
X186356133Y-113164211D01*
X186397755Y-113176303D01*
X186513957Y-113210064D01*
X186513960Y-113210064D01*
X186513962Y-113210065D01*
X186550837Y-113212967D01*
X186550845Y-113212967D01*
X187707217Y-113212967D01*
X187707225Y-113212967D01*
X187744100Y-113210065D01*
X187744102Y-113210064D01*
X187744104Y-113210064D01*
X187785722Y-113197972D01*
X187901929Y-113164211D01*
X188043396Y-113080548D01*
X188159612Y-112964332D01*
X188243275Y-112822865D01*
X188289129Y-112665036D01*
X188292031Y-112628161D01*
X188292031Y-112196773D01*
X188289129Y-112159898D01*
X188285277Y-112146641D01*
X188247836Y-112017769D01*
X188243275Y-112002069D01*
X188242105Y-112000091D01*
X188241661Y-111998341D01*
X188240178Y-111994913D01*
X188240731Y-111994673D01*
X188224927Y-111932368D01*
X188240284Y-111880070D01*
X188239715Y-111879824D01*
X188241713Y-111875205D01*
X188242112Y-111873849D01*
X188242812Y-111872664D01*
X188288631Y-111714953D01*
X188288826Y-111712468D01*
X188288826Y-111712467D01*
X188023346Y-111712467D01*
X187960225Y-111695199D01*
X187901927Y-111660722D01*
X187901924Y-111660721D01*
X187744104Y-111614869D01*
X187744098Y-111614868D01*
X187707232Y-111611967D01*
X187707225Y-111611967D01*
X186550837Y-111611967D01*
X186550829Y-111611967D01*
X186513963Y-111614868D01*
X186513957Y-111614869D01*
X186356137Y-111660721D01*
X186356134Y-111660722D01*
X186297837Y-111695199D01*
X186234716Y-111712467D01*
X185969235Y-111712467D01*
X185944971Y-111738715D01*
X185885010Y-111774581D01*
X185815176Y-111772336D01*
X185775518Y-111747935D01*
X185774562Y-111749169D01*
X185768393Y-111744384D01*
X185626927Y-111660722D01*
X185626924Y-111660721D01*
X185469104Y-111614869D01*
X185469098Y-111614868D01*
X185432232Y-111611967D01*
X185432225Y-111611967D01*
X184275837Y-111611967D01*
X184275829Y-111611967D01*
X184238963Y-111614868D01*
X184238957Y-111614869D01*
X184081137Y-111660721D01*
X184081134Y-111660722D01*
X183939668Y-111744384D01*
X183939660Y-111744390D01*
X183858403Y-111825648D01*
X183831475Y-111840351D01*
X183805657Y-111856944D01*
X183799456Y-111857835D01*
X183797080Y-111859133D01*
X183770722Y-111861967D01*
X183585037Y-111861967D01*
X183517998Y-111842282D01*
X183472243Y-111789478D01*
X183470475Y-111785418D01*
X183465056Y-111772336D01*
X183462732Y-111766724D01*
X183462728Y-111766716D01*
X183396910Y-111652717D01*
X183396906Y-111652710D01*
X183367868Y-111614868D01*
X183316575Y-111548022D01*
X183316572Y-111548018D01*
X183223480Y-111454926D01*
X183223475Y-111454922D01*
X183132798Y-111385342D01*
X183091595Y-111328914D01*
X183087441Y-111259168D01*
X183121654Y-111198248D01*
X183183372Y-111165495D01*
X183208285Y-111162967D01*
X183876015Y-111162967D01*
X183939136Y-111180235D01*
X183993038Y-111212112D01*
X184081133Y-111264211D01*
X184122755Y-111276303D01*
X184238957Y-111310064D01*
X184238960Y-111310064D01*
X184238962Y-111310065D01*
X184275837Y-111312967D01*
X184275845Y-111312967D01*
X185432217Y-111312967D01*
X185432225Y-111312967D01*
X185469100Y-111310065D01*
X185469102Y-111310064D01*
X185469104Y-111310064D01*
X185510722Y-111297972D01*
X185626929Y-111264211D01*
X185768396Y-111180548D01*
X185768401Y-111180542D01*
X185774562Y-111175765D01*
X185775870Y-111177451D01*
X185827540Y-111149228D01*
X185897232Y-111154202D01*
X185944972Y-111186219D01*
X185969235Y-111212467D01*
X186234716Y-111212467D01*
X186297837Y-111229735D01*
X186356133Y-111264211D01*
X186397755Y-111276303D01*
X186513957Y-111310064D01*
X186513960Y-111310064D01*
X186513962Y-111310065D01*
X186550837Y-111312967D01*
X186550845Y-111312967D01*
X187707217Y-111312967D01*
X187707225Y-111312967D01*
X187744100Y-111310065D01*
X187744102Y-111310064D01*
X187744104Y-111310064D01*
X187785722Y-111297972D01*
X187901929Y-111264211D01*
X187960225Y-111229735D01*
X188023346Y-111212467D01*
X188288826Y-111212467D01*
X188288826Y-111212465D01*
X188288631Y-111209978D01*
X188288630Y-111209972D01*
X188242814Y-111052273D01*
X188242812Y-111052268D01*
X188242109Y-111051079D01*
X188241841Y-111050025D01*
X188239715Y-111045111D01*
X188240507Y-111044767D01*
X188224926Y-110983355D01*
X188240540Y-110930181D01*
X188240177Y-110930024D01*
X188241451Y-110927079D01*
X188242110Y-110924836D01*
X188243273Y-110922868D01*
X188243275Y-110922865D01*
X188289129Y-110765036D01*
X188292031Y-110728161D01*
X188292031Y-110296773D01*
X188289129Y-110259898D01*
X188243275Y-110102069D01*
X188159612Y-109960602D01*
X188159610Y-109960600D01*
X188159607Y-109960596D01*
X188043401Y-109844390D01*
X188043393Y-109844384D01*
X187901927Y-109760722D01*
X187901926Y-109760721D01*
X187818935Y-109736610D01*
X187760050Y-109699003D01*
X187730844Y-109635531D01*
X187729531Y-109617534D01*
X187729531Y-108995594D01*
X187749216Y-108928555D01*
X187802020Y-108882800D01*
X187802643Y-108882517D01*
X187806126Y-108880948D01*
X187806137Y-108880945D01*
X187951716Y-108792939D01*
X188072003Y-108672652D01*
X188160009Y-108527073D01*
X188210617Y-108364663D01*
X188217031Y-108294083D01*
X188217031Y-107630851D01*
X188210617Y-107560271D01*
X188160009Y-107397861D01*
X188086420Y-107276131D01*
X188068585Y-107208579D01*
X188086421Y-107147833D01*
X188159550Y-107026862D01*
X188210121Y-106864573D01*
X188216531Y-106794039D01*
X188216531Y-106712467D01*
X187440531Y-106712467D01*
X187373492Y-106692782D01*
X187327737Y-106639978D01*
X187316531Y-106588467D01*
X187316531Y-106462467D01*
X187190531Y-106462467D01*
X187123492Y-106442782D01*
X187077737Y-106389978D01*
X187066531Y-106338467D01*
X187066531Y-106212467D01*
X187566531Y-106212467D01*
X188216530Y-106212467D01*
X188216530Y-106130884D01*
X188210122Y-106060364D01*
X188210121Y-106060359D01*
X188159549Y-105898070D01*
X188071603Y-105752589D01*
X187951408Y-105632394D01*
X187805926Y-105544447D01*
X187805927Y-105544447D01*
X187643636Y-105493876D01*
X187643637Y-105493876D01*
X187573103Y-105487467D01*
X187566531Y-105487467D01*
X187566531Y-106212467D01*
X187066531Y-106212467D01*
X187066531Y-105487467D01*
X187066530Y-105487466D01*
X187059967Y-105487467D01*
X187059948Y-105487468D01*
X186989428Y-105493875D01*
X186989423Y-105493876D01*
X186827134Y-105544448D01*
X186681653Y-105632394D01*
X186681652Y-105632395D01*
X186579566Y-105734482D01*
X186518243Y-105767967D01*
X186448551Y-105762983D01*
X186404204Y-105734482D01*
X186301719Y-105631997D01*
X186156137Y-105543989D01*
X185993727Y-105493381D01*
X185993725Y-105493380D01*
X185993723Y-105493380D01*
X185944309Y-105488890D01*
X185923147Y-105486967D01*
X185409915Y-105486967D01*
X185390676Y-105488715D01*
X185339338Y-105493380D01*
X185176924Y-105543989D01*
X185031342Y-105631997D01*
X184911061Y-105752278D01*
X184823053Y-105897860D01*
X184772444Y-106060274D01*
X184766031Y-106130853D01*
X184766031Y-106794080D01*
X184772444Y-106864659D01*
X184823053Y-107027073D01*
X184896348Y-107148317D01*
X184914184Y-107215872D01*
X184896348Y-107276617D01*
X184823053Y-107397860D01*
X184772444Y-107560274D01*
X184772024Y-107564899D01*
X184766076Y-107630363D01*
X184766031Y-107630853D01*
X184766031Y-108294080D01*
X184772444Y-108364659D01*
X184823053Y-108527073D01*
X184911061Y-108672655D01*
X185031342Y-108792936D01*
X185031344Y-108792937D01*
X185031346Y-108792939D01*
X185176925Y-108880945D01*
X185339335Y-108931553D01*
X185409915Y-108937967D01*
X185409918Y-108937967D01*
X185923144Y-108937967D01*
X185923147Y-108937967D01*
X185993727Y-108931553D01*
X186156137Y-108880945D01*
X186301716Y-108792939D01*
X186303478Y-108791177D01*
X186316850Y-108777806D01*
X186378173Y-108744321D01*
X186447865Y-108749305D01*
X186503798Y-108791177D01*
X186528215Y-108856641D01*
X186528531Y-108865487D01*
X186528531Y-109617534D01*
X186508846Y-109684573D01*
X186456042Y-109730328D01*
X186439127Y-109736610D01*
X186356135Y-109760721D01*
X186356134Y-109760722D01*
X186214668Y-109844384D01*
X186214660Y-109844390D01*
X186098454Y-109960596D01*
X186098445Y-109960607D01*
X186098260Y-109960922D01*
X186098050Y-109961117D01*
X186093670Y-109966765D01*
X186092758Y-109966058D01*
X186047188Y-110008603D01*
X185978446Y-110021104D01*
X185913858Y-109994455D01*
X185889674Y-109966545D01*
X185889392Y-109966765D01*
X185885354Y-109961559D01*
X185884802Y-109960922D01*
X185884616Y-109960607D01*
X185884607Y-109960596D01*
X185768401Y-109844390D01*
X185768393Y-109844384D01*
X185626927Y-109760722D01*
X185626924Y-109760721D01*
X185469104Y-109714869D01*
X185469098Y-109714868D01*
X185432232Y-109711967D01*
X185432225Y-109711967D01*
X184275837Y-109711967D01*
X184275829Y-109711967D01*
X184238963Y-109714868D01*
X184238957Y-109714869D01*
X184081137Y-109760721D01*
X184081134Y-109760722D01*
X183939136Y-109844699D01*
X183876015Y-109861967D01*
X179044403Y-109861967D01*
X178977364Y-109842282D01*
X178931609Y-109789478D01*
X178921665Y-109720320D01*
X178950690Y-109656764D01*
X178960581Y-109646590D01*
X178970613Y-109637386D01*
X179000752Y-109619987D01*
X179112556Y-109508183D01*
X179112557Y-109508180D01*
X181506871Y-107113868D01*
X181585928Y-106976936D01*
X181626852Y-106824209D01*
X181626852Y-106666094D01*
X181626852Y-106658499D01*
X181626851Y-106658481D01*
X181626851Y-44896842D01*
X181626852Y-44896829D01*
X181626852Y-44728726D01*
X181614173Y-44681407D01*
X181585928Y-44575998D01*
X181570900Y-44549968D01*
X181506875Y-44439072D01*
X181506869Y-44439064D01*
X179119626Y-42051822D01*
X179119624Y-42051819D01*
X179000753Y-41932948D01*
X179000752Y-41932947D01*
X178913940Y-41882827D01*
X178913940Y-41882826D01*
X178913936Y-41882825D01*
X178863821Y-41853890D01*
X178711093Y-41812966D01*
X178552979Y-41812966D01*
X178545383Y-41812966D01*
X178545367Y-41812967D01*
X176065408Y-41812967D01*
X175907293Y-41812967D01*
X175754566Y-41853890D01*
X175754565Y-41853890D01*
X175754563Y-41853891D01*
X175754560Y-41853892D01*
X175704447Y-41882826D01*
X175704446Y-41882827D01*
X175661040Y-41907887D01*
X175617636Y-41932946D01*
X175617633Y-41932948D01*
X175045832Y-42504749D01*
X175045826Y-42504757D01*
X175019146Y-42550968D01*
X175012433Y-42557368D01*
X175008955Y-42565968D01*
X174987547Y-42581097D01*
X174968579Y-42599183D01*
X174957956Y-42602008D01*
X174951896Y-42606292D01*
X174925109Y-42610747D01*
X174917216Y-42612847D01*
X174914480Y-42612967D01*
X174838479Y-42612968D01*
X174785734Y-42618637D01*
X174781804Y-42618811D01*
X174779410Y-42618221D01*
X174763095Y-42618221D01*
X174746387Y-42616425D01*
X174714224Y-42612967D01*
X174714217Y-42612967D01*
X174338481Y-42612967D01*
X174338469Y-42612968D01*
X174289599Y-42618221D01*
X174263095Y-42618221D01*
X174246387Y-42616425D01*
X174214224Y-42612967D01*
X174214217Y-42612967D01*
X173838481Y-42612967D01*
X173838469Y-42612968D01*
X173789599Y-42618221D01*
X173763095Y-42618221D01*
X173746387Y-42616425D01*
X173714224Y-42612967D01*
X173714217Y-42612967D01*
X173338481Y-42612967D01*
X173338474Y-42612968D01*
X173287257Y-42618474D01*
X173260749Y-42618473D01*
X173214197Y-42613468D01*
X173214179Y-42613467D01*
X173166351Y-42613467D01*
X173157675Y-42622142D01*
X173155310Y-42628481D01*
X173146666Y-42657923D01*
X173142770Y-42662107D01*
X173141620Y-42665192D01*
X173116664Y-42690149D01*
X173100664Y-42702127D01*
X173035200Y-42726546D01*
X172966927Y-42711696D01*
X172952038Y-42702127D01*
X172936038Y-42690149D01*
X172894168Y-42634215D01*
X172891321Y-42618437D01*
X172886351Y-42613467D01*
X172838520Y-42613467D01*
X172791948Y-42618474D01*
X172765445Y-42618474D01*
X172714224Y-42612967D01*
X172714214Y-42612967D01*
X172338481Y-42612967D01*
X172338474Y-42612968D01*
X172278867Y-42619375D01*
X172144022Y-42669669D01*
X172144015Y-42669673D01*
X172028806Y-42755919D01*
X172028803Y-42755922D01*
X171942557Y-42871131D01*
X171942553Y-42871138D01*
X171892259Y-43005984D01*
X171885852Y-43065583D01*
X171885851Y-43065602D01*
X171885851Y-43611908D01*
X171883469Y-43636097D01*
X171875851Y-43674398D01*
X171875851Y-44845598D01*
X171856166Y-44912637D01*
X171803362Y-44958392D01*
X171738597Y-44968888D01*
X171732107Y-44968190D01*
X171674224Y-44961967D01*
X171674216Y-44961967D01*
X169778480Y-44961967D01*
X169778474Y-44961968D01*
X169718867Y-44968375D01*
X169584022Y-45018669D01*
X169584015Y-45018673D01*
X169468806Y-45104919D01*
X169468803Y-45104922D01*
X169382557Y-45220131D01*
X169382553Y-45220138D01*
X169332259Y-45354984D01*
X169325852Y-45414583D01*
X169325851Y-45414602D01*
X159675160Y-45414602D01*
X159716392Y-45343186D01*
X159750500Y-45215892D01*
X159750500Y-45084108D01*
X159716392Y-44956814D01*
X159650500Y-44842686D01*
X159620495Y-44812681D01*
X159620426Y-44812554D01*
X159620299Y-44812485D01*
X159603573Y-44781692D01*
X159587010Y-44751358D01*
X159587020Y-44751215D01*
X159586951Y-44751088D01*
X159589518Y-44716284D01*
X159591994Y-44681666D01*
X159592084Y-44681501D01*
X159592091Y-44681407D01*
X159592389Y-44680943D01*
X159609075Y-44650468D01*
X159614320Y-44643493D01*
X159650500Y-44607314D01*
X159680138Y-44555979D01*
X159684659Y-44549968D01*
X159706881Y-44533409D01*
X159726940Y-44514284D01*
X159735258Y-44512265D01*
X159740686Y-44508222D01*
X159756422Y-44507131D01*
X159783760Y-44500500D01*
X162065890Y-44500500D01*
X162065892Y-44500500D01*
X162193186Y-44466392D01*
X162307314Y-44400500D01*
X162400500Y-44307314D01*
X162466392Y-44193186D01*
X162500500Y-44065892D01*
X162500500Y-36474500D01*
X162520185Y-36407461D01*
X162572989Y-36361706D01*
X162624500Y-36350500D01*
X166080325Y-36350500D01*
X166080329Y-36350498D01*
X167039786Y-36350489D01*
X169119016Y-36312792D01*
X171197222Y-36237411D01*
X173273719Y-36124371D01*
X175347826Y-35973708D01*
X177418861Y-35785472D01*
X179486144Y-35559726D01*
X181548995Y-35296543D01*
X183025600Y-35080884D01*
X183606738Y-34996009D01*
X185658676Y-34658227D01*
X185742968Y-34642776D01*
X187704187Y-34283299D01*
X189742550Y-33871356D01*
X191773111Y-33422531D01*
X193795202Y-32936972D01*
X195808158Y-32414838D01*
X197811320Y-31856301D01*
X199804028Y-31261544D01*
X201785627Y-30630762D01*
X203755466Y-29964164D01*
X205712898Y-29261968D01*
X207657279Y-28524404D01*
X209587971Y-27751716D01*
X211504340Y-26944156D01*
X213405755Y-26101992D01*
X215291591Y-25225498D01*
X217161229Y-24314964D01*
X218028935Y-23872756D01*
X218028940Y-23872756D01*
X218087171Y-23843078D01*
X218088146Y-23842588D01*
X219638922Y-23074197D01*
X219641312Y-23073047D01*
X221208225Y-22340284D01*
X221210735Y-22339143D01*
X222793931Y-21641919D01*
X222796333Y-21640894D01*
X224394840Y-20979639D01*
X224397373Y-20978625D01*
X226010398Y-20353667D01*
X226012862Y-20352744D01*
X227639627Y-19764384D01*
X227642219Y-19763480D01*
X229281804Y-19212049D01*
X229284372Y-19211217D01*
X230935990Y-18696980D01*
X230938592Y-18696202D01*
X232601438Y-18219408D01*
X232604059Y-18218688D01*
X234277317Y-17779576D01*
X234279880Y-17778935D01*
X235962583Y-17377755D01*
X235965196Y-17377163D01*
X237656542Y-17014109D01*
X237659180Y-17013574D01*
X239358326Y-16688826D01*
X239360891Y-16688366D01*
X241066914Y-16402101D01*
X241069611Y-16401679D01*
X242781637Y-16154042D01*
X242784327Y-16153683D01*
X244501508Y-15944795D01*
X244504238Y-15944495D01*
X246225770Y-15774457D01*
X246228381Y-15774230D01*
X247953284Y-15643139D01*
X247955931Y-15642967D01*
X249683361Y-15550887D01*
X249686029Y-15550774D01*
X251415123Y-15497750D01*
X251417815Y-15497699D01*
X253147583Y-15483762D01*
X253150329Y-15483770D01*
G37*
%TD.AperFunction*%
%TD*%
M02*
