M48
; DRILL file KiCad 10.0.3-10.0.3~ubuntu24.04.1 date 2026-05-19T22:11:53
; FORMAT={-:-/ absolute / metric / decimal}
; #@! TF.CreationDate,2026-05-19T22:11:53-05:00
; #@! TF.GenerationSoftware,Kicad,Pcbnew,10.0.3-10.0.3~ubuntu24.04.1
; #@! TF.FileFunction,Plated,1,2,PTH
FMAT,2
METRIC
; #@! TA.AperFunction,Plated,PTH,ViaDrill
T1C0.300
; #@! TA.AperFunction,Plated,PTH,ComponentDrill
T2C2.200
%
G90
G05
T1
X52.849Y-24.312
X54.724Y-23.362
X64.224Y-36.762
X67.524Y-36.762
X69.724Y-49.262
X74.124Y-36.762
X75.224Y-36.762
X76.474Y-23.162
X76.474Y-24.262
X76.474Y-25.362
X79.724Y-59.262
X82.724Y-61.262
X83.724Y-33.762
X83.879Y-31.572
X84.724Y-62.262
X92.724Y-50.762
X96.224Y-63.262
X98.224Y-42.762
X102.724Y-53.262
X123.724Y-43.262
X137.724Y-39.762
X137.824Y-43.494
X140.224Y-46.743
X141.124Y-61.262
X141.224Y-85.762
X141.224Y-100.262
X141.774Y-46.029
X142.224Y-82.262
X142.224Y-84.762
X142.224Y-101.262
X142.356Y-64.663
X142.374Y-45.262
X142.374Y-62.262
X142.724Y-42.262
X176.626Y-106.462
X179.492Y-64.962
X179.492Y-95.962
X185.667Y-107.962
T2
X17.896Y-60.619
X56.098Y-18.113
X62.221Y-97.951
X122.679Y-35.416
X134.09Y-134.024
X154.0Y-78.171
X162.0Y-78.171
X181.91Y-134.024
X193.321Y-35.416
X253.779Y-97.951
X259.902Y-18.113
X298.104Y-60.619
M30
