M48
; DRILL file KiCad 10.0.4-10.0.4~ubuntu26.04.1 date 2026-07-08T23:09:24
; FORMAT={-:-/ absolute / metric / decimal}
; #@! TF.CreationDate,2026-07-08T23:09:24-05:00
; #@! TF.GenerationSoftware,Kicad,Pcbnew,10.0.4-10.0.4~ubuntu26.04.1
; #@! TF.FileFunction,Plated,1,2,PTH
FMAT,2
METRIC
; #@! TA.AperFunction,Plated,PTH,ViaDrill
T1C0.300
; #@! TA.AperFunction,Plated,PTH,ComponentDrill
T2C2.200
%
G90
G05
T1
X79.25Y-24.3
X80.5Y-39.0
X81.6Y-39.0
X82.7Y-39.0
X83.8Y-39.0
X89.375Y-42.575
X89.375Y-43.525
X92.75Y-24.3
X92.75Y-35.3
X92.75Y-36.4
X103.5Y-24.5
X111.0Y-53.5
X115.5Y-33.5
X129.5Y-73.5
X138.5Y-55.0
X153.5Y-64.0
X154.5Y-40.5
X160.5Y-51.0
X177.0Y-47.0
X177.0Y-59.0
X177.0Y-70.5
X177.0Y-82.0
X178.0Y-46.5
X178.0Y-58.5
X178.0Y-70.0
X178.0Y-81.5
X179.0Y-45.0
X179.0Y-57.0
X179.0Y-68.5
X179.0Y-80.0
X180.0Y-44.0
X180.0Y-56.0
X180.0Y-67.5
X180.0Y-79.0
X181.0Y-43.0
X181.0Y-55.0
X181.0Y-66.5
X181.0Y-78.0
X182.0Y-42.5
X182.0Y-54.5
X182.0Y-66.0
X182.0Y-77.5
X183.0Y-41.5
X183.0Y-53.5
X183.0Y-65.0
X183.0Y-76.5
X187.427Y-86.157
X217.5Y-41.5
X217.5Y-53.0
X217.5Y-70.0
X217.5Y-76.5
X218.5Y-42.0
X218.5Y-53.6
X218.5Y-69.5
X218.5Y-77.0
X219.5Y-43.5
X219.5Y-55.0
X219.5Y-68.0
X219.5Y-78.5
X220.5Y-44.5
X220.5Y-56.0
X220.5Y-67.0
X221.5Y-45.5
X221.5Y-57.0
X221.5Y-66.0
X221.5Y-80.5
X222.5Y-46.0
X222.5Y-57.6
X222.5Y-65.5
X222.5Y-81.0
X223.5Y-47.0
X223.5Y-58.5
X223.5Y-64.5
X223.5Y-82.0
X234.5Y-72.5
X237.225Y-79.5
X239.362Y-88.438
X241.362Y-83.562
T2
X59.896Y-60.619
X98.098Y-18.113
X104.221Y-97.951
X164.679Y-35.416
X176.09Y-134.024
X196.0Y-78.171
X204.0Y-78.171
X223.91Y-134.024
X235.321Y-35.416
X295.779Y-97.951
X301.902Y-18.113
X340.104Y-60.619
M30
