%TF.GenerationSoftware,KiCad,Pcbnew,10.0.3-10.0.3~ubuntu24.04.1*%
%TF.CreationDate,2026-05-19T22:12:01-05:00*%
%TF.ProjectId,bottom_plate,626f7474-6f6d-45f7-906c-6174652e6b69,rev?*%
%TF.SameCoordinates,Original*%
%TF.FileFunction,Profile,NP*%
%FSLAX46Y46*%
G04 Gerber Fmt 4.6, Leading zero omitted, Abs format (unit mm)*
G04 Created by KiCad (PCBNEW 10.0.3-10.0.3~ubuntu24.04.1) date 2026-05-19 22:12:01*
%MOMM*%
%LPD*%
G01*
G04 APERTURE LIST*
%TA.AperFunction,Profile*%
%ADD10C,0.100000*%
%TD*%
G04 APERTURE END LIST*
D10*
X166000000Y-35850000D02*
X162000000Y-35850000D01*
X166000000Y-134491630D02*
G75*
G02*
X173919521Y-137771971I0J-11199970D01*
G01*
X150000000Y-35850000D02*
G75*
G02*
X98139614Y-23396913I0J114211800D01*
G01*
X150000000Y-35850000D02*
X154000000Y-35850000D01*
X154000000Y-126341630D02*
X154000000Y-134491630D01*
X142080473Y-137771965D02*
G75*
G02*
X150000000Y-134491621I7919527J-7919635D01*
G01*
X39000593Y-95821295D02*
G75*
G02*
X83998503Y-106284387I-134380661J-679913068D01*
G01*
X300904468Y-88480861D02*
G75*
G02*
X299454000Y-90403898I-1999968J-39D01*
G01*
X15871504Y-31122837D02*
G75*
G02*
X98139617Y-23396907I47228106J-61028373D01*
G01*
X157000000Y-70000000D02*
X157000000Y-48000000D01*
X83998503Y-106284387D02*
G75*
G02*
X127514004Y-131408074I-25123693J-93762883D01*
G01*
X154000000Y-35850000D02*
X154000000Y-44000000D01*
X232001497Y-106284387D02*
G75*
G02*
X276999407Y-95821294I179378603J-669450013D01*
G01*
X179435052Y-140459017D02*
G75*
G02*
X176606599Y-140459068I-1414252J1414217D01*
G01*
X136564948Y-140459017D02*
X127514005Y-131408073D01*
X162000000Y-134491630D02*
X166000000Y-134491630D01*
X300904468Y-88480861D02*
X300904468Y-32704531D01*
X217860384Y-23396908D02*
G75*
G02*
X300128501Y-31122831I35040016J-68754292D01*
G01*
X162000000Y-126341630D02*
X162000000Y-134491630D01*
X142080473Y-137771965D02*
X139393363Y-140459029D01*
X188485995Y-131408073D02*
G75*
G02*
X232001497Y-106284389I68639205J-68639227D01*
G01*
X157000000Y-126341630D02*
X157000000Y-126000000D01*
X173919527Y-137771965D02*
X176606637Y-140459029D01*
X39000593Y-95821295D02*
G75*
G02*
X16546003Y-90403887I53836207J272390095D01*
G01*
X162000000Y-35850000D02*
X162000000Y-44000000D01*
X159000000Y-126341630D02*
X162000000Y-126341630D01*
X154000000Y-44000000D02*
X157000000Y-44000000D01*
X299453996Y-90403884D02*
G75*
G02*
X276999406Y-95821292I-76290796J266972684D01*
G01*
X16546004Y-90403884D02*
G75*
G02*
X15095530Y-88480861I549526J1923024D01*
G01*
X179435052Y-140459017D02*
X188485995Y-131408073D01*
X300128496Y-31122837D02*
G75*
G02*
X300904456Y-32704531I-1223996J-1581663D01*
G01*
X15095532Y-88480861D02*
X15095532Y-32704531D01*
X159000000Y-126000000D02*
X159000000Y-126341630D01*
X217860384Y-23396908D02*
G75*
G02*
X166000000Y-35849995I-51860384J101758708D01*
G01*
X159000000Y-48000000D02*
X159000000Y-70000000D01*
X15095532Y-32704531D02*
G75*
G02*
X15871504Y-31122837I1999998J1D01*
G01*
X159000000Y-100000000D02*
X159000000Y-122000000D01*
X157000000Y-122000000D02*
X157000000Y-100000000D01*
X157000000Y-126341630D02*
X154000000Y-126341630D01*
X157000000Y-96000000D02*
X157000000Y-74000000D01*
X162000000Y-44000000D02*
X159000000Y-44000000D01*
X154000000Y-134491630D02*
X150000000Y-134491630D01*
X139393363Y-140459029D02*
G75*
G02*
X136564987Y-140458979I-1414163J1414229D01*
G01*
X159000000Y-74000000D02*
X159000000Y-96000000D01*
%TO.C,REF\u002A\u002A*%
X157000000Y-126000000D02*
G75*
G02*
X159000000Y-126000000I1000000J0D01*
G01*
X159000000Y-122000000D02*
G75*
G02*
X157000000Y-122000000I-1000000J0D01*
G01*
X157000000Y-100000000D02*
G75*
G02*
X159000000Y-100000000I1000000J0D01*
G01*
X159000000Y-96000000D02*
G75*
G02*
X157000000Y-96000000I-1000000J0D01*
G01*
X157000000Y-74000000D02*
G75*
G02*
X159000000Y-74000000I1000000J0D01*
G01*
X159000000Y-70000000D02*
G75*
G02*
X157000000Y-70000000I-1000000J0D01*
G01*
X157000000Y-48000000D02*
G75*
G02*
X159000000Y-48000000I1000000J0D01*
G01*
X159000000Y-44000000D02*
G75*
G02*
X157000000Y-44000000I-1000000J0D01*
G01*
%TD*%
M02*
