%TF.GenerationSoftware,KiCad,Pcbnew,10.0.3-10.0.3~ubuntu26.04.1*%
%TF.CreationDate,2026-05-22T15:10:21-05:00*%
%TF.ProjectId,bottom_plate,626f7474-6f6d-45f7-906c-6174652e6b69,rev?*%
%TF.SameCoordinates,Original*%
%TF.FileFunction,Paste,Top*%
%TF.FilePolarity,Positive*%
%FSLAX46Y46*%
G04 Gerber Fmt 4.6, Leading zero omitted, Abs format (unit mm)*
G04 Created by KiCad (PCBNEW 10.0.3-10.0.3~ubuntu26.04.1) date 2026-05-22 15:10:21*
%MOMM*%
%LPD*%
G01*
G04 APERTURE LIST*
G04 Aperture macros list*
%AMRoundRect*
0 Rectangle with rounded corners*
0 $1 Rounding radius*
0 $2 $3 $4 $5 $6 $7 $8 $9 X,Y pos of 4 corners*
0 Add a 4 corners polygon primitive as box body*
4,1,4,$2,$3,$4,$5,$6,$7,$8,$9,$2,$3,0*
0 Add four circle primitives for the rounded corners*
1,1,$1+$1,$2,$3*
1,1,$1+$1,$4,$5*
1,1,$1+$1,$6,$7*
1,1,$1+$1,$8,$9*
0 Add four rect primitives between the rounded corners*
20,1,$1+$1,$2,$3,$4,$5,0*
20,1,$1+$1,$4,$5,$6,$7,0*
20,1,$1+$1,$6,$7,$8,$9,0*
20,1,$1+$1,$8,$9,$2,$3,0*%
G04 Aperture macros list end*
%ADD10RoundRect,0.250000X-0.412500X-0.650000X0.412500X-0.650000X0.412500X0.650000X-0.412500X0.650000X0*%
%ADD11RoundRect,0.250000X-0.650000X0.412500X-0.650000X-0.412500X0.650000X-0.412500X0.650000X0.412500X0*%
%ADD12RoundRect,0.250000X-0.400000X-0.625000X0.400000X-0.625000X0.400000X0.625000X-0.400000X0.625000X0*%
%ADD13RoundRect,0.250000X0.400000X0.625000X-0.400000X0.625000X-0.400000X-0.625000X0.400000X-0.625000X0*%
%ADD14RoundRect,0.150000X-0.587500X-0.150000X0.587500X-0.150000X0.587500X0.150000X-0.587500X0.150000X0*%
%ADD15RoundRect,0.150000X0.150000X-0.512500X0.150000X0.512500X-0.150000X0.512500X-0.150000X-0.512500X0*%
%ADD16R,1.800000X2.000000*%
%ADD17R,0.280000X1.250000*%
%ADD18RoundRect,0.150000X-0.700000X0.150000X-0.700000X-0.150000X0.700000X-0.150000X0.700000X0.150000X0*%
%ADD19RoundRect,0.250000X-1.100000X0.250000X-1.100000X-0.250000X1.100000X-0.250000X1.100000X0.250000X0*%
%ADD20R,1.200000X0.800000*%
%ADD21R,1.200000X0.850000*%
%ADD22R,0.800000X1.200000*%
%ADD23RoundRect,0.112500X0.187500X0.112500X-0.187500X0.112500X-0.187500X-0.112500X0.187500X-0.112500X0*%
%ADD24RoundRect,0.150000X0.700000X-0.150000X0.700000X0.150000X-0.700000X0.150000X-0.700000X-0.150000X0*%
%ADD25RoundRect,0.250000X1.100000X-0.250000X1.100000X0.250000X-1.100000X0.250000X-1.100000X-0.250000X0*%
G04 APERTURE END LIST*
D10*
%TO.C,C2*%
X237437500Y-41000000D03*
X240562500Y-41000000D03*
%TD*%
D11*
%TO.C,C1*%
X227000000Y-44437500D03*
X227000000Y-47562500D03*
%TD*%
D12*
%TO.C,R_POW_1*%
X219950000Y-37500000D03*
X223050000Y-37500000D03*
%TD*%
%TO.C,R_MON_2*%
X186950000Y-40500000D03*
X190050000Y-40500000D03*
%TD*%
%TO.C,R_MON_1*%
X181950000Y-40500000D03*
X185050000Y-40500000D03*
%TD*%
D13*
%TO.C,R_CHG_2*%
X212550000Y-43500000D03*
X209450000Y-43500000D03*
%TD*%
%TO.C,R_CHG_1*%
X217550000Y-43500000D03*
X214450000Y-43500000D03*
%TD*%
D14*
%TO.C,Q_POW_1*%
X227000000Y-41000000D03*
X225125000Y-41950000D03*
X225125000Y-40050000D03*
%TD*%
D15*
%TO.C,U_POW_1*%
X176600000Y-38225000D03*
X178500000Y-38225000D03*
X178500000Y-40500000D03*
X177550000Y-40500000D03*
X176600000Y-40500000D03*
%TD*%
D16*
%TO.C,J_VIK_OUT_SENS_1*%
X155450000Y-65686000D03*
X164550000Y-65686000D03*
D17*
X162750000Y-62962000D03*
X162250000Y-62962000D03*
X161750000Y-62962000D03*
X161250000Y-62962000D03*
X160750000Y-62962000D03*
X160250000Y-62962000D03*
X159750000Y-62962000D03*
X159250000Y-62962000D03*
X158750000Y-62962000D03*
X158250000Y-62962000D03*
X157750000Y-62962000D03*
X157250000Y-62962000D03*
%TD*%
D16*
%TO.C,J_VIK_OUT_INTC_1*%
X155450000Y-80686000D03*
X164550000Y-80686000D03*
D17*
X162750000Y-77962000D03*
X162250000Y-77962000D03*
X161750000Y-77962000D03*
X161250000Y-77962000D03*
X160750000Y-77962000D03*
X160250000Y-77962000D03*
X159750000Y-77962000D03*
X159250000Y-77962000D03*
X158750000Y-77962000D03*
X158250000Y-77962000D03*
X157750000Y-77962000D03*
X157250000Y-77962000D03*
%TD*%
D16*
%TO.C,J_VIK_OUT_SW_1*%
X155450000Y-95686000D03*
X164550000Y-95686000D03*
D17*
X162750000Y-92962000D03*
X162250000Y-92962000D03*
X161750000Y-92962000D03*
X161250000Y-92962000D03*
X160750000Y-92962000D03*
X160250000Y-92962000D03*
X159750000Y-92962000D03*
X159250000Y-92962000D03*
X158750000Y-92962000D03*
X158250000Y-92962000D03*
X157750000Y-92962000D03*
X157250000Y-92962000D03*
%TD*%
D16*
%TO.C,J_VIK_OUT_DISP_1*%
X155450000Y-50686000D03*
X164550000Y-50686000D03*
D17*
X162750000Y-47962000D03*
X162250000Y-47962000D03*
X161750000Y-47962000D03*
X161250000Y-47962000D03*
X160750000Y-47962000D03*
X160250000Y-47962000D03*
X159750000Y-47962000D03*
X159250000Y-47962000D03*
X158750000Y-47962000D03*
X158250000Y-47962000D03*
X157750000Y-47962000D03*
X157250000Y-47962000D03*
%TD*%
D18*
%TO.C,J_SWD_1*%
X191700000Y-80400000D03*
X191700000Y-81650000D03*
X191700000Y-82900000D03*
X191700000Y-84150000D03*
D19*
X188500000Y-78550000D03*
X188500000Y-86000000D03*
%TD*%
D17*
%TO.C,J_VIK_IN_INTC_1*%
X242750000Y-82038000D03*
X242250000Y-82038000D03*
X241750000Y-82038000D03*
X241250000Y-82038000D03*
X240750000Y-82038000D03*
X240250000Y-82038000D03*
X239750000Y-82038000D03*
X239250000Y-82038000D03*
X238750000Y-82038000D03*
X238250000Y-82038000D03*
X237750000Y-82038000D03*
X237250000Y-82038000D03*
D16*
X235450000Y-79314000D03*
X244550000Y-79314000D03*
%TD*%
D20*
%TO.C,U_MCU_1*%
X104973649Y-22062479D03*
X104973649Y-23162479D03*
X104973649Y-24262479D03*
X104973649Y-25362479D03*
D21*
X104973649Y-26462479D03*
D20*
X104973649Y-27562479D03*
X104973649Y-28662479D03*
X104973649Y-29762479D03*
X104973649Y-30862479D03*
X104973649Y-31962479D03*
X104973649Y-33062479D03*
X104973649Y-34162479D03*
X104973649Y-35262479D03*
X118473649Y-22062479D03*
X118473649Y-23162479D03*
X118473649Y-24262479D03*
X118473649Y-25362479D03*
X118473649Y-26462479D03*
X118473649Y-27562479D03*
X118473649Y-28662479D03*
X118473649Y-29762479D03*
X118473649Y-30862479D03*
X118473649Y-31962479D03*
X118473649Y-33062479D03*
X118473649Y-34162479D03*
X118473649Y-35262479D03*
D22*
X117223649Y-36762479D03*
X116123649Y-36762479D03*
X115023649Y-36762479D03*
X113923649Y-36762479D03*
X112823649Y-36762479D03*
X111723649Y-36762479D03*
X110623649Y-36762479D03*
X109523649Y-36762479D03*
X108423649Y-36762479D03*
X107323649Y-36762479D03*
X106223649Y-36762479D03*
%TD*%
D23*
%TO.C,D_POW_1*%
X227050000Y-38000000D03*
X224950000Y-38000000D03*
%TD*%
D17*
%TO.C,J_VIK_OUT_SW_2*%
X237250000Y-92962000D03*
X237750000Y-92962000D03*
X238250000Y-92962000D03*
X238750000Y-92962000D03*
X239250000Y-92962000D03*
X239750000Y-92962000D03*
X240250000Y-92962000D03*
X240750000Y-92962000D03*
X241250000Y-92962000D03*
X241750000Y-92962000D03*
X242250000Y-92962000D03*
X242750000Y-92962000D03*
D16*
X244550000Y-95686000D03*
X235450000Y-95686000D03*
%TD*%
D15*
%TO.C,U_CHG_1*%
X219550000Y-42087500D03*
X220500000Y-42087500D03*
X221450000Y-42087500D03*
X221450000Y-39812500D03*
X219550000Y-39812500D03*
%TD*%
D17*
%TO.C,J_VIK_OUT_SENS_2*%
X237250000Y-62962000D03*
X237750000Y-62962000D03*
X238250000Y-62962000D03*
X238750000Y-62962000D03*
X239250000Y-62962000D03*
X239750000Y-62962000D03*
X240250000Y-62962000D03*
X240750000Y-62962000D03*
X241250000Y-62962000D03*
X241750000Y-62962000D03*
X242250000Y-62962000D03*
X242750000Y-62962000D03*
D16*
X244550000Y-65000000D03*
X235450000Y-65686000D03*
%TD*%
D24*
%TO.C,J_BAT_1*%
X207650000Y-83625000D03*
X207650000Y-82375000D03*
D25*
X210850000Y-85475000D03*
X210850000Y-80525000D03*
%TD*%
D17*
%TO.C,J_VIK_OUT_DISP_2*%
X237250000Y-47962000D03*
X237750000Y-47962000D03*
X238250000Y-47962000D03*
X238750000Y-47962000D03*
X239250000Y-47962000D03*
X239750000Y-47962000D03*
X240250000Y-47962000D03*
X240750000Y-47962000D03*
X241250000Y-47962000D03*
X241750000Y-47962000D03*
X242250000Y-47962000D03*
X242750000Y-47962000D03*
D16*
X244550000Y-50686000D03*
X235450000Y-50686000D03*
%TD*%
M02*
