M48
; DRILL file KiCad 10.0.3-10.0.3~ubuntu24.04.1 date 2026-05-19T22:11:53
; FORMAT={-:-/ absolute / metric / decimal}
; #@! TF.CreationDate,2026-05-19T22:11:53-05:00
; #@! TF.GenerationSoftware,Kicad,Pcbnew,10.0.3-10.0.3~ubuntu24.04.1
; #@! TF.FileFunction,NonPlated,1,2,NPTH
FMAT,2
METRIC
; #@! TA.AperFunction,NonPlated,NPTH,ComponentDrill
T1C0.500
%
G90
G05
T1
X156.75Y-44.3
X156.75Y-45.15
X156.75Y-46.0
X156.75Y-46.85
X156.75Y-47.7
X156.75Y-70.3
X156.75Y-71.15
X156.75Y-72.0
X156.75Y-72.85
X156.75Y-73.7
X156.75Y-96.3
X156.75Y-97.15
X156.75Y-98.0
X156.75Y-98.85
X156.75Y-99.7
X156.75Y-122.3
X156.75Y-123.15
X156.75Y-124.0
X156.75Y-124.85
X156.75Y-125.7
X159.25Y-44.3
X159.25Y-45.15
X159.25Y-46.0
X159.25Y-46.85
X159.25Y-47.7
X159.25Y-70.3
X159.25Y-71.15
X159.25Y-72.0
X159.25Y-72.85
X159.25Y-73.7
X159.25Y-96.3
X159.25Y-97.15
X159.25Y-98.0
X159.25Y-98.85
X159.25Y-99.7
X159.25Y-122.3
X159.25Y-123.15
X159.25Y-124.0
X159.25Y-124.85
X159.25Y-125.7
M30
