%TF.GenerationSoftware,KiCad,Pcbnew,10.0.3-10.0.3~ubuntu26.04.1*%
%TF.CreationDate,2026-05-22T15:10:27-05:00*%
%TF.ProjectId,bottom_plate,626f7474-6f6d-45f7-906c-6174652e6b69,rev?*%
%TF.SameCoordinates,Original*%
%TF.FileFunction,Legend,Top*%
%TF.FilePolarity,Positive*%
%FSLAX46Y46*%
G04 Gerber Fmt 4.6, Leading zero omitted, Abs format (unit mm)*
G04 Created by KiCad (PCBNEW 10.0.3-10.0.3~ubuntu26.04.1) date 2026-05-22 15:10:27*
%MOMM*%
%LPD*%
G01*
G04 APERTURE LIST*
%ADD10C,0.150000*%
%ADD11C,0.120000*%
%ADD12C,0.254000*%
G04 APERTURE END LIST*
D10*
X238833333Y-39509580D02*
X238785714Y-39557200D01*
X238785714Y-39557200D02*
X238642857Y-39604819D01*
X238642857Y-39604819D02*
X238547619Y-39604819D01*
X238547619Y-39604819D02*
X238404762Y-39557200D01*
X238404762Y-39557200D02*
X238309524Y-39461961D01*
X238309524Y-39461961D02*
X238261905Y-39366723D01*
X238261905Y-39366723D02*
X238214286Y-39176247D01*
X238214286Y-39176247D02*
X238214286Y-39033390D01*
X238214286Y-39033390D02*
X238261905Y-38842914D01*
X238261905Y-38842914D02*
X238309524Y-38747676D01*
X238309524Y-38747676D02*
X238404762Y-38652438D01*
X238404762Y-38652438D02*
X238547619Y-38604819D01*
X238547619Y-38604819D02*
X238642857Y-38604819D01*
X238642857Y-38604819D02*
X238785714Y-38652438D01*
X238785714Y-38652438D02*
X238833333Y-38700057D01*
X239214286Y-38700057D02*
X239261905Y-38652438D01*
X239261905Y-38652438D02*
X239357143Y-38604819D01*
X239357143Y-38604819D02*
X239595238Y-38604819D01*
X239595238Y-38604819D02*
X239690476Y-38652438D01*
X239690476Y-38652438D02*
X239738095Y-38700057D01*
X239738095Y-38700057D02*
X239785714Y-38795295D01*
X239785714Y-38795295D02*
X239785714Y-38890533D01*
X239785714Y-38890533D02*
X239738095Y-39033390D01*
X239738095Y-39033390D02*
X239166667Y-39604819D01*
X239166667Y-39604819D02*
X239785714Y-39604819D01*
X229209580Y-46166666D02*
X229257200Y-46214285D01*
X229257200Y-46214285D02*
X229304819Y-46357142D01*
X229304819Y-46357142D02*
X229304819Y-46452380D01*
X229304819Y-46452380D02*
X229257200Y-46595237D01*
X229257200Y-46595237D02*
X229161961Y-46690475D01*
X229161961Y-46690475D02*
X229066723Y-46738094D01*
X229066723Y-46738094D02*
X228876247Y-46785713D01*
X228876247Y-46785713D02*
X228733390Y-46785713D01*
X228733390Y-46785713D02*
X228542914Y-46738094D01*
X228542914Y-46738094D02*
X228447676Y-46690475D01*
X228447676Y-46690475D02*
X228352438Y-46595237D01*
X228352438Y-46595237D02*
X228304819Y-46452380D01*
X228304819Y-46452380D02*
X228304819Y-46357142D01*
X228304819Y-46357142D02*
X228352438Y-46214285D01*
X228352438Y-46214285D02*
X228400057Y-46166666D01*
X229304819Y-45214285D02*
X229304819Y-45785713D01*
X229304819Y-45499999D02*
X228304819Y-45499999D01*
X228304819Y-45499999D02*
X228447676Y-45595237D01*
X228447676Y-45595237D02*
X228542914Y-45690475D01*
X228542914Y-45690475D02*
X228590533Y-45785713D01*
X218976190Y-36124819D02*
X218642857Y-35648628D01*
X218404762Y-36124819D02*
X218404762Y-35124819D01*
X218404762Y-35124819D02*
X218785714Y-35124819D01*
X218785714Y-35124819D02*
X218880952Y-35172438D01*
X218880952Y-35172438D02*
X218928571Y-35220057D01*
X218928571Y-35220057D02*
X218976190Y-35315295D01*
X218976190Y-35315295D02*
X218976190Y-35458152D01*
X218976190Y-35458152D02*
X218928571Y-35553390D01*
X218928571Y-35553390D02*
X218880952Y-35601009D01*
X218880952Y-35601009D02*
X218785714Y-35648628D01*
X218785714Y-35648628D02*
X218404762Y-35648628D01*
X219166667Y-36220057D02*
X219928571Y-36220057D01*
X220166667Y-36124819D02*
X220166667Y-35124819D01*
X220166667Y-35124819D02*
X220547619Y-35124819D01*
X220547619Y-35124819D02*
X220642857Y-35172438D01*
X220642857Y-35172438D02*
X220690476Y-35220057D01*
X220690476Y-35220057D02*
X220738095Y-35315295D01*
X220738095Y-35315295D02*
X220738095Y-35458152D01*
X220738095Y-35458152D02*
X220690476Y-35553390D01*
X220690476Y-35553390D02*
X220642857Y-35601009D01*
X220642857Y-35601009D02*
X220547619Y-35648628D01*
X220547619Y-35648628D02*
X220166667Y-35648628D01*
X221357143Y-35124819D02*
X221547619Y-35124819D01*
X221547619Y-35124819D02*
X221642857Y-35172438D01*
X221642857Y-35172438D02*
X221738095Y-35267676D01*
X221738095Y-35267676D02*
X221785714Y-35458152D01*
X221785714Y-35458152D02*
X221785714Y-35791485D01*
X221785714Y-35791485D02*
X221738095Y-35981961D01*
X221738095Y-35981961D02*
X221642857Y-36077200D01*
X221642857Y-36077200D02*
X221547619Y-36124819D01*
X221547619Y-36124819D02*
X221357143Y-36124819D01*
X221357143Y-36124819D02*
X221261905Y-36077200D01*
X221261905Y-36077200D02*
X221166667Y-35981961D01*
X221166667Y-35981961D02*
X221119048Y-35791485D01*
X221119048Y-35791485D02*
X221119048Y-35458152D01*
X221119048Y-35458152D02*
X221166667Y-35267676D01*
X221166667Y-35267676D02*
X221261905Y-35172438D01*
X221261905Y-35172438D02*
X221357143Y-35124819D01*
X222119048Y-35124819D02*
X222357143Y-36124819D01*
X222357143Y-36124819D02*
X222547619Y-35410533D01*
X222547619Y-35410533D02*
X222738095Y-36124819D01*
X222738095Y-36124819D02*
X222976191Y-35124819D01*
X223119048Y-36220057D02*
X223880952Y-36220057D01*
X224642857Y-36124819D02*
X224071429Y-36124819D01*
X224357143Y-36124819D02*
X224357143Y-35124819D01*
X224357143Y-35124819D02*
X224261905Y-35267676D01*
X224261905Y-35267676D02*
X224166667Y-35362914D01*
X224166667Y-35362914D02*
X224071429Y-35410533D01*
X185952380Y-39124819D02*
X185619047Y-38648628D01*
X185380952Y-39124819D02*
X185380952Y-38124819D01*
X185380952Y-38124819D02*
X185761904Y-38124819D01*
X185761904Y-38124819D02*
X185857142Y-38172438D01*
X185857142Y-38172438D02*
X185904761Y-38220057D01*
X185904761Y-38220057D02*
X185952380Y-38315295D01*
X185952380Y-38315295D02*
X185952380Y-38458152D01*
X185952380Y-38458152D02*
X185904761Y-38553390D01*
X185904761Y-38553390D02*
X185857142Y-38601009D01*
X185857142Y-38601009D02*
X185761904Y-38648628D01*
X185761904Y-38648628D02*
X185380952Y-38648628D01*
X186142857Y-39220057D02*
X186904761Y-39220057D01*
X187142857Y-39124819D02*
X187142857Y-38124819D01*
X187142857Y-38124819D02*
X187476190Y-38839104D01*
X187476190Y-38839104D02*
X187809523Y-38124819D01*
X187809523Y-38124819D02*
X187809523Y-39124819D01*
X188476190Y-38124819D02*
X188666666Y-38124819D01*
X188666666Y-38124819D02*
X188761904Y-38172438D01*
X188761904Y-38172438D02*
X188857142Y-38267676D01*
X188857142Y-38267676D02*
X188904761Y-38458152D01*
X188904761Y-38458152D02*
X188904761Y-38791485D01*
X188904761Y-38791485D02*
X188857142Y-38981961D01*
X188857142Y-38981961D02*
X188761904Y-39077200D01*
X188761904Y-39077200D02*
X188666666Y-39124819D01*
X188666666Y-39124819D02*
X188476190Y-39124819D01*
X188476190Y-39124819D02*
X188380952Y-39077200D01*
X188380952Y-39077200D02*
X188285714Y-38981961D01*
X188285714Y-38981961D02*
X188238095Y-38791485D01*
X188238095Y-38791485D02*
X188238095Y-38458152D01*
X188238095Y-38458152D02*
X188285714Y-38267676D01*
X188285714Y-38267676D02*
X188380952Y-38172438D01*
X188380952Y-38172438D02*
X188476190Y-38124819D01*
X189333333Y-39124819D02*
X189333333Y-38124819D01*
X189333333Y-38124819D02*
X189904761Y-39124819D01*
X189904761Y-39124819D02*
X189904761Y-38124819D01*
X190142857Y-39220057D02*
X190904761Y-39220057D01*
X191095238Y-38220057D02*
X191142857Y-38172438D01*
X191142857Y-38172438D02*
X191238095Y-38124819D01*
X191238095Y-38124819D02*
X191476190Y-38124819D01*
X191476190Y-38124819D02*
X191571428Y-38172438D01*
X191571428Y-38172438D02*
X191619047Y-38220057D01*
X191619047Y-38220057D02*
X191666666Y-38315295D01*
X191666666Y-38315295D02*
X191666666Y-38410533D01*
X191666666Y-38410533D02*
X191619047Y-38553390D01*
X191619047Y-38553390D02*
X191047619Y-39124819D01*
X191047619Y-39124819D02*
X191666666Y-39124819D01*
X180952380Y-39124819D02*
X180619047Y-38648628D01*
X180380952Y-39124819D02*
X180380952Y-38124819D01*
X180380952Y-38124819D02*
X180761904Y-38124819D01*
X180761904Y-38124819D02*
X180857142Y-38172438D01*
X180857142Y-38172438D02*
X180904761Y-38220057D01*
X180904761Y-38220057D02*
X180952380Y-38315295D01*
X180952380Y-38315295D02*
X180952380Y-38458152D01*
X180952380Y-38458152D02*
X180904761Y-38553390D01*
X180904761Y-38553390D02*
X180857142Y-38601009D01*
X180857142Y-38601009D02*
X180761904Y-38648628D01*
X180761904Y-38648628D02*
X180380952Y-38648628D01*
X181142857Y-39220057D02*
X181904761Y-39220057D01*
X182142857Y-39124819D02*
X182142857Y-38124819D01*
X182142857Y-38124819D02*
X182476190Y-38839104D01*
X182476190Y-38839104D02*
X182809523Y-38124819D01*
X182809523Y-38124819D02*
X182809523Y-39124819D01*
X183476190Y-38124819D02*
X183666666Y-38124819D01*
X183666666Y-38124819D02*
X183761904Y-38172438D01*
X183761904Y-38172438D02*
X183857142Y-38267676D01*
X183857142Y-38267676D02*
X183904761Y-38458152D01*
X183904761Y-38458152D02*
X183904761Y-38791485D01*
X183904761Y-38791485D02*
X183857142Y-38981961D01*
X183857142Y-38981961D02*
X183761904Y-39077200D01*
X183761904Y-39077200D02*
X183666666Y-39124819D01*
X183666666Y-39124819D02*
X183476190Y-39124819D01*
X183476190Y-39124819D02*
X183380952Y-39077200D01*
X183380952Y-39077200D02*
X183285714Y-38981961D01*
X183285714Y-38981961D02*
X183238095Y-38791485D01*
X183238095Y-38791485D02*
X183238095Y-38458152D01*
X183238095Y-38458152D02*
X183285714Y-38267676D01*
X183285714Y-38267676D02*
X183380952Y-38172438D01*
X183380952Y-38172438D02*
X183476190Y-38124819D01*
X184333333Y-39124819D02*
X184333333Y-38124819D01*
X184333333Y-38124819D02*
X184904761Y-39124819D01*
X184904761Y-39124819D02*
X184904761Y-38124819D01*
X185142857Y-39220057D02*
X185904761Y-39220057D01*
X186666666Y-39124819D02*
X186095238Y-39124819D01*
X186380952Y-39124819D02*
X186380952Y-38124819D01*
X186380952Y-38124819D02*
X186285714Y-38267676D01*
X186285714Y-38267676D02*
X186190476Y-38362914D01*
X186190476Y-38362914D02*
X186095238Y-38410533D01*
X208547618Y-45784819D02*
X208214285Y-45308628D01*
X207976190Y-45784819D02*
X207976190Y-44784819D01*
X207976190Y-44784819D02*
X208357142Y-44784819D01*
X208357142Y-44784819D02*
X208452380Y-44832438D01*
X208452380Y-44832438D02*
X208499999Y-44880057D01*
X208499999Y-44880057D02*
X208547618Y-44975295D01*
X208547618Y-44975295D02*
X208547618Y-45118152D01*
X208547618Y-45118152D02*
X208499999Y-45213390D01*
X208499999Y-45213390D02*
X208452380Y-45261009D01*
X208452380Y-45261009D02*
X208357142Y-45308628D01*
X208357142Y-45308628D02*
X207976190Y-45308628D01*
X208738095Y-45880057D02*
X209499999Y-45880057D01*
X210309523Y-45689580D02*
X210261904Y-45737200D01*
X210261904Y-45737200D02*
X210119047Y-45784819D01*
X210119047Y-45784819D02*
X210023809Y-45784819D01*
X210023809Y-45784819D02*
X209880952Y-45737200D01*
X209880952Y-45737200D02*
X209785714Y-45641961D01*
X209785714Y-45641961D02*
X209738095Y-45546723D01*
X209738095Y-45546723D02*
X209690476Y-45356247D01*
X209690476Y-45356247D02*
X209690476Y-45213390D01*
X209690476Y-45213390D02*
X209738095Y-45022914D01*
X209738095Y-45022914D02*
X209785714Y-44927676D01*
X209785714Y-44927676D02*
X209880952Y-44832438D01*
X209880952Y-44832438D02*
X210023809Y-44784819D01*
X210023809Y-44784819D02*
X210119047Y-44784819D01*
X210119047Y-44784819D02*
X210261904Y-44832438D01*
X210261904Y-44832438D02*
X210309523Y-44880057D01*
X210738095Y-45784819D02*
X210738095Y-44784819D01*
X210738095Y-45261009D02*
X211309523Y-45261009D01*
X211309523Y-45784819D02*
X211309523Y-44784819D01*
X212309523Y-44832438D02*
X212214285Y-44784819D01*
X212214285Y-44784819D02*
X212071428Y-44784819D01*
X212071428Y-44784819D02*
X211928571Y-44832438D01*
X211928571Y-44832438D02*
X211833333Y-44927676D01*
X211833333Y-44927676D02*
X211785714Y-45022914D01*
X211785714Y-45022914D02*
X211738095Y-45213390D01*
X211738095Y-45213390D02*
X211738095Y-45356247D01*
X211738095Y-45356247D02*
X211785714Y-45546723D01*
X211785714Y-45546723D02*
X211833333Y-45641961D01*
X211833333Y-45641961D02*
X211928571Y-45737200D01*
X211928571Y-45737200D02*
X212071428Y-45784819D01*
X212071428Y-45784819D02*
X212166666Y-45784819D01*
X212166666Y-45784819D02*
X212309523Y-45737200D01*
X212309523Y-45737200D02*
X212357142Y-45689580D01*
X212357142Y-45689580D02*
X212357142Y-45356247D01*
X212357142Y-45356247D02*
X212166666Y-45356247D01*
X212547619Y-45880057D02*
X213309523Y-45880057D01*
X213500000Y-44880057D02*
X213547619Y-44832438D01*
X213547619Y-44832438D02*
X213642857Y-44784819D01*
X213642857Y-44784819D02*
X213880952Y-44784819D01*
X213880952Y-44784819D02*
X213976190Y-44832438D01*
X213976190Y-44832438D02*
X214023809Y-44880057D01*
X214023809Y-44880057D02*
X214071428Y-44975295D01*
X214071428Y-44975295D02*
X214071428Y-45070533D01*
X214071428Y-45070533D02*
X214023809Y-45213390D01*
X214023809Y-45213390D02*
X213452381Y-45784819D01*
X213452381Y-45784819D02*
X214071428Y-45784819D01*
X213547618Y-45784819D02*
X213214285Y-45308628D01*
X212976190Y-45784819D02*
X212976190Y-44784819D01*
X212976190Y-44784819D02*
X213357142Y-44784819D01*
X213357142Y-44784819D02*
X213452380Y-44832438D01*
X213452380Y-44832438D02*
X213499999Y-44880057D01*
X213499999Y-44880057D02*
X213547618Y-44975295D01*
X213547618Y-44975295D02*
X213547618Y-45118152D01*
X213547618Y-45118152D02*
X213499999Y-45213390D01*
X213499999Y-45213390D02*
X213452380Y-45261009D01*
X213452380Y-45261009D02*
X213357142Y-45308628D01*
X213357142Y-45308628D02*
X212976190Y-45308628D01*
X213738095Y-45880057D02*
X214499999Y-45880057D01*
X215309523Y-45689580D02*
X215261904Y-45737200D01*
X215261904Y-45737200D02*
X215119047Y-45784819D01*
X215119047Y-45784819D02*
X215023809Y-45784819D01*
X215023809Y-45784819D02*
X214880952Y-45737200D01*
X214880952Y-45737200D02*
X214785714Y-45641961D01*
X214785714Y-45641961D02*
X214738095Y-45546723D01*
X214738095Y-45546723D02*
X214690476Y-45356247D01*
X214690476Y-45356247D02*
X214690476Y-45213390D01*
X214690476Y-45213390D02*
X214738095Y-45022914D01*
X214738095Y-45022914D02*
X214785714Y-44927676D01*
X214785714Y-44927676D02*
X214880952Y-44832438D01*
X214880952Y-44832438D02*
X215023809Y-44784819D01*
X215023809Y-44784819D02*
X215119047Y-44784819D01*
X215119047Y-44784819D02*
X215261904Y-44832438D01*
X215261904Y-44832438D02*
X215309523Y-44880057D01*
X215738095Y-45784819D02*
X215738095Y-44784819D01*
X215738095Y-45261009D02*
X216309523Y-45261009D01*
X216309523Y-45784819D02*
X216309523Y-44784819D01*
X217309523Y-44832438D02*
X217214285Y-44784819D01*
X217214285Y-44784819D02*
X217071428Y-44784819D01*
X217071428Y-44784819D02*
X216928571Y-44832438D01*
X216928571Y-44832438D02*
X216833333Y-44927676D01*
X216833333Y-44927676D02*
X216785714Y-45022914D01*
X216785714Y-45022914D02*
X216738095Y-45213390D01*
X216738095Y-45213390D02*
X216738095Y-45356247D01*
X216738095Y-45356247D02*
X216785714Y-45546723D01*
X216785714Y-45546723D02*
X216833333Y-45641961D01*
X216833333Y-45641961D02*
X216928571Y-45737200D01*
X216928571Y-45737200D02*
X217071428Y-45784819D01*
X217071428Y-45784819D02*
X217166666Y-45784819D01*
X217166666Y-45784819D02*
X217309523Y-45737200D01*
X217309523Y-45737200D02*
X217357142Y-45689580D01*
X217357142Y-45689580D02*
X217357142Y-45356247D01*
X217357142Y-45356247D02*
X217166666Y-45356247D01*
X217547619Y-45880057D02*
X218309523Y-45880057D01*
X219071428Y-45784819D02*
X218500000Y-45784819D01*
X218785714Y-45784819D02*
X218785714Y-44784819D01*
X218785714Y-44784819D02*
X218690476Y-44927676D01*
X218690476Y-44927676D02*
X218595238Y-45022914D01*
X218595238Y-45022914D02*
X218500000Y-45070533D01*
X223610118Y-39150057D02*
X223514880Y-39102438D01*
X223514880Y-39102438D02*
X223419642Y-39007200D01*
X223419642Y-39007200D02*
X223276785Y-38864342D01*
X223276785Y-38864342D02*
X223181547Y-38816723D01*
X223181547Y-38816723D02*
X223086309Y-38816723D01*
X223133928Y-39054819D02*
X223038690Y-39007200D01*
X223038690Y-39007200D02*
X222943452Y-38911961D01*
X222943452Y-38911961D02*
X222895833Y-38721485D01*
X222895833Y-38721485D02*
X222895833Y-38388152D01*
X222895833Y-38388152D02*
X222943452Y-38197676D01*
X222943452Y-38197676D02*
X223038690Y-38102438D01*
X223038690Y-38102438D02*
X223133928Y-38054819D01*
X223133928Y-38054819D02*
X223324404Y-38054819D01*
X223324404Y-38054819D02*
X223419642Y-38102438D01*
X223419642Y-38102438D02*
X223514880Y-38197676D01*
X223514880Y-38197676D02*
X223562499Y-38388152D01*
X223562499Y-38388152D02*
X223562499Y-38721485D01*
X223562499Y-38721485D02*
X223514880Y-38911961D01*
X223514880Y-38911961D02*
X223419642Y-39007200D01*
X223419642Y-39007200D02*
X223324404Y-39054819D01*
X223324404Y-39054819D02*
X223133928Y-39054819D01*
X223752976Y-39150057D02*
X224514880Y-39150057D01*
X224752976Y-39054819D02*
X224752976Y-38054819D01*
X224752976Y-38054819D02*
X225133928Y-38054819D01*
X225133928Y-38054819D02*
X225229166Y-38102438D01*
X225229166Y-38102438D02*
X225276785Y-38150057D01*
X225276785Y-38150057D02*
X225324404Y-38245295D01*
X225324404Y-38245295D02*
X225324404Y-38388152D01*
X225324404Y-38388152D02*
X225276785Y-38483390D01*
X225276785Y-38483390D02*
X225229166Y-38531009D01*
X225229166Y-38531009D02*
X225133928Y-38578628D01*
X225133928Y-38578628D02*
X224752976Y-38578628D01*
X225943452Y-38054819D02*
X226133928Y-38054819D01*
X226133928Y-38054819D02*
X226229166Y-38102438D01*
X226229166Y-38102438D02*
X226324404Y-38197676D01*
X226324404Y-38197676D02*
X226372023Y-38388152D01*
X226372023Y-38388152D02*
X226372023Y-38721485D01*
X226372023Y-38721485D02*
X226324404Y-38911961D01*
X226324404Y-38911961D02*
X226229166Y-39007200D01*
X226229166Y-39007200D02*
X226133928Y-39054819D01*
X226133928Y-39054819D02*
X225943452Y-39054819D01*
X225943452Y-39054819D02*
X225848214Y-39007200D01*
X225848214Y-39007200D02*
X225752976Y-38911961D01*
X225752976Y-38911961D02*
X225705357Y-38721485D01*
X225705357Y-38721485D02*
X225705357Y-38388152D01*
X225705357Y-38388152D02*
X225752976Y-38197676D01*
X225752976Y-38197676D02*
X225848214Y-38102438D01*
X225848214Y-38102438D02*
X225943452Y-38054819D01*
X226705357Y-38054819D02*
X226943452Y-39054819D01*
X226943452Y-39054819D02*
X227133928Y-38340533D01*
X227133928Y-38340533D02*
X227324404Y-39054819D01*
X227324404Y-39054819D02*
X227562500Y-38054819D01*
X227705357Y-39150057D02*
X228467261Y-39150057D01*
X229229166Y-39054819D02*
X228657738Y-39054819D01*
X228943452Y-39054819D02*
X228943452Y-38054819D01*
X228943452Y-38054819D02*
X228848214Y-38197676D01*
X228848214Y-38197676D02*
X228752976Y-38292914D01*
X228752976Y-38292914D02*
X228657738Y-38340533D01*
X174604819Y-42481547D02*
X175414342Y-42481547D01*
X175414342Y-42481547D02*
X175509580Y-42433928D01*
X175509580Y-42433928D02*
X175557200Y-42386309D01*
X175557200Y-42386309D02*
X175604819Y-42291071D01*
X175604819Y-42291071D02*
X175604819Y-42100595D01*
X175604819Y-42100595D02*
X175557200Y-42005357D01*
X175557200Y-42005357D02*
X175509580Y-41957738D01*
X175509580Y-41957738D02*
X175414342Y-41910119D01*
X175414342Y-41910119D02*
X174604819Y-41910119D01*
X175700057Y-41672024D02*
X175700057Y-40910119D01*
X175604819Y-40672023D02*
X174604819Y-40672023D01*
X174604819Y-40672023D02*
X174604819Y-40291071D01*
X174604819Y-40291071D02*
X174652438Y-40195833D01*
X174652438Y-40195833D02*
X174700057Y-40148214D01*
X174700057Y-40148214D02*
X174795295Y-40100595D01*
X174795295Y-40100595D02*
X174938152Y-40100595D01*
X174938152Y-40100595D02*
X175033390Y-40148214D01*
X175033390Y-40148214D02*
X175081009Y-40195833D01*
X175081009Y-40195833D02*
X175128628Y-40291071D01*
X175128628Y-40291071D02*
X175128628Y-40672023D01*
X174604819Y-39481547D02*
X174604819Y-39291071D01*
X174604819Y-39291071D02*
X174652438Y-39195833D01*
X174652438Y-39195833D02*
X174747676Y-39100595D01*
X174747676Y-39100595D02*
X174938152Y-39052976D01*
X174938152Y-39052976D02*
X175271485Y-39052976D01*
X175271485Y-39052976D02*
X175461961Y-39100595D01*
X175461961Y-39100595D02*
X175557200Y-39195833D01*
X175557200Y-39195833D02*
X175604819Y-39291071D01*
X175604819Y-39291071D02*
X175604819Y-39481547D01*
X175604819Y-39481547D02*
X175557200Y-39576785D01*
X175557200Y-39576785D02*
X175461961Y-39672023D01*
X175461961Y-39672023D02*
X175271485Y-39719642D01*
X175271485Y-39719642D02*
X174938152Y-39719642D01*
X174938152Y-39719642D02*
X174747676Y-39672023D01*
X174747676Y-39672023D02*
X174652438Y-39576785D01*
X174652438Y-39576785D02*
X174604819Y-39481547D01*
X174604819Y-38719642D02*
X175604819Y-38481547D01*
X175604819Y-38481547D02*
X174890533Y-38291071D01*
X174890533Y-38291071D02*
X175604819Y-38100595D01*
X175604819Y-38100595D02*
X174604819Y-37862500D01*
X175700057Y-37719643D02*
X175700057Y-36957738D01*
X175604819Y-36195833D02*
X175604819Y-36767261D01*
X175604819Y-36481547D02*
X174604819Y-36481547D01*
X174604819Y-36481547D02*
X174747676Y-36576785D01*
X174747676Y-36576785D02*
X174842914Y-36672023D01*
X174842914Y-36672023D02*
X174890533Y-36767261D01*
G36*
X160813780Y-60499077D02*
G01*
X160885722Y-60571019D01*
X160926064Y-60732386D01*
X160926064Y-61047251D01*
X160885722Y-61208617D01*
X160813779Y-61280561D01*
X160745264Y-61314819D01*
X160590198Y-61314819D01*
X160521682Y-61280561D01*
X160449739Y-61208617D01*
X160409398Y-61047251D01*
X160409398Y-60732386D01*
X160449739Y-60571019D01*
X160521682Y-60499077D01*
X160590198Y-60464819D01*
X160745264Y-60464819D01*
X160813780Y-60499077D01*
G37*
G36*
X163090496Y-61575930D02*
G01*
X156958400Y-61575930D01*
X156958400Y-60399199D01*
X157069511Y-60399199D01*
X157072771Y-60413536D01*
X157406104Y-61413536D01*
X157412098Y-61426961D01*
X157415608Y-61431008D01*
X157418005Y-61435802D01*
X157425113Y-61441967D01*
X157431272Y-61449068D01*
X157436061Y-61451462D01*
X157440112Y-61454976D01*
X157449037Y-61457950D01*
X157457445Y-61462155D01*
X157462789Y-61462534D01*
X157467875Y-61464230D01*
X157477255Y-61463563D01*
X157486635Y-61464230D01*
X157491720Y-61462534D01*
X157497065Y-61462155D01*
X157505475Y-61457949D01*
X157514397Y-61454976D01*
X157518444Y-61451465D01*
X157523238Y-61449069D01*
X157529401Y-61441963D01*
X157536505Y-61435802D01*
X157538900Y-61431010D01*
X157542412Y-61426962D01*
X157548406Y-61413536D01*
X157881739Y-60413536D01*
X157884999Y-60399200D01*
X157884332Y-60389819D01*
X158068922Y-60389819D01*
X158068922Y-61389819D01*
X158070363Y-61404451D01*
X158081562Y-61431487D01*
X158102254Y-61452179D01*
X158129290Y-61463378D01*
X158158554Y-61463378D01*
X158185590Y-61452179D01*
X158206282Y-61431487D01*
X158217481Y-61404451D01*
X158218922Y-61389819D01*
X158218922Y-60389819D01*
X158545112Y-60389819D01*
X158545112Y-61389819D01*
X158546553Y-61404451D01*
X158557752Y-61431487D01*
X158578444Y-61452179D01*
X158605480Y-61463378D01*
X158634744Y-61463378D01*
X158661780Y-61452179D01*
X158682472Y-61431487D01*
X158693671Y-61404451D01*
X158695112Y-61389819D01*
X158695112Y-60992313D01*
X158754854Y-60932570D01*
X159131540Y-61434819D01*
X159141472Y-61445660D01*
X159166653Y-61460570D01*
X159195622Y-61464708D01*
X159223970Y-61457446D01*
X159247381Y-61439887D01*
X159262290Y-61414706D01*
X159266429Y-61385738D01*
X159259167Y-61357389D01*
X159251540Y-61344819D01*
X158861997Y-60825427D01*
X158964272Y-60723152D01*
X160259398Y-60723152D01*
X160259398Y-61056485D01*
X160259649Y-61059038D01*
X160259487Y-61060131D01*
X160260296Y-61065604D01*
X160260839Y-61071117D01*
X160261261Y-61072138D01*
X160261637Y-61074675D01*
X160309256Y-61265151D01*
X160314203Y-61278997D01*
X160317522Y-61283476D01*
X160319656Y-61288628D01*
X160328984Y-61299994D01*
X160424222Y-61395233D01*
X160429972Y-61399953D01*
X160431271Y-61401450D01*
X160433525Y-61402869D01*
X160435587Y-61404561D01*
X160437419Y-61405319D01*
X160443714Y-61409282D01*
X160538952Y-61456901D01*
X160552683Y-61462156D01*
X160555372Y-61462347D01*
X160557861Y-61463378D01*
X160572493Y-61464819D01*
X160762969Y-61464819D01*
X160777601Y-61463378D01*
X160780090Y-61462346D01*
X160782778Y-61462156D01*
X160796510Y-61456901D01*
X160891748Y-61409282D01*
X160898047Y-61405317D01*
X160899875Y-61404560D01*
X160901931Y-61402871D01*
X160904191Y-61401450D01*
X160905490Y-61399951D01*
X160911240Y-61395233D01*
X161006479Y-61299993D01*
X161015806Y-61288628D01*
X161017939Y-61283476D01*
X161021259Y-61278997D01*
X161026206Y-61265151D01*
X161073825Y-61074675D01*
X161074200Y-61072138D01*
X161074623Y-61071117D01*
X161075165Y-61065604D01*
X161075975Y-61060131D01*
X161075812Y-61059038D01*
X161076064Y-61056485D01*
X161076064Y-60723152D01*
X161075812Y-60720598D01*
X161075975Y-60719506D01*
X161075165Y-60714032D01*
X161074623Y-60708520D01*
X161074200Y-60707498D01*
X161073825Y-60704962D01*
X161026206Y-60514486D01*
X161021259Y-60500640D01*
X161017940Y-60496161D01*
X161015806Y-60491008D01*
X161006478Y-60479643D01*
X160916654Y-60389819D01*
X161354636Y-60389819D01*
X161354636Y-61199342D01*
X161356077Y-61213974D01*
X161357108Y-61216463D01*
X161357299Y-61219151D01*
X161362554Y-61232883D01*
X161410173Y-61328121D01*
X161414136Y-61334417D01*
X161414894Y-61336247D01*
X161416583Y-61338305D01*
X161418005Y-61340564D01*
X161419503Y-61341863D01*
X161424221Y-61347612D01*
X161471840Y-61395232D01*
X161477589Y-61399950D01*
X161478890Y-61401450D01*
X161481149Y-61402872D01*
X161483206Y-61404560D01*
X161485033Y-61405317D01*
X161491333Y-61409282D01*
X161586571Y-61456901D01*
X161600302Y-61462156D01*
X161602991Y-61462347D01*
X161605480Y-61463378D01*
X161620112Y-61464819D01*
X161810588Y-61464819D01*
X161825220Y-61463378D01*
X161827709Y-61462346D01*
X161830397Y-61462156D01*
X161844129Y-61456901D01*
X161939367Y-61409282D01*
X161945666Y-61405317D01*
X161947494Y-61404560D01*
X161949550Y-61402872D01*
X161951810Y-61401450D01*
X161953110Y-61399950D01*
X161958860Y-61395232D01*
X162006478Y-61347613D01*
X162011196Y-61341863D01*
X162012695Y-61340564D01*
X162014116Y-61338305D01*
X162015806Y-61336247D01*
X162016563Y-61334417D01*
X162020527Y-61328121D01*
X162068146Y-61232883D01*
X162073401Y-61219152D01*
X162073592Y-61216462D01*
X162074623Y-61213974D01*
X162076064Y-61199342D01*
X162076064Y-60389819D01*
X162074623Y-60375187D01*
X162260839Y-60375187D01*
X162260839Y-60404451D01*
X162272038Y-60431487D01*
X162292730Y-60452179D01*
X162319766Y-60463378D01*
X162334398Y-60464819D01*
X162545112Y-60464819D01*
X162545112Y-61389819D01*
X162546553Y-61404451D01*
X162557752Y-61431487D01*
X162578444Y-61452179D01*
X162605480Y-61463378D01*
X162634744Y-61463378D01*
X162661780Y-61452179D01*
X162682472Y-61431487D01*
X162693671Y-61404451D01*
X162695112Y-61389819D01*
X162695112Y-60464819D01*
X162905826Y-60464819D01*
X162920458Y-60463378D01*
X162947494Y-60452179D01*
X162968186Y-60431487D01*
X162979385Y-60404451D01*
X162979385Y-60375187D01*
X162968186Y-60348151D01*
X162947494Y-60327459D01*
X162920458Y-60316260D01*
X162905826Y-60314819D01*
X162334398Y-60314819D01*
X162319766Y-60316260D01*
X162292730Y-60327459D01*
X162272038Y-60348151D01*
X162260839Y-60375187D01*
X162074623Y-60375187D01*
X162063424Y-60348151D01*
X162042732Y-60327459D01*
X162015696Y-60316260D01*
X161986432Y-60316260D01*
X161959396Y-60327459D01*
X161938704Y-60348151D01*
X161927505Y-60375187D01*
X161926064Y-60389819D01*
X161926064Y-61181637D01*
X161891805Y-61250153D01*
X161861398Y-61280561D01*
X161792883Y-61314819D01*
X161637817Y-61314819D01*
X161569301Y-61280561D01*
X161538894Y-61250153D01*
X161504636Y-61181637D01*
X161504636Y-60389819D01*
X161503195Y-60375187D01*
X161491996Y-60348151D01*
X161471304Y-60327459D01*
X161444268Y-60316260D01*
X161415004Y-60316260D01*
X161387968Y-60327459D01*
X161367276Y-60348151D01*
X161356077Y-60375187D01*
X161354636Y-60389819D01*
X160916654Y-60389819D01*
X160911240Y-60384405D01*
X160905490Y-60379686D01*
X160904191Y-60378188D01*
X160901931Y-60376766D01*
X160899875Y-60375078D01*
X160898047Y-60374320D01*
X160891748Y-60370356D01*
X160796510Y-60322737D01*
X160782778Y-60317482D01*
X160780090Y-60317291D01*
X160777601Y-60316260D01*
X160762969Y-60314819D01*
X160572493Y-60314819D01*
X160557861Y-60316260D01*
X160555372Y-60317290D01*
X160552683Y-60317482D01*
X160538952Y-60322737D01*
X160443714Y-60370356D01*
X160437419Y-60374318D01*
X160435587Y-60375077D01*
X160433525Y-60376768D01*
X160431271Y-60378188D01*
X160429972Y-60379684D01*
X160424222Y-60384405D01*
X160328984Y-60479643D01*
X160319657Y-60491008D01*
X160317523Y-60496158D01*
X160314203Y-60500640D01*
X160309256Y-60514486D01*
X160261637Y-60704962D01*
X160261261Y-60707498D01*
X160260839Y-60708520D01*
X160260296Y-60714032D01*
X160259487Y-60719506D01*
X160259649Y-60720598D01*
X160259398Y-60723152D01*
X158964272Y-60723152D01*
X159244573Y-60442852D01*
X159253900Y-60431487D01*
X159265099Y-60404451D01*
X159265099Y-60375188D01*
X159253900Y-60348151D01*
X159233208Y-60327459D01*
X159206171Y-60316260D01*
X159176908Y-60316260D01*
X159149872Y-60327459D01*
X159138507Y-60336786D01*
X158695112Y-60780181D01*
X158695112Y-60389819D01*
X158693671Y-60375187D01*
X158682472Y-60348151D01*
X158661780Y-60327459D01*
X158634744Y-60316260D01*
X158605480Y-60316260D01*
X158578444Y-60327459D01*
X158557752Y-60348151D01*
X158546553Y-60375187D01*
X158545112Y-60389819D01*
X158218922Y-60389819D01*
X158217481Y-60375187D01*
X158206282Y-60348151D01*
X158185590Y-60327459D01*
X158158554Y-60316260D01*
X158129290Y-60316260D01*
X158102254Y-60327459D01*
X158081562Y-60348151D01*
X158070363Y-60375187D01*
X158068922Y-60389819D01*
X157884332Y-60389819D01*
X157882924Y-60370010D01*
X157869838Y-60343836D01*
X157847730Y-60324662D01*
X157819968Y-60315408D01*
X157790778Y-60317483D01*
X157764605Y-60330570D01*
X157745431Y-60352677D01*
X157739437Y-60366102D01*
X157477255Y-61152648D01*
X157215073Y-60366102D01*
X157209079Y-60352676D01*
X157189905Y-60330569D01*
X157163732Y-60317483D01*
X157134542Y-60315408D01*
X157106779Y-60324662D01*
X157084672Y-60343836D01*
X157071586Y-60370009D01*
X157069511Y-60399199D01*
X156958400Y-60399199D01*
X156958400Y-60203708D01*
X163090496Y-60203708D01*
X163090496Y-61575930D01*
G37*
X154305826Y-61450414D02*
X154770112Y-61450414D01*
X154770112Y-61450414D02*
X154520112Y-61736128D01*
X154520112Y-61736128D02*
X154627255Y-61736128D01*
X154627255Y-61736128D02*
X154698684Y-61771842D01*
X154698684Y-61771842D02*
X154734398Y-61807557D01*
X154734398Y-61807557D02*
X154770112Y-61878985D01*
X154770112Y-61878985D02*
X154770112Y-62057557D01*
X154770112Y-62057557D02*
X154734398Y-62128985D01*
X154734398Y-62128985D02*
X154698684Y-62164700D01*
X154698684Y-62164700D02*
X154627255Y-62200414D01*
X154627255Y-62200414D02*
X154412969Y-62200414D01*
X154412969Y-62200414D02*
X154341541Y-62164700D01*
X154341541Y-62164700D02*
X154305826Y-62128985D01*
X155020112Y-61700414D02*
X155198684Y-62200414D01*
X155198684Y-62200414D02*
X155377255Y-61700414D01*
X155591541Y-61450414D02*
X156055827Y-61450414D01*
X156055827Y-61450414D02*
X155805827Y-61736128D01*
X155805827Y-61736128D02*
X155912970Y-61736128D01*
X155912970Y-61736128D02*
X155984399Y-61771842D01*
X155984399Y-61771842D02*
X156020113Y-61807557D01*
X156020113Y-61807557D02*
X156055827Y-61878985D01*
X156055827Y-61878985D02*
X156055827Y-62057557D01*
X156055827Y-62057557D02*
X156020113Y-62128985D01*
X156020113Y-62128985D02*
X155984399Y-62164700D01*
X155984399Y-62164700D02*
X155912970Y-62200414D01*
X155912970Y-62200414D02*
X155698684Y-62200414D01*
X155698684Y-62200414D02*
X155627256Y-62164700D01*
X155627256Y-62164700D02*
X155591541Y-62128985D01*
G36*
X160813780Y-75499077D02*
G01*
X160885722Y-75571019D01*
X160926064Y-75732386D01*
X160926064Y-76047251D01*
X160885722Y-76208617D01*
X160813779Y-76280561D01*
X160745264Y-76314819D01*
X160590198Y-76314819D01*
X160521682Y-76280561D01*
X160449739Y-76208617D01*
X160409398Y-76047251D01*
X160409398Y-75732386D01*
X160449739Y-75571019D01*
X160521682Y-75499077D01*
X160590198Y-75464819D01*
X160745264Y-75464819D01*
X160813780Y-75499077D01*
G37*
G36*
X163090496Y-76575930D02*
G01*
X156958400Y-76575930D01*
X156958400Y-75399199D01*
X157069511Y-75399199D01*
X157072771Y-75413536D01*
X157406104Y-76413536D01*
X157412098Y-76426961D01*
X157415608Y-76431008D01*
X157418005Y-76435802D01*
X157425113Y-76441967D01*
X157431272Y-76449068D01*
X157436061Y-76451462D01*
X157440112Y-76454976D01*
X157449037Y-76457950D01*
X157457445Y-76462155D01*
X157462789Y-76462534D01*
X157467875Y-76464230D01*
X157477255Y-76463563D01*
X157486635Y-76464230D01*
X157491720Y-76462534D01*
X157497065Y-76462155D01*
X157505475Y-76457949D01*
X157514397Y-76454976D01*
X157518444Y-76451465D01*
X157523238Y-76449069D01*
X157529401Y-76441963D01*
X157536505Y-76435802D01*
X157538900Y-76431010D01*
X157542412Y-76426962D01*
X157548406Y-76413536D01*
X157881739Y-75413536D01*
X157884999Y-75399200D01*
X157884332Y-75389819D01*
X158068922Y-75389819D01*
X158068922Y-76389819D01*
X158070363Y-76404451D01*
X158081562Y-76431487D01*
X158102254Y-76452179D01*
X158129290Y-76463378D01*
X158158554Y-76463378D01*
X158185590Y-76452179D01*
X158206282Y-76431487D01*
X158217481Y-76404451D01*
X158218922Y-76389819D01*
X158218922Y-75389819D01*
X158545112Y-75389819D01*
X158545112Y-76389819D01*
X158546553Y-76404451D01*
X158557752Y-76431487D01*
X158578444Y-76452179D01*
X158605480Y-76463378D01*
X158634744Y-76463378D01*
X158661780Y-76452179D01*
X158682472Y-76431487D01*
X158693671Y-76404451D01*
X158695112Y-76389819D01*
X158695112Y-75992313D01*
X158754854Y-75932570D01*
X159131540Y-76434819D01*
X159141472Y-76445660D01*
X159166653Y-76460570D01*
X159195622Y-76464708D01*
X159223970Y-76457446D01*
X159247381Y-76439887D01*
X159262290Y-76414706D01*
X159266429Y-76385738D01*
X159259167Y-76357389D01*
X159251540Y-76344819D01*
X158861997Y-75825427D01*
X158964272Y-75723152D01*
X160259398Y-75723152D01*
X160259398Y-76056485D01*
X160259649Y-76059038D01*
X160259487Y-76060131D01*
X160260296Y-76065604D01*
X160260839Y-76071117D01*
X160261261Y-76072138D01*
X160261637Y-76074675D01*
X160309256Y-76265151D01*
X160314203Y-76278997D01*
X160317522Y-76283476D01*
X160319656Y-76288628D01*
X160328984Y-76299994D01*
X160424222Y-76395233D01*
X160429972Y-76399953D01*
X160431271Y-76401450D01*
X160433525Y-76402869D01*
X160435587Y-76404561D01*
X160437419Y-76405319D01*
X160443714Y-76409282D01*
X160538952Y-76456901D01*
X160552683Y-76462156D01*
X160555372Y-76462347D01*
X160557861Y-76463378D01*
X160572493Y-76464819D01*
X160762969Y-76464819D01*
X160777601Y-76463378D01*
X160780090Y-76462346D01*
X160782778Y-76462156D01*
X160796510Y-76456901D01*
X160891748Y-76409282D01*
X160898047Y-76405317D01*
X160899875Y-76404560D01*
X160901931Y-76402871D01*
X160904191Y-76401450D01*
X160905490Y-76399951D01*
X160911240Y-76395233D01*
X161006479Y-76299993D01*
X161015806Y-76288628D01*
X161017939Y-76283476D01*
X161021259Y-76278997D01*
X161026206Y-76265151D01*
X161073825Y-76074675D01*
X161074200Y-76072138D01*
X161074623Y-76071117D01*
X161075165Y-76065604D01*
X161075975Y-76060131D01*
X161075812Y-76059038D01*
X161076064Y-76056485D01*
X161076064Y-75723152D01*
X161075812Y-75720598D01*
X161075975Y-75719506D01*
X161075165Y-75714032D01*
X161074623Y-75708520D01*
X161074200Y-75707498D01*
X161073825Y-75704962D01*
X161026206Y-75514486D01*
X161021259Y-75500640D01*
X161017940Y-75496161D01*
X161015806Y-75491008D01*
X161006478Y-75479643D01*
X160916654Y-75389819D01*
X161354636Y-75389819D01*
X161354636Y-76199342D01*
X161356077Y-76213974D01*
X161357108Y-76216463D01*
X161357299Y-76219151D01*
X161362554Y-76232883D01*
X161410173Y-76328121D01*
X161414136Y-76334417D01*
X161414894Y-76336247D01*
X161416583Y-76338305D01*
X161418005Y-76340564D01*
X161419503Y-76341863D01*
X161424221Y-76347612D01*
X161471840Y-76395232D01*
X161477589Y-76399950D01*
X161478890Y-76401450D01*
X161481149Y-76402872D01*
X161483206Y-76404560D01*
X161485033Y-76405317D01*
X161491333Y-76409282D01*
X161586571Y-76456901D01*
X161600302Y-76462156D01*
X161602991Y-76462347D01*
X161605480Y-76463378D01*
X161620112Y-76464819D01*
X161810588Y-76464819D01*
X161825220Y-76463378D01*
X161827709Y-76462346D01*
X161830397Y-76462156D01*
X161844129Y-76456901D01*
X161939367Y-76409282D01*
X161945666Y-76405317D01*
X161947494Y-76404560D01*
X161949550Y-76402872D01*
X161951810Y-76401450D01*
X161953110Y-76399950D01*
X161958860Y-76395232D01*
X162006478Y-76347613D01*
X162011196Y-76341863D01*
X162012695Y-76340564D01*
X162014116Y-76338305D01*
X162015806Y-76336247D01*
X162016563Y-76334417D01*
X162020527Y-76328121D01*
X162068146Y-76232883D01*
X162073401Y-76219152D01*
X162073592Y-76216462D01*
X162074623Y-76213974D01*
X162076064Y-76199342D01*
X162076064Y-75389819D01*
X162074623Y-75375187D01*
X162260839Y-75375187D01*
X162260839Y-75404451D01*
X162272038Y-75431487D01*
X162292730Y-75452179D01*
X162319766Y-75463378D01*
X162334398Y-75464819D01*
X162545112Y-75464819D01*
X162545112Y-76389819D01*
X162546553Y-76404451D01*
X162557752Y-76431487D01*
X162578444Y-76452179D01*
X162605480Y-76463378D01*
X162634744Y-76463378D01*
X162661780Y-76452179D01*
X162682472Y-76431487D01*
X162693671Y-76404451D01*
X162695112Y-76389819D01*
X162695112Y-75464819D01*
X162905826Y-75464819D01*
X162920458Y-75463378D01*
X162947494Y-75452179D01*
X162968186Y-75431487D01*
X162979385Y-75404451D01*
X162979385Y-75375187D01*
X162968186Y-75348151D01*
X162947494Y-75327459D01*
X162920458Y-75316260D01*
X162905826Y-75314819D01*
X162334398Y-75314819D01*
X162319766Y-75316260D01*
X162292730Y-75327459D01*
X162272038Y-75348151D01*
X162260839Y-75375187D01*
X162074623Y-75375187D01*
X162063424Y-75348151D01*
X162042732Y-75327459D01*
X162015696Y-75316260D01*
X161986432Y-75316260D01*
X161959396Y-75327459D01*
X161938704Y-75348151D01*
X161927505Y-75375187D01*
X161926064Y-75389819D01*
X161926064Y-76181637D01*
X161891805Y-76250153D01*
X161861398Y-76280561D01*
X161792883Y-76314819D01*
X161637817Y-76314819D01*
X161569301Y-76280561D01*
X161538894Y-76250153D01*
X161504636Y-76181637D01*
X161504636Y-75389819D01*
X161503195Y-75375187D01*
X161491996Y-75348151D01*
X161471304Y-75327459D01*
X161444268Y-75316260D01*
X161415004Y-75316260D01*
X161387968Y-75327459D01*
X161367276Y-75348151D01*
X161356077Y-75375187D01*
X161354636Y-75389819D01*
X160916654Y-75389819D01*
X160911240Y-75384405D01*
X160905490Y-75379686D01*
X160904191Y-75378188D01*
X160901931Y-75376766D01*
X160899875Y-75375078D01*
X160898047Y-75374320D01*
X160891748Y-75370356D01*
X160796510Y-75322737D01*
X160782778Y-75317482D01*
X160780090Y-75317291D01*
X160777601Y-75316260D01*
X160762969Y-75314819D01*
X160572493Y-75314819D01*
X160557861Y-75316260D01*
X160555372Y-75317290D01*
X160552683Y-75317482D01*
X160538952Y-75322737D01*
X160443714Y-75370356D01*
X160437419Y-75374318D01*
X160435587Y-75375077D01*
X160433525Y-75376768D01*
X160431271Y-75378188D01*
X160429972Y-75379684D01*
X160424222Y-75384405D01*
X160328984Y-75479643D01*
X160319657Y-75491008D01*
X160317523Y-75496158D01*
X160314203Y-75500640D01*
X160309256Y-75514486D01*
X160261637Y-75704962D01*
X160261261Y-75707498D01*
X160260839Y-75708520D01*
X160260296Y-75714032D01*
X160259487Y-75719506D01*
X160259649Y-75720598D01*
X160259398Y-75723152D01*
X158964272Y-75723152D01*
X159244573Y-75442852D01*
X159253900Y-75431487D01*
X159265099Y-75404451D01*
X159265099Y-75375188D01*
X159253900Y-75348151D01*
X159233208Y-75327459D01*
X159206171Y-75316260D01*
X159176908Y-75316260D01*
X159149872Y-75327459D01*
X159138507Y-75336786D01*
X158695112Y-75780181D01*
X158695112Y-75389819D01*
X158693671Y-75375187D01*
X158682472Y-75348151D01*
X158661780Y-75327459D01*
X158634744Y-75316260D01*
X158605480Y-75316260D01*
X158578444Y-75327459D01*
X158557752Y-75348151D01*
X158546553Y-75375187D01*
X158545112Y-75389819D01*
X158218922Y-75389819D01*
X158217481Y-75375187D01*
X158206282Y-75348151D01*
X158185590Y-75327459D01*
X158158554Y-75316260D01*
X158129290Y-75316260D01*
X158102254Y-75327459D01*
X158081562Y-75348151D01*
X158070363Y-75375187D01*
X158068922Y-75389819D01*
X157884332Y-75389819D01*
X157882924Y-75370010D01*
X157869838Y-75343836D01*
X157847730Y-75324662D01*
X157819968Y-75315408D01*
X157790778Y-75317483D01*
X157764605Y-75330570D01*
X157745431Y-75352677D01*
X157739437Y-75366102D01*
X157477255Y-76152648D01*
X157215073Y-75366102D01*
X157209079Y-75352676D01*
X157189905Y-75330569D01*
X157163732Y-75317483D01*
X157134542Y-75315408D01*
X157106779Y-75324662D01*
X157084672Y-75343836D01*
X157071586Y-75370009D01*
X157069511Y-75399199D01*
X156958400Y-75399199D01*
X156958400Y-75203708D01*
X163090496Y-75203708D01*
X163090496Y-76575930D01*
G37*
X154305826Y-76450414D02*
X154770112Y-76450414D01*
X154770112Y-76450414D02*
X154520112Y-76736128D01*
X154520112Y-76736128D02*
X154627255Y-76736128D01*
X154627255Y-76736128D02*
X154698684Y-76771842D01*
X154698684Y-76771842D02*
X154734398Y-76807557D01*
X154734398Y-76807557D02*
X154770112Y-76878985D01*
X154770112Y-76878985D02*
X154770112Y-77057557D01*
X154770112Y-77057557D02*
X154734398Y-77128985D01*
X154734398Y-77128985D02*
X154698684Y-77164700D01*
X154698684Y-77164700D02*
X154627255Y-77200414D01*
X154627255Y-77200414D02*
X154412969Y-77200414D01*
X154412969Y-77200414D02*
X154341541Y-77164700D01*
X154341541Y-77164700D02*
X154305826Y-77128985D01*
X155020112Y-76700414D02*
X155198684Y-77200414D01*
X155198684Y-77200414D02*
X155377255Y-76700414D01*
X155591541Y-76450414D02*
X156055827Y-76450414D01*
X156055827Y-76450414D02*
X155805827Y-76736128D01*
X155805827Y-76736128D02*
X155912970Y-76736128D01*
X155912970Y-76736128D02*
X155984399Y-76771842D01*
X155984399Y-76771842D02*
X156020113Y-76807557D01*
X156020113Y-76807557D02*
X156055827Y-76878985D01*
X156055827Y-76878985D02*
X156055827Y-77057557D01*
X156055827Y-77057557D02*
X156020113Y-77128985D01*
X156020113Y-77128985D02*
X155984399Y-77164700D01*
X155984399Y-77164700D02*
X155912970Y-77200414D01*
X155912970Y-77200414D02*
X155698684Y-77200414D01*
X155698684Y-77200414D02*
X155627256Y-77164700D01*
X155627256Y-77164700D02*
X155591541Y-77128985D01*
G36*
X160813780Y-90499077D02*
G01*
X160885722Y-90571019D01*
X160926064Y-90732386D01*
X160926064Y-91047251D01*
X160885722Y-91208617D01*
X160813779Y-91280561D01*
X160745264Y-91314819D01*
X160590198Y-91314819D01*
X160521682Y-91280561D01*
X160449739Y-91208617D01*
X160409398Y-91047251D01*
X160409398Y-90732386D01*
X160449739Y-90571019D01*
X160521682Y-90499077D01*
X160590198Y-90464819D01*
X160745264Y-90464819D01*
X160813780Y-90499077D01*
G37*
G36*
X163090496Y-91575930D02*
G01*
X156958400Y-91575930D01*
X156958400Y-90399199D01*
X157069511Y-90399199D01*
X157072771Y-90413536D01*
X157406104Y-91413536D01*
X157412098Y-91426961D01*
X157415608Y-91431008D01*
X157418005Y-91435802D01*
X157425113Y-91441967D01*
X157431272Y-91449068D01*
X157436061Y-91451462D01*
X157440112Y-91454976D01*
X157449037Y-91457950D01*
X157457445Y-91462155D01*
X157462789Y-91462534D01*
X157467875Y-91464230D01*
X157477255Y-91463563D01*
X157486635Y-91464230D01*
X157491720Y-91462534D01*
X157497065Y-91462155D01*
X157505475Y-91457949D01*
X157514397Y-91454976D01*
X157518444Y-91451465D01*
X157523238Y-91449069D01*
X157529401Y-91441963D01*
X157536505Y-91435802D01*
X157538900Y-91431010D01*
X157542412Y-91426962D01*
X157548406Y-91413536D01*
X157881739Y-90413536D01*
X157884999Y-90399200D01*
X157884332Y-90389819D01*
X158068922Y-90389819D01*
X158068922Y-91389819D01*
X158070363Y-91404451D01*
X158081562Y-91431487D01*
X158102254Y-91452179D01*
X158129290Y-91463378D01*
X158158554Y-91463378D01*
X158185590Y-91452179D01*
X158206282Y-91431487D01*
X158217481Y-91404451D01*
X158218922Y-91389819D01*
X158218922Y-90389819D01*
X158545112Y-90389819D01*
X158545112Y-91389819D01*
X158546553Y-91404451D01*
X158557752Y-91431487D01*
X158578444Y-91452179D01*
X158605480Y-91463378D01*
X158634744Y-91463378D01*
X158661780Y-91452179D01*
X158682472Y-91431487D01*
X158693671Y-91404451D01*
X158695112Y-91389819D01*
X158695112Y-90992313D01*
X158754854Y-90932570D01*
X159131540Y-91434819D01*
X159141472Y-91445660D01*
X159166653Y-91460570D01*
X159195622Y-91464708D01*
X159223970Y-91457446D01*
X159247381Y-91439887D01*
X159262290Y-91414706D01*
X159266429Y-91385738D01*
X159259167Y-91357389D01*
X159251540Y-91344819D01*
X158861997Y-90825427D01*
X158964272Y-90723152D01*
X160259398Y-90723152D01*
X160259398Y-91056485D01*
X160259649Y-91059038D01*
X160259487Y-91060131D01*
X160260296Y-91065604D01*
X160260839Y-91071117D01*
X160261261Y-91072138D01*
X160261637Y-91074675D01*
X160309256Y-91265151D01*
X160314203Y-91278997D01*
X160317522Y-91283476D01*
X160319656Y-91288628D01*
X160328984Y-91299994D01*
X160424222Y-91395233D01*
X160429972Y-91399953D01*
X160431271Y-91401450D01*
X160433525Y-91402869D01*
X160435587Y-91404561D01*
X160437419Y-91405319D01*
X160443714Y-91409282D01*
X160538952Y-91456901D01*
X160552683Y-91462156D01*
X160555372Y-91462347D01*
X160557861Y-91463378D01*
X160572493Y-91464819D01*
X160762969Y-91464819D01*
X160777601Y-91463378D01*
X160780090Y-91462346D01*
X160782778Y-91462156D01*
X160796510Y-91456901D01*
X160891748Y-91409282D01*
X160898047Y-91405317D01*
X160899875Y-91404560D01*
X160901931Y-91402871D01*
X160904191Y-91401450D01*
X160905490Y-91399951D01*
X160911240Y-91395233D01*
X161006479Y-91299993D01*
X161015806Y-91288628D01*
X161017939Y-91283476D01*
X161021259Y-91278997D01*
X161026206Y-91265151D01*
X161073825Y-91074675D01*
X161074200Y-91072138D01*
X161074623Y-91071117D01*
X161075165Y-91065604D01*
X161075975Y-91060131D01*
X161075812Y-91059038D01*
X161076064Y-91056485D01*
X161076064Y-90723152D01*
X161075812Y-90720598D01*
X161075975Y-90719506D01*
X161075165Y-90714032D01*
X161074623Y-90708520D01*
X161074200Y-90707498D01*
X161073825Y-90704962D01*
X161026206Y-90514486D01*
X161021259Y-90500640D01*
X161017940Y-90496161D01*
X161015806Y-90491008D01*
X161006478Y-90479643D01*
X160916654Y-90389819D01*
X161354636Y-90389819D01*
X161354636Y-91199342D01*
X161356077Y-91213974D01*
X161357108Y-91216463D01*
X161357299Y-91219151D01*
X161362554Y-91232883D01*
X161410173Y-91328121D01*
X161414136Y-91334417D01*
X161414894Y-91336247D01*
X161416583Y-91338305D01*
X161418005Y-91340564D01*
X161419503Y-91341863D01*
X161424221Y-91347612D01*
X161471840Y-91395232D01*
X161477589Y-91399950D01*
X161478890Y-91401450D01*
X161481149Y-91402872D01*
X161483206Y-91404560D01*
X161485033Y-91405317D01*
X161491333Y-91409282D01*
X161586571Y-91456901D01*
X161600302Y-91462156D01*
X161602991Y-91462347D01*
X161605480Y-91463378D01*
X161620112Y-91464819D01*
X161810588Y-91464819D01*
X161825220Y-91463378D01*
X161827709Y-91462346D01*
X161830397Y-91462156D01*
X161844129Y-91456901D01*
X161939367Y-91409282D01*
X161945666Y-91405317D01*
X161947494Y-91404560D01*
X161949550Y-91402872D01*
X161951810Y-91401450D01*
X161953110Y-91399950D01*
X161958860Y-91395232D01*
X162006478Y-91347613D01*
X162011196Y-91341863D01*
X162012695Y-91340564D01*
X162014116Y-91338305D01*
X162015806Y-91336247D01*
X162016563Y-91334417D01*
X162020527Y-91328121D01*
X162068146Y-91232883D01*
X162073401Y-91219152D01*
X162073592Y-91216462D01*
X162074623Y-91213974D01*
X162076064Y-91199342D01*
X162076064Y-90389819D01*
X162074623Y-90375187D01*
X162260839Y-90375187D01*
X162260839Y-90404451D01*
X162272038Y-90431487D01*
X162292730Y-90452179D01*
X162319766Y-90463378D01*
X162334398Y-90464819D01*
X162545112Y-90464819D01*
X162545112Y-91389819D01*
X162546553Y-91404451D01*
X162557752Y-91431487D01*
X162578444Y-91452179D01*
X162605480Y-91463378D01*
X162634744Y-91463378D01*
X162661780Y-91452179D01*
X162682472Y-91431487D01*
X162693671Y-91404451D01*
X162695112Y-91389819D01*
X162695112Y-90464819D01*
X162905826Y-90464819D01*
X162920458Y-90463378D01*
X162947494Y-90452179D01*
X162968186Y-90431487D01*
X162979385Y-90404451D01*
X162979385Y-90375187D01*
X162968186Y-90348151D01*
X162947494Y-90327459D01*
X162920458Y-90316260D01*
X162905826Y-90314819D01*
X162334398Y-90314819D01*
X162319766Y-90316260D01*
X162292730Y-90327459D01*
X162272038Y-90348151D01*
X162260839Y-90375187D01*
X162074623Y-90375187D01*
X162063424Y-90348151D01*
X162042732Y-90327459D01*
X162015696Y-90316260D01*
X161986432Y-90316260D01*
X161959396Y-90327459D01*
X161938704Y-90348151D01*
X161927505Y-90375187D01*
X161926064Y-90389819D01*
X161926064Y-91181637D01*
X161891805Y-91250153D01*
X161861398Y-91280561D01*
X161792883Y-91314819D01*
X161637817Y-91314819D01*
X161569301Y-91280561D01*
X161538894Y-91250153D01*
X161504636Y-91181637D01*
X161504636Y-90389819D01*
X161503195Y-90375187D01*
X161491996Y-90348151D01*
X161471304Y-90327459D01*
X161444268Y-90316260D01*
X161415004Y-90316260D01*
X161387968Y-90327459D01*
X161367276Y-90348151D01*
X161356077Y-90375187D01*
X161354636Y-90389819D01*
X160916654Y-90389819D01*
X160911240Y-90384405D01*
X160905490Y-90379686D01*
X160904191Y-90378188D01*
X160901931Y-90376766D01*
X160899875Y-90375078D01*
X160898047Y-90374320D01*
X160891748Y-90370356D01*
X160796510Y-90322737D01*
X160782778Y-90317482D01*
X160780090Y-90317291D01*
X160777601Y-90316260D01*
X160762969Y-90314819D01*
X160572493Y-90314819D01*
X160557861Y-90316260D01*
X160555372Y-90317290D01*
X160552683Y-90317482D01*
X160538952Y-90322737D01*
X160443714Y-90370356D01*
X160437419Y-90374318D01*
X160435587Y-90375077D01*
X160433525Y-90376768D01*
X160431271Y-90378188D01*
X160429972Y-90379684D01*
X160424222Y-90384405D01*
X160328984Y-90479643D01*
X160319657Y-90491008D01*
X160317523Y-90496158D01*
X160314203Y-90500640D01*
X160309256Y-90514486D01*
X160261637Y-90704962D01*
X160261261Y-90707498D01*
X160260839Y-90708520D01*
X160260296Y-90714032D01*
X160259487Y-90719506D01*
X160259649Y-90720598D01*
X160259398Y-90723152D01*
X158964272Y-90723152D01*
X159244573Y-90442852D01*
X159253900Y-90431487D01*
X159265099Y-90404451D01*
X159265099Y-90375188D01*
X159253900Y-90348151D01*
X159233208Y-90327459D01*
X159206171Y-90316260D01*
X159176908Y-90316260D01*
X159149872Y-90327459D01*
X159138507Y-90336786D01*
X158695112Y-90780181D01*
X158695112Y-90389819D01*
X158693671Y-90375187D01*
X158682472Y-90348151D01*
X158661780Y-90327459D01*
X158634744Y-90316260D01*
X158605480Y-90316260D01*
X158578444Y-90327459D01*
X158557752Y-90348151D01*
X158546553Y-90375187D01*
X158545112Y-90389819D01*
X158218922Y-90389819D01*
X158217481Y-90375187D01*
X158206282Y-90348151D01*
X158185590Y-90327459D01*
X158158554Y-90316260D01*
X158129290Y-90316260D01*
X158102254Y-90327459D01*
X158081562Y-90348151D01*
X158070363Y-90375187D01*
X158068922Y-90389819D01*
X157884332Y-90389819D01*
X157882924Y-90370010D01*
X157869838Y-90343836D01*
X157847730Y-90324662D01*
X157819968Y-90315408D01*
X157790778Y-90317483D01*
X157764605Y-90330570D01*
X157745431Y-90352677D01*
X157739437Y-90366102D01*
X157477255Y-91152648D01*
X157215073Y-90366102D01*
X157209079Y-90352676D01*
X157189905Y-90330569D01*
X157163732Y-90317483D01*
X157134542Y-90315408D01*
X157106779Y-90324662D01*
X157084672Y-90343836D01*
X157071586Y-90370009D01*
X157069511Y-90399199D01*
X156958400Y-90399199D01*
X156958400Y-90203708D01*
X163090496Y-90203708D01*
X163090496Y-91575930D01*
G37*
X154305826Y-91450414D02*
X154770112Y-91450414D01*
X154770112Y-91450414D02*
X154520112Y-91736128D01*
X154520112Y-91736128D02*
X154627255Y-91736128D01*
X154627255Y-91736128D02*
X154698684Y-91771842D01*
X154698684Y-91771842D02*
X154734398Y-91807557D01*
X154734398Y-91807557D02*
X154770112Y-91878985D01*
X154770112Y-91878985D02*
X154770112Y-92057557D01*
X154770112Y-92057557D02*
X154734398Y-92128985D01*
X154734398Y-92128985D02*
X154698684Y-92164700D01*
X154698684Y-92164700D02*
X154627255Y-92200414D01*
X154627255Y-92200414D02*
X154412969Y-92200414D01*
X154412969Y-92200414D02*
X154341541Y-92164700D01*
X154341541Y-92164700D02*
X154305826Y-92128985D01*
X155020112Y-91700414D02*
X155198684Y-92200414D01*
X155198684Y-92200414D02*
X155377255Y-91700414D01*
X155591541Y-91450414D02*
X156055827Y-91450414D01*
X156055827Y-91450414D02*
X155805827Y-91736128D01*
X155805827Y-91736128D02*
X155912970Y-91736128D01*
X155912970Y-91736128D02*
X155984399Y-91771842D01*
X155984399Y-91771842D02*
X156020113Y-91807557D01*
X156020113Y-91807557D02*
X156055827Y-91878985D01*
X156055827Y-91878985D02*
X156055827Y-92057557D01*
X156055827Y-92057557D02*
X156020113Y-92128985D01*
X156020113Y-92128985D02*
X155984399Y-92164700D01*
X155984399Y-92164700D02*
X155912970Y-92200414D01*
X155912970Y-92200414D02*
X155698684Y-92200414D01*
X155698684Y-92200414D02*
X155627256Y-92164700D01*
X155627256Y-92164700D02*
X155591541Y-92128985D01*
G36*
X160813780Y-45499077D02*
G01*
X160885722Y-45571019D01*
X160926064Y-45732386D01*
X160926064Y-46047251D01*
X160885722Y-46208617D01*
X160813779Y-46280561D01*
X160745264Y-46314819D01*
X160590198Y-46314819D01*
X160521682Y-46280561D01*
X160449739Y-46208617D01*
X160409398Y-46047251D01*
X160409398Y-45732386D01*
X160449739Y-45571019D01*
X160521682Y-45499077D01*
X160590198Y-45464819D01*
X160745264Y-45464819D01*
X160813780Y-45499077D01*
G37*
G36*
X163090496Y-46575930D02*
G01*
X156958400Y-46575930D01*
X156958400Y-45399199D01*
X157069511Y-45399199D01*
X157072771Y-45413536D01*
X157406104Y-46413536D01*
X157412098Y-46426961D01*
X157415608Y-46431008D01*
X157418005Y-46435802D01*
X157425113Y-46441967D01*
X157431272Y-46449068D01*
X157436061Y-46451462D01*
X157440112Y-46454976D01*
X157449037Y-46457950D01*
X157457445Y-46462155D01*
X157462789Y-46462534D01*
X157467875Y-46464230D01*
X157477255Y-46463563D01*
X157486635Y-46464230D01*
X157491720Y-46462534D01*
X157497065Y-46462155D01*
X157505475Y-46457949D01*
X157514397Y-46454976D01*
X157518444Y-46451465D01*
X157523238Y-46449069D01*
X157529401Y-46441963D01*
X157536505Y-46435802D01*
X157538900Y-46431010D01*
X157542412Y-46426962D01*
X157548406Y-46413536D01*
X157881739Y-45413536D01*
X157884999Y-45399200D01*
X157884332Y-45389819D01*
X158068922Y-45389819D01*
X158068922Y-46389819D01*
X158070363Y-46404451D01*
X158081562Y-46431487D01*
X158102254Y-46452179D01*
X158129290Y-46463378D01*
X158158554Y-46463378D01*
X158185590Y-46452179D01*
X158206282Y-46431487D01*
X158217481Y-46404451D01*
X158218922Y-46389819D01*
X158218922Y-45389819D01*
X158545112Y-45389819D01*
X158545112Y-46389819D01*
X158546553Y-46404451D01*
X158557752Y-46431487D01*
X158578444Y-46452179D01*
X158605480Y-46463378D01*
X158634744Y-46463378D01*
X158661780Y-46452179D01*
X158682472Y-46431487D01*
X158693671Y-46404451D01*
X158695112Y-46389819D01*
X158695112Y-45992313D01*
X158754854Y-45932570D01*
X159131540Y-46434819D01*
X159141472Y-46445660D01*
X159166653Y-46460570D01*
X159195622Y-46464708D01*
X159223970Y-46457446D01*
X159247381Y-46439887D01*
X159262290Y-46414706D01*
X159266429Y-46385738D01*
X159259167Y-46357389D01*
X159251540Y-46344819D01*
X158861997Y-45825427D01*
X158964272Y-45723152D01*
X160259398Y-45723152D01*
X160259398Y-46056485D01*
X160259649Y-46059038D01*
X160259487Y-46060131D01*
X160260296Y-46065604D01*
X160260839Y-46071117D01*
X160261261Y-46072138D01*
X160261637Y-46074675D01*
X160309256Y-46265151D01*
X160314203Y-46278997D01*
X160317522Y-46283476D01*
X160319656Y-46288628D01*
X160328984Y-46299994D01*
X160424222Y-46395233D01*
X160429972Y-46399953D01*
X160431271Y-46401450D01*
X160433525Y-46402869D01*
X160435587Y-46404561D01*
X160437419Y-46405319D01*
X160443714Y-46409282D01*
X160538952Y-46456901D01*
X160552683Y-46462156D01*
X160555372Y-46462347D01*
X160557861Y-46463378D01*
X160572493Y-46464819D01*
X160762969Y-46464819D01*
X160777601Y-46463378D01*
X160780090Y-46462346D01*
X160782778Y-46462156D01*
X160796510Y-46456901D01*
X160891748Y-46409282D01*
X160898047Y-46405317D01*
X160899875Y-46404560D01*
X160901931Y-46402871D01*
X160904191Y-46401450D01*
X160905490Y-46399951D01*
X160911240Y-46395233D01*
X161006479Y-46299993D01*
X161015806Y-46288628D01*
X161017939Y-46283476D01*
X161021259Y-46278997D01*
X161026206Y-46265151D01*
X161073825Y-46074675D01*
X161074200Y-46072138D01*
X161074623Y-46071117D01*
X161075165Y-46065604D01*
X161075975Y-46060131D01*
X161075812Y-46059038D01*
X161076064Y-46056485D01*
X161076064Y-45723152D01*
X161075812Y-45720598D01*
X161075975Y-45719506D01*
X161075165Y-45714032D01*
X161074623Y-45708520D01*
X161074200Y-45707498D01*
X161073825Y-45704962D01*
X161026206Y-45514486D01*
X161021259Y-45500640D01*
X161017940Y-45496161D01*
X161015806Y-45491008D01*
X161006478Y-45479643D01*
X160916654Y-45389819D01*
X161354636Y-45389819D01*
X161354636Y-46199342D01*
X161356077Y-46213974D01*
X161357108Y-46216463D01*
X161357299Y-46219151D01*
X161362554Y-46232883D01*
X161410173Y-46328121D01*
X161414136Y-46334417D01*
X161414894Y-46336247D01*
X161416583Y-46338305D01*
X161418005Y-46340564D01*
X161419503Y-46341863D01*
X161424221Y-46347612D01*
X161471840Y-46395232D01*
X161477589Y-46399950D01*
X161478890Y-46401450D01*
X161481149Y-46402872D01*
X161483206Y-46404560D01*
X161485033Y-46405317D01*
X161491333Y-46409282D01*
X161586571Y-46456901D01*
X161600302Y-46462156D01*
X161602991Y-46462347D01*
X161605480Y-46463378D01*
X161620112Y-46464819D01*
X161810588Y-46464819D01*
X161825220Y-46463378D01*
X161827709Y-46462346D01*
X161830397Y-46462156D01*
X161844129Y-46456901D01*
X161939367Y-46409282D01*
X161945666Y-46405317D01*
X161947494Y-46404560D01*
X161949550Y-46402872D01*
X161951810Y-46401450D01*
X161953110Y-46399950D01*
X161958860Y-46395232D01*
X162006478Y-46347613D01*
X162011196Y-46341863D01*
X162012695Y-46340564D01*
X162014116Y-46338305D01*
X162015806Y-46336247D01*
X162016563Y-46334417D01*
X162020527Y-46328121D01*
X162068146Y-46232883D01*
X162073401Y-46219152D01*
X162073592Y-46216462D01*
X162074623Y-46213974D01*
X162076064Y-46199342D01*
X162076064Y-45389819D01*
X162074623Y-45375187D01*
X162260839Y-45375187D01*
X162260839Y-45404451D01*
X162272038Y-45431487D01*
X162292730Y-45452179D01*
X162319766Y-45463378D01*
X162334398Y-45464819D01*
X162545112Y-45464819D01*
X162545112Y-46389819D01*
X162546553Y-46404451D01*
X162557752Y-46431487D01*
X162578444Y-46452179D01*
X162605480Y-46463378D01*
X162634744Y-46463378D01*
X162661780Y-46452179D01*
X162682472Y-46431487D01*
X162693671Y-46404451D01*
X162695112Y-46389819D01*
X162695112Y-45464819D01*
X162905826Y-45464819D01*
X162920458Y-45463378D01*
X162947494Y-45452179D01*
X162968186Y-45431487D01*
X162979385Y-45404451D01*
X162979385Y-45375187D01*
X162968186Y-45348151D01*
X162947494Y-45327459D01*
X162920458Y-45316260D01*
X162905826Y-45314819D01*
X162334398Y-45314819D01*
X162319766Y-45316260D01*
X162292730Y-45327459D01*
X162272038Y-45348151D01*
X162260839Y-45375187D01*
X162074623Y-45375187D01*
X162063424Y-45348151D01*
X162042732Y-45327459D01*
X162015696Y-45316260D01*
X161986432Y-45316260D01*
X161959396Y-45327459D01*
X161938704Y-45348151D01*
X161927505Y-45375187D01*
X161926064Y-45389819D01*
X161926064Y-46181637D01*
X161891805Y-46250153D01*
X161861398Y-46280561D01*
X161792883Y-46314819D01*
X161637817Y-46314819D01*
X161569301Y-46280561D01*
X161538894Y-46250153D01*
X161504636Y-46181637D01*
X161504636Y-45389819D01*
X161503195Y-45375187D01*
X161491996Y-45348151D01*
X161471304Y-45327459D01*
X161444268Y-45316260D01*
X161415004Y-45316260D01*
X161387968Y-45327459D01*
X161367276Y-45348151D01*
X161356077Y-45375187D01*
X161354636Y-45389819D01*
X160916654Y-45389819D01*
X160911240Y-45384405D01*
X160905490Y-45379686D01*
X160904191Y-45378188D01*
X160901931Y-45376766D01*
X160899875Y-45375078D01*
X160898047Y-45374320D01*
X160891748Y-45370356D01*
X160796510Y-45322737D01*
X160782778Y-45317482D01*
X160780090Y-45317291D01*
X160777601Y-45316260D01*
X160762969Y-45314819D01*
X160572493Y-45314819D01*
X160557861Y-45316260D01*
X160555372Y-45317290D01*
X160552683Y-45317482D01*
X160538952Y-45322737D01*
X160443714Y-45370356D01*
X160437419Y-45374318D01*
X160435587Y-45375077D01*
X160433525Y-45376768D01*
X160431271Y-45378188D01*
X160429972Y-45379684D01*
X160424222Y-45384405D01*
X160328984Y-45479643D01*
X160319657Y-45491008D01*
X160317523Y-45496158D01*
X160314203Y-45500640D01*
X160309256Y-45514486D01*
X160261637Y-45704962D01*
X160261261Y-45707498D01*
X160260839Y-45708520D01*
X160260296Y-45714032D01*
X160259487Y-45719506D01*
X160259649Y-45720598D01*
X160259398Y-45723152D01*
X158964272Y-45723152D01*
X159244573Y-45442852D01*
X159253900Y-45431487D01*
X159265099Y-45404451D01*
X159265099Y-45375188D01*
X159253900Y-45348151D01*
X159233208Y-45327459D01*
X159206171Y-45316260D01*
X159176908Y-45316260D01*
X159149872Y-45327459D01*
X159138507Y-45336786D01*
X158695112Y-45780181D01*
X158695112Y-45389819D01*
X158693671Y-45375187D01*
X158682472Y-45348151D01*
X158661780Y-45327459D01*
X158634744Y-45316260D01*
X158605480Y-45316260D01*
X158578444Y-45327459D01*
X158557752Y-45348151D01*
X158546553Y-45375187D01*
X158545112Y-45389819D01*
X158218922Y-45389819D01*
X158217481Y-45375187D01*
X158206282Y-45348151D01*
X158185590Y-45327459D01*
X158158554Y-45316260D01*
X158129290Y-45316260D01*
X158102254Y-45327459D01*
X158081562Y-45348151D01*
X158070363Y-45375187D01*
X158068922Y-45389819D01*
X157884332Y-45389819D01*
X157882924Y-45370010D01*
X157869838Y-45343836D01*
X157847730Y-45324662D01*
X157819968Y-45315408D01*
X157790778Y-45317483D01*
X157764605Y-45330570D01*
X157745431Y-45352677D01*
X157739437Y-45366102D01*
X157477255Y-46152648D01*
X157215073Y-45366102D01*
X157209079Y-45352676D01*
X157189905Y-45330569D01*
X157163732Y-45317483D01*
X157134542Y-45315408D01*
X157106779Y-45324662D01*
X157084672Y-45343836D01*
X157071586Y-45370009D01*
X157069511Y-45399199D01*
X156958400Y-45399199D01*
X156958400Y-45203708D01*
X163090496Y-45203708D01*
X163090496Y-46575930D01*
G37*
X154305826Y-46450414D02*
X154770112Y-46450414D01*
X154770112Y-46450414D02*
X154520112Y-46736128D01*
X154520112Y-46736128D02*
X154627255Y-46736128D01*
X154627255Y-46736128D02*
X154698684Y-46771842D01*
X154698684Y-46771842D02*
X154734398Y-46807557D01*
X154734398Y-46807557D02*
X154770112Y-46878985D01*
X154770112Y-46878985D02*
X154770112Y-47057557D01*
X154770112Y-47057557D02*
X154734398Y-47128985D01*
X154734398Y-47128985D02*
X154698684Y-47164700D01*
X154698684Y-47164700D02*
X154627255Y-47200414D01*
X154627255Y-47200414D02*
X154412969Y-47200414D01*
X154412969Y-47200414D02*
X154341541Y-47164700D01*
X154341541Y-47164700D02*
X154305826Y-47128985D01*
X155020112Y-46700414D02*
X155198684Y-47200414D01*
X155198684Y-47200414D02*
X155377255Y-46700414D01*
X155591541Y-46450414D02*
X156055827Y-46450414D01*
X156055827Y-46450414D02*
X155805827Y-46736128D01*
X155805827Y-46736128D02*
X155912970Y-46736128D01*
X155912970Y-46736128D02*
X155984399Y-46771842D01*
X155984399Y-46771842D02*
X156020113Y-46807557D01*
X156020113Y-46807557D02*
X156055827Y-46878985D01*
X156055827Y-46878985D02*
X156055827Y-47057557D01*
X156055827Y-47057557D02*
X156020113Y-47128985D01*
X156020113Y-47128985D02*
X155984399Y-47164700D01*
X155984399Y-47164700D02*
X155912970Y-47200414D01*
X155912970Y-47200414D02*
X155698684Y-47200414D01*
X155698684Y-47200414D02*
X155627256Y-47164700D01*
X155627256Y-47164700D02*
X155591541Y-47128985D01*
X193204819Y-84917857D02*
X193919104Y-84917857D01*
X193919104Y-84917857D02*
X194061961Y-84965476D01*
X194061961Y-84965476D02*
X194157200Y-85060714D01*
X194157200Y-85060714D02*
X194204819Y-85203571D01*
X194204819Y-85203571D02*
X194204819Y-85298809D01*
X194300057Y-84679762D02*
X194300057Y-83917857D01*
X194157200Y-83727380D02*
X194204819Y-83584523D01*
X194204819Y-83584523D02*
X194204819Y-83346428D01*
X194204819Y-83346428D02*
X194157200Y-83251190D01*
X194157200Y-83251190D02*
X194109580Y-83203571D01*
X194109580Y-83203571D02*
X194014342Y-83155952D01*
X194014342Y-83155952D02*
X193919104Y-83155952D01*
X193919104Y-83155952D02*
X193823866Y-83203571D01*
X193823866Y-83203571D02*
X193776247Y-83251190D01*
X193776247Y-83251190D02*
X193728628Y-83346428D01*
X193728628Y-83346428D02*
X193681009Y-83536904D01*
X193681009Y-83536904D02*
X193633390Y-83632142D01*
X193633390Y-83632142D02*
X193585771Y-83679761D01*
X193585771Y-83679761D02*
X193490533Y-83727380D01*
X193490533Y-83727380D02*
X193395295Y-83727380D01*
X193395295Y-83727380D02*
X193300057Y-83679761D01*
X193300057Y-83679761D02*
X193252438Y-83632142D01*
X193252438Y-83632142D02*
X193204819Y-83536904D01*
X193204819Y-83536904D02*
X193204819Y-83298809D01*
X193204819Y-83298809D02*
X193252438Y-83155952D01*
X193204819Y-82822618D02*
X194204819Y-82584523D01*
X194204819Y-82584523D02*
X193490533Y-82394047D01*
X193490533Y-82394047D02*
X194204819Y-82203571D01*
X194204819Y-82203571D02*
X193204819Y-81965476D01*
X194204819Y-81584523D02*
X193204819Y-81584523D01*
X193204819Y-81584523D02*
X193204819Y-81346428D01*
X193204819Y-81346428D02*
X193252438Y-81203571D01*
X193252438Y-81203571D02*
X193347676Y-81108333D01*
X193347676Y-81108333D02*
X193442914Y-81060714D01*
X193442914Y-81060714D02*
X193633390Y-81013095D01*
X193633390Y-81013095D02*
X193776247Y-81013095D01*
X193776247Y-81013095D02*
X193966723Y-81060714D01*
X193966723Y-81060714D02*
X194061961Y-81108333D01*
X194061961Y-81108333D02*
X194157200Y-81203571D01*
X194157200Y-81203571D02*
X194204819Y-81346428D01*
X194204819Y-81346428D02*
X194204819Y-81584523D01*
X194300057Y-80822619D02*
X194300057Y-80060714D01*
X194204819Y-79298809D02*
X194204819Y-79870237D01*
X194204819Y-79584523D02*
X193204819Y-79584523D01*
X193204819Y-79584523D02*
X193347676Y-79679761D01*
X193347676Y-79679761D02*
X193442914Y-79774999D01*
X193442914Y-79774999D02*
X193490533Y-79870237D01*
X97336028Y-15837305D02*
X97336028Y-14837305D01*
X97336028Y-15313495D02*
X97907456Y-15313495D01*
X97907456Y-15837305D02*
X97907456Y-14837305D01*
X98907456Y-15837305D02*
X98336028Y-15837305D01*
X98621742Y-15837305D02*
X98621742Y-14837305D01*
X98621742Y-14837305D02*
X98526504Y-14980162D01*
X98526504Y-14980162D02*
X98431266Y-15075400D01*
X98431266Y-15075400D02*
X98336028Y-15123019D01*
X213755952Y-41229819D02*
X213755952Y-41944104D01*
X213755952Y-41944104D02*
X213708333Y-42086961D01*
X213708333Y-42086961D02*
X213613095Y-42182200D01*
X213613095Y-42182200D02*
X213470238Y-42229819D01*
X213470238Y-42229819D02*
X213375000Y-42229819D01*
X214232143Y-42229819D02*
X214232143Y-41229819D01*
X214232143Y-41229819D02*
X214613095Y-41229819D01*
X214613095Y-41229819D02*
X214708333Y-41277438D01*
X214708333Y-41277438D02*
X214755952Y-41325057D01*
X214755952Y-41325057D02*
X214803571Y-41420295D01*
X214803571Y-41420295D02*
X214803571Y-41563152D01*
X214803571Y-41563152D02*
X214755952Y-41658390D01*
X214755952Y-41658390D02*
X214708333Y-41706009D01*
X214708333Y-41706009D02*
X214613095Y-41753628D01*
X214613095Y-41753628D02*
X214232143Y-41753628D01*
X214994048Y-42325057D02*
X215755952Y-42325057D01*
X216565476Y-42134580D02*
X216517857Y-42182200D01*
X216517857Y-42182200D02*
X216375000Y-42229819D01*
X216375000Y-42229819D02*
X216279762Y-42229819D01*
X216279762Y-42229819D02*
X216136905Y-42182200D01*
X216136905Y-42182200D02*
X216041667Y-42086961D01*
X216041667Y-42086961D02*
X215994048Y-41991723D01*
X215994048Y-41991723D02*
X215946429Y-41801247D01*
X215946429Y-41801247D02*
X215946429Y-41658390D01*
X215946429Y-41658390D02*
X215994048Y-41467914D01*
X215994048Y-41467914D02*
X216041667Y-41372676D01*
X216041667Y-41372676D02*
X216136905Y-41277438D01*
X216136905Y-41277438D02*
X216279762Y-41229819D01*
X216279762Y-41229819D02*
X216375000Y-41229819D01*
X216375000Y-41229819D02*
X216517857Y-41277438D01*
X216517857Y-41277438D02*
X216565476Y-41325057D01*
X216994048Y-42229819D02*
X216994048Y-41229819D01*
X216994048Y-41706009D02*
X217565476Y-41706009D01*
X217565476Y-42229819D02*
X217565476Y-41229819D01*
X218565476Y-41277438D02*
X218470238Y-41229819D01*
X218470238Y-41229819D02*
X218327381Y-41229819D01*
X218327381Y-41229819D02*
X218184524Y-41277438D01*
X218184524Y-41277438D02*
X218089286Y-41372676D01*
X218089286Y-41372676D02*
X218041667Y-41467914D01*
X218041667Y-41467914D02*
X217994048Y-41658390D01*
X217994048Y-41658390D02*
X217994048Y-41801247D01*
X217994048Y-41801247D02*
X218041667Y-41991723D01*
X218041667Y-41991723D02*
X218089286Y-42086961D01*
X218089286Y-42086961D02*
X218184524Y-42182200D01*
X218184524Y-42182200D02*
X218327381Y-42229819D01*
X218327381Y-42229819D02*
X218422619Y-42229819D01*
X218422619Y-42229819D02*
X218565476Y-42182200D01*
X218565476Y-42182200D02*
X218613095Y-42134580D01*
X218613095Y-42134580D02*
X218613095Y-41801247D01*
X218613095Y-41801247D02*
X218422619Y-41801247D01*
X218803572Y-42325057D02*
X219565476Y-42325057D01*
X220327381Y-42229819D02*
X219755953Y-42229819D01*
X220041667Y-42229819D02*
X220041667Y-41229819D01*
X220041667Y-41229819D02*
X219946429Y-41372676D01*
X219946429Y-41372676D02*
X219851191Y-41467914D01*
X219851191Y-41467914D02*
X219755953Y-41515533D01*
X175328180Y-131329175D02*
X175328180Y-130329175D01*
X175328180Y-130805365D02*
X175899608Y-130805365D01*
X175899608Y-131329175D02*
X175899608Y-130329175D01*
X176804370Y-130329175D02*
X176613894Y-130329175D01*
X176613894Y-130329175D02*
X176518656Y-130376794D01*
X176518656Y-130376794D02*
X176471037Y-130424413D01*
X176471037Y-130424413D02*
X176375799Y-130567270D01*
X176375799Y-130567270D02*
X176328180Y-130757746D01*
X176328180Y-130757746D02*
X176328180Y-131138698D01*
X176328180Y-131138698D02*
X176375799Y-131233936D01*
X176375799Y-131233936D02*
X176423418Y-131281556D01*
X176423418Y-131281556D02*
X176518656Y-131329175D01*
X176518656Y-131329175D02*
X176709132Y-131329175D01*
X176709132Y-131329175D02*
X176804370Y-131281556D01*
X176804370Y-131281556D02*
X176851989Y-131233936D01*
X176851989Y-131233936D02*
X176899608Y-131138698D01*
X176899608Y-131138698D02*
X176899608Y-130900603D01*
X176899608Y-130900603D02*
X176851989Y-130805365D01*
X176851989Y-130805365D02*
X176804370Y-130757746D01*
X176804370Y-130757746D02*
X176709132Y-130710127D01*
X176709132Y-130710127D02*
X176518656Y-130710127D01*
X176518656Y-130710127D02*
X176423418Y-130757746D01*
X176423418Y-130757746D02*
X176375799Y-130805365D01*
X176375799Y-130805365D02*
X176328180Y-130900603D01*
G36*
X242351599Y-84736108D02*
G01*
X237694253Y-84736108D01*
X237694253Y-83550180D01*
X237805364Y-83550180D01*
X237805364Y-84550180D01*
X237806805Y-84564812D01*
X237818004Y-84591848D01*
X237838696Y-84612540D01*
X237865732Y-84623739D01*
X237894996Y-84623739D01*
X237922032Y-84612540D01*
X237942724Y-84591848D01*
X237953923Y-84564812D01*
X237955364Y-84550180D01*
X237955364Y-83832596D01*
X238386674Y-84587391D01*
X238388863Y-84590475D01*
X238389432Y-84591848D01*
X238390829Y-84593245D01*
X238395184Y-84599380D01*
X238403072Y-84605488D01*
X238410124Y-84612540D01*
X238414542Y-84614370D01*
X238418322Y-84617297D01*
X238427943Y-84619921D01*
X238437160Y-84623739D01*
X238441941Y-84623739D01*
X238446553Y-84624997D01*
X238456450Y-84623739D01*
X238466424Y-84623739D01*
X238470839Y-84621909D01*
X238475583Y-84621307D01*
X238484247Y-84616356D01*
X238493460Y-84612540D01*
X238496838Y-84609161D01*
X238500992Y-84606788D01*
X238507101Y-84598898D01*
X238514152Y-84591848D01*
X238515981Y-84587431D01*
X238518909Y-84583651D01*
X238521533Y-84574027D01*
X238525351Y-84564812D01*
X238526087Y-84557329D01*
X238526609Y-84555419D01*
X238526421Y-84553943D01*
X238526792Y-84550180D01*
X238526792Y-83550180D01*
X238852982Y-83550180D01*
X238852982Y-84550180D01*
X238854423Y-84564812D01*
X238865622Y-84591848D01*
X238886314Y-84612540D01*
X238913350Y-84623739D01*
X238942614Y-84623739D01*
X238969650Y-84612540D01*
X238990342Y-84591848D01*
X239001541Y-84564812D01*
X239002982Y-84550180D01*
X239002982Y-83554262D01*
X240043570Y-83554262D01*
X240050833Y-83582610D01*
X240058459Y-83595180D01*
X240448001Y-84114571D01*
X240065426Y-84497147D01*
X240056099Y-84508512D01*
X240044900Y-84535549D01*
X240044900Y-84564811D01*
X240056099Y-84591848D01*
X240076791Y-84612540D01*
X240103828Y-84623739D01*
X240133090Y-84623739D01*
X240160127Y-84612540D01*
X240171492Y-84603213D01*
X240614887Y-84159818D01*
X240614887Y-84550180D01*
X240616328Y-84564812D01*
X240627527Y-84591848D01*
X240648219Y-84612540D01*
X240675255Y-84623739D01*
X240704519Y-84623739D01*
X240731555Y-84612540D01*
X240752247Y-84591848D01*
X240763446Y-84564812D01*
X240764887Y-84550180D01*
X240764887Y-83550180D01*
X241091077Y-83550180D01*
X241091077Y-84550180D01*
X241092518Y-84564812D01*
X241103717Y-84591848D01*
X241124409Y-84612540D01*
X241151445Y-84623739D01*
X241180709Y-84623739D01*
X241207745Y-84612540D01*
X241228437Y-84591848D01*
X241239636Y-84564812D01*
X241241077Y-84550180D01*
X241241077Y-84540800D01*
X241425000Y-84540800D01*
X241427075Y-84569990D01*
X241440161Y-84596163D01*
X241462268Y-84615337D01*
X241490031Y-84624591D01*
X241519221Y-84622516D01*
X241545394Y-84609430D01*
X241564568Y-84587323D01*
X241570562Y-84573897D01*
X241832744Y-83787350D01*
X242094926Y-84573897D01*
X242100920Y-84587322D01*
X242120094Y-84609429D01*
X242146267Y-84622516D01*
X242175457Y-84624591D01*
X242203219Y-84615337D01*
X242225327Y-84596163D01*
X242238413Y-84569989D01*
X242240488Y-84540799D01*
X242237228Y-84526463D01*
X241903895Y-83526463D01*
X241897901Y-83513037D01*
X241894389Y-83508988D01*
X241891994Y-83504197D01*
X241884890Y-83498035D01*
X241878727Y-83490930D01*
X241873933Y-83488533D01*
X241869886Y-83485023D01*
X241860964Y-83482049D01*
X241852554Y-83477844D01*
X241847209Y-83477464D01*
X241842124Y-83475769D01*
X241832744Y-83476435D01*
X241823364Y-83475769D01*
X241818278Y-83477464D01*
X241812934Y-83477844D01*
X241804526Y-83482048D01*
X241795601Y-83485023D01*
X241791550Y-83488536D01*
X241786761Y-83490931D01*
X241780602Y-83498031D01*
X241773494Y-83504197D01*
X241771097Y-83508990D01*
X241767587Y-83513038D01*
X241761593Y-83526463D01*
X241428260Y-84526463D01*
X241425000Y-84540800D01*
X241241077Y-84540800D01*
X241241077Y-83550180D01*
X241239636Y-83535548D01*
X241228437Y-83508512D01*
X241207745Y-83487820D01*
X241180709Y-83476621D01*
X241151445Y-83476621D01*
X241124409Y-83487820D01*
X241103717Y-83508512D01*
X241092518Y-83535548D01*
X241091077Y-83550180D01*
X240764887Y-83550180D01*
X240763446Y-83535548D01*
X240752247Y-83508512D01*
X240731555Y-83487820D01*
X240704519Y-83476621D01*
X240675255Y-83476621D01*
X240648219Y-83487820D01*
X240627527Y-83508512D01*
X240616328Y-83535548D01*
X240614887Y-83550180D01*
X240614887Y-83947686D01*
X240555144Y-84007428D01*
X240178459Y-83505180D01*
X240168527Y-83494339D01*
X240143346Y-83479430D01*
X240114377Y-83475291D01*
X240086029Y-83482554D01*
X240062618Y-83500112D01*
X240047709Y-83525293D01*
X240043570Y-83554262D01*
X239002982Y-83554262D01*
X239002982Y-83550180D01*
X239001541Y-83535548D01*
X238990342Y-83508512D01*
X238969650Y-83487820D01*
X238942614Y-83476621D01*
X238913350Y-83476621D01*
X238886314Y-83487820D01*
X238865622Y-83508512D01*
X238854423Y-83535548D01*
X238852982Y-83550180D01*
X238526792Y-83550180D01*
X238525351Y-83535548D01*
X238514152Y-83508512D01*
X238493460Y-83487820D01*
X238466424Y-83476621D01*
X238437160Y-83476621D01*
X238410124Y-83487820D01*
X238389432Y-83508512D01*
X238378233Y-83535548D01*
X238376792Y-83550180D01*
X238376792Y-84267763D01*
X237945482Y-83512970D01*
X237943293Y-83509886D01*
X237942724Y-83508512D01*
X237941324Y-83507112D01*
X237936972Y-83500980D01*
X237929082Y-83494870D01*
X237922032Y-83487820D01*
X237917615Y-83485990D01*
X237913835Y-83483063D01*
X237904211Y-83480438D01*
X237894996Y-83476621D01*
X237890215Y-83476621D01*
X237885603Y-83475363D01*
X237875706Y-83476621D01*
X237865732Y-83476621D01*
X237861316Y-83478450D01*
X237856573Y-83479053D01*
X237847908Y-83484003D01*
X237838696Y-83487820D01*
X237835317Y-83491198D01*
X237831164Y-83493572D01*
X237825054Y-83501461D01*
X237818004Y-83508512D01*
X237816174Y-83512928D01*
X237813247Y-83516709D01*
X237810622Y-83526332D01*
X237806805Y-83535548D01*
X237806068Y-83543030D01*
X237805547Y-83544941D01*
X237805734Y-83546416D01*
X237805364Y-83550180D01*
X237694253Y-83550180D01*
X237694253Y-83364180D01*
X242351599Y-83364180D01*
X242351599Y-84736108D01*
G37*
X236494173Y-83549585D02*
X236029887Y-83549585D01*
X236029887Y-83549585D02*
X236279887Y-83263871D01*
X236279887Y-83263871D02*
X236172744Y-83263871D01*
X236172744Y-83263871D02*
X236101316Y-83228157D01*
X236101316Y-83228157D02*
X236065601Y-83192442D01*
X236065601Y-83192442D02*
X236029887Y-83121014D01*
X236029887Y-83121014D02*
X236029887Y-82942442D01*
X236029887Y-82942442D02*
X236065601Y-82871014D01*
X236065601Y-82871014D02*
X236101316Y-82835300D01*
X236101316Y-82835300D02*
X236172744Y-82799585D01*
X236172744Y-82799585D02*
X236387030Y-82799585D01*
X236387030Y-82799585D02*
X236458458Y-82835300D01*
X236458458Y-82835300D02*
X236494173Y-82871014D01*
X235779887Y-83299585D02*
X235601315Y-82799585D01*
X235601315Y-82799585D02*
X235422744Y-83299585D01*
X235208458Y-83549585D02*
X234744172Y-83549585D01*
X234744172Y-83549585D02*
X234994172Y-83263871D01*
X234994172Y-83263871D02*
X234887029Y-83263871D01*
X234887029Y-83263871D02*
X234815601Y-83228157D01*
X234815601Y-83228157D02*
X234779886Y-83192442D01*
X234779886Y-83192442D02*
X234744172Y-83121014D01*
X234744172Y-83121014D02*
X234744172Y-82942442D01*
X234744172Y-82942442D02*
X234779886Y-82871014D01*
X234779886Y-82871014D02*
X234815601Y-82835300D01*
X234815601Y-82835300D02*
X234887029Y-82799585D01*
X234887029Y-82799585D02*
X235101315Y-82799585D01*
X235101315Y-82799585D02*
X235172743Y-82835300D01*
X235172743Y-82835300D02*
X235208458Y-82871014D01*
X234559164Y-32720522D02*
X234559164Y-31720522D01*
X234559164Y-32196712D02*
X235130592Y-32196712D01*
X235130592Y-32720522D02*
X235130592Y-31720522D01*
X235749640Y-32149093D02*
X235654402Y-32101474D01*
X235654402Y-32101474D02*
X235606783Y-32053855D01*
X235606783Y-32053855D02*
X235559164Y-31958617D01*
X235559164Y-31958617D02*
X235559164Y-31910998D01*
X235559164Y-31910998D02*
X235606783Y-31815760D01*
X235606783Y-31815760D02*
X235654402Y-31768141D01*
X235654402Y-31768141D02*
X235749640Y-31720522D01*
X235749640Y-31720522D02*
X235940116Y-31720522D01*
X235940116Y-31720522D02*
X236035354Y-31768141D01*
X236035354Y-31768141D02*
X236082973Y-31815760D01*
X236082973Y-31815760D02*
X236130592Y-31910998D01*
X236130592Y-31910998D02*
X236130592Y-31958617D01*
X236130592Y-31958617D02*
X236082973Y-32053855D01*
X236082973Y-32053855D02*
X236035354Y-32101474D01*
X236035354Y-32101474D02*
X235940116Y-32149093D01*
X235940116Y-32149093D02*
X235749640Y-32149093D01*
X235749640Y-32149093D02*
X235654402Y-32196712D01*
X235654402Y-32196712D02*
X235606783Y-32244331D01*
X235606783Y-32244331D02*
X235559164Y-32339569D01*
X235559164Y-32339569D02*
X235559164Y-32530045D01*
X235559164Y-32530045D02*
X235606783Y-32625283D01*
X235606783Y-32625283D02*
X235654402Y-32672903D01*
X235654402Y-32672903D02*
X235749640Y-32720522D01*
X235749640Y-32720522D02*
X235940116Y-32720522D01*
X235940116Y-32720522D02*
X236035354Y-32672903D01*
X236035354Y-32672903D02*
X236082973Y-32625283D01*
X236082973Y-32625283D02*
X236130592Y-32530045D01*
X236130592Y-32530045D02*
X236130592Y-32339569D01*
X236130592Y-32339569D02*
X236082973Y-32244331D01*
X236082973Y-32244331D02*
X236035354Y-32196712D01*
X236035354Y-32196712D02*
X235940116Y-32149093D01*
X108604601Y-37917298D02*
X108604601Y-38726821D01*
X108604601Y-38726821D02*
X108652220Y-38822059D01*
X108652220Y-38822059D02*
X108699839Y-38869679D01*
X108699839Y-38869679D02*
X108795077Y-38917298D01*
X108795077Y-38917298D02*
X108985553Y-38917298D01*
X108985553Y-38917298D02*
X109080791Y-38869679D01*
X109080791Y-38869679D02*
X109128410Y-38822059D01*
X109128410Y-38822059D02*
X109176029Y-38726821D01*
X109176029Y-38726821D02*
X109176029Y-37917298D01*
X109414125Y-39012536D02*
X110176029Y-39012536D01*
X110414125Y-38917298D02*
X110414125Y-37917298D01*
X110414125Y-37917298D02*
X110747458Y-38631583D01*
X110747458Y-38631583D02*
X111080791Y-37917298D01*
X111080791Y-37917298D02*
X111080791Y-38917298D01*
X112128410Y-38822059D02*
X112080791Y-38869679D01*
X112080791Y-38869679D02*
X111937934Y-38917298D01*
X111937934Y-38917298D02*
X111842696Y-38917298D01*
X111842696Y-38917298D02*
X111699839Y-38869679D01*
X111699839Y-38869679D02*
X111604601Y-38774440D01*
X111604601Y-38774440D02*
X111556982Y-38679202D01*
X111556982Y-38679202D02*
X111509363Y-38488726D01*
X111509363Y-38488726D02*
X111509363Y-38345869D01*
X111509363Y-38345869D02*
X111556982Y-38155393D01*
X111556982Y-38155393D02*
X111604601Y-38060155D01*
X111604601Y-38060155D02*
X111699839Y-37964917D01*
X111699839Y-37964917D02*
X111842696Y-37917298D01*
X111842696Y-37917298D02*
X111937934Y-37917298D01*
X111937934Y-37917298D02*
X112080791Y-37964917D01*
X112080791Y-37964917D02*
X112128410Y-38012536D01*
X112556982Y-37917298D02*
X112556982Y-38726821D01*
X112556982Y-38726821D02*
X112604601Y-38822059D01*
X112604601Y-38822059D02*
X112652220Y-38869679D01*
X112652220Y-38869679D02*
X112747458Y-38917298D01*
X112747458Y-38917298D02*
X112937934Y-38917298D01*
X112937934Y-38917298D02*
X113033172Y-38869679D01*
X113033172Y-38869679D02*
X113080791Y-38822059D01*
X113080791Y-38822059D02*
X113128410Y-38726821D01*
X113128410Y-38726821D02*
X113128410Y-37917298D01*
X113366506Y-39012536D02*
X114128410Y-39012536D01*
X114890315Y-38917298D02*
X114318887Y-38917298D01*
X114604601Y-38917298D02*
X114604601Y-37917298D01*
X114604601Y-37917298D02*
X114509363Y-38060155D01*
X114509363Y-38060155D02*
X114414125Y-38155393D01*
X114414125Y-38155393D02*
X114318887Y-38203012D01*
X301140162Y-15417999D02*
X301140162Y-14417999D01*
X301140162Y-14894189D02*
X301711590Y-14894189D01*
X301711590Y-15417999D02*
X301711590Y-14417999D01*
X302092543Y-14417999D02*
X302759209Y-14417999D01*
X302759209Y-14417999D02*
X302330638Y-15417999D01*
X59133627Y-57923901D02*
X59133627Y-56923901D01*
X59133627Y-57400091D02*
X59705055Y-57400091D01*
X59705055Y-57923901D02*
X59705055Y-56923901D01*
X60086008Y-56923901D02*
X60705055Y-56923901D01*
X60705055Y-56923901D02*
X60371722Y-57304853D01*
X60371722Y-57304853D02*
X60514579Y-57304853D01*
X60514579Y-57304853D02*
X60609817Y-57352472D01*
X60609817Y-57352472D02*
X60657436Y-57400091D01*
X60657436Y-57400091D02*
X60705055Y-57495329D01*
X60705055Y-57495329D02*
X60705055Y-57733424D01*
X60705055Y-57733424D02*
X60657436Y-57828662D01*
X60657436Y-57828662D02*
X60609817Y-57876282D01*
X60609817Y-57876282D02*
X60514579Y-57923901D01*
X60514579Y-57923901D02*
X60228865Y-57923901D01*
X60228865Y-57923901D02*
X60133627Y-57876282D01*
X60133627Y-57876282D02*
X60086008Y-57828662D01*
X163917026Y-32720522D02*
X163917026Y-31720522D01*
X163917026Y-32196712D02*
X164488454Y-32196712D01*
X164488454Y-32720522D02*
X164488454Y-31720522D01*
X164917026Y-31815760D02*
X164964645Y-31768141D01*
X164964645Y-31768141D02*
X165059883Y-31720522D01*
X165059883Y-31720522D02*
X165297978Y-31720522D01*
X165297978Y-31720522D02*
X165393216Y-31768141D01*
X165393216Y-31768141D02*
X165440835Y-31815760D01*
X165440835Y-31815760D02*
X165488454Y-31910998D01*
X165488454Y-31910998D02*
X165488454Y-32006236D01*
X165488454Y-32006236D02*
X165440835Y-32149093D01*
X165440835Y-32149093D02*
X164869407Y-32720522D01*
X164869407Y-32720522D02*
X165488454Y-32720522D01*
X294541002Y-95255379D02*
X294541002Y-94255379D01*
X294541002Y-94731569D02*
X295112430Y-94731569D01*
X295112430Y-95255379D02*
X295112430Y-94255379D01*
X296112430Y-95255379D02*
X295541002Y-95255379D01*
X295826716Y-95255379D02*
X295826716Y-94255379D01*
X295826716Y-94255379D02*
X295731478Y-94398236D01*
X295731478Y-94398236D02*
X295636240Y-94493474D01*
X295636240Y-94493474D02*
X295541002Y-94541093D01*
X297064811Y-95255379D02*
X296493383Y-95255379D01*
X296779097Y-95255379D02*
X296779097Y-94255379D01*
X296779097Y-94255379D02*
X296683859Y-94398236D01*
X296683859Y-94398236D02*
X296588621Y-94493474D01*
X296588621Y-94493474D02*
X296493383Y-94541093D01*
X222904762Y-40304819D02*
X222904762Y-39304819D01*
X222904762Y-39304819D02*
X223142857Y-39304819D01*
X223142857Y-39304819D02*
X223285714Y-39352438D01*
X223285714Y-39352438D02*
X223380952Y-39447676D01*
X223380952Y-39447676D02*
X223428571Y-39542914D01*
X223428571Y-39542914D02*
X223476190Y-39733390D01*
X223476190Y-39733390D02*
X223476190Y-39876247D01*
X223476190Y-39876247D02*
X223428571Y-40066723D01*
X223428571Y-40066723D02*
X223380952Y-40161961D01*
X223380952Y-40161961D02*
X223285714Y-40257200D01*
X223285714Y-40257200D02*
X223142857Y-40304819D01*
X223142857Y-40304819D02*
X222904762Y-40304819D01*
X223666667Y-40400057D02*
X224428571Y-40400057D01*
X224666667Y-40304819D02*
X224666667Y-39304819D01*
X224666667Y-39304819D02*
X225047619Y-39304819D01*
X225047619Y-39304819D02*
X225142857Y-39352438D01*
X225142857Y-39352438D02*
X225190476Y-39400057D01*
X225190476Y-39400057D02*
X225238095Y-39495295D01*
X225238095Y-39495295D02*
X225238095Y-39638152D01*
X225238095Y-39638152D02*
X225190476Y-39733390D01*
X225190476Y-39733390D02*
X225142857Y-39781009D01*
X225142857Y-39781009D02*
X225047619Y-39828628D01*
X225047619Y-39828628D02*
X224666667Y-39828628D01*
X225857143Y-39304819D02*
X226047619Y-39304819D01*
X226047619Y-39304819D02*
X226142857Y-39352438D01*
X226142857Y-39352438D02*
X226238095Y-39447676D01*
X226238095Y-39447676D02*
X226285714Y-39638152D01*
X226285714Y-39638152D02*
X226285714Y-39971485D01*
X226285714Y-39971485D02*
X226238095Y-40161961D01*
X226238095Y-40161961D02*
X226142857Y-40257200D01*
X226142857Y-40257200D02*
X226047619Y-40304819D01*
X226047619Y-40304819D02*
X225857143Y-40304819D01*
X225857143Y-40304819D02*
X225761905Y-40257200D01*
X225761905Y-40257200D02*
X225666667Y-40161961D01*
X225666667Y-40161961D02*
X225619048Y-39971485D01*
X225619048Y-39971485D02*
X225619048Y-39638152D01*
X225619048Y-39638152D02*
X225666667Y-39447676D01*
X225666667Y-39447676D02*
X225761905Y-39352438D01*
X225761905Y-39352438D02*
X225857143Y-39304819D01*
X226619048Y-39304819D02*
X226857143Y-40304819D01*
X226857143Y-40304819D02*
X227047619Y-39590533D01*
X227047619Y-39590533D02*
X227238095Y-40304819D01*
X227238095Y-40304819D02*
X227476191Y-39304819D01*
X227619048Y-40400057D02*
X228380952Y-40400057D01*
X229142857Y-40304819D02*
X228571429Y-40304819D01*
X228857143Y-40304819D02*
X228857143Y-39304819D01*
X228857143Y-39304819D02*
X228761905Y-39447676D01*
X228761905Y-39447676D02*
X228666667Y-39542914D01*
X228666667Y-39542914D02*
X228571429Y-39590533D01*
X234305826Y-91450414D02*
X234770112Y-91450414D01*
X234770112Y-91450414D02*
X234520112Y-91736128D01*
X234520112Y-91736128D02*
X234627255Y-91736128D01*
X234627255Y-91736128D02*
X234698684Y-91771842D01*
X234698684Y-91771842D02*
X234734398Y-91807557D01*
X234734398Y-91807557D02*
X234770112Y-91878985D01*
X234770112Y-91878985D02*
X234770112Y-92057557D01*
X234770112Y-92057557D02*
X234734398Y-92128985D01*
X234734398Y-92128985D02*
X234698684Y-92164700D01*
X234698684Y-92164700D02*
X234627255Y-92200414D01*
X234627255Y-92200414D02*
X234412969Y-92200414D01*
X234412969Y-92200414D02*
X234341541Y-92164700D01*
X234341541Y-92164700D02*
X234305826Y-92128985D01*
X235020112Y-91700414D02*
X235198684Y-92200414D01*
X235198684Y-92200414D02*
X235377255Y-91700414D01*
X235591541Y-91450414D02*
X236055827Y-91450414D01*
X236055827Y-91450414D02*
X235805827Y-91736128D01*
X235805827Y-91736128D02*
X235912970Y-91736128D01*
X235912970Y-91736128D02*
X235984399Y-91771842D01*
X235984399Y-91771842D02*
X236020113Y-91807557D01*
X236020113Y-91807557D02*
X236055827Y-91878985D01*
X236055827Y-91878985D02*
X236055827Y-92057557D01*
X236055827Y-92057557D02*
X236020113Y-92128985D01*
X236020113Y-92128985D02*
X235984399Y-92164700D01*
X235984399Y-92164700D02*
X235912970Y-92200414D01*
X235912970Y-92200414D02*
X235698684Y-92200414D01*
X235698684Y-92200414D02*
X235627256Y-92164700D01*
X235627256Y-92164700D02*
X235591541Y-92128985D01*
G36*
X240813780Y-90499077D02*
G01*
X240885722Y-90571019D01*
X240926064Y-90732386D01*
X240926064Y-91047251D01*
X240885722Y-91208617D01*
X240813779Y-91280561D01*
X240745264Y-91314819D01*
X240590198Y-91314819D01*
X240521682Y-91280561D01*
X240449739Y-91208617D01*
X240409398Y-91047251D01*
X240409398Y-90732386D01*
X240449739Y-90571019D01*
X240521682Y-90499077D01*
X240590198Y-90464819D01*
X240745264Y-90464819D01*
X240813780Y-90499077D01*
G37*
G36*
X243090496Y-91575930D02*
G01*
X236958400Y-91575930D01*
X236958400Y-90399199D01*
X237069511Y-90399199D01*
X237072771Y-90413536D01*
X237406104Y-91413536D01*
X237412098Y-91426961D01*
X237415608Y-91431008D01*
X237418005Y-91435802D01*
X237425113Y-91441967D01*
X237431272Y-91449068D01*
X237436061Y-91451462D01*
X237440112Y-91454976D01*
X237449037Y-91457950D01*
X237457445Y-91462155D01*
X237462789Y-91462534D01*
X237467875Y-91464230D01*
X237477255Y-91463563D01*
X237486635Y-91464230D01*
X237491720Y-91462534D01*
X237497065Y-91462155D01*
X237505475Y-91457949D01*
X237514397Y-91454976D01*
X237518444Y-91451465D01*
X237523238Y-91449069D01*
X237529401Y-91441963D01*
X237536505Y-91435802D01*
X237538900Y-91431010D01*
X237542412Y-91426962D01*
X237548406Y-91413536D01*
X237881739Y-90413536D01*
X237884999Y-90399200D01*
X237884332Y-90389819D01*
X238068922Y-90389819D01*
X238068922Y-91389819D01*
X238070363Y-91404451D01*
X238081562Y-91431487D01*
X238102254Y-91452179D01*
X238129290Y-91463378D01*
X238158554Y-91463378D01*
X238185590Y-91452179D01*
X238206282Y-91431487D01*
X238217481Y-91404451D01*
X238218922Y-91389819D01*
X238218922Y-90389819D01*
X238545112Y-90389819D01*
X238545112Y-91389819D01*
X238546553Y-91404451D01*
X238557752Y-91431487D01*
X238578444Y-91452179D01*
X238605480Y-91463378D01*
X238634744Y-91463378D01*
X238661780Y-91452179D01*
X238682472Y-91431487D01*
X238693671Y-91404451D01*
X238695112Y-91389819D01*
X238695112Y-90992313D01*
X238754854Y-90932570D01*
X239131540Y-91434819D01*
X239141472Y-91445660D01*
X239166653Y-91460570D01*
X239195622Y-91464708D01*
X239223970Y-91457446D01*
X239247381Y-91439887D01*
X239262290Y-91414706D01*
X239266429Y-91385738D01*
X239259167Y-91357389D01*
X239251540Y-91344819D01*
X238861997Y-90825427D01*
X238964272Y-90723152D01*
X240259398Y-90723152D01*
X240259398Y-91056485D01*
X240259649Y-91059038D01*
X240259487Y-91060131D01*
X240260296Y-91065604D01*
X240260839Y-91071117D01*
X240261261Y-91072138D01*
X240261637Y-91074675D01*
X240309256Y-91265151D01*
X240314203Y-91278997D01*
X240317522Y-91283476D01*
X240319656Y-91288628D01*
X240328984Y-91299994D01*
X240424222Y-91395233D01*
X240429972Y-91399953D01*
X240431271Y-91401450D01*
X240433525Y-91402869D01*
X240435587Y-91404561D01*
X240437419Y-91405319D01*
X240443714Y-91409282D01*
X240538952Y-91456901D01*
X240552683Y-91462156D01*
X240555372Y-91462347D01*
X240557861Y-91463378D01*
X240572493Y-91464819D01*
X240762969Y-91464819D01*
X240777601Y-91463378D01*
X240780090Y-91462346D01*
X240782778Y-91462156D01*
X240796510Y-91456901D01*
X240891748Y-91409282D01*
X240898047Y-91405317D01*
X240899875Y-91404560D01*
X240901931Y-91402871D01*
X240904191Y-91401450D01*
X240905490Y-91399951D01*
X240911240Y-91395233D01*
X241006479Y-91299993D01*
X241015806Y-91288628D01*
X241017939Y-91283476D01*
X241021259Y-91278997D01*
X241026206Y-91265151D01*
X241073825Y-91074675D01*
X241074200Y-91072138D01*
X241074623Y-91071117D01*
X241075165Y-91065604D01*
X241075975Y-91060131D01*
X241075812Y-91059038D01*
X241076064Y-91056485D01*
X241076064Y-90723152D01*
X241075812Y-90720598D01*
X241075975Y-90719506D01*
X241075165Y-90714032D01*
X241074623Y-90708520D01*
X241074200Y-90707498D01*
X241073825Y-90704962D01*
X241026206Y-90514486D01*
X241021259Y-90500640D01*
X241017940Y-90496161D01*
X241015806Y-90491008D01*
X241006478Y-90479643D01*
X240916654Y-90389819D01*
X241354636Y-90389819D01*
X241354636Y-91199342D01*
X241356077Y-91213974D01*
X241357108Y-91216463D01*
X241357299Y-91219151D01*
X241362554Y-91232883D01*
X241410173Y-91328121D01*
X241414136Y-91334417D01*
X241414894Y-91336247D01*
X241416583Y-91338305D01*
X241418005Y-91340564D01*
X241419503Y-91341863D01*
X241424221Y-91347612D01*
X241471840Y-91395232D01*
X241477589Y-91399950D01*
X241478890Y-91401450D01*
X241481149Y-91402872D01*
X241483206Y-91404560D01*
X241485033Y-91405317D01*
X241491333Y-91409282D01*
X241586571Y-91456901D01*
X241600302Y-91462156D01*
X241602991Y-91462347D01*
X241605480Y-91463378D01*
X241620112Y-91464819D01*
X241810588Y-91464819D01*
X241825220Y-91463378D01*
X241827709Y-91462346D01*
X241830397Y-91462156D01*
X241844129Y-91456901D01*
X241939367Y-91409282D01*
X241945666Y-91405317D01*
X241947494Y-91404560D01*
X241949550Y-91402872D01*
X241951810Y-91401450D01*
X241953110Y-91399950D01*
X241958860Y-91395232D01*
X242006478Y-91347613D01*
X242011196Y-91341863D01*
X242012695Y-91340564D01*
X242014116Y-91338305D01*
X242015806Y-91336247D01*
X242016563Y-91334417D01*
X242020527Y-91328121D01*
X242068146Y-91232883D01*
X242073401Y-91219152D01*
X242073592Y-91216462D01*
X242074623Y-91213974D01*
X242076064Y-91199342D01*
X242076064Y-90389819D01*
X242074623Y-90375187D01*
X242260839Y-90375187D01*
X242260839Y-90404451D01*
X242272038Y-90431487D01*
X242292730Y-90452179D01*
X242319766Y-90463378D01*
X242334398Y-90464819D01*
X242545112Y-90464819D01*
X242545112Y-91389819D01*
X242546553Y-91404451D01*
X242557752Y-91431487D01*
X242578444Y-91452179D01*
X242605480Y-91463378D01*
X242634744Y-91463378D01*
X242661780Y-91452179D01*
X242682472Y-91431487D01*
X242693671Y-91404451D01*
X242695112Y-91389819D01*
X242695112Y-90464819D01*
X242905826Y-90464819D01*
X242920458Y-90463378D01*
X242947494Y-90452179D01*
X242968186Y-90431487D01*
X242979385Y-90404451D01*
X242979385Y-90375187D01*
X242968186Y-90348151D01*
X242947494Y-90327459D01*
X242920458Y-90316260D01*
X242905826Y-90314819D01*
X242334398Y-90314819D01*
X242319766Y-90316260D01*
X242292730Y-90327459D01*
X242272038Y-90348151D01*
X242260839Y-90375187D01*
X242074623Y-90375187D01*
X242063424Y-90348151D01*
X242042732Y-90327459D01*
X242015696Y-90316260D01*
X241986432Y-90316260D01*
X241959396Y-90327459D01*
X241938704Y-90348151D01*
X241927505Y-90375187D01*
X241926064Y-90389819D01*
X241926064Y-91181637D01*
X241891805Y-91250153D01*
X241861398Y-91280561D01*
X241792883Y-91314819D01*
X241637817Y-91314819D01*
X241569301Y-91280561D01*
X241538894Y-91250153D01*
X241504636Y-91181637D01*
X241504636Y-90389819D01*
X241503195Y-90375187D01*
X241491996Y-90348151D01*
X241471304Y-90327459D01*
X241444268Y-90316260D01*
X241415004Y-90316260D01*
X241387968Y-90327459D01*
X241367276Y-90348151D01*
X241356077Y-90375187D01*
X241354636Y-90389819D01*
X240916654Y-90389819D01*
X240911240Y-90384405D01*
X240905490Y-90379686D01*
X240904191Y-90378188D01*
X240901931Y-90376766D01*
X240899875Y-90375078D01*
X240898047Y-90374320D01*
X240891748Y-90370356D01*
X240796510Y-90322737D01*
X240782778Y-90317482D01*
X240780090Y-90317291D01*
X240777601Y-90316260D01*
X240762969Y-90314819D01*
X240572493Y-90314819D01*
X240557861Y-90316260D01*
X240555372Y-90317290D01*
X240552683Y-90317482D01*
X240538952Y-90322737D01*
X240443714Y-90370356D01*
X240437419Y-90374318D01*
X240435587Y-90375077D01*
X240433525Y-90376768D01*
X240431271Y-90378188D01*
X240429972Y-90379684D01*
X240424222Y-90384405D01*
X240328984Y-90479643D01*
X240319657Y-90491008D01*
X240317523Y-90496158D01*
X240314203Y-90500640D01*
X240309256Y-90514486D01*
X240261637Y-90704962D01*
X240261261Y-90707498D01*
X240260839Y-90708520D01*
X240260296Y-90714032D01*
X240259487Y-90719506D01*
X240259649Y-90720598D01*
X240259398Y-90723152D01*
X238964272Y-90723152D01*
X239244573Y-90442852D01*
X239253900Y-90431487D01*
X239265099Y-90404451D01*
X239265099Y-90375188D01*
X239253900Y-90348151D01*
X239233208Y-90327459D01*
X239206171Y-90316260D01*
X239176908Y-90316260D01*
X239149872Y-90327459D01*
X239138507Y-90336786D01*
X238695112Y-90780181D01*
X238695112Y-90389819D01*
X238693671Y-90375187D01*
X238682472Y-90348151D01*
X238661780Y-90327459D01*
X238634744Y-90316260D01*
X238605480Y-90316260D01*
X238578444Y-90327459D01*
X238557752Y-90348151D01*
X238546553Y-90375187D01*
X238545112Y-90389819D01*
X238218922Y-90389819D01*
X238217481Y-90375187D01*
X238206282Y-90348151D01*
X238185590Y-90327459D01*
X238158554Y-90316260D01*
X238129290Y-90316260D01*
X238102254Y-90327459D01*
X238081562Y-90348151D01*
X238070363Y-90375187D01*
X238068922Y-90389819D01*
X237884332Y-90389819D01*
X237882924Y-90370010D01*
X237869838Y-90343836D01*
X237847730Y-90324662D01*
X237819968Y-90315408D01*
X237790778Y-90317483D01*
X237764605Y-90330570D01*
X237745431Y-90352677D01*
X237739437Y-90366102D01*
X237477255Y-91152648D01*
X237215073Y-90366102D01*
X237209079Y-90352676D01*
X237189905Y-90330569D01*
X237163732Y-90317483D01*
X237134542Y-90315408D01*
X237106779Y-90324662D01*
X237084672Y-90343836D01*
X237071586Y-90370009D01*
X237069511Y-90399199D01*
X236958400Y-90399199D01*
X236958400Y-90203708D01*
X243090496Y-90203708D01*
X243090496Y-91575930D01*
G37*
X202761905Y-75475634D02*
X202761905Y-74475634D01*
X202761905Y-74951824D02*
X203333333Y-74951824D01*
X203333333Y-75475634D02*
X203333333Y-74475634D01*
X204333333Y-75475634D02*
X203761905Y-75475634D01*
X204047619Y-75475634D02*
X204047619Y-74475634D01*
X204047619Y-74475634D02*
X203952381Y-74618491D01*
X203952381Y-74618491D02*
X203857143Y-74713729D01*
X203857143Y-74713729D02*
X203761905Y-74761348D01*
X204952381Y-74475634D02*
X205047619Y-74475634D01*
X205047619Y-74475634D02*
X205142857Y-74523253D01*
X205142857Y-74523253D02*
X205190476Y-74570872D01*
X205190476Y-74570872D02*
X205238095Y-74666110D01*
X205238095Y-74666110D02*
X205285714Y-74856586D01*
X205285714Y-74856586D02*
X205285714Y-75094681D01*
X205285714Y-75094681D02*
X205238095Y-75285157D01*
X205238095Y-75285157D02*
X205190476Y-75380395D01*
X205190476Y-75380395D02*
X205142857Y-75428015D01*
X205142857Y-75428015D02*
X205047619Y-75475634D01*
X205047619Y-75475634D02*
X204952381Y-75475634D01*
X204952381Y-75475634D02*
X204857143Y-75428015D01*
X204857143Y-75428015D02*
X204809524Y-75380395D01*
X204809524Y-75380395D02*
X204761905Y-75285157D01*
X204761905Y-75285157D02*
X204714286Y-75094681D01*
X204714286Y-75094681D02*
X204714286Y-74856586D01*
X204714286Y-74856586D02*
X204761905Y-74666110D01*
X204761905Y-74666110D02*
X204809524Y-74570872D01*
X204809524Y-74570872D02*
X204857143Y-74523253D01*
X204857143Y-74523253D02*
X204952381Y-74475634D01*
X217554819Y-43997618D02*
X218364342Y-43997618D01*
X218364342Y-43997618D02*
X218459580Y-43949999D01*
X218459580Y-43949999D02*
X218507200Y-43902380D01*
X218507200Y-43902380D02*
X218554819Y-43807142D01*
X218554819Y-43807142D02*
X218554819Y-43616666D01*
X218554819Y-43616666D02*
X218507200Y-43521428D01*
X218507200Y-43521428D02*
X218459580Y-43473809D01*
X218459580Y-43473809D02*
X218364342Y-43426190D01*
X218364342Y-43426190D02*
X217554819Y-43426190D01*
X218650057Y-43188095D02*
X218650057Y-42426190D01*
X218459580Y-41616666D02*
X218507200Y-41664285D01*
X218507200Y-41664285D02*
X218554819Y-41807142D01*
X218554819Y-41807142D02*
X218554819Y-41902380D01*
X218554819Y-41902380D02*
X218507200Y-42045237D01*
X218507200Y-42045237D02*
X218411961Y-42140475D01*
X218411961Y-42140475D02*
X218316723Y-42188094D01*
X218316723Y-42188094D02*
X218126247Y-42235713D01*
X218126247Y-42235713D02*
X217983390Y-42235713D01*
X217983390Y-42235713D02*
X217792914Y-42188094D01*
X217792914Y-42188094D02*
X217697676Y-42140475D01*
X217697676Y-42140475D02*
X217602438Y-42045237D01*
X217602438Y-42045237D02*
X217554819Y-41902380D01*
X217554819Y-41902380D02*
X217554819Y-41807142D01*
X217554819Y-41807142D02*
X217602438Y-41664285D01*
X217602438Y-41664285D02*
X217650057Y-41616666D01*
X218554819Y-41188094D02*
X217554819Y-41188094D01*
X218031009Y-41188094D02*
X218031009Y-40616666D01*
X218554819Y-40616666D02*
X217554819Y-40616666D01*
X217602438Y-39616666D02*
X217554819Y-39711904D01*
X217554819Y-39711904D02*
X217554819Y-39854761D01*
X217554819Y-39854761D02*
X217602438Y-39997618D01*
X217602438Y-39997618D02*
X217697676Y-40092856D01*
X217697676Y-40092856D02*
X217792914Y-40140475D01*
X217792914Y-40140475D02*
X217983390Y-40188094D01*
X217983390Y-40188094D02*
X218126247Y-40188094D01*
X218126247Y-40188094D02*
X218316723Y-40140475D01*
X218316723Y-40140475D02*
X218411961Y-40092856D01*
X218411961Y-40092856D02*
X218507200Y-39997618D01*
X218507200Y-39997618D02*
X218554819Y-39854761D01*
X218554819Y-39854761D02*
X218554819Y-39759523D01*
X218554819Y-39759523D02*
X218507200Y-39616666D01*
X218507200Y-39616666D02*
X218459580Y-39569047D01*
X218459580Y-39569047D02*
X218126247Y-39569047D01*
X218126247Y-39569047D02*
X218126247Y-39759523D01*
X218650057Y-39378571D02*
X218650057Y-38616666D01*
X218554819Y-37854761D02*
X218554819Y-38426189D01*
X218554819Y-38140475D02*
X217554819Y-38140475D01*
X217554819Y-38140475D02*
X217697676Y-38235713D01*
X217697676Y-38235713D02*
X217792914Y-38330951D01*
X217792914Y-38330951D02*
X217840533Y-38426189D01*
X222671820Y-131329175D02*
X222671820Y-130329175D01*
X222671820Y-130805365D02*
X223243248Y-130805365D01*
X223243248Y-131329175D02*
X223243248Y-130329175D01*
X224243248Y-131329175D02*
X223671820Y-131329175D01*
X223957534Y-131329175D02*
X223957534Y-130329175D01*
X223957534Y-130329175D02*
X223862296Y-130472032D01*
X223862296Y-130472032D02*
X223767058Y-130567270D01*
X223767058Y-130567270D02*
X223671820Y-130614889D01*
X224624201Y-130424413D02*
X224671820Y-130376794D01*
X224671820Y-130376794D02*
X224767058Y-130329175D01*
X224767058Y-130329175D02*
X225005153Y-130329175D01*
X225005153Y-130329175D02*
X225100391Y-130376794D01*
X225100391Y-130376794D02*
X225148010Y-130424413D01*
X225148010Y-130424413D02*
X225195629Y-130519651D01*
X225195629Y-130519651D02*
X225195629Y-130614889D01*
X225195629Y-130614889D02*
X225148010Y-130757746D01*
X225148010Y-130757746D02*
X224576582Y-131329175D01*
X224576582Y-131329175D02*
X225195629Y-131329175D01*
X195238095Y-75475634D02*
X195238095Y-74475634D01*
X195238095Y-74951824D02*
X195809523Y-74951824D01*
X195809523Y-75475634D02*
X195809523Y-74475634D01*
X196714285Y-74808967D02*
X196714285Y-75475634D01*
X196476190Y-74428015D02*
X196238095Y-75142300D01*
X196238095Y-75142300D02*
X196857142Y-75142300D01*
X234305826Y-61450414D02*
X234770112Y-61450414D01*
X234770112Y-61450414D02*
X234520112Y-61736128D01*
X234520112Y-61736128D02*
X234627255Y-61736128D01*
X234627255Y-61736128D02*
X234698684Y-61771842D01*
X234698684Y-61771842D02*
X234734398Y-61807557D01*
X234734398Y-61807557D02*
X234770112Y-61878985D01*
X234770112Y-61878985D02*
X234770112Y-62057557D01*
X234770112Y-62057557D02*
X234734398Y-62128985D01*
X234734398Y-62128985D02*
X234698684Y-62164700D01*
X234698684Y-62164700D02*
X234627255Y-62200414D01*
X234627255Y-62200414D02*
X234412969Y-62200414D01*
X234412969Y-62200414D02*
X234341541Y-62164700D01*
X234341541Y-62164700D02*
X234305826Y-62128985D01*
X235020112Y-61700414D02*
X235198684Y-62200414D01*
X235198684Y-62200414D02*
X235377255Y-61700414D01*
X235591541Y-61450414D02*
X236055827Y-61450414D01*
X236055827Y-61450414D02*
X235805827Y-61736128D01*
X235805827Y-61736128D02*
X235912970Y-61736128D01*
X235912970Y-61736128D02*
X235984399Y-61771842D01*
X235984399Y-61771842D02*
X236020113Y-61807557D01*
X236020113Y-61807557D02*
X236055827Y-61878985D01*
X236055827Y-61878985D02*
X236055827Y-62057557D01*
X236055827Y-62057557D02*
X236020113Y-62128985D01*
X236020113Y-62128985D02*
X235984399Y-62164700D01*
X235984399Y-62164700D02*
X235912970Y-62200414D01*
X235912970Y-62200414D02*
X235698684Y-62200414D01*
X235698684Y-62200414D02*
X235627256Y-62164700D01*
X235627256Y-62164700D02*
X235591541Y-62128985D01*
G36*
X240813780Y-60499077D02*
G01*
X240885722Y-60571019D01*
X240926064Y-60732386D01*
X240926064Y-61047251D01*
X240885722Y-61208617D01*
X240813779Y-61280561D01*
X240745264Y-61314819D01*
X240590198Y-61314819D01*
X240521682Y-61280561D01*
X240449739Y-61208617D01*
X240409398Y-61047251D01*
X240409398Y-60732386D01*
X240449739Y-60571019D01*
X240521682Y-60499077D01*
X240590198Y-60464819D01*
X240745264Y-60464819D01*
X240813780Y-60499077D01*
G37*
G36*
X243090496Y-61575930D02*
G01*
X236958400Y-61575930D01*
X236958400Y-60399199D01*
X237069511Y-60399199D01*
X237072771Y-60413536D01*
X237406104Y-61413536D01*
X237412098Y-61426961D01*
X237415608Y-61431008D01*
X237418005Y-61435802D01*
X237425113Y-61441967D01*
X237431272Y-61449068D01*
X237436061Y-61451462D01*
X237440112Y-61454976D01*
X237449037Y-61457950D01*
X237457445Y-61462155D01*
X237462789Y-61462534D01*
X237467875Y-61464230D01*
X237477255Y-61463563D01*
X237486635Y-61464230D01*
X237491720Y-61462534D01*
X237497065Y-61462155D01*
X237505475Y-61457949D01*
X237514397Y-61454976D01*
X237518444Y-61451465D01*
X237523238Y-61449069D01*
X237529401Y-61441963D01*
X237536505Y-61435802D01*
X237538900Y-61431010D01*
X237542412Y-61426962D01*
X237548406Y-61413536D01*
X237881739Y-60413536D01*
X237884999Y-60399200D01*
X237884332Y-60389819D01*
X238068922Y-60389819D01*
X238068922Y-61389819D01*
X238070363Y-61404451D01*
X238081562Y-61431487D01*
X238102254Y-61452179D01*
X238129290Y-61463378D01*
X238158554Y-61463378D01*
X238185590Y-61452179D01*
X238206282Y-61431487D01*
X238217481Y-61404451D01*
X238218922Y-61389819D01*
X238218922Y-60389819D01*
X238545112Y-60389819D01*
X238545112Y-61389819D01*
X238546553Y-61404451D01*
X238557752Y-61431487D01*
X238578444Y-61452179D01*
X238605480Y-61463378D01*
X238634744Y-61463378D01*
X238661780Y-61452179D01*
X238682472Y-61431487D01*
X238693671Y-61404451D01*
X238695112Y-61389819D01*
X238695112Y-60992313D01*
X238754854Y-60932570D01*
X239131540Y-61434819D01*
X239141472Y-61445660D01*
X239166653Y-61460570D01*
X239195622Y-61464708D01*
X239223970Y-61457446D01*
X239247381Y-61439887D01*
X239262290Y-61414706D01*
X239266429Y-61385738D01*
X239259167Y-61357389D01*
X239251540Y-61344819D01*
X238861997Y-60825427D01*
X238964272Y-60723152D01*
X240259398Y-60723152D01*
X240259398Y-61056485D01*
X240259649Y-61059038D01*
X240259487Y-61060131D01*
X240260296Y-61065604D01*
X240260839Y-61071117D01*
X240261261Y-61072138D01*
X240261637Y-61074675D01*
X240309256Y-61265151D01*
X240314203Y-61278997D01*
X240317522Y-61283476D01*
X240319656Y-61288628D01*
X240328984Y-61299994D01*
X240424222Y-61395233D01*
X240429972Y-61399953D01*
X240431271Y-61401450D01*
X240433525Y-61402869D01*
X240435587Y-61404561D01*
X240437419Y-61405319D01*
X240443714Y-61409282D01*
X240538952Y-61456901D01*
X240552683Y-61462156D01*
X240555372Y-61462347D01*
X240557861Y-61463378D01*
X240572493Y-61464819D01*
X240762969Y-61464819D01*
X240777601Y-61463378D01*
X240780090Y-61462346D01*
X240782778Y-61462156D01*
X240796510Y-61456901D01*
X240891748Y-61409282D01*
X240898047Y-61405317D01*
X240899875Y-61404560D01*
X240901931Y-61402871D01*
X240904191Y-61401450D01*
X240905490Y-61399951D01*
X240911240Y-61395233D01*
X241006479Y-61299993D01*
X241015806Y-61288628D01*
X241017939Y-61283476D01*
X241021259Y-61278997D01*
X241026206Y-61265151D01*
X241073825Y-61074675D01*
X241074200Y-61072138D01*
X241074623Y-61071117D01*
X241075165Y-61065604D01*
X241075975Y-61060131D01*
X241075812Y-61059038D01*
X241076064Y-61056485D01*
X241076064Y-60723152D01*
X241075812Y-60720598D01*
X241075975Y-60719506D01*
X241075165Y-60714032D01*
X241074623Y-60708520D01*
X241074200Y-60707498D01*
X241073825Y-60704962D01*
X241026206Y-60514486D01*
X241021259Y-60500640D01*
X241017940Y-60496161D01*
X241015806Y-60491008D01*
X241006478Y-60479643D01*
X240916654Y-60389819D01*
X241354636Y-60389819D01*
X241354636Y-61199342D01*
X241356077Y-61213974D01*
X241357108Y-61216463D01*
X241357299Y-61219151D01*
X241362554Y-61232883D01*
X241410173Y-61328121D01*
X241414136Y-61334417D01*
X241414894Y-61336247D01*
X241416583Y-61338305D01*
X241418005Y-61340564D01*
X241419503Y-61341863D01*
X241424221Y-61347612D01*
X241471840Y-61395232D01*
X241477589Y-61399950D01*
X241478890Y-61401450D01*
X241481149Y-61402872D01*
X241483206Y-61404560D01*
X241485033Y-61405317D01*
X241491333Y-61409282D01*
X241586571Y-61456901D01*
X241600302Y-61462156D01*
X241602991Y-61462347D01*
X241605480Y-61463378D01*
X241620112Y-61464819D01*
X241810588Y-61464819D01*
X241825220Y-61463378D01*
X241827709Y-61462346D01*
X241830397Y-61462156D01*
X241844129Y-61456901D01*
X241939367Y-61409282D01*
X241945666Y-61405317D01*
X241947494Y-61404560D01*
X241949550Y-61402872D01*
X241951810Y-61401450D01*
X241953110Y-61399950D01*
X241958860Y-61395232D01*
X242006478Y-61347613D01*
X242011196Y-61341863D01*
X242012695Y-61340564D01*
X242014116Y-61338305D01*
X242015806Y-61336247D01*
X242016563Y-61334417D01*
X242020527Y-61328121D01*
X242068146Y-61232883D01*
X242073401Y-61219152D01*
X242073592Y-61216462D01*
X242074623Y-61213974D01*
X242076064Y-61199342D01*
X242076064Y-60389819D01*
X242074623Y-60375187D01*
X242260839Y-60375187D01*
X242260839Y-60404451D01*
X242272038Y-60431487D01*
X242292730Y-60452179D01*
X242319766Y-60463378D01*
X242334398Y-60464819D01*
X242545112Y-60464819D01*
X242545112Y-61389819D01*
X242546553Y-61404451D01*
X242557752Y-61431487D01*
X242578444Y-61452179D01*
X242605480Y-61463378D01*
X242634744Y-61463378D01*
X242661780Y-61452179D01*
X242682472Y-61431487D01*
X242693671Y-61404451D01*
X242695112Y-61389819D01*
X242695112Y-60464819D01*
X242905826Y-60464819D01*
X242920458Y-60463378D01*
X242947494Y-60452179D01*
X242968186Y-60431487D01*
X242979385Y-60404451D01*
X242979385Y-60375187D01*
X242968186Y-60348151D01*
X242947494Y-60327459D01*
X242920458Y-60316260D01*
X242905826Y-60314819D01*
X242334398Y-60314819D01*
X242319766Y-60316260D01*
X242292730Y-60327459D01*
X242272038Y-60348151D01*
X242260839Y-60375187D01*
X242074623Y-60375187D01*
X242063424Y-60348151D01*
X242042732Y-60327459D01*
X242015696Y-60316260D01*
X241986432Y-60316260D01*
X241959396Y-60327459D01*
X241938704Y-60348151D01*
X241927505Y-60375187D01*
X241926064Y-60389819D01*
X241926064Y-61181637D01*
X241891805Y-61250153D01*
X241861398Y-61280561D01*
X241792883Y-61314819D01*
X241637817Y-61314819D01*
X241569301Y-61280561D01*
X241538894Y-61250153D01*
X241504636Y-61181637D01*
X241504636Y-60389819D01*
X241503195Y-60375187D01*
X241491996Y-60348151D01*
X241471304Y-60327459D01*
X241444268Y-60316260D01*
X241415004Y-60316260D01*
X241387968Y-60327459D01*
X241367276Y-60348151D01*
X241356077Y-60375187D01*
X241354636Y-60389819D01*
X240916654Y-60389819D01*
X240911240Y-60384405D01*
X240905490Y-60379686D01*
X240904191Y-60378188D01*
X240901931Y-60376766D01*
X240899875Y-60375078D01*
X240898047Y-60374320D01*
X240891748Y-60370356D01*
X240796510Y-60322737D01*
X240782778Y-60317482D01*
X240780090Y-60317291D01*
X240777601Y-60316260D01*
X240762969Y-60314819D01*
X240572493Y-60314819D01*
X240557861Y-60316260D01*
X240555372Y-60317290D01*
X240552683Y-60317482D01*
X240538952Y-60322737D01*
X240443714Y-60370356D01*
X240437419Y-60374318D01*
X240435587Y-60375077D01*
X240433525Y-60376768D01*
X240431271Y-60378188D01*
X240429972Y-60379684D01*
X240424222Y-60384405D01*
X240328984Y-60479643D01*
X240319657Y-60491008D01*
X240317523Y-60496158D01*
X240314203Y-60500640D01*
X240309256Y-60514486D01*
X240261637Y-60704962D01*
X240261261Y-60707498D01*
X240260839Y-60708520D01*
X240260296Y-60714032D01*
X240259487Y-60719506D01*
X240259649Y-60720598D01*
X240259398Y-60723152D01*
X238964272Y-60723152D01*
X239244573Y-60442852D01*
X239253900Y-60431487D01*
X239265099Y-60404451D01*
X239265099Y-60375188D01*
X239253900Y-60348151D01*
X239233208Y-60327459D01*
X239206171Y-60316260D01*
X239176908Y-60316260D01*
X239149872Y-60327459D01*
X239138507Y-60336786D01*
X238695112Y-60780181D01*
X238695112Y-60389819D01*
X238693671Y-60375187D01*
X238682472Y-60348151D01*
X238661780Y-60327459D01*
X238634744Y-60316260D01*
X238605480Y-60316260D01*
X238578444Y-60327459D01*
X238557752Y-60348151D01*
X238546553Y-60375187D01*
X238545112Y-60389819D01*
X238218922Y-60389819D01*
X238217481Y-60375187D01*
X238206282Y-60348151D01*
X238185590Y-60327459D01*
X238158554Y-60316260D01*
X238129290Y-60316260D01*
X238102254Y-60327459D01*
X238081562Y-60348151D01*
X238070363Y-60375187D01*
X238068922Y-60389819D01*
X237884332Y-60389819D01*
X237882924Y-60370010D01*
X237869838Y-60343836D01*
X237847730Y-60324662D01*
X237819968Y-60315408D01*
X237790778Y-60317483D01*
X237764605Y-60330570D01*
X237745431Y-60352677D01*
X237739437Y-60366102D01*
X237477255Y-61152648D01*
X237215073Y-60366102D01*
X237209079Y-60352676D01*
X237189905Y-60330569D01*
X237163732Y-60317483D01*
X237134542Y-60315408D01*
X237106779Y-60324662D01*
X237084672Y-60343836D01*
X237071586Y-60370009D01*
X237069511Y-60399199D01*
X236958400Y-60399199D01*
X236958400Y-60203708D01*
X243090496Y-60203708D01*
X243090496Y-61575930D01*
G37*
X339342563Y-57923901D02*
X339342563Y-56923901D01*
X339342563Y-57400091D02*
X339913991Y-57400091D01*
X339913991Y-57923901D02*
X339913991Y-56923901D01*
X340437801Y-57923901D02*
X340628277Y-57923901D01*
X340628277Y-57923901D02*
X340723515Y-57876282D01*
X340723515Y-57876282D02*
X340771134Y-57828662D01*
X340771134Y-57828662D02*
X340866372Y-57685805D01*
X340866372Y-57685805D02*
X340913991Y-57495329D01*
X340913991Y-57495329D02*
X340913991Y-57114377D01*
X340913991Y-57114377D02*
X340866372Y-57019139D01*
X340866372Y-57019139D02*
X340818753Y-56971520D01*
X340818753Y-56971520D02*
X340723515Y-56923901D01*
X340723515Y-56923901D02*
X340533039Y-56923901D01*
X340533039Y-56923901D02*
X340437801Y-56971520D01*
X340437801Y-56971520D02*
X340390182Y-57019139D01*
X340390182Y-57019139D02*
X340342563Y-57114377D01*
X340342563Y-57114377D02*
X340342563Y-57352472D01*
X340342563Y-57352472D02*
X340390182Y-57447710D01*
X340390182Y-57447710D02*
X340437801Y-57495329D01*
X340437801Y-57495329D02*
X340533039Y-57542948D01*
X340533039Y-57542948D02*
X340723515Y-57542948D01*
X340723515Y-57542948D02*
X340818753Y-57495329D01*
X340818753Y-57495329D02*
X340866372Y-57447710D01*
X340866372Y-57447710D02*
X340913991Y-57352472D01*
X205054819Y-85404762D02*
X205769104Y-85404762D01*
X205769104Y-85404762D02*
X205911961Y-85452381D01*
X205911961Y-85452381D02*
X206007200Y-85547619D01*
X206007200Y-85547619D02*
X206054819Y-85690476D01*
X206054819Y-85690476D02*
X206054819Y-85785714D01*
X206150057Y-85166667D02*
X206150057Y-84404762D01*
X205531009Y-83833333D02*
X205578628Y-83690476D01*
X205578628Y-83690476D02*
X205626247Y-83642857D01*
X205626247Y-83642857D02*
X205721485Y-83595238D01*
X205721485Y-83595238D02*
X205864342Y-83595238D01*
X205864342Y-83595238D02*
X205959580Y-83642857D01*
X205959580Y-83642857D02*
X206007200Y-83690476D01*
X206007200Y-83690476D02*
X206054819Y-83785714D01*
X206054819Y-83785714D02*
X206054819Y-84166666D01*
X206054819Y-84166666D02*
X205054819Y-84166666D01*
X205054819Y-84166666D02*
X205054819Y-83833333D01*
X205054819Y-83833333D02*
X205102438Y-83738095D01*
X205102438Y-83738095D02*
X205150057Y-83690476D01*
X205150057Y-83690476D02*
X205245295Y-83642857D01*
X205245295Y-83642857D02*
X205340533Y-83642857D01*
X205340533Y-83642857D02*
X205435771Y-83690476D01*
X205435771Y-83690476D02*
X205483390Y-83738095D01*
X205483390Y-83738095D02*
X205531009Y-83833333D01*
X205531009Y-83833333D02*
X205531009Y-84166666D01*
X205769104Y-83214285D02*
X205769104Y-82738095D01*
X206054819Y-83309523D02*
X205054819Y-82976190D01*
X205054819Y-82976190D02*
X206054819Y-82642857D01*
X205054819Y-82452380D02*
X205054819Y-81880952D01*
X206054819Y-82166666D02*
X205054819Y-82166666D01*
X206150057Y-81785714D02*
X206150057Y-81023809D01*
X206054819Y-80261904D02*
X206054819Y-80833332D01*
X206054819Y-80547618D02*
X205054819Y-80547618D01*
X205054819Y-80547618D02*
X205197676Y-80642856D01*
X205197676Y-80642856D02*
X205292914Y-80738094D01*
X205292914Y-80738094D02*
X205340533Y-80833332D01*
X103458998Y-95255379D02*
X103458998Y-94255379D01*
X103458998Y-94731569D02*
X104030426Y-94731569D01*
X104030426Y-95255379D02*
X104030426Y-94255379D01*
X104982807Y-94255379D02*
X104506617Y-94255379D01*
X104506617Y-94255379D02*
X104458998Y-94731569D01*
X104458998Y-94731569D02*
X104506617Y-94683950D01*
X104506617Y-94683950D02*
X104601855Y-94636331D01*
X104601855Y-94636331D02*
X104839950Y-94636331D01*
X104839950Y-94636331D02*
X104935188Y-94683950D01*
X104935188Y-94683950D02*
X104982807Y-94731569D01*
X104982807Y-94731569D02*
X105030426Y-94826807D01*
X105030426Y-94826807D02*
X105030426Y-95064902D01*
X105030426Y-95064902D02*
X104982807Y-95160140D01*
X104982807Y-95160140D02*
X104935188Y-95207760D01*
X104935188Y-95207760D02*
X104839950Y-95255379D01*
X104839950Y-95255379D02*
X104601855Y-95255379D01*
X104601855Y-95255379D02*
X104506617Y-95207760D01*
X104506617Y-95207760D02*
X104458998Y-95160140D01*
X234305826Y-46450414D02*
X234770112Y-46450414D01*
X234770112Y-46450414D02*
X234520112Y-46736128D01*
X234520112Y-46736128D02*
X234627255Y-46736128D01*
X234627255Y-46736128D02*
X234698684Y-46771842D01*
X234698684Y-46771842D02*
X234734398Y-46807557D01*
X234734398Y-46807557D02*
X234770112Y-46878985D01*
X234770112Y-46878985D02*
X234770112Y-47057557D01*
X234770112Y-47057557D02*
X234734398Y-47128985D01*
X234734398Y-47128985D02*
X234698684Y-47164700D01*
X234698684Y-47164700D02*
X234627255Y-47200414D01*
X234627255Y-47200414D02*
X234412969Y-47200414D01*
X234412969Y-47200414D02*
X234341541Y-47164700D01*
X234341541Y-47164700D02*
X234305826Y-47128985D01*
X235020112Y-46700414D02*
X235198684Y-47200414D01*
X235198684Y-47200414D02*
X235377255Y-46700414D01*
X235591541Y-46450414D02*
X236055827Y-46450414D01*
X236055827Y-46450414D02*
X235805827Y-46736128D01*
X235805827Y-46736128D02*
X235912970Y-46736128D01*
X235912970Y-46736128D02*
X235984399Y-46771842D01*
X235984399Y-46771842D02*
X236020113Y-46807557D01*
X236020113Y-46807557D02*
X236055827Y-46878985D01*
X236055827Y-46878985D02*
X236055827Y-47057557D01*
X236055827Y-47057557D02*
X236020113Y-47128985D01*
X236020113Y-47128985D02*
X235984399Y-47164700D01*
X235984399Y-47164700D02*
X235912970Y-47200414D01*
X235912970Y-47200414D02*
X235698684Y-47200414D01*
X235698684Y-47200414D02*
X235627256Y-47164700D01*
X235627256Y-47164700D02*
X235591541Y-47128985D01*
G36*
X240813780Y-45499077D02*
G01*
X240885722Y-45571019D01*
X240926064Y-45732386D01*
X240926064Y-46047251D01*
X240885722Y-46208617D01*
X240813779Y-46280561D01*
X240745264Y-46314819D01*
X240590198Y-46314819D01*
X240521682Y-46280561D01*
X240449739Y-46208617D01*
X240409398Y-46047251D01*
X240409398Y-45732386D01*
X240449739Y-45571019D01*
X240521682Y-45499077D01*
X240590198Y-45464819D01*
X240745264Y-45464819D01*
X240813780Y-45499077D01*
G37*
G36*
X243090496Y-46575930D02*
G01*
X236958400Y-46575930D01*
X236958400Y-45399199D01*
X237069511Y-45399199D01*
X237072771Y-45413536D01*
X237406104Y-46413536D01*
X237412098Y-46426961D01*
X237415608Y-46431008D01*
X237418005Y-46435802D01*
X237425113Y-46441967D01*
X237431272Y-46449068D01*
X237436061Y-46451462D01*
X237440112Y-46454976D01*
X237449037Y-46457950D01*
X237457445Y-46462155D01*
X237462789Y-46462534D01*
X237467875Y-46464230D01*
X237477255Y-46463563D01*
X237486635Y-46464230D01*
X237491720Y-46462534D01*
X237497065Y-46462155D01*
X237505475Y-46457949D01*
X237514397Y-46454976D01*
X237518444Y-46451465D01*
X237523238Y-46449069D01*
X237529401Y-46441963D01*
X237536505Y-46435802D01*
X237538900Y-46431010D01*
X237542412Y-46426962D01*
X237548406Y-46413536D01*
X237881739Y-45413536D01*
X237884999Y-45399200D01*
X237884332Y-45389819D01*
X238068922Y-45389819D01*
X238068922Y-46389819D01*
X238070363Y-46404451D01*
X238081562Y-46431487D01*
X238102254Y-46452179D01*
X238129290Y-46463378D01*
X238158554Y-46463378D01*
X238185590Y-46452179D01*
X238206282Y-46431487D01*
X238217481Y-46404451D01*
X238218922Y-46389819D01*
X238218922Y-45389819D01*
X238545112Y-45389819D01*
X238545112Y-46389819D01*
X238546553Y-46404451D01*
X238557752Y-46431487D01*
X238578444Y-46452179D01*
X238605480Y-46463378D01*
X238634744Y-46463378D01*
X238661780Y-46452179D01*
X238682472Y-46431487D01*
X238693671Y-46404451D01*
X238695112Y-46389819D01*
X238695112Y-45992313D01*
X238754854Y-45932570D01*
X239131540Y-46434819D01*
X239141472Y-46445660D01*
X239166653Y-46460570D01*
X239195622Y-46464708D01*
X239223970Y-46457446D01*
X239247381Y-46439887D01*
X239262290Y-46414706D01*
X239266429Y-46385738D01*
X239259167Y-46357389D01*
X239251540Y-46344819D01*
X238861997Y-45825427D01*
X238964272Y-45723152D01*
X240259398Y-45723152D01*
X240259398Y-46056485D01*
X240259649Y-46059038D01*
X240259487Y-46060131D01*
X240260296Y-46065604D01*
X240260839Y-46071117D01*
X240261261Y-46072138D01*
X240261637Y-46074675D01*
X240309256Y-46265151D01*
X240314203Y-46278997D01*
X240317522Y-46283476D01*
X240319656Y-46288628D01*
X240328984Y-46299994D01*
X240424222Y-46395233D01*
X240429972Y-46399953D01*
X240431271Y-46401450D01*
X240433525Y-46402869D01*
X240435587Y-46404561D01*
X240437419Y-46405319D01*
X240443714Y-46409282D01*
X240538952Y-46456901D01*
X240552683Y-46462156D01*
X240555372Y-46462347D01*
X240557861Y-46463378D01*
X240572493Y-46464819D01*
X240762969Y-46464819D01*
X240777601Y-46463378D01*
X240780090Y-46462346D01*
X240782778Y-46462156D01*
X240796510Y-46456901D01*
X240891748Y-46409282D01*
X240898047Y-46405317D01*
X240899875Y-46404560D01*
X240901931Y-46402871D01*
X240904191Y-46401450D01*
X240905490Y-46399951D01*
X240911240Y-46395233D01*
X241006479Y-46299993D01*
X241015806Y-46288628D01*
X241017939Y-46283476D01*
X241021259Y-46278997D01*
X241026206Y-46265151D01*
X241073825Y-46074675D01*
X241074200Y-46072138D01*
X241074623Y-46071117D01*
X241075165Y-46065604D01*
X241075975Y-46060131D01*
X241075812Y-46059038D01*
X241076064Y-46056485D01*
X241076064Y-45723152D01*
X241075812Y-45720598D01*
X241075975Y-45719506D01*
X241075165Y-45714032D01*
X241074623Y-45708520D01*
X241074200Y-45707498D01*
X241073825Y-45704962D01*
X241026206Y-45514486D01*
X241021259Y-45500640D01*
X241017940Y-45496161D01*
X241015806Y-45491008D01*
X241006478Y-45479643D01*
X240916654Y-45389819D01*
X241354636Y-45389819D01*
X241354636Y-46199342D01*
X241356077Y-46213974D01*
X241357108Y-46216463D01*
X241357299Y-46219151D01*
X241362554Y-46232883D01*
X241410173Y-46328121D01*
X241414136Y-46334417D01*
X241414894Y-46336247D01*
X241416583Y-46338305D01*
X241418005Y-46340564D01*
X241419503Y-46341863D01*
X241424221Y-46347612D01*
X241471840Y-46395232D01*
X241477589Y-46399950D01*
X241478890Y-46401450D01*
X241481149Y-46402872D01*
X241483206Y-46404560D01*
X241485033Y-46405317D01*
X241491333Y-46409282D01*
X241586571Y-46456901D01*
X241600302Y-46462156D01*
X241602991Y-46462347D01*
X241605480Y-46463378D01*
X241620112Y-46464819D01*
X241810588Y-46464819D01*
X241825220Y-46463378D01*
X241827709Y-46462346D01*
X241830397Y-46462156D01*
X241844129Y-46456901D01*
X241939367Y-46409282D01*
X241945666Y-46405317D01*
X241947494Y-46404560D01*
X241949550Y-46402872D01*
X241951810Y-46401450D01*
X241953110Y-46399950D01*
X241958860Y-46395232D01*
X242006478Y-46347613D01*
X242011196Y-46341863D01*
X242012695Y-46340564D01*
X242014116Y-46338305D01*
X242015806Y-46336247D01*
X242016563Y-46334417D01*
X242020527Y-46328121D01*
X242068146Y-46232883D01*
X242073401Y-46219152D01*
X242073592Y-46216462D01*
X242074623Y-46213974D01*
X242076064Y-46199342D01*
X242076064Y-45389819D01*
X242074623Y-45375187D01*
X242260839Y-45375187D01*
X242260839Y-45404451D01*
X242272038Y-45431487D01*
X242292730Y-45452179D01*
X242319766Y-45463378D01*
X242334398Y-45464819D01*
X242545112Y-45464819D01*
X242545112Y-46389819D01*
X242546553Y-46404451D01*
X242557752Y-46431487D01*
X242578444Y-46452179D01*
X242605480Y-46463378D01*
X242634744Y-46463378D01*
X242661780Y-46452179D01*
X242682472Y-46431487D01*
X242693671Y-46404451D01*
X242695112Y-46389819D01*
X242695112Y-45464819D01*
X242905826Y-45464819D01*
X242920458Y-45463378D01*
X242947494Y-45452179D01*
X242968186Y-45431487D01*
X242979385Y-45404451D01*
X242979385Y-45375187D01*
X242968186Y-45348151D01*
X242947494Y-45327459D01*
X242920458Y-45316260D01*
X242905826Y-45314819D01*
X242334398Y-45314819D01*
X242319766Y-45316260D01*
X242292730Y-45327459D01*
X242272038Y-45348151D01*
X242260839Y-45375187D01*
X242074623Y-45375187D01*
X242063424Y-45348151D01*
X242042732Y-45327459D01*
X242015696Y-45316260D01*
X241986432Y-45316260D01*
X241959396Y-45327459D01*
X241938704Y-45348151D01*
X241927505Y-45375187D01*
X241926064Y-45389819D01*
X241926064Y-46181637D01*
X241891805Y-46250153D01*
X241861398Y-46280561D01*
X241792883Y-46314819D01*
X241637817Y-46314819D01*
X241569301Y-46280561D01*
X241538894Y-46250153D01*
X241504636Y-46181637D01*
X241504636Y-45389819D01*
X241503195Y-45375187D01*
X241491996Y-45348151D01*
X241471304Y-45327459D01*
X241444268Y-45316260D01*
X241415004Y-45316260D01*
X241387968Y-45327459D01*
X241367276Y-45348151D01*
X241356077Y-45375187D01*
X241354636Y-45389819D01*
X240916654Y-45389819D01*
X240911240Y-45384405D01*
X240905490Y-45379686D01*
X240904191Y-45378188D01*
X240901931Y-45376766D01*
X240899875Y-45375078D01*
X240898047Y-45374320D01*
X240891748Y-45370356D01*
X240796510Y-45322737D01*
X240782778Y-45317482D01*
X240780090Y-45317291D01*
X240777601Y-45316260D01*
X240762969Y-45314819D01*
X240572493Y-45314819D01*
X240557861Y-45316260D01*
X240555372Y-45317290D01*
X240552683Y-45317482D01*
X240538952Y-45322737D01*
X240443714Y-45370356D01*
X240437419Y-45374318D01*
X240435587Y-45375077D01*
X240433525Y-45376768D01*
X240431271Y-45378188D01*
X240429972Y-45379684D01*
X240424222Y-45384405D01*
X240328984Y-45479643D01*
X240319657Y-45491008D01*
X240317523Y-45496158D01*
X240314203Y-45500640D01*
X240309256Y-45514486D01*
X240261637Y-45704962D01*
X240261261Y-45707498D01*
X240260839Y-45708520D01*
X240260296Y-45714032D01*
X240259487Y-45719506D01*
X240259649Y-45720598D01*
X240259398Y-45723152D01*
X238964272Y-45723152D01*
X239244573Y-45442852D01*
X239253900Y-45431487D01*
X239265099Y-45404451D01*
X239265099Y-45375188D01*
X239253900Y-45348151D01*
X239233208Y-45327459D01*
X239206171Y-45316260D01*
X239176908Y-45316260D01*
X239149872Y-45327459D01*
X239138507Y-45336786D01*
X238695112Y-45780181D01*
X238695112Y-45389819D01*
X238693671Y-45375187D01*
X238682472Y-45348151D01*
X238661780Y-45327459D01*
X238634744Y-45316260D01*
X238605480Y-45316260D01*
X238578444Y-45327459D01*
X238557752Y-45348151D01*
X238546553Y-45375187D01*
X238545112Y-45389819D01*
X238218922Y-45389819D01*
X238217481Y-45375187D01*
X238206282Y-45348151D01*
X238185590Y-45327459D01*
X238158554Y-45316260D01*
X238129290Y-45316260D01*
X238102254Y-45327459D01*
X238081562Y-45348151D01*
X238070363Y-45375187D01*
X238068922Y-45389819D01*
X237884332Y-45389819D01*
X237882924Y-45370010D01*
X237869838Y-45343836D01*
X237847730Y-45324662D01*
X237819968Y-45315408D01*
X237790778Y-45317483D01*
X237764605Y-45330570D01*
X237745431Y-45352677D01*
X237739437Y-45366102D01*
X237477255Y-46152648D01*
X237215073Y-45366102D01*
X237209079Y-45352676D01*
X237189905Y-45330569D01*
X237163732Y-45317483D01*
X237134542Y-45315408D01*
X237106779Y-45324662D01*
X237084672Y-45343836D01*
X237071586Y-45370009D01*
X237069511Y-45399199D01*
X236958400Y-45399199D01*
X236958400Y-45203708D01*
X243090496Y-45203708D01*
X243090496Y-46575930D01*
G37*
%TO.C,C2*%
D11*
X238288748Y-40090000D02*
X239711252Y-40090000D01*
X238288748Y-41910000D02*
X239711252Y-41910000D01*
%TO.C,C1*%
X227910000Y-45288748D02*
X227910000Y-46711252D01*
X226090000Y-45288748D02*
X226090000Y-46711252D01*
%TO.C,R_POW_1*%
X220772936Y-36590000D02*
X222227064Y-36590000D01*
X220772936Y-38410000D02*
X222227064Y-38410000D01*
%TO.C,R_MON_2*%
X187772936Y-39590000D02*
X189227064Y-39590000D01*
X187772936Y-41410000D02*
X189227064Y-41410000D01*
%TO.C,R_MON_1*%
X182772936Y-39590000D02*
X184227064Y-39590000D01*
X182772936Y-41410000D02*
X184227064Y-41410000D01*
%TO.C,R_CHG_2*%
X211727064Y-44410000D02*
X210272936Y-44410000D01*
X211727064Y-42590000D02*
X210272936Y-42590000D01*
%TO.C,R_CHG_1*%
X216727064Y-44410000D02*
X215272936Y-44410000D01*
X216727064Y-42590000D02*
X215272936Y-42590000D01*
%TO.C,Q_POW_1*%
X224762500Y-40620000D02*
X225002500Y-40950000D01*
X224522500Y-40950000D01*
X224762500Y-40620000D01*
G36*
X225002500Y-40950000D02*
G01*
X224522500Y-40950000D01*
X224762500Y-40620000D01*
X225002500Y-40950000D01*
G37*
X226822500Y-42560000D02*
X225302500Y-42560000D01*
X226822500Y-41560000D02*
X226822500Y-42560000D01*
X226822500Y-39440000D02*
X226822500Y-40440000D01*
X225302500Y-42560000D02*
X225302500Y-42510000D01*
X225302500Y-41390000D02*
X225302500Y-40610000D01*
X225302500Y-39490000D02*
X225302500Y-39440000D01*
X225302500Y-39440000D02*
X226822500Y-39440000D01*
%TO.C,U_POW_1*%
X176040000Y-40812500D02*
X175710000Y-41052500D01*
X175710000Y-40572500D01*
X176040000Y-40812500D01*
G36*
X176040000Y-40812500D02*
G01*
X175710000Y-41052500D01*
X175710000Y-40572500D01*
X176040000Y-40812500D01*
G37*
X179110000Y-38452500D02*
X179110000Y-40272500D01*
X179060000Y-38452500D02*
X179110000Y-38452500D01*
X177160000Y-38452500D02*
X177940000Y-38452500D01*
X175990000Y-38452500D02*
X176040000Y-38452500D01*
X179110000Y-40272500D02*
X179060000Y-40272500D01*
X176040000Y-40272500D02*
X175990000Y-40272500D01*
X175990000Y-40272500D02*
X175990000Y-38452500D01*
%TO.C,J_VIK_OUT_SENS_1*%
D12*
X156698000Y-62292000D02*
G75*
G02*
X156444000Y-62292000I-127000J0D01*
G01*
X156444000Y-62292000D02*
G75*
G02*
X156698000Y-62292000I127000J0D01*
G01*
X165500000Y-69295000D02*
X165500000Y-66912000D01*
X165500000Y-69295000D02*
X154500000Y-69295000D01*
X165500000Y-64461000D02*
X165500000Y-62800000D01*
X165500000Y-62800000D02*
X163131000Y-62800000D01*
X154500000Y-69295000D02*
X154500000Y-66912000D01*
X154500000Y-64461000D02*
X154500000Y-62800000D01*
X154500000Y-62800000D02*
X156869000Y-62800000D01*
%TO.C,J_VIK_OUT_INTC_1*%
X156698000Y-77292000D02*
G75*
G02*
X156444000Y-77292000I-127000J0D01*
G01*
X156444000Y-77292000D02*
G75*
G02*
X156698000Y-77292000I127000J0D01*
G01*
X165500000Y-84295000D02*
X165500000Y-81912000D01*
X165500000Y-84295000D02*
X154500000Y-84295000D01*
X165500000Y-79461000D02*
X165500000Y-77800000D01*
X165500000Y-77800000D02*
X163131000Y-77800000D01*
X154500000Y-84295000D02*
X154500000Y-81912000D01*
X154500000Y-79461000D02*
X154500000Y-77800000D01*
X154500000Y-77800000D02*
X156869000Y-77800000D01*
%TO.C,J_VIK_OUT_SW_1*%
X156698000Y-92292000D02*
G75*
G02*
X156444000Y-92292000I-127000J0D01*
G01*
X156444000Y-92292000D02*
G75*
G02*
X156698000Y-92292000I127000J0D01*
G01*
X165500000Y-99295000D02*
X165500000Y-96912000D01*
X165500000Y-99295000D02*
X154500000Y-99295000D01*
X165500000Y-94461000D02*
X165500000Y-92800000D01*
X165500000Y-92800000D02*
X163131000Y-92800000D01*
X154500000Y-99295000D02*
X154500000Y-96912000D01*
X154500000Y-94461000D02*
X154500000Y-92800000D01*
X154500000Y-92800000D02*
X156869000Y-92800000D01*
%TO.C,J_VIK_OUT_DISP_1*%
X156698000Y-47292000D02*
G75*
G02*
X156444000Y-47292000I-127000J0D01*
G01*
X156444000Y-47292000D02*
G75*
G02*
X156698000Y-47292000I127000J0D01*
G01*
X165500000Y-54295000D02*
X165500000Y-51912000D01*
X165500000Y-54295000D02*
X154500000Y-54295000D01*
X165500000Y-49461000D02*
X165500000Y-47800000D01*
X165500000Y-47800000D02*
X163131000Y-47800000D01*
X154500000Y-54295000D02*
X154500000Y-51912000D01*
X154500000Y-49461000D02*
X154500000Y-47800000D01*
X154500000Y-47800000D02*
X156869000Y-47800000D01*
%TO.C,J_SWD_1*%
D11*
X191560000Y-78040000D02*
X191560000Y-79840000D01*
X190110000Y-78040000D02*
X191560000Y-78040000D01*
X187290000Y-79310000D02*
X187290000Y-85240000D01*
X191560000Y-79840000D02*
X192550000Y-79840000D01*
X191560000Y-86510000D02*
X191560000Y-84710000D01*
X190110000Y-86510000D02*
X191560000Y-86510000D01*
%TO.C,JP_CHG_1*%
X218275000Y-39675000D02*
X218275000Y-40275000D01*
X217575000Y-40975000D02*
X216175000Y-40975000D01*
X216175000Y-38975000D02*
X217575000Y-38975000D01*
X215475000Y-40275000D02*
X215475000Y-39675000D01*
X218275000Y-40275000D02*
G75*
G02*
X217575000Y-40975000I-699999J-1D01*
G01*
X217575000Y-38975000D02*
G75*
G02*
X218275000Y-39675000I1J-699999D01*
G01*
X216175000Y-40975000D02*
G75*
G02*
X215475000Y-40275000I0J700000D01*
G01*
X215475000Y-39675000D02*
G75*
G02*
X216175000Y-38975000I700000J0D01*
G01*
%TO.C,J_VIK_IN_INTC_1*%
D12*
X245500000Y-82200000D02*
X243131000Y-82200000D01*
X245500000Y-80539000D02*
X245500000Y-82200000D01*
X245500000Y-75705000D02*
X245500000Y-78088000D01*
X234500000Y-82200000D02*
X236869000Y-82200000D01*
X234500000Y-80539000D02*
X234500000Y-82200000D01*
X234500000Y-75705000D02*
X245500000Y-75705000D01*
X234500000Y-75705000D02*
X234500000Y-78088000D01*
X243556000Y-82708000D02*
G75*
G02*
X243302000Y-82708000I-127000J0D01*
G01*
X243302000Y-82708000D02*
G75*
G02*
X243556000Y-82708000I127000J0D01*
G01*
%TO.C,U_MCU_1*%
D10*
X104823649Y-18612479D02*
X118623649Y-18612479D01*
X104823649Y-21412479D02*
X104823649Y-18612479D01*
X104823649Y-35912479D02*
X104823649Y-36912479D01*
X104823649Y-36912479D02*
X105573649Y-36912479D01*
X117873649Y-36912479D02*
X118623649Y-36912479D01*
X118623649Y-18612479D02*
X118623649Y-21412479D01*
X118623649Y-35912479D02*
X118623649Y-36912479D01*
D11*
X105723649Y-21462479D02*
X117723649Y-21462479D01*
X117723649Y-36012479D01*
X105723649Y-36012479D01*
X105723649Y-21462479D01*
G36*
X105723649Y-21462479D02*
G01*
X117723649Y-21462479D01*
X117723649Y-36012479D01*
X105723649Y-36012479D01*
X105723649Y-21462479D01*
G37*
%TO.C,D_POW_1*%
X227610000Y-38850000D02*
X227610000Y-37150000D01*
X227610000Y-38850000D02*
X224950000Y-38850000D01*
X227610000Y-37150000D02*
X224950000Y-37150000D01*
%TO.C,J_VIK_OUT_SW_2*%
D12*
X234500000Y-92800000D02*
X236869000Y-92800000D01*
X234500000Y-94461000D02*
X234500000Y-92800000D01*
X234500000Y-99295000D02*
X234500000Y-96912000D01*
X245500000Y-92800000D02*
X243131000Y-92800000D01*
X245500000Y-94461000D02*
X245500000Y-92800000D01*
X245500000Y-99295000D02*
X234500000Y-99295000D01*
X245500000Y-99295000D02*
X245500000Y-96912000D01*
X236698000Y-92292000D02*
G75*
G02*
X236444000Y-92292000I-127000J0D01*
G01*
X236444000Y-92292000D02*
G75*
G02*
X236698000Y-92292000I127000J0D01*
G01*
%TO.C,U_CHG_1*%
D11*
X218940000Y-41860000D02*
X218940000Y-40040000D01*
X218990000Y-41860000D02*
X218940000Y-41860000D01*
X222060000Y-41860000D02*
X222010000Y-41860000D01*
X218940000Y-40040000D02*
X218990000Y-40040000D01*
X220110000Y-40040000D02*
X220890000Y-40040000D01*
X222010000Y-40040000D02*
X222060000Y-40040000D01*
X222060000Y-40040000D02*
X222060000Y-41860000D01*
X218990000Y-42400000D02*
X218660000Y-42640000D01*
X218660000Y-42160000D01*
X218990000Y-42400000D01*
G36*
X218990000Y-42400000D02*
G01*
X218660000Y-42640000D01*
X218660000Y-42160000D01*
X218990000Y-42400000D01*
G37*
%TO.C,J_VIK_OUT_SENS_2*%
D12*
X234500000Y-62800000D02*
X236869000Y-62800000D01*
X234500000Y-64461000D02*
X234500000Y-62800000D01*
X234500000Y-69295000D02*
X234500000Y-66912000D01*
X245500000Y-62800000D02*
X243131000Y-62800000D01*
X245500000Y-64461000D02*
X245500000Y-62800000D01*
X245500000Y-69295000D02*
X234500000Y-69295000D01*
X245500000Y-69295000D02*
X245500000Y-66912000D01*
X236698000Y-62292000D02*
G75*
G02*
X236444000Y-62292000I-127000J0D01*
G01*
X236444000Y-62292000D02*
G75*
G02*
X236698000Y-62292000I127000J0D01*
G01*
%TO.C,J_BAT_1*%
D11*
X207790000Y-85985000D02*
X207790000Y-84185000D01*
X209240000Y-85985000D02*
X207790000Y-85985000D01*
X212060000Y-84715000D02*
X212060000Y-81285000D01*
X207790000Y-84185000D02*
X206800000Y-84185000D01*
X207790000Y-80015000D02*
X207790000Y-81815000D01*
X209240000Y-80015000D02*
X207790000Y-80015000D01*
%TO.C,J_VIK_OUT_DISP_2*%
D12*
X234500000Y-47800000D02*
X236869000Y-47800000D01*
X234500000Y-49461000D02*
X234500000Y-47800000D01*
X234500000Y-54295000D02*
X234500000Y-51912000D01*
X245500000Y-47800000D02*
X243131000Y-47800000D01*
X245500000Y-49461000D02*
X245500000Y-47800000D01*
X245500000Y-54295000D02*
X234500000Y-54295000D01*
X245500000Y-54295000D02*
X245500000Y-51912000D01*
X236698000Y-47292000D02*
G75*
G02*
X236444000Y-47292000I-127000J0D01*
G01*
X236444000Y-47292000D02*
G75*
G02*
X236698000Y-47292000I127000J0D01*
G01*
%TD*%
M02*
