%TF.GenerationSoftware,KiCad,Pcbnew,10.0.4-10.0.4~ubuntu26.04.1*%
%TF.CreationDate,2026-07-08T23:09:37-05:00*%
%TF.ProjectId,bottom_plate,626f7474-6f6d-45f7-906c-6174652e6b69,rev?*%
%TF.SameCoordinates,Original*%
%TF.FileFunction,Legend,Top*%
%TF.FilePolarity,Positive*%
%FSLAX46Y46*%
G04 Gerber Fmt 4.6, Leading zero omitted, Abs format (unit mm)*
G04 Created by KiCad (PCBNEW 10.0.4-10.0.4~ubuntu26.04.1) date 2026-07-08 23:09:37*
%MOMM*%
%LPD*%
G01*
G04 APERTURE LIST*
%ADD10C,0.150000*%
%ADD11C,0.120000*%
%ADD12C,0.254000*%
G04 APERTURE END LIST*
D10*
X222671820Y-131329175D02*
X222671820Y-130329175D01*
X222671820Y-130805365D02*
X223243248Y-130805365D01*
X223243248Y-131329175D02*
X223243248Y-130329175D01*
X224243248Y-131329175D02*
X223671820Y-131329175D01*
X223957534Y-131329175D02*
X223957534Y-130329175D01*
X223957534Y-130329175D02*
X223862296Y-130472032D01*
X223862296Y-130472032D02*
X223767058Y-130567270D01*
X223767058Y-130567270D02*
X223671820Y-130614889D01*
X224624201Y-130424413D02*
X224671820Y-130376794D01*
X224671820Y-130376794D02*
X224767058Y-130329175D01*
X224767058Y-130329175D02*
X225005153Y-130329175D01*
X225005153Y-130329175D02*
X225100391Y-130376794D01*
X225100391Y-130376794D02*
X225148010Y-130424413D01*
X225148010Y-130424413D02*
X225195629Y-130519651D01*
X225195629Y-130519651D02*
X225195629Y-130614889D01*
X225195629Y-130614889D02*
X225148010Y-130757746D01*
X225148010Y-130757746D02*
X224576582Y-131329175D01*
X224576582Y-131329175D02*
X225195629Y-131329175D01*
X294541002Y-95255379D02*
X294541002Y-94255379D01*
X294541002Y-94731569D02*
X295112430Y-94731569D01*
X295112430Y-95255379D02*
X295112430Y-94255379D01*
X296112430Y-95255379D02*
X295541002Y-95255379D01*
X295826716Y-95255379D02*
X295826716Y-94255379D01*
X295826716Y-94255379D02*
X295731478Y-94398236D01*
X295731478Y-94398236D02*
X295636240Y-94493474D01*
X295636240Y-94493474D02*
X295541002Y-94541093D01*
X297064811Y-95255379D02*
X296493383Y-95255379D01*
X296779097Y-95255379D02*
X296779097Y-94255379D01*
X296779097Y-94255379D02*
X296683859Y-94398236D01*
X296683859Y-94398236D02*
X296588621Y-94493474D01*
X296588621Y-94493474D02*
X296493383Y-94541093D01*
X202761905Y-75475634D02*
X202761905Y-74475634D01*
X202761905Y-74951824D02*
X203333333Y-74951824D01*
X203333333Y-75475634D02*
X203333333Y-74475634D01*
X204333333Y-75475634D02*
X203761905Y-75475634D01*
X204047619Y-75475634D02*
X204047619Y-74475634D01*
X204047619Y-74475634D02*
X203952381Y-74618491D01*
X203952381Y-74618491D02*
X203857143Y-74713729D01*
X203857143Y-74713729D02*
X203761905Y-74761348D01*
X204952381Y-74475634D02*
X205047619Y-74475634D01*
X205047619Y-74475634D02*
X205142857Y-74523253D01*
X205142857Y-74523253D02*
X205190476Y-74570872D01*
X205190476Y-74570872D02*
X205238095Y-74666110D01*
X205238095Y-74666110D02*
X205285714Y-74856586D01*
X205285714Y-74856586D02*
X205285714Y-75094681D01*
X205285714Y-75094681D02*
X205238095Y-75285157D01*
X205238095Y-75285157D02*
X205190476Y-75380395D01*
X205190476Y-75380395D02*
X205142857Y-75428015D01*
X205142857Y-75428015D02*
X205047619Y-75475634D01*
X205047619Y-75475634D02*
X204952381Y-75475634D01*
X204952381Y-75475634D02*
X204857143Y-75428015D01*
X204857143Y-75428015D02*
X204809524Y-75380395D01*
X204809524Y-75380395D02*
X204761905Y-75285157D01*
X204761905Y-75285157D02*
X204714286Y-75094681D01*
X204714286Y-75094681D02*
X204714286Y-74856586D01*
X204714286Y-74856586D02*
X204761905Y-74666110D01*
X204761905Y-74666110D02*
X204809524Y-74570872D01*
X204809524Y-74570872D02*
X204857143Y-74523253D01*
X204857143Y-74523253D02*
X204952381Y-74475634D01*
X339342563Y-57923901D02*
X339342563Y-56923901D01*
X339342563Y-57400091D02*
X339913991Y-57400091D01*
X339913991Y-57923901D02*
X339913991Y-56923901D01*
X340437801Y-57923901D02*
X340628277Y-57923901D01*
X340628277Y-57923901D02*
X340723515Y-57876282D01*
X340723515Y-57876282D02*
X340771134Y-57828662D01*
X340771134Y-57828662D02*
X340866372Y-57685805D01*
X340866372Y-57685805D02*
X340913991Y-57495329D01*
X340913991Y-57495329D02*
X340913991Y-57114377D01*
X340913991Y-57114377D02*
X340866372Y-57019139D01*
X340866372Y-57019139D02*
X340818753Y-56971520D01*
X340818753Y-56971520D02*
X340723515Y-56923901D01*
X340723515Y-56923901D02*
X340533039Y-56923901D01*
X340533039Y-56923901D02*
X340437801Y-56971520D01*
X340437801Y-56971520D02*
X340390182Y-57019139D01*
X340390182Y-57019139D02*
X340342563Y-57114377D01*
X340342563Y-57114377D02*
X340342563Y-57352472D01*
X340342563Y-57352472D02*
X340390182Y-57447710D01*
X340390182Y-57447710D02*
X340437801Y-57495329D01*
X340437801Y-57495329D02*
X340533039Y-57542948D01*
X340533039Y-57542948D02*
X340723515Y-57542948D01*
X340723515Y-57542948D02*
X340818753Y-57495329D01*
X340818753Y-57495329D02*
X340866372Y-57447710D01*
X340866372Y-57447710D02*
X340913991Y-57352472D01*
X238238095Y-35954819D02*
X238238095Y-34954819D01*
X238238095Y-35431009D02*
X238809523Y-35431009D01*
X238809523Y-35954819D02*
X238809523Y-34954819D01*
X239428571Y-35383390D02*
X239333333Y-35335771D01*
X239333333Y-35335771D02*
X239285714Y-35288152D01*
X239285714Y-35288152D02*
X239238095Y-35192914D01*
X239238095Y-35192914D02*
X239238095Y-35145295D01*
X239238095Y-35145295D02*
X239285714Y-35050057D01*
X239285714Y-35050057D02*
X239333333Y-35002438D01*
X239333333Y-35002438D02*
X239428571Y-34954819D01*
X239428571Y-34954819D02*
X239619047Y-34954819D01*
X239619047Y-34954819D02*
X239714285Y-35002438D01*
X239714285Y-35002438D02*
X239761904Y-35050057D01*
X239761904Y-35050057D02*
X239809523Y-35145295D01*
X239809523Y-35145295D02*
X239809523Y-35192914D01*
X239809523Y-35192914D02*
X239761904Y-35288152D01*
X239761904Y-35288152D02*
X239714285Y-35335771D01*
X239714285Y-35335771D02*
X239619047Y-35383390D01*
X239619047Y-35383390D02*
X239428571Y-35383390D01*
X239428571Y-35383390D02*
X239333333Y-35431009D01*
X239333333Y-35431009D02*
X239285714Y-35478628D01*
X239285714Y-35478628D02*
X239238095Y-35573866D01*
X239238095Y-35573866D02*
X239238095Y-35764342D01*
X239238095Y-35764342D02*
X239285714Y-35859580D01*
X239285714Y-35859580D02*
X239333333Y-35907200D01*
X239333333Y-35907200D02*
X239428571Y-35954819D01*
X239428571Y-35954819D02*
X239619047Y-35954819D01*
X239619047Y-35954819D02*
X239714285Y-35907200D01*
X239714285Y-35907200D02*
X239761904Y-35859580D01*
X239761904Y-35859580D02*
X239809523Y-35764342D01*
X239809523Y-35764342D02*
X239809523Y-35573866D01*
X239809523Y-35573866D02*
X239761904Y-35478628D01*
X239761904Y-35478628D02*
X239714285Y-35431009D01*
X239714285Y-35431009D02*
X239619047Y-35383390D01*
X297738095Y-18454819D02*
X297738095Y-17454819D01*
X297738095Y-17931009D02*
X298309523Y-17931009D01*
X298309523Y-18454819D02*
X298309523Y-17454819D01*
X298690476Y-17454819D02*
X299357142Y-17454819D01*
X299357142Y-17454819D02*
X298928571Y-18454819D01*
X175328180Y-131329175D02*
X175328180Y-130329175D01*
X175328180Y-130805365D02*
X175899608Y-130805365D01*
X175899608Y-131329175D02*
X175899608Y-130329175D01*
X176804370Y-130329175D02*
X176613894Y-130329175D01*
X176613894Y-130329175D02*
X176518656Y-130376794D01*
X176518656Y-130376794D02*
X176471037Y-130424413D01*
X176471037Y-130424413D02*
X176375799Y-130567270D01*
X176375799Y-130567270D02*
X176328180Y-130757746D01*
X176328180Y-130757746D02*
X176328180Y-131138698D01*
X176328180Y-131138698D02*
X176375799Y-131233936D01*
X176375799Y-131233936D02*
X176423418Y-131281556D01*
X176423418Y-131281556D02*
X176518656Y-131329175D01*
X176518656Y-131329175D02*
X176709132Y-131329175D01*
X176709132Y-131329175D02*
X176804370Y-131281556D01*
X176804370Y-131281556D02*
X176851989Y-131233936D01*
X176851989Y-131233936D02*
X176899608Y-131138698D01*
X176899608Y-131138698D02*
X176899608Y-130900603D01*
X176899608Y-130900603D02*
X176851989Y-130805365D01*
X176851989Y-130805365D02*
X176804370Y-130757746D01*
X176804370Y-130757746D02*
X176709132Y-130710127D01*
X176709132Y-130710127D02*
X176518656Y-130710127D01*
X176518656Y-130710127D02*
X176423418Y-130757746D01*
X176423418Y-130757746D02*
X176375799Y-130805365D01*
X176375799Y-130805365D02*
X176328180Y-130900603D01*
X103458998Y-95255379D02*
X103458998Y-94255379D01*
X103458998Y-94731569D02*
X104030426Y-94731569D01*
X104030426Y-95255379D02*
X104030426Y-94255379D01*
X104982807Y-94255379D02*
X104506617Y-94255379D01*
X104506617Y-94255379D02*
X104458998Y-94731569D01*
X104458998Y-94731569D02*
X104506617Y-94683950D01*
X104506617Y-94683950D02*
X104601855Y-94636331D01*
X104601855Y-94636331D02*
X104839950Y-94636331D01*
X104839950Y-94636331D02*
X104935188Y-94683950D01*
X104935188Y-94683950D02*
X104982807Y-94731569D01*
X104982807Y-94731569D02*
X105030426Y-94826807D01*
X105030426Y-94826807D02*
X105030426Y-95064902D01*
X105030426Y-95064902D02*
X104982807Y-95160140D01*
X104982807Y-95160140D02*
X104935188Y-95207760D01*
X104935188Y-95207760D02*
X104839950Y-95255379D01*
X104839950Y-95255379D02*
X104601855Y-95255379D01*
X104601855Y-95255379D02*
X104506617Y-95207760D01*
X104506617Y-95207760D02*
X104458998Y-95160140D01*
X195238095Y-75475634D02*
X195238095Y-74475634D01*
X195238095Y-74951824D02*
X195809523Y-74951824D01*
X195809523Y-75475634D02*
X195809523Y-74475634D01*
X196714285Y-74808967D02*
X196714285Y-75475634D01*
X196476190Y-74428015D02*
X196238095Y-75142300D01*
X196238095Y-75142300D02*
X196857142Y-75142300D01*
X59133627Y-57923901D02*
X59133627Y-56923901D01*
X59133627Y-57400091D02*
X59705055Y-57400091D01*
X59705055Y-57923901D02*
X59705055Y-56923901D01*
X60086008Y-56923901D02*
X60705055Y-56923901D01*
X60705055Y-56923901D02*
X60371722Y-57304853D01*
X60371722Y-57304853D02*
X60514579Y-57304853D01*
X60514579Y-57304853D02*
X60609817Y-57352472D01*
X60609817Y-57352472D02*
X60657436Y-57400091D01*
X60657436Y-57400091D02*
X60705055Y-57495329D01*
X60705055Y-57495329D02*
X60705055Y-57733424D01*
X60705055Y-57733424D02*
X60657436Y-57828662D01*
X60657436Y-57828662D02*
X60609817Y-57876282D01*
X60609817Y-57876282D02*
X60514579Y-57923901D01*
X60514579Y-57923901D02*
X60228865Y-57923901D01*
X60228865Y-57923901D02*
X60133627Y-57876282D01*
X60133627Y-57876282D02*
X60086008Y-57828662D01*
X160238095Y-35954819D02*
X160238095Y-34954819D01*
X160238095Y-35431009D02*
X160809523Y-35431009D01*
X160809523Y-35954819D02*
X160809523Y-34954819D01*
X161238095Y-35050057D02*
X161285714Y-35002438D01*
X161285714Y-35002438D02*
X161380952Y-34954819D01*
X161380952Y-34954819D02*
X161619047Y-34954819D01*
X161619047Y-34954819D02*
X161714285Y-35002438D01*
X161714285Y-35002438D02*
X161761904Y-35050057D01*
X161761904Y-35050057D02*
X161809523Y-35145295D01*
X161809523Y-35145295D02*
X161809523Y-35240533D01*
X161809523Y-35240533D02*
X161761904Y-35383390D01*
X161761904Y-35383390D02*
X161190476Y-35954819D01*
X161190476Y-35954819D02*
X161809523Y-35954819D01*
X101238095Y-18454819D02*
X101238095Y-17454819D01*
X101238095Y-17931009D02*
X101809523Y-17931009D01*
X101809523Y-18454819D02*
X101809523Y-17454819D01*
X102809523Y-18454819D02*
X102238095Y-18454819D01*
X102523809Y-18454819D02*
X102523809Y-17454819D01*
X102523809Y-17454819D02*
X102428571Y-17597676D01*
X102428571Y-17597676D02*
X102333333Y-17692914D01*
X102333333Y-17692914D02*
X102238095Y-17740533D01*
X74124819Y-35547619D02*
X73648628Y-35880952D01*
X74124819Y-36119047D02*
X73124819Y-36119047D01*
X73124819Y-36119047D02*
X73124819Y-35738095D01*
X73124819Y-35738095D02*
X73172438Y-35642857D01*
X73172438Y-35642857D02*
X73220057Y-35595238D01*
X73220057Y-35595238D02*
X73315295Y-35547619D01*
X73315295Y-35547619D02*
X73458152Y-35547619D01*
X73458152Y-35547619D02*
X73553390Y-35595238D01*
X73553390Y-35595238D02*
X73601009Y-35642857D01*
X73601009Y-35642857D02*
X73648628Y-35738095D01*
X73648628Y-35738095D02*
X73648628Y-36119047D01*
X74220057Y-35357143D02*
X74220057Y-34595238D01*
X74124819Y-34357142D02*
X73124819Y-34357142D01*
X73124819Y-34357142D02*
X73839104Y-34023809D01*
X73839104Y-34023809D02*
X73124819Y-33690476D01*
X73124819Y-33690476D02*
X74124819Y-33690476D01*
X73124819Y-33023809D02*
X73124819Y-32833333D01*
X73124819Y-32833333D02*
X73172438Y-32738095D01*
X73172438Y-32738095D02*
X73267676Y-32642857D01*
X73267676Y-32642857D02*
X73458152Y-32595238D01*
X73458152Y-32595238D02*
X73791485Y-32595238D01*
X73791485Y-32595238D02*
X73981961Y-32642857D01*
X73981961Y-32642857D02*
X74077200Y-32738095D01*
X74077200Y-32738095D02*
X74124819Y-32833333D01*
X74124819Y-32833333D02*
X74124819Y-33023809D01*
X74124819Y-33023809D02*
X74077200Y-33119047D01*
X74077200Y-33119047D02*
X73981961Y-33214285D01*
X73981961Y-33214285D02*
X73791485Y-33261904D01*
X73791485Y-33261904D02*
X73458152Y-33261904D01*
X73458152Y-33261904D02*
X73267676Y-33214285D01*
X73267676Y-33214285D02*
X73172438Y-33119047D01*
X73172438Y-33119047D02*
X73124819Y-33023809D01*
X74124819Y-32166666D02*
X73124819Y-32166666D01*
X73124819Y-32166666D02*
X74124819Y-31595238D01*
X74124819Y-31595238D02*
X73124819Y-31595238D01*
X74220057Y-31357143D02*
X74220057Y-30595238D01*
X74124819Y-29833333D02*
X74124819Y-30404761D01*
X74124819Y-30119047D02*
X73124819Y-30119047D01*
X73124819Y-30119047D02*
X73267676Y-30214285D01*
X73267676Y-30214285D02*
X73362914Y-30309523D01*
X73362914Y-30309523D02*
X73410533Y-30404761D01*
X244047618Y-85050057D02*
X243952380Y-85002438D01*
X243952380Y-85002438D02*
X243857142Y-84907200D01*
X243857142Y-84907200D02*
X243714285Y-84764342D01*
X243714285Y-84764342D02*
X243619047Y-84716723D01*
X243619047Y-84716723D02*
X243523809Y-84716723D01*
X243571428Y-84954819D02*
X243476190Y-84907200D01*
X243476190Y-84907200D02*
X243380952Y-84811961D01*
X243380952Y-84811961D02*
X243333333Y-84621485D01*
X243333333Y-84621485D02*
X243333333Y-84288152D01*
X243333333Y-84288152D02*
X243380952Y-84097676D01*
X243380952Y-84097676D02*
X243476190Y-84002438D01*
X243476190Y-84002438D02*
X243571428Y-83954819D01*
X243571428Y-83954819D02*
X243761904Y-83954819D01*
X243761904Y-83954819D02*
X243857142Y-84002438D01*
X243857142Y-84002438D02*
X243952380Y-84097676D01*
X243952380Y-84097676D02*
X243999999Y-84288152D01*
X243999999Y-84288152D02*
X243999999Y-84621485D01*
X243999999Y-84621485D02*
X243952380Y-84811961D01*
X243952380Y-84811961D02*
X243857142Y-84907200D01*
X243857142Y-84907200D02*
X243761904Y-84954819D01*
X243761904Y-84954819D02*
X243571428Y-84954819D01*
X244190476Y-85050057D02*
X244952380Y-85050057D01*
X245190476Y-84954819D02*
X245190476Y-83954819D01*
X245190476Y-83954819D02*
X245571428Y-83954819D01*
X245571428Y-83954819D02*
X245666666Y-84002438D01*
X245666666Y-84002438D02*
X245714285Y-84050057D01*
X245714285Y-84050057D02*
X245761904Y-84145295D01*
X245761904Y-84145295D02*
X245761904Y-84288152D01*
X245761904Y-84288152D02*
X245714285Y-84383390D01*
X245714285Y-84383390D02*
X245666666Y-84431009D01*
X245666666Y-84431009D02*
X245571428Y-84478628D01*
X245571428Y-84478628D02*
X245190476Y-84478628D01*
X246380952Y-83954819D02*
X246571428Y-83954819D01*
X246571428Y-83954819D02*
X246666666Y-84002438D01*
X246666666Y-84002438D02*
X246761904Y-84097676D01*
X246761904Y-84097676D02*
X246809523Y-84288152D01*
X246809523Y-84288152D02*
X246809523Y-84621485D01*
X246809523Y-84621485D02*
X246761904Y-84811961D01*
X246761904Y-84811961D02*
X246666666Y-84907200D01*
X246666666Y-84907200D02*
X246571428Y-84954819D01*
X246571428Y-84954819D02*
X246380952Y-84954819D01*
X246380952Y-84954819D02*
X246285714Y-84907200D01*
X246285714Y-84907200D02*
X246190476Y-84811961D01*
X246190476Y-84811961D02*
X246142857Y-84621485D01*
X246142857Y-84621485D02*
X246142857Y-84288152D01*
X246142857Y-84288152D02*
X246190476Y-84097676D01*
X246190476Y-84097676D02*
X246285714Y-84002438D01*
X246285714Y-84002438D02*
X246380952Y-83954819D01*
X247142857Y-83954819D02*
X247380952Y-84954819D01*
X247380952Y-84954819D02*
X247571428Y-84240533D01*
X247571428Y-84240533D02*
X247761904Y-84954819D01*
X247761904Y-84954819D02*
X248000000Y-83954819D01*
X248142857Y-85050057D02*
X248904761Y-85050057D01*
X249666666Y-84954819D02*
X249095238Y-84954819D01*
X249380952Y-84954819D02*
X249380952Y-83954819D01*
X249380952Y-83954819D02*
X249285714Y-84097676D01*
X249285714Y-84097676D02*
X249190476Y-84192914D01*
X249190476Y-84192914D02*
X249095238Y-84240533D01*
X243317319Y-77119047D02*
X244031604Y-77119047D01*
X244031604Y-77119047D02*
X244174461Y-77166666D01*
X244174461Y-77166666D02*
X244269700Y-77261904D01*
X244269700Y-77261904D02*
X244317319Y-77404761D01*
X244317319Y-77404761D02*
X244317319Y-77499999D01*
X244317319Y-76642856D02*
X243317319Y-76642856D01*
X243317319Y-76642856D02*
X243317319Y-76261904D01*
X243317319Y-76261904D02*
X243364938Y-76166666D01*
X243364938Y-76166666D02*
X243412557Y-76119047D01*
X243412557Y-76119047D02*
X243507795Y-76071428D01*
X243507795Y-76071428D02*
X243650652Y-76071428D01*
X243650652Y-76071428D02*
X243745890Y-76119047D01*
X243745890Y-76119047D02*
X243793509Y-76166666D01*
X243793509Y-76166666D02*
X243841128Y-76261904D01*
X243841128Y-76261904D02*
X243841128Y-76642856D01*
X244412557Y-75880952D02*
X244412557Y-75119047D01*
X244222080Y-74309523D02*
X244269700Y-74357142D01*
X244269700Y-74357142D02*
X244317319Y-74499999D01*
X244317319Y-74499999D02*
X244317319Y-74595237D01*
X244317319Y-74595237D02*
X244269700Y-74738094D01*
X244269700Y-74738094D02*
X244174461Y-74833332D01*
X244174461Y-74833332D02*
X244079223Y-74880951D01*
X244079223Y-74880951D02*
X243888747Y-74928570D01*
X243888747Y-74928570D02*
X243745890Y-74928570D01*
X243745890Y-74928570D02*
X243555414Y-74880951D01*
X243555414Y-74880951D02*
X243460176Y-74833332D01*
X243460176Y-74833332D02*
X243364938Y-74738094D01*
X243364938Y-74738094D02*
X243317319Y-74595237D01*
X243317319Y-74595237D02*
X243317319Y-74499999D01*
X243317319Y-74499999D02*
X243364938Y-74357142D01*
X243364938Y-74357142D02*
X243412557Y-74309523D01*
X244317319Y-73880951D02*
X243317319Y-73880951D01*
X243793509Y-73880951D02*
X243793509Y-73309523D01*
X244317319Y-73309523D02*
X243317319Y-73309523D01*
X243364938Y-72309523D02*
X243317319Y-72404761D01*
X243317319Y-72404761D02*
X243317319Y-72547618D01*
X243317319Y-72547618D02*
X243364938Y-72690475D01*
X243364938Y-72690475D02*
X243460176Y-72785713D01*
X243460176Y-72785713D02*
X243555414Y-72833332D01*
X243555414Y-72833332D02*
X243745890Y-72880951D01*
X243745890Y-72880951D02*
X243888747Y-72880951D01*
X243888747Y-72880951D02*
X244079223Y-72833332D01*
X244079223Y-72833332D02*
X244174461Y-72785713D01*
X244174461Y-72785713D02*
X244269700Y-72690475D01*
X244269700Y-72690475D02*
X244317319Y-72547618D01*
X244317319Y-72547618D02*
X244317319Y-72452380D01*
X244317319Y-72452380D02*
X244269700Y-72309523D01*
X244269700Y-72309523D02*
X244222080Y-72261904D01*
X244222080Y-72261904D02*
X243888747Y-72261904D01*
X243888747Y-72261904D02*
X243888747Y-72452380D01*
X244412557Y-72071428D02*
X244412557Y-71309523D01*
X244317319Y-70547618D02*
X244317319Y-71119046D01*
X244317319Y-70833332D02*
X243317319Y-70833332D01*
X243317319Y-70833332D02*
X243460176Y-70928570D01*
X243460176Y-70928570D02*
X243555414Y-71023808D01*
X243555414Y-71023808D02*
X243603033Y-71119046D01*
G36*
X167948979Y-65999739D02*
G01*
X168020922Y-66071682D01*
X168055180Y-66140198D01*
X168055180Y-66295264D01*
X168020922Y-66363780D01*
X167948979Y-66435722D01*
X167787613Y-66476064D01*
X167472748Y-66476064D01*
X167311381Y-66435722D01*
X167239438Y-66363779D01*
X167205180Y-66295262D01*
X167205180Y-66140199D01*
X167239438Y-66071682D01*
X167311381Y-65999739D01*
X167472748Y-65959398D01*
X167787613Y-65959398D01*
X167948979Y-65999739D01*
G37*
G36*
X168316291Y-72592877D02*
G01*
X166944069Y-72592877D01*
X166944069Y-72122493D01*
X167055180Y-72122493D01*
X167055180Y-72217731D01*
X167055909Y-72225136D01*
X167055769Y-72227112D01*
X167056359Y-72229709D01*
X167056621Y-72232363D01*
X167057379Y-72234193D01*
X167059029Y-72241449D01*
X167106649Y-72384306D01*
X167112643Y-72397731D01*
X167114409Y-72399767D01*
X167115440Y-72402256D01*
X167124767Y-72413621D01*
X167172386Y-72461240D01*
X167183751Y-72470567D01*
X167210787Y-72481766D01*
X167240050Y-72481766D01*
X167267086Y-72470567D01*
X167287779Y-72449874D01*
X167298978Y-72422838D01*
X167298978Y-72393575D01*
X167287779Y-72366539D01*
X167278452Y-72355174D01*
X167243351Y-72320073D01*
X167205180Y-72205559D01*
X167205180Y-72134664D01*
X167243351Y-72020150D01*
X167317465Y-71946037D01*
X167394452Y-71907543D01*
X167567986Y-71864160D01*
X167692375Y-71864160D01*
X167865909Y-71907543D01*
X167942896Y-71946037D01*
X168017009Y-72020150D01*
X168055180Y-72134663D01*
X168055180Y-72205561D01*
X168017009Y-72320074D01*
X167981909Y-72355174D01*
X167972582Y-72366539D01*
X167961383Y-72393576D01*
X167961383Y-72422838D01*
X167972582Y-72449875D01*
X167993274Y-72470567D01*
X168020311Y-72481766D01*
X168049573Y-72481766D01*
X168076610Y-72470567D01*
X168087975Y-72461240D01*
X168135594Y-72413621D01*
X168144921Y-72402256D01*
X168145951Y-72399767D01*
X168147718Y-72397731D01*
X168153712Y-72384305D01*
X168201331Y-72241449D01*
X168202980Y-72234193D01*
X168203739Y-72232363D01*
X168204000Y-72229709D01*
X168204591Y-72227112D01*
X168204450Y-72225137D01*
X168205180Y-72217731D01*
X168205180Y-72122493D01*
X168204450Y-72115086D01*
X168204591Y-72113112D01*
X168204000Y-72110514D01*
X168203739Y-72107861D01*
X168202980Y-72106030D01*
X168201331Y-72098775D01*
X168153712Y-71955919D01*
X168147718Y-71942493D01*
X168145953Y-71940458D01*
X168144922Y-71937968D01*
X168135594Y-71926603D01*
X168040356Y-71831365D01*
X168034606Y-71826646D01*
X168033307Y-71825148D01*
X168031047Y-71823726D01*
X168028991Y-71822038D01*
X168027163Y-71821280D01*
X168020864Y-71817316D01*
X167925626Y-71769697D01*
X167924556Y-71769287D01*
X167924121Y-71768965D01*
X167917975Y-71766769D01*
X167911894Y-71764442D01*
X167911354Y-71764403D01*
X167910275Y-71764018D01*
X167719799Y-71716399D01*
X167717262Y-71716023D01*
X167716241Y-71715601D01*
X167710728Y-71715058D01*
X167705255Y-71714249D01*
X167704162Y-71714411D01*
X167701609Y-71714160D01*
X167558752Y-71714160D01*
X167556198Y-71714411D01*
X167555106Y-71714249D01*
X167549632Y-71715058D01*
X167544120Y-71715601D01*
X167543098Y-71716023D01*
X167540562Y-71716399D01*
X167350086Y-71764018D01*
X167349006Y-71764403D01*
X167348466Y-71764442D01*
X167342376Y-71766772D01*
X167336240Y-71768965D01*
X167335804Y-71769287D01*
X167334735Y-71769697D01*
X167239497Y-71817316D01*
X167233202Y-71821278D01*
X167231370Y-71822037D01*
X167229308Y-71823728D01*
X167227054Y-71825148D01*
X167225755Y-71826644D01*
X167220005Y-71831365D01*
X167124767Y-71926603D01*
X167115440Y-71937968D01*
X167114409Y-71940456D01*
X167112643Y-71942493D01*
X167106649Y-71955918D01*
X167059029Y-72098775D01*
X167057379Y-72106030D01*
X167056621Y-72107861D01*
X167056359Y-72110514D01*
X167055769Y-72113112D01*
X167055909Y-72115087D01*
X167055180Y-72122493D01*
X166944069Y-72122493D01*
X166944069Y-71203099D01*
X167056621Y-71203099D01*
X167056621Y-71232363D01*
X167067820Y-71259399D01*
X167088512Y-71280091D01*
X167115548Y-71291290D01*
X167130180Y-71292731D01*
X168055180Y-71292731D01*
X168055180Y-71503445D01*
X168056621Y-71518077D01*
X168067820Y-71545113D01*
X168088512Y-71565805D01*
X168115548Y-71577004D01*
X168144812Y-71577004D01*
X168171848Y-71565805D01*
X168192540Y-71545113D01*
X168203739Y-71518077D01*
X168205180Y-71503445D01*
X168205180Y-70932017D01*
X168203739Y-70917385D01*
X168192540Y-70890349D01*
X168171848Y-70869657D01*
X168144812Y-70858458D01*
X168115548Y-70858458D01*
X168088512Y-70869657D01*
X168067820Y-70890349D01*
X168056621Y-70917385D01*
X168055180Y-70932017D01*
X168055180Y-71142731D01*
X167130180Y-71142731D01*
X167115548Y-71144172D01*
X167088512Y-71155371D01*
X167067820Y-71176063D01*
X167056621Y-71203099D01*
X166944069Y-71203099D01*
X166944069Y-70593444D01*
X167055363Y-70593444D01*
X167056621Y-70603340D01*
X167056621Y-70613315D01*
X167058450Y-70617730D01*
X167059053Y-70622474D01*
X167064003Y-70631138D01*
X167067820Y-70640351D01*
X167071198Y-70643729D01*
X167073572Y-70647883D01*
X167081461Y-70653992D01*
X167088512Y-70661043D01*
X167092928Y-70662872D01*
X167096709Y-70665800D01*
X167106332Y-70668424D01*
X167115548Y-70672242D01*
X167123030Y-70672978D01*
X167124941Y-70673500D01*
X167126416Y-70673312D01*
X167130180Y-70673683D01*
X168130180Y-70673683D01*
X168144812Y-70672242D01*
X168171848Y-70661043D01*
X168192540Y-70640351D01*
X168203739Y-70613315D01*
X168203739Y-70584051D01*
X168192540Y-70557015D01*
X168171848Y-70536323D01*
X168144812Y-70525124D01*
X168130180Y-70523683D01*
X167412597Y-70523683D01*
X168167391Y-70092373D01*
X168170475Y-70090183D01*
X168171848Y-70089615D01*
X168173245Y-70088217D01*
X168179380Y-70083863D01*
X168185488Y-70075974D01*
X168192540Y-70068923D01*
X168194370Y-70064504D01*
X168197297Y-70060725D01*
X168199921Y-70051103D01*
X168203739Y-70041887D01*
X168203739Y-70037106D01*
X168204997Y-70032494D01*
X168203739Y-70022597D01*
X168203739Y-70012623D01*
X168201909Y-70008207D01*
X168201307Y-70003464D01*
X168196356Y-69994799D01*
X168192540Y-69985587D01*
X168189161Y-69982208D01*
X168186788Y-69978055D01*
X168178898Y-69971945D01*
X168171848Y-69964895D01*
X168167431Y-69963065D01*
X168163651Y-69960138D01*
X168154027Y-69957513D01*
X168144812Y-69953696D01*
X168137329Y-69952959D01*
X168135419Y-69952438D01*
X168133943Y-69952625D01*
X168130180Y-69952255D01*
X167130180Y-69952255D01*
X167115548Y-69953696D01*
X167088512Y-69964895D01*
X167067820Y-69985587D01*
X167056621Y-70012623D01*
X167056621Y-70041887D01*
X167067820Y-70068923D01*
X167088512Y-70089615D01*
X167115548Y-70100814D01*
X167130180Y-70102255D01*
X167847763Y-70102255D01*
X167092970Y-70533565D01*
X167089886Y-70535753D01*
X167088512Y-70536323D01*
X167087112Y-70537722D01*
X167080980Y-70542075D01*
X167074870Y-70549964D01*
X167067820Y-70557015D01*
X167065990Y-70561431D01*
X167063063Y-70565212D01*
X167060438Y-70574835D01*
X167056621Y-70584051D01*
X167056621Y-70588831D01*
X167055363Y-70593444D01*
X166944069Y-70593444D01*
X166944069Y-69536433D01*
X167056621Y-69536433D01*
X167056621Y-69565697D01*
X167067820Y-69592733D01*
X167088512Y-69613425D01*
X167115548Y-69624624D01*
X167130180Y-69626065D01*
X168130180Y-69626065D01*
X168144812Y-69624624D01*
X168171848Y-69613425D01*
X168192540Y-69592733D01*
X168203739Y-69565697D01*
X168203739Y-69536433D01*
X168192540Y-69509397D01*
X168171848Y-69488705D01*
X168144812Y-69477506D01*
X168130180Y-69476065D01*
X167130180Y-69476065D01*
X167115548Y-69477506D01*
X167088512Y-69488705D01*
X167067820Y-69509397D01*
X167056621Y-69536433D01*
X166944069Y-69536433D01*
X166944069Y-68155480D01*
X167056621Y-68155480D01*
X167056621Y-68184744D01*
X167067820Y-68211780D01*
X167088512Y-68232472D01*
X167115548Y-68243671D01*
X167130180Y-68245112D01*
X168055180Y-68245112D01*
X168055180Y-68455826D01*
X168056621Y-68470458D01*
X168067820Y-68497494D01*
X168088512Y-68518186D01*
X168115548Y-68529385D01*
X168144812Y-68529385D01*
X168171848Y-68518186D01*
X168192540Y-68497494D01*
X168203739Y-68470458D01*
X168205180Y-68455826D01*
X168205180Y-67884398D01*
X168203739Y-67869766D01*
X168192540Y-67842730D01*
X168171848Y-67822038D01*
X168144812Y-67810839D01*
X168115548Y-67810839D01*
X168088512Y-67822038D01*
X168067820Y-67842730D01*
X168056621Y-67869766D01*
X168055180Y-67884398D01*
X168055180Y-68095112D01*
X167130180Y-68095112D01*
X167115548Y-68096553D01*
X167088512Y-68107752D01*
X167067820Y-68128444D01*
X167056621Y-68155480D01*
X166944069Y-68155480D01*
X166944069Y-67170112D01*
X167055180Y-67170112D01*
X167055180Y-67360588D01*
X167056621Y-67375220D01*
X167057651Y-67377708D01*
X167057843Y-67380398D01*
X167063098Y-67394130D01*
X167110718Y-67489368D01*
X167114683Y-67495666D01*
X167115440Y-67497494D01*
X167117128Y-67499551D01*
X167118551Y-67501811D01*
X167120049Y-67503110D01*
X167124767Y-67508859D01*
X167172386Y-67556478D01*
X167178135Y-67561196D01*
X167179435Y-67562695D01*
X167181694Y-67564116D01*
X167183751Y-67565805D01*
X167185578Y-67566562D01*
X167191878Y-67570527D01*
X167287116Y-67618146D01*
X167300847Y-67623401D01*
X167303536Y-67623592D01*
X167306025Y-67624623D01*
X167320657Y-67626064D01*
X168130180Y-67626064D01*
X168144812Y-67624623D01*
X168171848Y-67613424D01*
X168192540Y-67592732D01*
X168203739Y-67565696D01*
X168203739Y-67536432D01*
X168192540Y-67509396D01*
X168171848Y-67488704D01*
X168144812Y-67477505D01*
X168130180Y-67476064D01*
X167338362Y-67476064D01*
X167269846Y-67441806D01*
X167239438Y-67411398D01*
X167205180Y-67342881D01*
X167205180Y-67187818D01*
X167239438Y-67119301D01*
X167269846Y-67088894D01*
X167338362Y-67054636D01*
X168130180Y-67054636D01*
X168144812Y-67053195D01*
X168171848Y-67041996D01*
X168192540Y-67021304D01*
X168203739Y-66994268D01*
X168203739Y-66965004D01*
X168192540Y-66937968D01*
X168171848Y-66917276D01*
X168144812Y-66906077D01*
X168130180Y-66904636D01*
X167320657Y-66904636D01*
X167306025Y-66906077D01*
X167303536Y-66907107D01*
X167300847Y-66907299D01*
X167287116Y-66912554D01*
X167191878Y-66960173D01*
X167185578Y-66964137D01*
X167183751Y-66964895D01*
X167181694Y-66966583D01*
X167179435Y-66968005D01*
X167178135Y-66969503D01*
X167172386Y-66974222D01*
X167124767Y-67021841D01*
X167120049Y-67027589D01*
X167118551Y-67028889D01*
X167117128Y-67031148D01*
X167115440Y-67033206D01*
X167114683Y-67035033D01*
X167110718Y-67041332D01*
X167063098Y-67136570D01*
X167057843Y-67150302D01*
X167057651Y-67152991D01*
X167056621Y-67155480D01*
X167055180Y-67170112D01*
X166944069Y-67170112D01*
X166944069Y-66122493D01*
X167055180Y-66122493D01*
X167055180Y-66312969D01*
X167056621Y-66327601D01*
X167057651Y-66330089D01*
X167057843Y-66332779D01*
X167063098Y-66346511D01*
X167110718Y-66441749D01*
X167114683Y-66448047D01*
X167115440Y-66449875D01*
X167117128Y-66451932D01*
X167118551Y-66454192D01*
X167120049Y-66455491D01*
X167124767Y-66461240D01*
X167220005Y-66556478D01*
X167231370Y-66565806D01*
X167236523Y-66567940D01*
X167241002Y-66571259D01*
X167254848Y-66576206D01*
X167445324Y-66623825D01*
X167447860Y-66624200D01*
X167448882Y-66624623D01*
X167454394Y-66625165D01*
X167459868Y-66625975D01*
X167460960Y-66625812D01*
X167463514Y-66626064D01*
X167796847Y-66626064D01*
X167799400Y-66625812D01*
X167800493Y-66625975D01*
X167805966Y-66625165D01*
X167811479Y-66624623D01*
X167812500Y-66624200D01*
X167815037Y-66623825D01*
X168005513Y-66576206D01*
X168019359Y-66571259D01*
X168023840Y-66567938D01*
X168028991Y-66565805D01*
X168040356Y-66556478D01*
X168135594Y-66461240D01*
X168140314Y-66455489D01*
X168141811Y-66454191D01*
X168143230Y-66451936D01*
X168144922Y-66449875D01*
X168145680Y-66448042D01*
X168149643Y-66441748D01*
X168197262Y-66346510D01*
X168202517Y-66332779D01*
X168202708Y-66330089D01*
X168203739Y-66327601D01*
X168205180Y-66312969D01*
X168205180Y-66122493D01*
X168203739Y-66107861D01*
X168202708Y-66105372D01*
X168202517Y-66102683D01*
X168197262Y-66088952D01*
X168149643Y-65993714D01*
X168145680Y-65987419D01*
X168144922Y-65985587D01*
X168143230Y-65983525D01*
X168141811Y-65981271D01*
X168140314Y-65979972D01*
X168135594Y-65974222D01*
X168040356Y-65878984D01*
X168028991Y-65869657D01*
X168023840Y-65867523D01*
X168019359Y-65864203D01*
X168005513Y-65859256D01*
X167815037Y-65811637D01*
X167812500Y-65811261D01*
X167811479Y-65810839D01*
X167805966Y-65810296D01*
X167800493Y-65809487D01*
X167799400Y-65809649D01*
X167796847Y-65809398D01*
X167463514Y-65809398D01*
X167460960Y-65809649D01*
X167459868Y-65809487D01*
X167454394Y-65810296D01*
X167448882Y-65810839D01*
X167447860Y-65811261D01*
X167445324Y-65811637D01*
X167254848Y-65859256D01*
X167241002Y-65864203D01*
X167236523Y-65867521D01*
X167231370Y-65869656D01*
X167220005Y-65878984D01*
X167124767Y-65974222D01*
X167120049Y-65979970D01*
X167118551Y-65981270D01*
X167117128Y-65983529D01*
X167115440Y-65985587D01*
X167114683Y-65987414D01*
X167110718Y-65993713D01*
X167063098Y-66088951D01*
X167057843Y-66102683D01*
X167057651Y-66105372D01*
X167056621Y-66107861D01*
X167055180Y-66122493D01*
X166944069Y-66122493D01*
X166944069Y-64745622D01*
X167055291Y-64745622D01*
X167062554Y-64773970D01*
X167080112Y-64797381D01*
X167105293Y-64812290D01*
X167134262Y-64816429D01*
X167162610Y-64809166D01*
X167175180Y-64801540D01*
X167694571Y-64411997D01*
X168077147Y-64794573D01*
X168088512Y-64803900D01*
X168115548Y-64815099D01*
X168144811Y-64815099D01*
X168171848Y-64803900D01*
X168192540Y-64783208D01*
X168203739Y-64756171D01*
X168203739Y-64726908D01*
X168192540Y-64699872D01*
X168183213Y-64688507D01*
X167739818Y-64245112D01*
X168130180Y-64245112D01*
X168144812Y-64243671D01*
X168171848Y-64232472D01*
X168192540Y-64211780D01*
X168203739Y-64184744D01*
X168203739Y-64155480D01*
X168192540Y-64128444D01*
X168171848Y-64107752D01*
X168144812Y-64096553D01*
X168130180Y-64095112D01*
X167130180Y-64095112D01*
X167115548Y-64096553D01*
X167088512Y-64107752D01*
X167067820Y-64128444D01*
X167056621Y-64155480D01*
X167056621Y-64184744D01*
X167067820Y-64211780D01*
X167088512Y-64232472D01*
X167115548Y-64243671D01*
X167130180Y-64245112D01*
X167527686Y-64245112D01*
X167587428Y-64304854D01*
X167085180Y-64681540D01*
X167074339Y-64691472D01*
X167059430Y-64716653D01*
X167055291Y-64745622D01*
X166944069Y-64745622D01*
X166944069Y-63679290D01*
X167056621Y-63679290D01*
X167056621Y-63708554D01*
X167067820Y-63735590D01*
X167088512Y-63756282D01*
X167115548Y-63767481D01*
X167130180Y-63768922D01*
X168130180Y-63768922D01*
X168144812Y-63767481D01*
X168171848Y-63756282D01*
X168192540Y-63735590D01*
X168203739Y-63708554D01*
X168203739Y-63679290D01*
X168192540Y-63652254D01*
X168171848Y-63631562D01*
X168144812Y-63620363D01*
X168130180Y-63618922D01*
X167130180Y-63618922D01*
X167115548Y-63620363D01*
X167088512Y-63631562D01*
X167067820Y-63652254D01*
X167056621Y-63679290D01*
X166944069Y-63679290D01*
X166944069Y-63017875D01*
X167055769Y-63017875D01*
X167056435Y-63027255D01*
X167055769Y-63036635D01*
X167057464Y-63041720D01*
X167057844Y-63047065D01*
X167062048Y-63055474D01*
X167065023Y-63064398D01*
X167068534Y-63068446D01*
X167070930Y-63073238D01*
X167078034Y-63079400D01*
X167084197Y-63086505D01*
X167088988Y-63088900D01*
X167093037Y-63092412D01*
X167106463Y-63098406D01*
X168106463Y-63431739D01*
X168120799Y-63434999D01*
X168149989Y-63432924D01*
X168176163Y-63419838D01*
X168195337Y-63397730D01*
X168204591Y-63369968D01*
X168202516Y-63340778D01*
X168189429Y-63314605D01*
X168167322Y-63295431D01*
X168153897Y-63289437D01*
X167367350Y-63027255D01*
X168153897Y-62765073D01*
X168167322Y-62759079D01*
X168189429Y-62739905D01*
X168202516Y-62713732D01*
X168204591Y-62684542D01*
X168195337Y-62656780D01*
X168176163Y-62634672D01*
X168149989Y-62621586D01*
X168120799Y-62619511D01*
X168106463Y-62622771D01*
X167106463Y-62956104D01*
X167093037Y-62962098D01*
X167088988Y-62965609D01*
X167084197Y-62968005D01*
X167078034Y-62975109D01*
X167070930Y-62981272D01*
X167068534Y-62986063D01*
X167065023Y-62990112D01*
X167062048Y-62999035D01*
X167057844Y-63007445D01*
X167057464Y-63012789D01*
X167055769Y-63017875D01*
X166944069Y-63017875D01*
X166944069Y-62508400D01*
X168316291Y-62508400D01*
X168316291Y-72592877D01*
G37*
X176719824Y-61705906D02*
X176719824Y-62170192D01*
X176719824Y-62170192D02*
X176434110Y-61920192D01*
X176434110Y-61920192D02*
X176434110Y-62027335D01*
X176434110Y-62027335D02*
X176398396Y-62098764D01*
X176398396Y-62098764D02*
X176362681Y-62134478D01*
X176362681Y-62134478D02*
X176291253Y-62170192D01*
X176291253Y-62170192D02*
X176112681Y-62170192D01*
X176112681Y-62170192D02*
X176041253Y-62134478D01*
X176041253Y-62134478D02*
X176005539Y-62098764D01*
X176005539Y-62098764D02*
X175969824Y-62027335D01*
X175969824Y-62027335D02*
X175969824Y-61813049D01*
X175969824Y-61813049D02*
X176005539Y-61741621D01*
X176005539Y-61741621D02*
X176041253Y-61705906D01*
X176469824Y-62420192D02*
X175969824Y-62598764D01*
X175969824Y-62598764D02*
X176469824Y-62777335D01*
X176719824Y-62991621D02*
X176719824Y-63455907D01*
X176719824Y-63455907D02*
X176434110Y-63205907D01*
X176434110Y-63205907D02*
X176434110Y-63313050D01*
X176434110Y-63313050D02*
X176398396Y-63384479D01*
X176398396Y-63384479D02*
X176362681Y-63420193D01*
X176362681Y-63420193D02*
X176291253Y-63455907D01*
X176291253Y-63455907D02*
X176112681Y-63455907D01*
X176112681Y-63455907D02*
X176041253Y-63420193D01*
X176041253Y-63420193D02*
X176005539Y-63384479D01*
X176005539Y-63384479D02*
X175969824Y-63313050D01*
X175969824Y-63313050D02*
X175969824Y-63098764D01*
X175969824Y-63098764D02*
X176005539Y-63027336D01*
X176005539Y-63027336D02*
X176041253Y-62991621D01*
X223220414Y-63894253D02*
X223220414Y-63429967D01*
X223220414Y-63429967D02*
X223506128Y-63679967D01*
X223506128Y-63679967D02*
X223506128Y-63572824D01*
X223506128Y-63572824D02*
X223541842Y-63501396D01*
X223541842Y-63501396D02*
X223577557Y-63465681D01*
X223577557Y-63465681D02*
X223648985Y-63429967D01*
X223648985Y-63429967D02*
X223827557Y-63429967D01*
X223827557Y-63429967D02*
X223898985Y-63465681D01*
X223898985Y-63465681D02*
X223934700Y-63501396D01*
X223934700Y-63501396D02*
X223970414Y-63572824D01*
X223970414Y-63572824D02*
X223970414Y-63787110D01*
X223970414Y-63787110D02*
X223934700Y-63858538D01*
X223934700Y-63858538D02*
X223898985Y-63894253D01*
X223470414Y-63179967D02*
X223970414Y-63001395D01*
X223970414Y-63001395D02*
X223470414Y-62822824D01*
X223220414Y-62608538D02*
X223220414Y-62144252D01*
X223220414Y-62144252D02*
X223506128Y-62394252D01*
X223506128Y-62394252D02*
X223506128Y-62287109D01*
X223506128Y-62287109D02*
X223541842Y-62215681D01*
X223541842Y-62215681D02*
X223577557Y-62179966D01*
X223577557Y-62179966D02*
X223648985Y-62144252D01*
X223648985Y-62144252D02*
X223827557Y-62144252D01*
X223827557Y-62144252D02*
X223898985Y-62179966D01*
X223898985Y-62179966D02*
X223934700Y-62215681D01*
X223934700Y-62215681D02*
X223970414Y-62287109D01*
X223970414Y-62287109D02*
X223970414Y-62501395D01*
X223970414Y-62501395D02*
X223934700Y-62572823D01*
X223934700Y-62572823D02*
X223898985Y-62608538D01*
G36*
X233055819Y-71991599D02*
G01*
X231683708Y-71991599D01*
X231683708Y-71130031D01*
X231795408Y-71130031D01*
X231797483Y-71159221D01*
X231810569Y-71185394D01*
X231832676Y-71204568D01*
X231846102Y-71210562D01*
X232632648Y-71472744D01*
X231846102Y-71734926D01*
X231832676Y-71740920D01*
X231810569Y-71760094D01*
X231797483Y-71786267D01*
X231795408Y-71815457D01*
X231804662Y-71843220D01*
X231823836Y-71865327D01*
X231850009Y-71878413D01*
X231879199Y-71880488D01*
X231893536Y-71877228D01*
X232893536Y-71543895D01*
X232906961Y-71537901D01*
X232911008Y-71534390D01*
X232915802Y-71531994D01*
X232921966Y-71524886D01*
X232929068Y-71518727D01*
X232931463Y-71513935D01*
X232934976Y-71509886D01*
X232937950Y-71500963D01*
X232942155Y-71492554D01*
X232942534Y-71487209D01*
X232944230Y-71482124D01*
X232943563Y-71472744D01*
X232944230Y-71463364D01*
X232942534Y-71458278D01*
X232942155Y-71452934D01*
X232937950Y-71444524D01*
X232934976Y-71435602D01*
X232931463Y-71431552D01*
X232929068Y-71426761D01*
X232921966Y-71420601D01*
X232915802Y-71413494D01*
X232911008Y-71411097D01*
X232906961Y-71407587D01*
X232893536Y-71401593D01*
X231893536Y-71068260D01*
X231879199Y-71065000D01*
X231850009Y-71067075D01*
X231823836Y-71080161D01*
X231804662Y-71102268D01*
X231795408Y-71130031D01*
X231683708Y-71130031D01*
X231683708Y-70791445D01*
X231796260Y-70791445D01*
X231796260Y-70820709D01*
X231807459Y-70847745D01*
X231828151Y-70868437D01*
X231855187Y-70879636D01*
X231869819Y-70881077D01*
X232869819Y-70881077D01*
X232884451Y-70879636D01*
X232911487Y-70868437D01*
X232932179Y-70847745D01*
X232943378Y-70820709D01*
X232943378Y-70791445D01*
X232932179Y-70764409D01*
X232911487Y-70743717D01*
X232884451Y-70732518D01*
X232869819Y-70731077D01*
X231869819Y-70731077D01*
X231855187Y-70732518D01*
X231828151Y-70743717D01*
X231807459Y-70764409D01*
X231796260Y-70791445D01*
X231683708Y-70791445D01*
X231683708Y-69743828D01*
X231796260Y-69743828D01*
X231796260Y-69773090D01*
X231807459Y-69800127D01*
X231816786Y-69811492D01*
X232260181Y-70254887D01*
X231869819Y-70254887D01*
X231855187Y-70256328D01*
X231828151Y-70267527D01*
X231807459Y-70288219D01*
X231796260Y-70315255D01*
X231796260Y-70344519D01*
X231807459Y-70371555D01*
X231828151Y-70392247D01*
X231855187Y-70403446D01*
X231869819Y-70404887D01*
X232869819Y-70404887D01*
X232884451Y-70403446D01*
X232911487Y-70392247D01*
X232932179Y-70371555D01*
X232943378Y-70344519D01*
X232943378Y-70315255D01*
X232932179Y-70288219D01*
X232911487Y-70267527D01*
X232884451Y-70256328D01*
X232869819Y-70254887D01*
X232472313Y-70254887D01*
X232412570Y-70195144D01*
X232914819Y-69818459D01*
X232925660Y-69808527D01*
X232940570Y-69783346D01*
X232944708Y-69754377D01*
X232937446Y-69726029D01*
X232919887Y-69702618D01*
X232894706Y-69687709D01*
X232865738Y-69683570D01*
X232837389Y-69690832D01*
X232824819Y-69698459D01*
X232305427Y-70088001D01*
X231922852Y-69705426D01*
X231911487Y-69696099D01*
X231884450Y-69684900D01*
X231855188Y-69684900D01*
X231828151Y-69696099D01*
X231807459Y-69716791D01*
X231796260Y-69743828D01*
X231683708Y-69743828D01*
X231683708Y-68553350D01*
X231796260Y-68553350D01*
X231796260Y-68582614D01*
X231807459Y-68609650D01*
X231828151Y-68630342D01*
X231855187Y-68641541D01*
X231869819Y-68642982D01*
X232869819Y-68642982D01*
X232884451Y-68641541D01*
X232911487Y-68630342D01*
X232932179Y-68609650D01*
X232943378Y-68582614D01*
X232943378Y-68553350D01*
X232932179Y-68526314D01*
X232911487Y-68505622D01*
X232884451Y-68494423D01*
X232869819Y-68492982D01*
X231869819Y-68492982D01*
X231855187Y-68494423D01*
X231828151Y-68505622D01*
X231807459Y-68526314D01*
X231796260Y-68553350D01*
X231683708Y-68553350D01*
X231683708Y-68086553D01*
X231795002Y-68086553D01*
X231796260Y-68096449D01*
X231796260Y-68106424D01*
X231798089Y-68110839D01*
X231798692Y-68115583D01*
X231803642Y-68124247D01*
X231807459Y-68133460D01*
X231810837Y-68136838D01*
X231813211Y-68140992D01*
X231821100Y-68147101D01*
X231828151Y-68154152D01*
X231832567Y-68155981D01*
X231836348Y-68158909D01*
X231845971Y-68161533D01*
X231855187Y-68165351D01*
X231862669Y-68166087D01*
X231864580Y-68166609D01*
X231866055Y-68166421D01*
X231869819Y-68166792D01*
X232869819Y-68166792D01*
X232884451Y-68165351D01*
X232911487Y-68154152D01*
X232932179Y-68133460D01*
X232943378Y-68106424D01*
X232943378Y-68077160D01*
X232932179Y-68050124D01*
X232911487Y-68029432D01*
X232884451Y-68018233D01*
X232869819Y-68016792D01*
X232152236Y-68016792D01*
X232907030Y-67585482D01*
X232910114Y-67583292D01*
X232911487Y-67582724D01*
X232912884Y-67581326D01*
X232919019Y-67576972D01*
X232925127Y-67569083D01*
X232932179Y-67562032D01*
X232934009Y-67557613D01*
X232936936Y-67553834D01*
X232939560Y-67544212D01*
X232943378Y-67534996D01*
X232943378Y-67530215D01*
X232944636Y-67525603D01*
X232943378Y-67515706D01*
X232943378Y-67505732D01*
X232941548Y-67501316D01*
X232940946Y-67496573D01*
X232935995Y-67487908D01*
X232932179Y-67478696D01*
X232928800Y-67475317D01*
X232926427Y-67471164D01*
X232918537Y-67465054D01*
X232911487Y-67458004D01*
X232907070Y-67456174D01*
X232903290Y-67453247D01*
X232893666Y-67450622D01*
X232884451Y-67446805D01*
X232876968Y-67446068D01*
X232875058Y-67445547D01*
X232873582Y-67445734D01*
X232869819Y-67445364D01*
X231869819Y-67445364D01*
X231855187Y-67446805D01*
X231828151Y-67458004D01*
X231807459Y-67478696D01*
X231796260Y-67505732D01*
X231796260Y-67534996D01*
X231807459Y-67562032D01*
X231828151Y-67582724D01*
X231855187Y-67593923D01*
X231869819Y-67595364D01*
X232587402Y-67595364D01*
X231832609Y-68026674D01*
X231829525Y-68028862D01*
X231828151Y-68029432D01*
X231826751Y-68030831D01*
X231820619Y-68035184D01*
X231814509Y-68043073D01*
X231807459Y-68050124D01*
X231805629Y-68054540D01*
X231802702Y-68058321D01*
X231800077Y-68067944D01*
X231796260Y-68077160D01*
X231796260Y-68081940D01*
X231795002Y-68086553D01*
X231683708Y-68086553D01*
X231683708Y-66267636D01*
X231796260Y-66267636D01*
X231796260Y-66296900D01*
X231807459Y-66323936D01*
X231828151Y-66344628D01*
X231855187Y-66355827D01*
X231869819Y-66357268D01*
X232869819Y-66357268D01*
X232884451Y-66355827D01*
X232911487Y-66344628D01*
X232932179Y-66323936D01*
X232943378Y-66296900D01*
X232943378Y-66267636D01*
X232932179Y-66240600D01*
X232911487Y-66219908D01*
X232884451Y-66208709D01*
X232869819Y-66207268D01*
X231869819Y-66207268D01*
X231855187Y-66208709D01*
X231828151Y-66219908D01*
X231807459Y-66240600D01*
X231796260Y-66267636D01*
X231683708Y-66267636D01*
X231683708Y-65800839D01*
X231795002Y-65800839D01*
X231796260Y-65810735D01*
X231796260Y-65820710D01*
X231798089Y-65825125D01*
X231798692Y-65829869D01*
X231803642Y-65838533D01*
X231807459Y-65847746D01*
X231810837Y-65851124D01*
X231813211Y-65855278D01*
X231821100Y-65861387D01*
X231828151Y-65868438D01*
X231832567Y-65870267D01*
X231836348Y-65873195D01*
X231845971Y-65875819D01*
X231855187Y-65879637D01*
X231862669Y-65880373D01*
X231864580Y-65880895D01*
X231866055Y-65880707D01*
X231869819Y-65881078D01*
X232869819Y-65881078D01*
X232884451Y-65879637D01*
X232911487Y-65868438D01*
X232932179Y-65847746D01*
X232943378Y-65820710D01*
X232943378Y-65791446D01*
X232932179Y-65764410D01*
X232911487Y-65743718D01*
X232884451Y-65732519D01*
X232869819Y-65731078D01*
X232152236Y-65731078D01*
X232907030Y-65299768D01*
X232910114Y-65297578D01*
X232911487Y-65297010D01*
X232912884Y-65295612D01*
X232919019Y-65291258D01*
X232925127Y-65283369D01*
X232932179Y-65276318D01*
X232934009Y-65271899D01*
X232936936Y-65268120D01*
X232939560Y-65258498D01*
X232943378Y-65249282D01*
X232943378Y-65244501D01*
X232944636Y-65239889D01*
X232943378Y-65229992D01*
X232943378Y-65220018D01*
X232941548Y-65215602D01*
X232940946Y-65210859D01*
X232935995Y-65202194D01*
X232932179Y-65192982D01*
X232928800Y-65189603D01*
X232926427Y-65185450D01*
X232918537Y-65179340D01*
X232911487Y-65172290D01*
X232907070Y-65170460D01*
X232903290Y-65167533D01*
X232893666Y-65164908D01*
X232884451Y-65161091D01*
X232876968Y-65160354D01*
X232875058Y-65159833D01*
X232873582Y-65160020D01*
X232869819Y-65159650D01*
X231869819Y-65159650D01*
X231855187Y-65161091D01*
X231828151Y-65172290D01*
X231807459Y-65192982D01*
X231796260Y-65220018D01*
X231796260Y-65249282D01*
X231807459Y-65276318D01*
X231828151Y-65297010D01*
X231855187Y-65308209D01*
X231869819Y-65309650D01*
X232587402Y-65309650D01*
X231832609Y-65740960D01*
X231829525Y-65743148D01*
X231828151Y-65743718D01*
X231826751Y-65745117D01*
X231820619Y-65749470D01*
X231814509Y-65757359D01*
X231807459Y-65764410D01*
X231805629Y-65768826D01*
X231802702Y-65772607D01*
X231800077Y-65782230D01*
X231796260Y-65791446D01*
X231796260Y-65796226D01*
X231795002Y-65800839D01*
X231683708Y-65800839D01*
X231683708Y-64329888D01*
X231794819Y-64329888D01*
X231794819Y-64901316D01*
X231796260Y-64915948D01*
X231807459Y-64942984D01*
X231828151Y-64963676D01*
X231855187Y-64974875D01*
X231884451Y-64974875D01*
X231911487Y-64963676D01*
X231932179Y-64942984D01*
X231943378Y-64915948D01*
X231944819Y-64901316D01*
X231944819Y-64690602D01*
X232869819Y-64690602D01*
X232884451Y-64689161D01*
X232911487Y-64677962D01*
X232932179Y-64657270D01*
X232943378Y-64630234D01*
X232943378Y-64600970D01*
X232932179Y-64573934D01*
X232911487Y-64553242D01*
X232884451Y-64542043D01*
X232869819Y-64540602D01*
X231944819Y-64540602D01*
X231944819Y-64329888D01*
X231943378Y-64315256D01*
X231932179Y-64288220D01*
X231911487Y-64267528D01*
X231884451Y-64256329D01*
X231855187Y-64256329D01*
X231828151Y-64267528D01*
X231807459Y-64288220D01*
X231796260Y-64315256D01*
X231794819Y-64329888D01*
X231683708Y-64329888D01*
X231683708Y-63410495D01*
X231796260Y-63410495D01*
X231796260Y-63439757D01*
X231807459Y-63466794D01*
X231816786Y-63478159D01*
X232260181Y-63921554D01*
X231869819Y-63921554D01*
X231855187Y-63922995D01*
X231828151Y-63934194D01*
X231807459Y-63954886D01*
X231796260Y-63981922D01*
X231796260Y-64011186D01*
X231807459Y-64038222D01*
X231828151Y-64058914D01*
X231855187Y-64070113D01*
X231869819Y-64071554D01*
X232869819Y-64071554D01*
X232884451Y-64070113D01*
X232911487Y-64058914D01*
X232932179Y-64038222D01*
X232943378Y-64011186D01*
X232943378Y-63981922D01*
X232932179Y-63954886D01*
X232911487Y-63934194D01*
X232884451Y-63922995D01*
X232869819Y-63921554D01*
X232472313Y-63921554D01*
X232412570Y-63861811D01*
X232914819Y-63485126D01*
X232925660Y-63475194D01*
X232940570Y-63450013D01*
X232944708Y-63421044D01*
X232937446Y-63392696D01*
X232919887Y-63369285D01*
X232894706Y-63354376D01*
X232865738Y-63350237D01*
X232837389Y-63357499D01*
X232824819Y-63365126D01*
X232305427Y-63754668D01*
X231922852Y-63372093D01*
X231911487Y-63362766D01*
X231884450Y-63351567D01*
X231855188Y-63351567D01*
X231828151Y-63362766D01*
X231807459Y-63383458D01*
X231796260Y-63410495D01*
X231683708Y-63410495D01*
X231683708Y-63239126D01*
X233055819Y-63239126D01*
X233055819Y-71991599D01*
G37*
X239722080Y-94166666D02*
X239769700Y-94214285D01*
X239769700Y-94214285D02*
X239817319Y-94357142D01*
X239817319Y-94357142D02*
X239817319Y-94452380D01*
X239817319Y-94452380D02*
X239769700Y-94595237D01*
X239769700Y-94595237D02*
X239674461Y-94690475D01*
X239674461Y-94690475D02*
X239579223Y-94738094D01*
X239579223Y-94738094D02*
X239388747Y-94785713D01*
X239388747Y-94785713D02*
X239245890Y-94785713D01*
X239245890Y-94785713D02*
X239055414Y-94738094D01*
X239055414Y-94738094D02*
X238960176Y-94690475D01*
X238960176Y-94690475D02*
X238864938Y-94595237D01*
X238864938Y-94595237D02*
X238817319Y-94452380D01*
X238817319Y-94452380D02*
X238817319Y-94357142D01*
X238817319Y-94357142D02*
X238864938Y-94214285D01*
X238864938Y-94214285D02*
X238912557Y-94166666D01*
X239817319Y-93214285D02*
X239817319Y-93785713D01*
X239817319Y-93499999D02*
X238817319Y-93499999D01*
X238817319Y-93499999D02*
X238960176Y-93595237D01*
X238960176Y-93595237D02*
X239055414Y-93690475D01*
X239055414Y-93690475D02*
X239103033Y-93785713D01*
X82880952Y-18954819D02*
X82880952Y-19764342D01*
X82880952Y-19764342D02*
X82928571Y-19859580D01*
X82928571Y-19859580D02*
X82976190Y-19907200D01*
X82976190Y-19907200D02*
X83071428Y-19954819D01*
X83071428Y-19954819D02*
X83261904Y-19954819D01*
X83261904Y-19954819D02*
X83357142Y-19907200D01*
X83357142Y-19907200D02*
X83404761Y-19859580D01*
X83404761Y-19859580D02*
X83452380Y-19764342D01*
X83452380Y-19764342D02*
X83452380Y-18954819D01*
X83690476Y-20050057D02*
X84452380Y-20050057D01*
X84690476Y-19954819D02*
X84690476Y-18954819D01*
X84690476Y-18954819D02*
X85023809Y-19669104D01*
X85023809Y-19669104D02*
X85357142Y-18954819D01*
X85357142Y-18954819D02*
X85357142Y-19954819D01*
X86404761Y-19859580D02*
X86357142Y-19907200D01*
X86357142Y-19907200D02*
X86214285Y-19954819D01*
X86214285Y-19954819D02*
X86119047Y-19954819D01*
X86119047Y-19954819D02*
X85976190Y-19907200D01*
X85976190Y-19907200D02*
X85880952Y-19811961D01*
X85880952Y-19811961D02*
X85833333Y-19716723D01*
X85833333Y-19716723D02*
X85785714Y-19526247D01*
X85785714Y-19526247D02*
X85785714Y-19383390D01*
X85785714Y-19383390D02*
X85833333Y-19192914D01*
X85833333Y-19192914D02*
X85880952Y-19097676D01*
X85880952Y-19097676D02*
X85976190Y-19002438D01*
X85976190Y-19002438D02*
X86119047Y-18954819D01*
X86119047Y-18954819D02*
X86214285Y-18954819D01*
X86214285Y-18954819D02*
X86357142Y-19002438D01*
X86357142Y-19002438D02*
X86404761Y-19050057D01*
X86833333Y-18954819D02*
X86833333Y-19764342D01*
X86833333Y-19764342D02*
X86880952Y-19859580D01*
X86880952Y-19859580D02*
X86928571Y-19907200D01*
X86928571Y-19907200D02*
X87023809Y-19954819D01*
X87023809Y-19954819D02*
X87214285Y-19954819D01*
X87214285Y-19954819D02*
X87309523Y-19907200D01*
X87309523Y-19907200D02*
X87357142Y-19859580D01*
X87357142Y-19859580D02*
X87404761Y-19764342D01*
X87404761Y-19764342D02*
X87404761Y-18954819D01*
X87642857Y-20050057D02*
X88404761Y-20050057D01*
X89166666Y-19954819D02*
X88595238Y-19954819D01*
X88880952Y-19954819D02*
X88880952Y-18954819D01*
X88880952Y-18954819D02*
X88785714Y-19097676D01*
X88785714Y-19097676D02*
X88690476Y-19192914D01*
X88690476Y-19192914D02*
X88595238Y-19240533D01*
X74124819Y-28547619D02*
X73648628Y-28880952D01*
X74124819Y-29119047D02*
X73124819Y-29119047D01*
X73124819Y-29119047D02*
X73124819Y-28738095D01*
X73124819Y-28738095D02*
X73172438Y-28642857D01*
X73172438Y-28642857D02*
X73220057Y-28595238D01*
X73220057Y-28595238D02*
X73315295Y-28547619D01*
X73315295Y-28547619D02*
X73458152Y-28547619D01*
X73458152Y-28547619D02*
X73553390Y-28595238D01*
X73553390Y-28595238D02*
X73601009Y-28642857D01*
X73601009Y-28642857D02*
X73648628Y-28738095D01*
X73648628Y-28738095D02*
X73648628Y-29119047D01*
X74220057Y-28357143D02*
X74220057Y-27595238D01*
X74124819Y-27357142D02*
X73124819Y-27357142D01*
X73124819Y-27357142D02*
X73839104Y-27023809D01*
X73839104Y-27023809D02*
X73124819Y-26690476D01*
X73124819Y-26690476D02*
X74124819Y-26690476D01*
X73124819Y-26023809D02*
X73124819Y-25833333D01*
X73124819Y-25833333D02*
X73172438Y-25738095D01*
X73172438Y-25738095D02*
X73267676Y-25642857D01*
X73267676Y-25642857D02*
X73458152Y-25595238D01*
X73458152Y-25595238D02*
X73791485Y-25595238D01*
X73791485Y-25595238D02*
X73981961Y-25642857D01*
X73981961Y-25642857D02*
X74077200Y-25738095D01*
X74077200Y-25738095D02*
X74124819Y-25833333D01*
X74124819Y-25833333D02*
X74124819Y-26023809D01*
X74124819Y-26023809D02*
X74077200Y-26119047D01*
X74077200Y-26119047D02*
X73981961Y-26214285D01*
X73981961Y-26214285D02*
X73791485Y-26261904D01*
X73791485Y-26261904D02*
X73458152Y-26261904D01*
X73458152Y-26261904D02*
X73267676Y-26214285D01*
X73267676Y-26214285D02*
X73172438Y-26119047D01*
X73172438Y-26119047D02*
X73124819Y-26023809D01*
X74124819Y-25166666D02*
X73124819Y-25166666D01*
X73124819Y-25166666D02*
X74124819Y-24595238D01*
X74124819Y-24595238D02*
X73124819Y-24595238D01*
X74220057Y-24357143D02*
X74220057Y-23595238D01*
X73220057Y-23404761D02*
X73172438Y-23357142D01*
X73172438Y-23357142D02*
X73124819Y-23261904D01*
X73124819Y-23261904D02*
X73124819Y-23023809D01*
X73124819Y-23023809D02*
X73172438Y-22928571D01*
X73172438Y-22928571D02*
X73220057Y-22880952D01*
X73220057Y-22880952D02*
X73315295Y-22833333D01*
X73315295Y-22833333D02*
X73410533Y-22833333D01*
X73410533Y-22833333D02*
X73553390Y-22880952D01*
X73553390Y-22880952D02*
X74124819Y-23452380D01*
X74124819Y-23452380D02*
X74124819Y-22833333D01*
X244767262Y-79954819D02*
X244767262Y-78954819D01*
X244767262Y-78954819D02*
X245005357Y-78954819D01*
X245005357Y-78954819D02*
X245148214Y-79002438D01*
X245148214Y-79002438D02*
X245243452Y-79097676D01*
X245243452Y-79097676D02*
X245291071Y-79192914D01*
X245291071Y-79192914D02*
X245338690Y-79383390D01*
X245338690Y-79383390D02*
X245338690Y-79526247D01*
X245338690Y-79526247D02*
X245291071Y-79716723D01*
X245291071Y-79716723D02*
X245243452Y-79811961D01*
X245243452Y-79811961D02*
X245148214Y-79907200D01*
X245148214Y-79907200D02*
X245005357Y-79954819D01*
X245005357Y-79954819D02*
X244767262Y-79954819D01*
X245529167Y-80050057D02*
X246291071Y-80050057D01*
X246529167Y-79954819D02*
X246529167Y-78954819D01*
X246529167Y-78954819D02*
X246910119Y-78954819D01*
X246910119Y-78954819D02*
X247005357Y-79002438D01*
X247005357Y-79002438D02*
X247052976Y-79050057D01*
X247052976Y-79050057D02*
X247100595Y-79145295D01*
X247100595Y-79145295D02*
X247100595Y-79288152D01*
X247100595Y-79288152D02*
X247052976Y-79383390D01*
X247052976Y-79383390D02*
X247005357Y-79431009D01*
X247005357Y-79431009D02*
X246910119Y-79478628D01*
X246910119Y-79478628D02*
X246529167Y-79478628D01*
X247719643Y-78954819D02*
X247910119Y-78954819D01*
X247910119Y-78954819D02*
X248005357Y-79002438D01*
X248005357Y-79002438D02*
X248100595Y-79097676D01*
X248100595Y-79097676D02*
X248148214Y-79288152D01*
X248148214Y-79288152D02*
X248148214Y-79621485D01*
X248148214Y-79621485D02*
X248100595Y-79811961D01*
X248100595Y-79811961D02*
X248005357Y-79907200D01*
X248005357Y-79907200D02*
X247910119Y-79954819D01*
X247910119Y-79954819D02*
X247719643Y-79954819D01*
X247719643Y-79954819D02*
X247624405Y-79907200D01*
X247624405Y-79907200D02*
X247529167Y-79811961D01*
X247529167Y-79811961D02*
X247481548Y-79621485D01*
X247481548Y-79621485D02*
X247481548Y-79288152D01*
X247481548Y-79288152D02*
X247529167Y-79097676D01*
X247529167Y-79097676D02*
X247624405Y-79002438D01*
X247624405Y-79002438D02*
X247719643Y-78954819D01*
X248481548Y-78954819D02*
X248719643Y-79954819D01*
X248719643Y-79954819D02*
X248910119Y-79240533D01*
X248910119Y-79240533D02*
X249100595Y-79954819D01*
X249100595Y-79954819D02*
X249338691Y-78954819D01*
X249481548Y-80050057D02*
X250243452Y-80050057D01*
X251005357Y-79954819D02*
X250433929Y-79954819D01*
X250719643Y-79954819D02*
X250719643Y-78954819D01*
X250719643Y-78954819D02*
X250624405Y-79097676D01*
X250624405Y-79097676D02*
X250529167Y-79192914D01*
X250529167Y-79192914D02*
X250433929Y-79240533D01*
X223220414Y-84744173D02*
X223220414Y-84279887D01*
X223220414Y-84279887D02*
X223506128Y-84529887D01*
X223506128Y-84529887D02*
X223506128Y-84422744D01*
X223506128Y-84422744D02*
X223541842Y-84351316D01*
X223541842Y-84351316D02*
X223577557Y-84315601D01*
X223577557Y-84315601D02*
X223648985Y-84279887D01*
X223648985Y-84279887D02*
X223827557Y-84279887D01*
X223827557Y-84279887D02*
X223898985Y-84315601D01*
X223898985Y-84315601D02*
X223934700Y-84351316D01*
X223934700Y-84351316D02*
X223970414Y-84422744D01*
X223970414Y-84422744D02*
X223970414Y-84637030D01*
X223970414Y-84637030D02*
X223934700Y-84708458D01*
X223934700Y-84708458D02*
X223898985Y-84744173D01*
X223470414Y-84029887D02*
X223970414Y-83851315D01*
X223970414Y-83851315D02*
X223470414Y-83672744D01*
X223220414Y-83458458D02*
X223220414Y-82994172D01*
X223220414Y-82994172D02*
X223506128Y-83244172D01*
X223506128Y-83244172D02*
X223506128Y-83137029D01*
X223506128Y-83137029D02*
X223541842Y-83065601D01*
X223541842Y-83065601D02*
X223577557Y-83029886D01*
X223577557Y-83029886D02*
X223648985Y-82994172D01*
X223648985Y-82994172D02*
X223827557Y-82994172D01*
X223827557Y-82994172D02*
X223898985Y-83029886D01*
X223898985Y-83029886D02*
X223934700Y-83065601D01*
X223934700Y-83065601D02*
X223970414Y-83137029D01*
X223970414Y-83137029D02*
X223970414Y-83351315D01*
X223970414Y-83351315D02*
X223934700Y-83422743D01*
X223934700Y-83422743D02*
X223898985Y-83458458D01*
G36*
X232688617Y-80064276D02*
G01*
X232760561Y-80136219D01*
X232794819Y-80204735D01*
X232794819Y-80359801D01*
X232760561Y-80428316D01*
X232688617Y-80500259D01*
X232527251Y-80540601D01*
X232212386Y-80540601D01*
X232051019Y-80500259D01*
X231979077Y-80428317D01*
X231944819Y-80359801D01*
X231944819Y-80204735D01*
X231979077Y-80136219D01*
X232051019Y-80064276D01*
X232212386Y-80023935D01*
X232527251Y-80023935D01*
X232688617Y-80064276D01*
G37*
G36*
X232509104Y-75749639D02*
G01*
X232106989Y-75615601D01*
X232509104Y-75481562D01*
X232509104Y-75749639D01*
G37*
G36*
X233055930Y-83991599D02*
G01*
X231683708Y-83991599D01*
X231683708Y-83130031D01*
X231795408Y-83130031D01*
X231797483Y-83159221D01*
X231810569Y-83185394D01*
X231832676Y-83204568D01*
X231846102Y-83210562D01*
X232632648Y-83472744D01*
X231846102Y-83734926D01*
X231832676Y-83740920D01*
X231810569Y-83760094D01*
X231797483Y-83786267D01*
X231795408Y-83815457D01*
X231804662Y-83843220D01*
X231823836Y-83865327D01*
X231850009Y-83878413D01*
X231879199Y-83880488D01*
X231893536Y-83877228D01*
X232893536Y-83543895D01*
X232906961Y-83537901D01*
X232911008Y-83534390D01*
X232915802Y-83531994D01*
X232921966Y-83524886D01*
X232929068Y-83518727D01*
X232931463Y-83513935D01*
X232934976Y-83509886D01*
X232937950Y-83500963D01*
X232942155Y-83492554D01*
X232942534Y-83487209D01*
X232944230Y-83482124D01*
X232943563Y-83472744D01*
X232944230Y-83463364D01*
X232942534Y-83458278D01*
X232942155Y-83452934D01*
X232937950Y-83444524D01*
X232934976Y-83435602D01*
X232931463Y-83431552D01*
X232929068Y-83426761D01*
X232921966Y-83420601D01*
X232915802Y-83413494D01*
X232911008Y-83411097D01*
X232906961Y-83407587D01*
X232893536Y-83401593D01*
X231893536Y-83068260D01*
X231879199Y-83065000D01*
X231850009Y-83067075D01*
X231823836Y-83080161D01*
X231804662Y-83102268D01*
X231795408Y-83130031D01*
X231683708Y-83130031D01*
X231683708Y-82791445D01*
X231796260Y-82791445D01*
X231796260Y-82820709D01*
X231807459Y-82847745D01*
X231828151Y-82868437D01*
X231855187Y-82879636D01*
X231869819Y-82881077D01*
X232869819Y-82881077D01*
X232884451Y-82879636D01*
X232911487Y-82868437D01*
X232932179Y-82847745D01*
X232943378Y-82820709D01*
X232943378Y-82791445D01*
X232932179Y-82764409D01*
X232911487Y-82743717D01*
X232884451Y-82732518D01*
X232869819Y-82731077D01*
X231869819Y-82731077D01*
X231855187Y-82732518D01*
X231828151Y-82743717D01*
X231807459Y-82764409D01*
X231796260Y-82791445D01*
X231683708Y-82791445D01*
X231683708Y-81743828D01*
X231796260Y-81743828D01*
X231796260Y-81773090D01*
X231807459Y-81800127D01*
X231816786Y-81811492D01*
X232260181Y-82254887D01*
X231869819Y-82254887D01*
X231855187Y-82256328D01*
X231828151Y-82267527D01*
X231807459Y-82288219D01*
X231796260Y-82315255D01*
X231796260Y-82344519D01*
X231807459Y-82371555D01*
X231828151Y-82392247D01*
X231855187Y-82403446D01*
X231869819Y-82404887D01*
X232869819Y-82404887D01*
X232884451Y-82403446D01*
X232911487Y-82392247D01*
X232932179Y-82371555D01*
X232943378Y-82344519D01*
X232943378Y-82315255D01*
X232932179Y-82288219D01*
X232911487Y-82267527D01*
X232884451Y-82256328D01*
X232869819Y-82254887D01*
X232472313Y-82254887D01*
X232412570Y-82195144D01*
X232914819Y-81818459D01*
X232925660Y-81808527D01*
X232940570Y-81783346D01*
X232944708Y-81754377D01*
X232937446Y-81726029D01*
X232919887Y-81702618D01*
X232894706Y-81687709D01*
X232865738Y-81683570D01*
X232837389Y-81690832D01*
X232824819Y-81698459D01*
X232305427Y-82088001D01*
X231922852Y-81705426D01*
X231911487Y-81696099D01*
X231884450Y-81684900D01*
X231855188Y-81684900D01*
X231828151Y-81696099D01*
X231807459Y-81716791D01*
X231796260Y-81743828D01*
X231683708Y-81743828D01*
X231683708Y-80187030D01*
X231794819Y-80187030D01*
X231794819Y-80377506D01*
X231796260Y-80392138D01*
X231797291Y-80394627D01*
X231797482Y-80397315D01*
X231802737Y-80411047D01*
X231850356Y-80506285D01*
X231854320Y-80512584D01*
X231855078Y-80514412D01*
X231856766Y-80516468D01*
X231858188Y-80518728D01*
X231859686Y-80520027D01*
X231864405Y-80525777D01*
X231959643Y-80621015D01*
X231971008Y-80630343D01*
X231976161Y-80632477D01*
X231980640Y-80635796D01*
X231994486Y-80640743D01*
X232184962Y-80688362D01*
X232187498Y-80688737D01*
X232188520Y-80689160D01*
X232194032Y-80689702D01*
X232199506Y-80690512D01*
X232200598Y-80690349D01*
X232203152Y-80690601D01*
X232536485Y-80690601D01*
X232539038Y-80690349D01*
X232540131Y-80690512D01*
X232545604Y-80689702D01*
X232551117Y-80689160D01*
X232552138Y-80688737D01*
X232554675Y-80688362D01*
X232745151Y-80640743D01*
X232758997Y-80635796D01*
X232763476Y-80632476D01*
X232768628Y-80630343D01*
X232779994Y-80621015D01*
X232875233Y-80525777D01*
X232879953Y-80520026D01*
X232881450Y-80518728D01*
X232882869Y-80516473D01*
X232884561Y-80514412D01*
X232885319Y-80512579D01*
X232889282Y-80506285D01*
X232936901Y-80411047D01*
X232942156Y-80397316D01*
X232942347Y-80394626D01*
X232943378Y-80392138D01*
X232944819Y-80377506D01*
X232944819Y-80187030D01*
X232943378Y-80172398D01*
X232942347Y-80169909D01*
X232942156Y-80167220D01*
X232936901Y-80153489D01*
X232889282Y-80058251D01*
X232885319Y-80051956D01*
X232884561Y-80050124D01*
X232882869Y-80048062D01*
X232881450Y-80045808D01*
X232879953Y-80044509D01*
X232875233Y-80038759D01*
X232779994Y-79943521D01*
X232768628Y-79934193D01*
X232763476Y-79932059D01*
X232758997Y-79928740D01*
X232745151Y-79923793D01*
X232554675Y-79876174D01*
X232552138Y-79875798D01*
X232551117Y-79875376D01*
X232545604Y-79874833D01*
X232540131Y-79874024D01*
X232539038Y-79874186D01*
X232536485Y-79873935D01*
X232203152Y-79873935D01*
X232200598Y-79874186D01*
X232199506Y-79874024D01*
X232194032Y-79874833D01*
X232188520Y-79875376D01*
X232187498Y-79875798D01*
X232184962Y-79876174D01*
X231994486Y-79923793D01*
X231980640Y-79928740D01*
X231976161Y-79932058D01*
X231971008Y-79934193D01*
X231959643Y-79943521D01*
X231864405Y-80038759D01*
X231859686Y-80044508D01*
X231858188Y-80045808D01*
X231856766Y-80048067D01*
X231855078Y-80050124D01*
X231854320Y-80051951D01*
X231850356Y-80058251D01*
X231802737Y-80153489D01*
X231797482Y-80167221D01*
X231797291Y-80169908D01*
X231796260Y-80172398D01*
X231794819Y-80187030D01*
X231683708Y-80187030D01*
X231683708Y-78934303D01*
X231796260Y-78934303D01*
X231796260Y-78963567D01*
X231807459Y-78990603D01*
X231828151Y-79011295D01*
X231855187Y-79022494D01*
X231869819Y-79023935D01*
X232661637Y-79023935D01*
X232730153Y-79058193D01*
X232760561Y-79088600D01*
X232794819Y-79157116D01*
X232794819Y-79312182D01*
X232760561Y-79380697D01*
X232730153Y-79411104D01*
X232661637Y-79445363D01*
X231869819Y-79445363D01*
X231855187Y-79446804D01*
X231828151Y-79458003D01*
X231807459Y-79478695D01*
X231796260Y-79505731D01*
X231796260Y-79534995D01*
X231807459Y-79562031D01*
X231828151Y-79582723D01*
X231855187Y-79593922D01*
X231869819Y-79595363D01*
X232679342Y-79595363D01*
X232693974Y-79593922D01*
X232696463Y-79592890D01*
X232699151Y-79592700D01*
X232712883Y-79587445D01*
X232808121Y-79539826D01*
X232814417Y-79535862D01*
X232816247Y-79535105D01*
X232818305Y-79533415D01*
X232820564Y-79531994D01*
X232821863Y-79530495D01*
X232827612Y-79525778D01*
X232875232Y-79478159D01*
X232879950Y-79472409D01*
X232881450Y-79471109D01*
X232882872Y-79468849D01*
X232884560Y-79466793D01*
X232885317Y-79464965D01*
X232889282Y-79458666D01*
X232936901Y-79363428D01*
X232942156Y-79349697D01*
X232942347Y-79347007D01*
X232943378Y-79344519D01*
X232944819Y-79329887D01*
X232944819Y-79139411D01*
X232943378Y-79124779D01*
X232942347Y-79122290D01*
X232942156Y-79119601D01*
X232936901Y-79105870D01*
X232889282Y-79010632D01*
X232885317Y-79004332D01*
X232884560Y-79002505D01*
X232882872Y-79000448D01*
X232881450Y-78998189D01*
X232879950Y-78996888D01*
X232875232Y-78991139D01*
X232827612Y-78943520D01*
X232821863Y-78938802D01*
X232820564Y-78937304D01*
X232818305Y-78935882D01*
X232816247Y-78934193D01*
X232814417Y-78933435D01*
X232808121Y-78929472D01*
X232712883Y-78881853D01*
X232699151Y-78876598D01*
X232696463Y-78876407D01*
X232693974Y-78875376D01*
X232679342Y-78873935D01*
X231869819Y-78873935D01*
X231855187Y-78875376D01*
X231828151Y-78886575D01*
X231807459Y-78907267D01*
X231796260Y-78934303D01*
X231683708Y-78934303D01*
X231683708Y-78044173D01*
X231794819Y-78044173D01*
X231794819Y-78615601D01*
X231796260Y-78630233D01*
X231807459Y-78657269D01*
X231828151Y-78677961D01*
X231855187Y-78689160D01*
X231884451Y-78689160D01*
X231911487Y-78677961D01*
X231932179Y-78657269D01*
X231943378Y-78630233D01*
X231944819Y-78615601D01*
X231944819Y-78404887D01*
X232869819Y-78404887D01*
X232884451Y-78403446D01*
X232911487Y-78392247D01*
X232932179Y-78371555D01*
X232943378Y-78344519D01*
X232943378Y-78315255D01*
X232932179Y-78288219D01*
X232911487Y-78267527D01*
X232884451Y-78256328D01*
X232869819Y-78254887D01*
X231944819Y-78254887D01*
X231944819Y-78044173D01*
X231943378Y-78029541D01*
X231932179Y-78002505D01*
X231911487Y-77981813D01*
X231884451Y-77970614D01*
X231855187Y-77970614D01*
X231828151Y-77981813D01*
X231807459Y-78002505D01*
X231796260Y-78029541D01*
X231794819Y-78044173D01*
X231683708Y-78044173D01*
X231683708Y-76293656D01*
X231795689Y-76293656D01*
X231796260Y-76295226D01*
X231796260Y-76296900D01*
X231801241Y-76308926D01*
X231805689Y-76321157D01*
X231806818Y-76322390D01*
X231807459Y-76323936D01*
X231816664Y-76333141D01*
X231825453Y-76342738D01*
X231827435Y-76343912D01*
X231828151Y-76344628D01*
X231829787Y-76345306D01*
X231838103Y-76350232D01*
X232406750Y-76615601D01*
X231838103Y-76880970D01*
X231829787Y-76885895D01*
X231828151Y-76886574D01*
X231827435Y-76887289D01*
X231825453Y-76888464D01*
X231816664Y-76898060D01*
X231807459Y-76907266D01*
X231806818Y-76908811D01*
X231805689Y-76910045D01*
X231801241Y-76922275D01*
X231796260Y-76934302D01*
X231796260Y-76935975D01*
X231795689Y-76937546D01*
X231796260Y-76950547D01*
X231796260Y-76963566D01*
X231796899Y-76965110D01*
X231796973Y-76966782D01*
X231802479Y-76978580D01*
X231807459Y-76990602D01*
X231808641Y-76991784D01*
X231809349Y-76993300D01*
X231818945Y-77002088D01*
X231828151Y-77011294D01*
X231829696Y-77011934D01*
X231830930Y-77013064D01*
X231843160Y-77017511D01*
X231855187Y-77022493D01*
X231857482Y-77022719D01*
X231858431Y-77023064D01*
X231860197Y-77022986D01*
X231869819Y-77023934D01*
X232869819Y-77023934D01*
X232884451Y-77022493D01*
X232911487Y-77011294D01*
X232932179Y-76990602D01*
X232943378Y-76963566D01*
X232943378Y-76934302D01*
X232932179Y-76907266D01*
X232911487Y-76886574D01*
X232884451Y-76875375D01*
X232869819Y-76873934D01*
X232207887Y-76873934D01*
X232615821Y-76683565D01*
X232621180Y-76680390D01*
X232622993Y-76679731D01*
X232624275Y-76678556D01*
X232628471Y-76676071D01*
X232636168Y-76667665D01*
X232644575Y-76659967D01*
X232645984Y-76656946D01*
X232648234Y-76654490D01*
X232652128Y-76643780D01*
X232656950Y-76633449D01*
X232657096Y-76630120D01*
X232658235Y-76626989D01*
X232657734Y-76615601D01*
X232658235Y-76604213D01*
X232657096Y-76601081D01*
X232656950Y-76597753D01*
X232652128Y-76587421D01*
X232648234Y-76576712D01*
X232645984Y-76574255D01*
X232644575Y-76571235D01*
X232636168Y-76563536D01*
X232628471Y-76555131D01*
X232624275Y-76552645D01*
X232622993Y-76551471D01*
X232621180Y-76550811D01*
X232615821Y-76547637D01*
X232207887Y-76357268D01*
X232869819Y-76357268D01*
X232884451Y-76355827D01*
X232911487Y-76344628D01*
X232932179Y-76323936D01*
X232943378Y-76296900D01*
X232943378Y-76267636D01*
X232932179Y-76240600D01*
X232911487Y-76219908D01*
X232884451Y-76208709D01*
X232869819Y-76207268D01*
X231869819Y-76207268D01*
X231860197Y-76208215D01*
X231858431Y-76208138D01*
X231857482Y-76208482D01*
X231855187Y-76208709D01*
X231843160Y-76213690D01*
X231830930Y-76218138D01*
X231829696Y-76219267D01*
X231828151Y-76219908D01*
X231818945Y-76229113D01*
X231809349Y-76237902D01*
X231808641Y-76239417D01*
X231807459Y-76240600D01*
X231802479Y-76252621D01*
X231796973Y-76264420D01*
X231796899Y-76266091D01*
X231796260Y-76267636D01*
X231796260Y-76280654D01*
X231795689Y-76293656D01*
X231683708Y-76293656D01*
X231683708Y-75606221D01*
X231795408Y-75606221D01*
X231796074Y-75615601D01*
X231795408Y-75624981D01*
X231797103Y-75630066D01*
X231797483Y-75635411D01*
X231801687Y-75643820D01*
X231804662Y-75652744D01*
X231808173Y-75656792D01*
X231810569Y-75661584D01*
X231817673Y-75667746D01*
X231823836Y-75674851D01*
X231828627Y-75677246D01*
X231832676Y-75680758D01*
X231846102Y-75686752D01*
X232846102Y-76020085D01*
X232860438Y-76023345D01*
X232889628Y-76021270D01*
X232915802Y-76008184D01*
X232934976Y-75986076D01*
X232944230Y-75958314D01*
X232942155Y-75929124D01*
X232929068Y-75902951D01*
X232906961Y-75883777D01*
X232893536Y-75877783D01*
X232659104Y-75799639D01*
X232659104Y-75431562D01*
X232893536Y-75353419D01*
X232906961Y-75347425D01*
X232929068Y-75328251D01*
X232942155Y-75302078D01*
X232944230Y-75272888D01*
X232934976Y-75245126D01*
X232915802Y-75223018D01*
X232889628Y-75209932D01*
X232860438Y-75207857D01*
X232846102Y-75211117D01*
X231846102Y-75544450D01*
X231832676Y-75550444D01*
X231828627Y-75553955D01*
X231823836Y-75556351D01*
X231817673Y-75563455D01*
X231810569Y-75569618D01*
X231808173Y-75574409D01*
X231804662Y-75578458D01*
X231801687Y-75587381D01*
X231797483Y-75595791D01*
X231797103Y-75601135D01*
X231795408Y-75606221D01*
X231683708Y-75606221D01*
X231683708Y-74520363D01*
X231794819Y-74520363D01*
X231794819Y-75091791D01*
X231796260Y-75106423D01*
X231807459Y-75133459D01*
X231828151Y-75154151D01*
X231855187Y-75165350D01*
X231884451Y-75165350D01*
X231911487Y-75154151D01*
X231932179Y-75133459D01*
X231943378Y-75106423D01*
X231944819Y-75091791D01*
X231944819Y-74881077D01*
X232869819Y-74881077D01*
X232884451Y-74879636D01*
X232911487Y-74868437D01*
X232932179Y-74847745D01*
X232943378Y-74820709D01*
X232943378Y-74791445D01*
X232932179Y-74764409D01*
X232911487Y-74743717D01*
X232884451Y-74732518D01*
X232869819Y-74731077D01*
X231944819Y-74731077D01*
X231944819Y-74520363D01*
X231943378Y-74505731D01*
X231932179Y-74478695D01*
X231911487Y-74458003D01*
X231884451Y-74446804D01*
X231855187Y-74446804D01*
X231828151Y-74458003D01*
X231807459Y-74478695D01*
X231796260Y-74505731D01*
X231794819Y-74520363D01*
X231683708Y-74520363D01*
X231683708Y-74335693D01*
X233055930Y-74335693D01*
X233055930Y-83991599D01*
G37*
X234452381Y-81454819D02*
X234452381Y-82264342D01*
X234452381Y-82264342D02*
X234500000Y-82359580D01*
X234500000Y-82359580D02*
X234547619Y-82407200D01*
X234547619Y-82407200D02*
X234642857Y-82454819D01*
X234642857Y-82454819D02*
X234833333Y-82454819D01*
X234833333Y-82454819D02*
X234928571Y-82407200D01*
X234928571Y-82407200D02*
X234976190Y-82359580D01*
X234976190Y-82359580D02*
X235023809Y-82264342D01*
X235023809Y-82264342D02*
X235023809Y-81454819D01*
X235261905Y-82550057D02*
X236023809Y-82550057D01*
X236833333Y-82359580D02*
X236785714Y-82407200D01*
X236785714Y-82407200D02*
X236642857Y-82454819D01*
X236642857Y-82454819D02*
X236547619Y-82454819D01*
X236547619Y-82454819D02*
X236404762Y-82407200D01*
X236404762Y-82407200D02*
X236309524Y-82311961D01*
X236309524Y-82311961D02*
X236261905Y-82216723D01*
X236261905Y-82216723D02*
X236214286Y-82026247D01*
X236214286Y-82026247D02*
X236214286Y-81883390D01*
X236214286Y-81883390D02*
X236261905Y-81692914D01*
X236261905Y-81692914D02*
X236309524Y-81597676D01*
X236309524Y-81597676D02*
X236404762Y-81502438D01*
X236404762Y-81502438D02*
X236547619Y-81454819D01*
X236547619Y-81454819D02*
X236642857Y-81454819D01*
X236642857Y-81454819D02*
X236785714Y-81502438D01*
X236785714Y-81502438D02*
X236833333Y-81550057D01*
X237261905Y-82454819D02*
X237261905Y-81454819D01*
X237261905Y-81931009D02*
X237833333Y-81931009D01*
X237833333Y-82454819D02*
X237833333Y-81454819D01*
X238833333Y-81502438D02*
X238738095Y-81454819D01*
X238738095Y-81454819D02*
X238595238Y-81454819D01*
X238595238Y-81454819D02*
X238452381Y-81502438D01*
X238452381Y-81502438D02*
X238357143Y-81597676D01*
X238357143Y-81597676D02*
X238309524Y-81692914D01*
X238309524Y-81692914D02*
X238261905Y-81883390D01*
X238261905Y-81883390D02*
X238261905Y-82026247D01*
X238261905Y-82026247D02*
X238309524Y-82216723D01*
X238309524Y-82216723D02*
X238357143Y-82311961D01*
X238357143Y-82311961D02*
X238452381Y-82407200D01*
X238452381Y-82407200D02*
X238595238Y-82454819D01*
X238595238Y-82454819D02*
X238690476Y-82454819D01*
X238690476Y-82454819D02*
X238833333Y-82407200D01*
X238833333Y-82407200D02*
X238880952Y-82359580D01*
X238880952Y-82359580D02*
X238880952Y-82026247D01*
X238880952Y-82026247D02*
X238690476Y-82026247D01*
X239071429Y-82550057D02*
X239833333Y-82550057D01*
X240595238Y-82454819D02*
X240023810Y-82454819D01*
X240309524Y-82454819D02*
X240309524Y-81454819D01*
X240309524Y-81454819D02*
X240214286Y-81597676D01*
X240214286Y-81597676D02*
X240119048Y-81692914D01*
X240119048Y-81692914D02*
X240023810Y-81740533D01*
G36*
X167893009Y-82884398D02*
G01*
X167490895Y-83018436D01*
X167490895Y-82750359D01*
X167893009Y-82884398D01*
G37*
G36*
X167948979Y-77999739D02*
G01*
X168020922Y-78071682D01*
X168055180Y-78140198D01*
X168055180Y-78295264D01*
X168020922Y-78363780D01*
X167948979Y-78435722D01*
X167787613Y-78476064D01*
X167472748Y-78476064D01*
X167311381Y-78435722D01*
X167239438Y-78363779D01*
X167205180Y-78295262D01*
X167205180Y-78140199D01*
X167239438Y-78071682D01*
X167311381Y-77999739D01*
X167472748Y-77959398D01*
X167787613Y-77959398D01*
X167948979Y-77999739D01*
G37*
G36*
X168316291Y-84164306D02*
G01*
X166944069Y-84164306D01*
X166944069Y-83679290D01*
X167056621Y-83679290D01*
X167056621Y-83708554D01*
X167067820Y-83735590D01*
X167088512Y-83756282D01*
X167115548Y-83767481D01*
X167130180Y-83768922D01*
X168055180Y-83768922D01*
X168055180Y-83979636D01*
X168056621Y-83994268D01*
X168067820Y-84021304D01*
X168088512Y-84041996D01*
X168115548Y-84053195D01*
X168144812Y-84053195D01*
X168171848Y-84041996D01*
X168192540Y-84021304D01*
X168203739Y-83994268D01*
X168205180Y-83979636D01*
X168205180Y-83408208D01*
X168203739Y-83393576D01*
X168192540Y-83366540D01*
X168171848Y-83345848D01*
X168144812Y-83334649D01*
X168115548Y-83334649D01*
X168088512Y-83345848D01*
X168067820Y-83366540D01*
X168056621Y-83393576D01*
X168055180Y-83408208D01*
X168055180Y-83618922D01*
X167130180Y-83618922D01*
X167115548Y-83620363D01*
X167088512Y-83631562D01*
X167067820Y-83652254D01*
X167056621Y-83679290D01*
X166944069Y-83679290D01*
X166944069Y-82541685D01*
X167055769Y-82541685D01*
X167057844Y-82570875D01*
X167070930Y-82597048D01*
X167093037Y-82616222D01*
X167106463Y-82622216D01*
X167340895Y-82700359D01*
X167340895Y-83068436D01*
X167106463Y-83146580D01*
X167093037Y-83152574D01*
X167070930Y-83171748D01*
X167057844Y-83197921D01*
X167055769Y-83227111D01*
X167065023Y-83254874D01*
X167084197Y-83276981D01*
X167110370Y-83290067D01*
X167139560Y-83292142D01*
X167153897Y-83288882D01*
X168153897Y-82955549D01*
X168167322Y-82949555D01*
X168171369Y-82946044D01*
X168176163Y-82943648D01*
X168182327Y-82936540D01*
X168189429Y-82930381D01*
X168191824Y-82925589D01*
X168195337Y-82921540D01*
X168198311Y-82912617D01*
X168202516Y-82904208D01*
X168202895Y-82898863D01*
X168204591Y-82893778D01*
X168203924Y-82884398D01*
X168204591Y-82875018D01*
X168202895Y-82869932D01*
X168202516Y-82864588D01*
X168198311Y-82856178D01*
X168195337Y-82847256D01*
X168191824Y-82843206D01*
X168189429Y-82838415D01*
X168182327Y-82832255D01*
X168176163Y-82825148D01*
X168171369Y-82822751D01*
X168167322Y-82819241D01*
X168153897Y-82813247D01*
X167153897Y-82479914D01*
X167139560Y-82476654D01*
X167110370Y-82478729D01*
X167084197Y-82491815D01*
X167065023Y-82513922D01*
X167055769Y-82541685D01*
X166944069Y-82541685D01*
X166944069Y-81536433D01*
X167056621Y-81536433D01*
X167056621Y-81565697D01*
X167067820Y-81592733D01*
X167088512Y-81613425D01*
X167115548Y-81624624D01*
X167130180Y-81626065D01*
X167792113Y-81626065D01*
X167384179Y-81816434D01*
X167378821Y-81819607D01*
X167377006Y-81820268D01*
X167375721Y-81821444D01*
X167371529Y-81823928D01*
X167363830Y-81832333D01*
X167355425Y-81840032D01*
X167354016Y-81843051D01*
X167351765Y-81845509D01*
X167347870Y-81856218D01*
X167343049Y-81866550D01*
X167342902Y-81869881D01*
X167341765Y-81873010D01*
X167342265Y-81884398D01*
X167341765Y-81895786D01*
X167342902Y-81898914D01*
X167343049Y-81902246D01*
X167347870Y-81912577D01*
X167351765Y-81923287D01*
X167354016Y-81925744D01*
X167355425Y-81928764D01*
X167363830Y-81936462D01*
X167371529Y-81944868D01*
X167375721Y-81947351D01*
X167377006Y-81948528D01*
X167378821Y-81949188D01*
X167384179Y-81952362D01*
X167792113Y-82142731D01*
X167130180Y-82142731D01*
X167115548Y-82144172D01*
X167088512Y-82155371D01*
X167067820Y-82176063D01*
X167056621Y-82203099D01*
X167056621Y-82232363D01*
X167067820Y-82259399D01*
X167088512Y-82280091D01*
X167115548Y-82291290D01*
X167130180Y-82292731D01*
X168130180Y-82292731D01*
X168139801Y-82291783D01*
X168141568Y-82291861D01*
X168142516Y-82291516D01*
X168144812Y-82291290D01*
X168156838Y-82286308D01*
X168169069Y-82281861D01*
X168170302Y-82280731D01*
X168171848Y-82280091D01*
X168181047Y-82270891D01*
X168190651Y-82262097D01*
X168191358Y-82260580D01*
X168192540Y-82259399D01*
X168197516Y-82247386D01*
X168203026Y-82235579D01*
X168203099Y-82233906D01*
X168203739Y-82232363D01*
X168203739Y-82219357D01*
X168204311Y-82206343D01*
X168203739Y-82204770D01*
X168203739Y-82203099D01*
X168198760Y-82191080D01*
X168194310Y-82178842D01*
X168193179Y-82177608D01*
X168192540Y-82176063D01*
X168183341Y-82166864D01*
X168174547Y-82157261D01*
X168172562Y-82156085D01*
X168171848Y-82155371D01*
X168170214Y-82154694D01*
X168161897Y-82149767D01*
X167593248Y-81884398D01*
X168161897Y-81619029D01*
X168170214Y-81614101D01*
X168171848Y-81613425D01*
X168172562Y-81612710D01*
X168174547Y-81611535D01*
X168183341Y-81601931D01*
X168192540Y-81592733D01*
X168193179Y-81591187D01*
X168194310Y-81589954D01*
X168198760Y-81577715D01*
X168203739Y-81565697D01*
X168203739Y-81564025D01*
X168204311Y-81562453D01*
X168203739Y-81549438D01*
X168203739Y-81536433D01*
X168203099Y-81534889D01*
X168203026Y-81533217D01*
X168197516Y-81521409D01*
X168192540Y-81509397D01*
X168191358Y-81508215D01*
X168190651Y-81506699D01*
X168181047Y-81497904D01*
X168171848Y-81488705D01*
X168170302Y-81488064D01*
X168169069Y-81486935D01*
X168156838Y-81482487D01*
X168144812Y-81477506D01*
X168142516Y-81477279D01*
X168141568Y-81476935D01*
X168139801Y-81477012D01*
X168130180Y-81476065D01*
X167130180Y-81476065D01*
X167115548Y-81477506D01*
X167088512Y-81488705D01*
X167067820Y-81509397D01*
X167056621Y-81536433D01*
X166944069Y-81536433D01*
X166944069Y-80155480D01*
X167056621Y-80155480D01*
X167056621Y-80184744D01*
X167067820Y-80211780D01*
X167088512Y-80232472D01*
X167115548Y-80243671D01*
X167130180Y-80245112D01*
X168055180Y-80245112D01*
X168055180Y-80455826D01*
X168056621Y-80470458D01*
X168067820Y-80497494D01*
X168088512Y-80518186D01*
X168115548Y-80529385D01*
X168144812Y-80529385D01*
X168171848Y-80518186D01*
X168192540Y-80497494D01*
X168203739Y-80470458D01*
X168205180Y-80455826D01*
X168205180Y-79884398D01*
X168203739Y-79869766D01*
X168192540Y-79842730D01*
X168171848Y-79822038D01*
X168144812Y-79810839D01*
X168115548Y-79810839D01*
X168088512Y-79822038D01*
X168067820Y-79842730D01*
X168056621Y-79869766D01*
X168055180Y-79884398D01*
X168055180Y-80095112D01*
X167130180Y-80095112D01*
X167115548Y-80096553D01*
X167088512Y-80107752D01*
X167067820Y-80128444D01*
X167056621Y-80155480D01*
X166944069Y-80155480D01*
X166944069Y-79170112D01*
X167055180Y-79170112D01*
X167055180Y-79360588D01*
X167056621Y-79375220D01*
X167057651Y-79377708D01*
X167057843Y-79380398D01*
X167063098Y-79394130D01*
X167110718Y-79489368D01*
X167114683Y-79495666D01*
X167115440Y-79497494D01*
X167117128Y-79499551D01*
X167118551Y-79501811D01*
X167120049Y-79503110D01*
X167124767Y-79508859D01*
X167172386Y-79556478D01*
X167178135Y-79561196D01*
X167179435Y-79562695D01*
X167181694Y-79564116D01*
X167183751Y-79565805D01*
X167185578Y-79566562D01*
X167191878Y-79570527D01*
X167287116Y-79618146D01*
X167300847Y-79623401D01*
X167303536Y-79623592D01*
X167306025Y-79624623D01*
X167320657Y-79626064D01*
X168130180Y-79626064D01*
X168144812Y-79624623D01*
X168171848Y-79613424D01*
X168192540Y-79592732D01*
X168203739Y-79565696D01*
X168203739Y-79536432D01*
X168192540Y-79509396D01*
X168171848Y-79488704D01*
X168144812Y-79477505D01*
X168130180Y-79476064D01*
X167338362Y-79476064D01*
X167269846Y-79441806D01*
X167239438Y-79411398D01*
X167205180Y-79342881D01*
X167205180Y-79187818D01*
X167239438Y-79119301D01*
X167269846Y-79088894D01*
X167338362Y-79054636D01*
X168130180Y-79054636D01*
X168144812Y-79053195D01*
X168171848Y-79041996D01*
X168192540Y-79021304D01*
X168203739Y-78994268D01*
X168203739Y-78965004D01*
X168192540Y-78937968D01*
X168171848Y-78917276D01*
X168144812Y-78906077D01*
X168130180Y-78904636D01*
X167320657Y-78904636D01*
X167306025Y-78906077D01*
X167303536Y-78907107D01*
X167300847Y-78907299D01*
X167287116Y-78912554D01*
X167191878Y-78960173D01*
X167185578Y-78964137D01*
X167183751Y-78964895D01*
X167181694Y-78966583D01*
X167179435Y-78968005D01*
X167178135Y-78969503D01*
X167172386Y-78974222D01*
X167124767Y-79021841D01*
X167120049Y-79027589D01*
X167118551Y-79028889D01*
X167117128Y-79031148D01*
X167115440Y-79033206D01*
X167114683Y-79035033D01*
X167110718Y-79041332D01*
X167063098Y-79136570D01*
X167057843Y-79150302D01*
X167057651Y-79152991D01*
X167056621Y-79155480D01*
X167055180Y-79170112D01*
X166944069Y-79170112D01*
X166944069Y-78122493D01*
X167055180Y-78122493D01*
X167055180Y-78312969D01*
X167056621Y-78327601D01*
X167057651Y-78330089D01*
X167057843Y-78332779D01*
X167063098Y-78346511D01*
X167110718Y-78441749D01*
X167114683Y-78448047D01*
X167115440Y-78449875D01*
X167117128Y-78451932D01*
X167118551Y-78454192D01*
X167120049Y-78455491D01*
X167124767Y-78461240D01*
X167220005Y-78556478D01*
X167231370Y-78565806D01*
X167236523Y-78567940D01*
X167241002Y-78571259D01*
X167254848Y-78576206D01*
X167445324Y-78623825D01*
X167447860Y-78624200D01*
X167448882Y-78624623D01*
X167454394Y-78625165D01*
X167459868Y-78625975D01*
X167460960Y-78625812D01*
X167463514Y-78626064D01*
X167796847Y-78626064D01*
X167799400Y-78625812D01*
X167800493Y-78625975D01*
X167805966Y-78625165D01*
X167811479Y-78624623D01*
X167812500Y-78624200D01*
X167815037Y-78623825D01*
X168005513Y-78576206D01*
X168019359Y-78571259D01*
X168023840Y-78567938D01*
X168028991Y-78565805D01*
X168040356Y-78556478D01*
X168135594Y-78461240D01*
X168140314Y-78455489D01*
X168141811Y-78454191D01*
X168143230Y-78451936D01*
X168144922Y-78449875D01*
X168145680Y-78448042D01*
X168149643Y-78441748D01*
X168197262Y-78346510D01*
X168202517Y-78332779D01*
X168202708Y-78330089D01*
X168203739Y-78327601D01*
X168205180Y-78312969D01*
X168205180Y-78122493D01*
X168203739Y-78107861D01*
X168202708Y-78105372D01*
X168202517Y-78102683D01*
X168197262Y-78088952D01*
X168149643Y-77993714D01*
X168145680Y-77987419D01*
X168144922Y-77985587D01*
X168143230Y-77983525D01*
X168141811Y-77981271D01*
X168140314Y-77979972D01*
X168135594Y-77974222D01*
X168040356Y-77878984D01*
X168028991Y-77869657D01*
X168023840Y-77867523D01*
X168019359Y-77864203D01*
X168005513Y-77859256D01*
X167815037Y-77811637D01*
X167812500Y-77811261D01*
X167811479Y-77810839D01*
X167805966Y-77810296D01*
X167800493Y-77809487D01*
X167799400Y-77809649D01*
X167796847Y-77809398D01*
X167463514Y-77809398D01*
X167460960Y-77809649D01*
X167459868Y-77809487D01*
X167454394Y-77810296D01*
X167448882Y-77810839D01*
X167447860Y-77811261D01*
X167445324Y-77811637D01*
X167254848Y-77859256D01*
X167241002Y-77864203D01*
X167236523Y-77867521D01*
X167231370Y-77869656D01*
X167220005Y-77878984D01*
X167124767Y-77974222D01*
X167120049Y-77979970D01*
X167118551Y-77981270D01*
X167117128Y-77983529D01*
X167115440Y-77985587D01*
X167114683Y-77987414D01*
X167110718Y-77993713D01*
X167063098Y-78088951D01*
X167057843Y-78102683D01*
X167057651Y-78105372D01*
X167056621Y-78107861D01*
X167055180Y-78122493D01*
X166944069Y-78122493D01*
X166944069Y-76745622D01*
X167055291Y-76745622D01*
X167062554Y-76773970D01*
X167080112Y-76797381D01*
X167105293Y-76812290D01*
X167134262Y-76816429D01*
X167162610Y-76809166D01*
X167175180Y-76801540D01*
X167694571Y-76411997D01*
X168077147Y-76794573D01*
X168088512Y-76803900D01*
X168115548Y-76815099D01*
X168144811Y-76815099D01*
X168171848Y-76803900D01*
X168192540Y-76783208D01*
X168203739Y-76756171D01*
X168203739Y-76726908D01*
X168192540Y-76699872D01*
X168183213Y-76688507D01*
X167739818Y-76245112D01*
X168130180Y-76245112D01*
X168144812Y-76243671D01*
X168171848Y-76232472D01*
X168192540Y-76211780D01*
X168203739Y-76184744D01*
X168203739Y-76155480D01*
X168192540Y-76128444D01*
X168171848Y-76107752D01*
X168144812Y-76096553D01*
X168130180Y-76095112D01*
X167130180Y-76095112D01*
X167115548Y-76096553D01*
X167088512Y-76107752D01*
X167067820Y-76128444D01*
X167056621Y-76155480D01*
X167056621Y-76184744D01*
X167067820Y-76211780D01*
X167088512Y-76232472D01*
X167115548Y-76243671D01*
X167130180Y-76245112D01*
X167527686Y-76245112D01*
X167587428Y-76304854D01*
X167085180Y-76681540D01*
X167074339Y-76691472D01*
X167059430Y-76716653D01*
X167055291Y-76745622D01*
X166944069Y-76745622D01*
X166944069Y-75679290D01*
X167056621Y-75679290D01*
X167056621Y-75708554D01*
X167067820Y-75735590D01*
X167088512Y-75756282D01*
X167115548Y-75767481D01*
X167130180Y-75768922D01*
X168130180Y-75768922D01*
X168144812Y-75767481D01*
X168171848Y-75756282D01*
X168192540Y-75735590D01*
X168203739Y-75708554D01*
X168203739Y-75679290D01*
X168192540Y-75652254D01*
X168171848Y-75631562D01*
X168144812Y-75620363D01*
X168130180Y-75618922D01*
X167130180Y-75618922D01*
X167115548Y-75620363D01*
X167088512Y-75631562D01*
X167067820Y-75652254D01*
X167056621Y-75679290D01*
X166944069Y-75679290D01*
X166944069Y-75017875D01*
X167055769Y-75017875D01*
X167056435Y-75027255D01*
X167055769Y-75036635D01*
X167057464Y-75041720D01*
X167057844Y-75047065D01*
X167062048Y-75055474D01*
X167065023Y-75064398D01*
X167068534Y-75068446D01*
X167070930Y-75073238D01*
X167078034Y-75079400D01*
X167084197Y-75086505D01*
X167088988Y-75088900D01*
X167093037Y-75092412D01*
X167106463Y-75098406D01*
X168106463Y-75431739D01*
X168120799Y-75434999D01*
X168149989Y-75432924D01*
X168176163Y-75419838D01*
X168195337Y-75397730D01*
X168204591Y-75369968D01*
X168202516Y-75340778D01*
X168189429Y-75314605D01*
X168167322Y-75295431D01*
X168153897Y-75289437D01*
X167367350Y-75027255D01*
X168153897Y-74765073D01*
X168167322Y-74759079D01*
X168189429Y-74739905D01*
X168202516Y-74713732D01*
X168204591Y-74684542D01*
X168195337Y-74656780D01*
X168176163Y-74634672D01*
X168149989Y-74621586D01*
X168120799Y-74619511D01*
X168106463Y-74622771D01*
X167106463Y-74956104D01*
X167093037Y-74962098D01*
X167088988Y-74965609D01*
X167084197Y-74968005D01*
X167078034Y-74975109D01*
X167070930Y-74981272D01*
X167068534Y-74986063D01*
X167065023Y-74990112D01*
X167062048Y-74999035D01*
X167057844Y-75007445D01*
X167057464Y-75012789D01*
X167055769Y-75017875D01*
X166944069Y-75017875D01*
X166944069Y-74508400D01*
X168316291Y-74508400D01*
X168316291Y-84164306D01*
G37*
X176735583Y-73355826D02*
X176735583Y-73820112D01*
X176735583Y-73820112D02*
X176449869Y-73570112D01*
X176449869Y-73570112D02*
X176449869Y-73677255D01*
X176449869Y-73677255D02*
X176414155Y-73748684D01*
X176414155Y-73748684D02*
X176378440Y-73784398D01*
X176378440Y-73784398D02*
X176307012Y-73820112D01*
X176307012Y-73820112D02*
X176128440Y-73820112D01*
X176128440Y-73820112D02*
X176057012Y-73784398D01*
X176057012Y-73784398D02*
X176021298Y-73748684D01*
X176021298Y-73748684D02*
X175985583Y-73677255D01*
X175985583Y-73677255D02*
X175985583Y-73462969D01*
X175985583Y-73462969D02*
X176021298Y-73391541D01*
X176021298Y-73391541D02*
X176057012Y-73355826D01*
X176485583Y-74070112D02*
X175985583Y-74248684D01*
X175985583Y-74248684D02*
X176485583Y-74427255D01*
X176735583Y-74641541D02*
X176735583Y-75105827D01*
X176735583Y-75105827D02*
X176449869Y-74855827D01*
X176449869Y-74855827D02*
X176449869Y-74962970D01*
X176449869Y-74962970D02*
X176414155Y-75034399D01*
X176414155Y-75034399D02*
X176378440Y-75070113D01*
X176378440Y-75070113D02*
X176307012Y-75105827D01*
X176307012Y-75105827D02*
X176128440Y-75105827D01*
X176128440Y-75105827D02*
X176057012Y-75070113D01*
X176057012Y-75070113D02*
X176021298Y-75034399D01*
X176021298Y-75034399D02*
X175985583Y-74962970D01*
X175985583Y-74962970D02*
X175985583Y-74748684D01*
X175985583Y-74748684D02*
X176021298Y-74677256D01*
X176021298Y-74677256D02*
X176057012Y-74641541D01*
X90880952Y-41954819D02*
X90880952Y-42764342D01*
X90880952Y-42764342D02*
X90928571Y-42859580D01*
X90928571Y-42859580D02*
X90976190Y-42907200D01*
X90976190Y-42907200D02*
X91071428Y-42954819D01*
X91071428Y-42954819D02*
X91261904Y-42954819D01*
X91261904Y-42954819D02*
X91357142Y-42907200D01*
X91357142Y-42907200D02*
X91404761Y-42859580D01*
X91404761Y-42859580D02*
X91452380Y-42764342D01*
X91452380Y-42764342D02*
X91452380Y-41954819D01*
X91690476Y-43050057D02*
X92452380Y-43050057D01*
X92690476Y-42954819D02*
X92690476Y-41954819D01*
X92690476Y-41954819D02*
X93071428Y-41954819D01*
X93071428Y-41954819D02*
X93166666Y-42002438D01*
X93166666Y-42002438D02*
X93214285Y-42050057D01*
X93214285Y-42050057D02*
X93261904Y-42145295D01*
X93261904Y-42145295D02*
X93261904Y-42288152D01*
X93261904Y-42288152D02*
X93214285Y-42383390D01*
X93214285Y-42383390D02*
X93166666Y-42431009D01*
X93166666Y-42431009D02*
X93071428Y-42478628D01*
X93071428Y-42478628D02*
X92690476Y-42478628D01*
X93880952Y-41954819D02*
X94071428Y-41954819D01*
X94071428Y-41954819D02*
X94166666Y-42002438D01*
X94166666Y-42002438D02*
X94261904Y-42097676D01*
X94261904Y-42097676D02*
X94309523Y-42288152D01*
X94309523Y-42288152D02*
X94309523Y-42621485D01*
X94309523Y-42621485D02*
X94261904Y-42811961D01*
X94261904Y-42811961D02*
X94166666Y-42907200D01*
X94166666Y-42907200D02*
X94071428Y-42954819D01*
X94071428Y-42954819D02*
X93880952Y-42954819D01*
X93880952Y-42954819D02*
X93785714Y-42907200D01*
X93785714Y-42907200D02*
X93690476Y-42811961D01*
X93690476Y-42811961D02*
X93642857Y-42621485D01*
X93642857Y-42621485D02*
X93642857Y-42288152D01*
X93642857Y-42288152D02*
X93690476Y-42097676D01*
X93690476Y-42097676D02*
X93785714Y-42002438D01*
X93785714Y-42002438D02*
X93880952Y-41954819D01*
X94642857Y-41954819D02*
X94880952Y-42954819D01*
X94880952Y-42954819D02*
X95071428Y-42240533D01*
X95071428Y-42240533D02*
X95261904Y-42954819D01*
X95261904Y-42954819D02*
X95500000Y-41954819D01*
X95642857Y-43050057D02*
X96404761Y-43050057D01*
X97166666Y-42954819D02*
X96595238Y-42954819D01*
X96880952Y-42954819D02*
X96880952Y-41954819D01*
X96880952Y-41954819D02*
X96785714Y-42097676D01*
X96785714Y-42097676D02*
X96690476Y-42192914D01*
X96690476Y-42192914D02*
X96595238Y-42240533D01*
X244817319Y-98523809D02*
X244341128Y-98857142D01*
X244817319Y-99095237D02*
X243817319Y-99095237D01*
X243817319Y-99095237D02*
X243817319Y-98714285D01*
X243817319Y-98714285D02*
X243864938Y-98619047D01*
X243864938Y-98619047D02*
X243912557Y-98571428D01*
X243912557Y-98571428D02*
X244007795Y-98523809D01*
X244007795Y-98523809D02*
X244150652Y-98523809D01*
X244150652Y-98523809D02*
X244245890Y-98571428D01*
X244245890Y-98571428D02*
X244293509Y-98619047D01*
X244293509Y-98619047D02*
X244341128Y-98714285D01*
X244341128Y-98714285D02*
X244341128Y-99095237D01*
X244912557Y-98333333D02*
X244912557Y-97571428D01*
X244817319Y-97333332D02*
X243817319Y-97333332D01*
X243817319Y-97333332D02*
X243817319Y-96952380D01*
X243817319Y-96952380D02*
X243864938Y-96857142D01*
X243864938Y-96857142D02*
X243912557Y-96809523D01*
X243912557Y-96809523D02*
X244007795Y-96761904D01*
X244007795Y-96761904D02*
X244150652Y-96761904D01*
X244150652Y-96761904D02*
X244245890Y-96809523D01*
X244245890Y-96809523D02*
X244293509Y-96857142D01*
X244293509Y-96857142D02*
X244341128Y-96952380D01*
X244341128Y-96952380D02*
X244341128Y-97333332D01*
X243817319Y-96142856D02*
X243817319Y-95952380D01*
X243817319Y-95952380D02*
X243864938Y-95857142D01*
X243864938Y-95857142D02*
X243960176Y-95761904D01*
X243960176Y-95761904D02*
X244150652Y-95714285D01*
X244150652Y-95714285D02*
X244483985Y-95714285D01*
X244483985Y-95714285D02*
X244674461Y-95761904D01*
X244674461Y-95761904D02*
X244769700Y-95857142D01*
X244769700Y-95857142D02*
X244817319Y-95952380D01*
X244817319Y-95952380D02*
X244817319Y-96142856D01*
X244817319Y-96142856D02*
X244769700Y-96238094D01*
X244769700Y-96238094D02*
X244674461Y-96333332D01*
X244674461Y-96333332D02*
X244483985Y-96380951D01*
X244483985Y-96380951D02*
X244150652Y-96380951D01*
X244150652Y-96380951D02*
X243960176Y-96333332D01*
X243960176Y-96333332D02*
X243864938Y-96238094D01*
X243864938Y-96238094D02*
X243817319Y-96142856D01*
X243817319Y-95380951D02*
X244817319Y-95142856D01*
X244817319Y-95142856D02*
X244103033Y-94952380D01*
X244103033Y-94952380D02*
X244817319Y-94761904D01*
X244817319Y-94761904D02*
X243817319Y-94523809D01*
X244912557Y-94380952D02*
X244912557Y-93619047D01*
X244817319Y-92857142D02*
X244817319Y-93428570D01*
X244817319Y-93142856D02*
X243817319Y-93142856D01*
X243817319Y-93142856D02*
X243960176Y-93238094D01*
X243960176Y-93238094D02*
X244055414Y-93333332D01*
X244055414Y-93333332D02*
X244103033Y-93428570D01*
G36*
X167948979Y-53999739D02*
G01*
X168020922Y-54071682D01*
X168055180Y-54140198D01*
X168055180Y-54295264D01*
X168020922Y-54363780D01*
X167948979Y-54435722D01*
X167787613Y-54476064D01*
X167472748Y-54476064D01*
X167311381Y-54435722D01*
X167239438Y-54363779D01*
X167205180Y-54295262D01*
X167205180Y-54140199D01*
X167239438Y-54071682D01*
X167311381Y-53999739D01*
X167472748Y-53959398D01*
X167787613Y-53959398D01*
X167948979Y-53999739D01*
G37*
G36*
X168316291Y-61165747D02*
G01*
X166944069Y-61165747D01*
X166944069Y-60551065D01*
X167055180Y-60551065D01*
X167055180Y-60789160D01*
X167056621Y-60803792D01*
X167057651Y-60806280D01*
X167057843Y-60808970D01*
X167063098Y-60822702D01*
X167110718Y-60917940D01*
X167114683Y-60924238D01*
X167115440Y-60926066D01*
X167117128Y-60928123D01*
X167118551Y-60930383D01*
X167120049Y-60931682D01*
X167124767Y-60937431D01*
X167172386Y-60985050D01*
X167178135Y-60989768D01*
X167179435Y-60991267D01*
X167181694Y-60992688D01*
X167183751Y-60994377D01*
X167185578Y-60995134D01*
X167191878Y-60999099D01*
X167287116Y-61046718D01*
X167300847Y-61051973D01*
X167303536Y-61052164D01*
X167306025Y-61053195D01*
X167320657Y-61054636D01*
X167415895Y-61054636D01*
X167430527Y-61053195D01*
X167433016Y-61052163D01*
X167435704Y-61051973D01*
X167449436Y-61046718D01*
X167544674Y-60999099D01*
X167550973Y-60995134D01*
X167552801Y-60994377D01*
X167554857Y-60992688D01*
X167557117Y-60991267D01*
X167558416Y-60989768D01*
X167564166Y-60985050D01*
X167611785Y-60937431D01*
X167616503Y-60931681D01*
X167618002Y-60930382D01*
X167619423Y-60928122D01*
X167621112Y-60926066D01*
X167621869Y-60924238D01*
X167625834Y-60917939D01*
X167673453Y-60822701D01*
X167673862Y-60821631D01*
X167674185Y-60821196D01*
X167676377Y-60815059D01*
X167678708Y-60808970D01*
X167678746Y-60808429D01*
X167679132Y-60807350D01*
X167724754Y-60624860D01*
X167763248Y-60547873D01*
X167793655Y-60517466D01*
X167862171Y-60483208D01*
X167921999Y-60483208D01*
X167990515Y-60517466D01*
X168020922Y-60547873D01*
X168055180Y-60616389D01*
X168055180Y-60824609D01*
X168011410Y-60955919D01*
X168008150Y-60970256D01*
X168010225Y-60999446D01*
X168023311Y-61025619D01*
X168045418Y-61044793D01*
X168073181Y-61054047D01*
X168102371Y-61051972D01*
X168128544Y-61038886D01*
X168147718Y-61016779D01*
X168153712Y-61003353D01*
X168201331Y-60860497D01*
X168202980Y-60853241D01*
X168203739Y-60851411D01*
X168204000Y-60848757D01*
X168204591Y-60846160D01*
X168204450Y-60844185D01*
X168205180Y-60836779D01*
X168205180Y-60598684D01*
X168203739Y-60584052D01*
X168202708Y-60581563D01*
X168202517Y-60578874D01*
X168197262Y-60565143D01*
X168149643Y-60469905D01*
X168145678Y-60463605D01*
X168144921Y-60461778D01*
X168143232Y-60459721D01*
X168141811Y-60457462D01*
X168140312Y-60456162D01*
X168135594Y-60450413D01*
X168087975Y-60402794D01*
X168082225Y-60398075D01*
X168080926Y-60396577D01*
X168078666Y-60395155D01*
X168076610Y-60393467D01*
X168074782Y-60392709D01*
X168068483Y-60388745D01*
X167973245Y-60341126D01*
X167959513Y-60335871D01*
X167956825Y-60335680D01*
X167954336Y-60334649D01*
X167939704Y-60333208D01*
X167844466Y-60333208D01*
X167829834Y-60334649D01*
X167827345Y-60335679D01*
X167824656Y-60335871D01*
X167810925Y-60341126D01*
X167715687Y-60388745D01*
X167709387Y-60392709D01*
X167707560Y-60393467D01*
X167705503Y-60395155D01*
X167703244Y-60396577D01*
X167701944Y-60398075D01*
X167696195Y-60402794D01*
X167648576Y-60450413D01*
X167643857Y-60456162D01*
X167642359Y-60457462D01*
X167640937Y-60459721D01*
X167639249Y-60461778D01*
X167638491Y-60463605D01*
X167634527Y-60469905D01*
X167586908Y-60565143D01*
X167586498Y-60566212D01*
X167586176Y-60566648D01*
X167583980Y-60572793D01*
X167581653Y-60578875D01*
X167581614Y-60579414D01*
X167581229Y-60580494D01*
X167535606Y-60762984D01*
X167497113Y-60839971D01*
X167466706Y-60870378D01*
X167398190Y-60904636D01*
X167338362Y-60904636D01*
X167269846Y-60870378D01*
X167239438Y-60839970D01*
X167205180Y-60771453D01*
X167205180Y-60563236D01*
X167248951Y-60431925D01*
X167252211Y-60417589D01*
X167250137Y-60388399D01*
X167237050Y-60362225D01*
X167214943Y-60343051D01*
X167187181Y-60333797D01*
X167157991Y-60335871D01*
X167131817Y-60348958D01*
X167112643Y-60371065D01*
X167106649Y-60384490D01*
X167059029Y-60527347D01*
X167057379Y-60534602D01*
X167056621Y-60536433D01*
X167056359Y-60539086D01*
X167055769Y-60541684D01*
X167055909Y-60543659D01*
X167055180Y-60551065D01*
X166944069Y-60551065D01*
X166944069Y-59974397D01*
X167055363Y-59974397D01*
X167056621Y-59984293D01*
X167056621Y-59994268D01*
X167058450Y-59998683D01*
X167059053Y-60003427D01*
X167064003Y-60012091D01*
X167067820Y-60021304D01*
X167071198Y-60024682D01*
X167073572Y-60028836D01*
X167081461Y-60034945D01*
X167088512Y-60041996D01*
X167092928Y-60043825D01*
X167096709Y-60046753D01*
X167106332Y-60049377D01*
X167115548Y-60053195D01*
X167123030Y-60053931D01*
X167124941Y-60054453D01*
X167126416Y-60054265D01*
X167130180Y-60054636D01*
X168130180Y-60054636D01*
X168144812Y-60053195D01*
X168171848Y-60041996D01*
X168192540Y-60021304D01*
X168203739Y-59994268D01*
X168203739Y-59965004D01*
X168192540Y-59937968D01*
X168171848Y-59917276D01*
X168144812Y-59906077D01*
X168130180Y-59904636D01*
X167412597Y-59904636D01*
X168167391Y-59473326D01*
X168170475Y-59471136D01*
X168171848Y-59470568D01*
X168173245Y-59469170D01*
X168179380Y-59464816D01*
X168185488Y-59456927D01*
X168192540Y-59449876D01*
X168194370Y-59445457D01*
X168197297Y-59441678D01*
X168199921Y-59432056D01*
X168203739Y-59422840D01*
X168203739Y-59418059D01*
X168204997Y-59413447D01*
X168203739Y-59403550D01*
X168203739Y-59393576D01*
X168201909Y-59389160D01*
X168201307Y-59384417D01*
X168196356Y-59375752D01*
X168192540Y-59366540D01*
X168189161Y-59363161D01*
X168186788Y-59359008D01*
X168178898Y-59352898D01*
X168171848Y-59345848D01*
X168167431Y-59344018D01*
X168163651Y-59341091D01*
X168154027Y-59338466D01*
X168144812Y-59334649D01*
X168137329Y-59333912D01*
X168135419Y-59333391D01*
X168133943Y-59333578D01*
X168130180Y-59333208D01*
X167130180Y-59333208D01*
X167115548Y-59334649D01*
X167088512Y-59345848D01*
X167067820Y-59366540D01*
X167056621Y-59393576D01*
X167056621Y-59422840D01*
X167067820Y-59449876D01*
X167088512Y-59470568D01*
X167115548Y-59481767D01*
X167130180Y-59483208D01*
X167847763Y-59483208D01*
X167092970Y-59914518D01*
X167089886Y-59916706D01*
X167088512Y-59917276D01*
X167087112Y-59918675D01*
X167080980Y-59923028D01*
X167074870Y-59930917D01*
X167067820Y-59937968D01*
X167065990Y-59942384D01*
X167063063Y-59946165D01*
X167060438Y-59955788D01*
X167056621Y-59965004D01*
X167056621Y-59969784D01*
X167055363Y-59974397D01*
X166944069Y-59974397D01*
X166944069Y-58503446D01*
X167055180Y-58503446D01*
X167055180Y-58979636D01*
X167056621Y-58994268D01*
X167067820Y-59021304D01*
X167088512Y-59041996D01*
X167115548Y-59053195D01*
X167144812Y-59053195D01*
X167171848Y-59041996D01*
X167192540Y-59021304D01*
X167203739Y-58994268D01*
X167205180Y-58979636D01*
X167205180Y-58578446D01*
X167578990Y-58578446D01*
X167578990Y-58836779D01*
X167580431Y-58851411D01*
X167591630Y-58878447D01*
X167612322Y-58899139D01*
X167639358Y-58910338D01*
X167668622Y-58910338D01*
X167695658Y-58899139D01*
X167716350Y-58878447D01*
X167727549Y-58851411D01*
X167728990Y-58836779D01*
X167728990Y-58578446D01*
X168055180Y-58578446D01*
X168055180Y-58979636D01*
X168056621Y-58994268D01*
X168067820Y-59021304D01*
X168088512Y-59041996D01*
X168115548Y-59053195D01*
X168144812Y-59053195D01*
X168171848Y-59041996D01*
X168192540Y-59021304D01*
X168203739Y-58994268D01*
X168205180Y-58979636D01*
X168205180Y-58503446D01*
X168203739Y-58488814D01*
X168192540Y-58461778D01*
X168171848Y-58441086D01*
X168144812Y-58429887D01*
X168130180Y-58428446D01*
X167130180Y-58428446D01*
X167115548Y-58429887D01*
X167088512Y-58441086D01*
X167067820Y-58461778D01*
X167056621Y-58488814D01*
X167055180Y-58503446D01*
X166944069Y-58503446D01*
X166944069Y-57646303D01*
X167055180Y-57646303D01*
X167055180Y-57884398D01*
X167056621Y-57899030D01*
X167057651Y-57901518D01*
X167057843Y-57904208D01*
X167063098Y-57917940D01*
X167110718Y-58013178D01*
X167114683Y-58019476D01*
X167115440Y-58021304D01*
X167117128Y-58023361D01*
X167118551Y-58025621D01*
X167120049Y-58026920D01*
X167124767Y-58032669D01*
X167172386Y-58080288D01*
X167178135Y-58085006D01*
X167179435Y-58086505D01*
X167181694Y-58087926D01*
X167183751Y-58089615D01*
X167185578Y-58090372D01*
X167191878Y-58094337D01*
X167287116Y-58141956D01*
X167300847Y-58147211D01*
X167303536Y-58147402D01*
X167306025Y-58148433D01*
X167320657Y-58149874D01*
X167415895Y-58149874D01*
X167430527Y-58148433D01*
X167433016Y-58147401D01*
X167435704Y-58147211D01*
X167449436Y-58141956D01*
X167544674Y-58094337D01*
X167550973Y-58090372D01*
X167552801Y-58089615D01*
X167554857Y-58087926D01*
X167557117Y-58086505D01*
X167558416Y-58085006D01*
X167564166Y-58080288D01*
X167611785Y-58032669D01*
X167616503Y-58026919D01*
X167618002Y-58025620D01*
X167619423Y-58023360D01*
X167621112Y-58021304D01*
X167621869Y-58019476D01*
X167625834Y-58013177D01*
X167673453Y-57917939D01*
X167673862Y-57916869D01*
X167674185Y-57916434D01*
X167676377Y-57910297D01*
X167678708Y-57904208D01*
X167678746Y-57903667D01*
X167679132Y-57902588D01*
X167724754Y-57720098D01*
X167763248Y-57643111D01*
X167793655Y-57612704D01*
X167862171Y-57578446D01*
X167921999Y-57578446D01*
X167990515Y-57612704D01*
X168020922Y-57643111D01*
X168055180Y-57711627D01*
X168055180Y-57919847D01*
X168011410Y-58051157D01*
X168008150Y-58065494D01*
X168010225Y-58094684D01*
X168023311Y-58120857D01*
X168045418Y-58140031D01*
X168073181Y-58149285D01*
X168102371Y-58147210D01*
X168128544Y-58134124D01*
X168147718Y-58112017D01*
X168153712Y-58098591D01*
X168201331Y-57955735D01*
X168202980Y-57948479D01*
X168203739Y-57946649D01*
X168204000Y-57943995D01*
X168204591Y-57941398D01*
X168204450Y-57939423D01*
X168205180Y-57932017D01*
X168205180Y-57693922D01*
X168203739Y-57679290D01*
X168202708Y-57676801D01*
X168202517Y-57674112D01*
X168197262Y-57660381D01*
X168149643Y-57565143D01*
X168145678Y-57558843D01*
X168144921Y-57557016D01*
X168143232Y-57554959D01*
X168141811Y-57552700D01*
X168140312Y-57551400D01*
X168135594Y-57545651D01*
X168087975Y-57498032D01*
X168082225Y-57493313D01*
X168080926Y-57491815D01*
X168078666Y-57490393D01*
X168076610Y-57488705D01*
X168074782Y-57487947D01*
X168068483Y-57483983D01*
X167973245Y-57436364D01*
X167959513Y-57431109D01*
X167956825Y-57430918D01*
X167954336Y-57429887D01*
X167939704Y-57428446D01*
X167844466Y-57428446D01*
X167829834Y-57429887D01*
X167827345Y-57430917D01*
X167824656Y-57431109D01*
X167810925Y-57436364D01*
X167715687Y-57483983D01*
X167709387Y-57487947D01*
X167707560Y-57488705D01*
X167705503Y-57490393D01*
X167703244Y-57491815D01*
X167701944Y-57493313D01*
X167696195Y-57498032D01*
X167648576Y-57545651D01*
X167643857Y-57551400D01*
X167642359Y-57552700D01*
X167640937Y-57554959D01*
X167639249Y-57557016D01*
X167638491Y-57558843D01*
X167634527Y-57565143D01*
X167586908Y-57660381D01*
X167586498Y-57661450D01*
X167586176Y-57661886D01*
X167583980Y-57668031D01*
X167581653Y-57674113D01*
X167581614Y-57674652D01*
X167581229Y-57675732D01*
X167535606Y-57858222D01*
X167497113Y-57935209D01*
X167466706Y-57965616D01*
X167398190Y-57999874D01*
X167338362Y-57999874D01*
X167269846Y-57965616D01*
X167239438Y-57935208D01*
X167205180Y-57866691D01*
X167205180Y-57658474D01*
X167248951Y-57527163D01*
X167252211Y-57512827D01*
X167250137Y-57483637D01*
X167237050Y-57457463D01*
X167214943Y-57438289D01*
X167187181Y-57429035D01*
X167157991Y-57431109D01*
X167131817Y-57444196D01*
X167112643Y-57466303D01*
X167106649Y-57479728D01*
X167059029Y-57622585D01*
X167057379Y-57629840D01*
X167056621Y-57631671D01*
X167056359Y-57634324D01*
X167055769Y-57636922D01*
X167055909Y-57638897D01*
X167055180Y-57646303D01*
X166944069Y-57646303D01*
X166944069Y-56155480D01*
X167056621Y-56155480D01*
X167056621Y-56184744D01*
X167067820Y-56211780D01*
X167088512Y-56232472D01*
X167115548Y-56243671D01*
X167130180Y-56245112D01*
X168055180Y-56245112D01*
X168055180Y-56455826D01*
X168056621Y-56470458D01*
X168067820Y-56497494D01*
X168088512Y-56518186D01*
X168115548Y-56529385D01*
X168144812Y-56529385D01*
X168171848Y-56518186D01*
X168192540Y-56497494D01*
X168203739Y-56470458D01*
X168205180Y-56455826D01*
X168205180Y-55884398D01*
X168203739Y-55869766D01*
X168192540Y-55842730D01*
X168171848Y-55822038D01*
X168144812Y-55810839D01*
X168115548Y-55810839D01*
X168088512Y-55822038D01*
X168067820Y-55842730D01*
X168056621Y-55869766D01*
X168055180Y-55884398D01*
X168055180Y-56095112D01*
X167130180Y-56095112D01*
X167115548Y-56096553D01*
X167088512Y-56107752D01*
X167067820Y-56128444D01*
X167056621Y-56155480D01*
X166944069Y-56155480D01*
X166944069Y-55170112D01*
X167055180Y-55170112D01*
X167055180Y-55360588D01*
X167056621Y-55375220D01*
X167057651Y-55377708D01*
X167057843Y-55380398D01*
X167063098Y-55394130D01*
X167110718Y-55489368D01*
X167114683Y-55495666D01*
X167115440Y-55497494D01*
X167117128Y-55499551D01*
X167118551Y-55501811D01*
X167120049Y-55503110D01*
X167124767Y-55508859D01*
X167172386Y-55556478D01*
X167178135Y-55561196D01*
X167179435Y-55562695D01*
X167181694Y-55564116D01*
X167183751Y-55565805D01*
X167185578Y-55566562D01*
X167191878Y-55570527D01*
X167287116Y-55618146D01*
X167300847Y-55623401D01*
X167303536Y-55623592D01*
X167306025Y-55624623D01*
X167320657Y-55626064D01*
X168130180Y-55626064D01*
X168144812Y-55624623D01*
X168171848Y-55613424D01*
X168192540Y-55592732D01*
X168203739Y-55565696D01*
X168203739Y-55536432D01*
X168192540Y-55509396D01*
X168171848Y-55488704D01*
X168144812Y-55477505D01*
X168130180Y-55476064D01*
X167338362Y-55476064D01*
X167269846Y-55441806D01*
X167239438Y-55411398D01*
X167205180Y-55342881D01*
X167205180Y-55187818D01*
X167239438Y-55119301D01*
X167269846Y-55088894D01*
X167338362Y-55054636D01*
X168130180Y-55054636D01*
X168144812Y-55053195D01*
X168171848Y-55041996D01*
X168192540Y-55021304D01*
X168203739Y-54994268D01*
X168203739Y-54965004D01*
X168192540Y-54937968D01*
X168171848Y-54917276D01*
X168144812Y-54906077D01*
X168130180Y-54904636D01*
X167320657Y-54904636D01*
X167306025Y-54906077D01*
X167303536Y-54907107D01*
X167300847Y-54907299D01*
X167287116Y-54912554D01*
X167191878Y-54960173D01*
X167185578Y-54964137D01*
X167183751Y-54964895D01*
X167181694Y-54966583D01*
X167179435Y-54968005D01*
X167178135Y-54969503D01*
X167172386Y-54974222D01*
X167124767Y-55021841D01*
X167120049Y-55027589D01*
X167118551Y-55028889D01*
X167117128Y-55031148D01*
X167115440Y-55033206D01*
X167114683Y-55035033D01*
X167110718Y-55041332D01*
X167063098Y-55136570D01*
X167057843Y-55150302D01*
X167057651Y-55152991D01*
X167056621Y-55155480D01*
X167055180Y-55170112D01*
X166944069Y-55170112D01*
X166944069Y-54122493D01*
X167055180Y-54122493D01*
X167055180Y-54312969D01*
X167056621Y-54327601D01*
X167057651Y-54330089D01*
X167057843Y-54332779D01*
X167063098Y-54346511D01*
X167110718Y-54441749D01*
X167114683Y-54448047D01*
X167115440Y-54449875D01*
X167117128Y-54451932D01*
X167118551Y-54454192D01*
X167120049Y-54455491D01*
X167124767Y-54461240D01*
X167220005Y-54556478D01*
X167231370Y-54565806D01*
X167236523Y-54567940D01*
X167241002Y-54571259D01*
X167254848Y-54576206D01*
X167445324Y-54623825D01*
X167447860Y-54624200D01*
X167448882Y-54624623D01*
X167454394Y-54625165D01*
X167459868Y-54625975D01*
X167460960Y-54625812D01*
X167463514Y-54626064D01*
X167796847Y-54626064D01*
X167799400Y-54625812D01*
X167800493Y-54625975D01*
X167805966Y-54625165D01*
X167811479Y-54624623D01*
X167812500Y-54624200D01*
X167815037Y-54623825D01*
X168005513Y-54576206D01*
X168019359Y-54571259D01*
X168023840Y-54567938D01*
X168028991Y-54565805D01*
X168040356Y-54556478D01*
X168135594Y-54461240D01*
X168140314Y-54455489D01*
X168141811Y-54454191D01*
X168143230Y-54451936D01*
X168144922Y-54449875D01*
X168145680Y-54448042D01*
X168149643Y-54441748D01*
X168197262Y-54346510D01*
X168202517Y-54332779D01*
X168202708Y-54330089D01*
X168203739Y-54327601D01*
X168205180Y-54312969D01*
X168205180Y-54122493D01*
X168203739Y-54107861D01*
X168202708Y-54105372D01*
X168202517Y-54102683D01*
X168197262Y-54088952D01*
X168149643Y-53993714D01*
X168145680Y-53987419D01*
X168144922Y-53985587D01*
X168143230Y-53983525D01*
X168141811Y-53981271D01*
X168140314Y-53979972D01*
X168135594Y-53974222D01*
X168040356Y-53878984D01*
X168028991Y-53869657D01*
X168023840Y-53867523D01*
X168019359Y-53864203D01*
X168005513Y-53859256D01*
X167815037Y-53811637D01*
X167812500Y-53811261D01*
X167811479Y-53810839D01*
X167805966Y-53810296D01*
X167800493Y-53809487D01*
X167799400Y-53809649D01*
X167796847Y-53809398D01*
X167463514Y-53809398D01*
X167460960Y-53809649D01*
X167459868Y-53809487D01*
X167454394Y-53810296D01*
X167448882Y-53810839D01*
X167447860Y-53811261D01*
X167445324Y-53811637D01*
X167254848Y-53859256D01*
X167241002Y-53864203D01*
X167236523Y-53867521D01*
X167231370Y-53869656D01*
X167220005Y-53878984D01*
X167124767Y-53974222D01*
X167120049Y-53979970D01*
X167118551Y-53981270D01*
X167117128Y-53983529D01*
X167115440Y-53985587D01*
X167114683Y-53987414D01*
X167110718Y-53993713D01*
X167063098Y-54088951D01*
X167057843Y-54102683D01*
X167057651Y-54105372D01*
X167056621Y-54107861D01*
X167055180Y-54122493D01*
X166944069Y-54122493D01*
X166944069Y-52745622D01*
X167055291Y-52745622D01*
X167062554Y-52773970D01*
X167080112Y-52797381D01*
X167105293Y-52812290D01*
X167134262Y-52816429D01*
X167162610Y-52809166D01*
X167175180Y-52801540D01*
X167694571Y-52411997D01*
X168077147Y-52794573D01*
X168088512Y-52803900D01*
X168115548Y-52815099D01*
X168144811Y-52815099D01*
X168171848Y-52803900D01*
X168192540Y-52783208D01*
X168203739Y-52756171D01*
X168203739Y-52726908D01*
X168192540Y-52699872D01*
X168183213Y-52688507D01*
X167739818Y-52245112D01*
X168130180Y-52245112D01*
X168144812Y-52243671D01*
X168171848Y-52232472D01*
X168192540Y-52211780D01*
X168203739Y-52184744D01*
X168203739Y-52155480D01*
X168192540Y-52128444D01*
X168171848Y-52107752D01*
X168144812Y-52096553D01*
X168130180Y-52095112D01*
X167130180Y-52095112D01*
X167115548Y-52096553D01*
X167088512Y-52107752D01*
X167067820Y-52128444D01*
X167056621Y-52155480D01*
X167056621Y-52184744D01*
X167067820Y-52211780D01*
X167088512Y-52232472D01*
X167115548Y-52243671D01*
X167130180Y-52245112D01*
X167527686Y-52245112D01*
X167587428Y-52304854D01*
X167085180Y-52681540D01*
X167074339Y-52691472D01*
X167059430Y-52716653D01*
X167055291Y-52745622D01*
X166944069Y-52745622D01*
X166944069Y-51679290D01*
X167056621Y-51679290D01*
X167056621Y-51708554D01*
X167067820Y-51735590D01*
X167088512Y-51756282D01*
X167115548Y-51767481D01*
X167130180Y-51768922D01*
X168130180Y-51768922D01*
X168144812Y-51767481D01*
X168171848Y-51756282D01*
X168192540Y-51735590D01*
X168203739Y-51708554D01*
X168203739Y-51679290D01*
X168192540Y-51652254D01*
X168171848Y-51631562D01*
X168144812Y-51620363D01*
X168130180Y-51618922D01*
X167130180Y-51618922D01*
X167115548Y-51620363D01*
X167088512Y-51631562D01*
X167067820Y-51652254D01*
X167056621Y-51679290D01*
X166944069Y-51679290D01*
X166944069Y-51017875D01*
X167055769Y-51017875D01*
X167056435Y-51027255D01*
X167055769Y-51036635D01*
X167057464Y-51041720D01*
X167057844Y-51047065D01*
X167062048Y-51055474D01*
X167065023Y-51064398D01*
X167068534Y-51068446D01*
X167070930Y-51073238D01*
X167078034Y-51079400D01*
X167084197Y-51086505D01*
X167088988Y-51088900D01*
X167093037Y-51092412D01*
X167106463Y-51098406D01*
X168106463Y-51431739D01*
X168120799Y-51434999D01*
X168149989Y-51432924D01*
X168176163Y-51419838D01*
X168195337Y-51397730D01*
X168204591Y-51369968D01*
X168202516Y-51340778D01*
X168189429Y-51314605D01*
X168167322Y-51295431D01*
X168153897Y-51289437D01*
X167367350Y-51027255D01*
X168153897Y-50765073D01*
X168167322Y-50759079D01*
X168189429Y-50739905D01*
X168202516Y-50713732D01*
X168204591Y-50684542D01*
X168195337Y-50656780D01*
X168176163Y-50634672D01*
X168149989Y-50621586D01*
X168120799Y-50619511D01*
X168106463Y-50622771D01*
X167106463Y-50956104D01*
X167093037Y-50962098D01*
X167088988Y-50965609D01*
X167084197Y-50968005D01*
X167078034Y-50975109D01*
X167070930Y-50981272D01*
X167068534Y-50986063D01*
X167065023Y-50990112D01*
X167062048Y-50999035D01*
X167057844Y-51007445D01*
X167057464Y-51012789D01*
X167055769Y-51017875D01*
X166944069Y-51017875D01*
X166944069Y-50508400D01*
X168316291Y-50508400D01*
X168316291Y-61165747D01*
G37*
X176704066Y-50055986D02*
X176704066Y-50520272D01*
X176704066Y-50520272D02*
X176418352Y-50270272D01*
X176418352Y-50270272D02*
X176418352Y-50377415D01*
X176418352Y-50377415D02*
X176382638Y-50448844D01*
X176382638Y-50448844D02*
X176346923Y-50484558D01*
X176346923Y-50484558D02*
X176275495Y-50520272D01*
X176275495Y-50520272D02*
X176096923Y-50520272D01*
X176096923Y-50520272D02*
X176025495Y-50484558D01*
X176025495Y-50484558D02*
X175989781Y-50448844D01*
X175989781Y-50448844D02*
X175954066Y-50377415D01*
X175954066Y-50377415D02*
X175954066Y-50163129D01*
X175954066Y-50163129D02*
X175989781Y-50091701D01*
X175989781Y-50091701D02*
X176025495Y-50055986D01*
X176454066Y-50770272D02*
X175954066Y-50948844D01*
X175954066Y-50948844D02*
X176454066Y-51127415D01*
X176704066Y-51341701D02*
X176704066Y-51805987D01*
X176704066Y-51805987D02*
X176418352Y-51555987D01*
X176418352Y-51555987D02*
X176418352Y-51663130D01*
X176418352Y-51663130D02*
X176382638Y-51734559D01*
X176382638Y-51734559D02*
X176346923Y-51770273D01*
X176346923Y-51770273D02*
X176275495Y-51805987D01*
X176275495Y-51805987D02*
X176096923Y-51805987D01*
X176096923Y-51805987D02*
X176025495Y-51770273D01*
X176025495Y-51770273D02*
X175989781Y-51734559D01*
X175989781Y-51734559D02*
X175954066Y-51663130D01*
X175954066Y-51663130D02*
X175954066Y-51448844D01*
X175954066Y-51448844D02*
X175989781Y-51377416D01*
X175989781Y-51377416D02*
X176025495Y-51341701D01*
X184910852Y-86232226D02*
X184501155Y-86817334D01*
X184501155Y-86817334D02*
X184380208Y-86907043D01*
X184380208Y-86907043D02*
X184247567Y-86930431D01*
X184247567Y-86930431D02*
X184103232Y-86887499D01*
X184103232Y-86887499D02*
X184025218Y-86832872D01*
X184477686Y-87265958D02*
X185101802Y-87702969D01*
X185339770Y-87695200D02*
X185429479Y-87816147D01*
X185429479Y-87816147D02*
X185624515Y-87952712D01*
X185624515Y-87952712D02*
X185729843Y-87968331D01*
X185729843Y-87968331D02*
X185796163Y-87956637D01*
X185796163Y-87956637D02*
X185889797Y-87905936D01*
X185889797Y-87905936D02*
X185944423Y-87827922D01*
X185944423Y-87827922D02*
X185960042Y-87722594D01*
X185960042Y-87722594D02*
X185948348Y-87656274D01*
X185948348Y-87656274D02*
X185897647Y-87562640D01*
X185897647Y-87562640D02*
X185768931Y-87414380D01*
X185768931Y-87414380D02*
X185718230Y-87320746D01*
X185718230Y-87320746D02*
X185706536Y-87254426D01*
X185706536Y-87254426D02*
X185722155Y-87149098D01*
X185722155Y-87149098D02*
X185776781Y-87071084D01*
X185776781Y-87071084D02*
X185870415Y-87020383D01*
X185870415Y-87020383D02*
X185936735Y-87008689D01*
X185936735Y-87008689D02*
X186042063Y-87024308D01*
X186042063Y-87024308D02*
X186237099Y-87160873D01*
X186237099Y-87160873D02*
X186326807Y-87281820D01*
X186627171Y-87434005D02*
X186248631Y-88389723D01*
X186248631Y-88389723D02*
X186814358Y-87913867D01*
X186814358Y-87913867D02*
X186560689Y-88608228D01*
X186560689Y-88608228D02*
X187329302Y-87925642D01*
X187067783Y-88963299D02*
X187641359Y-88144147D01*
X187641359Y-88144147D02*
X187836396Y-88280713D01*
X187836396Y-88280713D02*
X187926104Y-88401660D01*
X187926104Y-88401660D02*
X187949492Y-88534301D01*
X187949492Y-88534301D02*
X187933873Y-88639628D01*
X187933873Y-88639628D02*
X187863628Y-88822970D01*
X187863628Y-88822970D02*
X187781688Y-88939992D01*
X187781688Y-88939992D02*
X187633428Y-89068708D01*
X187633428Y-89068708D02*
X187539795Y-89119409D01*
X187539795Y-89119409D02*
X187407154Y-89142797D01*
X187407154Y-89142797D02*
X187262819Y-89099865D01*
X187262819Y-89099865D02*
X187067783Y-88963299D01*
X187637273Y-89478324D02*
X188261388Y-89915335D01*
X188940131Y-90274331D02*
X188472044Y-89946573D01*
X188706087Y-90110452D02*
X189279664Y-89291300D01*
X189279664Y-89291300D02*
X189119710Y-89353696D01*
X189119710Y-89353696D02*
X188987069Y-89377084D01*
X188987069Y-89377084D02*
X188881741Y-89361465D01*
X236954819Y-76452381D02*
X236478628Y-76785714D01*
X236954819Y-77023809D02*
X235954819Y-77023809D01*
X235954819Y-77023809D02*
X235954819Y-76642857D01*
X235954819Y-76642857D02*
X236002438Y-76547619D01*
X236002438Y-76547619D02*
X236050057Y-76500000D01*
X236050057Y-76500000D02*
X236145295Y-76452381D01*
X236145295Y-76452381D02*
X236288152Y-76452381D01*
X236288152Y-76452381D02*
X236383390Y-76500000D01*
X236383390Y-76500000D02*
X236431009Y-76547619D01*
X236431009Y-76547619D02*
X236478628Y-76642857D01*
X236478628Y-76642857D02*
X236478628Y-77023809D01*
X237050057Y-76261905D02*
X237050057Y-75500000D01*
X236859580Y-74690476D02*
X236907200Y-74738095D01*
X236907200Y-74738095D02*
X236954819Y-74880952D01*
X236954819Y-74880952D02*
X236954819Y-74976190D01*
X236954819Y-74976190D02*
X236907200Y-75119047D01*
X236907200Y-75119047D02*
X236811961Y-75214285D01*
X236811961Y-75214285D02*
X236716723Y-75261904D01*
X236716723Y-75261904D02*
X236526247Y-75309523D01*
X236526247Y-75309523D02*
X236383390Y-75309523D01*
X236383390Y-75309523D02*
X236192914Y-75261904D01*
X236192914Y-75261904D02*
X236097676Y-75214285D01*
X236097676Y-75214285D02*
X236002438Y-75119047D01*
X236002438Y-75119047D02*
X235954819Y-74976190D01*
X235954819Y-74976190D02*
X235954819Y-74880952D01*
X235954819Y-74880952D02*
X236002438Y-74738095D01*
X236002438Y-74738095D02*
X236050057Y-74690476D01*
X236954819Y-74261904D02*
X235954819Y-74261904D01*
X236431009Y-74261904D02*
X236431009Y-73690476D01*
X236954819Y-73690476D02*
X235954819Y-73690476D01*
X236002438Y-72690476D02*
X235954819Y-72785714D01*
X235954819Y-72785714D02*
X235954819Y-72928571D01*
X235954819Y-72928571D02*
X236002438Y-73071428D01*
X236002438Y-73071428D02*
X236097676Y-73166666D01*
X236097676Y-73166666D02*
X236192914Y-73214285D01*
X236192914Y-73214285D02*
X236383390Y-73261904D01*
X236383390Y-73261904D02*
X236526247Y-73261904D01*
X236526247Y-73261904D02*
X236716723Y-73214285D01*
X236716723Y-73214285D02*
X236811961Y-73166666D01*
X236811961Y-73166666D02*
X236907200Y-73071428D01*
X236907200Y-73071428D02*
X236954819Y-72928571D01*
X236954819Y-72928571D02*
X236954819Y-72833333D01*
X236954819Y-72833333D02*
X236907200Y-72690476D01*
X236907200Y-72690476D02*
X236859580Y-72642857D01*
X236859580Y-72642857D02*
X236526247Y-72642857D01*
X236526247Y-72642857D02*
X236526247Y-72833333D01*
X237050057Y-72452381D02*
X237050057Y-71690476D01*
X236954819Y-70928571D02*
X236954819Y-71499999D01*
X236954819Y-71214285D02*
X235954819Y-71214285D01*
X235954819Y-71214285D02*
X236097676Y-71309523D01*
X236097676Y-71309523D02*
X236192914Y-71404761D01*
X236192914Y-71404761D02*
X236240533Y-71499999D01*
X223220414Y-61444333D02*
X223220414Y-60980047D01*
X223220414Y-60980047D02*
X223506128Y-61230047D01*
X223506128Y-61230047D02*
X223506128Y-61122904D01*
X223506128Y-61122904D02*
X223541842Y-61051476D01*
X223541842Y-61051476D02*
X223577557Y-61015761D01*
X223577557Y-61015761D02*
X223648985Y-60980047D01*
X223648985Y-60980047D02*
X223827557Y-60980047D01*
X223827557Y-60980047D02*
X223898985Y-61015761D01*
X223898985Y-61015761D02*
X223934700Y-61051476D01*
X223934700Y-61051476D02*
X223970414Y-61122904D01*
X223970414Y-61122904D02*
X223970414Y-61337190D01*
X223970414Y-61337190D02*
X223934700Y-61408618D01*
X223934700Y-61408618D02*
X223898985Y-61444333D01*
X223470414Y-60730047D02*
X223970414Y-60551475D01*
X223970414Y-60551475D02*
X223470414Y-60372904D01*
X223220414Y-60158618D02*
X223220414Y-59694332D01*
X223220414Y-59694332D02*
X223506128Y-59944332D01*
X223506128Y-59944332D02*
X223506128Y-59837189D01*
X223506128Y-59837189D02*
X223541842Y-59765761D01*
X223541842Y-59765761D02*
X223577557Y-59730046D01*
X223577557Y-59730046D02*
X223648985Y-59694332D01*
X223648985Y-59694332D02*
X223827557Y-59694332D01*
X223827557Y-59694332D02*
X223898985Y-59730046D01*
X223898985Y-59730046D02*
X223934700Y-59765761D01*
X223934700Y-59765761D02*
X223970414Y-59837189D01*
X223970414Y-59837189D02*
X223970414Y-60051475D01*
X223970414Y-60051475D02*
X223934700Y-60122903D01*
X223934700Y-60122903D02*
X223898985Y-60158618D01*
G36*
X232688617Y-57064276D02*
G01*
X232760561Y-57136219D01*
X232794819Y-57204735D01*
X232794819Y-57359801D01*
X232760561Y-57428316D01*
X232688617Y-57500259D01*
X232527251Y-57540601D01*
X232212386Y-57540601D01*
X232051019Y-57500259D01*
X231979077Y-57428317D01*
X231944819Y-57359801D01*
X231944819Y-57204735D01*
X231979077Y-57136219D01*
X232051019Y-57064276D01*
X232212386Y-57023935D01*
X232527251Y-57023935D01*
X232688617Y-57064276D01*
G37*
G36*
X233055930Y-60991599D02*
G01*
X231683708Y-60991599D01*
X231683708Y-60130031D01*
X231795408Y-60130031D01*
X231797483Y-60159221D01*
X231810569Y-60185394D01*
X231832676Y-60204568D01*
X231846102Y-60210562D01*
X232632648Y-60472744D01*
X231846102Y-60734926D01*
X231832676Y-60740920D01*
X231810569Y-60760094D01*
X231797483Y-60786267D01*
X231795408Y-60815457D01*
X231804662Y-60843220D01*
X231823836Y-60865327D01*
X231850009Y-60878413D01*
X231879199Y-60880488D01*
X231893536Y-60877228D01*
X232893536Y-60543895D01*
X232906961Y-60537901D01*
X232911008Y-60534390D01*
X232915802Y-60531994D01*
X232921966Y-60524886D01*
X232929068Y-60518727D01*
X232931463Y-60513935D01*
X232934976Y-60509886D01*
X232937950Y-60500963D01*
X232942155Y-60492554D01*
X232942534Y-60487209D01*
X232944230Y-60482124D01*
X232943563Y-60472744D01*
X232944230Y-60463364D01*
X232942534Y-60458278D01*
X232942155Y-60452934D01*
X232937950Y-60444524D01*
X232934976Y-60435602D01*
X232931463Y-60431552D01*
X232929068Y-60426761D01*
X232921966Y-60420601D01*
X232915802Y-60413494D01*
X232911008Y-60411097D01*
X232906961Y-60407587D01*
X232893536Y-60401593D01*
X231893536Y-60068260D01*
X231879199Y-60065000D01*
X231850009Y-60067075D01*
X231823836Y-60080161D01*
X231804662Y-60102268D01*
X231795408Y-60130031D01*
X231683708Y-60130031D01*
X231683708Y-59791445D01*
X231796260Y-59791445D01*
X231796260Y-59820709D01*
X231807459Y-59847745D01*
X231828151Y-59868437D01*
X231855187Y-59879636D01*
X231869819Y-59881077D01*
X232869819Y-59881077D01*
X232884451Y-59879636D01*
X232911487Y-59868437D01*
X232932179Y-59847745D01*
X232943378Y-59820709D01*
X232943378Y-59791445D01*
X232932179Y-59764409D01*
X232911487Y-59743717D01*
X232884451Y-59732518D01*
X232869819Y-59731077D01*
X231869819Y-59731077D01*
X231855187Y-59732518D01*
X231828151Y-59743717D01*
X231807459Y-59764409D01*
X231796260Y-59791445D01*
X231683708Y-59791445D01*
X231683708Y-58743828D01*
X231796260Y-58743828D01*
X231796260Y-58773090D01*
X231807459Y-58800127D01*
X231816786Y-58811492D01*
X232260181Y-59254887D01*
X231869819Y-59254887D01*
X231855187Y-59256328D01*
X231828151Y-59267527D01*
X231807459Y-59288219D01*
X231796260Y-59315255D01*
X231796260Y-59344519D01*
X231807459Y-59371555D01*
X231828151Y-59392247D01*
X231855187Y-59403446D01*
X231869819Y-59404887D01*
X232869819Y-59404887D01*
X232884451Y-59403446D01*
X232911487Y-59392247D01*
X232932179Y-59371555D01*
X232943378Y-59344519D01*
X232943378Y-59315255D01*
X232932179Y-59288219D01*
X232911487Y-59267527D01*
X232884451Y-59256328D01*
X232869819Y-59254887D01*
X232472313Y-59254887D01*
X232412570Y-59195144D01*
X232914819Y-58818459D01*
X232925660Y-58808527D01*
X232940570Y-58783346D01*
X232944708Y-58754377D01*
X232937446Y-58726029D01*
X232919887Y-58702618D01*
X232894706Y-58687709D01*
X232865738Y-58683570D01*
X232837389Y-58690832D01*
X232824819Y-58698459D01*
X232305427Y-59088001D01*
X231922852Y-58705426D01*
X231911487Y-58696099D01*
X231884450Y-58684900D01*
X231855188Y-58684900D01*
X231828151Y-58696099D01*
X231807459Y-58716791D01*
X231796260Y-58743828D01*
X231683708Y-58743828D01*
X231683708Y-57187030D01*
X231794819Y-57187030D01*
X231794819Y-57377506D01*
X231796260Y-57392138D01*
X231797291Y-57394627D01*
X231797482Y-57397315D01*
X231802737Y-57411047D01*
X231850356Y-57506285D01*
X231854320Y-57512584D01*
X231855078Y-57514412D01*
X231856766Y-57516468D01*
X231858188Y-57518728D01*
X231859686Y-57520027D01*
X231864405Y-57525777D01*
X231959643Y-57621015D01*
X231971008Y-57630343D01*
X231976161Y-57632477D01*
X231980640Y-57635796D01*
X231994486Y-57640743D01*
X232184962Y-57688362D01*
X232187498Y-57688737D01*
X232188520Y-57689160D01*
X232194032Y-57689702D01*
X232199506Y-57690512D01*
X232200598Y-57690349D01*
X232203152Y-57690601D01*
X232536485Y-57690601D01*
X232539038Y-57690349D01*
X232540131Y-57690512D01*
X232545604Y-57689702D01*
X232551117Y-57689160D01*
X232552138Y-57688737D01*
X232554675Y-57688362D01*
X232745151Y-57640743D01*
X232758997Y-57635796D01*
X232763476Y-57632476D01*
X232768628Y-57630343D01*
X232779994Y-57621015D01*
X232875233Y-57525777D01*
X232879953Y-57520026D01*
X232881450Y-57518728D01*
X232882869Y-57516473D01*
X232884561Y-57514412D01*
X232885319Y-57512579D01*
X232889282Y-57506285D01*
X232936901Y-57411047D01*
X232942156Y-57397316D01*
X232942347Y-57394626D01*
X232943378Y-57392138D01*
X232944819Y-57377506D01*
X232944819Y-57187030D01*
X232943378Y-57172398D01*
X232942347Y-57169909D01*
X232942156Y-57167220D01*
X232936901Y-57153489D01*
X232889282Y-57058251D01*
X232885319Y-57051956D01*
X232884561Y-57050124D01*
X232882869Y-57048062D01*
X232881450Y-57045808D01*
X232879953Y-57044509D01*
X232875233Y-57038759D01*
X232779994Y-56943521D01*
X232768628Y-56934193D01*
X232763476Y-56932059D01*
X232758997Y-56928740D01*
X232745151Y-56923793D01*
X232554675Y-56876174D01*
X232552138Y-56875798D01*
X232551117Y-56875376D01*
X232545604Y-56874833D01*
X232540131Y-56874024D01*
X232539038Y-56874186D01*
X232536485Y-56873935D01*
X232203152Y-56873935D01*
X232200598Y-56874186D01*
X232199506Y-56874024D01*
X232194032Y-56874833D01*
X232188520Y-56875376D01*
X232187498Y-56875798D01*
X232184962Y-56876174D01*
X231994486Y-56923793D01*
X231980640Y-56928740D01*
X231976161Y-56932058D01*
X231971008Y-56934193D01*
X231959643Y-56943521D01*
X231864405Y-57038759D01*
X231859686Y-57044508D01*
X231858188Y-57045808D01*
X231856766Y-57048067D01*
X231855078Y-57050124D01*
X231854320Y-57051951D01*
X231850356Y-57058251D01*
X231802737Y-57153489D01*
X231797482Y-57167221D01*
X231797291Y-57169908D01*
X231796260Y-57172398D01*
X231794819Y-57187030D01*
X231683708Y-57187030D01*
X231683708Y-55934303D01*
X231796260Y-55934303D01*
X231796260Y-55963567D01*
X231807459Y-55990603D01*
X231828151Y-56011295D01*
X231855187Y-56022494D01*
X231869819Y-56023935D01*
X232661637Y-56023935D01*
X232730153Y-56058193D01*
X232760561Y-56088600D01*
X232794819Y-56157116D01*
X232794819Y-56312182D01*
X232760561Y-56380697D01*
X232730153Y-56411104D01*
X232661637Y-56445363D01*
X231869819Y-56445363D01*
X231855187Y-56446804D01*
X231828151Y-56458003D01*
X231807459Y-56478695D01*
X231796260Y-56505731D01*
X231796260Y-56534995D01*
X231807459Y-56562031D01*
X231828151Y-56582723D01*
X231855187Y-56593922D01*
X231869819Y-56595363D01*
X232679342Y-56595363D01*
X232693974Y-56593922D01*
X232696463Y-56592890D01*
X232699151Y-56592700D01*
X232712883Y-56587445D01*
X232808121Y-56539826D01*
X232814417Y-56535862D01*
X232816247Y-56535105D01*
X232818305Y-56533415D01*
X232820564Y-56531994D01*
X232821863Y-56530495D01*
X232827612Y-56525778D01*
X232875232Y-56478159D01*
X232879950Y-56472409D01*
X232881450Y-56471109D01*
X232882872Y-56468849D01*
X232884560Y-56466793D01*
X232885317Y-56464965D01*
X232889282Y-56458666D01*
X232936901Y-56363428D01*
X232942156Y-56349697D01*
X232942347Y-56347007D01*
X232943378Y-56344519D01*
X232944819Y-56329887D01*
X232944819Y-56139411D01*
X232943378Y-56124779D01*
X232942347Y-56122290D01*
X232942156Y-56119601D01*
X232936901Y-56105870D01*
X232889282Y-56010632D01*
X232885317Y-56004332D01*
X232884560Y-56002505D01*
X232882872Y-56000448D01*
X232881450Y-55998189D01*
X232879950Y-55996888D01*
X232875232Y-55991139D01*
X232827612Y-55943520D01*
X232821863Y-55938802D01*
X232820564Y-55937304D01*
X232818305Y-55935882D01*
X232816247Y-55934193D01*
X232814417Y-55933435D01*
X232808121Y-55929472D01*
X232712883Y-55881853D01*
X232699151Y-55876598D01*
X232696463Y-55876407D01*
X232693974Y-55875376D01*
X232679342Y-55873935D01*
X231869819Y-55873935D01*
X231855187Y-55875376D01*
X231828151Y-55886575D01*
X231807459Y-55907267D01*
X231796260Y-55934303D01*
X231683708Y-55934303D01*
X231683708Y-55044173D01*
X231794819Y-55044173D01*
X231794819Y-55615601D01*
X231796260Y-55630233D01*
X231807459Y-55657269D01*
X231828151Y-55677961D01*
X231855187Y-55689160D01*
X231884451Y-55689160D01*
X231911487Y-55677961D01*
X231932179Y-55657269D01*
X231943378Y-55630233D01*
X231944819Y-55615601D01*
X231944819Y-55404887D01*
X232869819Y-55404887D01*
X232884451Y-55403446D01*
X232911487Y-55392247D01*
X232932179Y-55371555D01*
X232943378Y-55344519D01*
X232943378Y-55315255D01*
X232932179Y-55288219D01*
X232911487Y-55267527D01*
X232884451Y-55256328D01*
X232869819Y-55254887D01*
X231944819Y-55254887D01*
X231944819Y-55044173D01*
X231943378Y-55029541D01*
X231932179Y-55002505D01*
X231911487Y-54981813D01*
X231884451Y-54970614D01*
X231855187Y-54970614D01*
X231828151Y-54981813D01*
X231807459Y-55002505D01*
X231796260Y-55029541D01*
X231794819Y-55044173D01*
X231683708Y-55044173D01*
X231683708Y-53567982D01*
X231794819Y-53567982D01*
X231794819Y-53806077D01*
X231796260Y-53820709D01*
X231797291Y-53823198D01*
X231797482Y-53825886D01*
X231802737Y-53839618D01*
X231850356Y-53934856D01*
X231854320Y-53941155D01*
X231855078Y-53942983D01*
X231856766Y-53945039D01*
X231858188Y-53947299D01*
X231859686Y-53948598D01*
X231864405Y-53954348D01*
X231912024Y-54001967D01*
X231917773Y-54006685D01*
X231919073Y-54008184D01*
X231921332Y-54009605D01*
X231923389Y-54011294D01*
X231925216Y-54012051D01*
X231931516Y-54016016D01*
X232026754Y-54063635D01*
X232040485Y-54068890D01*
X232043174Y-54069081D01*
X232045663Y-54070112D01*
X232060295Y-54071553D01*
X232155533Y-54071553D01*
X232170165Y-54070112D01*
X232172654Y-54069080D01*
X232175342Y-54068890D01*
X232189074Y-54063635D01*
X232284312Y-54016016D01*
X232290611Y-54012051D01*
X232292439Y-54011294D01*
X232294495Y-54009605D01*
X232296755Y-54008184D01*
X232298054Y-54006685D01*
X232303804Y-54001967D01*
X232351423Y-53954348D01*
X232356141Y-53948598D01*
X232357640Y-53947299D01*
X232359061Y-53945039D01*
X232360750Y-53942983D01*
X232361507Y-53941155D01*
X232365472Y-53934856D01*
X232413091Y-53839618D01*
X232413500Y-53838548D01*
X232413823Y-53838113D01*
X232416015Y-53831976D01*
X232418346Y-53825887D01*
X232418384Y-53825346D01*
X232418770Y-53824267D01*
X232464392Y-53641777D01*
X232502886Y-53564790D01*
X232533293Y-53534383D01*
X232601809Y-53500125D01*
X232661637Y-53500125D01*
X232730153Y-53534383D01*
X232760561Y-53564790D01*
X232794819Y-53633306D01*
X232794819Y-53841526D01*
X232751049Y-53972836D01*
X232747789Y-53987173D01*
X232749864Y-54016363D01*
X232762950Y-54042536D01*
X232785057Y-54061710D01*
X232812820Y-54070964D01*
X232842010Y-54068889D01*
X232868183Y-54055803D01*
X232887357Y-54033696D01*
X232893351Y-54020270D01*
X232940970Y-53877414D01*
X232942619Y-53870158D01*
X232943378Y-53868328D01*
X232943639Y-53865674D01*
X232944230Y-53863077D01*
X232944089Y-53861102D01*
X232944819Y-53853696D01*
X232944819Y-53615601D01*
X232943378Y-53600969D01*
X232942347Y-53598480D01*
X232942156Y-53595791D01*
X232936901Y-53582060D01*
X232889282Y-53486822D01*
X232885317Y-53480522D01*
X232884560Y-53478695D01*
X232882872Y-53476638D01*
X232881450Y-53474379D01*
X232879950Y-53473078D01*
X232875232Y-53467329D01*
X232827612Y-53419710D01*
X232821863Y-53414992D01*
X232820564Y-53413494D01*
X232818305Y-53412072D01*
X232816247Y-53410383D01*
X232814417Y-53409625D01*
X232808121Y-53405662D01*
X232712883Y-53358043D01*
X232699151Y-53352788D01*
X232696463Y-53352597D01*
X232693974Y-53351566D01*
X232679342Y-53350125D01*
X232584104Y-53350125D01*
X232569472Y-53351566D01*
X232566983Y-53352596D01*
X232564294Y-53352788D01*
X232550563Y-53358043D01*
X232455325Y-53405662D01*
X232449025Y-53409626D01*
X232447198Y-53410384D01*
X232445141Y-53412072D01*
X232442882Y-53413494D01*
X232441582Y-53414992D01*
X232435833Y-53419711D01*
X232388214Y-53467330D01*
X232383495Y-53473079D01*
X232381997Y-53474379D01*
X232380575Y-53476638D01*
X232378887Y-53478695D01*
X232378129Y-53480522D01*
X232374165Y-53486822D01*
X232326546Y-53582060D01*
X232326136Y-53583129D01*
X232325814Y-53583565D01*
X232323618Y-53589710D01*
X232321291Y-53595792D01*
X232321252Y-53596331D01*
X232320867Y-53597411D01*
X232275244Y-53779901D01*
X232236751Y-53856888D01*
X232206344Y-53887295D01*
X232137828Y-53921553D01*
X232078000Y-53921553D01*
X232009484Y-53887295D01*
X231979077Y-53856888D01*
X231944819Y-53788372D01*
X231944819Y-53580152D01*
X231988589Y-53448843D01*
X231991849Y-53434506D01*
X231989774Y-53405316D01*
X231976688Y-53379142D01*
X231954580Y-53359968D01*
X231926818Y-53350714D01*
X231897628Y-53352789D01*
X231871455Y-53365876D01*
X231852281Y-53387983D01*
X231846287Y-53401408D01*
X231798668Y-53544265D01*
X231797018Y-53551518D01*
X231796260Y-53553350D01*
X231795998Y-53556004D01*
X231795408Y-53558602D01*
X231795548Y-53560576D01*
X231794819Y-53567982D01*
X231683708Y-53567982D01*
X231683708Y-52520363D01*
X231794819Y-52520363D01*
X231794819Y-52996553D01*
X231796260Y-53011185D01*
X231807459Y-53038221D01*
X231828151Y-53058913D01*
X231855187Y-53070112D01*
X231869819Y-53071553D01*
X232869819Y-53071553D01*
X232884451Y-53070112D01*
X232911487Y-53058913D01*
X232932179Y-53038221D01*
X232943378Y-53011185D01*
X232944819Y-52996553D01*
X232944819Y-52520363D01*
X232943378Y-52505731D01*
X232932179Y-52478695D01*
X232911487Y-52458003D01*
X232884451Y-52446804D01*
X232855187Y-52446804D01*
X232828151Y-52458003D01*
X232807459Y-52478695D01*
X232796260Y-52505731D01*
X232794819Y-52520363D01*
X232794819Y-52921553D01*
X232421009Y-52921553D01*
X232421009Y-52663220D01*
X232419568Y-52648588D01*
X232408369Y-52621552D01*
X232387677Y-52600860D01*
X232360641Y-52589661D01*
X232331377Y-52589661D01*
X232304341Y-52600860D01*
X232283649Y-52621552D01*
X232272450Y-52648588D01*
X232271009Y-52663220D01*
X232271009Y-52921553D01*
X231944819Y-52921553D01*
X231944819Y-52520363D01*
X231943378Y-52505731D01*
X231932179Y-52478695D01*
X231911487Y-52458003D01*
X231884451Y-52446804D01*
X231855187Y-52446804D01*
X231828151Y-52458003D01*
X231807459Y-52478695D01*
X231796260Y-52505731D01*
X231794819Y-52520363D01*
X231683708Y-52520363D01*
X231683708Y-52086552D01*
X231795002Y-52086552D01*
X231796260Y-52096448D01*
X231796260Y-52106423D01*
X231798089Y-52110838D01*
X231798692Y-52115582D01*
X231803642Y-52124246D01*
X231807459Y-52133459D01*
X231810837Y-52136837D01*
X231813211Y-52140991D01*
X231821100Y-52147100D01*
X231828151Y-52154151D01*
X231832567Y-52155980D01*
X231836348Y-52158908D01*
X231845971Y-52161532D01*
X231855187Y-52165350D01*
X231862669Y-52166086D01*
X231864580Y-52166608D01*
X231866055Y-52166420D01*
X231869819Y-52166791D01*
X232869819Y-52166791D01*
X232884451Y-52165350D01*
X232911487Y-52154151D01*
X232932179Y-52133459D01*
X232943378Y-52106423D01*
X232943378Y-52077159D01*
X232932179Y-52050123D01*
X232911487Y-52029431D01*
X232884451Y-52018232D01*
X232869819Y-52016791D01*
X232152236Y-52016791D01*
X232907030Y-51585481D01*
X232910114Y-51583291D01*
X232911487Y-51582723D01*
X232912884Y-51581325D01*
X232919019Y-51576971D01*
X232925127Y-51569082D01*
X232932179Y-51562031D01*
X232934009Y-51557612D01*
X232936936Y-51553833D01*
X232939560Y-51544211D01*
X232943378Y-51534995D01*
X232943378Y-51530214D01*
X232944636Y-51525602D01*
X232943378Y-51515705D01*
X232943378Y-51505731D01*
X232941548Y-51501315D01*
X232940946Y-51496572D01*
X232935995Y-51487907D01*
X232932179Y-51478695D01*
X232928800Y-51475316D01*
X232926427Y-51471163D01*
X232918537Y-51465053D01*
X232911487Y-51458003D01*
X232907070Y-51456173D01*
X232903290Y-51453246D01*
X232893666Y-51450621D01*
X232884451Y-51446804D01*
X232876968Y-51446067D01*
X232875058Y-51445546D01*
X232873582Y-51445733D01*
X232869819Y-51445363D01*
X231869819Y-51445363D01*
X231855187Y-51446804D01*
X231828151Y-51458003D01*
X231807459Y-51478695D01*
X231796260Y-51505731D01*
X231796260Y-51534995D01*
X231807459Y-51562031D01*
X231828151Y-51582723D01*
X231855187Y-51593922D01*
X231869819Y-51595363D01*
X232587402Y-51595363D01*
X231832609Y-52026673D01*
X231829525Y-52028861D01*
X231828151Y-52029431D01*
X231826751Y-52030830D01*
X231820619Y-52035183D01*
X231814509Y-52043072D01*
X231807459Y-52050123D01*
X231805629Y-52054539D01*
X231802702Y-52058320D01*
X231800077Y-52067943D01*
X231796260Y-52077159D01*
X231796260Y-52081939D01*
X231795002Y-52086552D01*
X231683708Y-52086552D01*
X231683708Y-50663220D01*
X231794819Y-50663220D01*
X231794819Y-50901315D01*
X231796260Y-50915947D01*
X231797291Y-50918436D01*
X231797482Y-50921124D01*
X231802737Y-50934856D01*
X231850356Y-51030094D01*
X231854320Y-51036393D01*
X231855078Y-51038221D01*
X231856766Y-51040277D01*
X231858188Y-51042537D01*
X231859686Y-51043836D01*
X231864405Y-51049586D01*
X231912024Y-51097205D01*
X231917773Y-51101923D01*
X231919073Y-51103422D01*
X231921332Y-51104843D01*
X231923389Y-51106532D01*
X231925216Y-51107289D01*
X231931516Y-51111254D01*
X232026754Y-51158873D01*
X232040485Y-51164128D01*
X232043174Y-51164319D01*
X232045663Y-51165350D01*
X232060295Y-51166791D01*
X232155533Y-51166791D01*
X232170165Y-51165350D01*
X232172654Y-51164318D01*
X232175342Y-51164128D01*
X232189074Y-51158873D01*
X232284312Y-51111254D01*
X232290611Y-51107289D01*
X232292439Y-51106532D01*
X232294495Y-51104843D01*
X232296755Y-51103422D01*
X232298054Y-51101923D01*
X232303804Y-51097205D01*
X232351423Y-51049586D01*
X232356141Y-51043836D01*
X232357640Y-51042537D01*
X232359061Y-51040277D01*
X232360750Y-51038221D01*
X232361507Y-51036393D01*
X232365472Y-51030094D01*
X232413091Y-50934856D01*
X232413500Y-50933786D01*
X232413823Y-50933351D01*
X232416015Y-50927214D01*
X232418346Y-50921125D01*
X232418384Y-50920584D01*
X232418770Y-50919505D01*
X232464392Y-50737015D01*
X232502886Y-50660028D01*
X232533293Y-50629621D01*
X232601809Y-50595363D01*
X232661637Y-50595363D01*
X232730153Y-50629621D01*
X232760561Y-50660028D01*
X232794819Y-50728544D01*
X232794819Y-50936764D01*
X232751049Y-51068074D01*
X232747789Y-51082411D01*
X232749864Y-51111601D01*
X232762950Y-51137774D01*
X232785057Y-51156948D01*
X232812820Y-51166202D01*
X232842010Y-51164127D01*
X232868183Y-51151041D01*
X232887357Y-51128934D01*
X232893351Y-51115508D01*
X232940970Y-50972652D01*
X232942619Y-50965396D01*
X232943378Y-50963566D01*
X232943639Y-50960912D01*
X232944230Y-50958315D01*
X232944089Y-50956340D01*
X232944819Y-50948934D01*
X232944819Y-50710839D01*
X232943378Y-50696207D01*
X232942347Y-50693718D01*
X232942156Y-50691029D01*
X232936901Y-50677298D01*
X232889282Y-50582060D01*
X232885317Y-50575760D01*
X232884560Y-50573933D01*
X232882872Y-50571876D01*
X232881450Y-50569617D01*
X232879950Y-50568316D01*
X232875232Y-50562567D01*
X232827612Y-50514948D01*
X232821863Y-50510230D01*
X232820564Y-50508732D01*
X232818305Y-50507310D01*
X232816247Y-50505621D01*
X232814417Y-50504863D01*
X232808121Y-50500900D01*
X232712883Y-50453281D01*
X232699151Y-50448026D01*
X232696463Y-50447835D01*
X232693974Y-50446804D01*
X232679342Y-50445363D01*
X232584104Y-50445363D01*
X232569472Y-50446804D01*
X232566983Y-50447834D01*
X232564294Y-50448026D01*
X232550563Y-50453281D01*
X232455325Y-50500900D01*
X232449025Y-50504864D01*
X232447198Y-50505622D01*
X232445141Y-50507310D01*
X232442882Y-50508732D01*
X232441582Y-50510230D01*
X232435833Y-50514949D01*
X232388214Y-50562568D01*
X232383495Y-50568317D01*
X232381997Y-50569617D01*
X232380575Y-50571876D01*
X232378887Y-50573933D01*
X232378129Y-50575760D01*
X232374165Y-50582060D01*
X232326546Y-50677298D01*
X232326136Y-50678367D01*
X232325814Y-50678803D01*
X232323618Y-50684948D01*
X232321291Y-50691030D01*
X232321252Y-50691569D01*
X232320867Y-50692649D01*
X232275244Y-50875139D01*
X232236751Y-50952126D01*
X232206344Y-50982533D01*
X232137828Y-51016791D01*
X232078000Y-51016791D01*
X232009484Y-50982533D01*
X231979077Y-50952126D01*
X231944819Y-50883610D01*
X231944819Y-50675390D01*
X231988589Y-50544081D01*
X231991849Y-50529744D01*
X231989774Y-50500554D01*
X231976688Y-50474380D01*
X231954580Y-50455206D01*
X231926818Y-50445952D01*
X231897628Y-50448027D01*
X231871455Y-50461114D01*
X231852281Y-50483221D01*
X231846287Y-50496646D01*
X231798668Y-50639503D01*
X231797018Y-50646756D01*
X231796260Y-50648588D01*
X231795998Y-50651242D01*
X231795408Y-50653840D01*
X231795548Y-50655814D01*
X231794819Y-50663220D01*
X231683708Y-50663220D01*
X231683708Y-50334252D01*
X233055930Y-50334252D01*
X233055930Y-60991599D01*
G37*
X215761963Y-78980482D02*
X215176854Y-79390180D01*
X215176854Y-79390180D02*
X215032519Y-79433112D01*
X215032519Y-79433112D02*
X214899878Y-79409724D01*
X214899878Y-79409724D02*
X214778931Y-79320015D01*
X214778931Y-79320015D02*
X214724305Y-79242001D01*
X215001362Y-79803722D02*
X215438373Y-80427837D01*
X216273225Y-80540853D02*
X216316157Y-80685188D01*
X216316157Y-80685188D02*
X216304463Y-80751509D01*
X216304463Y-80751509D02*
X216253762Y-80845142D01*
X216253762Y-80845142D02*
X216136740Y-80927082D01*
X216136740Y-80927082D02*
X216031412Y-80942701D01*
X216031412Y-80942701D02*
X215965092Y-80931007D01*
X215965092Y-80931007D02*
X215871458Y-80880305D01*
X215871458Y-80880305D02*
X215652953Y-80568248D01*
X215652953Y-80568248D02*
X216472105Y-79994671D01*
X216472105Y-79994671D02*
X216663297Y-80267722D01*
X216663297Y-80267722D02*
X216678916Y-80373049D01*
X216678916Y-80373049D02*
X216667222Y-80439370D01*
X216667222Y-80439370D02*
X216616521Y-80533003D01*
X216616521Y-80533003D02*
X216538506Y-80587630D01*
X216538506Y-80587630D02*
X216433179Y-80603249D01*
X216433179Y-80603249D02*
X216366858Y-80591555D01*
X216366858Y-80591555D02*
X216273225Y-80540853D01*
X216273225Y-80540853D02*
X216082033Y-80267803D01*
X216433260Y-81184513D02*
X216706391Y-81574586D01*
X216144590Y-81270378D02*
X217154934Y-80969852D01*
X217154934Y-80969852D02*
X216526974Y-81816479D01*
X217455379Y-81398932D02*
X217783137Y-81867019D01*
X216800106Y-82206552D02*
X217619258Y-81632975D01*
X216940597Y-82573236D02*
X217377608Y-83197352D01*
X217892633Y-83766842D02*
X217564875Y-83298755D01*
X217728754Y-83532798D02*
X218547906Y-82959222D01*
X218547906Y-82959222D02*
X218376258Y-82963147D01*
X218376258Y-82963147D02*
X218243617Y-82939759D01*
X218243617Y-82939759D02*
X218149983Y-82889057D01*
X236954819Y-68952381D02*
X236478628Y-69285714D01*
X236954819Y-69523809D02*
X235954819Y-69523809D01*
X235954819Y-69523809D02*
X235954819Y-69142857D01*
X235954819Y-69142857D02*
X236002438Y-69047619D01*
X236002438Y-69047619D02*
X236050057Y-69000000D01*
X236050057Y-69000000D02*
X236145295Y-68952381D01*
X236145295Y-68952381D02*
X236288152Y-68952381D01*
X236288152Y-68952381D02*
X236383390Y-69000000D01*
X236383390Y-69000000D02*
X236431009Y-69047619D01*
X236431009Y-69047619D02*
X236478628Y-69142857D01*
X236478628Y-69142857D02*
X236478628Y-69523809D01*
X237050057Y-68761905D02*
X237050057Y-68000000D01*
X236859580Y-67190476D02*
X236907200Y-67238095D01*
X236907200Y-67238095D02*
X236954819Y-67380952D01*
X236954819Y-67380952D02*
X236954819Y-67476190D01*
X236954819Y-67476190D02*
X236907200Y-67619047D01*
X236907200Y-67619047D02*
X236811961Y-67714285D01*
X236811961Y-67714285D02*
X236716723Y-67761904D01*
X236716723Y-67761904D02*
X236526247Y-67809523D01*
X236526247Y-67809523D02*
X236383390Y-67809523D01*
X236383390Y-67809523D02*
X236192914Y-67761904D01*
X236192914Y-67761904D02*
X236097676Y-67714285D01*
X236097676Y-67714285D02*
X236002438Y-67619047D01*
X236002438Y-67619047D02*
X235954819Y-67476190D01*
X235954819Y-67476190D02*
X235954819Y-67380952D01*
X235954819Y-67380952D02*
X236002438Y-67238095D01*
X236002438Y-67238095D02*
X236050057Y-67190476D01*
X236954819Y-66761904D02*
X235954819Y-66761904D01*
X236431009Y-66761904D02*
X236431009Y-66190476D01*
X236954819Y-66190476D02*
X235954819Y-66190476D01*
X236002438Y-65190476D02*
X235954819Y-65285714D01*
X235954819Y-65285714D02*
X235954819Y-65428571D01*
X235954819Y-65428571D02*
X236002438Y-65571428D01*
X236002438Y-65571428D02*
X236097676Y-65666666D01*
X236097676Y-65666666D02*
X236192914Y-65714285D01*
X236192914Y-65714285D02*
X236383390Y-65761904D01*
X236383390Y-65761904D02*
X236526247Y-65761904D01*
X236526247Y-65761904D02*
X236716723Y-65714285D01*
X236716723Y-65714285D02*
X236811961Y-65666666D01*
X236811961Y-65666666D02*
X236907200Y-65571428D01*
X236907200Y-65571428D02*
X236954819Y-65428571D01*
X236954819Y-65428571D02*
X236954819Y-65333333D01*
X236954819Y-65333333D02*
X236907200Y-65190476D01*
X236907200Y-65190476D02*
X236859580Y-65142857D01*
X236859580Y-65142857D02*
X236526247Y-65142857D01*
X236526247Y-65142857D02*
X236526247Y-65333333D01*
X237050057Y-64952381D02*
X237050057Y-64190476D01*
X236050057Y-63999999D02*
X236002438Y-63952380D01*
X236002438Y-63952380D02*
X235954819Y-63857142D01*
X235954819Y-63857142D02*
X235954819Y-63619047D01*
X235954819Y-63619047D02*
X236002438Y-63523809D01*
X236002438Y-63523809D02*
X236050057Y-63476190D01*
X236050057Y-63476190D02*
X236145295Y-63428571D01*
X236145295Y-63428571D02*
X236240533Y-63428571D01*
X236240533Y-63428571D02*
X236383390Y-63476190D01*
X236383390Y-63476190D02*
X236954819Y-64047618D01*
X236954819Y-64047618D02*
X236954819Y-63428571D01*
G36*
X168055180Y-48842883D02*
G01*
X168020922Y-48911399D01*
X167990515Y-48941806D01*
X167921999Y-48976064D01*
X167814552Y-48976064D01*
X167746036Y-48941806D01*
X167715629Y-48911399D01*
X167681371Y-48842883D01*
X167681371Y-48554636D01*
X168055180Y-48554636D01*
X168055180Y-48842883D01*
G37*
G36*
X168055180Y-46276990D02*
G01*
X168017009Y-46391503D01*
X167942896Y-46465616D01*
X167865909Y-46504109D01*
X167692375Y-46547493D01*
X167567986Y-46547493D01*
X167394452Y-46504109D01*
X167317465Y-46465616D01*
X167243351Y-46391502D01*
X167205180Y-46276988D01*
X167205180Y-46126065D01*
X168055180Y-46126065D01*
X168055180Y-46276990D01*
G37*
G36*
X167948979Y-42499739D02*
G01*
X168020922Y-42571682D01*
X168055180Y-42640198D01*
X168055180Y-42795264D01*
X168020922Y-42863780D01*
X167948979Y-42935722D01*
X167787613Y-42976064D01*
X167472748Y-42976064D01*
X167311381Y-42935722D01*
X167239438Y-42863779D01*
X167205180Y-42795262D01*
X167205180Y-42640199D01*
X167239438Y-42571682D01*
X167311381Y-42499739D01*
X167472748Y-42459398D01*
X167787613Y-42459398D01*
X167948979Y-42499739D01*
G37*
G36*
X168316291Y-49237175D02*
G01*
X166944069Y-49237175D01*
X166944069Y-48465004D01*
X167056621Y-48465004D01*
X167056621Y-48494268D01*
X167067820Y-48521304D01*
X167088512Y-48541996D01*
X167115548Y-48553195D01*
X167130180Y-48554636D01*
X167531371Y-48554636D01*
X167531371Y-48860588D01*
X167532812Y-48875220D01*
X167533843Y-48877709D01*
X167534034Y-48880397D01*
X167539289Y-48894129D01*
X167586908Y-48989367D01*
X167590872Y-48995666D01*
X167591630Y-48997494D01*
X167593318Y-48999550D01*
X167594740Y-49001810D01*
X167596238Y-49003109D01*
X167600957Y-49008859D01*
X167648576Y-49056478D01*
X167654325Y-49061196D01*
X167655625Y-49062695D01*
X167657884Y-49064116D01*
X167659941Y-49065805D01*
X167661768Y-49066562D01*
X167668068Y-49070527D01*
X167763306Y-49118146D01*
X167777037Y-49123401D01*
X167779726Y-49123592D01*
X167782215Y-49124623D01*
X167796847Y-49126064D01*
X167939704Y-49126064D01*
X167954336Y-49124623D01*
X167956825Y-49123591D01*
X167959513Y-49123401D01*
X167973245Y-49118146D01*
X168068483Y-49070527D01*
X168074782Y-49066562D01*
X168076610Y-49065805D01*
X168078666Y-49064116D01*
X168080926Y-49062695D01*
X168082225Y-49061196D01*
X168087975Y-49056478D01*
X168135594Y-49008859D01*
X168140312Y-49003109D01*
X168141811Y-49001810D01*
X168143232Y-48999550D01*
X168144921Y-48997494D01*
X168145678Y-48995666D01*
X168149643Y-48989367D01*
X168197262Y-48894129D01*
X168202517Y-48880398D01*
X168202708Y-48877708D01*
X168203739Y-48875220D01*
X168205180Y-48860588D01*
X168205180Y-48479636D01*
X168203739Y-48465004D01*
X168192540Y-48437968D01*
X168171848Y-48417276D01*
X168144812Y-48406077D01*
X168130180Y-48404636D01*
X167130180Y-48404636D01*
X167115548Y-48406077D01*
X167088512Y-48417276D01*
X167067820Y-48437968D01*
X167056621Y-48465004D01*
X166944069Y-48465004D01*
X166944069Y-47622493D01*
X167055180Y-47622493D01*
X167055180Y-47860588D01*
X167056621Y-47875220D01*
X167057651Y-47877708D01*
X167057843Y-47880398D01*
X167063098Y-47894130D01*
X167110718Y-47989368D01*
X167114683Y-47995666D01*
X167115440Y-47997494D01*
X167117128Y-47999551D01*
X167118551Y-48001811D01*
X167120049Y-48003110D01*
X167124767Y-48008859D01*
X167172386Y-48056478D01*
X167178135Y-48061196D01*
X167179435Y-48062695D01*
X167181694Y-48064116D01*
X167183751Y-48065805D01*
X167185578Y-48066562D01*
X167191878Y-48070527D01*
X167287116Y-48118146D01*
X167300847Y-48123401D01*
X167303536Y-48123592D01*
X167306025Y-48124623D01*
X167320657Y-48126064D01*
X167415895Y-48126064D01*
X167430527Y-48124623D01*
X167433016Y-48123591D01*
X167435704Y-48123401D01*
X167449436Y-48118146D01*
X167544674Y-48070527D01*
X167550973Y-48066562D01*
X167552801Y-48065805D01*
X167554857Y-48064116D01*
X167557117Y-48062695D01*
X167558416Y-48061196D01*
X167564166Y-48056478D01*
X167611785Y-48008859D01*
X167616503Y-48003109D01*
X167618002Y-48001810D01*
X167619423Y-47999550D01*
X167621112Y-47997494D01*
X167621869Y-47995666D01*
X167625834Y-47989367D01*
X167673453Y-47894129D01*
X167673862Y-47893059D01*
X167674185Y-47892624D01*
X167676377Y-47886487D01*
X167678708Y-47880398D01*
X167678746Y-47879857D01*
X167679132Y-47878778D01*
X167724754Y-47696288D01*
X167763248Y-47619301D01*
X167793655Y-47588894D01*
X167862171Y-47554636D01*
X167921999Y-47554636D01*
X167990515Y-47588894D01*
X168020922Y-47619301D01*
X168055180Y-47687817D01*
X168055180Y-47896037D01*
X168011410Y-48027347D01*
X168008150Y-48041684D01*
X168010225Y-48070874D01*
X168023311Y-48097047D01*
X168045418Y-48116221D01*
X168073181Y-48125475D01*
X168102371Y-48123400D01*
X168128544Y-48110314D01*
X168147718Y-48088207D01*
X168153712Y-48074781D01*
X168201331Y-47931925D01*
X168202980Y-47924669D01*
X168203739Y-47922839D01*
X168204000Y-47920185D01*
X168204591Y-47917588D01*
X168204450Y-47915613D01*
X168205180Y-47908207D01*
X168205180Y-47670112D01*
X168203739Y-47655480D01*
X168202708Y-47652991D01*
X168202517Y-47650302D01*
X168197262Y-47636571D01*
X168149643Y-47541333D01*
X168145678Y-47535033D01*
X168144921Y-47533206D01*
X168143232Y-47531149D01*
X168141811Y-47528890D01*
X168140312Y-47527590D01*
X168135594Y-47521841D01*
X168087975Y-47474222D01*
X168082225Y-47469503D01*
X168080926Y-47468005D01*
X168078666Y-47466583D01*
X168076610Y-47464895D01*
X168074782Y-47464137D01*
X168068483Y-47460173D01*
X167973245Y-47412554D01*
X167959513Y-47407299D01*
X167956825Y-47407108D01*
X167954336Y-47406077D01*
X167939704Y-47404636D01*
X167844466Y-47404636D01*
X167829834Y-47406077D01*
X167827345Y-47407107D01*
X167824656Y-47407299D01*
X167810925Y-47412554D01*
X167715687Y-47460173D01*
X167709387Y-47464137D01*
X167707560Y-47464895D01*
X167705503Y-47466583D01*
X167703244Y-47468005D01*
X167701944Y-47469503D01*
X167696195Y-47474222D01*
X167648576Y-47521841D01*
X167643857Y-47527590D01*
X167642359Y-47528890D01*
X167640937Y-47531149D01*
X167639249Y-47533206D01*
X167638491Y-47535033D01*
X167634527Y-47541333D01*
X167586908Y-47636571D01*
X167586498Y-47637640D01*
X167586176Y-47638076D01*
X167583980Y-47644221D01*
X167581653Y-47650303D01*
X167581614Y-47650842D01*
X167581229Y-47651922D01*
X167535606Y-47834412D01*
X167497113Y-47911399D01*
X167466706Y-47941806D01*
X167398190Y-47976064D01*
X167338362Y-47976064D01*
X167269846Y-47941806D01*
X167239438Y-47911398D01*
X167205180Y-47842881D01*
X167205180Y-47634664D01*
X167248951Y-47503353D01*
X167252211Y-47489017D01*
X167250137Y-47459827D01*
X167237050Y-47433653D01*
X167214943Y-47414479D01*
X167187181Y-47405225D01*
X167157991Y-47407299D01*
X167131817Y-47420386D01*
X167112643Y-47442493D01*
X167106649Y-47455918D01*
X167059029Y-47598775D01*
X167057379Y-47606030D01*
X167056621Y-47607861D01*
X167056359Y-47610514D01*
X167055769Y-47613112D01*
X167055909Y-47615087D01*
X167055180Y-47622493D01*
X166944069Y-47622493D01*
X166944069Y-47036433D01*
X167056621Y-47036433D01*
X167056621Y-47065697D01*
X167067820Y-47092733D01*
X167088512Y-47113425D01*
X167115548Y-47124624D01*
X167130180Y-47126065D01*
X168130180Y-47126065D01*
X168144812Y-47124624D01*
X168171848Y-47113425D01*
X168192540Y-47092733D01*
X168203739Y-47065697D01*
X168203739Y-47036433D01*
X168192540Y-47009397D01*
X168171848Y-46988705D01*
X168144812Y-46977506D01*
X168130180Y-46976065D01*
X167130180Y-46976065D01*
X167115548Y-46977506D01*
X167088512Y-46988705D01*
X167067820Y-47009397D01*
X167056621Y-47036433D01*
X166944069Y-47036433D01*
X166944069Y-46051065D01*
X167055180Y-46051065D01*
X167055180Y-46289160D01*
X167055909Y-46296565D01*
X167055769Y-46298541D01*
X167056359Y-46301138D01*
X167056621Y-46303792D01*
X167057379Y-46305622D01*
X167059029Y-46312878D01*
X167106649Y-46455735D01*
X167112643Y-46469160D01*
X167114409Y-46471196D01*
X167115440Y-46473685D01*
X167124767Y-46485050D01*
X167220005Y-46580288D01*
X167225755Y-46585008D01*
X167227054Y-46586505D01*
X167229308Y-46587924D01*
X167231370Y-46589616D01*
X167233202Y-46590374D01*
X167239497Y-46594337D01*
X167334735Y-46641956D01*
X167335804Y-46642365D01*
X167336240Y-46642688D01*
X167342376Y-46644880D01*
X167348466Y-46647211D01*
X167349006Y-46647249D01*
X167350086Y-46647635D01*
X167540562Y-46695254D01*
X167543098Y-46695629D01*
X167544120Y-46696052D01*
X167549632Y-46696594D01*
X167555106Y-46697404D01*
X167556198Y-46697241D01*
X167558752Y-46697493D01*
X167701609Y-46697493D01*
X167704162Y-46697241D01*
X167705255Y-46697404D01*
X167710728Y-46696594D01*
X167716241Y-46696052D01*
X167717262Y-46695629D01*
X167719799Y-46695254D01*
X167910275Y-46647635D01*
X167911354Y-46647249D01*
X167911894Y-46647211D01*
X167917975Y-46644883D01*
X167924121Y-46642688D01*
X167924556Y-46642365D01*
X167925626Y-46641956D01*
X168020864Y-46594337D01*
X168027163Y-46590372D01*
X168028991Y-46589615D01*
X168031047Y-46587926D01*
X168033307Y-46586505D01*
X168034606Y-46585006D01*
X168040356Y-46580288D01*
X168135594Y-46485050D01*
X168144922Y-46473685D01*
X168145953Y-46471194D01*
X168147718Y-46469160D01*
X168153712Y-46455734D01*
X168201331Y-46312878D01*
X168202980Y-46305622D01*
X168203739Y-46303792D01*
X168204000Y-46301138D01*
X168204591Y-46298541D01*
X168204450Y-46296566D01*
X168205180Y-46289160D01*
X168205180Y-46051065D01*
X168203739Y-46036433D01*
X168192540Y-46009397D01*
X168171848Y-45988705D01*
X168144812Y-45977506D01*
X168130180Y-45976065D01*
X167130180Y-45976065D01*
X167115548Y-45977506D01*
X167088512Y-45988705D01*
X167067820Y-46009397D01*
X167056621Y-46036433D01*
X167055180Y-46051065D01*
X166944069Y-46051065D01*
X166944069Y-44655480D01*
X167056621Y-44655480D01*
X167056621Y-44684744D01*
X167067820Y-44711780D01*
X167088512Y-44732472D01*
X167115548Y-44743671D01*
X167130180Y-44745112D01*
X168055180Y-44745112D01*
X168055180Y-44955826D01*
X168056621Y-44970458D01*
X168067820Y-44997494D01*
X168088512Y-45018186D01*
X168115548Y-45029385D01*
X168144812Y-45029385D01*
X168171848Y-45018186D01*
X168192540Y-44997494D01*
X168203739Y-44970458D01*
X168205180Y-44955826D01*
X168205180Y-44384398D01*
X168203739Y-44369766D01*
X168192540Y-44342730D01*
X168171848Y-44322038D01*
X168144812Y-44310839D01*
X168115548Y-44310839D01*
X168088512Y-44322038D01*
X168067820Y-44342730D01*
X168056621Y-44369766D01*
X168055180Y-44384398D01*
X168055180Y-44595112D01*
X167130180Y-44595112D01*
X167115548Y-44596553D01*
X167088512Y-44607752D01*
X167067820Y-44628444D01*
X167056621Y-44655480D01*
X166944069Y-44655480D01*
X166944069Y-43670112D01*
X167055180Y-43670112D01*
X167055180Y-43860588D01*
X167056621Y-43875220D01*
X167057651Y-43877708D01*
X167057843Y-43880398D01*
X167063098Y-43894130D01*
X167110718Y-43989368D01*
X167114683Y-43995666D01*
X167115440Y-43997494D01*
X167117128Y-43999551D01*
X167118551Y-44001811D01*
X167120049Y-44003110D01*
X167124767Y-44008859D01*
X167172386Y-44056478D01*
X167178135Y-44061196D01*
X167179435Y-44062695D01*
X167181694Y-44064116D01*
X167183751Y-44065805D01*
X167185578Y-44066562D01*
X167191878Y-44070527D01*
X167287116Y-44118146D01*
X167300847Y-44123401D01*
X167303536Y-44123592D01*
X167306025Y-44124623D01*
X167320657Y-44126064D01*
X168130180Y-44126064D01*
X168144812Y-44124623D01*
X168171848Y-44113424D01*
X168192540Y-44092732D01*
X168203739Y-44065696D01*
X168203739Y-44036432D01*
X168192540Y-44009396D01*
X168171848Y-43988704D01*
X168144812Y-43977505D01*
X168130180Y-43976064D01*
X167338362Y-43976064D01*
X167269846Y-43941806D01*
X167239438Y-43911398D01*
X167205180Y-43842881D01*
X167205180Y-43687818D01*
X167239438Y-43619301D01*
X167269846Y-43588894D01*
X167338362Y-43554636D01*
X168130180Y-43554636D01*
X168144812Y-43553195D01*
X168171848Y-43541996D01*
X168192540Y-43521304D01*
X168203739Y-43494268D01*
X168203739Y-43465004D01*
X168192540Y-43437968D01*
X168171848Y-43417276D01*
X168144812Y-43406077D01*
X168130180Y-43404636D01*
X167320657Y-43404636D01*
X167306025Y-43406077D01*
X167303536Y-43407107D01*
X167300847Y-43407299D01*
X167287116Y-43412554D01*
X167191878Y-43460173D01*
X167185578Y-43464137D01*
X167183751Y-43464895D01*
X167181694Y-43466583D01*
X167179435Y-43468005D01*
X167178135Y-43469503D01*
X167172386Y-43474222D01*
X167124767Y-43521841D01*
X167120049Y-43527589D01*
X167118551Y-43528889D01*
X167117128Y-43531148D01*
X167115440Y-43533206D01*
X167114683Y-43535033D01*
X167110718Y-43541332D01*
X167063098Y-43636570D01*
X167057843Y-43650302D01*
X167057651Y-43652991D01*
X167056621Y-43655480D01*
X167055180Y-43670112D01*
X166944069Y-43670112D01*
X166944069Y-42622493D01*
X167055180Y-42622493D01*
X167055180Y-42812969D01*
X167056621Y-42827601D01*
X167057651Y-42830089D01*
X167057843Y-42832779D01*
X167063098Y-42846511D01*
X167110718Y-42941749D01*
X167114683Y-42948047D01*
X167115440Y-42949875D01*
X167117128Y-42951932D01*
X167118551Y-42954192D01*
X167120049Y-42955491D01*
X167124767Y-42961240D01*
X167220005Y-43056478D01*
X167231370Y-43065806D01*
X167236523Y-43067940D01*
X167241002Y-43071259D01*
X167254848Y-43076206D01*
X167445324Y-43123825D01*
X167447860Y-43124200D01*
X167448882Y-43124623D01*
X167454394Y-43125165D01*
X167459868Y-43125975D01*
X167460960Y-43125812D01*
X167463514Y-43126064D01*
X167796847Y-43126064D01*
X167799400Y-43125812D01*
X167800493Y-43125975D01*
X167805966Y-43125165D01*
X167811479Y-43124623D01*
X167812500Y-43124200D01*
X167815037Y-43123825D01*
X168005513Y-43076206D01*
X168019359Y-43071259D01*
X168023840Y-43067938D01*
X168028991Y-43065805D01*
X168040356Y-43056478D01*
X168135594Y-42961240D01*
X168140314Y-42955489D01*
X168141811Y-42954191D01*
X168143230Y-42951936D01*
X168144922Y-42949875D01*
X168145680Y-42948042D01*
X168149643Y-42941748D01*
X168197262Y-42846510D01*
X168202517Y-42832779D01*
X168202708Y-42830089D01*
X168203739Y-42827601D01*
X168205180Y-42812969D01*
X168205180Y-42622493D01*
X168203739Y-42607861D01*
X168202708Y-42605372D01*
X168202517Y-42602683D01*
X168197262Y-42588952D01*
X168149643Y-42493714D01*
X168145680Y-42487419D01*
X168144922Y-42485587D01*
X168143230Y-42483525D01*
X168141811Y-42481271D01*
X168140314Y-42479972D01*
X168135594Y-42474222D01*
X168040356Y-42378984D01*
X168028991Y-42369657D01*
X168023840Y-42367523D01*
X168019359Y-42364203D01*
X168005513Y-42359256D01*
X167815037Y-42311637D01*
X167812500Y-42311261D01*
X167811479Y-42310839D01*
X167805966Y-42310296D01*
X167800493Y-42309487D01*
X167799400Y-42309649D01*
X167796847Y-42309398D01*
X167463514Y-42309398D01*
X167460960Y-42309649D01*
X167459868Y-42309487D01*
X167454394Y-42310296D01*
X167448882Y-42310839D01*
X167447860Y-42311261D01*
X167445324Y-42311637D01*
X167254848Y-42359256D01*
X167241002Y-42364203D01*
X167236523Y-42367521D01*
X167231370Y-42369656D01*
X167220005Y-42378984D01*
X167124767Y-42474222D01*
X167120049Y-42479970D01*
X167118551Y-42481270D01*
X167117128Y-42483529D01*
X167115440Y-42485587D01*
X167114683Y-42487414D01*
X167110718Y-42493713D01*
X167063098Y-42588951D01*
X167057843Y-42602683D01*
X167057651Y-42605372D01*
X167056621Y-42607861D01*
X167055180Y-42622493D01*
X166944069Y-42622493D01*
X166944069Y-41245622D01*
X167055291Y-41245622D01*
X167062554Y-41273970D01*
X167080112Y-41297381D01*
X167105293Y-41312290D01*
X167134262Y-41316429D01*
X167162610Y-41309166D01*
X167175180Y-41301540D01*
X167694571Y-40911997D01*
X168077147Y-41294573D01*
X168088512Y-41303900D01*
X168115548Y-41315099D01*
X168144811Y-41315099D01*
X168171848Y-41303900D01*
X168192540Y-41283208D01*
X168203739Y-41256171D01*
X168203739Y-41226908D01*
X168192540Y-41199872D01*
X168183213Y-41188507D01*
X167739818Y-40745112D01*
X168130180Y-40745112D01*
X168144812Y-40743671D01*
X168171848Y-40732472D01*
X168192540Y-40711780D01*
X168203739Y-40684744D01*
X168203739Y-40655480D01*
X168192540Y-40628444D01*
X168171848Y-40607752D01*
X168144812Y-40596553D01*
X168130180Y-40595112D01*
X167130180Y-40595112D01*
X167115548Y-40596553D01*
X167088512Y-40607752D01*
X167067820Y-40628444D01*
X167056621Y-40655480D01*
X167056621Y-40684744D01*
X167067820Y-40711780D01*
X167088512Y-40732472D01*
X167115548Y-40743671D01*
X167130180Y-40745112D01*
X167527686Y-40745112D01*
X167587428Y-40804854D01*
X167085180Y-41181540D01*
X167074339Y-41191472D01*
X167059430Y-41216653D01*
X167055291Y-41245622D01*
X166944069Y-41245622D01*
X166944069Y-40179290D01*
X167056621Y-40179290D01*
X167056621Y-40208554D01*
X167067820Y-40235590D01*
X167088512Y-40256282D01*
X167115548Y-40267481D01*
X167130180Y-40268922D01*
X168130180Y-40268922D01*
X168144812Y-40267481D01*
X168171848Y-40256282D01*
X168192540Y-40235590D01*
X168203739Y-40208554D01*
X168203739Y-40179290D01*
X168192540Y-40152254D01*
X168171848Y-40131562D01*
X168144812Y-40120363D01*
X168130180Y-40118922D01*
X167130180Y-40118922D01*
X167115548Y-40120363D01*
X167088512Y-40131562D01*
X167067820Y-40152254D01*
X167056621Y-40179290D01*
X166944069Y-40179290D01*
X166944069Y-39517875D01*
X167055769Y-39517875D01*
X167056435Y-39527255D01*
X167055769Y-39536635D01*
X167057464Y-39541720D01*
X167057844Y-39547065D01*
X167062048Y-39555474D01*
X167065023Y-39564398D01*
X167068534Y-39568446D01*
X167070930Y-39573238D01*
X167078034Y-39579400D01*
X167084197Y-39586505D01*
X167088988Y-39588900D01*
X167093037Y-39592412D01*
X167106463Y-39598406D01*
X168106463Y-39931739D01*
X168120799Y-39934999D01*
X168149989Y-39932924D01*
X168176163Y-39919838D01*
X168195337Y-39897730D01*
X168204591Y-39869968D01*
X168202516Y-39840778D01*
X168189429Y-39814605D01*
X168167322Y-39795431D01*
X168153897Y-39789437D01*
X167367350Y-39527255D01*
X168153897Y-39265073D01*
X168167322Y-39259079D01*
X168189429Y-39239905D01*
X168202516Y-39213732D01*
X168204591Y-39184542D01*
X168195337Y-39156780D01*
X168176163Y-39134672D01*
X168149989Y-39121586D01*
X168120799Y-39119511D01*
X168106463Y-39122771D01*
X167106463Y-39456104D01*
X167093037Y-39462098D01*
X167088988Y-39465609D01*
X167084197Y-39468005D01*
X167078034Y-39475109D01*
X167070930Y-39481272D01*
X167068534Y-39486063D01*
X167065023Y-39490112D01*
X167062048Y-39499035D01*
X167057844Y-39507445D01*
X167057464Y-39512789D01*
X167055769Y-39517875D01*
X166944069Y-39517875D01*
X166944069Y-39008400D01*
X168316291Y-39008400D01*
X168316291Y-49237175D01*
G37*
X176688309Y-38406064D02*
X176688309Y-38870350D01*
X176688309Y-38870350D02*
X176402595Y-38620350D01*
X176402595Y-38620350D02*
X176402595Y-38727493D01*
X176402595Y-38727493D02*
X176366881Y-38798922D01*
X176366881Y-38798922D02*
X176331166Y-38834636D01*
X176331166Y-38834636D02*
X176259738Y-38870350D01*
X176259738Y-38870350D02*
X176081166Y-38870350D01*
X176081166Y-38870350D02*
X176009738Y-38834636D01*
X176009738Y-38834636D02*
X175974024Y-38798922D01*
X175974024Y-38798922D02*
X175938309Y-38727493D01*
X175938309Y-38727493D02*
X175938309Y-38513207D01*
X175938309Y-38513207D02*
X175974024Y-38441779D01*
X175974024Y-38441779D02*
X176009738Y-38406064D01*
X176438309Y-39120350D02*
X175938309Y-39298922D01*
X175938309Y-39298922D02*
X176438309Y-39477493D01*
X176688309Y-39691779D02*
X176688309Y-40156065D01*
X176688309Y-40156065D02*
X176402595Y-39906065D01*
X176402595Y-39906065D02*
X176402595Y-40013208D01*
X176402595Y-40013208D02*
X176366881Y-40084637D01*
X176366881Y-40084637D02*
X176331166Y-40120351D01*
X176331166Y-40120351D02*
X176259738Y-40156065D01*
X176259738Y-40156065D02*
X176081166Y-40156065D01*
X176081166Y-40156065D02*
X176009738Y-40120351D01*
X176009738Y-40120351D02*
X175974024Y-40084637D01*
X175974024Y-40084637D02*
X175938309Y-40013208D01*
X175938309Y-40013208D02*
X175938309Y-39798922D01*
X175938309Y-39798922D02*
X175974024Y-39727494D01*
X175974024Y-39727494D02*
X176009738Y-39691779D01*
X223220414Y-49794411D02*
X223220414Y-49330125D01*
X223220414Y-49330125D02*
X223506128Y-49580125D01*
X223506128Y-49580125D02*
X223506128Y-49472982D01*
X223506128Y-49472982D02*
X223541842Y-49401554D01*
X223541842Y-49401554D02*
X223577557Y-49365839D01*
X223577557Y-49365839D02*
X223648985Y-49330125D01*
X223648985Y-49330125D02*
X223827557Y-49330125D01*
X223827557Y-49330125D02*
X223898985Y-49365839D01*
X223898985Y-49365839D02*
X223934700Y-49401554D01*
X223934700Y-49401554D02*
X223970414Y-49472982D01*
X223970414Y-49472982D02*
X223970414Y-49687268D01*
X223970414Y-49687268D02*
X223934700Y-49758696D01*
X223934700Y-49758696D02*
X223898985Y-49794411D01*
X223470414Y-49080125D02*
X223970414Y-48901553D01*
X223970414Y-48901553D02*
X223470414Y-48722982D01*
X223220414Y-48508696D02*
X223220414Y-48044410D01*
X223220414Y-48044410D02*
X223506128Y-48294410D01*
X223506128Y-48294410D02*
X223506128Y-48187267D01*
X223506128Y-48187267D02*
X223541842Y-48115839D01*
X223541842Y-48115839D02*
X223577557Y-48080124D01*
X223577557Y-48080124D02*
X223648985Y-48044410D01*
X223648985Y-48044410D02*
X223827557Y-48044410D01*
X223827557Y-48044410D02*
X223898985Y-48080124D01*
X223898985Y-48080124D02*
X223934700Y-48115839D01*
X223934700Y-48115839D02*
X223970414Y-48187267D01*
X223970414Y-48187267D02*
X223970414Y-48401553D01*
X223970414Y-48401553D02*
X223934700Y-48472981D01*
X223934700Y-48472981D02*
X223898985Y-48508696D01*
G36*
X232688617Y-45564276D02*
G01*
X232760561Y-45636219D01*
X232794819Y-45704735D01*
X232794819Y-45859801D01*
X232760561Y-45928316D01*
X232688617Y-46000259D01*
X232527251Y-46040601D01*
X232212386Y-46040601D01*
X232051019Y-46000259D01*
X231979077Y-45928317D01*
X231944819Y-45859801D01*
X231944819Y-45704735D01*
X231979077Y-45636219D01*
X232051019Y-45564276D01*
X232212386Y-45523935D01*
X232527251Y-45523935D01*
X232688617Y-45564276D01*
G37*
G36*
X232605547Y-41995889D02*
G01*
X232682534Y-42034383D01*
X232756648Y-42108496D01*
X232794819Y-42223009D01*
X232794819Y-42373934D01*
X231944819Y-42373934D01*
X231944819Y-42223009D01*
X231982990Y-42108495D01*
X232057103Y-42034383D01*
X232134090Y-41995889D01*
X232307624Y-41952506D01*
X232432013Y-41952506D01*
X232605547Y-41995889D01*
G37*
G36*
X232253963Y-39558193D02*
G01*
X232284370Y-39588600D01*
X232318628Y-39657116D01*
X232318628Y-39945363D01*
X231944819Y-39945363D01*
X231944819Y-39657116D01*
X231979077Y-39588600D01*
X232009484Y-39558193D01*
X232078000Y-39523935D01*
X232185447Y-39523935D01*
X232253963Y-39558193D01*
G37*
G36*
X233055930Y-49491599D02*
G01*
X231683708Y-49491599D01*
X231683708Y-48630031D01*
X231795408Y-48630031D01*
X231797483Y-48659221D01*
X231810569Y-48685394D01*
X231832676Y-48704568D01*
X231846102Y-48710562D01*
X232632648Y-48972744D01*
X231846102Y-49234926D01*
X231832676Y-49240920D01*
X231810569Y-49260094D01*
X231797483Y-49286267D01*
X231795408Y-49315457D01*
X231804662Y-49343220D01*
X231823836Y-49365327D01*
X231850009Y-49378413D01*
X231879199Y-49380488D01*
X231893536Y-49377228D01*
X232893536Y-49043895D01*
X232906961Y-49037901D01*
X232911008Y-49034390D01*
X232915802Y-49031994D01*
X232921966Y-49024886D01*
X232929068Y-49018727D01*
X232931463Y-49013935D01*
X232934976Y-49009886D01*
X232937950Y-49000963D01*
X232942155Y-48992554D01*
X232942534Y-48987209D01*
X232944230Y-48982124D01*
X232943563Y-48972744D01*
X232944230Y-48963364D01*
X232942534Y-48958278D01*
X232942155Y-48952934D01*
X232937950Y-48944524D01*
X232934976Y-48935602D01*
X232931463Y-48931552D01*
X232929068Y-48926761D01*
X232921966Y-48920601D01*
X232915802Y-48913494D01*
X232911008Y-48911097D01*
X232906961Y-48907587D01*
X232893536Y-48901593D01*
X231893536Y-48568260D01*
X231879199Y-48565000D01*
X231850009Y-48567075D01*
X231823836Y-48580161D01*
X231804662Y-48602268D01*
X231795408Y-48630031D01*
X231683708Y-48630031D01*
X231683708Y-48291445D01*
X231796260Y-48291445D01*
X231796260Y-48320709D01*
X231807459Y-48347745D01*
X231828151Y-48368437D01*
X231855187Y-48379636D01*
X231869819Y-48381077D01*
X232869819Y-48381077D01*
X232884451Y-48379636D01*
X232911487Y-48368437D01*
X232932179Y-48347745D01*
X232943378Y-48320709D01*
X232943378Y-48291445D01*
X232932179Y-48264409D01*
X232911487Y-48243717D01*
X232884451Y-48232518D01*
X232869819Y-48231077D01*
X231869819Y-48231077D01*
X231855187Y-48232518D01*
X231828151Y-48243717D01*
X231807459Y-48264409D01*
X231796260Y-48291445D01*
X231683708Y-48291445D01*
X231683708Y-47243828D01*
X231796260Y-47243828D01*
X231796260Y-47273090D01*
X231807459Y-47300127D01*
X231816786Y-47311492D01*
X232260181Y-47754887D01*
X231869819Y-47754887D01*
X231855187Y-47756328D01*
X231828151Y-47767527D01*
X231807459Y-47788219D01*
X231796260Y-47815255D01*
X231796260Y-47844519D01*
X231807459Y-47871555D01*
X231828151Y-47892247D01*
X231855187Y-47903446D01*
X231869819Y-47904887D01*
X232869819Y-47904887D01*
X232884451Y-47903446D01*
X232911487Y-47892247D01*
X232932179Y-47871555D01*
X232943378Y-47844519D01*
X232943378Y-47815255D01*
X232932179Y-47788219D01*
X232911487Y-47767527D01*
X232884451Y-47756328D01*
X232869819Y-47754887D01*
X232472313Y-47754887D01*
X232412570Y-47695144D01*
X232914819Y-47318459D01*
X232925660Y-47308527D01*
X232940570Y-47283346D01*
X232944708Y-47254377D01*
X232937446Y-47226029D01*
X232919887Y-47202618D01*
X232894706Y-47187709D01*
X232865738Y-47183570D01*
X232837389Y-47190832D01*
X232824819Y-47198459D01*
X232305427Y-47588001D01*
X231922852Y-47205426D01*
X231911487Y-47196099D01*
X231884450Y-47184900D01*
X231855188Y-47184900D01*
X231828151Y-47196099D01*
X231807459Y-47216791D01*
X231796260Y-47243828D01*
X231683708Y-47243828D01*
X231683708Y-45687030D01*
X231794819Y-45687030D01*
X231794819Y-45877506D01*
X231796260Y-45892138D01*
X231797291Y-45894627D01*
X231797482Y-45897315D01*
X231802737Y-45911047D01*
X231850356Y-46006285D01*
X231854320Y-46012584D01*
X231855078Y-46014412D01*
X231856766Y-46016468D01*
X231858188Y-46018728D01*
X231859686Y-46020027D01*
X231864405Y-46025777D01*
X231959643Y-46121015D01*
X231971008Y-46130343D01*
X231976161Y-46132477D01*
X231980640Y-46135796D01*
X231994486Y-46140743D01*
X232184962Y-46188362D01*
X232187498Y-46188737D01*
X232188520Y-46189160D01*
X232194032Y-46189702D01*
X232199506Y-46190512D01*
X232200598Y-46190349D01*
X232203152Y-46190601D01*
X232536485Y-46190601D01*
X232539038Y-46190349D01*
X232540131Y-46190512D01*
X232545604Y-46189702D01*
X232551117Y-46189160D01*
X232552138Y-46188737D01*
X232554675Y-46188362D01*
X232745151Y-46140743D01*
X232758997Y-46135796D01*
X232763476Y-46132476D01*
X232768628Y-46130343D01*
X232779994Y-46121015D01*
X232875233Y-46025777D01*
X232879953Y-46020026D01*
X232881450Y-46018728D01*
X232882869Y-46016473D01*
X232884561Y-46014412D01*
X232885319Y-46012579D01*
X232889282Y-46006285D01*
X232936901Y-45911047D01*
X232942156Y-45897316D01*
X232942347Y-45894626D01*
X232943378Y-45892138D01*
X232944819Y-45877506D01*
X232944819Y-45687030D01*
X232943378Y-45672398D01*
X232942347Y-45669909D01*
X232942156Y-45667220D01*
X232936901Y-45653489D01*
X232889282Y-45558251D01*
X232885319Y-45551956D01*
X232884561Y-45550124D01*
X232882869Y-45548062D01*
X232881450Y-45545808D01*
X232879953Y-45544509D01*
X232875233Y-45538759D01*
X232779994Y-45443521D01*
X232768628Y-45434193D01*
X232763476Y-45432059D01*
X232758997Y-45428740D01*
X232745151Y-45423793D01*
X232554675Y-45376174D01*
X232552138Y-45375798D01*
X232551117Y-45375376D01*
X232545604Y-45374833D01*
X232540131Y-45374024D01*
X232539038Y-45374186D01*
X232536485Y-45373935D01*
X232203152Y-45373935D01*
X232200598Y-45374186D01*
X232199506Y-45374024D01*
X232194032Y-45374833D01*
X232188520Y-45375376D01*
X232187498Y-45375798D01*
X232184962Y-45376174D01*
X231994486Y-45423793D01*
X231980640Y-45428740D01*
X231976161Y-45432058D01*
X231971008Y-45434193D01*
X231959643Y-45443521D01*
X231864405Y-45538759D01*
X231859686Y-45544508D01*
X231858188Y-45545808D01*
X231856766Y-45548067D01*
X231855078Y-45550124D01*
X231854320Y-45551951D01*
X231850356Y-45558251D01*
X231802737Y-45653489D01*
X231797482Y-45667221D01*
X231797291Y-45669908D01*
X231796260Y-45672398D01*
X231794819Y-45687030D01*
X231683708Y-45687030D01*
X231683708Y-44434303D01*
X231796260Y-44434303D01*
X231796260Y-44463567D01*
X231807459Y-44490603D01*
X231828151Y-44511295D01*
X231855187Y-44522494D01*
X231869819Y-44523935D01*
X232661637Y-44523935D01*
X232730153Y-44558193D01*
X232760561Y-44588600D01*
X232794819Y-44657116D01*
X232794819Y-44812182D01*
X232760561Y-44880697D01*
X232730153Y-44911104D01*
X232661637Y-44945363D01*
X231869819Y-44945363D01*
X231855187Y-44946804D01*
X231828151Y-44958003D01*
X231807459Y-44978695D01*
X231796260Y-45005731D01*
X231796260Y-45034995D01*
X231807459Y-45062031D01*
X231828151Y-45082723D01*
X231855187Y-45093922D01*
X231869819Y-45095363D01*
X232679342Y-45095363D01*
X232693974Y-45093922D01*
X232696463Y-45092890D01*
X232699151Y-45092700D01*
X232712883Y-45087445D01*
X232808121Y-45039826D01*
X232814417Y-45035862D01*
X232816247Y-45035105D01*
X232818305Y-45033415D01*
X232820564Y-45031994D01*
X232821863Y-45030495D01*
X232827612Y-45025778D01*
X232875232Y-44978159D01*
X232879950Y-44972409D01*
X232881450Y-44971109D01*
X232882872Y-44968849D01*
X232884560Y-44966793D01*
X232885317Y-44964965D01*
X232889282Y-44958666D01*
X232936901Y-44863428D01*
X232942156Y-44849697D01*
X232942347Y-44847007D01*
X232943378Y-44844519D01*
X232944819Y-44829887D01*
X232944819Y-44639411D01*
X232943378Y-44624779D01*
X232942347Y-44622290D01*
X232942156Y-44619601D01*
X232936901Y-44605870D01*
X232889282Y-44510632D01*
X232885317Y-44504332D01*
X232884560Y-44502505D01*
X232882872Y-44500448D01*
X232881450Y-44498189D01*
X232879950Y-44496888D01*
X232875232Y-44491139D01*
X232827612Y-44443520D01*
X232821863Y-44438802D01*
X232820564Y-44437304D01*
X232818305Y-44435882D01*
X232816247Y-44434193D01*
X232814417Y-44433435D01*
X232808121Y-44429472D01*
X232712883Y-44381853D01*
X232699151Y-44376598D01*
X232696463Y-44376407D01*
X232693974Y-44375376D01*
X232679342Y-44373935D01*
X231869819Y-44373935D01*
X231855187Y-44375376D01*
X231828151Y-44386575D01*
X231807459Y-44407267D01*
X231796260Y-44434303D01*
X231683708Y-44434303D01*
X231683708Y-43544173D01*
X231794819Y-43544173D01*
X231794819Y-44115601D01*
X231796260Y-44130233D01*
X231807459Y-44157269D01*
X231828151Y-44177961D01*
X231855187Y-44189160D01*
X231884451Y-44189160D01*
X231911487Y-44177961D01*
X231932179Y-44157269D01*
X231943378Y-44130233D01*
X231944819Y-44115601D01*
X231944819Y-43904887D01*
X232869819Y-43904887D01*
X232884451Y-43903446D01*
X232911487Y-43892247D01*
X232932179Y-43871555D01*
X232943378Y-43844519D01*
X232943378Y-43815255D01*
X232932179Y-43788219D01*
X232911487Y-43767527D01*
X232884451Y-43756328D01*
X232869819Y-43754887D01*
X231944819Y-43754887D01*
X231944819Y-43544173D01*
X231943378Y-43529541D01*
X231932179Y-43502505D01*
X231911487Y-43481813D01*
X231884451Y-43470614D01*
X231855187Y-43470614D01*
X231828151Y-43481813D01*
X231807459Y-43502505D01*
X231796260Y-43529541D01*
X231794819Y-43544173D01*
X231683708Y-43544173D01*
X231683708Y-42210839D01*
X231794819Y-42210839D01*
X231794819Y-42448934D01*
X231796260Y-42463566D01*
X231807459Y-42490602D01*
X231828151Y-42511294D01*
X231855187Y-42522493D01*
X231869819Y-42523934D01*
X232869819Y-42523934D01*
X232884451Y-42522493D01*
X232911487Y-42511294D01*
X232932179Y-42490602D01*
X232943378Y-42463566D01*
X232944819Y-42448934D01*
X232944819Y-42210839D01*
X232944089Y-42203432D01*
X232944230Y-42201458D01*
X232943639Y-42198860D01*
X232943378Y-42196207D01*
X232942619Y-42194376D01*
X232940970Y-42187121D01*
X232893351Y-42044265D01*
X232887357Y-42030839D01*
X232885592Y-42028804D01*
X232884561Y-42026314D01*
X232875233Y-42014949D01*
X232779994Y-41919711D01*
X232774244Y-41914992D01*
X232772945Y-41913494D01*
X232770686Y-41912072D01*
X232768628Y-41910383D01*
X232766798Y-41909625D01*
X232760502Y-41905662D01*
X232665264Y-41858043D01*
X232664194Y-41857633D01*
X232663759Y-41857311D01*
X232657613Y-41855115D01*
X232651532Y-41852788D01*
X232650992Y-41852749D01*
X232649913Y-41852364D01*
X232459437Y-41804745D01*
X232456900Y-41804369D01*
X232455879Y-41803947D01*
X232450366Y-41803404D01*
X232444893Y-41802595D01*
X232443800Y-41802757D01*
X232441247Y-41802506D01*
X232298390Y-41802506D01*
X232295836Y-41802757D01*
X232294744Y-41802595D01*
X232289270Y-41803404D01*
X232283758Y-41803947D01*
X232282736Y-41804369D01*
X232280200Y-41804745D01*
X232089724Y-41852364D01*
X232088644Y-41852749D01*
X232088104Y-41852788D01*
X232082014Y-41855118D01*
X232075878Y-41857311D01*
X232075442Y-41857633D01*
X232074373Y-41858043D01*
X231979135Y-41905662D01*
X231972840Y-41909624D01*
X231971008Y-41910383D01*
X231968946Y-41912074D01*
X231966692Y-41913494D01*
X231965393Y-41914990D01*
X231959643Y-41919711D01*
X231864405Y-42014949D01*
X231855078Y-42026314D01*
X231854046Y-42028804D01*
X231852281Y-42030840D01*
X231846287Y-42044265D01*
X231798668Y-42187122D01*
X231797018Y-42194375D01*
X231796260Y-42196207D01*
X231795998Y-42198861D01*
X231795408Y-42201459D01*
X231795548Y-42203433D01*
X231794819Y-42210839D01*
X231683708Y-42210839D01*
X231683708Y-41434302D01*
X231796260Y-41434302D01*
X231796260Y-41463566D01*
X231807459Y-41490602D01*
X231828151Y-41511294D01*
X231855187Y-41522493D01*
X231869819Y-41523934D01*
X232869819Y-41523934D01*
X232884451Y-41522493D01*
X232911487Y-41511294D01*
X232932179Y-41490602D01*
X232943378Y-41463566D01*
X232943378Y-41434302D01*
X232932179Y-41407266D01*
X232911487Y-41386574D01*
X232884451Y-41375375D01*
X232869819Y-41373934D01*
X231869819Y-41373934D01*
X231855187Y-41375375D01*
X231828151Y-41386574D01*
X231807459Y-41407266D01*
X231796260Y-41434302D01*
X231683708Y-41434302D01*
X231683708Y-40591792D01*
X231794819Y-40591792D01*
X231794819Y-40829887D01*
X231796260Y-40844519D01*
X231797291Y-40847008D01*
X231797482Y-40849696D01*
X231802737Y-40863428D01*
X231850356Y-40958666D01*
X231854320Y-40964965D01*
X231855078Y-40966793D01*
X231856766Y-40968849D01*
X231858188Y-40971109D01*
X231859686Y-40972408D01*
X231864405Y-40978158D01*
X231912024Y-41025777D01*
X231917773Y-41030495D01*
X231919073Y-41031994D01*
X231921332Y-41033415D01*
X231923389Y-41035104D01*
X231925216Y-41035861D01*
X231931516Y-41039826D01*
X232026754Y-41087445D01*
X232040485Y-41092700D01*
X232043174Y-41092891D01*
X232045663Y-41093922D01*
X232060295Y-41095363D01*
X232155533Y-41095363D01*
X232170165Y-41093922D01*
X232172654Y-41092890D01*
X232175342Y-41092700D01*
X232189074Y-41087445D01*
X232284312Y-41039826D01*
X232290611Y-41035861D01*
X232292439Y-41035104D01*
X232294495Y-41033415D01*
X232296755Y-41031994D01*
X232298054Y-41030495D01*
X232303804Y-41025777D01*
X232351423Y-40978158D01*
X232356141Y-40972408D01*
X232357640Y-40971109D01*
X232359061Y-40968849D01*
X232360750Y-40966793D01*
X232361507Y-40964965D01*
X232365472Y-40958666D01*
X232413091Y-40863428D01*
X232413500Y-40862358D01*
X232413823Y-40861923D01*
X232416015Y-40855786D01*
X232418346Y-40849697D01*
X232418384Y-40849156D01*
X232418770Y-40848077D01*
X232464392Y-40665587D01*
X232502886Y-40588600D01*
X232533293Y-40558193D01*
X232601809Y-40523935D01*
X232661637Y-40523935D01*
X232730153Y-40558193D01*
X232760561Y-40588600D01*
X232794819Y-40657116D01*
X232794819Y-40865336D01*
X232751049Y-40996646D01*
X232747789Y-41010983D01*
X232749864Y-41040173D01*
X232762950Y-41066346D01*
X232785057Y-41085520D01*
X232812820Y-41094774D01*
X232842010Y-41092699D01*
X232868183Y-41079613D01*
X232887357Y-41057506D01*
X232893351Y-41044080D01*
X232940970Y-40901224D01*
X232942619Y-40893968D01*
X232943378Y-40892138D01*
X232943639Y-40889484D01*
X232944230Y-40886887D01*
X232944089Y-40884912D01*
X232944819Y-40877506D01*
X232944819Y-40639411D01*
X232943378Y-40624779D01*
X232942347Y-40622290D01*
X232942156Y-40619601D01*
X232936901Y-40605870D01*
X232889282Y-40510632D01*
X232885317Y-40504332D01*
X232884560Y-40502505D01*
X232882872Y-40500448D01*
X232881450Y-40498189D01*
X232879950Y-40496888D01*
X232875232Y-40491139D01*
X232827612Y-40443520D01*
X232821863Y-40438802D01*
X232820564Y-40437304D01*
X232818305Y-40435882D01*
X232816247Y-40434193D01*
X232814417Y-40433435D01*
X232808121Y-40429472D01*
X232712883Y-40381853D01*
X232699151Y-40376598D01*
X232696463Y-40376407D01*
X232693974Y-40375376D01*
X232679342Y-40373935D01*
X232584104Y-40373935D01*
X232569472Y-40375376D01*
X232566983Y-40376406D01*
X232564294Y-40376598D01*
X232550563Y-40381853D01*
X232455325Y-40429472D01*
X232449025Y-40433436D01*
X232447198Y-40434194D01*
X232445141Y-40435882D01*
X232442882Y-40437304D01*
X232441582Y-40438802D01*
X232435833Y-40443521D01*
X232388214Y-40491140D01*
X232383495Y-40496889D01*
X232381997Y-40498189D01*
X232380575Y-40500448D01*
X232378887Y-40502505D01*
X232378129Y-40504332D01*
X232374165Y-40510632D01*
X232326546Y-40605870D01*
X232326136Y-40606939D01*
X232325814Y-40607375D01*
X232323618Y-40613520D01*
X232321291Y-40619602D01*
X232321252Y-40620141D01*
X232320867Y-40621221D01*
X232275244Y-40803711D01*
X232236751Y-40880698D01*
X232206344Y-40911105D01*
X232137828Y-40945363D01*
X232078000Y-40945363D01*
X232009484Y-40911105D01*
X231979077Y-40880698D01*
X231944819Y-40812182D01*
X231944819Y-40603962D01*
X231988589Y-40472653D01*
X231991849Y-40458316D01*
X231989774Y-40429126D01*
X231976688Y-40402952D01*
X231954580Y-40383778D01*
X231926818Y-40374524D01*
X231897628Y-40376599D01*
X231871455Y-40389686D01*
X231852281Y-40411793D01*
X231846287Y-40425218D01*
X231798668Y-40568075D01*
X231797018Y-40575328D01*
X231796260Y-40577160D01*
X231795998Y-40579814D01*
X231795408Y-40582412D01*
X231795548Y-40584386D01*
X231794819Y-40591792D01*
X231683708Y-40591792D01*
X231683708Y-39639411D01*
X231794819Y-39639411D01*
X231794819Y-40020363D01*
X231796260Y-40034995D01*
X231807459Y-40062031D01*
X231828151Y-40082723D01*
X231855187Y-40093922D01*
X231869819Y-40095363D01*
X232869819Y-40095363D01*
X232884451Y-40093922D01*
X232911487Y-40082723D01*
X232932179Y-40062031D01*
X232943378Y-40034995D01*
X232943378Y-40005731D01*
X232932179Y-39978695D01*
X232911487Y-39958003D01*
X232884451Y-39946804D01*
X232869819Y-39945363D01*
X232468628Y-39945363D01*
X232468628Y-39639411D01*
X232467187Y-39624779D01*
X232466156Y-39622290D01*
X232465965Y-39619601D01*
X232460710Y-39605870D01*
X232413091Y-39510632D01*
X232409126Y-39504332D01*
X232408369Y-39502505D01*
X232406680Y-39500448D01*
X232405259Y-39498189D01*
X232403760Y-39496889D01*
X232399042Y-39491140D01*
X232351423Y-39443521D01*
X232345673Y-39438802D01*
X232344374Y-39437304D01*
X232342114Y-39435882D01*
X232340058Y-39434194D01*
X232338230Y-39433436D01*
X232331931Y-39429472D01*
X232236693Y-39381853D01*
X232222961Y-39376598D01*
X232220273Y-39376407D01*
X232217784Y-39375376D01*
X232203152Y-39373935D01*
X232060295Y-39373935D01*
X232045663Y-39375376D01*
X232043174Y-39376406D01*
X232040485Y-39376598D01*
X232026754Y-39381853D01*
X231931516Y-39429472D01*
X231925216Y-39433436D01*
X231923389Y-39434194D01*
X231921332Y-39435882D01*
X231919073Y-39437304D01*
X231917773Y-39438802D01*
X231912024Y-39443521D01*
X231864405Y-39491140D01*
X231859686Y-39496889D01*
X231858188Y-39498189D01*
X231856766Y-39500448D01*
X231855078Y-39502505D01*
X231854320Y-39504332D01*
X231850356Y-39510632D01*
X231802737Y-39605870D01*
X231797482Y-39619602D01*
X231797291Y-39622289D01*
X231796260Y-39624779D01*
X231794819Y-39639411D01*
X231683708Y-39639411D01*
X231683708Y-39262824D01*
X233055930Y-39262824D01*
X233055930Y-49491599D01*
G37*
X242222080Y-94166666D02*
X242269700Y-94214285D01*
X242269700Y-94214285D02*
X242317319Y-94357142D01*
X242317319Y-94357142D02*
X242317319Y-94452380D01*
X242317319Y-94452380D02*
X242269700Y-94595237D01*
X242269700Y-94595237D02*
X242174461Y-94690475D01*
X242174461Y-94690475D02*
X242079223Y-94738094D01*
X242079223Y-94738094D02*
X241888747Y-94785713D01*
X241888747Y-94785713D02*
X241745890Y-94785713D01*
X241745890Y-94785713D02*
X241555414Y-94738094D01*
X241555414Y-94738094D02*
X241460176Y-94690475D01*
X241460176Y-94690475D02*
X241364938Y-94595237D01*
X241364938Y-94595237D02*
X241317319Y-94452380D01*
X241317319Y-94452380D02*
X241317319Y-94357142D01*
X241317319Y-94357142D02*
X241364938Y-94214285D01*
X241364938Y-94214285D02*
X241412557Y-94166666D01*
X241412557Y-93785713D02*
X241364938Y-93738094D01*
X241364938Y-93738094D02*
X241317319Y-93642856D01*
X241317319Y-93642856D02*
X241317319Y-93404761D01*
X241317319Y-93404761D02*
X241364938Y-93309523D01*
X241364938Y-93309523D02*
X241412557Y-93261904D01*
X241412557Y-93261904D02*
X241507795Y-93214285D01*
X241507795Y-93214285D02*
X241603033Y-93214285D01*
X241603033Y-93214285D02*
X241745890Y-93261904D01*
X241745890Y-93261904D02*
X242317319Y-93833332D01*
X242317319Y-93833332D02*
X242317319Y-93214285D01*
%TO.C,R_MON_1*%
D11*
X74590000Y-32827064D02*
X74590000Y-31372936D01*
X76410000Y-32827064D02*
X76410000Y-31372936D01*
%TO.C,Q_POW_1*%
X239802500Y-83740000D02*
X240802500Y-83740000D01*
X239802500Y-85260000D02*
X239802500Y-83740000D01*
X239852500Y-85260000D02*
X239802500Y-85260000D01*
X241752500Y-85260000D02*
X240972500Y-85260000D01*
X241922500Y-83740000D02*
X242922500Y-83740000D01*
X242922500Y-83740000D02*
X242922500Y-85260000D01*
X242922500Y-85260000D02*
X242872500Y-85260000D01*
X240982500Y-85800000D02*
X241312500Y-85560000D01*
X241312500Y-86040000D01*
X240982500Y-85800000D01*
G36*
X241312500Y-86040000D02*
G01*
X240982500Y-85800000D01*
X241312500Y-85560000D01*
X241312500Y-86040000D01*
G37*
%TO.C,JP_CHG_1*%
X240862500Y-74850000D02*
X240862500Y-73450000D01*
X241562500Y-72750000D02*
X242162500Y-72750000D01*
X242162500Y-75550000D02*
X241562500Y-75550000D01*
X242862500Y-73450000D02*
X242862500Y-74850000D01*
X240862500Y-73450000D02*
G75*
G02*
X241562500Y-72750000I700000J0D01*
G01*
X241562500Y-75550000D02*
G75*
G02*
X240862500Y-74850000I-1J699999D01*
G01*
X242162500Y-72750000D02*
G75*
G02*
X242862500Y-73450000I0J-700000D01*
G01*
X242862500Y-74850000D02*
G75*
G02*
X242162500Y-75550000I-699999J-1D01*
G01*
%TO.C,J_VIK_OUT_INTC_1*%
D12*
X168875239Y-61900080D02*
X171258239Y-61900080D01*
X168875239Y-72900080D02*
X168875239Y-61900080D01*
X168875239Y-72900080D02*
X171258239Y-72900080D01*
X173709239Y-61900080D02*
X175370239Y-61900080D01*
X173709239Y-72900081D02*
X175370239Y-72900080D01*
X175370239Y-61900080D02*
X175370239Y-64269080D01*
X175370239Y-72900080D02*
X175370239Y-70531080D01*
X176005239Y-63971080D02*
G75*
G02*
X175751239Y-63971080I-127000J0D01*
G01*
X175751239Y-63971080D02*
G75*
G02*
X176005239Y-63971080I127000J0D01*
G01*
%TO.C,J_VIK_IN_INTC_1*%
X224570000Y-61900080D02*
X224570000Y-64269080D01*
X224570000Y-72900080D02*
X224570000Y-70531080D01*
X226231000Y-61900080D02*
X224570000Y-61900080D01*
X226231000Y-72900080D02*
X224570000Y-72900080D01*
X231065000Y-61900080D02*
X228682000Y-61900080D01*
X231065000Y-61900080D02*
X231065000Y-72900080D01*
X231065000Y-72900080D02*
X228682000Y-72900080D01*
X224189000Y-70829080D02*
G75*
G02*
X223935000Y-70829080I-127000J0D01*
G01*
X223935000Y-70829080D02*
G75*
G02*
X224189000Y-70829080I127000J0D01*
G01*
%TO.C,C1*%
D11*
X238452500Y-89288748D02*
X238452500Y-90711252D01*
X240272500Y-89288748D02*
X240272500Y-90711252D01*
%TO.C,U_MCU_1*%
D10*
X79100000Y-20850000D02*
X92900000Y-20850000D01*
X79100000Y-23650000D02*
X79100000Y-20850000D01*
X79100000Y-38150000D02*
X79100000Y-39150000D01*
X79100000Y-39150000D02*
X79850000Y-39150000D01*
X92150000Y-39150000D02*
X92900000Y-39150000D01*
X92900000Y-20850000D02*
X92900000Y-23650000D01*
X92900000Y-38150000D02*
X92900000Y-39150000D01*
D11*
X80000000Y-23700000D02*
X92000000Y-23700000D01*
X92000000Y-38250000D01*
X80000000Y-38250000D01*
X80000000Y-23700000D01*
G36*
X80000000Y-23700000D02*
G01*
X92000000Y-23700000D01*
X92000000Y-38250000D01*
X80000000Y-38250000D01*
X80000000Y-23700000D01*
G37*
%TO.C,R_MON_2*%
X74590000Y-27827064D02*
X74590000Y-26372936D01*
X76410000Y-27827064D02*
X76410000Y-26372936D01*
%TO.C,D_POW_1*%
X244472500Y-78650000D02*
X241812500Y-78650000D01*
X244472500Y-80350000D02*
X241812500Y-80350000D01*
X244472500Y-80350000D02*
X244472500Y-78650000D01*
%TO.C,J_VIK_OUT_SW_2*%
D12*
X224570000Y-73550000D02*
X224570000Y-75919000D01*
X224570000Y-84550000D02*
X224570000Y-82181000D01*
X226231000Y-73550000D02*
X224570000Y-73550000D01*
X226231000Y-84550000D02*
X224570000Y-84550000D01*
X231065000Y-73550000D02*
X228682000Y-73550000D01*
X231065000Y-73550000D02*
X231065000Y-84550000D01*
X231065000Y-84550000D02*
X228682000Y-84550000D01*
X224189000Y-82479000D02*
G75*
G02*
X223935000Y-82479000I-127000J0D01*
G01*
X223935000Y-82479000D02*
G75*
G02*
X224189000Y-82479000I127000J0D01*
G01*
%TO.C,U_CHG_1*%
D11*
X237452500Y-77940000D02*
X239272500Y-77940000D01*
X237452500Y-77990000D02*
X237452500Y-77940000D01*
X237452500Y-81060000D02*
X237452500Y-81010000D01*
X239272500Y-77940000D02*
X239272500Y-77990000D01*
X239272500Y-79110000D02*
X239272500Y-79890000D01*
X239272500Y-81010000D02*
X239272500Y-81060000D01*
X239272500Y-81060000D02*
X237452500Y-81060000D01*
X236912500Y-77990000D02*
X236672500Y-77660000D01*
X237152500Y-77660000D01*
X236912500Y-77990000D01*
G36*
X236912500Y-77990000D02*
G01*
X236672500Y-77660000D01*
X237152500Y-77660000D01*
X236912500Y-77990000D01*
G37*
%TO.C,J_VIK_OUT_SW_1*%
D12*
X168890998Y-73550000D02*
X171273998Y-73550000D01*
X168890998Y-84550000D02*
X168890998Y-73550000D01*
X168890998Y-84550000D02*
X171273998Y-84550000D01*
X173724998Y-73550000D02*
X175385998Y-73550000D01*
X173724998Y-84550001D02*
X175385998Y-84550000D01*
X175385998Y-73550000D02*
X175385998Y-75919000D01*
X175385998Y-84550000D02*
X175385998Y-82181000D01*
X176020998Y-75621000D02*
G75*
G02*
X175766998Y-75621000I-127000J0D01*
G01*
X175766998Y-75621000D02*
G75*
G02*
X176020998Y-75621000I127000J0D01*
G01*
%TO.C,U_POW_1*%
D11*
X87327500Y-41015000D02*
X89147500Y-41015000D01*
X87327500Y-41065000D02*
X87327500Y-41015000D01*
X87327500Y-42965000D02*
X87327500Y-42185000D01*
X87327500Y-44135000D02*
X87327500Y-44085000D01*
X89147500Y-41015000D02*
X89147500Y-41065000D01*
X89147500Y-44085000D02*
X89147500Y-44135000D01*
X89147500Y-44135000D02*
X87327500Y-44135000D01*
X89687500Y-44085000D02*
X89927500Y-44415000D01*
X89447500Y-44415000D01*
X89687500Y-44085000D01*
G36*
X89927500Y-44415000D02*
G01*
X89447500Y-44415000D01*
X89687500Y-44085000D01*
X89927500Y-44415000D01*
G37*
%TO.C,R_POW_1*%
X243452500Y-89272936D02*
X243452500Y-90727064D01*
X245272500Y-89272936D02*
X245272500Y-90727064D01*
%TO.C,J_VIK_OUT_SENS_1*%
D12*
X168859481Y-50250160D02*
X171242481Y-50250160D01*
X168859481Y-61250160D02*
X168859481Y-50250160D01*
X168859481Y-61250160D02*
X171242481Y-61250160D01*
X173693481Y-50250160D02*
X175354481Y-50250160D01*
X173693481Y-61250161D02*
X175354481Y-61250160D01*
X175354481Y-50250160D02*
X175354481Y-52619160D01*
X175354481Y-61250160D02*
X175354481Y-58881160D01*
X175989481Y-52321160D02*
G75*
G02*
X175735481Y-52321160I-127000J0D01*
G01*
X175735481Y-52321160D02*
G75*
G02*
X175989481Y-52321160I127000J0D01*
G01*
%TO.C,J_SWD_1*%
D11*
X184550075Y-83971653D02*
X186024548Y-85004092D01*
X185381762Y-82783884D02*
X184550075Y-83971653D01*
X190013820Y-87797409D02*
X189445979Y-88608369D01*
X191488294Y-88829847D02*
X190013820Y-87797409D01*
X192319978Y-87642076D02*
X191488294Y-88829847D01*
X192897141Y-84603625D02*
X188039570Y-81202317D01*
%TO.C,R_CHG_1*%
X237427500Y-74002064D02*
X237427500Y-72547936D01*
X239247500Y-74002064D02*
X239247500Y-72547936D01*
%TO.C,J_VIK_OUT_SENS_2*%
D12*
X224570000Y-50250160D02*
X224570000Y-52619160D01*
X224570000Y-61250160D02*
X224570000Y-58881160D01*
X226231000Y-50250160D02*
X224570000Y-50250160D01*
X226231000Y-61250160D02*
X224570000Y-61250160D01*
X231065000Y-50250160D02*
X228682000Y-50250160D01*
X231065000Y-50250160D02*
X231065000Y-61250160D01*
X231065000Y-61250160D02*
X228682000Y-61250160D01*
X224189000Y-59179160D02*
G75*
G02*
X223935000Y-59179160I-127000J0D01*
G01*
X223935000Y-59179160D02*
G75*
G02*
X224189000Y-59179160I127000J0D01*
G01*
%TO.C,J_BAT_1*%
D11*
X210419289Y-83563510D02*
X212386655Y-86373201D01*
X212000854Y-80905701D02*
X213188624Y-80074016D01*
X213188624Y-80074016D02*
X214221062Y-81548489D01*
X214221062Y-81548489D02*
X215032023Y-80980648D01*
X215425106Y-85796038D02*
X216612876Y-84964353D01*
X216612876Y-84964353D02*
X215580438Y-83489879D01*
%TO.C,R_CHG_2*%
X237427500Y-69002064D02*
X237427500Y-67547936D01*
X239247500Y-69002064D02*
X239247500Y-67547936D01*
%TO.C,J_VIK_OUT_DISP_1*%
D12*
X168843724Y-38600238D02*
X171226724Y-38600238D01*
X168843724Y-49600238D02*
X168843724Y-38600238D01*
X168843724Y-49600238D02*
X171226724Y-49600238D01*
X173677724Y-38600238D02*
X175338724Y-38600238D01*
X173677724Y-49600238D02*
X175338724Y-49600238D01*
X175338724Y-38600238D02*
X175338724Y-40969238D01*
X175338724Y-49600238D02*
X175338724Y-47231238D01*
X175973724Y-40671238D02*
G75*
G02*
X175719724Y-40671238I-127000J0D01*
G01*
X175719724Y-40671238D02*
G75*
G02*
X175973724Y-40671238I127000J0D01*
G01*
%TO.C,J_VIK_OUT_DISP_2*%
X224570000Y-38600238D02*
X224570000Y-40969238D01*
X224570000Y-49600238D02*
X224570000Y-47231238D01*
X226231000Y-38600238D02*
X224570000Y-38600238D01*
X226231000Y-49600238D02*
X224570000Y-49600238D01*
X231065000Y-38600238D02*
X228682000Y-38600238D01*
X231065000Y-38600238D02*
X231065000Y-49600238D01*
X231065000Y-49600238D02*
X228682000Y-49600238D01*
X224189000Y-47529238D02*
G75*
G02*
X223935000Y-47529238I-127000J0D01*
G01*
X223935000Y-47529238D02*
G75*
G02*
X224189000Y-47529238I127000J0D01*
G01*
%TO.C,C2*%
D11*
X240952500Y-89288748D02*
X240952500Y-90711252D01*
X242772500Y-89288748D02*
X242772500Y-90711252D01*
%TD*%
M02*
