M48
; DRILL file KiCad 10.0.4-10.0.4~ubuntu26.04.1 date 2026-07-08T23:09:24
; FORMAT={-:-/ absolute / metric / decimal}
; #@! TF.CreationDate,2026-07-08T23:09:24-05:00
; #@! TF.GenerationSoftware,Kicad,Pcbnew,10.0.4-10.0.4~ubuntu26.04.1
; #@! TF.FileFunction,NonPlated,1,2,NPTH
FMAT,2
METRIC
; #@! TA.AperFunction,NonPlated,NPTH,ComponentDrill
T1C0.500
%
G90
G05
T1
X198.75Y-44.3
X198.75Y-45.15
X198.75Y-46.0
X198.75Y-46.85
X198.75Y-47.7
X198.75Y-70.3
X198.75Y-71.15
X198.75Y-72.0
X198.75Y-72.85
X198.75Y-73.7
X198.75Y-96.3
X198.75Y-97.15
X198.75Y-98.0
X198.75Y-98.85
X198.75Y-99.7
X198.75Y-122.3
X198.75Y-123.15
X198.75Y-124.0
X198.75Y-124.85
X198.75Y-125.7
X201.25Y-44.3
X201.25Y-45.15
X201.25Y-46.0
X201.25Y-46.85
X201.25Y-47.7
X201.25Y-70.3
X201.25Y-71.15
X201.25Y-72.0
X201.25Y-72.85
X201.25Y-73.7
X201.25Y-96.3
X201.25Y-97.15
X201.25Y-98.0
X201.25Y-98.85
X201.25Y-99.7
X201.25Y-122.3
X201.25Y-123.15
X201.25Y-124.0
X201.25Y-124.85
X201.25Y-125.7
M30
