%TF.GenerationSoftware,KiCad,Pcbnew,10.0.3-10.0.3~ubuntu24.04.1*%
%TF.CreationDate,2026-05-19T22:11:58-05:00*%
%TF.ProjectId,bottom_plate,626f7474-6f6d-45f7-906c-6174652e6b69,rev?*%
%TF.SameCoordinates,Original*%
%TF.FileFunction,Copper,L2,Bot*%
%TF.FilePolarity,Positive*%
%FSLAX46Y46*%
G04 Gerber Fmt 4.6, Leading zero omitted, Abs format (unit mm)*
G04 Created by KiCad (PCBNEW 10.0.3-10.0.3~ubuntu24.04.1) date 2026-05-19 22:11:58*
%MOMM*%
%LPD*%
G01*
G04 APERTURE LIST*
%TA.AperFunction,ComponentPad*%
%ADD10C,4.400000*%
%TD*%
%TA.AperFunction,ViaPad*%
%ADD11C,0.600000*%
%TD*%
%TA.AperFunction,Conductor*%
%ADD12C,0.200000*%
%TD*%
%TA.AperFunction,Conductor*%
%ADD13C,0.400000*%
%TD*%
%TA.AperFunction,Conductor*%
%ADD14C,0.300000*%
%TD*%
%TA.AperFunction,Conductor*%
%ADD15C,1.000000*%
%TD*%
G04 APERTURE END LIST*
D10*
%TO.P,H7,1,1_1*%
%TO.N,/Power_Board/GND*%
X259902067Y-18113180D03*
%TD*%
%TO.P,H6,1,1_1*%
%TO.N,/Control_Board/GND*%
X134090085Y-134024356D03*
%TD*%
%TO.P,H10,1,1_1*%
%TO.N,/Power_Board/GND*%
X162000000Y-78170815D03*
%TD*%
%TO.P,H3,1,1_1*%
%TO.N,/Control_Board/GND*%
X17895532Y-60619082D03*
%TD*%
%TO.P,H2,1,1_1*%
%TO.N,/Control_Board/GND*%
X122678931Y-35415703D03*
%TD*%
%TO.P,H8,1,1_1*%
%TO.N,/Power_Board/GND*%
X193321069Y-35415703D03*
%TD*%
%TO.P,H12,1,1_1*%
%TO.N,/Power_Board/GND*%
X181909915Y-134024356D03*
%TD*%
%TO.P,H5,1,1_1*%
%TO.N,/Control_Board/GND*%
X62220903Y-97950560D03*
%TD*%
%TO.P,H4,1,1_1*%
%TO.N,/Control_Board/GND*%
X154000000Y-78170815D03*
%TD*%
%TO.P,H11,1,1_1*%
%TO.N,/Power_Board/GND*%
X253779097Y-97950560D03*
%TD*%
%TO.P,H9,1,1_1*%
%TO.N,/Power_Board/GND*%
X298104468Y-60619082D03*
%TD*%
%TO.P,H1,1,1_1*%
%TO.N,/Control_Board/GND*%
X56097933Y-18113180D03*
%TD*%
D11*
%TO.N,/Control_Board/INT_PMW2*%
X137723649Y-39762479D03*
%TO.N,/Control_Board/GP31*%
X82723649Y-61262479D03*
%TO.N,/Control_Board/GP32*%
X84723649Y-62262479D03*
%TO.N,/Control_Board/VDD*%
X64223649Y-36762479D03*
%TO.N,/Control_Board/CS_PMW1*%
X142723649Y-42262479D03*
%TO.N,/Control_Board/D+*%
X75223649Y-36762479D03*
%TO.N,/Control_Board/RST*%
X142223649Y-82262479D03*
%TO.N,/Control_Board/VEXT*%
X140223649Y-46743241D03*
%TO.N,/Control_Board/GP22*%
X142223649Y-101262479D03*
%TO.N,/Control_Board/CS_PMW1*%
X76473649Y-23162479D03*
%TO.N,/Control_Board/CS_DIS1*%
X142373649Y-62262479D03*
%TO.N,/Control_Board/VDD*%
X54723649Y-23362479D03*
%TO.N,/Control_Board/GP12*%
X142373649Y-45262479D03*
X79723649Y-59262479D03*
%TO.N,/Control_Board/CS_PMW2*%
X98223649Y-42762479D03*
%TO.N,/Power_Board/GND*%
X179491531Y-95962467D03*
%TO.N,/Control_Board/INT_PMW2*%
X141223649Y-100262479D03*
%TO.N,/Control_Board/MOSI*%
X67523649Y-36762479D03*
%TO.N,/Control_Board/CS_PMW2*%
X76473649Y-24262479D03*
%TO.N,/Control_Board/D-*%
X74123649Y-36762479D03*
%TO.N,/Control_Board/GND*%
X123723649Y-43262479D03*
%TO.N,/Power_Board/BATT_MON*%
X185666531Y-107962467D03*
%TO.N,/Control_Board/VEXT*%
X52848649Y-24312479D03*
%TO.N,/Control_Board/GND*%
X102723649Y-53262479D03*
X92723649Y-50762479D03*
%TO.N,/Control_Board/GP22*%
X69723649Y-49262479D03*
%TO.N,/Control_Board/MOSI*%
X141773649Y-46028742D03*
%TO.N,/Control_Board/RST*%
X96223649Y-63262479D03*
%TO.N,/Control_Board/GP31*%
X141123649Y-61262479D03*
%TO.N,/Control_Board/GP32*%
X142356186Y-64663481D03*
%TO.N,/Power_Board/GND*%
X179491531Y-64962467D03*
%TO.N,/Control_Board/VDD*%
X83878649Y-31572479D03*
%TO.N,/Control_Board/GND*%
X83723649Y-33762479D03*
%TO.N,/Control_Board/D-*%
X141223649Y-85762479D03*
%TO.N,/Control_Board/D+*%
X142223649Y-84762479D03*
%TO.N,/Control_Board/CS_DIS1*%
X76473649Y-25362479D03*
%TO.N,/Control_Board/VDD*%
X137823649Y-43494479D03*
%TO.N,/Power_Board/BATT_MON*%
X176626351Y-106462467D03*
%TD*%
%TO.N,/Power_Board/BATT_MON*%
D12*
X184166531Y-106462467D02*
X185666531Y-107962467D01*
%TO.N,/Control_Board/CS_DIS1*%
X79323649Y-25362479D02*
X97723649Y-43762479D01*
%TO.N,/Control_Board/GP22*%
X69723649Y-56512479D02*
X69723649Y-49262479D01*
%TO.N,/Control_Board/GP32*%
X142356186Y-64663481D02*
X142356186Y-64619481D01*
%TO.N,/Control_Board/CS_DIS1*%
X98723649Y-43762479D02*
X100723649Y-41762479D01*
%TO.N,/Control_Board/VDD*%
D13*
X64223649Y-36382479D02*
X64223649Y-36762479D01*
%TO.N,/Control_Board/D+*%
D12*
X75223649Y-57762479D02*
X75223649Y-36762479D01*
%TO.N,/Control_Board/D-*%
X141223649Y-85762479D02*
X101657963Y-85762479D01*
%TO.N,/Control_Board/CS_PMW2*%
X98223649Y-42762479D02*
X79723649Y-24262479D01*
%TO.N,/Control_Board/CS_DIS1*%
X100723649Y-41762479D02*
X140723649Y-41762479D01*
%TO.N,/Control_Board/VDD*%
D13*
X83878649Y-31572479D02*
X69033649Y-31572479D01*
%TO.N,/Control_Board/VEXT*%
D14*
X66723649Y-35262479D02*
X85223649Y-35262479D01*
%TO.N,/Control_Board/CS_DIS1*%
D12*
X143823649Y-60812479D02*
X142373649Y-62262479D01*
%TO.N,/Control_Board/INT_PMW2*%
X137723649Y-39762479D02*
X141723649Y-39762479D01*
%TO.N,/Control_Board/GP12*%
X142373649Y-49112479D02*
X132223649Y-59262479D01*
%TO.N,/Control_Board/GND*%
D15*
X56097933Y-18532486D02*
X46967514Y-18532486D01*
%TO.N,/Control_Board/INT_PMW2*%
D12*
X141723649Y-39762479D02*
X144723649Y-42762479D01*
%TO.N,/Control_Board/MOSI*%
X68123649Y-36162479D02*
X84623649Y-36162479D01*
%TO.N,/Control_Board/VEXT*%
D14*
X139673649Y-46212479D02*
X140223649Y-46762479D01*
%TO.N,/Control_Board/GP22*%
D12*
X142223649Y-101262479D02*
X114473649Y-101262479D01*
%TO.N,/Control_Board/VDD*%
D13*
X69033649Y-31572479D02*
X64223649Y-36382479D01*
%TO.N,/Control_Board/VEXT*%
D14*
X64523649Y-37462479D02*
X66723649Y-35262479D01*
%TO.N,/Control_Board/CS_PMW1*%
D12*
X80123649Y-23162479D02*
X76473649Y-23162479D01*
%TO.N,/Power_Board/BATT_MON*%
X176626351Y-106462467D02*
X184166531Y-106462467D01*
%TO.N,/Control_Board/MOSI*%
X67523649Y-36762479D02*
X68123649Y-36162479D01*
%TO.N,/Control_Board/VDD*%
D13*
X136555649Y-44762479D02*
X137823649Y-43494479D01*
%TO.N,/Control_Board/CS_PMW1*%
D12*
X141223649Y-40762479D02*
X138237863Y-40762479D01*
%TO.N,/Control_Board/INT_PMW2*%
X144723649Y-42762479D02*
X144723649Y-98262479D01*
%TO.N,/Control_Board/MOSI*%
X95804411Y-47343241D02*
X140472178Y-47343241D01*
%TO.N,/Control_Board/VEXT*%
D14*
X55423649Y-37462479D02*
X64523649Y-37462479D01*
%TO.N,/Control_Board/D-*%
D12*
X74123649Y-58228165D02*
X74123649Y-36762479D01*
%TO.N,/Control_Board/CS_DIS1*%
X143823649Y-44862479D02*
X143823649Y-60812479D01*
%TO.N,/Control_Board/INT_PMW2*%
X144723649Y-98262479D02*
X142723649Y-100262479D01*
%TO.N,/Control_Board/GP32*%
X139999184Y-62262479D02*
X84723649Y-62262479D01*
%TO.N,/Control_Board/VEXT*%
D14*
X96173649Y-46212479D02*
X139673649Y-46212479D01*
%TO.N,/Control_Board/VDD*%
D13*
X60823649Y-23362479D02*
X54723649Y-23362479D01*
%TO.N,/Control_Board/CS_PMW1*%
D12*
X138237863Y-40762479D02*
X97723649Y-40762479D01*
X142723649Y-42262479D02*
X141223649Y-40762479D01*
%TO.N,/Control_Board/VEXT*%
D14*
X85223649Y-35262479D02*
X96173649Y-46212479D01*
%TO.N,/Control_Board/INT_PMW2*%
D12*
X142723649Y-100262479D02*
X141223649Y-100262479D01*
%TO.N,/Control_Board/D+*%
X102223649Y-84762479D02*
X75223649Y-57762479D01*
%TO.N,/Control_Board/CS_PMW1*%
X97723649Y-40762479D02*
X80123649Y-23162479D01*
%TO.N,/Control_Board/D-*%
X76690806Y-60795322D02*
X74123649Y-58228165D01*
%TO.N,/Control_Board/MOSI*%
X84623649Y-36162479D02*
X95804411Y-47343241D01*
%TO.N,/Control_Board/GND*%
D15*
X46967514Y-18532486D02*
X43000000Y-22500000D01*
%TO.N,/Control_Board/CS_PMW2*%
D12*
X79723649Y-24262479D02*
X76473649Y-24262479D01*
%TO.N,/Control_Board/RST*%
X96223649Y-63262479D02*
X115223649Y-82262479D01*
%TO.N,/Control_Board/CS_DIS1*%
X140723649Y-41762479D02*
X143823649Y-44862479D01*
%TO.N,/Control_Board/GP31*%
X82723649Y-61262479D02*
X141123649Y-61262479D01*
%TO.N,/Control_Board/GP12*%
X142373649Y-45262479D02*
X142373649Y-49112479D01*
%TO.N,/Control_Board/GP22*%
X114473649Y-101262479D02*
X69723649Y-56512479D01*
%TO.N,/Control_Board/D-*%
X76690806Y-60795322D02*
X101657963Y-85762479D01*
%TO.N,/Control_Board/VEXT*%
D14*
X140223649Y-46762479D02*
X140223649Y-46743241D01*
%TO.N,/Control_Board/VDD*%
D13*
X97068649Y-44762479D02*
X136555649Y-44762479D01*
%TO.N,/Control_Board/CS_DIS1*%
D12*
X97723649Y-43762479D02*
X98723649Y-43762479D01*
%TO.N,/Control_Board/RST*%
X115223649Y-82262479D02*
X142223649Y-82262479D01*
%TO.N,/Control_Board/GP32*%
X142356186Y-64619481D02*
X139999184Y-62262479D01*
%TO.N,/Control_Board/MOSI*%
X140472178Y-47343241D02*
X141773649Y-46041770D01*
%TO.N,/Control_Board/VEXT*%
D14*
X52848649Y-24312479D02*
X52848649Y-34887479D01*
%TO.N,/Control_Board/VDD*%
D13*
X83878649Y-31572479D02*
X97068649Y-44762479D01*
%TO.N,/Control_Board/D+*%
D12*
X142223649Y-84762479D02*
X102223649Y-84762479D01*
%TO.N,/Control_Board/CS_DIS1*%
X76473649Y-25362479D02*
X79323649Y-25362479D01*
%TO.N,/Control_Board/VDD*%
D13*
X60823649Y-23362479D02*
X69033649Y-31572479D01*
%TO.N,/Control_Board/MOSI*%
D12*
X141773649Y-46041770D02*
X141773649Y-46028742D01*
%TO.N,/Control_Board/GP12*%
X132223649Y-59262479D02*
X79723649Y-59262479D01*
%TO.N,/Control_Board/VEXT*%
D14*
X52848649Y-34887479D02*
X55423649Y-37462479D01*
%TD*%
%TA.AperFunction,Conductor*%
%TO.N,/Control_Board/GND*%
G36*
X140490591Y-42382664D02*
G01*
X140511233Y-42399298D01*
X142363567Y-44251632D01*
X142397052Y-44312955D01*
X142392068Y-44382647D01*
X142350196Y-44438580D01*
X142300078Y-44460930D01*
X142140157Y-44492740D01*
X142140147Y-44492743D01*
X141994476Y-44553081D01*
X141994463Y-44553088D01*
X141863360Y-44640689D01*
X141863356Y-44640692D01*
X141751862Y-44752186D01*
X141751859Y-44752190D01*
X141664258Y-44883293D01*
X141664251Y-44883306D01*
X141603913Y-45028977D01*
X141603910Y-45028987D01*
X141572703Y-45185872D01*
X141540318Y-45247783D01*
X141498539Y-45276241D01*
X141394472Y-45319346D01*
X141394463Y-45319351D01*
X141263360Y-45406952D01*
X141263356Y-45406955D01*
X141151862Y-45518449D01*
X141151859Y-45518453D01*
X141064258Y-45649556D01*
X141064251Y-45649569D01*
X141003913Y-45795240D01*
X141003910Y-45795252D01*
X140973149Y-45949893D01*
X140972785Y-45953595D01*
X140972052Y-45955408D01*
X140971960Y-45955874D01*
X140971871Y-45955856D01*
X140963489Y-45976613D01*
X140958214Y-46000866D01*
X140948405Y-46013969D01*
X140946623Y-46018382D01*
X140937063Y-46029120D01*
X140872312Y-46093871D01*
X140810989Y-46127356D01*
X140741297Y-46122372D01*
X140715740Y-46109292D01*
X140602834Y-46033850D01*
X140602821Y-46033843D01*
X140457150Y-45973505D01*
X140457138Y-45973502D01*
X140366054Y-45955384D01*
X140304143Y-45922999D01*
X140302564Y-45921448D01*
X140088323Y-45707206D01*
X140088322Y-45707205D01*
X140088318Y-45707202D01*
X139981776Y-45636014D01*
X139863393Y-45586978D01*
X139863387Y-45586976D01*
X139737720Y-45561979D01*
X139737718Y-45561979D01*
X137028753Y-45561979D01*
X136961714Y-45542294D01*
X136915959Y-45489490D01*
X136906015Y-45420332D01*
X136935040Y-45356776D01*
X136959863Y-45334876D01*
X136983098Y-45319351D01*
X137002192Y-45306593D01*
X138018235Y-44290548D01*
X138058459Y-44263671D01*
X138113084Y-44241045D01*
X138202822Y-44203876D01*
X138202825Y-44203874D01*
X138202828Y-44203873D01*
X138333938Y-44116268D01*
X138445438Y-44004768D01*
X138533043Y-43873658D01*
X138593386Y-43727976D01*
X138624149Y-43573321D01*
X138624149Y-43415637D01*
X138624149Y-43415634D01*
X138624148Y-43415632D01*
X138593386Y-43260982D01*
X138592840Y-43259663D01*
X138533046Y-43115306D01*
X138533039Y-43115293D01*
X138445438Y-42984190D01*
X138445435Y-42984186D01*
X138333941Y-42872692D01*
X138333937Y-42872689D01*
X138202834Y-42785088D01*
X138202821Y-42785081D01*
X138057150Y-42724743D01*
X138057138Y-42724740D01*
X137902494Y-42693979D01*
X137902491Y-42693979D01*
X137744807Y-42693979D01*
X137744804Y-42693979D01*
X137590159Y-42724740D01*
X137590147Y-42724743D01*
X137444476Y-42785081D01*
X137444463Y-42785088D01*
X137313360Y-42872689D01*
X137313356Y-42872692D01*
X137201862Y-42984186D01*
X137201859Y-42984190D01*
X137114258Y-43115293D01*
X137114253Y-43115302D01*
X137054458Y-43259663D01*
X137027578Y-43299891D01*
X136301811Y-44025660D01*
X136240488Y-44059145D01*
X136214130Y-44061979D01*
X99572746Y-44061979D01*
X99505707Y-44042294D01*
X99459952Y-43989490D01*
X99450008Y-43920332D01*
X99479033Y-43856776D01*
X99485065Y-43850298D01*
X100936065Y-42399298D01*
X100997388Y-42365813D01*
X101023746Y-42362979D01*
X140423552Y-42362979D01*
X140490591Y-42382664D01*
G37*
%TD.AperFunction*%
%TA.AperFunction,Conductor*%
G36*
X83500785Y-32282418D02*
G01*
X83643834Y-32341670D01*
X83684063Y-32368550D01*
X96622102Y-45306590D01*
X96622103Y-45306591D01*
X96664435Y-45334876D01*
X96709241Y-45388488D01*
X96717948Y-45457813D01*
X96687794Y-45520841D01*
X96628351Y-45557561D01*
X96595545Y-45561979D01*
X96494457Y-45561979D01*
X96427418Y-45542294D01*
X96406776Y-45525660D01*
X85638323Y-34757206D01*
X85638322Y-34757205D01*
X85638318Y-34757202D01*
X85531776Y-34686014D01*
X85511284Y-34677526D01*
X85413393Y-34636978D01*
X85413387Y-34636976D01*
X85287720Y-34611979D01*
X85287718Y-34611979D01*
X67284168Y-34611979D01*
X67217129Y-34592294D01*
X67171374Y-34539490D01*
X67161430Y-34470332D01*
X67190455Y-34406776D01*
X67196487Y-34400298D01*
X69287487Y-32309298D01*
X69348810Y-32275813D01*
X69375168Y-32272979D01*
X83453333Y-32272979D01*
X83500785Y-32282418D01*
G37*
%TD.AperFunction*%
%TA.AperFunction,Conductor*%
G36*
X92885833Y-21509417D02*
G01*
X93068633Y-21585035D01*
X93203601Y-21640867D01*
X93206100Y-21641934D01*
X94497246Y-22210541D01*
X94789244Y-22339135D01*
X94791795Y-22340294D01*
X95220312Y-22540689D01*
X96358652Y-23073031D01*
X96361110Y-23074214D01*
X97830313Y-23802186D01*
X97911746Y-23842535D01*
X97912898Y-23843114D01*
X97971060Y-23872756D01*
X97971064Y-23872756D01*
X97984145Y-23879422D01*
X97984146Y-23879423D01*
X98838771Y-24314964D01*
X100708406Y-25225497D01*
X101799092Y-25732423D01*
X102594245Y-26101992D01*
X104495660Y-26944156D01*
X106412029Y-27751716D01*
X108342721Y-28524404D01*
X109855586Y-29098280D01*
X110287112Y-29261972D01*
X112244514Y-29964157D01*
X112244534Y-29964164D01*
X114214373Y-30630762D01*
X116195972Y-31261544D01*
X118188680Y-31856301D01*
X120191842Y-32414838D01*
X122204798Y-32936972D01*
X124226889Y-33422531D01*
X126257450Y-33871356D01*
X128295813Y-34283299D01*
X129981611Y-34592294D01*
X130341323Y-34658227D01*
X132393261Y-34996009D01*
X133555536Y-35165759D01*
X134451005Y-35296543D01*
X136513856Y-35559726D01*
X138581139Y-35785472D01*
X140652174Y-35973708D01*
X142726281Y-36124371D01*
X144802778Y-36237411D01*
X146880984Y-36312792D01*
X148960214Y-36350489D01*
X149924112Y-36350498D01*
X149924120Y-36350500D01*
X149934108Y-36350500D01*
X150000000Y-36350500D01*
X150065892Y-36350500D01*
X153375500Y-36350500D01*
X153442539Y-36370185D01*
X153488294Y-36422989D01*
X153499500Y-36474500D01*
X153499500Y-44065891D01*
X153533608Y-44193187D01*
X153566265Y-44249750D01*
X153599500Y-44307314D01*
X153692686Y-44400500D01*
X153791521Y-44457563D01*
X153797353Y-44460930D01*
X153806814Y-44466392D01*
X153934108Y-44500500D01*
X156216240Y-44500500D01*
X156220486Y-44501746D01*
X156224810Y-44500796D01*
X156253719Y-44511505D01*
X156283279Y-44520185D01*
X156287344Y-44523961D01*
X156290329Y-44525067D01*
X156298865Y-44534663D01*
X156315341Y-44549968D01*
X156319861Y-44555979D01*
X156349500Y-44607314D01*
X156385679Y-44643493D01*
X156390925Y-44650468D01*
X156400262Y-44675333D01*
X156412990Y-44698642D01*
X156412354Y-44707532D01*
X156415488Y-44715878D01*
X156409900Y-44741843D01*
X156408006Y-44768334D01*
X156402283Y-44777237D01*
X156400789Y-44784184D01*
X156392411Y-44792599D01*
X156379505Y-44812681D01*
X156349502Y-44842683D01*
X156349500Y-44842686D01*
X156283608Y-44956812D01*
X156249500Y-45084108D01*
X156249500Y-45215891D01*
X156283608Y-45343187D01*
X156291454Y-45356776D01*
X156349500Y-45457314D01*
X156349502Y-45457316D01*
X156379505Y-45487319D01*
X156412990Y-45548642D01*
X156408006Y-45618334D01*
X156379505Y-45662681D01*
X156349502Y-45692683D01*
X156349500Y-45692686D01*
X156283608Y-45806812D01*
X156249500Y-45934108D01*
X156249500Y-46065891D01*
X156283608Y-46193187D01*
X156316554Y-46250250D01*
X156349500Y-46307314D01*
X156349502Y-46307316D01*
X156379505Y-46337319D01*
X156412990Y-46398642D01*
X156408006Y-46468334D01*
X156379505Y-46512681D01*
X156349502Y-46542683D01*
X156349500Y-46542686D01*
X156283608Y-46656812D01*
X156249500Y-46784108D01*
X156249500Y-46915891D01*
X156283608Y-47043187D01*
X156298916Y-47069700D01*
X156349500Y-47157314D01*
X156349502Y-47157316D01*
X156379505Y-47187319D01*
X156412990Y-47248642D01*
X156408006Y-47318334D01*
X156379505Y-47362681D01*
X156349502Y-47392683D01*
X156349500Y-47392686D01*
X156283608Y-47506812D01*
X156249500Y-47634108D01*
X156249500Y-47765891D01*
X156283608Y-47893187D01*
X156289168Y-47902817D01*
X156349500Y-48007314D01*
X156442686Y-48100500D01*
X156442688Y-48100501D01*
X156449137Y-48105450D01*
X156447324Y-48107812D01*
X156485710Y-48148062D01*
X156499500Y-48204893D01*
X156499500Y-69795107D01*
X156479815Y-69862146D01*
X156447739Y-69892732D01*
X156449135Y-69894552D01*
X156442683Y-69899502D01*
X156349502Y-69992683D01*
X156349500Y-69992686D01*
X156283608Y-70106812D01*
X156249500Y-70234108D01*
X156249500Y-70365891D01*
X156283608Y-70493187D01*
X156287253Y-70499500D01*
X156349500Y-70607314D01*
X156349502Y-70607316D01*
X156379505Y-70637319D01*
X156412990Y-70698642D01*
X156408006Y-70768334D01*
X156379505Y-70812681D01*
X156349502Y-70842683D01*
X156349500Y-70842686D01*
X156283608Y-70956812D01*
X156249500Y-71084108D01*
X156249500Y-71215891D01*
X156283608Y-71343187D01*
X156310964Y-71390568D01*
X156349500Y-71457314D01*
X156349502Y-71457316D01*
X156379505Y-71487319D01*
X156412990Y-71548642D01*
X156408006Y-71618334D01*
X156379505Y-71662681D01*
X156349502Y-71692683D01*
X156349500Y-71692686D01*
X156283608Y-71806812D01*
X156249500Y-71934108D01*
X156249500Y-72065891D01*
X156283608Y-72193187D01*
X156316554Y-72250250D01*
X156349500Y-72307314D01*
X156349502Y-72307316D01*
X156379505Y-72337319D01*
X156412990Y-72398642D01*
X156408006Y-72468334D01*
X156379505Y-72512681D01*
X156349502Y-72542683D01*
X156349500Y-72542686D01*
X156283608Y-72656812D01*
X156249500Y-72784108D01*
X156249500Y-72915891D01*
X156283608Y-73043187D01*
X156316554Y-73100250D01*
X156349500Y-73157314D01*
X156349502Y-73157316D01*
X156379505Y-73187319D01*
X156412990Y-73248642D01*
X156408006Y-73318334D01*
X156379505Y-73362681D01*
X156349502Y-73392683D01*
X156349500Y-73392686D01*
X156283608Y-73506812D01*
X156249500Y-73634108D01*
X156249500Y-73765891D01*
X156283608Y-73893187D01*
X156316554Y-73950250D01*
X156349500Y-74007314D01*
X156442686Y-74100500D01*
X156442688Y-74100501D01*
X156449137Y-74105450D01*
X156447324Y-74107812D01*
X156485710Y-74148062D01*
X156499500Y-74204893D01*
X156499500Y-95795107D01*
X156479815Y-95862146D01*
X156447739Y-95892732D01*
X156449135Y-95894552D01*
X156442683Y-95899502D01*
X156349502Y-95992683D01*
X156349500Y-95992686D01*
X156283608Y-96106812D01*
X156249500Y-96234108D01*
X156249500Y-96365891D01*
X156283608Y-96493187D01*
X156287253Y-96499500D01*
X156349500Y-96607314D01*
X156349502Y-96607316D01*
X156379505Y-96637319D01*
X156412990Y-96698642D01*
X156408006Y-96768334D01*
X156379505Y-96812681D01*
X156349502Y-96842683D01*
X156349500Y-96842686D01*
X156283608Y-96956812D01*
X156249500Y-97084108D01*
X156249500Y-97215892D01*
X156266554Y-97279539D01*
X156283608Y-97343187D01*
X156310964Y-97390568D01*
X156349500Y-97457314D01*
X156349502Y-97457316D01*
X156379505Y-97487319D01*
X156412990Y-97548642D01*
X156408006Y-97618334D01*
X156379505Y-97662681D01*
X156349502Y-97692683D01*
X156349500Y-97692686D01*
X156283608Y-97806812D01*
X156249500Y-97934108D01*
X156249500Y-98065891D01*
X156283608Y-98193187D01*
X156316554Y-98250250D01*
X156349500Y-98307314D01*
X156349502Y-98307316D01*
X156379505Y-98337319D01*
X156412990Y-98398642D01*
X156408006Y-98468334D01*
X156379505Y-98512681D01*
X156349502Y-98542683D01*
X156349500Y-98542686D01*
X156283608Y-98656812D01*
X156249500Y-98784108D01*
X156249500Y-98915891D01*
X156283608Y-99043187D01*
X156316554Y-99100250D01*
X156349500Y-99157314D01*
X156349502Y-99157316D01*
X156379505Y-99187319D01*
X156412990Y-99248642D01*
X156408006Y-99318334D01*
X156379505Y-99362681D01*
X156349502Y-99392683D01*
X156349500Y-99392686D01*
X156283608Y-99506812D01*
X156249500Y-99634108D01*
X156249500Y-99765891D01*
X156283608Y-99893187D01*
X156316554Y-99950250D01*
X156349500Y-100007314D01*
X156442686Y-100100500D01*
X156442688Y-100100501D01*
X156449137Y-100105450D01*
X156447324Y-100107812D01*
X156485710Y-100148062D01*
X156499500Y-100204893D01*
X156499500Y-121795107D01*
X156479815Y-121862146D01*
X156447739Y-121892732D01*
X156449135Y-121894552D01*
X156442683Y-121899502D01*
X156349502Y-121992683D01*
X156349500Y-121992686D01*
X156283608Y-122106812D01*
X156249500Y-122234108D01*
X156249500Y-122365891D01*
X156283608Y-122493187D01*
X156287253Y-122499500D01*
X156349500Y-122607314D01*
X156349502Y-122607316D01*
X156379505Y-122637319D01*
X156412990Y-122698642D01*
X156408006Y-122768334D01*
X156379505Y-122812681D01*
X156349502Y-122842683D01*
X156349500Y-122842686D01*
X156283608Y-122956812D01*
X156249500Y-123084108D01*
X156249500Y-123215891D01*
X156283608Y-123343187D01*
X156310964Y-123390568D01*
X156349500Y-123457314D01*
X156349502Y-123457316D01*
X156379505Y-123487319D01*
X156412990Y-123548642D01*
X156408006Y-123618334D01*
X156379505Y-123662681D01*
X156349502Y-123692683D01*
X156349500Y-123692686D01*
X156283608Y-123806812D01*
X156249500Y-123934108D01*
X156249500Y-124065891D01*
X156283608Y-124193187D01*
X156316554Y-124250250D01*
X156349500Y-124307314D01*
X156349502Y-124307316D01*
X156379505Y-124337319D01*
X156412990Y-124398642D01*
X156408006Y-124468334D01*
X156379505Y-124512681D01*
X156349502Y-124542683D01*
X156349500Y-124542686D01*
X156283608Y-124656812D01*
X156249500Y-124784108D01*
X156249500Y-124915891D01*
X156283608Y-125043187D01*
X156316554Y-125100250D01*
X156349500Y-125157314D01*
X156349502Y-125157316D01*
X156379505Y-125187319D01*
X156412990Y-125248642D01*
X156408006Y-125318334D01*
X156379505Y-125362681D01*
X156349502Y-125392683D01*
X156349500Y-125392686D01*
X156283608Y-125506812D01*
X156249500Y-125634108D01*
X156249500Y-125717130D01*
X156229815Y-125784169D01*
X156177011Y-125829924D01*
X156125500Y-125841130D01*
X153934108Y-125841130D01*
X153806812Y-125875238D01*
X153692686Y-125941130D01*
X153692683Y-125941132D01*
X153599502Y-126034313D01*
X153599500Y-126034316D01*
X153533608Y-126148442D01*
X153499500Y-126275738D01*
X153499500Y-133867130D01*
X153479815Y-133934169D01*
X153427011Y-133979924D01*
X153375500Y-133991130D01*
X150065892Y-133991130D01*
X150000000Y-133991130D01*
X149671719Y-133991130D01*
X149016191Y-134027944D01*
X149016188Y-134027944D01*
X149016176Y-134027945D01*
X148363802Y-134101448D01*
X148363749Y-134101455D01*
X147716476Y-134211429D01*
X147076385Y-134357524D01*
X147076375Y-134357527D01*
X146445463Y-134539288D01*
X145825739Y-134756136D01*
X145219170Y-135007381D01*
X144627665Y-135292232D01*
X144627605Y-135292263D01*
X144052987Y-135609838D01*
X144052972Y-135609847D01*
X143497074Y-135959137D01*
X143497071Y-135959139D01*
X143497063Y-135959144D01*
X143497056Y-135959149D01*
X143366630Y-136051690D01*
X142961595Y-136339073D01*
X142448259Y-136748437D01*
X141958702Y-137185926D01*
X141958699Y-137185929D01*
X141755721Y-137388903D01*
X141755720Y-137388904D01*
X139086052Y-140058525D01*
X139086051Y-140058527D01*
X139042596Y-140101981D01*
X139036118Y-140108013D01*
X138884470Y-140239414D01*
X138870307Y-140250016D01*
X138705245Y-140356094D01*
X138689716Y-140364573D01*
X138511238Y-140446079D01*
X138494662Y-140452261D01*
X138306407Y-140507536D01*
X138289119Y-140511297D01*
X138094904Y-140539220D01*
X138077258Y-140540482D01*
X137881052Y-140540482D01*
X137863406Y-140539220D01*
X137669191Y-140511295D01*
X137651908Y-140507536D01*
X137530435Y-140471868D01*
X137463645Y-140452256D01*
X137447070Y-140446074D01*
X137268582Y-140364561D01*
X137253069Y-140356090D01*
X137088004Y-140250008D01*
X137073842Y-140239407D01*
X136922195Y-140108004D01*
X136915717Y-140101972D01*
X136872262Y-140058517D01*
X127821319Y-131007573D01*
X127198940Y-130385194D01*
X127198915Y-130385169D01*
X125835227Y-129073372D01*
X125835198Y-129073344D01*
X124446380Y-127788284D01*
X123383194Y-126842130D01*
X123032831Y-126530333D01*
X121595176Y-125300047D01*
X120133935Y-124097871D01*
X118649657Y-122924256D01*
X117142899Y-121779643D01*
X115614230Y-120664464D01*
X115440008Y-120542473D01*
X114064197Y-119579119D01*
X112983887Y-118853486D01*
X112493462Y-118524072D01*
X110902536Y-117499664D01*
X109292061Y-116506307D01*
X107662593Y-115544349D01*
X106014796Y-114614178D01*
X104349297Y-113716148D01*
X102666636Y-112850552D01*
X101671964Y-112363029D01*
X100967552Y-112017772D01*
X99252629Y-111218090D01*
X99252627Y-111218089D01*
X97522544Y-110451823D01*
X97522535Y-110451819D01*
X97522521Y-110451813D01*
X95777879Y-109719229D01*
X94019359Y-109020614D01*
X94019352Y-109020611D01*
X94019341Y-109020607D01*
X92247658Y-108356243D01*
X92247652Y-108356240D01*
X92247623Y-108356230D01*
X90463336Y-107726328D01*
X90463333Y-107726327D01*
X90463316Y-107726321D01*
X89086344Y-107270042D01*
X88667171Y-107131143D01*
X86859802Y-106570901D01*
X86684304Y-106520209D01*
X85041923Y-106045814D01*
X84415207Y-105877886D01*
X84191689Y-105817995D01*
X84191688Y-105817994D01*
X84128042Y-105800941D01*
X83332034Y-105587650D01*
X81894800Y-105202542D01*
X81894759Y-105202531D01*
X81894728Y-105202523D01*
X78960598Y-104437255D01*
X77420436Y-104035556D01*
X76073222Y-103693757D01*
X72938441Y-102898438D01*
X68448799Y-101791187D01*
X63952085Y-100713943D01*
X59448079Y-99666654D01*
X54937509Y-98649489D01*
X54937500Y-98649487D01*
X54937389Y-98649462D01*
X50419934Y-97662346D01*
X50419879Y-97662334D01*
X50419827Y-97662323D01*
X45896066Y-96705383D01*
X45896041Y-96705377D01*
X45895999Y-96705369D01*
X44236614Y-96365891D01*
X41365798Y-95778577D01*
X39097882Y-95330341D01*
X39097250Y-95330214D01*
X36272983Y-94756737D01*
X36271720Y-94756474D01*
X33453794Y-94153698D01*
X33452534Y-94153422D01*
X30640941Y-93521346D01*
X30639684Y-93521056D01*
X27834976Y-92859808D01*
X27833723Y-92859506D01*
X25035908Y-92169085D01*
X25034657Y-92168769D01*
X22244311Y-91449318D01*
X22243064Y-91448990D01*
X19460197Y-90700513D01*
X19458953Y-90700171D01*
X16688122Y-89923935D01*
X16679036Y-89921008D01*
X16489809Y-89851904D01*
X16473577Y-89844618D01*
X16299824Y-89751101D01*
X16284802Y-89741566D01*
X16126227Y-89624149D01*
X16112725Y-89612563D01*
X15972586Y-89473661D01*
X15960881Y-89460262D01*
X15842063Y-89302735D01*
X15832396Y-89287799D01*
X15737345Y-89114887D01*
X15729915Y-89098721D01*
X15660588Y-88913987D01*
X15655548Y-88896923D01*
X15613373Y-88704168D01*
X15610827Y-88686560D01*
X15596352Y-88485310D01*
X15596032Y-88476414D01*
X15596032Y-32708574D01*
X15596295Y-32700500D01*
X15608219Y-32517753D01*
X15610317Y-32501743D01*
X15627524Y-32414838D01*
X15645102Y-32326056D01*
X15649258Y-32310475D01*
X15706580Y-32140792D01*
X15712726Y-32125880D01*
X15791612Y-31965083D01*
X15799642Y-31951099D01*
X15898752Y-31801918D01*
X15908537Y-31789089D01*
X16026193Y-31654053D01*
X16037547Y-31642618D01*
X16174286Y-31521775D01*
X16181584Y-31515807D01*
X17558804Y-30474683D01*
X17560968Y-30473084D01*
X18964148Y-29461339D01*
X18966374Y-29459772D01*
X20391984Y-28480041D01*
X20394243Y-28478526D01*
X21841667Y-27531235D01*
X21843943Y-27529781D01*
X23312398Y-26615443D01*
X23314719Y-26614034D01*
X24803503Y-25733085D01*
X24805816Y-25731753D01*
X26314041Y-24884719D01*
X26316421Y-24883416D01*
X27537244Y-24233632D01*
X52048149Y-24233632D01*
X52048149Y-24391325D01*
X52078910Y-24545968D01*
X52078913Y-24545980D01*
X52139251Y-24691651D01*
X52139255Y-24691658D01*
X52177251Y-24748523D01*
X52198129Y-24815200D01*
X52198149Y-24817414D01*
X52198149Y-34951552D01*
X52222251Y-35072721D01*
X52222252Y-35072721D01*
X52223148Y-35077223D01*
X52223150Y-35077229D01*
X52272182Y-35195603D01*
X52343375Y-35302152D01*
X55008975Y-37967752D01*
X55008978Y-37967754D01*
X55008980Y-37967756D01*
X55115522Y-38038944D01*
X55233905Y-38087980D01*
X55233909Y-38087980D01*
X55233910Y-38087981D01*
X55359577Y-38112979D01*
X55359580Y-38112979D01*
X64587720Y-38112979D01*
X64672264Y-38096161D01*
X64713393Y-38087980D01*
X64831776Y-38038944D01*
X64938318Y-37967756D01*
X66579562Y-36326511D01*
X66640883Y-36293028D01*
X66710574Y-36298012D01*
X66766508Y-36339884D01*
X66790925Y-36405348D01*
X66781803Y-36461645D01*
X66753912Y-36528982D01*
X66753910Y-36528989D01*
X66723149Y-36683632D01*
X66723149Y-36841325D01*
X66753910Y-36995968D01*
X66753913Y-36995980D01*
X66814251Y-37141651D01*
X66814258Y-37141664D01*
X66901859Y-37272767D01*
X66901862Y-37272771D01*
X67013356Y-37384265D01*
X67013360Y-37384268D01*
X67144463Y-37471869D01*
X67144476Y-37471876D01*
X67290147Y-37532214D01*
X67290152Y-37532216D01*
X67444802Y-37562978D01*
X67444805Y-37562979D01*
X67444807Y-37562979D01*
X67602493Y-37562979D01*
X67602494Y-37562978D01*
X67757146Y-37532216D01*
X67902828Y-37471873D01*
X68033938Y-37384268D01*
X68145438Y-37272768D01*
X68233043Y-37141658D01*
X68293386Y-36995976D01*
X68298154Y-36972003D01*
X68319880Y-36862787D01*
X68352265Y-36800876D01*
X68412981Y-36766302D01*
X68441497Y-36762979D01*
X73205801Y-36762979D01*
X73272840Y-36782664D01*
X73318595Y-36835468D01*
X73327418Y-36862787D01*
X73353910Y-36995970D01*
X73353913Y-36995980D01*
X73414251Y-37141651D01*
X73414258Y-37141664D01*
X73502251Y-37273353D01*
X73523129Y-37340030D01*
X73523149Y-37342244D01*
X73523149Y-58141495D01*
X73523148Y-58141513D01*
X73523148Y-58307219D01*
X73523147Y-58307219D01*
X73523148Y-58307222D01*
X73564072Y-58459950D01*
X73583005Y-58492742D01*
X73617841Y-58553081D01*
X73643128Y-58596880D01*
X73761998Y-58715750D01*
X73762004Y-58715755D01*
X101173102Y-86126853D01*
X101173112Y-86126864D01*
X101177442Y-86131194D01*
X101177443Y-86131195D01*
X101289247Y-86242999D01*
X101340808Y-86272767D01*
X101376058Y-86293118D01*
X101376060Y-86293120D01*
X101414114Y-86315090D01*
X101426178Y-86322056D01*
X101578906Y-86362980D01*
X101578909Y-86362980D01*
X101744616Y-86362980D01*
X101744632Y-86362979D01*
X140643883Y-86362979D01*
X140710922Y-86382664D01*
X140712774Y-86383877D01*
X140844463Y-86471869D01*
X140844476Y-86471876D01*
X140990147Y-86532214D01*
X140990152Y-86532216D01*
X141144802Y-86562978D01*
X141144805Y-86562979D01*
X141144807Y-86562979D01*
X141302493Y-86562979D01*
X141302494Y-86562978D01*
X141457146Y-86532216D01*
X141602828Y-86471873D01*
X141733938Y-86384268D01*
X141845438Y-86272768D01*
X141933043Y-86141658D01*
X141993386Y-85995976D01*
X142024149Y-85841321D01*
X142024149Y-85686979D01*
X142043834Y-85619940D01*
X142096638Y-85574185D01*
X142148149Y-85562979D01*
X142302493Y-85562979D01*
X142302494Y-85562978D01*
X142457146Y-85532216D01*
X142602828Y-85471873D01*
X142733938Y-85384268D01*
X142845438Y-85272768D01*
X142933043Y-85141658D01*
X142993386Y-84995976D01*
X143024149Y-84841321D01*
X143024149Y-84683637D01*
X143024149Y-84683634D01*
X143024148Y-84683632D01*
X142993387Y-84528989D01*
X142993386Y-84528982D01*
X142993384Y-84528977D01*
X142933046Y-84383306D01*
X142933039Y-84383293D01*
X142845438Y-84252190D01*
X142845435Y-84252186D01*
X142733941Y-84140692D01*
X142733937Y-84140689D01*
X142602834Y-84053088D01*
X142602821Y-84053081D01*
X142457150Y-83992743D01*
X142457138Y-83992740D01*
X142302494Y-83961979D01*
X142302491Y-83961979D01*
X142144807Y-83961979D01*
X142144804Y-83961979D01*
X141990159Y-83992740D01*
X141990147Y-83992743D01*
X141844476Y-84053081D01*
X141844463Y-84053088D01*
X141712774Y-84141081D01*
X141646096Y-84161959D01*
X141643883Y-84161979D01*
X102523746Y-84161979D01*
X102456707Y-84142294D01*
X102436065Y-84125660D01*
X75860468Y-57550063D01*
X75826983Y-57488740D01*
X75824149Y-57462382D01*
X75824149Y-37342244D01*
X75843834Y-37275205D01*
X75845047Y-37273353D01*
X75933039Y-37141664D01*
X75933039Y-37141663D01*
X75933043Y-37141658D01*
X75993386Y-36995976D01*
X75998154Y-36972003D01*
X76019880Y-36862787D01*
X76052265Y-36800876D01*
X76112981Y-36766302D01*
X76141497Y-36762979D01*
X84323552Y-36762979D01*
X84390591Y-36782664D01*
X84411233Y-36799298D01*
X95319550Y-47707615D01*
X95319560Y-47707626D01*
X95323890Y-47711956D01*
X95323891Y-47711957D01*
X95435695Y-47823761D01*
X95517031Y-47870720D01*
X95572626Y-47902818D01*
X95725353Y-47943741D01*
X95725354Y-47943741D01*
X140385509Y-47943741D01*
X140385525Y-47943742D01*
X140393121Y-47943742D01*
X140551232Y-47943742D01*
X140551235Y-47943742D01*
X140703963Y-47902818D01*
X140759558Y-47870720D01*
X140840894Y-47823761D01*
X140952698Y-47711957D01*
X140952698Y-47711955D01*
X140962902Y-47701752D01*
X140962905Y-47701747D01*
X141561469Y-47103184D01*
X141622791Y-47069700D01*
X141692483Y-47074684D01*
X141748416Y-47116556D01*
X141772833Y-47182020D01*
X141773149Y-47190866D01*
X141773149Y-48812381D01*
X141753464Y-48879420D01*
X141736830Y-48900062D01*
X132011233Y-58625660D01*
X131949910Y-58659145D01*
X131923552Y-58661979D01*
X80303415Y-58661979D01*
X80236376Y-58642294D01*
X80234524Y-58641081D01*
X80102834Y-58553088D01*
X80102821Y-58553081D01*
X79957150Y-58492743D01*
X79957138Y-58492740D01*
X79802494Y-58461979D01*
X79802491Y-58461979D01*
X79644807Y-58461979D01*
X79644804Y-58461979D01*
X79490159Y-58492740D01*
X79490147Y-58492743D01*
X79344476Y-58553081D01*
X79344463Y-58553088D01*
X79213360Y-58640689D01*
X79213356Y-58640692D01*
X79101862Y-58752186D01*
X79101859Y-58752190D01*
X79014258Y-58883293D01*
X79014251Y-58883306D01*
X78953913Y-59028977D01*
X78953910Y-59028989D01*
X78923149Y-59183632D01*
X78923149Y-59341325D01*
X78953910Y-59495968D01*
X78953913Y-59495980D01*
X79014251Y-59641651D01*
X79014258Y-59641664D01*
X79101859Y-59772767D01*
X79101862Y-59772771D01*
X79213356Y-59884265D01*
X79213360Y-59884268D01*
X79344463Y-59971869D01*
X79344476Y-59971876D01*
X79490147Y-60032214D01*
X79490152Y-60032216D01*
X79644802Y-60062978D01*
X79644805Y-60062979D01*
X79644807Y-60062979D01*
X79802493Y-60062979D01*
X79802494Y-60062978D01*
X79957146Y-60032216D01*
X80102828Y-59971873D01*
X80102834Y-59971869D01*
X80234524Y-59883877D01*
X80301202Y-59862999D01*
X80303415Y-59862979D01*
X132136980Y-59862979D01*
X132136996Y-59862980D01*
X132144592Y-59862980D01*
X132302703Y-59862980D01*
X132302706Y-59862980D01*
X132455434Y-59822056D01*
X132505553Y-59793118D01*
X132592365Y-59742999D01*
X132704169Y-59631195D01*
X132704169Y-59631193D01*
X132714377Y-59620986D01*
X132714378Y-59620983D01*
X142854169Y-49481195D01*
X142933226Y-49344263D01*
X142974150Y-49191536D01*
X142974150Y-49033421D01*
X142974150Y-49025826D01*
X142974149Y-49025808D01*
X142974149Y-45842244D01*
X142979479Y-45824089D01*
X142979821Y-45805169D01*
X142993309Y-45776990D01*
X142993834Y-45775205D01*
X142995060Y-45773334D01*
X142996060Y-45771838D01*
X143049680Y-45727043D01*
X143119007Y-45718348D01*
X143182029Y-45748515D01*
X143218737Y-45807965D01*
X143223149Y-45840748D01*
X143223149Y-60512381D01*
X143203464Y-60579420D01*
X143186830Y-60600062D01*
X142358988Y-61427904D01*
X142297665Y-61461389D01*
X142295499Y-61461840D01*
X142140157Y-61492740D01*
X142140148Y-61492743D01*
X142086256Y-61515065D01*
X142016787Y-61522532D01*
X141954308Y-61491256D01*
X141918657Y-61431167D01*
X141917189Y-61376310D01*
X141924149Y-61341322D01*
X141924149Y-61183634D01*
X141924148Y-61183632D01*
X141893387Y-61028989D01*
X141893386Y-61028982D01*
X141893384Y-61028977D01*
X141833046Y-60883306D01*
X141833039Y-60883293D01*
X141745438Y-60752190D01*
X141745435Y-60752186D01*
X141633941Y-60640692D01*
X141633937Y-60640689D01*
X141502834Y-60553088D01*
X141502821Y-60553081D01*
X141357150Y-60492743D01*
X141357138Y-60492740D01*
X141202494Y-60461979D01*
X141202491Y-60461979D01*
X141044807Y-60461979D01*
X141044804Y-60461979D01*
X140890159Y-60492740D01*
X140890147Y-60492743D01*
X140744476Y-60553081D01*
X140744463Y-60553088D01*
X140612774Y-60641081D01*
X140546096Y-60661959D01*
X140543883Y-60661979D01*
X83303415Y-60661979D01*
X83236376Y-60642294D01*
X83234524Y-60641081D01*
X83102834Y-60553088D01*
X83102821Y-60553081D01*
X82957150Y-60492743D01*
X82957138Y-60492740D01*
X82802494Y-60461979D01*
X82802491Y-60461979D01*
X82644807Y-60461979D01*
X82644804Y-60461979D01*
X82490159Y-60492740D01*
X82490147Y-60492743D01*
X82344476Y-60553081D01*
X82344463Y-60553088D01*
X82213360Y-60640689D01*
X82213356Y-60640692D01*
X82101862Y-60752186D01*
X82101859Y-60752190D01*
X82014258Y-60883293D01*
X82014251Y-60883306D01*
X81953913Y-61028977D01*
X81953910Y-61028989D01*
X81923149Y-61183632D01*
X81923149Y-61341325D01*
X81953910Y-61495968D01*
X81953913Y-61495980D01*
X82014251Y-61641651D01*
X82014258Y-61641664D01*
X82101859Y-61772767D01*
X82101862Y-61772771D01*
X82213356Y-61884265D01*
X82213360Y-61884268D01*
X82344463Y-61971869D01*
X82344476Y-61971876D01*
X82482344Y-62028982D01*
X82490152Y-62032216D01*
X82644802Y-62062978D01*
X82644805Y-62062979D01*
X82644807Y-62062979D01*
X82802493Y-62062979D01*
X82802494Y-62062978D01*
X82957146Y-62032216D01*
X83102828Y-61971873D01*
X83219728Y-61893763D01*
X83234524Y-61883877D01*
X83301202Y-61862999D01*
X83303415Y-61862979D01*
X83837094Y-61862979D01*
X83904133Y-61882664D01*
X83949888Y-61935468D01*
X83959832Y-62004626D01*
X83954808Y-62022890D01*
X83955680Y-62023155D01*
X83953910Y-62028989D01*
X83923149Y-62183632D01*
X83923149Y-62341325D01*
X83953910Y-62495968D01*
X83953913Y-62495980D01*
X84014251Y-62641651D01*
X84014258Y-62641664D01*
X84101859Y-62772767D01*
X84101862Y-62772771D01*
X84213356Y-62884265D01*
X84213360Y-62884268D01*
X84344463Y-62971869D01*
X84344476Y-62971876D01*
X84482344Y-63028982D01*
X84490152Y-63032216D01*
X84644802Y-63062978D01*
X84644805Y-63062979D01*
X84644807Y-63062979D01*
X84802493Y-63062979D01*
X84802494Y-63062978D01*
X84957146Y-63032216D01*
X85102828Y-62971873D01*
X85129034Y-62954363D01*
X85234524Y-62883877D01*
X85301202Y-62862999D01*
X85303415Y-62862979D01*
X95337094Y-62862979D01*
X95404133Y-62882664D01*
X95449888Y-62935468D01*
X95459832Y-63004626D01*
X95454808Y-63022890D01*
X95455680Y-63023155D01*
X95453910Y-63028989D01*
X95423149Y-63183632D01*
X95423149Y-63341325D01*
X95453910Y-63495968D01*
X95453913Y-63495980D01*
X95514251Y-63641651D01*
X95514258Y-63641664D01*
X95601859Y-63772767D01*
X95601862Y-63772771D01*
X95713356Y-63884265D01*
X95713360Y-63884268D01*
X95844463Y-63971869D01*
X95844476Y-63971876D01*
X95990147Y-64032214D01*
X95990152Y-64032216D01*
X96037786Y-64041691D01*
X96145498Y-64063117D01*
X96207409Y-64095502D01*
X96208987Y-64097052D01*
X114854933Y-82742999D01*
X114854935Y-82743000D01*
X114854939Y-82743003D01*
X114991858Y-82822052D01*
X114991865Y-82822056D01*
X115144592Y-82862980D01*
X115144594Y-82862980D01*
X115310303Y-82862980D01*
X115310319Y-82862979D01*
X141643883Y-82862979D01*
X141710922Y-82882664D01*
X141712774Y-82883877D01*
X141844463Y-82971869D01*
X141844476Y-82971876D01*
X141990147Y-83032214D01*
X141990152Y-83032216D01*
X142144802Y-83062978D01*
X142144805Y-83062979D01*
X142144807Y-83062979D01*
X142302493Y-83062979D01*
X142302494Y-83062978D01*
X142457146Y-83032216D01*
X142602828Y-82971873D01*
X142733938Y-82884268D01*
X142845438Y-82772768D01*
X142933043Y-82641658D01*
X142993386Y-82495976D01*
X143024149Y-82341321D01*
X143024149Y-82183637D01*
X143024149Y-82183634D01*
X143024148Y-82183632D01*
X142993387Y-82028989D01*
X142993386Y-82028982D01*
X142993384Y-82028977D01*
X142933046Y-81883306D01*
X142933039Y-81883293D01*
X142845438Y-81752190D01*
X142845435Y-81752186D01*
X142733941Y-81640692D01*
X142733937Y-81640689D01*
X142602834Y-81553088D01*
X142602821Y-81553081D01*
X142457150Y-81492743D01*
X142457138Y-81492740D01*
X142302494Y-81461979D01*
X142302491Y-81461979D01*
X142144807Y-81461979D01*
X142144804Y-81461979D01*
X141990159Y-81492740D01*
X141990147Y-81492743D01*
X141844476Y-81553081D01*
X141844463Y-81553088D01*
X141712774Y-81641081D01*
X141646096Y-81661959D01*
X141643883Y-81661979D01*
X115523747Y-81661979D01*
X115456708Y-81642294D01*
X115436066Y-81625660D01*
X97058222Y-63247816D01*
X97049361Y-63231589D01*
X97036431Y-63218374D01*
X97025665Y-63188193D01*
X97024737Y-63186493D01*
X97024457Y-63185173D01*
X97024149Y-63183679D01*
X97024149Y-63183637D01*
X96993386Y-63028982D01*
X96991135Y-63023548D01*
X96988758Y-63012017D01*
X96990694Y-62988539D01*
X96988146Y-62965120D01*
X96993512Y-62954363D01*
X96994501Y-62942384D01*
X97008822Y-62923679D01*
X97019340Y-62902601D01*
X97029669Y-62896454D01*
X97036978Y-62886909D01*
X97059141Y-62878915D01*
X97079383Y-62866871D01*
X97099631Y-62864314D01*
X97102704Y-62863206D01*
X97104731Y-62863670D01*
X97110204Y-62862979D01*
X139699087Y-62862979D01*
X139766126Y-62882664D01*
X139786768Y-62899298D01*
X141519367Y-64631897D01*
X141552852Y-64693220D01*
X141555686Y-64719578D01*
X141555686Y-64742327D01*
X141586447Y-64896970D01*
X141586450Y-64896982D01*
X141646788Y-65042653D01*
X141646795Y-65042666D01*
X141734396Y-65173769D01*
X141734399Y-65173773D01*
X141845893Y-65285267D01*
X141845897Y-65285270D01*
X141977000Y-65372871D01*
X141977013Y-65372878D01*
X142122684Y-65433216D01*
X142122689Y-65433218D01*
X142277339Y-65463980D01*
X142277342Y-65463981D01*
X142277344Y-65463981D01*
X142435030Y-65463981D01*
X142435031Y-65463980D01*
X142589683Y-65433218D01*
X142735365Y-65372875D01*
X142866475Y-65285270D01*
X142977975Y-65173770D01*
X143065580Y-65042660D01*
X143125923Y-64896978D01*
X143156686Y-64742323D01*
X143156686Y-64584639D01*
X143156686Y-64584636D01*
X143156685Y-64584634D01*
X143125924Y-64429991D01*
X143125923Y-64429984D01*
X143125921Y-64429979D01*
X143065583Y-64284308D01*
X143065576Y-64284295D01*
X142977975Y-64153192D01*
X142977972Y-64153188D01*
X142866478Y-64041694D01*
X142866474Y-64041691D01*
X142735371Y-63954090D01*
X142735358Y-63954083D01*
X142589687Y-63893745D01*
X142589677Y-63893742D01*
X142489261Y-63873768D01*
X142427350Y-63841383D01*
X142425772Y-63839832D01*
X140839664Y-62253724D01*
X140806179Y-62192401D01*
X140811163Y-62122709D01*
X140853035Y-62066776D01*
X140918499Y-62042359D01*
X140951534Y-62044425D01*
X140992982Y-62052670D01*
X141044805Y-62062979D01*
X141044807Y-62062979D01*
X141202493Y-62062979D01*
X141202494Y-62062978D01*
X141357146Y-62032216D01*
X141411039Y-62009892D01*
X141480508Y-62002424D01*
X141542987Y-62033699D01*
X141578639Y-62093788D01*
X141580109Y-62148643D01*
X141573149Y-62183636D01*
X141573149Y-62341325D01*
X141603910Y-62495968D01*
X141603913Y-62495980D01*
X141664251Y-62641651D01*
X141664258Y-62641664D01*
X141751859Y-62772767D01*
X141751862Y-62772771D01*
X141863356Y-62884265D01*
X141863360Y-62884268D01*
X141994463Y-62971869D01*
X141994476Y-62971876D01*
X142132344Y-63028982D01*
X142140152Y-63032216D01*
X142294802Y-63062978D01*
X142294805Y-63062979D01*
X142294807Y-63062979D01*
X142452493Y-63062979D01*
X142452494Y-63062978D01*
X142607146Y-63032216D01*
X142752828Y-62971873D01*
X142883938Y-62884268D01*
X142995438Y-62772768D01*
X143083043Y-62641658D01*
X143143386Y-62495976D01*
X143162762Y-62398564D01*
X143174287Y-62340629D01*
X143206672Y-62278718D01*
X143208167Y-62277195D01*
X143911468Y-61573895D01*
X143972791Y-61540410D01*
X144042483Y-61545394D01*
X144098416Y-61587266D01*
X144122833Y-61652730D01*
X144123149Y-61661576D01*
X144123149Y-97962382D01*
X144103464Y-98029421D01*
X144086830Y-98050063D01*
X142511233Y-99625660D01*
X142449910Y-99659145D01*
X142423552Y-99661979D01*
X141803415Y-99661979D01*
X141736376Y-99642294D01*
X141734524Y-99641081D01*
X141602834Y-99553088D01*
X141602821Y-99553081D01*
X141457150Y-99492743D01*
X141457138Y-99492740D01*
X141302494Y-99461979D01*
X141302491Y-99461979D01*
X141144807Y-99461979D01*
X141144804Y-99461979D01*
X140990159Y-99492740D01*
X140990147Y-99492743D01*
X140844476Y-99553081D01*
X140844463Y-99553088D01*
X140713360Y-99640689D01*
X140713356Y-99640692D01*
X140601862Y-99752186D01*
X140601859Y-99752190D01*
X140514258Y-99883293D01*
X140514251Y-99883306D01*
X140453913Y-100028977D01*
X140453910Y-100028989D01*
X140423149Y-100183632D01*
X140423149Y-100341325D01*
X140453910Y-100495968D01*
X140455680Y-100501803D01*
X140452928Y-100502637D01*
X140459152Y-100559838D01*
X140427958Y-100622357D01*
X140367915Y-100658087D01*
X140337094Y-100661979D01*
X114773746Y-100661979D01*
X114706707Y-100642294D01*
X114686065Y-100625660D01*
X70360468Y-56300063D01*
X70326983Y-56238740D01*
X70324149Y-56212382D01*
X70324149Y-49842244D01*
X70343834Y-49775205D01*
X70345047Y-49773353D01*
X70433039Y-49641664D01*
X70433039Y-49641663D01*
X70433043Y-49641658D01*
X70493386Y-49495976D01*
X70524149Y-49341321D01*
X70524149Y-49183637D01*
X70524149Y-49183634D01*
X70524148Y-49183632D01*
X70493387Y-49028989D01*
X70493386Y-49028982D01*
X70439986Y-48900062D01*
X70433046Y-48883306D01*
X70433039Y-48883293D01*
X70345438Y-48752190D01*
X70345435Y-48752186D01*
X70233941Y-48640692D01*
X70233937Y-48640689D01*
X70102834Y-48553088D01*
X70102821Y-48553081D01*
X69957150Y-48492743D01*
X69957138Y-48492740D01*
X69802494Y-48461979D01*
X69802491Y-48461979D01*
X69644807Y-48461979D01*
X69644804Y-48461979D01*
X69490159Y-48492740D01*
X69490147Y-48492743D01*
X69344476Y-48553081D01*
X69344463Y-48553088D01*
X69213360Y-48640689D01*
X69213356Y-48640692D01*
X69101862Y-48752186D01*
X69101859Y-48752190D01*
X69014258Y-48883293D01*
X69014251Y-48883306D01*
X68953913Y-49028977D01*
X68953910Y-49028989D01*
X68923149Y-49183632D01*
X68923149Y-49341325D01*
X68953910Y-49495968D01*
X68953913Y-49495980D01*
X69014251Y-49641651D01*
X69014258Y-49641664D01*
X69102251Y-49773353D01*
X69123129Y-49840030D01*
X69123149Y-49842244D01*
X69123149Y-56425809D01*
X69123148Y-56425827D01*
X69123148Y-56591533D01*
X69123147Y-56591533D01*
X69164072Y-56744264D01*
X69193007Y-56794379D01*
X69193008Y-56794383D01*
X69193009Y-56794383D01*
X69243128Y-56881193D01*
X69243130Y-56881196D01*
X69361998Y-57000064D01*
X69362004Y-57000069D01*
X113988788Y-101626853D01*
X113988798Y-101626864D01*
X113993128Y-101631194D01*
X113993129Y-101631195D01*
X114104933Y-101742999D01*
X114188426Y-101791203D01*
X114188428Y-101791205D01*
X114241860Y-101822054D01*
X114241864Y-101822056D01*
X114394592Y-101862980D01*
X114394595Y-101862980D01*
X114560302Y-101862980D01*
X114560318Y-101862979D01*
X141643883Y-101862979D01*
X141710922Y-101882664D01*
X141712774Y-101883877D01*
X141844463Y-101971869D01*
X141844476Y-101971876D01*
X141990147Y-102032214D01*
X141990152Y-102032216D01*
X142144802Y-102062978D01*
X142144805Y-102062979D01*
X142144807Y-102062979D01*
X142302493Y-102062979D01*
X142302494Y-102062978D01*
X142457146Y-102032216D01*
X142602828Y-101971873D01*
X142733938Y-101884268D01*
X142845438Y-101772768D01*
X142933043Y-101641658D01*
X142993386Y-101495976D01*
X143024149Y-101341321D01*
X143024149Y-101183637D01*
X143024149Y-101183634D01*
X143024148Y-101183632D01*
X142993387Y-101028989D01*
X142993386Y-101028982D01*
X142958506Y-100944773D01*
X142951037Y-100875304D01*
X142982312Y-100812825D01*
X143011066Y-100789934D01*
X143092365Y-100742999D01*
X143204169Y-100631195D01*
X143204169Y-100631193D01*
X143214377Y-100620986D01*
X143214379Y-100620983D01*
X145082155Y-98753207D01*
X145082160Y-98753203D01*
X145092363Y-98742999D01*
X145092365Y-98742999D01*
X145204169Y-98631195D01*
X145258871Y-98536447D01*
X145283226Y-98494264D01*
X145324149Y-98341536D01*
X145324149Y-98183422D01*
X145324149Y-42851539D01*
X145324150Y-42851526D01*
X145324150Y-42683423D01*
X145324150Y-42683422D01*
X145283226Y-42530695D01*
X145245509Y-42465367D01*
X145204173Y-42393769D01*
X145204167Y-42393761D01*
X142211239Y-39400834D01*
X142211237Y-39400831D01*
X142092366Y-39281960D01*
X142092365Y-39281959D01*
X142005553Y-39231839D01*
X142005553Y-39231838D01*
X142005549Y-39231837D01*
X141955434Y-39202902D01*
X141802706Y-39161978D01*
X141644592Y-39161978D01*
X141636996Y-39161978D01*
X141636980Y-39161979D01*
X138303415Y-39161979D01*
X138236376Y-39142294D01*
X138234524Y-39141081D01*
X138102834Y-39053088D01*
X138102821Y-39053081D01*
X137957150Y-38992743D01*
X137957138Y-38992740D01*
X137802494Y-38961979D01*
X137802491Y-38961979D01*
X137644807Y-38961979D01*
X137644804Y-38961979D01*
X137490159Y-38992740D01*
X137490147Y-38992743D01*
X137344476Y-39053081D01*
X137344463Y-39053088D01*
X137213360Y-39140689D01*
X137213356Y-39140692D01*
X137101862Y-39252186D01*
X137101859Y-39252190D01*
X137014258Y-39383293D01*
X137014251Y-39383306D01*
X136953913Y-39528977D01*
X136953910Y-39528989D01*
X136923149Y-39683632D01*
X136923149Y-39841325D01*
X136953910Y-39995968D01*
X136955680Y-40001803D01*
X136952928Y-40002637D01*
X136959152Y-40059838D01*
X136927958Y-40122357D01*
X136867915Y-40158087D01*
X136837094Y-40161979D01*
X98023747Y-40161979D01*
X97956708Y-40142294D01*
X97936066Y-40125660D01*
X80611239Y-22800834D01*
X80611237Y-22800831D01*
X80492366Y-22681960D01*
X80492365Y-22681959D01*
X80405553Y-22631839D01*
X80405553Y-22631838D01*
X80405549Y-22631837D01*
X80355434Y-22602902D01*
X80202706Y-22561978D01*
X80044592Y-22561978D01*
X80036996Y-22561978D01*
X80036980Y-22561979D01*
X77053415Y-22561979D01*
X76986376Y-22542294D01*
X76984524Y-22541081D01*
X76852834Y-22453088D01*
X76852821Y-22453081D01*
X76707150Y-22392743D01*
X76707138Y-22392740D01*
X76552494Y-22361979D01*
X76552491Y-22361979D01*
X76394807Y-22361979D01*
X76394804Y-22361979D01*
X76240159Y-22392740D01*
X76240147Y-22392743D01*
X76094476Y-22453081D01*
X76094463Y-22453088D01*
X75963360Y-22540689D01*
X75963356Y-22540692D01*
X75851862Y-22652186D01*
X75851859Y-22652190D01*
X75764258Y-22783293D01*
X75764251Y-22783306D01*
X75703913Y-22928977D01*
X75703910Y-22928989D01*
X75673149Y-23083632D01*
X75673149Y-23241325D01*
X75703910Y-23395968D01*
X75703913Y-23395980D01*
X75764251Y-23541651D01*
X75764258Y-23541664D01*
X75832362Y-23643588D01*
X75853240Y-23710266D01*
X75834756Y-23777646D01*
X75832362Y-23781370D01*
X75764258Y-23883293D01*
X75764251Y-23883306D01*
X75703913Y-24028977D01*
X75703910Y-24028989D01*
X75673149Y-24183632D01*
X75673149Y-24341325D01*
X75703910Y-24495968D01*
X75703913Y-24495980D01*
X75764251Y-24641651D01*
X75764258Y-24641664D01*
X75832362Y-24743588D01*
X75853240Y-24810266D01*
X75834756Y-24877646D01*
X75832362Y-24881370D01*
X75764258Y-24983293D01*
X75764251Y-24983306D01*
X75703913Y-25128977D01*
X75703910Y-25128989D01*
X75673149Y-25283632D01*
X75673149Y-25441325D01*
X75703910Y-25595968D01*
X75703913Y-25595980D01*
X75764251Y-25741651D01*
X75764258Y-25741664D01*
X75851859Y-25872767D01*
X75851862Y-25872771D01*
X75963356Y-25984265D01*
X75963360Y-25984268D01*
X76094463Y-26071869D01*
X76094476Y-26071876D01*
X76167179Y-26101990D01*
X76240152Y-26132216D01*
X76394802Y-26162978D01*
X76394805Y-26162979D01*
X76394807Y-26162979D01*
X76552493Y-26162979D01*
X76552494Y-26162978D01*
X76707146Y-26132216D01*
X76852828Y-26071873D01*
X76852834Y-26071869D01*
X76984524Y-25983877D01*
X77051202Y-25962999D01*
X77053415Y-25962979D01*
X79023552Y-25962979D01*
X79090591Y-25982664D01*
X79111233Y-25999298D01*
X83705919Y-30593984D01*
X83739404Y-30655307D01*
X83734420Y-30724999D01*
X83692548Y-30780932D01*
X83664502Y-30796711D01*
X83653764Y-30801028D01*
X83645152Y-30802742D01*
X83500209Y-30862778D01*
X83499597Y-30863025D01*
X83497155Y-30863261D01*
X83453333Y-30871979D01*
X69375167Y-30871979D01*
X69308128Y-30852294D01*
X69287486Y-30835660D01*
X61270195Y-22818367D01*
X61270194Y-22818366D01*
X61155456Y-22741701D01*
X61027981Y-22688900D01*
X61027971Y-22688897D01*
X60892645Y-22661979D01*
X60892643Y-22661979D01*
X60892642Y-22661979D01*
X55148965Y-22661979D01*
X55101513Y-22652540D01*
X54957150Y-22592743D01*
X54957138Y-22592740D01*
X54802494Y-22561979D01*
X54802491Y-22561979D01*
X54644807Y-22561979D01*
X54644804Y-22561979D01*
X54490159Y-22592740D01*
X54490147Y-22592743D01*
X54344476Y-22653081D01*
X54344463Y-22653088D01*
X54213360Y-22740689D01*
X54213356Y-22740692D01*
X54101862Y-22852186D01*
X54101859Y-22852190D01*
X54014258Y-22983293D01*
X54014251Y-22983306D01*
X53953913Y-23128977D01*
X53953910Y-23128989D01*
X53923149Y-23283632D01*
X53923149Y-23441325D01*
X53953910Y-23595968D01*
X53953913Y-23595980D01*
X54014251Y-23741651D01*
X54014258Y-23741664D01*
X54101859Y-23872767D01*
X54101862Y-23872771D01*
X54213356Y-23984265D01*
X54213360Y-23984268D01*
X54344463Y-24071869D01*
X54344476Y-24071876D01*
X54410680Y-24099298D01*
X54490152Y-24132216D01*
X54644802Y-24162978D01*
X54644805Y-24162979D01*
X54644807Y-24162979D01*
X54802493Y-24162979D01*
X54802494Y-24162978D01*
X54957146Y-24132216D01*
X55036618Y-24099298D01*
X55101513Y-24072418D01*
X55148965Y-24062979D01*
X60482130Y-24062979D01*
X60549169Y-24082664D01*
X60569811Y-24099298D01*
X67955310Y-31484797D01*
X67988795Y-31546120D01*
X67983811Y-31615812D01*
X67955310Y-31660159D01*
X63679536Y-35935933D01*
X63662134Y-35961979D01*
X63602877Y-36050661D01*
X63602870Y-36050674D01*
X63550070Y-36178146D01*
X63550067Y-36178156D01*
X63523149Y-36313483D01*
X63523149Y-36337163D01*
X63513710Y-36384615D01*
X63453913Y-36528977D01*
X63453910Y-36528989D01*
X63423149Y-36683632D01*
X63423149Y-36687979D01*
X63403464Y-36755018D01*
X63350660Y-36800773D01*
X63299149Y-36811979D01*
X55744457Y-36811979D01*
X55677418Y-36792294D01*
X55656776Y-36775660D01*
X53535468Y-34654352D01*
X53501983Y-34593029D01*
X53499149Y-34566671D01*
X53499149Y-24817414D01*
X53518834Y-24750375D01*
X53520015Y-24748569D01*
X53558043Y-24691658D01*
X53618386Y-24545976D01*
X53649149Y-24391321D01*
X53649149Y-24233637D01*
X53649149Y-24233634D01*
X53649148Y-24233632D01*
X53628975Y-24132216D01*
X53618386Y-24078982D01*
X53614934Y-24070648D01*
X53558046Y-23933306D01*
X53558039Y-23933293D01*
X53470438Y-23802190D01*
X53470435Y-23802186D01*
X53358941Y-23690692D01*
X53358937Y-23690689D01*
X53227834Y-23603088D01*
X53227821Y-23603081D01*
X53082150Y-23542743D01*
X53082138Y-23542740D01*
X52927494Y-23511979D01*
X52927491Y-23511979D01*
X52769807Y-23511979D01*
X52769804Y-23511979D01*
X52615159Y-23542740D01*
X52615147Y-23542743D01*
X52469476Y-23603081D01*
X52469463Y-23603088D01*
X52338360Y-23690689D01*
X52338356Y-23690692D01*
X52226862Y-23802186D01*
X52226859Y-23802190D01*
X52139258Y-23933293D01*
X52139251Y-23933306D01*
X52078913Y-24078977D01*
X52078910Y-24078989D01*
X52048149Y-24233632D01*
X27537244Y-24233632D01*
X27843521Y-24070616D01*
X27845885Y-24069393D01*
X29390858Y-23291360D01*
X29393297Y-23290166D01*
X30955516Y-22547214D01*
X30957946Y-22546092D01*
X32536504Y-21838654D01*
X32539006Y-21837567D01*
X33317197Y-21509726D01*
X33365339Y-21500000D01*
X92838434Y-21500000D01*
X92885833Y-21509417D01*
G37*
%TD.AperFunction*%
%TD*%
%TA.AperFunction,Conductor*%
%TO.N,/Power_Board/GND*%
G36*
X253150329Y-15483770D02*
G01*
X254879959Y-15508924D01*
X254882761Y-15508997D01*
X256611339Y-15573225D01*
X256613993Y-15573353D01*
X258340823Y-15676635D01*
X258343509Y-15676827D01*
X260067508Y-15819098D01*
X260070189Y-15819349D01*
X261790520Y-16000540D01*
X261793226Y-16000856D01*
X263509013Y-16220873D01*
X263511730Y-16221253D01*
X265222079Y-16479981D01*
X265224756Y-16480417D01*
X266928872Y-16777736D01*
X266931551Y-16778235D01*
X268122292Y-17013828D01*
X268628442Y-17113972D01*
X268631185Y-17114547D01*
X270320059Y-17488542D01*
X270322741Y-17489168D01*
X272002721Y-17901229D01*
X272005397Y-17901917D01*
X273675660Y-18351840D01*
X273678308Y-18352585D01*
X275337984Y-18840139D01*
X275340635Y-18840950D01*
X276504508Y-19211622D01*
X276988845Y-19365874D01*
X276991506Y-19366755D01*
X278147551Y-19763922D01*
X278627394Y-19928775D01*
X278630028Y-19929713D01*
X280252872Y-20528584D01*
X280255403Y-20529550D01*
X281392495Y-20978612D01*
X281864285Y-21164932D01*
X281866880Y-21165991D01*
X283460960Y-21837553D01*
X283463527Y-21838669D01*
X285042019Y-22546077D01*
X285044516Y-22547230D01*
X286151371Y-23073622D01*
X286606664Y-23290148D01*
X286609177Y-23291378D01*
X288154077Y-24069374D01*
X288156513Y-24070635D01*
X289683539Y-24883396D01*
X289685996Y-24884740D01*
X291194143Y-25731730D01*
X291196533Y-25733107D01*
X292554144Y-26536438D01*
X292685243Y-26614012D01*
X292687638Y-26615466D01*
X294156013Y-27529755D01*
X294158375Y-27531263D01*
X295605722Y-28478504D01*
X295608049Y-28480065D01*
X297033591Y-29459749D01*
X297035883Y-29461362D01*
X298438987Y-30473053D01*
X298441238Y-30474716D01*
X299818401Y-31515797D01*
X299825725Y-31521786D01*
X299962444Y-31642611D01*
X299973817Y-31654065D01*
X300091457Y-31789084D01*
X300101250Y-31801924D01*
X300200351Y-31951090D01*
X300208392Y-31965093D01*
X300287269Y-32125872D01*
X300293422Y-32140801D01*
X300350738Y-32310465D01*
X300354899Y-32326067D01*
X300389682Y-32501743D01*
X300391780Y-32517753D01*
X300403705Y-32700500D01*
X300403968Y-32708574D01*
X300403968Y-88476414D01*
X300403648Y-88485310D01*
X300389172Y-88686560D01*
X300386626Y-88704168D01*
X300344451Y-88896923D01*
X300339411Y-88913987D01*
X300270084Y-89098721D01*
X300262654Y-89114887D01*
X300167603Y-89287799D01*
X300157936Y-89302735D01*
X300039118Y-89460262D01*
X300027413Y-89473661D01*
X299887274Y-89612563D01*
X299873772Y-89624149D01*
X299715197Y-89741566D01*
X299700175Y-89751101D01*
X299526422Y-89844618D01*
X299510190Y-89851904D01*
X299320963Y-89921008D01*
X299311877Y-89923935D01*
X296541046Y-90700171D01*
X296539802Y-90700513D01*
X293756935Y-91448990D01*
X293755688Y-91449318D01*
X290965342Y-92168769D01*
X290964091Y-92169085D01*
X288166276Y-92859506D01*
X288165023Y-92859808D01*
X285360315Y-93521056D01*
X285359058Y-93521346D01*
X282547465Y-94153422D01*
X282546205Y-94153698D01*
X279728279Y-94756474D01*
X279727016Y-94756737D01*
X276902749Y-95330214D01*
X276902117Y-95330341D01*
X274634201Y-95778577D01*
X270583299Y-96607314D01*
X270219863Y-96681666D01*
X270103933Y-96705383D01*
X265580172Y-97662323D01*
X265580089Y-97662341D01*
X265580066Y-97662346D01*
X261062611Y-98649462D01*
X261062530Y-98649480D01*
X261062490Y-98649489D01*
X256551920Y-99666654D01*
X252047914Y-100713943D01*
X247551200Y-101791187D01*
X243061558Y-102898438D01*
X239079880Y-103908621D01*
X238579564Y-104035556D01*
X238579542Y-104035561D01*
X238579537Y-104035563D01*
X234105271Y-105202523D01*
X234105203Y-105202541D01*
X234105200Y-105202542D01*
X231871958Y-105800941D01*
X231808311Y-105817995D01*
X231808310Y-105817995D01*
X231491478Y-105902890D01*
X230958076Y-106045814D01*
X229140187Y-106570904D01*
X227332841Y-107131139D01*
X225536683Y-107726321D01*
X224826240Y-107977127D01*
X223752377Y-108356230D01*
X223752363Y-108356234D01*
X223752341Y-108356243D01*
X221980658Y-109020607D01*
X220222140Y-109719221D01*
X218477455Y-110451823D01*
X216747372Y-111218089D01*
X215032454Y-112017769D01*
X213333363Y-112850552D01*
X211650702Y-113716148D01*
X209985203Y-114614178D01*
X208337406Y-115544349D01*
X206707938Y-116506307D01*
X205097463Y-117499664D01*
X203506550Y-118524064D01*
X201935802Y-119579119D01*
X200385772Y-120664462D01*
X199252162Y-121491442D01*
X198857101Y-121779643D01*
X197531772Y-122786433D01*
X197350330Y-122924266D01*
X195866062Y-124097873D01*
X194404813Y-125300056D01*
X192967179Y-126530324D01*
X191553619Y-127788284D01*
X190164801Y-129073344D01*
X188801059Y-130385194D01*
X188178681Y-131007573D01*
X179127738Y-140058517D01*
X179127737Y-140058518D01*
X179084281Y-140101973D01*
X179077804Y-140108004D01*
X178926157Y-140239407D01*
X178911994Y-140250009D01*
X178746935Y-140356087D01*
X178731411Y-140364564D01*
X178632941Y-140409533D01*
X178552929Y-140446074D01*
X178536354Y-140452256D01*
X178348096Y-140507535D01*
X178330807Y-140511296D01*
X178136594Y-140539220D01*
X178118947Y-140540482D01*
X177922741Y-140540482D01*
X177905095Y-140539220D01*
X177710880Y-140511297D01*
X177693592Y-140507536D01*
X177505337Y-140452261D01*
X177488761Y-140446079D01*
X177310283Y-140364573D01*
X177294754Y-140356094D01*
X177129692Y-140250016D01*
X177115529Y-140239414D01*
X176963881Y-140108013D01*
X176957417Y-140101995D01*
X176913948Y-140058526D01*
X176913946Y-140058525D01*
X174226838Y-137371463D01*
X174226837Y-137371462D01*
X174226835Y-137371460D01*
X174226834Y-137371458D01*
X174041326Y-137185954D01*
X174041288Y-137185918D01*
X173551740Y-136748437D01*
X173405816Y-136632068D01*
X173038413Y-136339078D01*
X173038402Y-136339070D01*
X173038398Y-136339067D01*
X173038396Y-136339065D01*
X172502946Y-135959150D01*
X172502925Y-135959137D01*
X171947023Y-135609844D01*
X171946991Y-135609825D01*
X171372394Y-135292262D01*
X171372395Y-135292262D01*
X171372376Y-135292252D01*
X171372356Y-135292242D01*
X171372334Y-135292231D01*
X170780829Y-135007381D01*
X170174260Y-134756135D01*
X169554536Y-134539287D01*
X169554534Y-134539286D01*
X169554530Y-134539285D01*
X168923628Y-134357528D01*
X168923624Y-134357527D01*
X168923614Y-134357524D01*
X168283523Y-134211429D01*
X167636250Y-134101455D01*
X167636197Y-134101448D01*
X166983823Y-134027944D01*
X166983812Y-134027943D01*
X166983809Y-134027943D01*
X166328281Y-133991130D01*
X166328278Y-133991130D01*
X162624500Y-133991130D01*
X162557461Y-133971445D01*
X162511706Y-133918641D01*
X162500500Y-133867130D01*
X162500500Y-126275740D01*
X162500500Y-126275738D01*
X162466392Y-126148444D01*
X162400500Y-126034316D01*
X162307314Y-125941130D01*
X162250250Y-125908184D01*
X162193187Y-125875238D01*
X162129539Y-125858184D01*
X162065892Y-125841130D01*
X162065891Y-125841130D01*
X159874500Y-125841130D01*
X159807461Y-125821445D01*
X159761706Y-125768641D01*
X159750500Y-125717130D01*
X159750500Y-125634110D01*
X159750500Y-125634108D01*
X159716392Y-125506814D01*
X159650500Y-125392686D01*
X159620495Y-125362681D01*
X159587010Y-125301358D01*
X159591994Y-125231666D01*
X159620495Y-125187319D01*
X159650500Y-125157314D01*
X159716392Y-125043186D01*
X159750500Y-124915892D01*
X159750500Y-124784108D01*
X159716392Y-124656814D01*
X159650500Y-124542686D01*
X159620495Y-124512681D01*
X159587010Y-124451358D01*
X159591994Y-124381666D01*
X159620495Y-124337319D01*
X159650500Y-124307314D01*
X159716392Y-124193186D01*
X159750500Y-124065892D01*
X159750500Y-123934108D01*
X159716392Y-123806814D01*
X159650500Y-123692686D01*
X159620495Y-123662681D01*
X159587010Y-123601358D01*
X159591994Y-123531666D01*
X159620495Y-123487319D01*
X159650500Y-123457314D01*
X159716392Y-123343186D01*
X159750500Y-123215892D01*
X159750500Y-123084108D01*
X159716392Y-122956814D01*
X159650500Y-122842686D01*
X159620495Y-122812681D01*
X159587010Y-122751358D01*
X159591994Y-122681666D01*
X159620495Y-122637319D01*
X159650500Y-122607314D01*
X159716392Y-122493186D01*
X159750500Y-122365892D01*
X159750500Y-122234108D01*
X159716392Y-122106814D01*
X159650500Y-121992686D01*
X159557314Y-121899500D01*
X159557311Y-121899498D01*
X159550865Y-121894552D01*
X159552675Y-121892192D01*
X159514280Y-121851920D01*
X159500500Y-121795107D01*
X159500500Y-106383620D01*
X175825851Y-106383620D01*
X175825851Y-106541313D01*
X175856612Y-106695956D01*
X175856615Y-106695968D01*
X175916953Y-106841639D01*
X175916960Y-106841652D01*
X176004561Y-106972755D01*
X176004564Y-106972759D01*
X176116058Y-107084253D01*
X176116062Y-107084256D01*
X176247165Y-107171857D01*
X176247178Y-107171864D01*
X176392849Y-107232202D01*
X176392854Y-107232204D01*
X176547504Y-107262966D01*
X176547507Y-107262967D01*
X176547509Y-107262967D01*
X176705195Y-107262967D01*
X176705196Y-107262966D01*
X176859848Y-107232204D01*
X177005530Y-107171861D01*
X177005536Y-107171857D01*
X177137226Y-107083865D01*
X177203904Y-107062987D01*
X177206117Y-107062967D01*
X183866434Y-107062967D01*
X183933473Y-107082652D01*
X183954115Y-107099286D01*
X184831956Y-107977127D01*
X184865441Y-108038450D01*
X184865892Y-108040616D01*
X184896792Y-108195958D01*
X184896795Y-108195968D01*
X184957133Y-108341639D01*
X184957140Y-108341652D01*
X185044741Y-108472755D01*
X185044744Y-108472759D01*
X185156238Y-108584253D01*
X185156242Y-108584256D01*
X185287345Y-108671857D01*
X185287358Y-108671864D01*
X185433029Y-108732202D01*
X185433034Y-108732204D01*
X185587684Y-108762966D01*
X185587687Y-108762967D01*
X185587689Y-108762967D01*
X185745375Y-108762967D01*
X185745376Y-108762966D01*
X185900028Y-108732204D01*
X186045710Y-108671861D01*
X186176820Y-108584256D01*
X186288320Y-108472756D01*
X186375925Y-108341646D01*
X186436268Y-108195964D01*
X186467031Y-108041309D01*
X186467031Y-107883625D01*
X186467031Y-107883622D01*
X186467030Y-107883620D01*
X186436269Y-107728977D01*
X186436268Y-107728970D01*
X186435171Y-107726321D01*
X186375928Y-107583294D01*
X186375921Y-107583281D01*
X186288320Y-107452178D01*
X186288317Y-107452174D01*
X186176823Y-107340680D01*
X186176819Y-107340677D01*
X186045716Y-107253076D01*
X186045703Y-107253069D01*
X185900032Y-107192731D01*
X185900022Y-107192728D01*
X185744680Y-107161828D01*
X185682769Y-107129443D01*
X185681191Y-107127892D01*
X184654121Y-106100822D01*
X184654119Y-106100819D01*
X184535248Y-105981948D01*
X184535247Y-105981947D01*
X184448435Y-105931827D01*
X184448435Y-105931826D01*
X184448431Y-105931825D01*
X184398316Y-105902890D01*
X184245588Y-105861966D01*
X184087474Y-105861966D01*
X184079878Y-105861966D01*
X184079862Y-105861967D01*
X177206117Y-105861967D01*
X177139078Y-105842282D01*
X177137226Y-105841069D01*
X177005536Y-105753076D01*
X177005523Y-105753069D01*
X176859852Y-105692731D01*
X176859840Y-105692728D01*
X176705196Y-105661967D01*
X176705193Y-105661967D01*
X176547509Y-105661967D01*
X176547506Y-105661967D01*
X176392861Y-105692728D01*
X176392849Y-105692731D01*
X176247178Y-105753069D01*
X176247165Y-105753076D01*
X176116062Y-105840677D01*
X176116058Y-105840680D01*
X176004564Y-105952174D01*
X176004561Y-105952178D01*
X175916960Y-106083281D01*
X175916953Y-106083294D01*
X175856615Y-106228965D01*
X175856612Y-106228977D01*
X175825851Y-106383620D01*
X159500500Y-106383620D01*
X159500500Y-100204893D01*
X159520185Y-100137854D01*
X159552261Y-100107272D01*
X159550863Y-100105450D01*
X159557307Y-100100503D01*
X159557314Y-100100500D01*
X159650500Y-100007314D01*
X159716392Y-99893186D01*
X159750500Y-99765892D01*
X159750500Y-99634108D01*
X159716392Y-99506814D01*
X159650500Y-99392686D01*
X159620495Y-99362681D01*
X159587010Y-99301358D01*
X159591994Y-99231666D01*
X159620495Y-99187319D01*
X159650500Y-99157314D01*
X159716392Y-99043186D01*
X159750500Y-98915892D01*
X159750500Y-98784108D01*
X159716392Y-98656814D01*
X159650500Y-98542686D01*
X159620495Y-98512681D01*
X159587010Y-98451358D01*
X159591994Y-98381666D01*
X159620495Y-98337319D01*
X159650500Y-98307314D01*
X159716392Y-98193186D01*
X159750500Y-98065892D01*
X159750500Y-97934108D01*
X159716392Y-97806814D01*
X159650500Y-97692686D01*
X159620495Y-97662681D01*
X159587010Y-97601358D01*
X159591994Y-97531666D01*
X159620495Y-97487319D01*
X159650500Y-97457314D01*
X159716392Y-97343186D01*
X159750500Y-97215892D01*
X159750500Y-97084108D01*
X159716392Y-96956814D01*
X159650500Y-96842686D01*
X159620495Y-96812681D01*
X159587010Y-96751358D01*
X159591994Y-96681666D01*
X159620495Y-96637319D01*
X159650500Y-96607314D01*
X159716392Y-96493186D01*
X159750500Y-96365892D01*
X159750500Y-96234108D01*
X159716392Y-96106814D01*
X159650500Y-95992686D01*
X159557314Y-95899500D01*
X159557311Y-95899498D01*
X159550865Y-95894552D01*
X159552675Y-95892192D01*
X159514280Y-95851920D01*
X159500500Y-95795107D01*
X159500500Y-74204893D01*
X159520185Y-74137854D01*
X159552261Y-74107272D01*
X159550863Y-74105450D01*
X159557307Y-74100503D01*
X159557314Y-74100500D01*
X159650500Y-74007314D01*
X159716392Y-73893186D01*
X159750500Y-73765892D01*
X159750500Y-73634108D01*
X159716392Y-73506814D01*
X159650500Y-73392686D01*
X159620495Y-73362681D01*
X159587010Y-73301358D01*
X159591994Y-73231666D01*
X159620495Y-73187319D01*
X159650500Y-73157314D01*
X159716392Y-73043186D01*
X159750500Y-72915892D01*
X159750500Y-72784108D01*
X159716392Y-72656814D01*
X159650500Y-72542686D01*
X159620495Y-72512681D01*
X159587010Y-72451358D01*
X159591994Y-72381666D01*
X159620495Y-72337319D01*
X159650500Y-72307314D01*
X159716392Y-72193186D01*
X159750500Y-72065892D01*
X159750500Y-71934108D01*
X159716392Y-71806814D01*
X159650500Y-71692686D01*
X159620495Y-71662681D01*
X159587010Y-71601358D01*
X159591994Y-71531666D01*
X159620495Y-71487319D01*
X159650500Y-71457314D01*
X159716392Y-71343186D01*
X159750500Y-71215892D01*
X159750500Y-71084108D01*
X159716392Y-70956814D01*
X159650500Y-70842686D01*
X159620495Y-70812681D01*
X159587010Y-70751358D01*
X159591994Y-70681666D01*
X159620495Y-70637319D01*
X159650500Y-70607314D01*
X159716392Y-70493186D01*
X159750500Y-70365892D01*
X159750500Y-70234108D01*
X159716392Y-70106814D01*
X159650500Y-69992686D01*
X159557314Y-69899500D01*
X159557311Y-69899498D01*
X159550865Y-69894552D01*
X159552675Y-69892192D01*
X159514280Y-69851920D01*
X159500500Y-69795107D01*
X159500500Y-48204893D01*
X159520185Y-48137854D01*
X159552261Y-48107272D01*
X159550863Y-48105450D01*
X159557307Y-48100503D01*
X159557314Y-48100500D01*
X159650500Y-48007314D01*
X159716392Y-47893186D01*
X159750500Y-47765892D01*
X159750500Y-47634108D01*
X159716392Y-47506814D01*
X159650500Y-47392686D01*
X159620495Y-47362681D01*
X159587010Y-47301358D01*
X159591994Y-47231666D01*
X159620495Y-47187319D01*
X159650500Y-47157314D01*
X159716392Y-47043186D01*
X159750500Y-46915892D01*
X159750500Y-46784108D01*
X159716392Y-46656814D01*
X159650500Y-46542686D01*
X159620495Y-46512681D01*
X159587010Y-46451358D01*
X159591994Y-46381666D01*
X159620495Y-46337319D01*
X159650500Y-46307314D01*
X159716392Y-46193186D01*
X159750500Y-46065892D01*
X159750500Y-45934108D01*
X159716392Y-45806814D01*
X159650500Y-45692686D01*
X159620495Y-45662681D01*
X159587010Y-45601358D01*
X159591994Y-45531666D01*
X159620495Y-45487319D01*
X159650500Y-45457314D01*
X159716392Y-45343186D01*
X159750500Y-45215892D01*
X159750500Y-45084108D01*
X159716392Y-44956814D01*
X159650500Y-44842686D01*
X159620495Y-44812681D01*
X159620426Y-44812554D01*
X159620299Y-44812485D01*
X159603573Y-44781692D01*
X159587010Y-44751358D01*
X159587020Y-44751215D01*
X159586951Y-44751088D01*
X159589518Y-44716284D01*
X159591994Y-44681666D01*
X159592084Y-44681501D01*
X159592091Y-44681407D01*
X159592389Y-44680943D01*
X159609075Y-44650468D01*
X159614320Y-44643493D01*
X159650500Y-44607314D01*
X159680138Y-44555979D01*
X159684659Y-44549968D01*
X159706881Y-44533409D01*
X159726940Y-44514284D01*
X159735258Y-44512265D01*
X159740686Y-44508222D01*
X159756422Y-44507131D01*
X159783760Y-44500500D01*
X162065890Y-44500500D01*
X162065892Y-44500500D01*
X162193186Y-44466392D01*
X162307314Y-44400500D01*
X162400500Y-44307314D01*
X162466392Y-44193186D01*
X162500500Y-44065892D01*
X162500500Y-36474500D01*
X162520185Y-36407461D01*
X162572989Y-36361706D01*
X162624500Y-36350500D01*
X166080325Y-36350500D01*
X166080329Y-36350498D01*
X167039786Y-36350489D01*
X169119016Y-36312792D01*
X171197222Y-36237411D01*
X173273719Y-36124371D01*
X175347826Y-35973708D01*
X177418861Y-35785472D01*
X179486144Y-35559726D01*
X181548995Y-35296543D01*
X183025600Y-35080884D01*
X183606738Y-34996009D01*
X185658676Y-34658227D01*
X185742968Y-34642776D01*
X187704187Y-34283299D01*
X189742550Y-33871356D01*
X191773111Y-33422531D01*
X193795202Y-32936972D01*
X195808158Y-32414838D01*
X197811320Y-31856301D01*
X199804028Y-31261544D01*
X201785627Y-30630762D01*
X203755466Y-29964164D01*
X205712898Y-29261968D01*
X207657279Y-28524404D01*
X209587971Y-27751716D01*
X211504340Y-26944156D01*
X213405755Y-26101992D01*
X215291591Y-25225498D01*
X217161229Y-24314964D01*
X218028935Y-23872756D01*
X218028940Y-23872756D01*
X218087171Y-23843078D01*
X218088146Y-23842588D01*
X219638922Y-23074197D01*
X219641312Y-23073047D01*
X221208225Y-22340284D01*
X221210735Y-22339143D01*
X222793931Y-21641919D01*
X222796333Y-21640894D01*
X224394840Y-20979639D01*
X224397373Y-20978625D01*
X226010398Y-20353667D01*
X226012862Y-20352744D01*
X227639627Y-19764384D01*
X227642219Y-19763480D01*
X229281804Y-19212049D01*
X229284372Y-19211217D01*
X230935990Y-18696980D01*
X230938592Y-18696202D01*
X232601438Y-18219408D01*
X232604059Y-18218688D01*
X234277317Y-17779576D01*
X234279880Y-17778935D01*
X235962583Y-17377755D01*
X235965196Y-17377163D01*
X237656542Y-17014109D01*
X237659180Y-17013574D01*
X239358326Y-16688826D01*
X239360891Y-16688366D01*
X241066914Y-16402101D01*
X241069611Y-16401679D01*
X242781637Y-16154042D01*
X242784327Y-16153683D01*
X244501508Y-15944795D01*
X244504238Y-15944495D01*
X246225770Y-15774457D01*
X246228381Y-15774230D01*
X247953284Y-15643139D01*
X247955931Y-15642967D01*
X249683361Y-15550887D01*
X249686029Y-15550774D01*
X251415123Y-15497750D01*
X251417815Y-15497699D01*
X253147583Y-15483762D01*
X253150329Y-15483770D01*
G37*
%TD.AperFunction*%
%TD*%
M02*
