%TF.GenerationSoftware,KiCad,Pcbnew,10.0.4-10.0.4~ubuntu26.04.1*%
%TF.CreationDate,2026-07-08T23:09:31-05:00*%
%TF.ProjectId,bottom_plate,626f7474-6f6d-45f7-906c-6174652e6b69,rev?*%
%TF.SameCoordinates,Original*%
%TF.FileFunction,Paste,Top*%
%TF.FilePolarity,Positive*%
%FSLAX46Y46*%
G04 Gerber Fmt 4.6, Leading zero omitted, Abs format (unit mm)*
G04 Created by KiCad (PCBNEW 10.0.4-10.0.4~ubuntu26.04.1) date 2026-07-08 23:09:31*
%MOMM*%
%LPD*%
G01*
G04 APERTURE LIST*
G04 Aperture macros list*
%AMRoundRect*
0 Rectangle with rounded corners*
0 $1 Rounding radius*
0 $2 $3 $4 $5 $6 $7 $8 $9 X,Y pos of 4 corners*
0 Add a 4 corners polygon primitive as box body*
4,1,4,$2,$3,$4,$5,$6,$7,$8,$9,$2,$3,0*
0 Add four circle primitives for the rounded corners*
1,1,$1+$1,$2,$3*
1,1,$1+$1,$4,$5*
1,1,$1+$1,$6,$7*
1,1,$1+$1,$8,$9*
0 Add four rect primitives between the rounded corners*
20,1,$1+$1,$2,$3,$4,$5,0*
20,1,$1+$1,$4,$5,$6,$7,0*
20,1,$1+$1,$6,$7,$8,$9,0*
20,1,$1+$1,$8,$9,$2,$3,0*%
G04 Aperture macros list end*
%ADD10RoundRect,0.250000X0.625000X-0.400000X0.625000X0.400000X-0.625000X0.400000X-0.625000X-0.400000X0*%
%ADD11RoundRect,0.150000X0.150000X-0.587500X0.150000X0.587500X-0.150000X0.587500X-0.150000X-0.587500X0*%
%ADD12R,1.250000X0.280000*%
%ADD13R,2.000000X1.800000*%
%ADD14RoundRect,0.250000X-0.650000X0.412500X-0.650000X-0.412500X0.650000X-0.412500X0.650000X0.412500X0*%
%ADD15R,1.200000X0.800000*%
%ADD16R,1.200000X0.850000*%
%ADD17R,0.800000X1.200000*%
%ADD18RoundRect,0.112500X0.187500X0.112500X-0.187500X0.112500X-0.187500X-0.112500X0.187500X-0.112500X0*%
%ADD19RoundRect,0.150000X-0.512500X-0.150000X0.512500X-0.150000X0.512500X0.150000X-0.512500X0.150000X0*%
%ADD20RoundRect,0.150000X0.512500X0.150000X-0.512500X0.150000X-0.512500X-0.150000X0.512500X-0.150000X0*%
%ADD21RoundRect,0.250000X-0.625000X0.400000X-0.625000X-0.400000X0.625000X-0.400000X0.625000X0.400000X0*%
%ADD22RoundRect,0.150000X0.524376X0.487370X0.278631X0.659443X-0.524376X-0.487370X-0.278631X-0.659443X0*%
%ADD23RoundRect,0.250000X0.835722X0.757673X0.426146X1.044461X-0.835722X-0.757673X-0.426146X-1.044461X0*%
%ADD24RoundRect,0.150000X-0.659443X-0.278631X-0.487370X-0.524376X0.659443X0.278631X0.487370X0.524376X0*%
%ADD25RoundRect,0.250000X-1.044461X-0.426146X-0.757673X-0.835722X1.044461X0.426146X0.757673X0.835722X0*%
G04 APERTURE END LIST*
D10*
%TO.C,R_MON_1*%
X75500000Y-33650000D03*
X75500000Y-30550000D03*
%TD*%
D11*
%TO.C,Q_POW_1*%
X240412500Y-85437500D03*
X242312500Y-85437500D03*
X241362500Y-83562500D03*
%TD*%
D12*
%TO.C,J_VIK_OUT_INTC_1*%
X175208239Y-64650080D03*
X175208239Y-65150080D03*
X175208239Y-65650080D03*
X175208239Y-66150080D03*
X175208239Y-66650080D03*
X175208239Y-67150080D03*
X175208239Y-67650080D03*
X175208241Y-68150080D03*
X175208239Y-68650080D03*
X175208239Y-69150079D03*
X175208239Y-69650080D03*
X175208238Y-70150080D03*
D13*
X172484239Y-71950080D03*
X172484241Y-62850080D03*
%TD*%
D12*
%TO.C,J_VIK_IN_INTC_1*%
X224732000Y-70150080D03*
X224732000Y-69650080D03*
X224732000Y-69150080D03*
X224732000Y-68650080D03*
X224732000Y-68150080D03*
X224732000Y-67650080D03*
X224732000Y-67150080D03*
X224732000Y-66650080D03*
X224732000Y-66150080D03*
X224732000Y-65650080D03*
X224732000Y-65150080D03*
X224732000Y-64650080D03*
D13*
X227456000Y-62850080D03*
X227456000Y-71950080D03*
%TD*%
D14*
%TO.C,C1*%
X239362500Y-88437500D03*
X239362500Y-91562500D03*
%TD*%
D15*
%TO.C,U_MCU_1*%
X79250000Y-24300000D03*
X79250000Y-25400000D03*
X79250000Y-26500000D03*
X79250000Y-27600000D03*
D16*
X79250000Y-28700000D03*
D15*
X79250000Y-29800000D03*
X79250000Y-30900000D03*
X79250000Y-32000000D03*
X79250000Y-33100000D03*
X79250000Y-34200000D03*
X79250000Y-35300000D03*
X79250000Y-36400000D03*
X79250000Y-37500000D03*
X92750000Y-24300000D03*
X92750000Y-25400000D03*
X92750000Y-26500000D03*
X92750000Y-27600000D03*
X92750000Y-28700000D03*
X92750000Y-29800000D03*
X92750000Y-30900000D03*
X92750000Y-32000000D03*
X92750000Y-33100000D03*
X92750000Y-34200000D03*
X92750000Y-35300000D03*
X92750000Y-36400000D03*
X92750000Y-37500000D03*
D17*
X91500000Y-39000000D03*
X90400000Y-39000000D03*
X89300000Y-39000000D03*
X88200000Y-39000000D03*
X87100000Y-39000000D03*
X86000000Y-39000000D03*
X84900000Y-39000000D03*
X83800000Y-39000000D03*
X82700000Y-39000000D03*
X81600000Y-39000000D03*
X80500000Y-39000000D03*
%TD*%
D10*
%TO.C,R_MON_2*%
X75500000Y-28650000D03*
X75500000Y-25550000D03*
%TD*%
D18*
%TO.C,D_POW_1*%
X243912500Y-79500000D03*
X241812500Y-79500000D03*
%TD*%
D12*
%TO.C,J_VIK_OUT_SW_2*%
X224732000Y-81800000D03*
X224732000Y-81300000D03*
X224732000Y-80800000D03*
X224732000Y-80300000D03*
X224732000Y-79800000D03*
X224732000Y-79300000D03*
X224732000Y-78800000D03*
X224732000Y-78300000D03*
X224732000Y-77800000D03*
X224732000Y-77300000D03*
X224732000Y-76800000D03*
X224732000Y-76300000D03*
D13*
X227456000Y-74500000D03*
X227456000Y-83600000D03*
%TD*%
D19*
%TO.C,U_CHG_1*%
X237225000Y-78550000D03*
X237225000Y-79500000D03*
X237225000Y-80450000D03*
X239500000Y-80450000D03*
X239500000Y-78550000D03*
%TD*%
D12*
%TO.C,J_VIK_OUT_SW_1*%
X175223998Y-76300000D03*
X175223998Y-76800000D03*
X175223998Y-77300000D03*
X175223998Y-77800000D03*
X175223998Y-78300000D03*
X175223998Y-78800000D03*
X175223998Y-79300000D03*
X175224000Y-79800000D03*
X175223998Y-80300000D03*
X175223998Y-80799999D03*
X175223998Y-81300000D03*
X175223997Y-81800000D03*
D13*
X172499998Y-83600000D03*
X172500000Y-74500000D03*
%TD*%
D20*
%TO.C,U_POW_1*%
X89375000Y-43525000D03*
X89375000Y-42575000D03*
X89375000Y-41625000D03*
X87100000Y-41625000D03*
X87100000Y-43525000D03*
%TD*%
D21*
%TO.C,R_POW_1*%
X244362500Y-88450000D03*
X244362500Y-91550000D03*
%TD*%
D12*
%TO.C,J_VIK_OUT_SENS_1*%
X175192481Y-53000160D03*
X175192481Y-53500160D03*
X175192481Y-54000160D03*
X175192481Y-54500160D03*
X175192481Y-55000160D03*
X175192481Y-55500160D03*
X175192481Y-56000160D03*
X175192483Y-56500160D03*
X175192481Y-57000160D03*
X175192481Y-57500159D03*
X175192481Y-58000160D03*
X175192480Y-58500160D03*
D13*
X172468481Y-60300160D03*
X172468483Y-51200160D03*
%TD*%
D22*
%TO.C,J_SWD_1*%
X189474794Y-87590887D03*
X188450854Y-86873917D03*
X187426914Y-86156946D03*
X186402973Y-85439975D03*
D23*
X192825670Y-86030717D03*
X186722986Y-81757573D03*
%TD*%
D10*
%TO.C,R_CHG_1*%
X238337500Y-74825000D03*
X238337500Y-71725000D03*
%TD*%
D12*
%TO.C,J_VIK_OUT_SENS_2*%
X224732000Y-58500160D03*
X224732000Y-58000160D03*
X224732000Y-57500160D03*
X224732000Y-57000160D03*
X224732000Y-56500160D03*
X224732000Y-56000160D03*
X224732000Y-55500160D03*
X224732000Y-55000160D03*
X224732000Y-54500160D03*
X224732000Y-54000160D03*
X224732000Y-53500160D03*
X224732000Y-53000160D03*
D13*
X227456000Y-51200160D03*
X227456000Y-60300160D03*
%TD*%
D24*
%TO.C,J_BAT_1*%
X214656946Y-81926914D03*
X215373916Y-82950853D03*
D25*
X210974543Y-82246927D03*
X213813746Y-86301729D03*
%TD*%
D10*
%TO.C,R_CHG_2*%
X238337500Y-69825000D03*
X238337500Y-66725000D03*
%TD*%
D12*
%TO.C,J_VIK_OUT_DISP_1*%
X175176724Y-41350238D03*
X175176724Y-41850238D03*
X175176724Y-42350238D03*
X175176724Y-42850238D03*
X175176724Y-43350238D03*
X175176724Y-43850238D03*
X175176724Y-44350238D03*
X175176724Y-44850238D03*
X175176724Y-45350238D03*
X175176724Y-45850238D03*
X175176724Y-46350238D03*
X175176724Y-46850238D03*
D13*
X172452724Y-48650238D03*
X172452724Y-39550238D03*
%TD*%
D12*
%TO.C,J_VIK_OUT_DISP_2*%
X224732000Y-46850238D03*
X224732000Y-46350238D03*
X224732000Y-45850238D03*
X224732000Y-45350238D03*
X224732000Y-44850238D03*
X224732000Y-44350238D03*
X224732000Y-43850238D03*
X224732000Y-43350238D03*
X224732000Y-42850238D03*
X224732000Y-42350238D03*
X224732000Y-41850238D03*
X224732000Y-41350238D03*
D13*
X227456000Y-39550238D03*
X227456000Y-48650238D03*
%TD*%
D14*
%TO.C,C2*%
X241862500Y-88437500D03*
X241862500Y-91562500D03*
%TD*%
M02*
