%TF.GenerationSoftware,KiCad,Pcbnew,10.0.3-10.0.3~ubuntu26.04.1*%
%TF.CreationDate,2026-05-22T15:10:17-05:00*%
%TF.ProjectId,bottom_plate,626f7474-6f6d-45f7-906c-6174652e6b69,rev?*%
%TF.SameCoordinates,Original*%
%TF.FileFunction,Copper,L2,Bot*%
%TF.FilePolarity,Positive*%
%FSLAX46Y46*%
G04 Gerber Fmt 4.6, Leading zero omitted, Abs format (unit mm)*
G04 Created by KiCad (PCBNEW 10.0.3-10.0.3~ubuntu26.04.1) date 2026-05-22 15:10:17*
%MOMM*%
%LPD*%
G01*
G04 APERTURE LIST*
%TA.AperFunction,ComponentPad*%
%ADD10C,4.400000*%
%TD*%
%TA.AperFunction,ViaPad*%
%ADD11C,0.600000*%
%TD*%
%TA.AperFunction,Conductor*%
%ADD12C,0.200000*%
%TD*%
%TA.AperFunction,Conductor*%
%ADD13C,0.300000*%
%TD*%
G04 APERTURE END LIST*
D10*
%TO.P,H1,1,1_1*%
%TO.N,/Left/GND*%
X98097933Y-18113180D03*
%TD*%
%TO.P,H6,1,1_1*%
%TO.N,/Left/GND*%
X176090085Y-134024356D03*
%TD*%
%TO.P,H8,1,1_1*%
%TO.N,/Right/GND*%
X235321069Y-35415703D03*
%TD*%
%TO.P,H7,1,1_1*%
%TO.N,/Right/GND*%
X301902067Y-18113180D03*
%TD*%
%TO.P,H3,1,1_1*%
%TO.N,/Left/GND*%
X59895532Y-60619082D03*
%TD*%
%TO.P,H2,1,1_1*%
%TO.N,/Left/GND*%
X164678931Y-35415703D03*
%TD*%
%TO.P,H11,1,1_1*%
%TO.N,/Right/GND*%
X295779097Y-97950560D03*
%TD*%
%TO.P,H10,1,1_1*%
%TO.N,/Right/GND*%
X204000000Y-78170815D03*
%TD*%
%TO.P,H12,1,1_1*%
%TO.N,/Right/GND*%
X223909915Y-134024356D03*
%TD*%
%TO.P,H4,1,1_1*%
%TO.N,/Left/GND*%
X196000000Y-78170815D03*
%TD*%
%TO.P,H9,1,1_1*%
%TO.N,/Right/GND*%
X340104468Y-60619082D03*
%TD*%
%TO.P,H5,1,1_1*%
%TO.N,/Left/GND*%
X104220903Y-97950560D03*
%TD*%
D11*
%TO.N,/Left/GND*%
X151000000Y-63500000D03*
X138000000Y-50000000D03*
X154000000Y-52500000D03*
X152500000Y-48000000D03*
X129500000Y-30000000D03*
X115500000Y-42500000D03*
X126000000Y-42500000D03*
X177550000Y-40500000D03*
%TO.N,/Left/VCC*%
X130000000Y-32531562D03*
X117391091Y-32531562D03*
%TO.N,/Left/SWC*%
X191700000Y-81650000D03*
%TO.N,/Left/SWD*%
X191700000Y-84150000D03*
%TO.N,/Left/SWC*%
X132500000Y-41500000D03*
%TO.N,/Left/SWD*%
X134250000Y-42250000D03*
%TO.N,/Left/BATT_MON*%
X185050000Y-40500000D03*
X105000000Y-27562479D03*
%TO.N,/Left/CS_DIS1*%
X129500000Y-35500000D03*
%TO.N,/Left/CS_DIS2*%
X137500000Y-43000000D03*
X159451764Y-76428997D03*
%TO.N,/Left/RST*%
X160400000Y-91500000D03*
X113923649Y-36762479D03*
%TO.N,/Left/SCLK*%
X163000000Y-47000000D03*
X107323649Y-36762479D03*
%TO.N,/Left/MISO*%
X108423649Y-36762479D03*
X162045149Y-46861679D03*
%TO.N,/Left/MOSI*%
X109523649Y-36762479D03*
X160500000Y-50000000D03*
%TO.N,/Left/D-*%
X161600000Y-79500000D03*
X116123649Y-36762479D03*
%TO.N,/Left/D+*%
X160400000Y-79500000D03*
X117223649Y-36762479D03*
%TO.N,/Left/CS_PMW2*%
X161545149Y-76861679D03*
X138500000Y-43000000D03*
%TO.N,/Left/CS_DIS1*%
X161518686Y-49070158D03*
%TO.N,/Left/VDD*%
X176600000Y-38225000D03*
X155952235Y-45647765D03*
%TO.N,/Left/CS_PMW1*%
X161545149Y-61861679D03*
X139500000Y-43000000D03*
%TO.N,/Left/GND*%
X86000000Y-23000000D03*
%TO.N,/Right/GND*%
X220500000Y-42087500D03*
X229000000Y-72157000D03*
X229000000Y-57843000D03*
X244500000Y-87500000D03*
X244500000Y-57843000D03*
X244500000Y-72157000D03*
%TO.N,/Right/CS_DIS2*%
X239454851Y-83138321D03*
X241518686Y-49070158D03*
%TD*%
%TO.N,/Left/D+*%
D12*
X121591787Y-41130619D02*
X121591788Y-41130618D01*
X122026627Y-40695782D02*
X121761493Y-40960913D01*
X120997820Y-40536650D02*
G75*
G03*
X121337206Y-40536625I169680J169750D01*
G01*
X121945341Y-41625592D02*
X122016051Y-41554881D01*
X121591788Y-41130618D02*
X121521077Y-41201328D01*
X121521077Y-41342750D02*
X121803919Y-41625592D01*
X122016051Y-41554881D02*
X122185755Y-41385174D01*
X122185755Y-41385174D02*
X122431744Y-41139185D01*
X122771156Y-41139186D02*
X122856008Y-41224038D01*
X125158688Y-44697518D02*
X159961170Y-79500000D01*
X122610018Y-42148850D02*
X122694872Y-42233702D01*
X159961170Y-79500000D02*
X160400000Y-79500000D01*
X122694872Y-42233702D02*
X125158688Y-44697518D01*
X117223649Y-36762479D02*
X120997820Y-40536650D01*
X121803919Y-41625592D02*
G75*
G03*
X121945341Y-41625592I70711J70713D01*
G01*
X121941775Y-40271518D02*
X122026627Y-40356370D01*
X121602363Y-40271517D02*
G75*
G02*
X121941807Y-40271486I169737J-169683D01*
G01*
X122856008Y-41224038D02*
G75*
G02*
X122855964Y-41563406I-169708J-169662D01*
G01*
X121521077Y-41201328D02*
G75*
G03*
X121521116Y-41342711I70723J-70672D01*
G01*
X122856008Y-41563450D02*
X122610019Y-41809440D01*
X122026627Y-40356370D02*
G75*
G02*
X122026651Y-40695806I-169727J-169730D01*
G01*
X122431744Y-41139185D02*
G75*
G02*
X122771106Y-41139235I169656J-169715D01*
G01*
X121761493Y-40960913D02*
X121591787Y-41130619D01*
X121337232Y-40536651D02*
X121602363Y-40271517D01*
X122610019Y-41809440D02*
G75*
G03*
X122610063Y-42148804I169681J-169660D01*
G01*
%TO.N,/Left/BATT_MON*%
X105000000Y-27562479D02*
X131562479Y-27562479D01*
X182175000Y-37625000D02*
X185050000Y-40500000D01*
X131562479Y-27562479D02*
X148500000Y-44500000D01*
X148500000Y-44500000D02*
X169000000Y-44500000D01*
X169000000Y-44500000D02*
X175875000Y-37625000D01*
X175875000Y-37625000D02*
X182175000Y-37625000D01*
%TO.N,/Left/MISO*%
X162045149Y-46861679D02*
X148861679Y-46861679D01*
X148861679Y-46861679D02*
X136500000Y-34500000D01*
X136500000Y-34500000D02*
X110686128Y-34500000D01*
X110686128Y-34500000D02*
X108423649Y-36762479D01*
%TO.N,/Left/SCLK*%
X163000000Y-47000000D02*
X163000000Y-46968001D01*
X163000000Y-46968001D02*
X162293678Y-46261679D01*
X162293678Y-46261679D02*
X149261679Y-46261679D01*
X149261679Y-46261679D02*
X137000000Y-34000000D01*
X137000000Y-34000000D02*
X110086128Y-34000000D01*
X110086128Y-34000000D02*
X107323649Y-36762479D01*
%TO.N,/Left/CS_DIS1*%
X136250000Y-35500000D02*
X149820158Y-49070158D01*
%TO.N,/Left/CS_DIS2*%
X137500000Y-43000000D02*
X159472447Y-64972447D01*
%TO.N,/Left/CS_PMW2*%
X138500000Y-43000000D02*
X161545149Y-66045149D01*
%TO.N,/Left/CS_PMW1*%
X139500000Y-43065686D02*
X158295993Y-61861679D01*
%TO.N,/Left/SWD*%
X139750000Y-42250000D02*
X158761680Y-61261679D01*
%TO.N,/Left/CS_DIS1*%
X129500000Y-35500000D02*
X136250000Y-35500000D01*
X149820158Y-49070158D02*
X161518686Y-49070158D01*
%TO.N,/Left/MOSI*%
X160500000Y-50000000D02*
X149750000Y-50000000D01*
X149750000Y-50000000D02*
X135912479Y-36162479D01*
X110123649Y-36162479D02*
X109523649Y-36762479D01*
X135912479Y-36162479D02*
X110123649Y-36162479D01*
%TO.N,/Left/SWC*%
X132500000Y-41500000D02*
X140032843Y-41500000D01*
X140032843Y-41500000D02*
X159394522Y-60861679D01*
X159394522Y-60861679D02*
X168977365Y-60861679D01*
X168977365Y-60861679D02*
X189765686Y-81650000D01*
X189765686Y-81650000D02*
X191700000Y-81650000D01*
%TO.N,/Left/RST*%
X113923649Y-36762479D02*
X114762479Y-36762479D01*
X114762479Y-36762479D02*
X160400000Y-82400000D01*
X160400000Y-82400000D02*
X160400000Y-91500000D01*
%TO.N,/Left/VCC*%
D13*
X130000000Y-32531562D02*
X117391091Y-32531562D01*
%TO.N,/Left/VDD*%
X155952235Y-45647765D02*
X169177235Y-45647765D01*
X169177235Y-45647765D02*
X176600000Y-38225000D01*
%TO.N,/Left/SWD*%
D12*
X134250000Y-42250000D02*
X139750000Y-42250000D01*
X158761680Y-61261679D02*
X168811679Y-61261679D01*
X168811679Y-61261679D02*
X191700000Y-84150000D01*
%TO.N,/Left/CS_PMW1*%
X139500000Y-43000000D02*
X139500000Y-43065686D01*
X158295993Y-61861679D02*
X161545149Y-61861679D01*
%TO.N,/Left/CS_PMW2*%
X161545149Y-66045149D02*
X161545149Y-76861679D01*
%TO.N,/Left/CS_DIS2*%
X159472447Y-64972447D02*
X159472447Y-76408314D01*
X159472447Y-76408314D02*
X159451764Y-76428997D01*
%TO.N,/Left/D-*%
X161600000Y-79500000D02*
X160780585Y-80319415D01*
X160780585Y-80319415D02*
X159680585Y-80319415D01*
X116123649Y-36762479D02*
X159680585Y-80319415D01*
%TO.N,/Right/CS_DIS2*%
X241518686Y-81074486D02*
X239454851Y-83138321D01*
X241518686Y-49070158D02*
X241518686Y-81074486D01*
%TD*%
%TA.AperFunction,Conductor*%
%TO.N,/Left/GND*%
G36*
X134885833Y-21509417D02*
G01*
X135068633Y-21585035D01*
X135203601Y-21640867D01*
X135206100Y-21641934D01*
X136497246Y-22210541D01*
X136789244Y-22339135D01*
X136791795Y-22340294D01*
X138358652Y-23073031D01*
X138361110Y-23074214D01*
X139637273Y-23706537D01*
X139911746Y-23842535D01*
X139912898Y-23843114D01*
X139971060Y-23872756D01*
X139971064Y-23872756D01*
X139984145Y-23879422D01*
X139984146Y-23879423D01*
X140838771Y-24314964D01*
X142708406Y-25225497D01*
X143799092Y-25732423D01*
X144594245Y-26101992D01*
X146495660Y-26944156D01*
X148412029Y-27751716D01*
X150342721Y-28524404D01*
X151855586Y-29098280D01*
X152287112Y-29261972D01*
X154244514Y-29964157D01*
X154244534Y-29964164D01*
X156214373Y-30630762D01*
X158195972Y-31261544D01*
X160188680Y-31856301D01*
X162191842Y-32414838D01*
X164204798Y-32936972D01*
X166226889Y-33422531D01*
X168257450Y-33871356D01*
X170295813Y-34283299D01*
X172027495Y-34600704D01*
X172341323Y-34658227D01*
X174393261Y-34996009D01*
X175346105Y-35135172D01*
X176451005Y-35296543D01*
X178513856Y-35559726D01*
X180581139Y-35785472D01*
X182652174Y-35973708D01*
X184726281Y-36124371D01*
X186802778Y-36237411D01*
X188880984Y-36312792D01*
X190960214Y-36350489D01*
X191924112Y-36350498D01*
X191924120Y-36350500D01*
X191934108Y-36350500D01*
X192000000Y-36350500D01*
X192065892Y-36350500D01*
X195375500Y-36350500D01*
X195442539Y-36370185D01*
X195488294Y-36422989D01*
X195499500Y-36474500D01*
X195499500Y-44065891D01*
X195533608Y-44193187D01*
X195547356Y-44216999D01*
X195599500Y-44307314D01*
X195692686Y-44400500D01*
X195806814Y-44466392D01*
X195934108Y-44500500D01*
X198216240Y-44500500D01*
X198220486Y-44501746D01*
X198224810Y-44500796D01*
X198253719Y-44511505D01*
X198283279Y-44520185D01*
X198287344Y-44523961D01*
X198290329Y-44525067D01*
X198298865Y-44534663D01*
X198315341Y-44549968D01*
X198319861Y-44555979D01*
X198349500Y-44607314D01*
X198385679Y-44643493D01*
X198390925Y-44650468D01*
X198400262Y-44675333D01*
X198412990Y-44698642D01*
X198412354Y-44707532D01*
X198415488Y-44715878D01*
X198409900Y-44741843D01*
X198408006Y-44768334D01*
X198402283Y-44777237D01*
X198400789Y-44784184D01*
X198392411Y-44792599D01*
X198379505Y-44812681D01*
X198349502Y-44842683D01*
X198349500Y-44842686D01*
X198283608Y-44956812D01*
X198249500Y-45084108D01*
X198249500Y-45215891D01*
X198283608Y-45343187D01*
X198310964Y-45390568D01*
X198349500Y-45457314D01*
X198349502Y-45457316D01*
X198379505Y-45487319D01*
X198412990Y-45548642D01*
X198408006Y-45618334D01*
X198379505Y-45662681D01*
X198349502Y-45692683D01*
X198349500Y-45692686D01*
X198283608Y-45806812D01*
X198249500Y-45934108D01*
X198249500Y-46065891D01*
X198283608Y-46193187D01*
X198301531Y-46224230D01*
X198349500Y-46307314D01*
X198349502Y-46307316D01*
X198379505Y-46337319D01*
X198412990Y-46398642D01*
X198408006Y-46468334D01*
X198379505Y-46512681D01*
X198349502Y-46542683D01*
X198349500Y-46542686D01*
X198283608Y-46656812D01*
X198249500Y-46784108D01*
X198249500Y-46915891D01*
X198283608Y-47043187D01*
X198304194Y-47078842D01*
X198349500Y-47157314D01*
X198349502Y-47157316D01*
X198379505Y-47187319D01*
X198412990Y-47248642D01*
X198408006Y-47318334D01*
X198379505Y-47362681D01*
X198349502Y-47392683D01*
X198349500Y-47392686D01*
X198283608Y-47506812D01*
X198259045Y-47598484D01*
X198249500Y-47634108D01*
X198249500Y-47765892D01*
X198250531Y-47769738D01*
X198283608Y-47893187D01*
X198316554Y-47950250D01*
X198349500Y-48007314D01*
X198442686Y-48100500D01*
X198442688Y-48100501D01*
X198449137Y-48105450D01*
X198447324Y-48107812D01*
X198485710Y-48148062D01*
X198499500Y-48204893D01*
X198499500Y-69795107D01*
X198479815Y-69862146D01*
X198447739Y-69892732D01*
X198449135Y-69894552D01*
X198442683Y-69899502D01*
X198349502Y-69992683D01*
X198349500Y-69992686D01*
X198283608Y-70106812D01*
X198249500Y-70234108D01*
X198249500Y-70365891D01*
X198283608Y-70493187D01*
X198287253Y-70499500D01*
X198349500Y-70607314D01*
X198349502Y-70607316D01*
X198379505Y-70637319D01*
X198412990Y-70698642D01*
X198408006Y-70768334D01*
X198379505Y-70812681D01*
X198349502Y-70842683D01*
X198349500Y-70842686D01*
X198283608Y-70956812D01*
X198249500Y-71084108D01*
X198249500Y-71215891D01*
X198283608Y-71343187D01*
X198310964Y-71390568D01*
X198349500Y-71457314D01*
X198349502Y-71457316D01*
X198379505Y-71487319D01*
X198412990Y-71548642D01*
X198408006Y-71618334D01*
X198379505Y-71662681D01*
X198349502Y-71692683D01*
X198349500Y-71692686D01*
X198283608Y-71806812D01*
X198249500Y-71934108D01*
X198249500Y-72065891D01*
X198283608Y-72193187D01*
X198316554Y-72250250D01*
X198349500Y-72307314D01*
X198349502Y-72307316D01*
X198379505Y-72337319D01*
X198412990Y-72398642D01*
X198408006Y-72468334D01*
X198379505Y-72512681D01*
X198349502Y-72542683D01*
X198349500Y-72542686D01*
X198283608Y-72656812D01*
X198249500Y-72784108D01*
X198249500Y-72915891D01*
X198283608Y-73043187D01*
X198316554Y-73100250D01*
X198349500Y-73157314D01*
X198349502Y-73157316D01*
X198379505Y-73187319D01*
X198412990Y-73248642D01*
X198408006Y-73318334D01*
X198379505Y-73362681D01*
X198349502Y-73392683D01*
X198349500Y-73392686D01*
X198283608Y-73506812D01*
X198249500Y-73634108D01*
X198249500Y-73765891D01*
X198283608Y-73893187D01*
X198316554Y-73950250D01*
X198349500Y-74007314D01*
X198442686Y-74100500D01*
X198442688Y-74100501D01*
X198449137Y-74105450D01*
X198447324Y-74107812D01*
X198485710Y-74148062D01*
X198499500Y-74204893D01*
X198499500Y-95795107D01*
X198479815Y-95862146D01*
X198447739Y-95892732D01*
X198449135Y-95894552D01*
X198442683Y-95899502D01*
X198349502Y-95992683D01*
X198349500Y-95992686D01*
X198283608Y-96106812D01*
X198249500Y-96234108D01*
X198249500Y-96365891D01*
X198283608Y-96493187D01*
X198287253Y-96499500D01*
X198349500Y-96607314D01*
X198349502Y-96607316D01*
X198379505Y-96637319D01*
X198412990Y-96698642D01*
X198408006Y-96768334D01*
X198379505Y-96812681D01*
X198349502Y-96842683D01*
X198349500Y-96842686D01*
X198283608Y-96956812D01*
X198249500Y-97084108D01*
X198249500Y-97215892D01*
X198266554Y-97279539D01*
X198283608Y-97343187D01*
X198310964Y-97390568D01*
X198349500Y-97457314D01*
X198349502Y-97457316D01*
X198379505Y-97487319D01*
X198412990Y-97548642D01*
X198408006Y-97618334D01*
X198379505Y-97662681D01*
X198349502Y-97692683D01*
X198349500Y-97692686D01*
X198283608Y-97806812D01*
X198249500Y-97934108D01*
X198249500Y-98065891D01*
X198283608Y-98193187D01*
X198316554Y-98250250D01*
X198349500Y-98307314D01*
X198349502Y-98307316D01*
X198379505Y-98337319D01*
X198412990Y-98398642D01*
X198408006Y-98468334D01*
X198379505Y-98512681D01*
X198349502Y-98542683D01*
X198349500Y-98542686D01*
X198283608Y-98656812D01*
X198249500Y-98784108D01*
X198249500Y-98915891D01*
X198283608Y-99043187D01*
X198316554Y-99100250D01*
X198349500Y-99157314D01*
X198349502Y-99157316D01*
X198379505Y-99187319D01*
X198412990Y-99248642D01*
X198408006Y-99318334D01*
X198379505Y-99362681D01*
X198349502Y-99392683D01*
X198349500Y-99392686D01*
X198283608Y-99506812D01*
X198249500Y-99634108D01*
X198249500Y-99765891D01*
X198283608Y-99893187D01*
X198316554Y-99950250D01*
X198349500Y-100007314D01*
X198442686Y-100100500D01*
X198442688Y-100100501D01*
X198449137Y-100105450D01*
X198447324Y-100107812D01*
X198485710Y-100148062D01*
X198499500Y-100204893D01*
X198499500Y-121795107D01*
X198479815Y-121862146D01*
X198447739Y-121892732D01*
X198449135Y-121894552D01*
X198442683Y-121899502D01*
X198349502Y-121992683D01*
X198349500Y-121992686D01*
X198283608Y-122106812D01*
X198249500Y-122234108D01*
X198249500Y-122365891D01*
X198283608Y-122493187D01*
X198287253Y-122499500D01*
X198349500Y-122607314D01*
X198349502Y-122607316D01*
X198379505Y-122637319D01*
X198412990Y-122698642D01*
X198408006Y-122768334D01*
X198379505Y-122812681D01*
X198349502Y-122842683D01*
X198349500Y-122842686D01*
X198283608Y-122956812D01*
X198249500Y-123084108D01*
X198249500Y-123215891D01*
X198283608Y-123343187D01*
X198310964Y-123390568D01*
X198349500Y-123457314D01*
X198349502Y-123457316D01*
X198379505Y-123487319D01*
X198412990Y-123548642D01*
X198408006Y-123618334D01*
X198379505Y-123662681D01*
X198349502Y-123692683D01*
X198349500Y-123692686D01*
X198283608Y-123806812D01*
X198249500Y-123934108D01*
X198249500Y-124065891D01*
X198283608Y-124193187D01*
X198316554Y-124250250D01*
X198349500Y-124307314D01*
X198349502Y-124307316D01*
X198379505Y-124337319D01*
X198412990Y-124398642D01*
X198408006Y-124468334D01*
X198379505Y-124512681D01*
X198349502Y-124542683D01*
X198349500Y-124542686D01*
X198283608Y-124656812D01*
X198249500Y-124784108D01*
X198249500Y-124915891D01*
X198283608Y-125043187D01*
X198316554Y-125100250D01*
X198349500Y-125157314D01*
X198349502Y-125157316D01*
X198379505Y-125187319D01*
X198412990Y-125248642D01*
X198408006Y-125318334D01*
X198379505Y-125362681D01*
X198349502Y-125392683D01*
X198349500Y-125392686D01*
X198283608Y-125506812D01*
X198249500Y-125634108D01*
X198249500Y-125717130D01*
X198229815Y-125784169D01*
X198177011Y-125829924D01*
X198125500Y-125841130D01*
X195934108Y-125841130D01*
X195806812Y-125875238D01*
X195692686Y-125941130D01*
X195692683Y-125941132D01*
X195599502Y-126034313D01*
X195599500Y-126034316D01*
X195533608Y-126148442D01*
X195499500Y-126275738D01*
X195499500Y-133867130D01*
X195479815Y-133934169D01*
X195427011Y-133979924D01*
X195375500Y-133991130D01*
X192065892Y-133991130D01*
X192000000Y-133991130D01*
X191671719Y-133991130D01*
X191016191Y-134027944D01*
X191016188Y-134027944D01*
X191016176Y-134027945D01*
X190363802Y-134101448D01*
X190363749Y-134101455D01*
X189716476Y-134211429D01*
X189076385Y-134357524D01*
X189076375Y-134357527D01*
X188445463Y-134539288D01*
X187825739Y-134756136D01*
X187219170Y-135007381D01*
X186627665Y-135292232D01*
X186627605Y-135292263D01*
X186052987Y-135609838D01*
X186052972Y-135609847D01*
X185497074Y-135959137D01*
X185497071Y-135959139D01*
X185497063Y-135959144D01*
X185497056Y-135959149D01*
X185366630Y-136051690D01*
X184961595Y-136339073D01*
X184448259Y-136748437D01*
X183958702Y-137185926D01*
X183958699Y-137185929D01*
X183755721Y-137388903D01*
X183755720Y-137388904D01*
X181086052Y-140058525D01*
X181086051Y-140058527D01*
X181042596Y-140101981D01*
X181036118Y-140108013D01*
X180884470Y-140239414D01*
X180870307Y-140250016D01*
X180705245Y-140356094D01*
X180689716Y-140364573D01*
X180511238Y-140446079D01*
X180494662Y-140452261D01*
X180306407Y-140507536D01*
X180289119Y-140511297D01*
X180094904Y-140539220D01*
X180077258Y-140540482D01*
X179881052Y-140540482D01*
X179863406Y-140539220D01*
X179669191Y-140511295D01*
X179651908Y-140507536D01*
X179530435Y-140471868D01*
X179463645Y-140452256D01*
X179447070Y-140446074D01*
X179268582Y-140364561D01*
X179253069Y-140356090D01*
X179088004Y-140250008D01*
X179073842Y-140239407D01*
X178922195Y-140108004D01*
X178915717Y-140101972D01*
X178872262Y-140058517D01*
X169821319Y-131007573D01*
X169198940Y-130385194D01*
X169198915Y-130385169D01*
X167835227Y-129073372D01*
X167835198Y-129073344D01*
X166446380Y-127788284D01*
X165383194Y-126842130D01*
X165032831Y-126530333D01*
X163595176Y-125300047D01*
X162133935Y-124097871D01*
X160649657Y-122924256D01*
X159142899Y-121779643D01*
X157614230Y-120664464D01*
X157440008Y-120542473D01*
X156064197Y-119579119D01*
X154983887Y-118853486D01*
X154493462Y-118524072D01*
X152902536Y-117499664D01*
X151292061Y-116506307D01*
X149662593Y-115544349D01*
X148014796Y-114614178D01*
X146349297Y-113716148D01*
X144666636Y-112850552D01*
X143671964Y-112363029D01*
X142967552Y-112017772D01*
X141252629Y-111218090D01*
X141252627Y-111218089D01*
X139522544Y-110451823D01*
X139522535Y-110451819D01*
X139522521Y-110451813D01*
X137777879Y-109719229D01*
X136019359Y-109020614D01*
X136019352Y-109020611D01*
X136019341Y-109020607D01*
X134247658Y-108356243D01*
X134247652Y-108356240D01*
X134247623Y-108356230D01*
X132463336Y-107726328D01*
X132463333Y-107726327D01*
X132463316Y-107726321D01*
X131086344Y-107270042D01*
X130667171Y-107131143D01*
X128859802Y-106570901D01*
X128684304Y-106520209D01*
X127041923Y-106045814D01*
X126415207Y-105877886D01*
X126191689Y-105817995D01*
X126191688Y-105817994D01*
X126128042Y-105800941D01*
X125332034Y-105587650D01*
X123894800Y-105202542D01*
X123894759Y-105202531D01*
X123894728Y-105202523D01*
X120960598Y-104437255D01*
X119420436Y-104035556D01*
X118073222Y-103693757D01*
X114938441Y-102898438D01*
X110448799Y-101791187D01*
X105952085Y-100713943D01*
X101448079Y-99666654D01*
X96937509Y-98649489D01*
X96937500Y-98649487D01*
X96937389Y-98649462D01*
X92419934Y-97662346D01*
X92419879Y-97662334D01*
X92419827Y-97662323D01*
X87896066Y-96705383D01*
X87896041Y-96705377D01*
X87895999Y-96705369D01*
X86236614Y-96365891D01*
X83365798Y-95778577D01*
X81097882Y-95330341D01*
X81097250Y-95330214D01*
X78272983Y-94756737D01*
X78271720Y-94756474D01*
X75453794Y-94153698D01*
X75452534Y-94153422D01*
X72640941Y-93521346D01*
X72639684Y-93521056D01*
X69834976Y-92859808D01*
X69833723Y-92859506D01*
X67035908Y-92169085D01*
X67034657Y-92168769D01*
X64244311Y-91449318D01*
X64243064Y-91448990D01*
X61460197Y-90700513D01*
X61458953Y-90700171D01*
X58688122Y-89923935D01*
X58679036Y-89921008D01*
X58489809Y-89851904D01*
X58473577Y-89844618D01*
X58299824Y-89751101D01*
X58284802Y-89741566D01*
X58126227Y-89624149D01*
X58112725Y-89612563D01*
X57972586Y-89473661D01*
X57960881Y-89460262D01*
X57842063Y-89302735D01*
X57832396Y-89287799D01*
X57737345Y-89114887D01*
X57729915Y-89098721D01*
X57660588Y-88913987D01*
X57655548Y-88896923D01*
X57613373Y-88704168D01*
X57610827Y-88686560D01*
X57596352Y-88485310D01*
X57596032Y-88476414D01*
X57596032Y-32708574D01*
X57596295Y-32700500D01*
X57608219Y-32517753D01*
X57610317Y-32501743D01*
X57645102Y-32326056D01*
X57649258Y-32310475D01*
X57706580Y-32140792D01*
X57712726Y-32125880D01*
X57791612Y-31965083D01*
X57799642Y-31951099D01*
X57898752Y-31801918D01*
X57908537Y-31789089D01*
X58026193Y-31654053D01*
X58037547Y-31642618D01*
X58174286Y-31521775D01*
X58181584Y-31515807D01*
X59558804Y-30474683D01*
X59560968Y-30473084D01*
X60964148Y-29461339D01*
X60966374Y-29459772D01*
X62391984Y-28480041D01*
X62394243Y-28478526D01*
X63841667Y-27531235D01*
X63843943Y-27529781D01*
X63918060Y-27483632D01*
X104199500Y-27483632D01*
X104199500Y-27641325D01*
X104230261Y-27795968D01*
X104230264Y-27795980D01*
X104290602Y-27941651D01*
X104290609Y-27941664D01*
X104378210Y-28072767D01*
X104378213Y-28072771D01*
X104489707Y-28184265D01*
X104489711Y-28184268D01*
X104620814Y-28271869D01*
X104620827Y-28271876D01*
X104766498Y-28332214D01*
X104766503Y-28332216D01*
X104921153Y-28362978D01*
X104921156Y-28362979D01*
X104921158Y-28362979D01*
X105078844Y-28362979D01*
X105078845Y-28362978D01*
X105233497Y-28332216D01*
X105379179Y-28271873D01*
X105379185Y-28271869D01*
X105510875Y-28183877D01*
X105577553Y-28162999D01*
X105579766Y-28162979D01*
X131262382Y-28162979D01*
X131329421Y-28182664D01*
X131350063Y-28199298D01*
X136338584Y-33187819D01*
X136372069Y-33249142D01*
X136367085Y-33318834D01*
X136325213Y-33374767D01*
X136259749Y-33399184D01*
X136250903Y-33399500D01*
X130550675Y-33399500D01*
X130483636Y-33379815D01*
X130437881Y-33327011D01*
X130427937Y-33257853D01*
X130456962Y-33194297D01*
X130481784Y-33172398D01*
X130494607Y-33163828D01*
X130510289Y-33153351D01*
X130621789Y-33041851D01*
X130709394Y-32910741D01*
X130769737Y-32765059D01*
X130800500Y-32610404D01*
X130800500Y-32452720D01*
X130800500Y-32452717D01*
X130800499Y-32452715D01*
X130773728Y-32318131D01*
X130769737Y-32298065D01*
X130761527Y-32278243D01*
X130709397Y-32152389D01*
X130709390Y-32152376D01*
X130621789Y-32021273D01*
X130621786Y-32021269D01*
X130510292Y-31909775D01*
X130510288Y-31909772D01*
X130379185Y-31822171D01*
X130379172Y-31822164D01*
X130233501Y-31761826D01*
X130233489Y-31761823D01*
X130078845Y-31731062D01*
X130078842Y-31731062D01*
X129921158Y-31731062D01*
X129921155Y-31731062D01*
X129766510Y-31761823D01*
X129766498Y-31761826D01*
X129620827Y-31822164D01*
X129620820Y-31822168D01*
X129591928Y-31841473D01*
X129563955Y-31860164D01*
X129497279Y-31881042D01*
X129495065Y-31881062D01*
X117896026Y-31881062D01*
X117828987Y-31861377D01*
X117827181Y-31860195D01*
X117770270Y-31822168D01*
X117770263Y-31822164D01*
X117624592Y-31761826D01*
X117624580Y-31761823D01*
X117469936Y-31731062D01*
X117469933Y-31731062D01*
X117312249Y-31731062D01*
X117312246Y-31731062D01*
X117157601Y-31761823D01*
X117157589Y-31761826D01*
X117011918Y-31822164D01*
X117011905Y-31822171D01*
X116880802Y-31909772D01*
X116880798Y-31909775D01*
X116769304Y-32021269D01*
X116769301Y-32021273D01*
X116681700Y-32152376D01*
X116681693Y-32152389D01*
X116621355Y-32298060D01*
X116621352Y-32298072D01*
X116590591Y-32452715D01*
X116590591Y-32610408D01*
X116621352Y-32765051D01*
X116621355Y-32765063D01*
X116681693Y-32910734D01*
X116681700Y-32910747D01*
X116769301Y-33041850D01*
X116769304Y-33041854D01*
X116880798Y-33153348D01*
X116880802Y-33153351D01*
X116909307Y-33172398D01*
X116954112Y-33226011D01*
X116962819Y-33295336D01*
X116932664Y-33358363D01*
X116873221Y-33395082D01*
X116840416Y-33399500D01*
X110165185Y-33399500D01*
X110007070Y-33399500D01*
X109854343Y-33440423D01*
X109854342Y-33440423D01*
X109854340Y-33440424D01*
X109854337Y-33440425D01*
X109804224Y-33469359D01*
X109804223Y-33469360D01*
X109775097Y-33486176D01*
X109717413Y-33519479D01*
X109717410Y-33519481D01*
X107308988Y-35927904D01*
X107247665Y-35961389D01*
X107245499Y-35961840D01*
X107090157Y-35992740D01*
X107090147Y-35992743D01*
X106944476Y-36053081D01*
X106944463Y-36053088D01*
X106813360Y-36140689D01*
X106813356Y-36140692D01*
X106701862Y-36252186D01*
X106701859Y-36252190D01*
X106614258Y-36383293D01*
X106614251Y-36383306D01*
X106553913Y-36528977D01*
X106553910Y-36528989D01*
X106523149Y-36683632D01*
X106523149Y-36841325D01*
X106553910Y-36995968D01*
X106553913Y-36995980D01*
X106614251Y-37141651D01*
X106614258Y-37141664D01*
X106701859Y-37272767D01*
X106701862Y-37272771D01*
X106813356Y-37384265D01*
X106813360Y-37384268D01*
X106944463Y-37471869D01*
X106944476Y-37471876D01*
X107090147Y-37532214D01*
X107090152Y-37532216D01*
X107244802Y-37562978D01*
X107244805Y-37562979D01*
X107244807Y-37562979D01*
X107402493Y-37562979D01*
X107402494Y-37562978D01*
X107557146Y-37532216D01*
X107702828Y-37471873D01*
X107804760Y-37403763D01*
X107871435Y-37382887D01*
X107938815Y-37401371D01*
X107942496Y-37403736D01*
X108044470Y-37471873D01*
X108044472Y-37471874D01*
X108044476Y-37471876D01*
X108190147Y-37532214D01*
X108190152Y-37532216D01*
X108344802Y-37562978D01*
X108344805Y-37562979D01*
X108344807Y-37562979D01*
X108502493Y-37562979D01*
X108502494Y-37562978D01*
X108657146Y-37532216D01*
X108802828Y-37471873D01*
X108904760Y-37403763D01*
X108971435Y-37382887D01*
X109038815Y-37401371D01*
X109042496Y-37403736D01*
X109144470Y-37471873D01*
X109144472Y-37471874D01*
X109144476Y-37471876D01*
X109290147Y-37532214D01*
X109290152Y-37532216D01*
X109444802Y-37562978D01*
X109444805Y-37562979D01*
X109444807Y-37562979D01*
X109602493Y-37562979D01*
X109602494Y-37562978D01*
X109757146Y-37532216D01*
X109902828Y-37471873D01*
X110033938Y-37384268D01*
X110145438Y-37272768D01*
X110233043Y-37141658D01*
X110293386Y-36995976D01*
X110298154Y-36972003D01*
X110319880Y-36862787D01*
X110352265Y-36800876D01*
X110412981Y-36766302D01*
X110441497Y-36762979D01*
X113005801Y-36762979D01*
X113072840Y-36782664D01*
X113118595Y-36835468D01*
X113127418Y-36862787D01*
X113153910Y-36995970D01*
X113153913Y-36995980D01*
X113214251Y-37141651D01*
X113214258Y-37141664D01*
X113301859Y-37272767D01*
X113301862Y-37272771D01*
X113413356Y-37384265D01*
X113413360Y-37384268D01*
X113544463Y-37471869D01*
X113544476Y-37471876D01*
X113690147Y-37532214D01*
X113690152Y-37532216D01*
X113844802Y-37562978D01*
X113844805Y-37562979D01*
X113844807Y-37562979D01*
X114002493Y-37562979D01*
X114002494Y-37562978D01*
X114157146Y-37532216D01*
X114302828Y-37471873D01*
X114409926Y-37400311D01*
X114476603Y-37379434D01*
X114543983Y-37397918D01*
X114566498Y-37415733D01*
X159763181Y-82612416D01*
X159796666Y-82673739D01*
X159799500Y-82700097D01*
X159799500Y-90920234D01*
X159779815Y-90987273D01*
X159778602Y-90989125D01*
X159690609Y-91120814D01*
X159690602Y-91120827D01*
X159630264Y-91266498D01*
X159630261Y-91266510D01*
X159599500Y-91421153D01*
X159599500Y-91578846D01*
X159630261Y-91733489D01*
X159630264Y-91733501D01*
X159690602Y-91879172D01*
X159690609Y-91879185D01*
X159778210Y-92010288D01*
X159778213Y-92010292D01*
X159889707Y-92121786D01*
X159889711Y-92121789D01*
X160020814Y-92209390D01*
X160020827Y-92209397D01*
X160166498Y-92269735D01*
X160166503Y-92269737D01*
X160321153Y-92300499D01*
X160321156Y-92300500D01*
X160321158Y-92300500D01*
X160478844Y-92300500D01*
X160478845Y-92300499D01*
X160633497Y-92269737D01*
X160779179Y-92209394D01*
X160910289Y-92121789D01*
X161021789Y-92010289D01*
X161109394Y-91879179D01*
X161169737Y-91733497D01*
X161200500Y-91578842D01*
X161200500Y-91421158D01*
X161200500Y-91421155D01*
X161200499Y-91421153D01*
X161169738Y-91266510D01*
X161169737Y-91266503D01*
X161169735Y-91266498D01*
X161109397Y-91120827D01*
X161109390Y-91120814D01*
X161021398Y-90989125D01*
X161000520Y-90922447D01*
X161000500Y-90920234D01*
X161000500Y-82320945D01*
X161000500Y-82320943D01*
X160970660Y-82209577D01*
X160959577Y-82168215D01*
X160930639Y-82118095D01*
X160880520Y-82031284D01*
X160768716Y-81919480D01*
X160768715Y-81919479D01*
X160764385Y-81915149D01*
X160764374Y-81915139D01*
X159980831Y-81131596D01*
X159947346Y-81070273D01*
X159952330Y-81000581D01*
X159994202Y-80944648D01*
X160059666Y-80920231D01*
X160068512Y-80919915D01*
X160693916Y-80919915D01*
X160693932Y-80919916D01*
X160701528Y-80919916D01*
X160859639Y-80919916D01*
X160859642Y-80919916D01*
X161012370Y-80878992D01*
X161063451Y-80849500D01*
X161149301Y-80799935D01*
X161261105Y-80688131D01*
X161261105Y-80688129D01*
X161271309Y-80677926D01*
X161271312Y-80677921D01*
X161614662Y-80334572D01*
X161675983Y-80301089D01*
X161678150Y-80300638D01*
X161736085Y-80289113D01*
X161833497Y-80269737D01*
X161979179Y-80209394D01*
X162110289Y-80121789D01*
X162221789Y-80010289D01*
X162309394Y-79879179D01*
X162369737Y-79733497D01*
X162400500Y-79578842D01*
X162400500Y-79421158D01*
X162400500Y-79421155D01*
X162400499Y-79421153D01*
X162369738Y-79266510D01*
X162369737Y-79266503D01*
X162369735Y-79266498D01*
X162309397Y-79120827D01*
X162309390Y-79120814D01*
X162221789Y-78989711D01*
X162221786Y-78989707D01*
X162110292Y-78878213D01*
X162110288Y-78878210D01*
X161979185Y-78790609D01*
X161979172Y-78790602D01*
X161833501Y-78730264D01*
X161833489Y-78730261D01*
X161678845Y-78699500D01*
X161678842Y-78699500D01*
X161521158Y-78699500D01*
X161521155Y-78699500D01*
X161366510Y-78730261D01*
X161366498Y-78730264D01*
X161220827Y-78790602D01*
X161220814Y-78790609D01*
X161089711Y-78878210D01*
X161089707Y-78878213D01*
X161087681Y-78880240D01*
X161086357Y-78880962D01*
X161085001Y-78882076D01*
X161084789Y-78881818D01*
X161026358Y-78913725D01*
X160956666Y-78908741D01*
X160915060Y-78882001D01*
X160914999Y-78882076D01*
X160914360Y-78881552D01*
X160912319Y-78880240D01*
X160910292Y-78878213D01*
X160910288Y-78878210D01*
X160779185Y-78790609D01*
X160779172Y-78790602D01*
X160633501Y-78730264D01*
X160633489Y-78730261D01*
X160478845Y-78699500D01*
X160478842Y-78699500D01*
X160321158Y-78699500D01*
X160321155Y-78699500D01*
X160166511Y-78730260D01*
X160166507Y-78730262D01*
X160166506Y-78730262D01*
X160166503Y-78730263D01*
X160154065Y-78735415D01*
X160084595Y-78742880D01*
X160022117Y-78711601D01*
X160018937Y-78708532D01*
X123371375Y-42060970D01*
X123337890Y-41999647D01*
X123342874Y-41929955D01*
X123355949Y-41904407D01*
X123431142Y-41791876D01*
X123494503Y-41638912D01*
X123526804Y-41476527D01*
X123526804Y-41310961D01*
X123526804Y-41310958D01*
X123494504Y-41148581D01*
X123494503Y-41148580D01*
X123494503Y-41148576D01*
X123431142Y-40995612D01*
X123431138Y-40995606D01*
X123431136Y-40995602D01*
X123339160Y-40857954D01*
X123339159Y-40857953D01*
X123339157Y-40857950D01*
X123280619Y-40799414D01*
X123280618Y-40799413D01*
X123280618Y-40799412D01*
X123280617Y-40799412D01*
X123139872Y-40658667D01*
X123137235Y-40656030D01*
X123137234Y-40656029D01*
X123137232Y-40656027D01*
X122999584Y-40564055D01*
X122999567Y-40564045D01*
X122846615Y-40500692D01*
X122846606Y-40500689D01*
X122784424Y-40488321D01*
X122722513Y-40455936D01*
X122687939Y-40395220D01*
X122687011Y-40390960D01*
X122665122Y-40280912D01*
X122641716Y-40224405D01*
X122601765Y-40127952D01*
X122601763Y-40127949D01*
X122509785Y-39990294D01*
X122509784Y-39990292D01*
X122509199Y-39989707D01*
X122451247Y-39931755D01*
X122399689Y-39880197D01*
X122310491Y-39790999D01*
X122307854Y-39788362D01*
X122307853Y-39788361D01*
X122307851Y-39788359D01*
X122170203Y-39696387D01*
X122170186Y-39696377D01*
X122017234Y-39633024D01*
X122017226Y-39633022D01*
X121854854Y-39600723D01*
X121689286Y-39600723D01*
X121526913Y-39633020D01*
X121526897Y-39633025D01*
X121373955Y-39696375D01*
X121373939Y-39696384D01*
X121238459Y-39786906D01*
X121171781Y-39807783D01*
X121104401Y-39789297D01*
X121081889Y-39771484D01*
X118285065Y-36974660D01*
X118251580Y-36913337D01*
X118256564Y-36843645D01*
X118298436Y-36787712D01*
X118363900Y-36763295D01*
X118372746Y-36762979D01*
X135612382Y-36762979D01*
X135679421Y-36782664D01*
X135700063Y-36799298D01*
X139588584Y-40687819D01*
X139622069Y-40749142D01*
X139617085Y-40818834D01*
X139575213Y-40874767D01*
X139509749Y-40899184D01*
X139500903Y-40899500D01*
X133079766Y-40899500D01*
X133012727Y-40879815D01*
X133010875Y-40878602D01*
X132879185Y-40790609D01*
X132879172Y-40790602D01*
X132733501Y-40730264D01*
X132733489Y-40730261D01*
X132578845Y-40699500D01*
X132578842Y-40699500D01*
X132421158Y-40699500D01*
X132421155Y-40699500D01*
X132266510Y-40730261D01*
X132266498Y-40730264D01*
X132120827Y-40790602D01*
X132120814Y-40790609D01*
X131989711Y-40878210D01*
X131989707Y-40878213D01*
X131878213Y-40989707D01*
X131878210Y-40989711D01*
X131790609Y-41120814D01*
X131790602Y-41120827D01*
X131730264Y-41266498D01*
X131730261Y-41266510D01*
X131699500Y-41421153D01*
X131699500Y-41578846D01*
X131730261Y-41733489D01*
X131730264Y-41733501D01*
X131790602Y-41879172D01*
X131790609Y-41879185D01*
X131878210Y-42010288D01*
X131878213Y-42010292D01*
X131989707Y-42121786D01*
X131989711Y-42121789D01*
X132120814Y-42209390D01*
X132120827Y-42209397D01*
X132266498Y-42269735D01*
X132266503Y-42269737D01*
X132421153Y-42300499D01*
X132421156Y-42300500D01*
X132421158Y-42300500D01*
X132578844Y-42300500D01*
X132578845Y-42300499D01*
X132733497Y-42269737D01*
X132879179Y-42209394D01*
X132933663Y-42172989D01*
X133010875Y-42121398D01*
X133028921Y-42115747D01*
X133044831Y-42105523D01*
X133075792Y-42101071D01*
X133077553Y-42100520D01*
X133079766Y-42100500D01*
X133325500Y-42100500D01*
X133392539Y-42120185D01*
X133438294Y-42172989D01*
X133449500Y-42224500D01*
X133449500Y-42328846D01*
X133480261Y-42483489D01*
X133480264Y-42483501D01*
X133540602Y-42629172D01*
X133540609Y-42629185D01*
X133628210Y-42760288D01*
X133628213Y-42760292D01*
X133739707Y-42871786D01*
X133739711Y-42871789D01*
X133870814Y-42959390D01*
X133870827Y-42959397D01*
X134016498Y-43019735D01*
X134016503Y-43019737D01*
X134171153Y-43050499D01*
X134171156Y-43050500D01*
X134171158Y-43050500D01*
X134328844Y-43050500D01*
X134328845Y-43050499D01*
X134483497Y-43019737D01*
X134629179Y-42959394D01*
X134683663Y-42922989D01*
X134760875Y-42871398D01*
X134827553Y-42850520D01*
X134829766Y-42850500D01*
X136575500Y-42850500D01*
X136642539Y-42870185D01*
X136688294Y-42922989D01*
X136699500Y-42974500D01*
X136699500Y-43078846D01*
X136730261Y-43233489D01*
X136730264Y-43233501D01*
X136790602Y-43379172D01*
X136790609Y-43379185D01*
X136878210Y-43510288D01*
X136878213Y-43510292D01*
X136989707Y-43621786D01*
X136989711Y-43621789D01*
X137120814Y-43709390D01*
X137120827Y-43709397D01*
X137266498Y-43769735D01*
X137266503Y-43769737D01*
X137331147Y-43782595D01*
X137421849Y-43800638D01*
X137483760Y-43833023D01*
X137485339Y-43834574D01*
X158835628Y-65184863D01*
X158869113Y-65246186D01*
X158871947Y-65272544D01*
X158871947Y-75825373D01*
X158852262Y-75892412D01*
X158835628Y-75913054D01*
X158829977Y-75918704D01*
X158829974Y-75918708D01*
X158742373Y-76049811D01*
X158742366Y-76049824D01*
X158682028Y-76195495D01*
X158682025Y-76195507D01*
X158651264Y-76350150D01*
X158651264Y-76507843D01*
X158682025Y-76662486D01*
X158682028Y-76662498D01*
X158742366Y-76808169D01*
X158742373Y-76808182D01*
X158829974Y-76939285D01*
X158829977Y-76939289D01*
X158941471Y-77050783D01*
X158941475Y-77050786D01*
X159072578Y-77138387D01*
X159072591Y-77138394D01*
X159218262Y-77198732D01*
X159218267Y-77198734D01*
X159372917Y-77229496D01*
X159372920Y-77229497D01*
X159372922Y-77229497D01*
X159530608Y-77229497D01*
X159530609Y-77229496D01*
X159685261Y-77198734D01*
X159830943Y-77138391D01*
X159962053Y-77050786D01*
X160073553Y-76939286D01*
X160161158Y-76808176D01*
X160221501Y-76662494D01*
X160252264Y-76507839D01*
X160252264Y-76350155D01*
X160252264Y-76350152D01*
X160252263Y-76350150D01*
X160221502Y-76195507D01*
X160221501Y-76195500D01*
X160221499Y-76195495D01*
X160161161Y-76049824D01*
X160161154Y-76049811D01*
X160093845Y-75949076D01*
X160072967Y-75882398D01*
X160072947Y-75880185D01*
X160072947Y-65721544D01*
X160092632Y-65654505D01*
X160145436Y-65608750D01*
X160214594Y-65598806D01*
X160278150Y-65627831D01*
X160284628Y-65633863D01*
X160908330Y-66257565D01*
X160941815Y-66318888D01*
X160944649Y-66345246D01*
X160944649Y-76281913D01*
X160924964Y-76348952D01*
X160923751Y-76350804D01*
X160835758Y-76482493D01*
X160835751Y-76482506D01*
X160775413Y-76628177D01*
X160775410Y-76628189D01*
X160744649Y-76782832D01*
X160744649Y-76940525D01*
X160775410Y-77095168D01*
X160775413Y-77095180D01*
X160835751Y-77240851D01*
X160835758Y-77240864D01*
X160923359Y-77371967D01*
X160923362Y-77371971D01*
X161034856Y-77483465D01*
X161034860Y-77483468D01*
X161165963Y-77571069D01*
X161165976Y-77571076D01*
X161311647Y-77631414D01*
X161311652Y-77631416D01*
X161466302Y-77662178D01*
X161466305Y-77662179D01*
X161466307Y-77662179D01*
X161623993Y-77662179D01*
X161623994Y-77662178D01*
X161778646Y-77631416D01*
X161924328Y-77571073D01*
X162055438Y-77483468D01*
X162166938Y-77371968D01*
X162254543Y-77240858D01*
X162314886Y-77095176D01*
X162345649Y-76940521D01*
X162345649Y-76782837D01*
X162345649Y-76782834D01*
X162345648Y-76782832D01*
X162321711Y-76662494D01*
X162314886Y-76628182D01*
X162314884Y-76628177D01*
X162254546Y-76482506D01*
X162254539Y-76482493D01*
X162166547Y-76350804D01*
X162145669Y-76284126D01*
X162145649Y-76281913D01*
X162145649Y-65966094D01*
X162145649Y-65966092D01*
X162104726Y-65813365D01*
X162104726Y-65813364D01*
X162104726Y-65813363D01*
X162075788Y-65763244D01*
X162075786Y-65763241D01*
X162051713Y-65721544D01*
X162025669Y-65676433D01*
X161913865Y-65564629D01*
X161913864Y-65564628D01*
X161909534Y-65560298D01*
X161909523Y-65560288D01*
X159023095Y-62673860D01*
X158989610Y-62612537D01*
X158994594Y-62542845D01*
X159036466Y-62486912D01*
X159101930Y-62462495D01*
X159110776Y-62462179D01*
X160965383Y-62462179D01*
X161032422Y-62481864D01*
X161034274Y-62483077D01*
X161165963Y-62571069D01*
X161165976Y-62571076D01*
X161311647Y-62631414D01*
X161311652Y-62631416D01*
X161466302Y-62662178D01*
X161466305Y-62662179D01*
X161466307Y-62662179D01*
X161623993Y-62662179D01*
X161623994Y-62662178D01*
X161778646Y-62631416D01*
X161924328Y-62571073D01*
X162055438Y-62483468D01*
X162166938Y-62371968D01*
X162254543Y-62240858D01*
X162314886Y-62095176D01*
X162319654Y-62071203D01*
X162341380Y-61961987D01*
X162373765Y-61900076D01*
X162434481Y-61865502D01*
X162462997Y-61862179D01*
X168511582Y-61862179D01*
X168578621Y-61881864D01*
X168599263Y-61898498D01*
X190865425Y-84164660D01*
X190898910Y-84225983D01*
X190899361Y-84228149D01*
X190930261Y-84383491D01*
X190930264Y-84383501D01*
X190990602Y-84529172D01*
X190990609Y-84529185D01*
X191078210Y-84660288D01*
X191078213Y-84660292D01*
X191189707Y-84771786D01*
X191189711Y-84771789D01*
X191320814Y-84859390D01*
X191320827Y-84859397D01*
X191466498Y-84919735D01*
X191466503Y-84919737D01*
X191621153Y-84950499D01*
X191621156Y-84950500D01*
X191621158Y-84950500D01*
X191778844Y-84950500D01*
X191778845Y-84950499D01*
X191933497Y-84919737D01*
X192079179Y-84859394D01*
X192210289Y-84771789D01*
X192321789Y-84660289D01*
X192409394Y-84529179D01*
X192469737Y-84383497D01*
X192500500Y-84228842D01*
X192500500Y-84071158D01*
X192500500Y-84071155D01*
X192500499Y-84071153D01*
X192469738Y-83916510D01*
X192469737Y-83916503D01*
X192469735Y-83916498D01*
X192409397Y-83770827D01*
X192409390Y-83770814D01*
X192321789Y-83639711D01*
X192321786Y-83639707D01*
X192210292Y-83528213D01*
X192210288Y-83528210D01*
X192079185Y-83440609D01*
X192079172Y-83440602D01*
X191933501Y-83380264D01*
X191933491Y-83380261D01*
X191778149Y-83349361D01*
X191716238Y-83316976D01*
X191714660Y-83315425D01*
X190861416Y-82462181D01*
X190850803Y-82442744D01*
X190836303Y-82426011D01*
X190834386Y-82412679D01*
X190827931Y-82400858D01*
X190829510Y-82378771D01*
X190826359Y-82356853D01*
X190831954Y-82344601D01*
X190832915Y-82331166D01*
X190846185Y-82313439D01*
X190855384Y-82293297D01*
X190866715Y-82286014D01*
X190874787Y-82275233D01*
X190895532Y-82267495D01*
X190914162Y-82255523D01*
X190936080Y-82252371D01*
X190940251Y-82250816D01*
X190949097Y-82250500D01*
X191120234Y-82250500D01*
X191187273Y-82270185D01*
X191189125Y-82271398D01*
X191320814Y-82359390D01*
X191320827Y-82359397D01*
X191449463Y-82412679D01*
X191466503Y-82419737D01*
X191621153Y-82450499D01*
X191621156Y-82450500D01*
X191621158Y-82450500D01*
X191778844Y-82450500D01*
X191778845Y-82450499D01*
X191933497Y-82419737D01*
X192079179Y-82359394D01*
X192210289Y-82271789D01*
X192321789Y-82160289D01*
X192409394Y-82029179D01*
X192469737Y-81883497D01*
X192500500Y-81728842D01*
X192500500Y-81571158D01*
X192500500Y-81571155D01*
X192500499Y-81571153D01*
X192469738Y-81416510D01*
X192469737Y-81416503D01*
X192469735Y-81416498D01*
X192409397Y-81270827D01*
X192409390Y-81270814D01*
X192321789Y-81139711D01*
X192321786Y-81139707D01*
X192210292Y-81028213D01*
X192210288Y-81028210D01*
X192079185Y-80940609D01*
X192079172Y-80940602D01*
X191933501Y-80880264D01*
X191933489Y-80880261D01*
X191778845Y-80849500D01*
X191778842Y-80849500D01*
X191621158Y-80849500D01*
X191621155Y-80849500D01*
X191466510Y-80880261D01*
X191466498Y-80880264D01*
X191320827Y-80940602D01*
X191320814Y-80940609D01*
X191189125Y-81028602D01*
X191122447Y-81049480D01*
X191120234Y-81049500D01*
X190065783Y-81049500D01*
X189998744Y-81029815D01*
X189978102Y-81013181D01*
X169464955Y-60500034D01*
X169464953Y-60500031D01*
X169346082Y-60381160D01*
X169346081Y-60381159D01*
X169259269Y-60331039D01*
X169259269Y-60331038D01*
X169259265Y-60331037D01*
X169209150Y-60302102D01*
X169056422Y-60261178D01*
X168898308Y-60261178D01*
X168890712Y-60261178D01*
X168890696Y-60261179D01*
X159694619Y-60261179D01*
X159627580Y-60241494D01*
X159606938Y-60224860D01*
X150194259Y-50812181D01*
X150160774Y-50750858D01*
X150165758Y-50681166D01*
X150207630Y-50625233D01*
X150273094Y-50600816D01*
X150281940Y-50600500D01*
X159920234Y-50600500D01*
X159987273Y-50620185D01*
X159989125Y-50621398D01*
X160120814Y-50709390D01*
X160120827Y-50709397D01*
X160266498Y-50769735D01*
X160266503Y-50769737D01*
X160421153Y-50800499D01*
X160421156Y-50800500D01*
X160421158Y-50800500D01*
X160578844Y-50800500D01*
X160578845Y-50800499D01*
X160733497Y-50769737D01*
X160879179Y-50709394D01*
X161010289Y-50621789D01*
X161121789Y-50510289D01*
X161209394Y-50379179D01*
X161269737Y-50233497D01*
X161300500Y-50078842D01*
X161300500Y-49993746D01*
X161320185Y-49926707D01*
X161372989Y-49880952D01*
X161433752Y-49870829D01*
X161433752Y-49870658D01*
X161434779Y-49870658D01*
X161436664Y-49870344D01*
X161439839Y-49870657D01*
X161439844Y-49870658D01*
X161439849Y-49870658D01*
X161597530Y-49870658D01*
X161597531Y-49870657D01*
X161752183Y-49839895D01*
X161897865Y-49779552D01*
X162028975Y-49691947D01*
X162140475Y-49580447D01*
X162228080Y-49449337D01*
X162288423Y-49303655D01*
X162319186Y-49149000D01*
X162319186Y-48991316D01*
X162319186Y-48991313D01*
X162319185Y-48991311D01*
X162288424Y-48836668D01*
X162288423Y-48836661D01*
X162288421Y-48836656D01*
X162228083Y-48690985D01*
X162228076Y-48690972D01*
X162140475Y-48559869D01*
X162140472Y-48559865D01*
X162028978Y-48448371D01*
X162028974Y-48448368D01*
X161897871Y-48360767D01*
X161897858Y-48360760D01*
X161752187Y-48300422D01*
X161752175Y-48300419D01*
X161597531Y-48269658D01*
X161597528Y-48269658D01*
X161439844Y-48269658D01*
X161439841Y-48269658D01*
X161285196Y-48300419D01*
X161285184Y-48300422D01*
X161139513Y-48360760D01*
X161139500Y-48360767D01*
X161007811Y-48448760D01*
X160941133Y-48469638D01*
X160938920Y-48469658D01*
X150120255Y-48469658D01*
X150053216Y-48449973D01*
X150032574Y-48433339D01*
X149273095Y-47673860D01*
X149239610Y-47612537D01*
X149244594Y-47542845D01*
X149286466Y-47486912D01*
X149351930Y-47462495D01*
X149360776Y-47462179D01*
X161465383Y-47462179D01*
X161532422Y-47481864D01*
X161534274Y-47483077D01*
X161665963Y-47571069D01*
X161665976Y-47571076D01*
X161779079Y-47617924D01*
X161811652Y-47631416D01*
X161966302Y-47662178D01*
X161966305Y-47662179D01*
X161966307Y-47662179D01*
X162123993Y-47662179D01*
X162123994Y-47662178D01*
X162278646Y-47631416D01*
X162327762Y-47611071D01*
X162358152Y-47598484D01*
X162427621Y-47591015D01*
X162483946Y-47619209D01*
X162485001Y-47617924D01*
X162489711Y-47621789D01*
X162620814Y-47709390D01*
X162620827Y-47709397D01*
X162757218Y-47765891D01*
X162766503Y-47769737D01*
X162921153Y-47800499D01*
X162921156Y-47800500D01*
X162921158Y-47800500D01*
X163078844Y-47800500D01*
X163078845Y-47800499D01*
X163233497Y-47769737D01*
X163379179Y-47709394D01*
X163510289Y-47621789D01*
X163621789Y-47510289D01*
X163709394Y-47379179D01*
X163769737Y-47233497D01*
X163800500Y-47078842D01*
X163800500Y-46921158D01*
X163800500Y-46921155D01*
X163800499Y-46921153D01*
X163769738Y-46766510D01*
X163769737Y-46766503D01*
X163724302Y-46656812D01*
X163709397Y-46620827D01*
X163709390Y-46620814D01*
X163622755Y-46491156D01*
X163601877Y-46424478D01*
X163620361Y-46357098D01*
X163672340Y-46310408D01*
X163725857Y-46298265D01*
X169241306Y-46298265D01*
X169325850Y-46281447D01*
X169366979Y-46273266D01*
X169485362Y-46224230D01*
X169591904Y-46153042D01*
X176702931Y-39042013D01*
X176764252Y-39008530D01*
X176766317Y-39008099D01*
X176833497Y-38994737D01*
X176979179Y-38934394D01*
X177110289Y-38846789D01*
X177221789Y-38735289D01*
X177309394Y-38604179D01*
X177369737Y-38458497D01*
X177374505Y-38434524D01*
X177396231Y-38325308D01*
X177428616Y-38263397D01*
X177489332Y-38228823D01*
X177517848Y-38225500D01*
X181874903Y-38225500D01*
X181941942Y-38245185D01*
X181962584Y-38261819D01*
X184215425Y-40514660D01*
X184248910Y-40575983D01*
X184249361Y-40578149D01*
X184280261Y-40733491D01*
X184280264Y-40733501D01*
X184340602Y-40879172D01*
X184340609Y-40879185D01*
X184428210Y-41010288D01*
X184428213Y-41010292D01*
X184539707Y-41121786D01*
X184539711Y-41121789D01*
X184670814Y-41209390D01*
X184670827Y-41209397D01*
X184808683Y-41266498D01*
X184816503Y-41269737D01*
X184971153Y-41300499D01*
X184971156Y-41300500D01*
X184971158Y-41300500D01*
X185128844Y-41300500D01*
X185128845Y-41300499D01*
X185283497Y-41269737D01*
X185429179Y-41209394D01*
X185560289Y-41121789D01*
X185671789Y-41010289D01*
X185759394Y-40879179D01*
X185761222Y-40874767D01*
X185773067Y-40846166D01*
X185819737Y-40733497D01*
X185850500Y-40578842D01*
X185850500Y-40421158D01*
X185850500Y-40421155D01*
X185850499Y-40421153D01*
X185819738Y-40266510D01*
X185819737Y-40266503D01*
X185762348Y-40127952D01*
X185759397Y-40120827D01*
X185759390Y-40120814D01*
X185671789Y-39989711D01*
X185671786Y-39989707D01*
X185560292Y-39878213D01*
X185560288Y-39878210D01*
X185429185Y-39790609D01*
X185429172Y-39790602D01*
X185283501Y-39730264D01*
X185283491Y-39730261D01*
X185128149Y-39699361D01*
X185066238Y-39666976D01*
X185064660Y-39665425D01*
X182662590Y-37263355D01*
X182662588Y-37263352D01*
X182543717Y-37144481D01*
X182543716Y-37144480D01*
X182456904Y-37094360D01*
X182456904Y-37094359D01*
X182456900Y-37094358D01*
X182406785Y-37065423D01*
X182254057Y-37024499D01*
X182095943Y-37024499D01*
X182088347Y-37024499D01*
X182088331Y-37024500D01*
X175954057Y-37024500D01*
X175795942Y-37024500D01*
X175643215Y-37065423D01*
X175643214Y-37065423D01*
X175643212Y-37065424D01*
X175643209Y-37065425D01*
X175593096Y-37094359D01*
X175593095Y-37094360D01*
X175549689Y-37119420D01*
X175506285Y-37144479D01*
X175506282Y-37144481D01*
X175394480Y-37256284D01*
X175394478Y-37256286D01*
X172074782Y-40575983D01*
X168787584Y-43863181D01*
X168726261Y-43896666D01*
X168699903Y-43899500D01*
X148800097Y-43899500D01*
X148733058Y-43879815D01*
X148712416Y-43863181D01*
X132050069Y-27200834D01*
X132050067Y-27200831D01*
X131931196Y-27081960D01*
X131931195Y-27081959D01*
X131844383Y-27031839D01*
X131844383Y-27031838D01*
X131844379Y-27031837D01*
X131794264Y-27002902D01*
X131641536Y-26961978D01*
X131483422Y-26961978D01*
X131475826Y-26961978D01*
X131475810Y-26961979D01*
X105579766Y-26961979D01*
X105512727Y-26942294D01*
X105510875Y-26941081D01*
X105379185Y-26853088D01*
X105379172Y-26853081D01*
X105233501Y-26792743D01*
X105233489Y-26792740D01*
X105078845Y-26761979D01*
X105078842Y-26761979D01*
X104921158Y-26761979D01*
X104921155Y-26761979D01*
X104766510Y-26792740D01*
X104766498Y-26792743D01*
X104620827Y-26853081D01*
X104620814Y-26853088D01*
X104489711Y-26940689D01*
X104489707Y-26940692D01*
X104378213Y-27052186D01*
X104378210Y-27052190D01*
X104290609Y-27183293D01*
X104290602Y-27183306D01*
X104230264Y-27328977D01*
X104230261Y-27328989D01*
X104199500Y-27483632D01*
X63918060Y-27483632D01*
X65312398Y-26615443D01*
X65314719Y-26614034D01*
X66803503Y-25733085D01*
X66805816Y-25731753D01*
X68314041Y-24884719D01*
X68316421Y-24883416D01*
X69843521Y-24070616D01*
X69845885Y-24069393D01*
X71390858Y-23291360D01*
X71393297Y-23290166D01*
X72955516Y-22547214D01*
X72957946Y-22546092D01*
X74536504Y-21838654D01*
X74539006Y-21837567D01*
X75317197Y-21509726D01*
X75365339Y-21500000D01*
X134838434Y-21500000D01*
X134885833Y-21509417D01*
G37*
%TD.AperFunction*%
%TD*%
%TA.AperFunction,Conductor*%
%TO.N,/Right/GND*%
G36*
X295150329Y-15483770D02*
G01*
X296879959Y-15508924D01*
X296882761Y-15508997D01*
X298611339Y-15573225D01*
X298613993Y-15573353D01*
X300340823Y-15676635D01*
X300343509Y-15676827D01*
X302067508Y-15819098D01*
X302070189Y-15819349D01*
X303790520Y-16000540D01*
X303793226Y-16000856D01*
X305509013Y-16220873D01*
X305511730Y-16221253D01*
X307222079Y-16479981D01*
X307224756Y-16480417D01*
X308928872Y-16777736D01*
X308931551Y-16778235D01*
X310122292Y-17013828D01*
X310628442Y-17113972D01*
X310631185Y-17114547D01*
X312320059Y-17488542D01*
X312322741Y-17489168D01*
X314002721Y-17901229D01*
X314005397Y-17901917D01*
X315675660Y-18351840D01*
X315678308Y-18352585D01*
X317337984Y-18840139D01*
X317340635Y-18840950D01*
X318504508Y-19211622D01*
X318988845Y-19365874D01*
X318991506Y-19366755D01*
X320147551Y-19763922D01*
X320627394Y-19928775D01*
X320630028Y-19929713D01*
X322252872Y-20528584D01*
X322255403Y-20529550D01*
X323392495Y-20978612D01*
X323864285Y-21164932D01*
X323866880Y-21165991D01*
X325460960Y-21837553D01*
X325463527Y-21838669D01*
X327042019Y-22546077D01*
X327044516Y-22547230D01*
X328151371Y-23073622D01*
X328606664Y-23290148D01*
X328609177Y-23291378D01*
X330154077Y-24069374D01*
X330156513Y-24070635D01*
X331683539Y-24883396D01*
X331685996Y-24884740D01*
X333194143Y-25731730D01*
X333196533Y-25733107D01*
X334554144Y-26536438D01*
X334685243Y-26614012D01*
X334687638Y-26615466D01*
X336156013Y-27529755D01*
X336158375Y-27531263D01*
X337605722Y-28478504D01*
X337608049Y-28480065D01*
X339033591Y-29459749D01*
X339035883Y-29461362D01*
X340438987Y-30473053D01*
X340441238Y-30474716D01*
X341818401Y-31515797D01*
X341825725Y-31521786D01*
X341962444Y-31642611D01*
X341973817Y-31654065D01*
X342091457Y-31789084D01*
X342101250Y-31801924D01*
X342200351Y-31951090D01*
X342208392Y-31965093D01*
X342287269Y-32125872D01*
X342293422Y-32140801D01*
X342350738Y-32310465D01*
X342354899Y-32326067D01*
X342389682Y-32501743D01*
X342391780Y-32517753D01*
X342403705Y-32700500D01*
X342403968Y-32708574D01*
X342403968Y-88476414D01*
X342403648Y-88485310D01*
X342389172Y-88686560D01*
X342386626Y-88704168D01*
X342344451Y-88896923D01*
X342339411Y-88913987D01*
X342270084Y-89098721D01*
X342262654Y-89114887D01*
X342167603Y-89287799D01*
X342157936Y-89302735D01*
X342039118Y-89460262D01*
X342027413Y-89473661D01*
X341887274Y-89612563D01*
X341873772Y-89624149D01*
X341715197Y-89741566D01*
X341700175Y-89751101D01*
X341526422Y-89844618D01*
X341510190Y-89851904D01*
X341320963Y-89921008D01*
X341311877Y-89923935D01*
X338541046Y-90700171D01*
X338539802Y-90700513D01*
X335756935Y-91448990D01*
X335755688Y-91449318D01*
X332965342Y-92168769D01*
X332964091Y-92169085D01*
X330166276Y-92859506D01*
X330165023Y-92859808D01*
X327360315Y-93521056D01*
X327359058Y-93521346D01*
X324547465Y-94153422D01*
X324546205Y-94153698D01*
X321728279Y-94756474D01*
X321727016Y-94756737D01*
X318902749Y-95330214D01*
X318902117Y-95330341D01*
X316634201Y-95778577D01*
X312583299Y-96607314D01*
X312219863Y-96681666D01*
X312103933Y-96705383D01*
X307580172Y-97662323D01*
X307580089Y-97662341D01*
X307580066Y-97662346D01*
X303062611Y-98649462D01*
X303062530Y-98649480D01*
X303062490Y-98649489D01*
X298551920Y-99666654D01*
X294047914Y-100713943D01*
X289551200Y-101791187D01*
X285061558Y-102898438D01*
X281079880Y-103908621D01*
X280579564Y-104035556D01*
X280579542Y-104035561D01*
X280579537Y-104035563D01*
X276105271Y-105202523D01*
X276105203Y-105202541D01*
X276105200Y-105202542D01*
X273871958Y-105800941D01*
X273808311Y-105817995D01*
X273808310Y-105817995D01*
X273474666Y-105907394D01*
X272958076Y-106045814D01*
X271140187Y-106570904D01*
X269332841Y-107131139D01*
X267536683Y-107726321D01*
X266642273Y-108042072D01*
X265752377Y-108356230D01*
X265752363Y-108356234D01*
X265752341Y-108356243D01*
X263980658Y-109020607D01*
X262222140Y-109719221D01*
X260477455Y-110451823D01*
X258747372Y-111218089D01*
X257032454Y-112017769D01*
X255333363Y-112850552D01*
X253650702Y-113716148D01*
X251985203Y-114614178D01*
X250337406Y-115544349D01*
X248707938Y-116506307D01*
X247097463Y-117499664D01*
X245506550Y-118524064D01*
X243935802Y-119579119D01*
X242385772Y-120664462D01*
X241252162Y-121491442D01*
X240857101Y-121779643D01*
X239531772Y-122786433D01*
X239350330Y-122924266D01*
X237866062Y-124097873D01*
X236404813Y-125300056D01*
X234967179Y-126530324D01*
X233553619Y-127788284D01*
X232164801Y-129073344D01*
X230801059Y-130385194D01*
X230178681Y-131007573D01*
X221127738Y-140058517D01*
X221127737Y-140058518D01*
X221084281Y-140101973D01*
X221077804Y-140108004D01*
X220926157Y-140239407D01*
X220911994Y-140250009D01*
X220746935Y-140356087D01*
X220731411Y-140364564D01*
X220632941Y-140409533D01*
X220552929Y-140446074D01*
X220536354Y-140452256D01*
X220348096Y-140507535D01*
X220330807Y-140511296D01*
X220136594Y-140539220D01*
X220118947Y-140540482D01*
X219922741Y-140540482D01*
X219905095Y-140539220D01*
X219710880Y-140511297D01*
X219693592Y-140507536D01*
X219505337Y-140452261D01*
X219488761Y-140446079D01*
X219310283Y-140364573D01*
X219294754Y-140356094D01*
X219129692Y-140250016D01*
X219115529Y-140239414D01*
X218963881Y-140108013D01*
X218957417Y-140101995D01*
X218913948Y-140058526D01*
X218913946Y-140058525D01*
X216226838Y-137371463D01*
X216226837Y-137371462D01*
X216226835Y-137371460D01*
X216226834Y-137371458D01*
X216041326Y-137185954D01*
X216041288Y-137185918D01*
X215551740Y-136748437D01*
X215405816Y-136632068D01*
X215038413Y-136339078D01*
X215038402Y-136339070D01*
X215038398Y-136339067D01*
X215038396Y-136339065D01*
X214502946Y-135959150D01*
X214502925Y-135959137D01*
X213947023Y-135609844D01*
X213946991Y-135609825D01*
X213372394Y-135292262D01*
X213372395Y-135292262D01*
X213372376Y-135292252D01*
X213372356Y-135292242D01*
X213372334Y-135292231D01*
X212780829Y-135007381D01*
X212174260Y-134756135D01*
X211554536Y-134539287D01*
X211554534Y-134539286D01*
X211554530Y-134539285D01*
X210923628Y-134357528D01*
X210923624Y-134357527D01*
X210923614Y-134357524D01*
X210283523Y-134211429D01*
X209636250Y-134101455D01*
X209636197Y-134101448D01*
X208983823Y-134027944D01*
X208983812Y-134027943D01*
X208983809Y-134027943D01*
X208328281Y-133991130D01*
X208328278Y-133991130D01*
X204624500Y-133991130D01*
X204557461Y-133971445D01*
X204511706Y-133918641D01*
X204500500Y-133867130D01*
X204500500Y-126275740D01*
X204500500Y-126275738D01*
X204466392Y-126148444D01*
X204400500Y-126034316D01*
X204307314Y-125941130D01*
X204250250Y-125908184D01*
X204193187Y-125875238D01*
X204129539Y-125858184D01*
X204065892Y-125841130D01*
X204065891Y-125841130D01*
X201874500Y-125841130D01*
X201807461Y-125821445D01*
X201761706Y-125768641D01*
X201750500Y-125717130D01*
X201750500Y-125634110D01*
X201750500Y-125634108D01*
X201716392Y-125506814D01*
X201650500Y-125392686D01*
X201620495Y-125362681D01*
X201587010Y-125301358D01*
X201591994Y-125231666D01*
X201620495Y-125187319D01*
X201650500Y-125157314D01*
X201716392Y-125043186D01*
X201750500Y-124915892D01*
X201750500Y-124784108D01*
X201716392Y-124656814D01*
X201650500Y-124542686D01*
X201620495Y-124512681D01*
X201587010Y-124451358D01*
X201591994Y-124381666D01*
X201620495Y-124337319D01*
X201650500Y-124307314D01*
X201716392Y-124193186D01*
X201750500Y-124065892D01*
X201750500Y-123934108D01*
X201716392Y-123806814D01*
X201650500Y-123692686D01*
X201620495Y-123662681D01*
X201587010Y-123601358D01*
X201591994Y-123531666D01*
X201620495Y-123487319D01*
X201650500Y-123457314D01*
X201716392Y-123343186D01*
X201750500Y-123215892D01*
X201750500Y-123084108D01*
X201716392Y-122956814D01*
X201650500Y-122842686D01*
X201620495Y-122812681D01*
X201587010Y-122751358D01*
X201591994Y-122681666D01*
X201620495Y-122637319D01*
X201650500Y-122607314D01*
X201716392Y-122493186D01*
X201750500Y-122365892D01*
X201750500Y-122234108D01*
X201716392Y-122106814D01*
X201650500Y-121992686D01*
X201557314Y-121899500D01*
X201557311Y-121899498D01*
X201550865Y-121894552D01*
X201552675Y-121892192D01*
X201514280Y-121851920D01*
X201500500Y-121795107D01*
X201500500Y-100204893D01*
X201520185Y-100137854D01*
X201552261Y-100107272D01*
X201550863Y-100105450D01*
X201557307Y-100100503D01*
X201557314Y-100100500D01*
X201650500Y-100007314D01*
X201716392Y-99893186D01*
X201750500Y-99765892D01*
X201750500Y-99634108D01*
X201716392Y-99506814D01*
X201650500Y-99392686D01*
X201620495Y-99362681D01*
X201587010Y-99301358D01*
X201591994Y-99231666D01*
X201620495Y-99187319D01*
X201650500Y-99157314D01*
X201716392Y-99043186D01*
X201750500Y-98915892D01*
X201750500Y-98784108D01*
X201716392Y-98656814D01*
X201650500Y-98542686D01*
X201620495Y-98512681D01*
X201587010Y-98451358D01*
X201591994Y-98381666D01*
X201620495Y-98337319D01*
X201650500Y-98307314D01*
X201716392Y-98193186D01*
X201750500Y-98065892D01*
X201750500Y-97934108D01*
X201716392Y-97806814D01*
X201650500Y-97692686D01*
X201620495Y-97662681D01*
X201587010Y-97601358D01*
X201591994Y-97531666D01*
X201620495Y-97487319D01*
X201650500Y-97457314D01*
X201716392Y-97343186D01*
X201750500Y-97215892D01*
X201750500Y-97084108D01*
X201716392Y-96956814D01*
X201650500Y-96842686D01*
X201620495Y-96812681D01*
X201587010Y-96751358D01*
X201591994Y-96681666D01*
X201620495Y-96637319D01*
X201650500Y-96607314D01*
X201716392Y-96493186D01*
X201750500Y-96365892D01*
X201750500Y-96234108D01*
X201716392Y-96106814D01*
X201650500Y-95992686D01*
X201557314Y-95899500D01*
X201557311Y-95899498D01*
X201550865Y-95894552D01*
X201552675Y-95892192D01*
X201514280Y-95851920D01*
X201500500Y-95795107D01*
X201500500Y-83059474D01*
X238654351Y-83059474D01*
X238654351Y-83217167D01*
X238685112Y-83371810D01*
X238685115Y-83371822D01*
X238745453Y-83517493D01*
X238745460Y-83517506D01*
X238833061Y-83648609D01*
X238833064Y-83648613D01*
X238944558Y-83760107D01*
X238944562Y-83760110D01*
X239075665Y-83847711D01*
X239075678Y-83847718D01*
X239221349Y-83908056D01*
X239221354Y-83908058D01*
X239376004Y-83938820D01*
X239376007Y-83938821D01*
X239376009Y-83938821D01*
X239533695Y-83938821D01*
X239533696Y-83938820D01*
X239688348Y-83908058D01*
X239834030Y-83847715D01*
X239965140Y-83760110D01*
X240076640Y-83648610D01*
X240164245Y-83517500D01*
X240224588Y-83371818D01*
X240243964Y-83274406D01*
X240255489Y-83216471D01*
X240287874Y-83154560D01*
X240289370Y-83153036D01*
X241877192Y-81565213D01*
X241877197Y-81565210D01*
X241887400Y-81555006D01*
X241887402Y-81555006D01*
X241999206Y-81443202D01*
X242078263Y-81306270D01*
X242119186Y-81153543D01*
X242119186Y-49649923D01*
X242138871Y-49582884D01*
X242140084Y-49581032D01*
X242228076Y-49449343D01*
X242228076Y-49449342D01*
X242228080Y-49449337D01*
X242288423Y-49303655D01*
X242319186Y-49149000D01*
X242319186Y-48991316D01*
X242319186Y-48991313D01*
X242319185Y-48991311D01*
X242288424Y-48836668D01*
X242288423Y-48836661D01*
X242288421Y-48836656D01*
X242228083Y-48690985D01*
X242228076Y-48690972D01*
X242140475Y-48559869D01*
X242140472Y-48559865D01*
X242028978Y-48448371D01*
X242028974Y-48448368D01*
X241897871Y-48360767D01*
X241897858Y-48360760D01*
X241752187Y-48300422D01*
X241752175Y-48300419D01*
X241597531Y-48269658D01*
X241597528Y-48269658D01*
X241439844Y-48269658D01*
X241439841Y-48269658D01*
X241285196Y-48300419D01*
X241285184Y-48300422D01*
X241139513Y-48360760D01*
X241139500Y-48360767D01*
X241008397Y-48448368D01*
X241008393Y-48448371D01*
X240896899Y-48559865D01*
X240896896Y-48559869D01*
X240809295Y-48690972D01*
X240809288Y-48690985D01*
X240748950Y-48836656D01*
X240748947Y-48836668D01*
X240718186Y-48991311D01*
X240718186Y-49149004D01*
X240748947Y-49303647D01*
X240748950Y-49303659D01*
X240809288Y-49449330D01*
X240809295Y-49449343D01*
X240897288Y-49581032D01*
X240918166Y-49647709D01*
X240918186Y-49649923D01*
X240918186Y-80774389D01*
X240898501Y-80841428D01*
X240881867Y-80862070D01*
X239440190Y-82303746D01*
X239378867Y-82337231D01*
X239376701Y-82337682D01*
X239221359Y-82368582D01*
X239221349Y-82368585D01*
X239075678Y-82428923D01*
X239075665Y-82428930D01*
X238944562Y-82516531D01*
X238944558Y-82516534D01*
X238833064Y-82628028D01*
X238833061Y-82628032D01*
X238745460Y-82759135D01*
X238745453Y-82759148D01*
X238685115Y-82904819D01*
X238685112Y-82904831D01*
X238654351Y-83059474D01*
X201500500Y-83059474D01*
X201500500Y-74204893D01*
X201520185Y-74137854D01*
X201552261Y-74107272D01*
X201550863Y-74105450D01*
X201557307Y-74100503D01*
X201557314Y-74100500D01*
X201650500Y-74007314D01*
X201716392Y-73893186D01*
X201750500Y-73765892D01*
X201750500Y-73634108D01*
X201716392Y-73506814D01*
X201650500Y-73392686D01*
X201620495Y-73362681D01*
X201587010Y-73301358D01*
X201591994Y-73231666D01*
X201620495Y-73187319D01*
X201650500Y-73157314D01*
X201716392Y-73043186D01*
X201750500Y-72915892D01*
X201750500Y-72784108D01*
X201716392Y-72656814D01*
X201650500Y-72542686D01*
X201620495Y-72512681D01*
X201587010Y-72451358D01*
X201591994Y-72381666D01*
X201620495Y-72337319D01*
X201650500Y-72307314D01*
X201716392Y-72193186D01*
X201750500Y-72065892D01*
X201750500Y-71934108D01*
X201716392Y-71806814D01*
X201650500Y-71692686D01*
X201620495Y-71662681D01*
X201587010Y-71601358D01*
X201591994Y-71531666D01*
X201620495Y-71487319D01*
X201650500Y-71457314D01*
X201716392Y-71343186D01*
X201750500Y-71215892D01*
X201750500Y-71084108D01*
X201716392Y-70956814D01*
X201650500Y-70842686D01*
X201620495Y-70812681D01*
X201587010Y-70751358D01*
X201591994Y-70681666D01*
X201620495Y-70637319D01*
X201650500Y-70607314D01*
X201716392Y-70493186D01*
X201750500Y-70365892D01*
X201750500Y-70234108D01*
X201716392Y-70106814D01*
X201650500Y-69992686D01*
X201557314Y-69899500D01*
X201557311Y-69899498D01*
X201550865Y-69894552D01*
X201552675Y-69892192D01*
X201514280Y-69851920D01*
X201500500Y-69795107D01*
X201500500Y-48204893D01*
X201520185Y-48137854D01*
X201552261Y-48107272D01*
X201550863Y-48105450D01*
X201557307Y-48100503D01*
X201557314Y-48100500D01*
X201650500Y-48007314D01*
X201716392Y-47893186D01*
X201750500Y-47765892D01*
X201750500Y-47634108D01*
X201716392Y-47506814D01*
X201650500Y-47392686D01*
X201620495Y-47362681D01*
X201587010Y-47301358D01*
X201591994Y-47231666D01*
X201620495Y-47187319D01*
X201650500Y-47157314D01*
X201716392Y-47043186D01*
X201750500Y-46915892D01*
X201750500Y-46784108D01*
X201716392Y-46656814D01*
X201650500Y-46542686D01*
X201620495Y-46512681D01*
X201587010Y-46451358D01*
X201591994Y-46381666D01*
X201620495Y-46337319D01*
X201650500Y-46307314D01*
X201716392Y-46193186D01*
X201750500Y-46065892D01*
X201750500Y-45934108D01*
X201716392Y-45806814D01*
X201650500Y-45692686D01*
X201620495Y-45662681D01*
X201587010Y-45601358D01*
X201591994Y-45531666D01*
X201620495Y-45487319D01*
X201650500Y-45457314D01*
X201716392Y-45343186D01*
X201750500Y-45215892D01*
X201750500Y-45084108D01*
X201716392Y-44956814D01*
X201650500Y-44842686D01*
X201620495Y-44812681D01*
X201620426Y-44812554D01*
X201620299Y-44812485D01*
X201603573Y-44781692D01*
X201587010Y-44751358D01*
X201587020Y-44751215D01*
X201586951Y-44751088D01*
X201589518Y-44716284D01*
X201591994Y-44681666D01*
X201592084Y-44681501D01*
X201592091Y-44681407D01*
X201592389Y-44680943D01*
X201609075Y-44650468D01*
X201614320Y-44643493D01*
X201650500Y-44607314D01*
X201680138Y-44555979D01*
X201684659Y-44549968D01*
X201706881Y-44533409D01*
X201726940Y-44514284D01*
X201735258Y-44512265D01*
X201740686Y-44508222D01*
X201756422Y-44507131D01*
X201783760Y-44500500D01*
X204065890Y-44500500D01*
X204065892Y-44500500D01*
X204193186Y-44466392D01*
X204307314Y-44400500D01*
X204400500Y-44307314D01*
X204466392Y-44193186D01*
X204500500Y-44065892D01*
X204500500Y-36474500D01*
X204520185Y-36407461D01*
X204572989Y-36361706D01*
X204624500Y-36350500D01*
X208080325Y-36350500D01*
X208080329Y-36350498D01*
X209039786Y-36350489D01*
X211119016Y-36312792D01*
X213197222Y-36237411D01*
X215273719Y-36124371D01*
X217347826Y-35973708D01*
X219418861Y-35785472D01*
X221486144Y-35559726D01*
X223548995Y-35296543D01*
X225025600Y-35080884D01*
X225606738Y-34996009D01*
X227658676Y-34658227D01*
X227742968Y-34642776D01*
X229704187Y-34283299D01*
X231742550Y-33871356D01*
X233773111Y-33422531D01*
X235795202Y-32936972D01*
X237808158Y-32414838D01*
X239811320Y-31856301D01*
X241804028Y-31261544D01*
X243785627Y-30630762D01*
X245755466Y-29964164D01*
X247712898Y-29261968D01*
X249657279Y-28524404D01*
X251587971Y-27751716D01*
X253504340Y-26944156D01*
X255405755Y-26101992D01*
X257291591Y-25225498D01*
X259161229Y-24314964D01*
X260028935Y-23872756D01*
X260028940Y-23872756D01*
X260087171Y-23843078D01*
X260088146Y-23842588D01*
X261638922Y-23074197D01*
X261641312Y-23073047D01*
X263208225Y-22340284D01*
X263210735Y-22339143D01*
X264793931Y-21641919D01*
X264796333Y-21640894D01*
X266394840Y-20979639D01*
X266397373Y-20978625D01*
X268010398Y-20353667D01*
X268012862Y-20352744D01*
X269639627Y-19764384D01*
X269642219Y-19763480D01*
X271281804Y-19212049D01*
X271284372Y-19211217D01*
X272935990Y-18696980D01*
X272938592Y-18696202D01*
X274601438Y-18219408D01*
X274604059Y-18218688D01*
X276277317Y-17779576D01*
X276279880Y-17778935D01*
X277962583Y-17377755D01*
X277965196Y-17377163D01*
X279656542Y-17014109D01*
X279659180Y-17013574D01*
X281358326Y-16688826D01*
X281360891Y-16688366D01*
X283066914Y-16402101D01*
X283069611Y-16401679D01*
X284781637Y-16154042D01*
X284784327Y-16153683D01*
X286501508Y-15944795D01*
X286504238Y-15944495D01*
X288225770Y-15774457D01*
X288228381Y-15774230D01*
X289953284Y-15643139D01*
X289955931Y-15642967D01*
X291683361Y-15550887D01*
X291686029Y-15550774D01*
X293415123Y-15497750D01*
X293417815Y-15497699D01*
X295147583Y-15483762D01*
X295150329Y-15483770D01*
G37*
%TD.AperFunction*%
%TD*%
M02*
