%TF.GenerationSoftware,KiCad,Pcbnew,10.0.3-10.0.3~ubuntu24.04.1*%
%TF.CreationDate,2026-05-19T22:11:58-05:00*%
%TF.ProjectId,bottom_plate,626f7474-6f6d-45f7-906c-6174652e6b69,rev?*%
%TF.SameCoordinates,Original*%
%TF.FileFunction,Paste,Top*%
%TF.FilePolarity,Positive*%
%FSLAX46Y46*%
G04 Gerber Fmt 4.6, Leading zero omitted, Abs format (unit mm)*
G04 Created by KiCad (PCBNEW 10.0.3-10.0.3~ubuntu24.04.1) date 2026-05-19 22:11:58*
%MOMM*%
%LPD*%
G01*
G04 APERTURE LIST*
G04 Aperture macros list*
%AMRoundRect*
0 Rectangle with rounded corners*
0 $1 Rounding radius*
0 $2 $3 $4 $5 $6 $7 $8 $9 X,Y pos of 4 corners*
0 Add a 4 corners polygon primitive as box body*
4,1,4,$2,$3,$4,$5,$6,$7,$8,$9,$2,$3,0*
0 Add four circle primitives for the rounded corners*
1,1,$1+$1,$2,$3*
1,1,$1+$1,$4,$5*
1,1,$1+$1,$6,$7*
1,1,$1+$1,$8,$9*
0 Add four rect primitives between the rounded corners*
20,1,$1+$1,$2,$3,$4,$5,0*
20,1,$1+$1,$4,$5,$6,$7,0*
20,1,$1+$1,$6,$7,$8,$9,0*
20,1,$1+$1,$8,$9,$2,$3,0*%
G04 Aperture macros list end*
%ADD10RoundRect,0.150000X0.587500X0.150000X-0.587500X0.150000X-0.587500X-0.150000X0.587500X-0.150000X0*%
%ADD11RoundRect,0.150000X0.512500X0.150000X-0.512500X0.150000X-0.512500X-0.150000X0.512500X-0.150000X0*%
%ADD12RoundRect,0.090000X-0.139000X-0.090000X0.139000X-0.090000X0.139000X0.090000X-0.139000X0.090000X0*%
%ADD13RoundRect,0.200000X0.200000X0.275000X-0.200000X0.275000X-0.200000X-0.275000X0.200000X-0.275000X0*%
%ADD14R,1.200000X0.800000*%
%ADD15R,1.200000X0.850000*%
%ADD16R,0.800000X1.200000*%
%ADD17R,0.280000X1.250000*%
%ADD18R,1.800000X2.000000*%
%ADD19RoundRect,0.200000X-0.200000X-0.275000X0.200000X-0.275000X0.200000X0.275000X-0.200000X0.275000X0*%
%ADD20RoundRect,0.090000X0.139000X0.090000X-0.139000X0.090000X-0.139000X-0.090000X0.139000X-0.090000X0*%
%ADD21R,2.510000X1.000000*%
G04 APERTURE END LIST*
D10*
%TO.C,Q_EXT_01*%
X54723649Y-25262479D03*
X54723649Y-23362479D03*
X52848649Y-24312479D03*
%TD*%
D11*
%TO.C,U_CHG_01*%
X187129031Y-112412467D03*
X187129031Y-111462467D03*
X187129031Y-110512467D03*
X184854031Y-110512467D03*
X184854031Y-112412467D03*
%TD*%
D12*
%TO.C,R_CHG_02*%
X181559031Y-115462467D03*
X182424031Y-115462467D03*
%TD*%
D13*
%TO.C,R_MON_01*%
X187316531Y-107962467D03*
X185666531Y-107962467D03*
%TD*%
D14*
%TO.C,U_MCU_01*%
X62973649Y-22062479D03*
X62973649Y-23162479D03*
X62973649Y-24262479D03*
X62973649Y-25362479D03*
D15*
X62973649Y-26462479D03*
D14*
X62973649Y-27562479D03*
X62973649Y-28662479D03*
X62973649Y-29762479D03*
X62973649Y-30862479D03*
X62973649Y-31962479D03*
X62973649Y-33062479D03*
X62973649Y-34162479D03*
X62973649Y-35262479D03*
X76473649Y-22062479D03*
X76473649Y-23162479D03*
X76473649Y-24262479D03*
X76473649Y-25362479D03*
X76473649Y-26462479D03*
X76473649Y-27562479D03*
X76473649Y-28662479D03*
X76473649Y-29762479D03*
X76473649Y-30862479D03*
X76473649Y-31962479D03*
X76473649Y-33062479D03*
X76473649Y-34162479D03*
X76473649Y-35262479D03*
D16*
X75223649Y-36762479D03*
X74123649Y-36762479D03*
X73023649Y-36762479D03*
X71923649Y-36762479D03*
X70823649Y-36762479D03*
X69723649Y-36762479D03*
X68623649Y-36762479D03*
X67523649Y-36762479D03*
X66423649Y-36762479D03*
X65323649Y-36762479D03*
X64223649Y-36762479D03*
%TD*%
D17*
%TO.C,J_VIK_OUT_DISP_01*%
X137973649Y-63538479D03*
X138473649Y-63538479D03*
X138973649Y-63538479D03*
X139473649Y-63538479D03*
X139973649Y-63538479D03*
X140473649Y-63538479D03*
X140973649Y-63538479D03*
X141473649Y-63538479D03*
X141973649Y-63538479D03*
X142473649Y-63538479D03*
X142973649Y-63538479D03*
X143473649Y-63538479D03*
D18*
X145273649Y-66262479D03*
X136173649Y-66262479D03*
%TD*%
D19*
%TO.C,R_MON_02*%
X185666531Y-106462467D03*
X187316531Y-106462467D03*
%TD*%
D17*
%TO.C,J_VIK_OUT_INTC_01*%
X137973649Y-103538479D03*
X138473649Y-103538479D03*
X138973649Y-103538479D03*
X139473649Y-103538479D03*
X139973649Y-103538479D03*
X140473649Y-103538479D03*
X140973649Y-103538479D03*
X141473649Y-103538479D03*
X141973649Y-103538479D03*
X142473649Y-103538479D03*
X142973649Y-103538479D03*
X143473649Y-103538479D03*
D18*
X145273649Y-106262479D03*
X136173649Y-106262479D03*
%TD*%
D17*
%TO.C,J_VIK_OUT_SW_01*%
X137973649Y-83538479D03*
X138473649Y-83538479D03*
X138973649Y-83538479D03*
X139473649Y-83538479D03*
X139973649Y-83538479D03*
X140473649Y-83538479D03*
X140973649Y-83538479D03*
X141473649Y-83538479D03*
X141973649Y-83538479D03*
X142473649Y-83538479D03*
X142973649Y-83538479D03*
X143473649Y-83538479D03*
D18*
X145273649Y-86262479D03*
X136173649Y-86262479D03*
%TD*%
D17*
%TO.C,J_VIK_OUT_SENS_01*%
X137973649Y-43538479D03*
X138473649Y-43538479D03*
X138973649Y-43538479D03*
X139473649Y-43538479D03*
X139973649Y-43538479D03*
X140473649Y-43538479D03*
X140973649Y-43538479D03*
X141473649Y-43538479D03*
X141973649Y-43538479D03*
X142473649Y-43538479D03*
X142973649Y-43538479D03*
X143473649Y-43538479D03*
D18*
X145273649Y-46262479D03*
X136173649Y-46262479D03*
%TD*%
D17*
%TO.C,J_VIK_OUT_SW_02*%
X172526351Y-83738467D03*
X173026351Y-83738467D03*
X173526351Y-83738467D03*
X174026351Y-83738467D03*
X174526351Y-83738467D03*
X175026351Y-83738467D03*
X175526351Y-83738467D03*
X176026351Y-83738467D03*
X176526351Y-83738467D03*
X177026351Y-83738467D03*
X177526351Y-83738467D03*
X178026351Y-83738467D03*
D18*
X179826351Y-86462467D03*
X170726351Y-86462467D03*
%TD*%
D17*
%TO.C,J_VIK_IN_INTC_01*%
X178026351Y-107814467D03*
X177526351Y-107814467D03*
X177026351Y-107814467D03*
X176526351Y-107814467D03*
X176026351Y-107814467D03*
X175526351Y-107814467D03*
X175026351Y-107814467D03*
X174526351Y-107814467D03*
X174026351Y-107814467D03*
X173526351Y-107814467D03*
X173026351Y-107814467D03*
X172526351Y-107814467D03*
D18*
X170726351Y-105090467D03*
X179826351Y-105090467D03*
%TD*%
D20*
%TO.C,R_CHG_01*%
X182424031Y-114462467D03*
X181559031Y-114462467D03*
%TD*%
D17*
%TO.C,J_VIK_OUT_SENS_02*%
X172526351Y-43738467D03*
X173026351Y-43738467D03*
X173526351Y-43738467D03*
X174026351Y-43738467D03*
X174526351Y-43738467D03*
X175026351Y-43738467D03*
X175526351Y-43738467D03*
X176026351Y-43738467D03*
X176526351Y-43738467D03*
X177026351Y-43738467D03*
X177526351Y-43738467D03*
X178026351Y-43738467D03*
D18*
X179826351Y-46462467D03*
X170726351Y-46462467D03*
%TD*%
D21*
%TO.C,J_SWD_01*%
X83878649Y-31572479D03*
X80568649Y-29032479D03*
X83878649Y-26492479D03*
X80568649Y-23952479D03*
%TD*%
D13*
%TO.C,R_EXT_01*%
X50611149Y-23312479D03*
X48961149Y-23312479D03*
%TD*%
M02*
