%TF.GenerationSoftware,KiCad,Pcbnew,10.0.2*%
%TF.CreationDate,2026-05-21T15:46:53-05:00*%
%TF.ProjectId,pcb_plate,7063625f-706c-4617-9465-2e6b69636164,rev?*%
%TF.SameCoordinates,Original*%
%TF.FileFunction,Profile,NP*%
%FSLAX46Y46*%
G04 Gerber Fmt 4.6, Leading zero omitted, Abs format (unit mm)*
G04 Created by KiCad (PCBNEW 10.0.2) date 2026-05-21 15:46:53*
%MOMM*%
%LPD*%
G01*
G04 APERTURE LIST*
%TA.AperFunction,Profile*%
%ADD10C,0.100000*%
%TD*%
G04 APERTURE END LIST*
D10*
X149000000Y-132500000D02*
X149000000Y-132919305D01*
X151000000Y-132500000D02*
X151000000Y-132919306D01*
X164434334Y-131277865D02*
X164435748Y-131276451D01*
X237987385Y-94268955D02*
G75*
G02*
X242187883Y-96884585I792454J-3408032D01*
G01*
X241417519Y-17512332D02*
X241551231Y-16098415D01*
X284604468Y-56846758D02*
X284604468Y-33073440D01*
X168410781Y-44919306D02*
X168410781Y-78808839D01*
X235369817Y-98469948D02*
G75*
G02*
X237985447Y-94269449I3408022J792461D01*
G01*
X235711764Y-99940537D02*
X235369817Y-98469948D01*
X237985437Y-94269408D02*
X237987385Y-94268955D01*
X284604468Y-87226170D02*
X284604468Y-63846758D01*
X151000000Y-113000000D02*
X151000000Y-128500000D01*
X248520138Y-16757455D02*
X248386426Y-18171372D01*
X164434334Y-136226199D02*
G75*
G02*
X164434334Y-131277865I2474230J2474167D01*
G01*
X151000000Y-95000000D02*
X151000000Y-109000000D01*
X242187925Y-96884575D02*
X242529872Y-98355164D01*
X168410781Y-78808839D02*
X151000000Y-91000000D01*
X179137311Y-38546870D02*
G75*
G02*
X174918057Y-35961563I-816972J3402283D01*
G01*
X244573542Y-21325404D02*
X244571551Y-21325216D01*
X203450678Y-24282839D02*
G75*
G02*
X181361707Y-32816054I-52450909J102917531D01*
G01*
X248386426Y-18171372D02*
G75*
G02*
X244573542Y-21325400I-3483387J329345D01*
G01*
X170445449Y-132337818D02*
X172566757Y-130216510D01*
X174918045Y-35961566D02*
X174555193Y-34450484D01*
X181724560Y-34327137D02*
G75*
G02*
X179139256Y-38546403I-3402221J-817020D01*
G01*
X284604468Y-63846758D02*
X283103468Y-63846758D01*
X279604468Y-60347758D02*
X279604468Y-60345758D01*
X284604468Y-87226170D02*
G75*
G02*
X283147134Y-89151180I-2000029J-17D01*
G01*
X172566757Y-130216510D02*
G75*
G02*
X216665032Y-104756357I69558442J-69558447D01*
G01*
X179139256Y-38546403D02*
X179137311Y-38546870D01*
X181361707Y-32816054D02*
X181724560Y-34327137D01*
X216665032Y-104756359D02*
G75*
G02*
X235711764Y-99940536I179715107J-670705828D01*
G01*
X242529872Y-98355164D02*
G75*
G02*
X261747346Y-94273641I153850967J-677110523D01*
G01*
X283103468Y-56846758D02*
X284604468Y-56846758D01*
X164435748Y-131276451D02*
G75*
G02*
X169384081Y-131276450I2474167J-2474168D01*
G01*
X248520138Y-16757455D02*
G75*
G02*
X283814840Y-31481271I-10619729J-75121392D01*
G01*
X151000000Y-36877676D02*
X151000000Y-44919306D01*
X244571551Y-21325216D02*
G75*
G02*
X241417516Y-17512332I329388J3483429D01*
G01*
X159838757Y-136580394D02*
X161606629Y-138348235D01*
X203450678Y-24282839D02*
G75*
G02*
X241551231Y-16098416I34449721J-67596088D01*
G01*
X174555193Y-34450484D02*
G75*
G02*
X151000000Y-36877676I-23555209J113084712D01*
G01*
X164435044Y-138348223D02*
G75*
G02*
X161606629Y-138348235I-1414214J1414290D01*
G01*
X283147124Y-89151144D02*
G75*
G02*
X261747346Y-94273643I-74984285J265993557D01*
G01*
X164435044Y-138348223D02*
X165495701Y-137287566D01*
X283814839Y-31481272D02*
G75*
G02*
X284604414Y-33073440I-1210400J-1592115D01*
G01*
X283103468Y-63846758D02*
G75*
G02*
X279604468Y-60347758I-29J3498971D01*
G01*
X165495701Y-137287566D02*
X164434334Y-136226199D01*
X151000000Y-44919306D02*
X168410781Y-44919306D01*
X279604468Y-60345758D02*
G75*
G02*
X283103468Y-56846816I3498971J-29D01*
G01*
X169384081Y-131276451D02*
X170445449Y-132337818D01*
X151000000Y-132919306D02*
G75*
G02*
X159838757Y-136580394I-1J-12500000D01*
G01*
X149000000Y-113000000D02*
X149000000Y-128500000D01*
X149000000Y-95000000D02*
X149000000Y-109000000D01*
X15395532Y-33073440D02*
G75*
G02*
X16185165Y-31481278I1999940J20D01*
G01*
X15395532Y-56846758D02*
X15395532Y-33073440D01*
X15395532Y-63846758D02*
X16896532Y-63846758D01*
X15395532Y-87226170D02*
X15395532Y-63846758D01*
X16185161Y-31481272D02*
G75*
G02*
X51479862Y-16757457I45914431J-60397578D01*
G01*
X16852876Y-89151144D02*
G75*
G02*
X15395527Y-87226170I542636J1924964D01*
G01*
X16896532Y-56846758D02*
X15395532Y-56846758D01*
X16896532Y-56846758D02*
G75*
G02*
X20395534Y-60345758I0J-3499002D01*
G01*
X20395532Y-60347758D02*
G75*
G02*
X16896532Y-63846760I-3499000J-2D01*
G01*
X20395532Y-60347758D02*
X20395532Y-60345758D01*
X38252654Y-94273641D02*
G75*
G02*
X16852877Y-89151142I53584518J271116121D01*
G01*
X38252654Y-94273641D02*
G75*
G02*
X57470128Y-98355164I-134633504J-681192028D01*
G01*
X51479862Y-16757455D02*
X51613574Y-18171372D01*
X55426458Y-21325404D02*
G75*
G02*
X51613575Y-18171372I-329486J3483384D01*
G01*
X55426458Y-21325404D02*
X55428449Y-21325216D01*
X57812075Y-96884575D02*
X57470128Y-98355164D01*
X57812075Y-96884575D02*
G75*
G02*
X62012622Y-94268924I3408097J-792445D01*
G01*
X58448769Y-16098415D02*
G75*
G02*
X96549323Y-24282837I3650833J-75780515D01*
G01*
X58582481Y-17512332D02*
G75*
G02*
X55428449Y-21325219I-3483459J-329428D01*
G01*
X58582481Y-17512332D02*
X58448769Y-16098415D01*
X62014563Y-94269408D02*
X62012615Y-94268955D01*
X62014563Y-94269408D02*
G75*
G02*
X64630198Y-98469951I-792491J-3408112D01*
G01*
X64288236Y-99940537D02*
X64630183Y-98469948D01*
X64288236Y-99940537D02*
G75*
G02*
X83334968Y-104756359I-160668340J-675521621D01*
G01*
X83334968Y-104756359D02*
G75*
G02*
X127433243Y-130216510I-25460166J-95018601D01*
G01*
X118638293Y-32816054D02*
G75*
G02*
X96549326Y-24282831I30361979J111450734D01*
G01*
X118638293Y-32816054D02*
X118275440Y-34327137D01*
X120860744Y-38546403D02*
G75*
G02*
X118275404Y-34327128I816928J3402283D01*
G01*
X120860744Y-38546403D02*
X120862689Y-38546870D01*
X125081955Y-35961566D02*
G75*
G02*
X120862684Y-38546893I-3402283J816946D01*
G01*
X125081955Y-35961566D02*
X125444807Y-34450484D01*
X129554551Y-132337818D02*
X127433243Y-130216510D01*
X130615919Y-131276451D02*
X129554551Y-132337818D01*
X130615919Y-131276451D02*
G75*
G02*
X135564252Y-131276450I2474167J-2474168D01*
G01*
X131589219Y-44919306D02*
X131589219Y-78808839D01*
X131589219Y-78808839D02*
X149000000Y-91000000D01*
X134504299Y-137287566D02*
X135565666Y-136226199D01*
X135564956Y-138348223D02*
X134504299Y-137287566D01*
X135565666Y-131277865D02*
X135564252Y-131276451D01*
X135565666Y-131277865D02*
G75*
G02*
X135565654Y-136226187I-2474194J-2474155D01*
G01*
X138393371Y-138348235D02*
G75*
G02*
X135564958Y-138348221I-1414199J1414315D01*
G01*
X140161243Y-136580394D02*
X138393371Y-138348235D01*
X140161243Y-136580394D02*
G75*
G02*
X149000000Y-132919330I8838729J-8838926D01*
G01*
X149000000Y-36877676D02*
G75*
G02*
X125444805Y-34450492I-28J115511856D01*
G01*
X149000000Y-36877676D02*
X149000000Y-44919306D01*
X149000000Y-44919306D02*
X131589219Y-44919306D01*
%TO.C,REF\u002A\u002A*%
X149000000Y-132500000D02*
G75*
G02*
X151000000Y-132500000I1000000J0D01*
G01*
X151000000Y-128500000D02*
G75*
G02*
X149000000Y-128500000I-1000000J0D01*
G01*
X149000000Y-113000000D02*
G75*
G02*
X151000000Y-113000000I1000000J0D01*
G01*
X151000000Y-109000000D02*
G75*
G02*
X149000000Y-109000000I-1000000J0D01*
G01*
X149000000Y-95000000D02*
G75*
G02*
X151000000Y-95000000I1000000J0D01*
G01*
X151000000Y-91000000D02*
G75*
G02*
X149000000Y-91000000I-1000000J0D01*
G01*
%TD*%
M02*
