%TF.GenerationSoftware,KiCad,Pcbnew,10.0.4-10.0.4~ubuntu26.04.1*%
%TF.CreationDate,2026-07-08T20:28:44-05:00*%
%TF.ProjectId,matrix_plate,6d617472-6978-45f7-906c-6174652e6b69,rev?*%
%TF.SameCoordinates,Original*%
%TF.FileFunction,Profile,NP*%
%FSLAX46Y46*%
G04 Gerber Fmt 4.6, Leading zero omitted, Abs format (unit mm)*
G04 Created by KiCad (PCBNEW 10.0.4-10.0.4~ubuntu26.04.1) date 2026-07-08 20:28:44*
%MOMM*%
%LPD*%
G01*
G04 APERTURE LIST*
%TA.AperFunction,Profile*%
%ADD10C,0.100000*%
%TD*%
G04 APERTURE END LIST*
D10*
X15395532Y-33073440D02*
G75*
G02*
X16185159Y-31481269I1999988J10D01*
G01*
X15395532Y-56846758D02*
X15395532Y-33073440D01*
X15395532Y-63846758D02*
X16896532Y-63846758D01*
X15395532Y-87226170D02*
X15395532Y-63846758D01*
X16185161Y-31481272D02*
G75*
G02*
X51479862Y-16757453I45914439J-60397578D01*
G01*
X16852876Y-89151144D02*
G75*
G02*
X15395537Y-87226170I542624J1924944D01*
G01*
X16896532Y-56846758D02*
X15395532Y-56846758D01*
X16896532Y-56846758D02*
G75*
G02*
X20395532Y-60345758I-2J-3499002D01*
G01*
X20395532Y-60347758D02*
G75*
G02*
X16896532Y-63846762I-3499002J-2D01*
G01*
X20395532Y-60347758D02*
X20395532Y-60345758D01*
X38252654Y-94273641D02*
G75*
G02*
X16852875Y-89151146I53584446J271116041D01*
G01*
X38252654Y-94273641D02*
G75*
G02*
X57470128Y-98355164I-134633504J-681192028D01*
G01*
X51479862Y-16757455D02*
X51613574Y-18171372D01*
X55426458Y-21325404D02*
G75*
G02*
X51613588Y-18171371I-329458J3483404D01*
G01*
X55426458Y-21325404D02*
X55428449Y-21325216D01*
X57812075Y-96884575D02*
X57470128Y-98355164D01*
X57812075Y-96884575D02*
G75*
G02*
X62012614Y-94268957I3408075J-792455D01*
G01*
X58448769Y-16098415D02*
G75*
G02*
X96549321Y-24282841I3650831J-75780485D01*
G01*
X58582481Y-17512332D02*
G75*
G02*
X55428449Y-21325221I-3483461J-329428D01*
G01*
X58582481Y-17512332D02*
X58448769Y-16098415D01*
X62014563Y-94269408D02*
X62012615Y-94268955D01*
X62014563Y-94269408D02*
G75*
G02*
X64630195Y-98469951I-792463J-3408092D01*
G01*
X64288236Y-99940537D02*
X64630183Y-98469948D01*
X64288236Y-99940537D02*
G75*
G02*
X83334968Y-104756359I-160668340J-675521621D01*
G01*
X83334968Y-104756359D02*
G75*
G02*
X127433242Y-130216511I-25460168J-95018601D01*
G01*
X118638293Y-32816054D02*
G75*
G02*
X96549319Y-24282845I30361907J111450754D01*
G01*
X118638293Y-32816054D02*
X118275440Y-34327137D01*
X120860744Y-38546403D02*
G75*
G02*
X118275518Y-34327156I816956J3402203D01*
G01*
X120860744Y-38546403D02*
X120862689Y-38546870D01*
X125081955Y-35961566D02*
G75*
G02*
X120862695Y-38546846I-3402255J816966D01*
G01*
X125081955Y-35961566D02*
X125444807Y-34450484D01*
X129554551Y-132337818D02*
X127433243Y-130216510D01*
X130615919Y-131276451D02*
X129554551Y-132337818D01*
X130615919Y-131276451D02*
G75*
G02*
X135564252Y-131276451I2474166J-2474168D01*
G01*
X131589219Y-44919306D02*
X131589219Y-78808839D01*
X131589219Y-78808839D02*
X149000000Y-91000000D01*
X134504299Y-137287566D02*
X135565666Y-136226199D01*
X135564956Y-138348223D02*
X134504299Y-137287566D01*
X135565666Y-131277865D02*
X135564252Y-131276451D01*
X135565666Y-131277865D02*
G75*
G02*
X135565664Y-136226197I-2474226J-2474165D01*
G01*
X138393371Y-138348235D02*
G75*
G02*
X135564986Y-138348193I-1414171J1414335D01*
G01*
X140161243Y-136580394D02*
X138393371Y-138348235D01*
X140161243Y-136580394D02*
G75*
G02*
X149000000Y-132919305I8838757J-8838906D01*
G01*
X149000000Y-36877676D02*
G75*
G02*
X125444806Y-34450487I0J115511876D01*
G01*
X149000000Y-36877676D02*
X149000000Y-44919306D01*
X149000000Y-44919306D02*
X131589219Y-44919306D01*
X149000000Y-95000000D02*
X149000000Y-109000000D01*
X149000000Y-113000000D02*
X149000000Y-128500000D01*
X149000000Y-132500000D02*
X149000000Y-132919305D01*
X151000000Y-36877676D02*
X151000000Y-44919306D01*
X151000000Y-44919306D02*
X168410781Y-44919306D01*
X151000000Y-95000000D02*
X151000000Y-109000000D01*
X151000000Y-113000000D02*
X151000000Y-128500000D01*
X151000000Y-132500000D02*
X151000000Y-132919306D01*
X151000000Y-132919306D02*
G75*
G02*
X159838756Y-136580395I0J-12499994D01*
G01*
X159838757Y-136580394D02*
X161606629Y-138348235D01*
X164434334Y-131277865D02*
X164435748Y-131276451D01*
X164434334Y-136226199D02*
G75*
G02*
X164434302Y-131277833I2474266J2474199D01*
G01*
X164435044Y-138348223D02*
G75*
G02*
X161606599Y-138348265I-1414244J1414323D01*
G01*
X164435044Y-138348223D02*
X165495701Y-137287566D01*
X164435748Y-131276451D02*
G75*
G02*
X169384081Y-131276450I2474167J-2474168D01*
G01*
X165495701Y-137287566D02*
X164434334Y-136226199D01*
X168410781Y-44919306D02*
X168410781Y-78808839D01*
X168410781Y-78808839D02*
X151000000Y-91000000D01*
X169384081Y-131276451D02*
X170445449Y-132337818D01*
X170445449Y-132337818D02*
X172566757Y-130216510D01*
X172566757Y-130216510D02*
G75*
G02*
X216665034Y-104756368I69558443J-69558490D01*
G01*
X174555193Y-34450484D02*
G75*
G02*
X151000000Y-36877673I-23555193J113084684D01*
G01*
X174918045Y-35961566D02*
X174555193Y-34450484D01*
X179137311Y-38546870D02*
G75*
G02*
X174918021Y-35961572I-817011J3402270D01*
G01*
X179139256Y-38546403D02*
X179137311Y-38546870D01*
X181361707Y-32816054D02*
X181724560Y-34327137D01*
X181724560Y-34327137D02*
G75*
G02*
X179139275Y-38546481I-3402260J-817063D01*
G01*
X203450678Y-24282839D02*
G75*
G02*
X181361705Y-32816048I-52450878J102917539D01*
G01*
X203450678Y-24282839D02*
G75*
G02*
X241551231Y-16098413I34449722J-67596061D01*
G01*
X216665032Y-104756359D02*
G75*
G02*
X235711764Y-99940537I179715068J-670705841D01*
G01*
X235369817Y-98469948D02*
G75*
G02*
X237985440Y-94269420I3408083J792448D01*
G01*
X235711764Y-99940537D02*
X235369817Y-98469948D01*
X237985437Y-94269408D02*
X237987385Y-94268955D01*
X237987385Y-94268955D02*
G75*
G02*
X242187847Y-96884593I792415J-3408045D01*
G01*
X241417519Y-17512332D02*
X241551231Y-16098415D01*
X242187925Y-96884575D02*
X242529872Y-98355164D01*
X242529872Y-98355164D02*
G75*
G02*
X261747346Y-94273643I153850928J-677110536D01*
G01*
X244571551Y-21325216D02*
G75*
G02*
X241417585Y-17512338I329449J3483416D01*
G01*
X244573542Y-21325404D02*
X244571551Y-21325216D01*
X248386426Y-18171372D02*
G75*
G02*
X244573541Y-21325418I-3483426J329372D01*
G01*
X248520138Y-16757455D02*
X248386426Y-18171372D01*
X248520138Y-16757455D02*
G75*
G02*
X283814844Y-31481266I-10619738J-75121445D01*
G01*
X279604468Y-60345758D02*
G75*
G02*
X283103468Y-56846768I3499032J-42D01*
G01*
X279604468Y-60347758D02*
X279604468Y-60345758D01*
X283103468Y-56846758D02*
X284604468Y-56846758D01*
X283103468Y-63846758D02*
G75*
G02*
X279604542Y-60347758I32J3498958D01*
G01*
X283147124Y-89151144D02*
G75*
G02*
X261747346Y-94273639I-74984224J265993544D01*
G01*
X283814839Y-31481272D02*
G75*
G02*
X284604448Y-33073440I-1210339J-1592128D01*
G01*
X284604468Y-56846758D02*
X284604468Y-33073440D01*
X284604468Y-63846758D02*
X283103468Y-63846758D01*
X284604468Y-87226170D02*
G75*
G02*
X283147125Y-89151149I-1999968J-30D01*
G01*
X284604468Y-87226170D02*
X284604468Y-63846758D01*
%TO.C,REF\u002A\u002A*%
X149000000Y-132500000D02*
G75*
G02*
X151000000Y-132500000I1000000J0D01*
G01*
X151000000Y-128500000D02*
G75*
G02*
X149000000Y-128500000I-1000000J0D01*
G01*
X149000000Y-113000000D02*
G75*
G02*
X151000000Y-113000000I1000000J0D01*
G01*
X151000000Y-109000000D02*
G75*
G02*
X149000000Y-109000000I-1000000J0D01*
G01*
X149000000Y-95000000D02*
G75*
G02*
X151000000Y-95000000I1000000J0D01*
G01*
X151000000Y-91000000D02*
G75*
G02*
X149000000Y-91000000I-1000000J0D01*
G01*
%TD*%
M02*
