%TF.GenerationSoftware,KiCad,Pcbnew,10.0.4-10.0.4~ubuntu26.04.1*%
%TF.CreationDate,2026-07-08T20:28:43-05:00*%
%TF.ProjectId,matrix_plate,6d617472-6978-45f7-906c-6174652e6b69,rev?*%
%TF.SameCoordinates,Original*%
%TF.FileFunction,Legend,Top*%
%TF.FilePolarity,Positive*%
%FSLAX46Y46*%
G04 Gerber Fmt 4.6, Leading zero omitted, Abs format (unit mm)*
G04 Created by KiCad (PCBNEW 10.0.4-10.0.4~ubuntu26.04.1) date 2026-07-08 20:28:43*
%MOMM*%
%LPD*%
G01*
G04 APERTURE LIST*
%ADD10C,0.150000*%
%ADD11C,0.140000*%
%ADD12C,0.120000*%
%ADD13C,0.254000*%
G04 APERTURE END LIST*
D10*
X177541163Y-85482642D02*
X177037814Y-85191939D01*
X177023273Y-85724138D02*
X176600655Y-84817830D01*
X176600655Y-84817830D02*
X176945915Y-84656833D01*
X176945915Y-84656833D02*
X177052355Y-84659741D01*
X177052355Y-84659741D02*
X177115637Y-84682774D01*
X177115637Y-84682774D02*
X177199044Y-84748964D01*
X177199044Y-84748964D02*
X177259418Y-84878437D01*
X177259418Y-84878437D02*
X177256510Y-84984876D01*
X177256510Y-84984876D02*
X177233477Y-85048158D01*
X177233477Y-85048158D02*
X177167287Y-85131565D01*
X177167287Y-85131565D02*
X176822027Y-85292563D01*
X177504055Y-84501652D02*
X177527088Y-84438369D01*
X177527088Y-84438369D02*
X177593278Y-84354962D01*
X177593278Y-84354962D02*
X177809065Y-84254339D01*
X177809065Y-84254339D02*
X177915505Y-84257247D01*
X177915505Y-84257247D02*
X177978787Y-84280280D01*
X177978787Y-84280280D02*
X178062194Y-84346470D01*
X178062194Y-84346470D02*
X178102444Y-84432785D01*
X178102444Y-84432785D02*
X178119660Y-84582383D01*
X178119660Y-84582383D02*
X177843266Y-85341769D01*
X177843266Y-85341769D02*
X178404314Y-85080148D01*
X43190475Y-39954819D02*
X42857142Y-39478628D01*
X42619047Y-39954819D02*
X42619047Y-38954819D01*
X42619047Y-38954819D02*
X42999999Y-38954819D01*
X42999999Y-38954819D02*
X43095237Y-39002438D01*
X43095237Y-39002438D02*
X43142856Y-39050057D01*
X43142856Y-39050057D02*
X43190475Y-39145295D01*
X43190475Y-39145295D02*
X43190475Y-39288152D01*
X43190475Y-39288152D02*
X43142856Y-39383390D01*
X43142856Y-39383390D02*
X43095237Y-39431009D01*
X43095237Y-39431009D02*
X42999999Y-39478628D01*
X42999999Y-39478628D02*
X42619047Y-39478628D01*
X43380952Y-40050057D02*
X44142856Y-40050057D01*
X44380952Y-39954819D02*
X44380952Y-38954819D01*
X44380952Y-38954819D02*
X44714285Y-39669104D01*
X44714285Y-39669104D02*
X45047618Y-38954819D01*
X45047618Y-38954819D02*
X45047618Y-39954819D01*
X45476190Y-39669104D02*
X45952380Y-39669104D01*
X45380952Y-39954819D02*
X45714285Y-38954819D01*
X45714285Y-38954819D02*
X46047618Y-39954819D01*
X46238095Y-38954819D02*
X46809523Y-38954819D01*
X46523809Y-39954819D02*
X46523809Y-38954819D01*
X46904762Y-40050057D02*
X47666666Y-40050057D01*
X47809524Y-38954819D02*
X48428571Y-38954819D01*
X48428571Y-38954819D02*
X48095238Y-39335771D01*
X48095238Y-39335771D02*
X48238095Y-39335771D01*
X48238095Y-39335771D02*
X48333333Y-39383390D01*
X48333333Y-39383390D02*
X48380952Y-39431009D01*
X48380952Y-39431009D02*
X48428571Y-39526247D01*
X48428571Y-39526247D02*
X48428571Y-39764342D01*
X48428571Y-39764342D02*
X48380952Y-39859580D01*
X48380952Y-39859580D02*
X48333333Y-39907200D01*
X48333333Y-39907200D02*
X48238095Y-39954819D01*
X48238095Y-39954819D02*
X47952381Y-39954819D01*
X47952381Y-39954819D02*
X47857143Y-39907200D01*
X47857143Y-39907200D02*
X47809524Y-39859580D01*
X162779585Y-108455826D02*
X162779585Y-108920112D01*
X162779585Y-108920112D02*
X162493871Y-108670112D01*
X162493871Y-108670112D02*
X162493871Y-108777255D01*
X162493871Y-108777255D02*
X162458157Y-108848684D01*
X162458157Y-108848684D02*
X162422442Y-108884398D01*
X162422442Y-108884398D02*
X162351014Y-108920112D01*
X162351014Y-108920112D02*
X162172442Y-108920112D01*
X162172442Y-108920112D02*
X162101014Y-108884398D01*
X162101014Y-108884398D02*
X162065300Y-108848684D01*
X162065300Y-108848684D02*
X162029585Y-108777255D01*
X162029585Y-108777255D02*
X162029585Y-108562969D01*
X162029585Y-108562969D02*
X162065300Y-108491541D01*
X162065300Y-108491541D02*
X162101014Y-108455826D01*
X162529585Y-109170112D02*
X162029585Y-109348684D01*
X162029585Y-109348684D02*
X162529585Y-109527255D01*
X162779585Y-109741541D02*
X162779585Y-110205827D01*
X162779585Y-110205827D02*
X162493871Y-109955827D01*
X162493871Y-109955827D02*
X162493871Y-110062970D01*
X162493871Y-110062970D02*
X162458157Y-110134399D01*
X162458157Y-110134399D02*
X162422442Y-110170113D01*
X162422442Y-110170113D02*
X162351014Y-110205827D01*
X162351014Y-110205827D02*
X162172442Y-110205827D01*
X162172442Y-110205827D02*
X162101014Y-110170113D01*
X162101014Y-110170113D02*
X162065300Y-110134399D01*
X162065300Y-110134399D02*
X162029585Y-110062970D01*
X162029585Y-110062970D02*
X162029585Y-109848684D01*
X162029585Y-109848684D02*
X162065300Y-109777256D01*
X162065300Y-109777256D02*
X162101014Y-109741541D01*
G36*
X163966108Y-107255746D02*
G01*
X162594180Y-107255746D01*
X162594180Y-107064396D01*
X162705363Y-107064396D01*
X162706621Y-107074292D01*
X162706621Y-107084267D01*
X162708450Y-107088682D01*
X162709053Y-107093426D01*
X162714003Y-107102090D01*
X162717820Y-107111303D01*
X162721198Y-107114681D01*
X162723572Y-107118835D01*
X162731461Y-107124944D01*
X162738512Y-107131995D01*
X162742928Y-107133824D01*
X162746709Y-107136752D01*
X162756332Y-107139376D01*
X162765548Y-107143194D01*
X162773030Y-107143930D01*
X162774941Y-107144452D01*
X162776416Y-107144264D01*
X162780180Y-107144635D01*
X163780180Y-107144635D01*
X163794812Y-107143194D01*
X163821848Y-107131995D01*
X163842540Y-107111303D01*
X163853739Y-107084267D01*
X163853739Y-107055003D01*
X163842540Y-107027967D01*
X163821848Y-107007275D01*
X163794812Y-106996076D01*
X163780180Y-106994635D01*
X163062597Y-106994635D01*
X163817391Y-106563325D01*
X163820475Y-106561135D01*
X163821848Y-106560567D01*
X163823245Y-106559169D01*
X163829380Y-106554815D01*
X163835488Y-106546926D01*
X163842540Y-106539875D01*
X163844370Y-106535456D01*
X163847297Y-106531677D01*
X163849921Y-106522055D01*
X163853739Y-106512839D01*
X163853739Y-106508058D01*
X163854997Y-106503446D01*
X163853739Y-106493549D01*
X163853739Y-106483575D01*
X163851909Y-106479159D01*
X163851307Y-106474416D01*
X163846356Y-106465751D01*
X163842540Y-106456539D01*
X163839161Y-106453160D01*
X163836788Y-106449007D01*
X163828898Y-106442897D01*
X163821848Y-106435847D01*
X163817431Y-106434017D01*
X163813651Y-106431090D01*
X163804027Y-106428465D01*
X163794812Y-106424648D01*
X163787329Y-106423911D01*
X163785419Y-106423390D01*
X163783943Y-106423577D01*
X163780180Y-106423207D01*
X162780180Y-106423207D01*
X162765548Y-106424648D01*
X162738512Y-106435847D01*
X162717820Y-106456539D01*
X162706621Y-106483575D01*
X162706621Y-106512839D01*
X162717820Y-106539875D01*
X162738512Y-106560567D01*
X162765548Y-106571766D01*
X162780180Y-106573207D01*
X163497763Y-106573207D01*
X162742970Y-107004517D01*
X162739886Y-107006705D01*
X162738512Y-107007275D01*
X162737112Y-107008674D01*
X162730980Y-107013027D01*
X162724870Y-107020916D01*
X162717820Y-107027967D01*
X162715990Y-107032383D01*
X162713063Y-107036164D01*
X162710438Y-107045787D01*
X162706621Y-107055003D01*
X162706621Y-107059783D01*
X162705363Y-107064396D01*
X162594180Y-107064396D01*
X162594180Y-106007385D01*
X162706621Y-106007385D01*
X162706621Y-106036649D01*
X162717820Y-106063685D01*
X162738512Y-106084377D01*
X162765548Y-106095576D01*
X162780180Y-106097017D01*
X163780180Y-106097017D01*
X163794812Y-106095576D01*
X163821848Y-106084377D01*
X163842540Y-106063685D01*
X163853739Y-106036649D01*
X163853739Y-106007385D01*
X163842540Y-105980349D01*
X163821848Y-105959657D01*
X163794812Y-105948458D01*
X163780180Y-105947017D01*
X162780180Y-105947017D01*
X162765548Y-105948458D01*
X162738512Y-105959657D01*
X162717820Y-105980349D01*
X162706621Y-106007385D01*
X162594180Y-106007385D01*
X162594180Y-104835622D01*
X162705291Y-104835622D01*
X162712554Y-104863970D01*
X162730112Y-104887381D01*
X162755293Y-104902290D01*
X162784262Y-104906429D01*
X162812610Y-104899166D01*
X162825180Y-104891540D01*
X163344571Y-104501997D01*
X163727147Y-104884573D01*
X163738512Y-104893900D01*
X163765548Y-104905099D01*
X163794811Y-104905099D01*
X163821848Y-104893900D01*
X163842540Y-104873208D01*
X163853739Y-104846171D01*
X163853739Y-104816908D01*
X163842540Y-104789872D01*
X163833213Y-104778507D01*
X163389818Y-104335112D01*
X163780180Y-104335112D01*
X163794812Y-104333671D01*
X163821848Y-104322472D01*
X163842540Y-104301780D01*
X163853739Y-104274744D01*
X163853739Y-104245480D01*
X163842540Y-104218444D01*
X163821848Y-104197752D01*
X163794812Y-104186553D01*
X163780180Y-104185112D01*
X162780180Y-104185112D01*
X162765548Y-104186553D01*
X162738512Y-104197752D01*
X162717820Y-104218444D01*
X162706621Y-104245480D01*
X162706621Y-104274744D01*
X162717820Y-104301780D01*
X162738512Y-104322472D01*
X162765548Y-104333671D01*
X162780180Y-104335112D01*
X163177686Y-104335112D01*
X163237428Y-104394854D01*
X162735180Y-104771540D01*
X162724339Y-104781472D01*
X162709430Y-104806653D01*
X162705291Y-104835622D01*
X162594180Y-104835622D01*
X162594180Y-103769290D01*
X162706621Y-103769290D01*
X162706621Y-103798554D01*
X162717820Y-103825590D01*
X162738512Y-103846282D01*
X162765548Y-103857481D01*
X162780180Y-103858922D01*
X163780180Y-103858922D01*
X163794812Y-103857481D01*
X163821848Y-103846282D01*
X163842540Y-103825590D01*
X163853739Y-103798554D01*
X163853739Y-103769290D01*
X163842540Y-103742254D01*
X163821848Y-103721562D01*
X163794812Y-103710363D01*
X163780180Y-103708922D01*
X162780180Y-103708922D01*
X162765548Y-103710363D01*
X162738512Y-103721562D01*
X162717820Y-103742254D01*
X162706621Y-103769290D01*
X162594180Y-103769290D01*
X162594180Y-103107875D01*
X162705769Y-103107875D01*
X162706435Y-103117255D01*
X162705769Y-103126635D01*
X162707464Y-103131720D01*
X162707844Y-103137065D01*
X162712048Y-103145474D01*
X162715023Y-103154398D01*
X162718534Y-103158446D01*
X162720930Y-103163238D01*
X162728034Y-103169400D01*
X162734197Y-103176505D01*
X162738988Y-103178900D01*
X162743037Y-103182412D01*
X162756463Y-103188406D01*
X163756463Y-103521739D01*
X163770799Y-103524999D01*
X163799989Y-103522924D01*
X163826163Y-103509838D01*
X163845337Y-103487730D01*
X163854591Y-103459968D01*
X163852516Y-103430778D01*
X163839429Y-103404605D01*
X163817322Y-103385431D01*
X163803897Y-103379437D01*
X163017350Y-103117255D01*
X163803897Y-102855073D01*
X163817322Y-102849079D01*
X163839429Y-102829905D01*
X163852516Y-102803732D01*
X163854591Y-102774542D01*
X163845337Y-102746780D01*
X163826163Y-102724672D01*
X163799989Y-102711586D01*
X163770799Y-102709511D01*
X163756463Y-102712771D01*
X162756463Y-103046104D01*
X162743037Y-103052098D01*
X162738988Y-103055609D01*
X162734197Y-103058005D01*
X162728034Y-103065109D01*
X162720930Y-103071272D01*
X162718534Y-103076063D01*
X162715023Y-103080112D01*
X162712048Y-103089035D01*
X162707844Y-103097445D01*
X162707464Y-103102789D01*
X162705769Y-103107875D01*
X162594180Y-103107875D01*
X162594180Y-102598400D01*
X163966108Y-102598400D01*
X163966108Y-107255746D01*
G37*
X251214285Y-43954819D02*
X250880952Y-43478628D01*
X250642857Y-43954819D02*
X250642857Y-42954819D01*
X250642857Y-42954819D02*
X251023809Y-42954819D01*
X251023809Y-42954819D02*
X251119047Y-43002438D01*
X251119047Y-43002438D02*
X251166666Y-43050057D01*
X251166666Y-43050057D02*
X251214285Y-43145295D01*
X251214285Y-43145295D02*
X251214285Y-43288152D01*
X251214285Y-43288152D02*
X251166666Y-43383390D01*
X251166666Y-43383390D02*
X251119047Y-43431009D01*
X251119047Y-43431009D02*
X251023809Y-43478628D01*
X251023809Y-43478628D02*
X250642857Y-43478628D01*
X251404762Y-44050057D02*
X252166666Y-44050057D01*
X252404762Y-43954819D02*
X252404762Y-42954819D01*
X252404762Y-42954819D02*
X252738095Y-43669104D01*
X252738095Y-43669104D02*
X253071428Y-42954819D01*
X253071428Y-42954819D02*
X253071428Y-43954819D01*
X253500000Y-43669104D02*
X253976190Y-43669104D01*
X253404762Y-43954819D02*
X253738095Y-42954819D01*
X253738095Y-42954819D02*
X254071428Y-43954819D01*
X254261905Y-42954819D02*
X254833333Y-42954819D01*
X254547619Y-43954819D02*
X254547619Y-42954819D01*
X254928572Y-44050057D02*
X255690476Y-44050057D01*
X256452381Y-43954819D02*
X255880953Y-43954819D01*
X256166667Y-43954819D02*
X256166667Y-42954819D01*
X256166667Y-42954819D02*
X256071429Y-43097676D01*
X256071429Y-43097676D02*
X255976191Y-43192914D01*
X255976191Y-43192914D02*
X255880953Y-43240533D01*
X257357143Y-42954819D02*
X256880953Y-42954819D01*
X256880953Y-42954819D02*
X256833334Y-43431009D01*
X256833334Y-43431009D02*
X256880953Y-43383390D01*
X256880953Y-43383390D02*
X256976191Y-43335771D01*
X256976191Y-43335771D02*
X257214286Y-43335771D01*
X257214286Y-43335771D02*
X257309524Y-43383390D01*
X257309524Y-43383390D02*
X257357143Y-43431009D01*
X257357143Y-43431009D02*
X257404762Y-43526247D01*
X257404762Y-43526247D02*
X257404762Y-43764342D01*
X257404762Y-43764342D02*
X257357143Y-43859580D01*
X257357143Y-43859580D02*
X257309524Y-43907200D01*
X257309524Y-43907200D02*
X257214286Y-43954819D01*
X257214286Y-43954819D02*
X256976191Y-43954819D01*
X256976191Y-43954819D02*
X256880953Y-43907200D01*
X256880953Y-43907200D02*
X256833334Y-43859580D01*
X43214285Y-52454819D02*
X42880952Y-51978628D01*
X42642857Y-52454819D02*
X42642857Y-51454819D01*
X42642857Y-51454819D02*
X43023809Y-51454819D01*
X43023809Y-51454819D02*
X43119047Y-51502438D01*
X43119047Y-51502438D02*
X43166666Y-51550057D01*
X43166666Y-51550057D02*
X43214285Y-51645295D01*
X43214285Y-51645295D02*
X43214285Y-51788152D01*
X43214285Y-51788152D02*
X43166666Y-51883390D01*
X43166666Y-51883390D02*
X43119047Y-51931009D01*
X43119047Y-51931009D02*
X43023809Y-51978628D01*
X43023809Y-51978628D02*
X42642857Y-51978628D01*
X43404762Y-52550057D02*
X44166666Y-52550057D01*
X44404762Y-52454819D02*
X44404762Y-51454819D01*
X44404762Y-51454819D02*
X44738095Y-52169104D01*
X44738095Y-52169104D02*
X45071428Y-51454819D01*
X45071428Y-51454819D02*
X45071428Y-52454819D01*
X45500000Y-52169104D02*
X45976190Y-52169104D01*
X45404762Y-52454819D02*
X45738095Y-51454819D01*
X45738095Y-51454819D02*
X46071428Y-52454819D01*
X46261905Y-51454819D02*
X46833333Y-51454819D01*
X46547619Y-52454819D02*
X46547619Y-51454819D01*
X46928572Y-52550057D02*
X47690476Y-52550057D01*
X48452381Y-52454819D02*
X47880953Y-52454819D01*
X48166667Y-52454819D02*
X48166667Y-51454819D01*
X48166667Y-51454819D02*
X48071429Y-51597676D01*
X48071429Y-51597676D02*
X47976191Y-51692914D01*
X47976191Y-51692914D02*
X47880953Y-51740533D01*
X49309524Y-51788152D02*
X49309524Y-52454819D01*
X49071429Y-51407200D02*
X48833334Y-52121485D01*
X48833334Y-52121485D02*
X49452381Y-52121485D01*
X43190475Y-54954819D02*
X42857142Y-54478628D01*
X42619047Y-54954819D02*
X42619047Y-53954819D01*
X42619047Y-53954819D02*
X42999999Y-53954819D01*
X42999999Y-53954819D02*
X43095237Y-54002438D01*
X43095237Y-54002438D02*
X43142856Y-54050057D01*
X43142856Y-54050057D02*
X43190475Y-54145295D01*
X43190475Y-54145295D02*
X43190475Y-54288152D01*
X43190475Y-54288152D02*
X43142856Y-54383390D01*
X43142856Y-54383390D02*
X43095237Y-54431009D01*
X43095237Y-54431009D02*
X42999999Y-54478628D01*
X42999999Y-54478628D02*
X42619047Y-54478628D01*
X43380952Y-55050057D02*
X44142856Y-55050057D01*
X44380952Y-54954819D02*
X44380952Y-53954819D01*
X44380952Y-53954819D02*
X44714285Y-54669104D01*
X44714285Y-54669104D02*
X45047618Y-53954819D01*
X45047618Y-53954819D02*
X45047618Y-54954819D01*
X45476190Y-54669104D02*
X45952380Y-54669104D01*
X45380952Y-54954819D02*
X45714285Y-53954819D01*
X45714285Y-53954819D02*
X46047618Y-54954819D01*
X46238095Y-53954819D02*
X46809523Y-53954819D01*
X46523809Y-54954819D02*
X46523809Y-53954819D01*
X46904762Y-55050057D02*
X47666666Y-55050057D01*
X48333333Y-54288152D02*
X48333333Y-54954819D01*
X48095238Y-53907200D02*
X47857143Y-54621485D01*
X47857143Y-54621485D02*
X48476190Y-54621485D01*
X158404761Y-37954819D02*
X158404761Y-38669104D01*
X158404761Y-38669104D02*
X158357142Y-38811961D01*
X158357142Y-38811961D02*
X158261904Y-38907200D01*
X158261904Y-38907200D02*
X158119047Y-38954819D01*
X158119047Y-38954819D02*
X158023809Y-38954819D01*
X158642857Y-39050057D02*
X159404761Y-39050057D01*
X159642857Y-37954819D02*
X159642857Y-38764342D01*
X159642857Y-38764342D02*
X159690476Y-38859580D01*
X159690476Y-38859580D02*
X159738095Y-38907200D01*
X159738095Y-38907200D02*
X159833333Y-38954819D01*
X159833333Y-38954819D02*
X160023809Y-38954819D01*
X160023809Y-38954819D02*
X160119047Y-38907200D01*
X160119047Y-38907200D02*
X160166666Y-38859580D01*
X160166666Y-38859580D02*
X160214285Y-38764342D01*
X160214285Y-38764342D02*
X160214285Y-37954819D01*
X160642857Y-38907200D02*
X160785714Y-38954819D01*
X160785714Y-38954819D02*
X161023809Y-38954819D01*
X161023809Y-38954819D02*
X161119047Y-38907200D01*
X161119047Y-38907200D02*
X161166666Y-38859580D01*
X161166666Y-38859580D02*
X161214285Y-38764342D01*
X161214285Y-38764342D02*
X161214285Y-38669104D01*
X161214285Y-38669104D02*
X161166666Y-38573866D01*
X161166666Y-38573866D02*
X161119047Y-38526247D01*
X161119047Y-38526247D02*
X161023809Y-38478628D01*
X161023809Y-38478628D02*
X160833333Y-38431009D01*
X160833333Y-38431009D02*
X160738095Y-38383390D01*
X160738095Y-38383390D02*
X160690476Y-38335771D01*
X160690476Y-38335771D02*
X160642857Y-38240533D01*
X160642857Y-38240533D02*
X160642857Y-38145295D01*
X160642857Y-38145295D02*
X160690476Y-38050057D01*
X160690476Y-38050057D02*
X160738095Y-38002438D01*
X160738095Y-38002438D02*
X160833333Y-37954819D01*
X160833333Y-37954819D02*
X161071428Y-37954819D01*
X161071428Y-37954819D02*
X161214285Y-38002438D01*
X161976190Y-38431009D02*
X162119047Y-38478628D01*
X162119047Y-38478628D02*
X162166666Y-38526247D01*
X162166666Y-38526247D02*
X162214285Y-38621485D01*
X162214285Y-38621485D02*
X162214285Y-38764342D01*
X162214285Y-38764342D02*
X162166666Y-38859580D01*
X162166666Y-38859580D02*
X162119047Y-38907200D01*
X162119047Y-38907200D02*
X162023809Y-38954819D01*
X162023809Y-38954819D02*
X161642857Y-38954819D01*
X161642857Y-38954819D02*
X161642857Y-37954819D01*
X161642857Y-37954819D02*
X161976190Y-37954819D01*
X161976190Y-37954819D02*
X162071428Y-38002438D01*
X162071428Y-38002438D02*
X162119047Y-38050057D01*
X162119047Y-38050057D02*
X162166666Y-38145295D01*
X162166666Y-38145295D02*
X162166666Y-38240533D01*
X162166666Y-38240533D02*
X162119047Y-38335771D01*
X162119047Y-38335771D02*
X162071428Y-38383390D01*
X162071428Y-38383390D02*
X161976190Y-38431009D01*
X161976190Y-38431009D02*
X161642857Y-38431009D01*
X162404762Y-39050057D02*
X163166666Y-39050057D01*
X163928571Y-38954819D02*
X163357143Y-38954819D01*
X163642857Y-38954819D02*
X163642857Y-37954819D01*
X163642857Y-37954819D02*
X163547619Y-38097676D01*
X163547619Y-38097676D02*
X163452381Y-38192914D01*
X163452381Y-38192914D02*
X163357143Y-38240533D01*
X43214285Y-49954819D02*
X42880952Y-49478628D01*
X42642857Y-49954819D02*
X42642857Y-48954819D01*
X42642857Y-48954819D02*
X43023809Y-48954819D01*
X43023809Y-48954819D02*
X43119047Y-49002438D01*
X43119047Y-49002438D02*
X43166666Y-49050057D01*
X43166666Y-49050057D02*
X43214285Y-49145295D01*
X43214285Y-49145295D02*
X43214285Y-49288152D01*
X43214285Y-49288152D02*
X43166666Y-49383390D01*
X43166666Y-49383390D02*
X43119047Y-49431009D01*
X43119047Y-49431009D02*
X43023809Y-49478628D01*
X43023809Y-49478628D02*
X42642857Y-49478628D01*
X43404762Y-50050057D02*
X44166666Y-50050057D01*
X44404762Y-49954819D02*
X44404762Y-48954819D01*
X44404762Y-48954819D02*
X44738095Y-49669104D01*
X44738095Y-49669104D02*
X45071428Y-48954819D01*
X45071428Y-48954819D02*
X45071428Y-49954819D01*
X45500000Y-49669104D02*
X45976190Y-49669104D01*
X45404762Y-49954819D02*
X45738095Y-48954819D01*
X45738095Y-48954819D02*
X46071428Y-49954819D01*
X46261905Y-48954819D02*
X46833333Y-48954819D01*
X46547619Y-49954819D02*
X46547619Y-48954819D01*
X46928572Y-50050057D02*
X47690476Y-50050057D01*
X47880953Y-49050057D02*
X47928572Y-49002438D01*
X47928572Y-49002438D02*
X48023810Y-48954819D01*
X48023810Y-48954819D02*
X48261905Y-48954819D01*
X48261905Y-48954819D02*
X48357143Y-49002438D01*
X48357143Y-49002438D02*
X48404762Y-49050057D01*
X48404762Y-49050057D02*
X48452381Y-49145295D01*
X48452381Y-49145295D02*
X48452381Y-49240533D01*
X48452381Y-49240533D02*
X48404762Y-49383390D01*
X48404762Y-49383390D02*
X47833334Y-49954819D01*
X47833334Y-49954819D02*
X48452381Y-49954819D01*
X49309524Y-49288152D02*
X49309524Y-49954819D01*
X49071429Y-48907200D02*
X48833334Y-49621485D01*
X48833334Y-49621485D02*
X49452381Y-49621485D01*
X47379819Y-31904761D02*
X48189342Y-31904761D01*
X48189342Y-31904761D02*
X48284580Y-31857142D01*
X48284580Y-31857142D02*
X48332200Y-31809523D01*
X48332200Y-31809523D02*
X48379819Y-31714285D01*
X48379819Y-31714285D02*
X48379819Y-31523809D01*
X48379819Y-31523809D02*
X48332200Y-31428571D01*
X48332200Y-31428571D02*
X48284580Y-31380952D01*
X48284580Y-31380952D02*
X48189342Y-31333333D01*
X48189342Y-31333333D02*
X47379819Y-31333333D01*
X48475057Y-31095238D02*
X48475057Y-30333333D01*
X48379819Y-30095237D02*
X47379819Y-30095237D01*
X47379819Y-30095237D02*
X48094104Y-29761904D01*
X48094104Y-29761904D02*
X47379819Y-29428571D01*
X47379819Y-29428571D02*
X48379819Y-29428571D01*
X48094104Y-28999999D02*
X48094104Y-28523809D01*
X48379819Y-29095237D02*
X47379819Y-28761904D01*
X47379819Y-28761904D02*
X48379819Y-28428571D01*
X47379819Y-28238094D02*
X47379819Y-27666666D01*
X48379819Y-27952380D02*
X47379819Y-27952380D01*
X48475057Y-27571428D02*
X48475057Y-26809523D01*
X47475057Y-26619046D02*
X47427438Y-26571427D01*
X47427438Y-26571427D02*
X47379819Y-26476189D01*
X47379819Y-26476189D02*
X47379819Y-26238094D01*
X47379819Y-26238094D02*
X47427438Y-26142856D01*
X47427438Y-26142856D02*
X47475057Y-26095237D01*
X47475057Y-26095237D02*
X47570295Y-26047618D01*
X47570295Y-26047618D02*
X47665533Y-26047618D01*
X47665533Y-26047618D02*
X47808390Y-26095237D01*
X47808390Y-26095237D02*
X48379819Y-26666665D01*
X48379819Y-26666665D02*
X48379819Y-26047618D01*
X179262560Y-88592785D02*
X178839942Y-87686477D01*
X178839942Y-87686477D02*
X179055730Y-87585854D01*
X179055730Y-87585854D02*
X179205327Y-87568637D01*
X179205327Y-87568637D02*
X179331891Y-87614703D01*
X179331891Y-87614703D02*
X179415298Y-87680893D01*
X179415298Y-87680893D02*
X179538954Y-87833399D01*
X179538954Y-87833399D02*
X179599328Y-87962871D01*
X179599328Y-87962871D02*
X179636670Y-88155626D01*
X179636670Y-88155626D02*
X179633761Y-88262066D01*
X179633761Y-88262066D02*
X179587696Y-88388630D01*
X179587696Y-88388630D02*
X179478348Y-88492161D01*
X179478348Y-88492161D02*
X179262560Y-88592785D01*
X179743342Y-87370299D02*
X179766375Y-87307016D01*
X179766375Y-87307016D02*
X179832565Y-87223609D01*
X179832565Y-87223609D02*
X180048352Y-87122986D01*
X180048352Y-87122986D02*
X180154792Y-87125894D01*
X180154792Y-87125894D02*
X180218074Y-87148927D01*
X180218074Y-87148927D02*
X180301481Y-87215117D01*
X180301481Y-87215117D02*
X180341731Y-87301432D01*
X180341731Y-87301432D02*
X180358947Y-87451030D01*
X180358947Y-87451030D02*
X180082553Y-88210416D01*
X180082553Y-88210416D02*
X180643601Y-87948795D01*
G36*
X137405819Y-107301599D02*
G01*
X136033891Y-107301599D01*
X136033891Y-106440031D01*
X136145408Y-106440031D01*
X136147483Y-106469221D01*
X136160569Y-106495394D01*
X136182676Y-106514568D01*
X136196102Y-106520562D01*
X136982648Y-106782744D01*
X136196102Y-107044926D01*
X136182676Y-107050920D01*
X136160569Y-107070094D01*
X136147483Y-107096267D01*
X136145408Y-107125457D01*
X136154662Y-107153220D01*
X136173836Y-107175327D01*
X136200009Y-107188413D01*
X136229199Y-107190488D01*
X136243536Y-107187228D01*
X137243536Y-106853895D01*
X137256961Y-106847901D01*
X137261008Y-106844390D01*
X137265802Y-106841994D01*
X137271966Y-106834886D01*
X137279068Y-106828727D01*
X137281463Y-106823935D01*
X137284976Y-106819886D01*
X137287950Y-106810963D01*
X137292155Y-106802554D01*
X137292534Y-106797209D01*
X137294230Y-106792124D01*
X137293563Y-106782744D01*
X137294230Y-106773364D01*
X137292534Y-106768278D01*
X137292155Y-106762934D01*
X137287950Y-106754524D01*
X137284976Y-106745602D01*
X137281463Y-106741552D01*
X137279068Y-106736761D01*
X137271966Y-106730601D01*
X137265802Y-106723494D01*
X137261008Y-106721097D01*
X137256961Y-106717587D01*
X137243536Y-106711593D01*
X136243536Y-106378260D01*
X136229199Y-106375000D01*
X136200009Y-106377075D01*
X136173836Y-106390161D01*
X136154662Y-106412268D01*
X136145408Y-106440031D01*
X136033891Y-106440031D01*
X136033891Y-106101445D01*
X136146260Y-106101445D01*
X136146260Y-106130709D01*
X136157459Y-106157745D01*
X136178151Y-106178437D01*
X136205187Y-106189636D01*
X136219819Y-106191077D01*
X137219819Y-106191077D01*
X137234451Y-106189636D01*
X137261487Y-106178437D01*
X137282179Y-106157745D01*
X137293378Y-106130709D01*
X137293378Y-106101445D01*
X137282179Y-106074409D01*
X137261487Y-106053717D01*
X137234451Y-106042518D01*
X137219819Y-106041077D01*
X136219819Y-106041077D01*
X136205187Y-106042518D01*
X136178151Y-106053717D01*
X136157459Y-106074409D01*
X136146260Y-106101445D01*
X136033891Y-106101445D01*
X136033891Y-105053828D01*
X136146260Y-105053828D01*
X136146260Y-105083090D01*
X136157459Y-105110127D01*
X136166786Y-105121492D01*
X136610181Y-105564887D01*
X136219819Y-105564887D01*
X136205187Y-105566328D01*
X136178151Y-105577527D01*
X136157459Y-105598219D01*
X136146260Y-105625255D01*
X136146260Y-105654519D01*
X136157459Y-105681555D01*
X136178151Y-105702247D01*
X136205187Y-105713446D01*
X136219819Y-105714887D01*
X137219819Y-105714887D01*
X137234451Y-105713446D01*
X137261487Y-105702247D01*
X137282179Y-105681555D01*
X137293378Y-105654519D01*
X137293378Y-105625255D01*
X137282179Y-105598219D01*
X137261487Y-105577527D01*
X137234451Y-105566328D01*
X137219819Y-105564887D01*
X136822313Y-105564887D01*
X136762570Y-105505144D01*
X137264819Y-105128459D01*
X137275660Y-105118527D01*
X137290570Y-105093346D01*
X137294708Y-105064377D01*
X137287446Y-105036029D01*
X137269887Y-105012618D01*
X137244706Y-104997709D01*
X137215738Y-104993570D01*
X137187389Y-105000832D01*
X137174819Y-105008459D01*
X136655427Y-105398001D01*
X136272852Y-105015426D01*
X136261487Y-105006099D01*
X136234450Y-104994900D01*
X136205188Y-104994900D01*
X136178151Y-105006099D01*
X136157459Y-105026791D01*
X136146260Y-105053828D01*
X136033891Y-105053828D01*
X136033891Y-103863350D01*
X136146260Y-103863350D01*
X136146260Y-103892614D01*
X136157459Y-103919650D01*
X136178151Y-103940342D01*
X136205187Y-103951541D01*
X136219819Y-103952982D01*
X137219819Y-103952982D01*
X137234451Y-103951541D01*
X137261487Y-103940342D01*
X137282179Y-103919650D01*
X137293378Y-103892614D01*
X137293378Y-103863350D01*
X137282179Y-103836314D01*
X137261487Y-103815622D01*
X137234451Y-103804423D01*
X137219819Y-103802982D01*
X136219819Y-103802982D01*
X136205187Y-103804423D01*
X136178151Y-103815622D01*
X136157459Y-103836314D01*
X136146260Y-103863350D01*
X136033891Y-103863350D01*
X136033891Y-103396553D01*
X136145002Y-103396553D01*
X136146260Y-103406449D01*
X136146260Y-103416424D01*
X136148089Y-103420839D01*
X136148692Y-103425583D01*
X136153642Y-103434247D01*
X136157459Y-103443460D01*
X136160837Y-103446838D01*
X136163211Y-103450992D01*
X136171100Y-103457101D01*
X136178151Y-103464152D01*
X136182567Y-103465981D01*
X136186348Y-103468909D01*
X136195971Y-103471533D01*
X136205187Y-103475351D01*
X136212669Y-103476087D01*
X136214580Y-103476609D01*
X136216055Y-103476421D01*
X136219819Y-103476792D01*
X137219819Y-103476792D01*
X137234451Y-103475351D01*
X137261487Y-103464152D01*
X137282179Y-103443460D01*
X137293378Y-103416424D01*
X137293378Y-103387160D01*
X137282179Y-103360124D01*
X137261487Y-103339432D01*
X137234451Y-103328233D01*
X137219819Y-103326792D01*
X136502236Y-103326792D01*
X137257030Y-102895482D01*
X137260114Y-102893292D01*
X137261487Y-102892724D01*
X137262884Y-102891326D01*
X137269019Y-102886972D01*
X137275127Y-102879083D01*
X137282179Y-102872032D01*
X137284009Y-102867613D01*
X137286936Y-102863834D01*
X137289560Y-102854212D01*
X137293378Y-102844996D01*
X137293378Y-102840215D01*
X137294636Y-102835603D01*
X137293378Y-102825706D01*
X137293378Y-102815732D01*
X137291548Y-102811316D01*
X137290946Y-102806573D01*
X137285995Y-102797908D01*
X137282179Y-102788696D01*
X137278800Y-102785317D01*
X137276427Y-102781164D01*
X137268537Y-102775054D01*
X137261487Y-102768004D01*
X137257070Y-102766174D01*
X137253290Y-102763247D01*
X137243666Y-102760622D01*
X137234451Y-102756805D01*
X137226968Y-102756068D01*
X137225058Y-102755547D01*
X137223582Y-102755734D01*
X137219819Y-102755364D01*
X136219819Y-102755364D01*
X136205187Y-102756805D01*
X136178151Y-102768004D01*
X136157459Y-102788696D01*
X136146260Y-102815732D01*
X136146260Y-102844996D01*
X136157459Y-102872032D01*
X136178151Y-102892724D01*
X136205187Y-102903923D01*
X136219819Y-102905364D01*
X136937402Y-102905364D01*
X136182609Y-103336674D01*
X136179525Y-103338862D01*
X136178151Y-103339432D01*
X136176751Y-103340831D01*
X136170619Y-103345184D01*
X136164509Y-103353073D01*
X136157459Y-103360124D01*
X136155629Y-103364540D01*
X136152702Y-103368321D01*
X136150077Y-103377944D01*
X136146260Y-103387160D01*
X136146260Y-103391940D01*
X136145002Y-103396553D01*
X136033891Y-103396553D01*
X136033891Y-102644253D01*
X137405819Y-102644253D01*
X137405819Y-107301599D01*
G37*
X137220414Y-101444173D02*
X137220414Y-100979887D01*
X137220414Y-100979887D02*
X137506128Y-101229887D01*
X137506128Y-101229887D02*
X137506128Y-101122744D01*
X137506128Y-101122744D02*
X137541842Y-101051316D01*
X137541842Y-101051316D02*
X137577557Y-101015601D01*
X137577557Y-101015601D02*
X137648985Y-100979887D01*
X137648985Y-100979887D02*
X137827557Y-100979887D01*
X137827557Y-100979887D02*
X137898985Y-101015601D01*
X137898985Y-101015601D02*
X137934700Y-101051316D01*
X137934700Y-101051316D02*
X137970414Y-101122744D01*
X137970414Y-101122744D02*
X137970414Y-101337030D01*
X137970414Y-101337030D02*
X137934700Y-101408458D01*
X137934700Y-101408458D02*
X137898985Y-101444173D01*
X137470414Y-100729887D02*
X137970414Y-100551315D01*
X137970414Y-100551315D02*
X137470414Y-100372744D01*
X137220414Y-100158458D02*
X137220414Y-99694172D01*
X137220414Y-99694172D02*
X137506128Y-99944172D01*
X137506128Y-99944172D02*
X137506128Y-99837029D01*
X137506128Y-99837029D02*
X137541842Y-99765601D01*
X137541842Y-99765601D02*
X137577557Y-99729886D01*
X137577557Y-99729886D02*
X137648985Y-99694172D01*
X137648985Y-99694172D02*
X137827557Y-99694172D01*
X137827557Y-99694172D02*
X137898985Y-99729886D01*
X137898985Y-99729886D02*
X137934700Y-99765601D01*
X137934700Y-99765601D02*
X137970414Y-99837029D01*
X137970414Y-99837029D02*
X137970414Y-100051315D01*
X137970414Y-100051315D02*
X137934700Y-100122743D01*
X137934700Y-100122743D02*
X137898985Y-100158458D01*
X174541163Y-81641185D02*
X174037814Y-81350482D01*
X174023273Y-81882681D02*
X173600655Y-80976373D01*
X173600655Y-80976373D02*
X173945915Y-80815376D01*
X173945915Y-80815376D02*
X174052355Y-80818284D01*
X174052355Y-80818284D02*
X174115637Y-80841317D01*
X174115637Y-80841317D02*
X174199044Y-80907507D01*
X174199044Y-80907507D02*
X174259418Y-81036980D01*
X174259418Y-81036980D02*
X174256510Y-81143419D01*
X174256510Y-81143419D02*
X174233477Y-81206701D01*
X174233477Y-81206701D02*
X174167287Y-81290108D01*
X174167287Y-81290108D02*
X173822027Y-81451106D01*
X174420648Y-80594004D02*
X174981695Y-80332383D01*
X174981695Y-80332383D02*
X174840590Y-80818516D01*
X174840590Y-80818516D02*
X174970063Y-80758142D01*
X174970063Y-80758142D02*
X175076503Y-80761050D01*
X175076503Y-80761050D02*
X175139785Y-80784083D01*
X175139785Y-80784083D02*
X175223192Y-80850274D01*
X175223192Y-80850274D02*
X175323815Y-81066061D01*
X175323815Y-81066061D02*
X175320907Y-81172501D01*
X175320907Y-81172501D02*
X175297874Y-81235783D01*
X175297874Y-81235783D02*
X175231684Y-81319190D01*
X175231684Y-81319190D02*
X174972739Y-81439938D01*
X174972739Y-81439938D02*
X174866299Y-81437030D01*
X174866299Y-81437030D02*
X174803017Y-81413997D01*
X43214285Y-44954819D02*
X42880952Y-44478628D01*
X42642857Y-44954819D02*
X42642857Y-43954819D01*
X42642857Y-43954819D02*
X43023809Y-43954819D01*
X43023809Y-43954819D02*
X43119047Y-44002438D01*
X43119047Y-44002438D02*
X43166666Y-44050057D01*
X43166666Y-44050057D02*
X43214285Y-44145295D01*
X43214285Y-44145295D02*
X43214285Y-44288152D01*
X43214285Y-44288152D02*
X43166666Y-44383390D01*
X43166666Y-44383390D02*
X43119047Y-44431009D01*
X43119047Y-44431009D02*
X43023809Y-44478628D01*
X43023809Y-44478628D02*
X42642857Y-44478628D01*
X43404762Y-45050057D02*
X44166666Y-45050057D01*
X44404762Y-44954819D02*
X44404762Y-43954819D01*
X44404762Y-43954819D02*
X44738095Y-44669104D01*
X44738095Y-44669104D02*
X45071428Y-43954819D01*
X45071428Y-43954819D02*
X45071428Y-44954819D01*
X45500000Y-44669104D02*
X45976190Y-44669104D01*
X45404762Y-44954819D02*
X45738095Y-43954819D01*
X45738095Y-43954819D02*
X46071428Y-44954819D01*
X46261905Y-43954819D02*
X46833333Y-43954819D01*
X46547619Y-44954819D02*
X46547619Y-43954819D01*
X46928572Y-45050057D02*
X47690476Y-45050057D01*
X47880953Y-44050057D02*
X47928572Y-44002438D01*
X47928572Y-44002438D02*
X48023810Y-43954819D01*
X48023810Y-43954819D02*
X48261905Y-43954819D01*
X48261905Y-43954819D02*
X48357143Y-44002438D01*
X48357143Y-44002438D02*
X48404762Y-44050057D01*
X48404762Y-44050057D02*
X48452381Y-44145295D01*
X48452381Y-44145295D02*
X48452381Y-44240533D01*
X48452381Y-44240533D02*
X48404762Y-44383390D01*
X48404762Y-44383390D02*
X47833334Y-44954819D01*
X47833334Y-44954819D02*
X48452381Y-44954819D01*
X48785715Y-43954819D02*
X49404762Y-43954819D01*
X49404762Y-43954819D02*
X49071429Y-44335771D01*
X49071429Y-44335771D02*
X49214286Y-44335771D01*
X49214286Y-44335771D02*
X49309524Y-44383390D01*
X49309524Y-44383390D02*
X49357143Y-44431009D01*
X49357143Y-44431009D02*
X49404762Y-44526247D01*
X49404762Y-44526247D02*
X49404762Y-44764342D01*
X49404762Y-44764342D02*
X49357143Y-44859580D01*
X49357143Y-44859580D02*
X49309524Y-44907200D01*
X49309524Y-44907200D02*
X49214286Y-44954819D01*
X49214286Y-44954819D02*
X48928572Y-44954819D01*
X48928572Y-44954819D02*
X48833334Y-44907200D01*
X48833334Y-44907200D02*
X48785715Y-44859580D01*
X252190475Y-46454819D02*
X251857142Y-45978628D01*
X251619047Y-46454819D02*
X251619047Y-45454819D01*
X251619047Y-45454819D02*
X251999999Y-45454819D01*
X251999999Y-45454819D02*
X252095237Y-45502438D01*
X252095237Y-45502438D02*
X252142856Y-45550057D01*
X252142856Y-45550057D02*
X252190475Y-45645295D01*
X252190475Y-45645295D02*
X252190475Y-45788152D01*
X252190475Y-45788152D02*
X252142856Y-45883390D01*
X252142856Y-45883390D02*
X252095237Y-45931009D01*
X252095237Y-45931009D02*
X251999999Y-45978628D01*
X251999999Y-45978628D02*
X251619047Y-45978628D01*
X252380952Y-46550057D02*
X253142856Y-46550057D01*
X253380952Y-46454819D02*
X253380952Y-45454819D01*
X253380952Y-45454819D02*
X253714285Y-46169104D01*
X253714285Y-46169104D02*
X254047618Y-45454819D01*
X254047618Y-45454819D02*
X254047618Y-46454819D01*
X254476190Y-46169104D02*
X254952380Y-46169104D01*
X254380952Y-46454819D02*
X254714285Y-45454819D01*
X254714285Y-45454819D02*
X255047618Y-46454819D01*
X255238095Y-45454819D02*
X255809523Y-45454819D01*
X255523809Y-46454819D02*
X255523809Y-45454819D01*
X255904762Y-46550057D02*
X256666666Y-46550057D01*
X257380952Y-45454819D02*
X256904762Y-45454819D01*
X256904762Y-45454819D02*
X256857143Y-45931009D01*
X256857143Y-45931009D02*
X256904762Y-45883390D01*
X256904762Y-45883390D02*
X257000000Y-45835771D01*
X257000000Y-45835771D02*
X257238095Y-45835771D01*
X257238095Y-45835771D02*
X257333333Y-45883390D01*
X257333333Y-45883390D02*
X257380952Y-45931009D01*
X257380952Y-45931009D02*
X257428571Y-46026247D01*
X257428571Y-46026247D02*
X257428571Y-46264342D01*
X257428571Y-46264342D02*
X257380952Y-46359580D01*
X257380952Y-46359580D02*
X257333333Y-46407200D01*
X257333333Y-46407200D02*
X257238095Y-46454819D01*
X257238095Y-46454819D02*
X257000000Y-46454819D01*
X257000000Y-46454819D02*
X256904762Y-46407200D01*
X256904762Y-46407200D02*
X256857143Y-46359580D01*
X251214285Y-41454819D02*
X250880952Y-40978628D01*
X250642857Y-41454819D02*
X250642857Y-40454819D01*
X250642857Y-40454819D02*
X251023809Y-40454819D01*
X251023809Y-40454819D02*
X251119047Y-40502438D01*
X251119047Y-40502438D02*
X251166666Y-40550057D01*
X251166666Y-40550057D02*
X251214285Y-40645295D01*
X251214285Y-40645295D02*
X251214285Y-40788152D01*
X251214285Y-40788152D02*
X251166666Y-40883390D01*
X251166666Y-40883390D02*
X251119047Y-40931009D01*
X251119047Y-40931009D02*
X251023809Y-40978628D01*
X251023809Y-40978628D02*
X250642857Y-40978628D01*
X251404762Y-41550057D02*
X252166666Y-41550057D01*
X252404762Y-41454819D02*
X252404762Y-40454819D01*
X252404762Y-40454819D02*
X252738095Y-41169104D01*
X252738095Y-41169104D02*
X253071428Y-40454819D01*
X253071428Y-40454819D02*
X253071428Y-41454819D01*
X253500000Y-41169104D02*
X253976190Y-41169104D01*
X253404762Y-41454819D02*
X253738095Y-40454819D01*
X253738095Y-40454819D02*
X254071428Y-41454819D01*
X254261905Y-40454819D02*
X254833333Y-40454819D01*
X254547619Y-41454819D02*
X254547619Y-40454819D01*
X254928572Y-41550057D02*
X255690476Y-41550057D01*
X255880953Y-40550057D02*
X255928572Y-40502438D01*
X255928572Y-40502438D02*
X256023810Y-40454819D01*
X256023810Y-40454819D02*
X256261905Y-40454819D01*
X256261905Y-40454819D02*
X256357143Y-40502438D01*
X256357143Y-40502438D02*
X256404762Y-40550057D01*
X256404762Y-40550057D02*
X256452381Y-40645295D01*
X256452381Y-40645295D02*
X256452381Y-40740533D01*
X256452381Y-40740533D02*
X256404762Y-40883390D01*
X256404762Y-40883390D02*
X255833334Y-41454819D01*
X255833334Y-41454819D02*
X256452381Y-41454819D01*
X257357143Y-40454819D02*
X256880953Y-40454819D01*
X256880953Y-40454819D02*
X256833334Y-40931009D01*
X256833334Y-40931009D02*
X256880953Y-40883390D01*
X256880953Y-40883390D02*
X256976191Y-40835771D01*
X256976191Y-40835771D02*
X257214286Y-40835771D01*
X257214286Y-40835771D02*
X257309524Y-40883390D01*
X257309524Y-40883390D02*
X257357143Y-40931009D01*
X257357143Y-40931009D02*
X257404762Y-41026247D01*
X257404762Y-41026247D02*
X257404762Y-41264342D01*
X257404762Y-41264342D02*
X257357143Y-41359580D01*
X257357143Y-41359580D02*
X257309524Y-41407200D01*
X257309524Y-41407200D02*
X257214286Y-41454819D01*
X257214286Y-41454819D02*
X256976191Y-41454819D01*
X256976191Y-41454819D02*
X256880953Y-41407200D01*
X256880953Y-41407200D02*
X256833334Y-41359580D01*
X43214285Y-47454819D02*
X42880952Y-46978628D01*
X42642857Y-47454819D02*
X42642857Y-46454819D01*
X42642857Y-46454819D02*
X43023809Y-46454819D01*
X43023809Y-46454819D02*
X43119047Y-46502438D01*
X43119047Y-46502438D02*
X43166666Y-46550057D01*
X43166666Y-46550057D02*
X43214285Y-46645295D01*
X43214285Y-46645295D02*
X43214285Y-46788152D01*
X43214285Y-46788152D02*
X43166666Y-46883390D01*
X43166666Y-46883390D02*
X43119047Y-46931009D01*
X43119047Y-46931009D02*
X43023809Y-46978628D01*
X43023809Y-46978628D02*
X42642857Y-46978628D01*
X43404762Y-47550057D02*
X44166666Y-47550057D01*
X44404762Y-47454819D02*
X44404762Y-46454819D01*
X44404762Y-46454819D02*
X44738095Y-47169104D01*
X44738095Y-47169104D02*
X45071428Y-46454819D01*
X45071428Y-46454819D02*
X45071428Y-47454819D01*
X45500000Y-47169104D02*
X45976190Y-47169104D01*
X45404762Y-47454819D02*
X45738095Y-46454819D01*
X45738095Y-46454819D02*
X46071428Y-47454819D01*
X46261905Y-46454819D02*
X46833333Y-46454819D01*
X46547619Y-47454819D02*
X46547619Y-46454819D01*
X46928572Y-47550057D02*
X47690476Y-47550057D01*
X47833334Y-46454819D02*
X48452381Y-46454819D01*
X48452381Y-46454819D02*
X48119048Y-46835771D01*
X48119048Y-46835771D02*
X48261905Y-46835771D01*
X48261905Y-46835771D02*
X48357143Y-46883390D01*
X48357143Y-46883390D02*
X48404762Y-46931009D01*
X48404762Y-46931009D02*
X48452381Y-47026247D01*
X48452381Y-47026247D02*
X48452381Y-47264342D01*
X48452381Y-47264342D02*
X48404762Y-47359580D01*
X48404762Y-47359580D02*
X48357143Y-47407200D01*
X48357143Y-47407200D02*
X48261905Y-47454819D01*
X48261905Y-47454819D02*
X47976191Y-47454819D01*
X47976191Y-47454819D02*
X47880953Y-47407200D01*
X47880953Y-47407200D02*
X47833334Y-47359580D01*
X48833334Y-46550057D02*
X48880953Y-46502438D01*
X48880953Y-46502438D02*
X48976191Y-46454819D01*
X48976191Y-46454819D02*
X49214286Y-46454819D01*
X49214286Y-46454819D02*
X49309524Y-46502438D01*
X49309524Y-46502438D02*
X49357143Y-46550057D01*
X49357143Y-46550057D02*
X49404762Y-46645295D01*
X49404762Y-46645295D02*
X49404762Y-46740533D01*
X49404762Y-46740533D02*
X49357143Y-46883390D01*
X49357143Y-46883390D02*
X48785715Y-47454819D01*
X48785715Y-47454819D02*
X49404762Y-47454819D01*
X252190475Y-49454819D02*
X251857142Y-48978628D01*
X251619047Y-49454819D02*
X251619047Y-48454819D01*
X251619047Y-48454819D02*
X251999999Y-48454819D01*
X251999999Y-48454819D02*
X252095237Y-48502438D01*
X252095237Y-48502438D02*
X252142856Y-48550057D01*
X252142856Y-48550057D02*
X252190475Y-48645295D01*
X252190475Y-48645295D02*
X252190475Y-48788152D01*
X252190475Y-48788152D02*
X252142856Y-48883390D01*
X252142856Y-48883390D02*
X252095237Y-48931009D01*
X252095237Y-48931009D02*
X251999999Y-48978628D01*
X251999999Y-48978628D02*
X251619047Y-48978628D01*
X252380952Y-49550057D02*
X253142856Y-49550057D01*
X253380952Y-49454819D02*
X253380952Y-48454819D01*
X253380952Y-48454819D02*
X253714285Y-49169104D01*
X253714285Y-49169104D02*
X254047618Y-48454819D01*
X254047618Y-48454819D02*
X254047618Y-49454819D01*
X254476190Y-49169104D02*
X254952380Y-49169104D01*
X254380952Y-49454819D02*
X254714285Y-48454819D01*
X254714285Y-48454819D02*
X255047618Y-49454819D01*
X255238095Y-48454819D02*
X255809523Y-48454819D01*
X255523809Y-49454819D02*
X255523809Y-48454819D01*
X255904762Y-49550057D02*
X256666666Y-49550057D01*
X257333333Y-48454819D02*
X257142857Y-48454819D01*
X257142857Y-48454819D02*
X257047619Y-48502438D01*
X257047619Y-48502438D02*
X257000000Y-48550057D01*
X257000000Y-48550057D02*
X256904762Y-48692914D01*
X256904762Y-48692914D02*
X256857143Y-48883390D01*
X256857143Y-48883390D02*
X256857143Y-49264342D01*
X256857143Y-49264342D02*
X256904762Y-49359580D01*
X256904762Y-49359580D02*
X256952381Y-49407200D01*
X256952381Y-49407200D02*
X257047619Y-49454819D01*
X257047619Y-49454819D02*
X257238095Y-49454819D01*
X257238095Y-49454819D02*
X257333333Y-49407200D01*
X257333333Y-49407200D02*
X257380952Y-49359580D01*
X257380952Y-49359580D02*
X257428571Y-49264342D01*
X257428571Y-49264342D02*
X257428571Y-49026247D01*
X257428571Y-49026247D02*
X257380952Y-48931009D01*
X257380952Y-48931009D02*
X257333333Y-48883390D01*
X257333333Y-48883390D02*
X257238095Y-48835771D01*
X257238095Y-48835771D02*
X257047619Y-48835771D01*
X257047619Y-48835771D02*
X256952381Y-48883390D01*
X256952381Y-48883390D02*
X256904762Y-48931009D01*
X256904762Y-48931009D02*
X256857143Y-49026247D01*
X176041163Y-83641185D02*
X175537814Y-83350482D01*
X175523273Y-83882681D02*
X175100655Y-82976373D01*
X175100655Y-82976373D02*
X175445915Y-82815376D01*
X175445915Y-82815376D02*
X175552355Y-82818284D01*
X175552355Y-82818284D02*
X175615637Y-82841317D01*
X175615637Y-82841317D02*
X175699044Y-82907507D01*
X175699044Y-82907507D02*
X175759418Y-83036980D01*
X175759418Y-83036980D02*
X175756510Y-83143419D01*
X175756510Y-83143419D02*
X175733477Y-83206701D01*
X175733477Y-83206701D02*
X175667287Y-83290108D01*
X175667287Y-83290108D02*
X175322027Y-83451106D01*
X176536253Y-82674735D02*
X176817999Y-83278940D01*
X176159468Y-82430099D02*
X176245551Y-83178085D01*
X176245551Y-83178085D02*
X176806599Y-82916464D01*
X251214285Y-51954819D02*
X250880952Y-51478628D01*
X250642857Y-51954819D02*
X250642857Y-50954819D01*
X250642857Y-50954819D02*
X251023809Y-50954819D01*
X251023809Y-50954819D02*
X251119047Y-51002438D01*
X251119047Y-51002438D02*
X251166666Y-51050057D01*
X251166666Y-51050057D02*
X251214285Y-51145295D01*
X251214285Y-51145295D02*
X251214285Y-51288152D01*
X251214285Y-51288152D02*
X251166666Y-51383390D01*
X251166666Y-51383390D02*
X251119047Y-51431009D01*
X251119047Y-51431009D02*
X251023809Y-51478628D01*
X251023809Y-51478628D02*
X250642857Y-51478628D01*
X251404762Y-52050057D02*
X252166666Y-52050057D01*
X252404762Y-51954819D02*
X252404762Y-50954819D01*
X252404762Y-50954819D02*
X252738095Y-51669104D01*
X252738095Y-51669104D02*
X253071428Y-50954819D01*
X253071428Y-50954819D02*
X253071428Y-51954819D01*
X253500000Y-51669104D02*
X253976190Y-51669104D01*
X253404762Y-51954819D02*
X253738095Y-50954819D01*
X253738095Y-50954819D02*
X254071428Y-51954819D01*
X254261905Y-50954819D02*
X254833333Y-50954819D01*
X254547619Y-51954819D02*
X254547619Y-50954819D01*
X254928572Y-52050057D02*
X255690476Y-52050057D01*
X256452381Y-51954819D02*
X255880953Y-51954819D01*
X256166667Y-51954819D02*
X256166667Y-50954819D01*
X256166667Y-50954819D02*
X256071429Y-51097676D01*
X256071429Y-51097676D02*
X255976191Y-51192914D01*
X255976191Y-51192914D02*
X255880953Y-51240533D01*
X257309524Y-50954819D02*
X257119048Y-50954819D01*
X257119048Y-50954819D02*
X257023810Y-51002438D01*
X257023810Y-51002438D02*
X256976191Y-51050057D01*
X256976191Y-51050057D02*
X256880953Y-51192914D01*
X256880953Y-51192914D02*
X256833334Y-51383390D01*
X256833334Y-51383390D02*
X256833334Y-51764342D01*
X256833334Y-51764342D02*
X256880953Y-51859580D01*
X256880953Y-51859580D02*
X256928572Y-51907200D01*
X256928572Y-51907200D02*
X257023810Y-51954819D01*
X257023810Y-51954819D02*
X257214286Y-51954819D01*
X257214286Y-51954819D02*
X257309524Y-51907200D01*
X257309524Y-51907200D02*
X257357143Y-51859580D01*
X257357143Y-51859580D02*
X257404762Y-51764342D01*
X257404762Y-51764342D02*
X257404762Y-51526247D01*
X257404762Y-51526247D02*
X257357143Y-51431009D01*
X257357143Y-51431009D02*
X257309524Y-51383390D01*
X257309524Y-51383390D02*
X257214286Y-51335771D01*
X257214286Y-51335771D02*
X257023810Y-51335771D01*
X257023810Y-51335771D02*
X256928572Y-51383390D01*
X256928572Y-51383390D02*
X256880953Y-51431009D01*
X256880953Y-51431009D02*
X256833334Y-51526247D01*
X121598726Y-77223884D02*
X121708074Y-77327415D01*
X121708074Y-77327415D02*
X121923861Y-77428039D01*
X121923861Y-77428039D02*
X122030301Y-77425131D01*
X122030301Y-77425131D02*
X122093583Y-77402098D01*
X122093583Y-77402098D02*
X122176990Y-77335907D01*
X122176990Y-77335907D02*
X122217239Y-77249592D01*
X122217239Y-77249592D02*
X122214331Y-77143153D01*
X122214331Y-77143153D02*
X122191298Y-77079871D01*
X122191298Y-77079871D02*
X122125108Y-76996464D01*
X122125108Y-76996464D02*
X121972603Y-76872807D01*
X121972603Y-76872807D02*
X121906412Y-76789401D01*
X121906412Y-76789401D02*
X121883379Y-76726118D01*
X121883379Y-76726118D02*
X121880471Y-76619679D01*
X121880471Y-76619679D02*
X121920721Y-76533364D01*
X121920721Y-76533364D02*
X122004127Y-76467173D01*
X122004127Y-76467173D02*
X122067410Y-76444140D01*
X122067410Y-76444140D02*
X122173849Y-76441232D01*
X122173849Y-76441232D02*
X122389637Y-76541856D01*
X122389637Y-76541856D02*
X122498985Y-76645387D01*
X122821212Y-76743103D02*
X122614381Y-77750034D01*
X122614381Y-77750034D02*
X123088882Y-77183170D01*
X123088882Y-77183170D02*
X122959642Y-77911031D01*
X122959642Y-77911031D02*
X123598047Y-77105347D01*
X123264652Y-78158344D02*
X123955172Y-78480338D01*
X124729100Y-78736143D02*
X124628244Y-78163695D01*
X124211210Y-78494647D02*
X124633828Y-77588339D01*
X124633828Y-77588339D02*
X124979088Y-77749337D01*
X124979088Y-77749337D02*
X125045278Y-77832743D01*
X125045278Y-77832743D02*
X125068311Y-77896026D01*
X125068311Y-77896026D02*
X125071219Y-78002465D01*
X125071219Y-78002465D02*
X125010845Y-78131938D01*
X125010845Y-78131938D02*
X124927438Y-78198128D01*
X124927438Y-78198128D02*
X124864156Y-78221161D01*
X124864156Y-78221161D02*
X124757716Y-78224069D01*
X124757716Y-78224069D02*
X124412456Y-78063072D01*
X125094484Y-78853983D02*
X125203832Y-78957514D01*
X125203832Y-78957514D02*
X125419620Y-79058138D01*
X125419620Y-79058138D02*
X125526060Y-79055230D01*
X125526060Y-79055230D02*
X125589342Y-79032197D01*
X125589342Y-79032197D02*
X125672749Y-78966007D01*
X125672749Y-78966007D02*
X125712998Y-78879692D01*
X125712998Y-78879692D02*
X125710090Y-78773252D01*
X125710090Y-78773252D02*
X125687057Y-78709970D01*
X125687057Y-78709970D02*
X125620867Y-78626563D01*
X125620867Y-78626563D02*
X125468361Y-78502907D01*
X125468361Y-78502907D02*
X125402171Y-78419500D01*
X125402171Y-78419500D02*
X125379138Y-78356217D01*
X125379138Y-78356217D02*
X125376230Y-78249778D01*
X125376230Y-78249778D02*
X125416479Y-78163463D01*
X125416479Y-78163463D02*
X125499886Y-78097272D01*
X125499886Y-78097272D02*
X125563168Y-78074240D01*
X125563168Y-78074240D02*
X125669608Y-78071331D01*
X125669608Y-78071331D02*
X125885396Y-78171955D01*
X125885396Y-78171955D02*
X125994744Y-78275486D01*
X126273813Y-78353077D02*
X126791704Y-78594573D01*
X126110140Y-79380133D02*
X126532758Y-78473825D01*
X126415151Y-79627445D02*
X127105671Y-79949440D01*
X127836441Y-80185120D02*
X127318551Y-79943624D01*
X127577496Y-80064372D02*
X128000114Y-79158064D01*
X128000114Y-79158064D02*
X127853425Y-79247287D01*
X127853425Y-79247287D02*
X127726861Y-79293353D01*
X127726861Y-79293353D02*
X127620421Y-79296261D01*
X43214285Y-42454819D02*
X42880952Y-41978628D01*
X42642857Y-42454819D02*
X42642857Y-41454819D01*
X42642857Y-41454819D02*
X43023809Y-41454819D01*
X43023809Y-41454819D02*
X43119047Y-41502438D01*
X43119047Y-41502438D02*
X43166666Y-41550057D01*
X43166666Y-41550057D02*
X43214285Y-41645295D01*
X43214285Y-41645295D02*
X43214285Y-41788152D01*
X43214285Y-41788152D02*
X43166666Y-41883390D01*
X43166666Y-41883390D02*
X43119047Y-41931009D01*
X43119047Y-41931009D02*
X43023809Y-41978628D01*
X43023809Y-41978628D02*
X42642857Y-41978628D01*
X43404762Y-42550057D02*
X44166666Y-42550057D01*
X44404762Y-42454819D02*
X44404762Y-41454819D01*
X44404762Y-41454819D02*
X44738095Y-42169104D01*
X44738095Y-42169104D02*
X45071428Y-41454819D01*
X45071428Y-41454819D02*
X45071428Y-42454819D01*
X45500000Y-42169104D02*
X45976190Y-42169104D01*
X45404762Y-42454819D02*
X45738095Y-41454819D01*
X45738095Y-41454819D02*
X46071428Y-42454819D01*
X46261905Y-41454819D02*
X46833333Y-41454819D01*
X46547619Y-42454819D02*
X46547619Y-41454819D01*
X46928572Y-42550057D02*
X47690476Y-42550057D01*
X48452381Y-42454819D02*
X47880953Y-42454819D01*
X48166667Y-42454819D02*
X48166667Y-41454819D01*
X48166667Y-41454819D02*
X48071429Y-41597676D01*
X48071429Y-41597676D02*
X47976191Y-41692914D01*
X47976191Y-41692914D02*
X47880953Y-41740533D01*
X48785715Y-41454819D02*
X49404762Y-41454819D01*
X49404762Y-41454819D02*
X49071429Y-41835771D01*
X49071429Y-41835771D02*
X49214286Y-41835771D01*
X49214286Y-41835771D02*
X49309524Y-41883390D01*
X49309524Y-41883390D02*
X49357143Y-41931009D01*
X49357143Y-41931009D02*
X49404762Y-42026247D01*
X49404762Y-42026247D02*
X49404762Y-42264342D01*
X49404762Y-42264342D02*
X49357143Y-42359580D01*
X49357143Y-42359580D02*
X49309524Y-42407200D01*
X49309524Y-42407200D02*
X49214286Y-42454819D01*
X49214286Y-42454819D02*
X48928572Y-42454819D01*
X48928572Y-42454819D02*
X48833334Y-42407200D01*
X48833334Y-42407200D02*
X48785715Y-42359580D01*
X262779819Y-30404761D02*
X263589342Y-30404761D01*
X263589342Y-30404761D02*
X263684580Y-30357142D01*
X263684580Y-30357142D02*
X263732200Y-30309523D01*
X263732200Y-30309523D02*
X263779819Y-30214285D01*
X263779819Y-30214285D02*
X263779819Y-30023809D01*
X263779819Y-30023809D02*
X263732200Y-29928571D01*
X263732200Y-29928571D02*
X263684580Y-29880952D01*
X263684580Y-29880952D02*
X263589342Y-29833333D01*
X263589342Y-29833333D02*
X262779819Y-29833333D01*
X263875057Y-29595238D02*
X263875057Y-28833333D01*
X263779819Y-28595237D02*
X262779819Y-28595237D01*
X262779819Y-28595237D02*
X263494104Y-28261904D01*
X263494104Y-28261904D02*
X262779819Y-27928571D01*
X262779819Y-27928571D02*
X263779819Y-27928571D01*
X263494104Y-27499999D02*
X263494104Y-27023809D01*
X263779819Y-27595237D02*
X262779819Y-27261904D01*
X262779819Y-27261904D02*
X263779819Y-26928571D01*
X262779819Y-26738094D02*
X262779819Y-26166666D01*
X263779819Y-26452380D02*
X262779819Y-26452380D01*
X263875057Y-26071428D02*
X263875057Y-25309523D01*
X262779819Y-25166665D02*
X262779819Y-24547618D01*
X262779819Y-24547618D02*
X263160771Y-24880951D01*
X263160771Y-24880951D02*
X263160771Y-24738094D01*
X263160771Y-24738094D02*
X263208390Y-24642856D01*
X263208390Y-24642856D02*
X263256009Y-24595237D01*
X263256009Y-24595237D02*
X263351247Y-24547618D01*
X263351247Y-24547618D02*
X263589342Y-24547618D01*
X263589342Y-24547618D02*
X263684580Y-24595237D01*
X263684580Y-24595237D02*
X263732200Y-24642856D01*
X263732200Y-24642856D02*
X263779819Y-24738094D01*
X263779819Y-24738094D02*
X263779819Y-25023808D01*
X263779819Y-25023808D02*
X263732200Y-25119046D01*
X263732200Y-25119046D02*
X263684580Y-25166665D01*
X251214285Y-38954819D02*
X250880952Y-38478628D01*
X250642857Y-38954819D02*
X250642857Y-37954819D01*
X250642857Y-37954819D02*
X251023809Y-37954819D01*
X251023809Y-37954819D02*
X251119047Y-38002438D01*
X251119047Y-38002438D02*
X251166666Y-38050057D01*
X251166666Y-38050057D02*
X251214285Y-38145295D01*
X251214285Y-38145295D02*
X251214285Y-38288152D01*
X251214285Y-38288152D02*
X251166666Y-38383390D01*
X251166666Y-38383390D02*
X251119047Y-38431009D01*
X251119047Y-38431009D02*
X251023809Y-38478628D01*
X251023809Y-38478628D02*
X250642857Y-38478628D01*
X251404762Y-39050057D02*
X252166666Y-39050057D01*
X252404762Y-38954819D02*
X252404762Y-37954819D01*
X252404762Y-37954819D02*
X252738095Y-38669104D01*
X252738095Y-38669104D02*
X253071428Y-37954819D01*
X253071428Y-37954819D02*
X253071428Y-38954819D01*
X253500000Y-38669104D02*
X253976190Y-38669104D01*
X253404762Y-38954819D02*
X253738095Y-37954819D01*
X253738095Y-37954819D02*
X254071428Y-38954819D01*
X254261905Y-37954819D02*
X254833333Y-37954819D01*
X254547619Y-38954819D02*
X254547619Y-37954819D01*
X254928572Y-39050057D02*
X255690476Y-39050057D01*
X255833334Y-37954819D02*
X256452381Y-37954819D01*
X256452381Y-37954819D02*
X256119048Y-38335771D01*
X256119048Y-38335771D02*
X256261905Y-38335771D01*
X256261905Y-38335771D02*
X256357143Y-38383390D01*
X256357143Y-38383390D02*
X256404762Y-38431009D01*
X256404762Y-38431009D02*
X256452381Y-38526247D01*
X256452381Y-38526247D02*
X256452381Y-38764342D01*
X256452381Y-38764342D02*
X256404762Y-38859580D01*
X256404762Y-38859580D02*
X256357143Y-38907200D01*
X256357143Y-38907200D02*
X256261905Y-38954819D01*
X256261905Y-38954819D02*
X255976191Y-38954819D01*
X255976191Y-38954819D02*
X255880953Y-38907200D01*
X255880953Y-38907200D02*
X255833334Y-38859580D01*
X256785715Y-37954819D02*
X257404762Y-37954819D01*
X257404762Y-37954819D02*
X257071429Y-38335771D01*
X257071429Y-38335771D02*
X257214286Y-38335771D01*
X257214286Y-38335771D02*
X257309524Y-38383390D01*
X257309524Y-38383390D02*
X257357143Y-38431009D01*
X257357143Y-38431009D02*
X257404762Y-38526247D01*
X257404762Y-38526247D02*
X257404762Y-38764342D01*
X257404762Y-38764342D02*
X257357143Y-38859580D01*
X257357143Y-38859580D02*
X257309524Y-38907200D01*
X257309524Y-38907200D02*
X257214286Y-38954819D01*
X257214286Y-38954819D02*
X256928572Y-38954819D01*
X256928572Y-38954819D02*
X256833334Y-38907200D01*
X256833334Y-38907200D02*
X256785715Y-38859580D01*
X251214285Y-54454819D02*
X250880952Y-53978628D01*
X250642857Y-54454819D02*
X250642857Y-53454819D01*
X250642857Y-53454819D02*
X251023809Y-53454819D01*
X251023809Y-53454819D02*
X251119047Y-53502438D01*
X251119047Y-53502438D02*
X251166666Y-53550057D01*
X251166666Y-53550057D02*
X251214285Y-53645295D01*
X251214285Y-53645295D02*
X251214285Y-53788152D01*
X251214285Y-53788152D02*
X251166666Y-53883390D01*
X251166666Y-53883390D02*
X251119047Y-53931009D01*
X251119047Y-53931009D02*
X251023809Y-53978628D01*
X251023809Y-53978628D02*
X250642857Y-53978628D01*
X251404762Y-54550057D02*
X252166666Y-54550057D01*
X252404762Y-54454819D02*
X252404762Y-53454819D01*
X252404762Y-53454819D02*
X252738095Y-54169104D01*
X252738095Y-54169104D02*
X253071428Y-53454819D01*
X253071428Y-53454819D02*
X253071428Y-54454819D01*
X253500000Y-54169104D02*
X253976190Y-54169104D01*
X253404762Y-54454819D02*
X253738095Y-53454819D01*
X253738095Y-53454819D02*
X254071428Y-54454819D01*
X254261905Y-53454819D02*
X254833333Y-53454819D01*
X254547619Y-54454819D02*
X254547619Y-53454819D01*
X254928572Y-54550057D02*
X255690476Y-54550057D01*
X255880953Y-53550057D02*
X255928572Y-53502438D01*
X255928572Y-53502438D02*
X256023810Y-53454819D01*
X256023810Y-53454819D02*
X256261905Y-53454819D01*
X256261905Y-53454819D02*
X256357143Y-53502438D01*
X256357143Y-53502438D02*
X256404762Y-53550057D01*
X256404762Y-53550057D02*
X256452381Y-53645295D01*
X256452381Y-53645295D02*
X256452381Y-53740533D01*
X256452381Y-53740533D02*
X256404762Y-53883390D01*
X256404762Y-53883390D02*
X255833334Y-54454819D01*
X255833334Y-54454819D02*
X256452381Y-54454819D01*
X257309524Y-53454819D02*
X257119048Y-53454819D01*
X257119048Y-53454819D02*
X257023810Y-53502438D01*
X257023810Y-53502438D02*
X256976191Y-53550057D01*
X256976191Y-53550057D02*
X256880953Y-53692914D01*
X256880953Y-53692914D02*
X256833334Y-53883390D01*
X256833334Y-53883390D02*
X256833334Y-54264342D01*
X256833334Y-54264342D02*
X256880953Y-54359580D01*
X256880953Y-54359580D02*
X256928572Y-54407200D01*
X256928572Y-54407200D02*
X257023810Y-54454819D01*
X257023810Y-54454819D02*
X257214286Y-54454819D01*
X257214286Y-54454819D02*
X257309524Y-54407200D01*
X257309524Y-54407200D02*
X257357143Y-54359580D01*
X257357143Y-54359580D02*
X257404762Y-54264342D01*
X257404762Y-54264342D02*
X257404762Y-54026247D01*
X257404762Y-54026247D02*
X257357143Y-53931009D01*
X257357143Y-53931009D02*
X257309524Y-53883390D01*
X257309524Y-53883390D02*
X257214286Y-53835771D01*
X257214286Y-53835771D02*
X257023810Y-53835771D01*
X257023810Y-53835771D02*
X256928572Y-53883390D01*
X256928572Y-53883390D02*
X256880953Y-53931009D01*
X256880953Y-53931009D02*
X256833334Y-54026247D01*
%TO.C,S_MAT_L22*%
D11*
X66861644Y-71638119D02*
X67120463Y-70672193D01*
X66861644Y-71638119D02*
X67827569Y-71896938D01*
X69967472Y-60047009D02*
X70226291Y-59081083D01*
X71192217Y-59339902D02*
X70226291Y-59081083D01*
X78452754Y-74743948D02*
X79418679Y-75002767D01*
X79677498Y-74036841D02*
X79418679Y-75002767D01*
X82783327Y-62445731D02*
X81817401Y-62186912D01*
X82783327Y-62445731D02*
X82524508Y-63411657D01*
%TO.C,S_MAT_R04*%
X175021138Y-43982305D02*
X174762319Y-43016379D01*
X175728245Y-42757560D02*
X174762319Y-43016379D01*
X178126967Y-55573415D02*
X177868148Y-54607489D01*
X178126967Y-55573415D02*
X179092892Y-55314596D01*
X187319355Y-39651731D02*
X186353429Y-39910550D01*
X187319355Y-39651731D02*
X187578174Y-40617657D01*
X189718077Y-52467586D02*
X190684002Y-52208767D01*
X190425183Y-51242841D02*
X190684002Y-52208767D01*
%TO.C,R2*%
D12*
X180774361Y-82367989D02*
X179456475Y-82982530D01*
X181543525Y-84017470D02*
X180225639Y-84632011D01*
%TO.C,S_MAT_R33*%
D11*
X205585385Y-88593236D02*
X205326566Y-87627310D01*
X206292492Y-87368491D02*
X205326566Y-87627310D01*
X208691214Y-100184346D02*
X208432395Y-99218420D01*
X208691214Y-100184346D02*
X209657139Y-99925527D01*
X217883602Y-84262662D02*
X216917676Y-84521481D01*
X217883602Y-84262662D02*
X218142421Y-85228588D01*
X220282324Y-97078517D02*
X221248249Y-96819698D01*
X220989430Y-95853772D02*
X221248249Y-96819698D01*
%TO.C,S_MAT_R34*%
X186872288Y-96660946D02*
X186449669Y-95754638D01*
X187355977Y-95332020D02*
X186449669Y-95754638D01*
X191943707Y-107536639D02*
X191521087Y-106630332D01*
X191943707Y-107536639D02*
X192850014Y-107114021D01*
X198231670Y-90260601D02*
X197325363Y-90683219D01*
X198231670Y-90260601D02*
X198654289Y-91166909D01*
X202819400Y-102465220D02*
X203725708Y-102042602D01*
X203303090Y-101136294D02*
X203725708Y-102042602D01*
%TO.C,S_MAT_L20*%
X22400000Y-71326656D02*
X22400000Y-70326656D01*
X22400000Y-83326656D02*
X22400000Y-82326656D01*
X22400000Y-83326656D02*
X23400000Y-83326656D01*
X23400000Y-70326656D02*
X22400000Y-70326656D01*
X34400000Y-83326656D02*
X35400000Y-83326656D01*
X35400000Y-70326656D02*
X34400000Y-70326656D01*
X35400000Y-70326656D02*
X35400000Y-71326656D01*
X35400000Y-82326656D02*
X35400000Y-83326656D01*
%TO.C,R_MAT_3*%
D12*
X39272936Y-38590000D02*
X40727064Y-38590000D01*
X39272936Y-40410000D02*
X40727064Y-40410000D01*
%TO.C,J_VIK_IN_SW_2*%
D13*
X154935000Y-99450000D02*
X157318000Y-99450000D01*
X154935000Y-110450000D02*
X154935000Y-99450000D01*
X154935000Y-110450000D02*
X157318000Y-110450000D01*
X159769000Y-99450000D02*
X161430000Y-99450000D01*
X159769000Y-110450000D02*
X161430000Y-110450000D01*
X161430000Y-99450000D02*
X161430000Y-101819000D01*
X161430000Y-110450000D02*
X161430000Y-108081000D01*
X162065000Y-101521000D02*
G75*
G02*
X161811000Y-101521000I-127000J0D01*
G01*
X161811000Y-101521000D02*
G75*
G02*
X162065000Y-101521000I127000J0D01*
G01*
%TO.C,S_MAT_R24*%
D11*
X183823492Y-76826564D02*
X183564673Y-75860638D01*
X184530599Y-75601819D02*
X183564673Y-75860638D01*
X186929321Y-88417674D02*
X186670502Y-87451748D01*
X186929321Y-88417674D02*
X187895246Y-88158855D01*
X196121709Y-72495990D02*
X195155783Y-72754809D01*
X196121709Y-72495990D02*
X196380528Y-73461916D01*
X198520431Y-85311845D02*
X199486356Y-85053026D01*
X199227537Y-84087100D02*
X199486356Y-85053026D01*
%TO.C,S_MAT_L12*%
X71272006Y-55219442D02*
X71530825Y-54253516D01*
X71272006Y-55219442D02*
X72237931Y-55478261D01*
X74377834Y-43628332D02*
X74636653Y-42662406D01*
X75602579Y-42921225D02*
X74636653Y-42662406D01*
X82863116Y-58325271D02*
X83829041Y-58584090D01*
X84087860Y-57618164D02*
X83829041Y-58584090D01*
X87193689Y-46027054D02*
X86227763Y-45768235D01*
X87193689Y-46027054D02*
X86934870Y-46992980D01*
%TO.C,S_MAT_L04*%
X109326567Y-52172688D02*
X109585386Y-51206762D01*
X109326567Y-52172688D02*
X110292492Y-52431507D01*
X112432395Y-40581578D02*
X112691214Y-39615652D01*
X113657140Y-39874471D02*
X112691214Y-39615652D01*
X120917677Y-55278517D02*
X121883602Y-55537336D01*
X122142421Y-54571410D02*
X121883602Y-55537336D01*
X125248250Y-42980300D02*
X124282324Y-42721481D01*
X125248250Y-42980300D02*
X124989431Y-43946226D01*
%TO.C,S_MAT_R00*%
X264600000Y-37371319D02*
X264600000Y-36371319D01*
X264600000Y-49371319D02*
X264600000Y-48371319D01*
X264600000Y-49371319D02*
X265600000Y-49371319D01*
X265600000Y-36371319D02*
X264600000Y-36371319D01*
X276600000Y-49371319D02*
X277600000Y-49371319D01*
X277600000Y-36371319D02*
X276600000Y-36371319D01*
X277600000Y-36371319D02*
X277600000Y-37371319D01*
X277600000Y-48371319D02*
X277600000Y-49371319D01*
%TO.C,R_MAT_15*%
D12*
X260727064Y-42590000D02*
X259272936Y-42590000D01*
X260727064Y-44410000D02*
X259272936Y-44410000D01*
%TO.C,R_MAT_14*%
X40727064Y-51090000D02*
X39272936Y-51090000D01*
X40727064Y-52910000D02*
X39272936Y-52910000D01*
%TO.C,R_MAT_4*%
X40727064Y-53590000D02*
X39272936Y-53590000D01*
X40727064Y-55410000D02*
X39272936Y-55410000D01*
%TO.C,S_MAT_R03*%
D11*
X192426719Y-39349904D02*
X192167900Y-38383978D01*
X193133826Y-38125159D02*
X192167900Y-38383978D01*
X195532548Y-50941014D02*
X195273729Y-49975088D01*
X195532548Y-50941014D02*
X196498473Y-50682195D01*
X204724936Y-35019330D02*
X203759010Y-35278149D01*
X204724936Y-35019330D02*
X204983755Y-35985256D01*
X207123658Y-47835185D02*
X208089583Y-47576366D01*
X207830764Y-46610440D02*
X208089583Y-47576366D01*
%TO.C,J_USB_1*%
D12*
X156300000Y-37227700D02*
X156300000Y-35327700D01*
X156300000Y-41127700D02*
X156300000Y-39127700D01*
X165700000Y-35327700D02*
X156300000Y-35327700D01*
X165700000Y-37227700D02*
X165700000Y-35327700D01*
X165700000Y-41127700D02*
X165700000Y-39127700D01*
%TO.C,S_MAT_R21*%
D11*
X240248445Y-62083267D02*
X240074799Y-61098459D01*
X241059607Y-60924811D02*
X240074799Y-61098459D01*
X242332226Y-73900961D02*
X242158577Y-72916152D01*
X242332226Y-73900961D02*
X243317033Y-73727311D01*
X252877300Y-58841032D02*
X251892492Y-59014681D01*
X252877300Y-58841032D02*
X253050948Y-59825840D01*
X254149919Y-71817181D02*
X255134726Y-71643533D01*
X254961078Y-70658726D02*
X255134726Y-71643533D01*
%TO.C,S_MAT_L35*%
X127433210Y-121049982D02*
X128140316Y-120342876D01*
X127433210Y-121049982D02*
X128140316Y-121757089D01*
X135918491Y-112564701D02*
X136625598Y-111857594D01*
X135918491Y-129535264D02*
X136625598Y-130242370D01*
X137332704Y-112564701D02*
X136625598Y-111857594D01*
X137332704Y-129535264D02*
X136625598Y-130242370D01*
X145817986Y-121049982D02*
X145110879Y-120342876D01*
X145817986Y-121049982D02*
X145110879Y-121757089D01*
%TO.C,S_MAT_L33*%
X78764072Y-96802083D02*
X79022891Y-95836157D01*
X78764072Y-96802083D02*
X79729997Y-97060902D01*
X81869900Y-85210973D02*
X82128719Y-84245047D01*
X83094645Y-84503866D02*
X82128719Y-84245047D01*
X90355182Y-99907912D02*
X91321107Y-100166731D01*
X91579926Y-99200805D02*
X91321107Y-100166731D01*
X94685755Y-87609695D02*
X93719829Y-87350876D01*
X94685755Y-87609695D02*
X94426936Y-88575621D01*
%TO.C,S_MAT_R35*%
X154908905Y-120351541D02*
X154201798Y-121058647D01*
X154908905Y-121765754D02*
X154201798Y-121058647D01*
X163394186Y-111866259D02*
X162687080Y-112573366D01*
X163394186Y-111866259D02*
X164101293Y-112573366D01*
X163394186Y-130251035D02*
X162687080Y-129543929D01*
X163394186Y-130251035D02*
X164101293Y-129543929D01*
X171879468Y-120351541D02*
X172586574Y-121058647D01*
X171879468Y-121765754D02*
X172586574Y-121058647D01*
%TO.C,S_MAT_R25*%
X169760214Y-107782144D02*
X169186637Y-106962992D01*
X170005789Y-106389415D02*
X169186637Y-106962992D01*
X176643131Y-117611968D02*
X176069555Y-116792816D01*
X176643131Y-117611968D02*
X177462283Y-117038392D01*
X179835614Y-99506498D02*
X179016462Y-100080074D01*
X179835614Y-99506498D02*
X180409190Y-100325650D01*
X186472956Y-110729051D02*
X187292108Y-110155475D01*
X186718531Y-109336323D02*
X187292108Y-110155475D01*
%TO.C,S_MAT_L15*%
X122458732Y-96281899D02*
X123032309Y-95462747D01*
X122458732Y-96281899D02*
X123277884Y-96855475D01*
X129341650Y-86452074D02*
X129915226Y-85632922D01*
X130734378Y-86206498D02*
X129915226Y-85632922D01*
X132288557Y-103164816D02*
X133107709Y-103738392D01*
X133681285Y-102919240D02*
X133107709Y-103738392D01*
X140564203Y-93089416D02*
X139745051Y-92515839D01*
X140564203Y-93089416D02*
X139990626Y-93908568D01*
%TO.C,S_MAT_R32*%
X221906235Y-79841990D02*
X221647416Y-78876064D01*
X222613342Y-78617245D02*
X221647416Y-78876064D01*
X225012064Y-91433100D02*
X224753245Y-90467174D01*
X225012064Y-91433100D02*
X225977989Y-91174281D01*
X234204452Y-75511416D02*
X233238526Y-75770235D01*
X234204452Y-75511416D02*
X234463271Y-76477342D01*
X236603174Y-88327271D02*
X237569099Y-88068452D01*
X237310280Y-87102526D02*
X237569099Y-88068452D01*
%TO.C,S_MAT_L13*%
X87539475Y-63992992D02*
X87798294Y-63027066D01*
X87539475Y-63992992D02*
X88505400Y-64251811D01*
X90645303Y-52401882D02*
X90904122Y-51435956D01*
X91870048Y-51694775D02*
X90904122Y-51435956D01*
X99130585Y-67098821D02*
X100096510Y-67357640D01*
X100355329Y-66391714D02*
X100096510Y-67357640D01*
X103461158Y-54800604D02*
X102495232Y-54541785D01*
X103461158Y-54800604D02*
X103202339Y-55766530D01*
%TO.C,R_MAT_24*%
D12*
X40727064Y-48590000D02*
X39272936Y-48590000D01*
X40727064Y-50410000D02*
X39272936Y-50410000D01*
%TO.C,S_MAT_L34*%
D11*
X96288326Y-102054059D02*
X96710944Y-101147751D01*
X96288326Y-102054059D02*
X97194634Y-102476677D01*
X101359745Y-91178366D02*
X101782364Y-90272058D01*
X102688671Y-90694676D02*
X101782364Y-90272058D01*
X107164020Y-107125478D02*
X108070327Y-107548096D01*
X108492947Y-106641789D02*
X108070327Y-107548096D01*
X113564365Y-95766095D02*
X112658057Y-95343477D01*
X113564365Y-95766095D02*
X113141746Y-96672403D01*
%TO.C,S_MAT_L01*%
X50786480Y-38127601D02*
X50960128Y-37142794D01*
X50786480Y-38127601D02*
X51771287Y-38301249D01*
X52870258Y-26309908D02*
X53043906Y-25325100D01*
X54028714Y-25498749D02*
X53043906Y-25325100D01*
X62604173Y-40211379D02*
X63588980Y-40385029D01*
X63762629Y-39400220D02*
X63588980Y-40385029D01*
X65846407Y-27582527D02*
X64861599Y-27408879D01*
X65846407Y-27582527D02*
X65672761Y-28567335D01*
%TO.C,S_MAT_R20*%
X264600000Y-71300000D02*
X264600000Y-70300000D01*
X264600000Y-83300000D02*
X264600000Y-82300000D01*
X264600000Y-83300000D02*
X265600000Y-83300000D01*
X265600000Y-70300000D02*
X264600000Y-70300000D01*
X276600000Y-83300000D02*
X277600000Y-83300000D01*
X277600000Y-70300000D02*
X276600000Y-70300000D01*
X277600000Y-70300000D02*
X277600000Y-71300000D01*
X277600000Y-82300000D02*
X277600000Y-83300000D01*
%TO.C,U_MAT_2*%
D12*
X36665000Y-26240000D02*
X37190000Y-26240000D01*
X36665000Y-31760000D02*
X36665000Y-26240000D01*
X37190000Y-31760000D02*
X36665000Y-31760000D01*
X46560000Y-26240000D02*
X47085000Y-26240000D01*
X47085000Y-26240000D02*
X47085000Y-31760000D01*
X47085000Y-31760000D02*
X46560000Y-31760000D01*
X46565000Y-25500000D02*
X47035000Y-25160000D01*
X47035000Y-25840000D01*
X46565000Y-25500000D01*
G36*
X47035000Y-25840000D02*
G01*
X46565000Y-25500000D01*
X47035000Y-25160000D01*
X47035000Y-25840000D01*
G37*
%TO.C,S_MAT_R13*%
D11*
X196809065Y-55706514D02*
X196550246Y-54740588D01*
X197516172Y-54481769D02*
X196550246Y-54740588D01*
X199914894Y-67297624D02*
X199656075Y-66331698D01*
X199914894Y-67297624D02*
X200880819Y-67038805D01*
X209107282Y-51375940D02*
X208141356Y-51634759D01*
X209107282Y-51375940D02*
X209366101Y-52341866D01*
X211506004Y-64191795D02*
X212471929Y-63932976D01*
X212213110Y-62967050D02*
X212471929Y-63932976D01*
%TO.C,S_MAT_R01*%
X234335177Y-28606792D02*
X234161531Y-27621984D01*
X235146339Y-27448336D02*
X234161531Y-27621984D01*
X236418958Y-40424486D02*
X236245309Y-39439677D01*
X236418958Y-40424486D02*
X237403765Y-40250836D01*
X246964032Y-25364557D02*
X245979224Y-25538206D01*
X246964032Y-25364557D02*
X247137680Y-26349365D01*
X248236651Y-38340706D02*
X249221458Y-38167058D01*
X249047810Y-37182251D02*
X249221458Y-38167058D01*
%TO.C,D2*%
D12*
X182219176Y-87981141D02*
X181584761Y-88276972D01*
X182493877Y-88570240D02*
X182219176Y-87981141D01*
X181681009Y-89666482D02*
G75*
G02*
X179868393Y-90511719I-1075355J-60096D01*
G01*
%TO.C,S_MAT_L00*%
D11*
X22400000Y-37300000D02*
X22400000Y-36300000D01*
X22400000Y-49300000D02*
X22400000Y-48300000D01*
X22400000Y-49300000D02*
X23400000Y-49300000D01*
X23400000Y-36300000D02*
X22400000Y-36300000D01*
X34400000Y-49300000D02*
X35400000Y-49300000D01*
X35400000Y-36300000D02*
X34400000Y-36300000D01*
X35400000Y-36300000D02*
X35400000Y-37300000D01*
X35400000Y-48300000D02*
X35400000Y-49300000D01*
%TO.C,S_MAT_L14*%
X104926567Y-68638349D02*
X105185386Y-67672423D01*
X104926567Y-68638349D02*
X105892492Y-68897168D01*
X108032395Y-57047239D02*
X108291214Y-56081313D01*
X109257140Y-56340132D02*
X108291214Y-56081313D01*
X116517677Y-71744178D02*
X117483602Y-72002997D01*
X117742421Y-71037071D02*
X117483602Y-72002997D01*
X120848250Y-59445961D02*
X119882324Y-59187142D01*
X120848250Y-59445961D02*
X120589431Y-60411887D01*
%TO.C,S_MAT_L02*%
X75666904Y-38782329D02*
X75925723Y-37816403D01*
X75666904Y-38782329D02*
X76632829Y-39041148D01*
X78772732Y-27191219D02*
X79031551Y-26225293D01*
X79997477Y-26484112D02*
X79031551Y-26225293D01*
X87258014Y-41888158D02*
X88223939Y-42146977D01*
X88482758Y-41181051D02*
X88223939Y-42146977D01*
X91588587Y-29589941D02*
X90622661Y-29331122D01*
X91588587Y-29589941D02*
X91329768Y-30555867D01*
%TO.C,J_VIK_IN_SW_1*%
D13*
X138570000Y-99450000D02*
X138570000Y-101819000D01*
X138570000Y-110450000D02*
X138570000Y-108081000D01*
X140231000Y-99450000D02*
X138570000Y-99450000D01*
X140231000Y-110450000D02*
X138570000Y-110450000D01*
X145065000Y-99450000D02*
X142682000Y-99450000D01*
X145065000Y-99450000D02*
X145065000Y-110450000D01*
X145065000Y-110450000D02*
X142682000Y-110450000D01*
X138189000Y-108379000D02*
G75*
G02*
X137935000Y-108379000I-127000J0D01*
G01*
X137935000Y-108379000D02*
G75*
G02*
X138189000Y-108379000I127000J0D01*
G01*
%TO.C,R3*%
D12*
X177774361Y-78367989D02*
X176456475Y-78982530D01*
X178543525Y-80017470D02*
X177225639Y-80632011D01*
%TO.C,R_MAT_23*%
X39272936Y-43590000D02*
X40727064Y-43590000D01*
X39272936Y-45410000D02*
X40727064Y-45410000D01*
%TO.C,S_MAT_R12*%
D11*
X213068892Y-47004284D02*
X212810073Y-46038358D01*
X213775999Y-45779539D02*
X212810073Y-46038358D01*
X216174721Y-58595394D02*
X215915902Y-57629468D01*
X216174721Y-58595394D02*
X217140646Y-58336575D01*
X225367109Y-42673710D02*
X224401183Y-42932529D01*
X225367109Y-42673710D02*
X225625928Y-43639636D01*
X227765831Y-55489565D02*
X228731756Y-55230746D01*
X228472937Y-54264820D02*
X228731756Y-55230746D01*
%TO.C,S_MAT_R10*%
X264615196Y-54349968D02*
X264615196Y-53349968D01*
X264615196Y-66349968D02*
X264615196Y-65349968D01*
X264615196Y-66349968D02*
X265615196Y-66349968D01*
X265615196Y-53349968D02*
X264615196Y-53349968D01*
X276615196Y-66349968D02*
X277615196Y-66349968D01*
X277615196Y-53349968D02*
X276615196Y-53349968D01*
X277615196Y-53349968D02*
X277615196Y-54349968D01*
X277615196Y-65349968D02*
X277615196Y-66349968D01*
%TO.C,R_MAT_5*%
D12*
X260727064Y-45090000D02*
X259272936Y-45090000D01*
X260727064Y-46910000D02*
X259272936Y-46910000D01*
%TO.C,R_MAT_25*%
X260727064Y-40090000D02*
X259272936Y-40090000D01*
X260727064Y-41910000D02*
X259272936Y-41910000D01*
%TO.C,S_MAT_R31*%
D11*
X243177172Y-78798250D02*
X243003526Y-77813442D01*
X243988334Y-77639794D02*
X243003526Y-77813442D01*
X245260953Y-90615944D02*
X245087304Y-89631135D01*
X245260953Y-90615944D02*
X246245760Y-90442294D01*
X255806027Y-75556015D02*
X254821219Y-75729664D01*
X255806027Y-75556015D02*
X255979675Y-76540823D01*
X257078646Y-88532164D02*
X258063453Y-88358516D01*
X257889805Y-87373709D02*
X258063453Y-88358516D01*
%TO.C,S_MAT_R02*%
X208691415Y-30561948D02*
X208432596Y-29596022D01*
X209398522Y-29337203D02*
X208432596Y-29596022D01*
X211797244Y-42153058D02*
X211538425Y-41187132D01*
X211797244Y-42153058D02*
X212763169Y-41894239D01*
X220989632Y-26231374D02*
X220023706Y-26490193D01*
X220989632Y-26231374D02*
X221248451Y-27197300D01*
X223388354Y-39047229D02*
X224354279Y-38788410D01*
X224095460Y-37822484D02*
X224354279Y-38788410D01*
%TO.C,S_MAT_L25*%
X112716983Y-110118801D02*
X113290560Y-109299649D01*
X112716983Y-110118801D02*
X113536135Y-110692377D01*
X119599901Y-100288976D02*
X120173477Y-99469824D01*
X120992629Y-100043400D02*
X120173477Y-99469824D01*
X122546808Y-117001718D02*
X123365960Y-117575294D01*
X123939536Y-116756142D02*
X123365960Y-117575294D01*
X130822454Y-106926318D02*
X130003302Y-106352741D01*
X130822454Y-106926318D02*
X130248877Y-107745470D01*
%TO.C,R_MAT_32*%
D12*
X39272936Y-46090000D02*
X40727064Y-46090000D01*
X39272936Y-47910000D02*
X40727064Y-47910000D01*
%TO.C,S_MAT_L03*%
D11*
X91919811Y-47531121D02*
X92178630Y-46565195D01*
X91919811Y-47531121D02*
X92885736Y-47789940D01*
X95025639Y-35940011D02*
X95284458Y-34974085D01*
X96250384Y-35232904D02*
X95284458Y-34974085D01*
X103510921Y-50636950D02*
X104476846Y-50895769D01*
X104735665Y-49929843D02*
X104476846Y-50895769D01*
X107841494Y-38338733D02*
X106875568Y-38079914D01*
X107841494Y-38338733D02*
X107582675Y-39304659D01*
%TO.C,S_MAT_R15*%
X160031384Y-93905964D02*
X159457807Y-93086812D01*
X160276959Y-92513235D02*
X159457807Y-93086812D01*
X166914301Y-103735788D02*
X166340725Y-102916636D01*
X166914301Y-103735788D02*
X167733453Y-103162212D01*
X170106784Y-85630318D02*
X169287632Y-86203894D01*
X170106784Y-85630318D02*
X170680360Y-86449470D01*
X176744126Y-96852871D02*
X177563278Y-96279295D01*
X176989701Y-95460143D02*
X177563278Y-96279295D01*
%TO.C,S_MAT_L11*%
X47870037Y-54872536D02*
X48043685Y-53887729D01*
X47870037Y-54872536D02*
X48854844Y-55046184D01*
X49953815Y-43054843D02*
X50127463Y-42070035D01*
X51112271Y-42243684D02*
X50127463Y-42070035D01*
X59687730Y-56956314D02*
X60672537Y-57129964D01*
X60846186Y-56145155D02*
X60672537Y-57129964D01*
X62929964Y-44327462D02*
X61945156Y-44153814D01*
X62929964Y-44327462D02*
X62756318Y-45312270D01*
%TO.C,S_MAT_L24*%
X100506550Y-85041926D02*
X100765369Y-84076000D01*
X100506550Y-85041926D02*
X101472475Y-85300745D01*
X103612378Y-73450816D02*
X103871197Y-72484890D01*
X104837123Y-72743709D02*
X103871197Y-72484890D01*
X112097660Y-88147755D02*
X113063585Y-88406574D01*
X113322404Y-87440648D02*
X113063585Y-88406574D01*
X116428233Y-75849538D02*
X115462307Y-75590719D01*
X116428233Y-75849538D02*
X116169414Y-76815464D01*
%TO.C,R_MAT_6*%
D12*
X259322936Y-48090000D02*
X260777064Y-48090000D01*
X259322936Y-49910000D02*
X260777064Y-49910000D01*
%TO.C,R4*%
X179274361Y-80367989D02*
X177956475Y-80982530D01*
X180043525Y-82017470D02*
X178725639Y-82632011D01*
%TO.C,R_MAT_16*%
X259322936Y-50590000D02*
X260777064Y-50590000D01*
X259322936Y-52410000D02*
X260777064Y-52410000D01*
%TO.C,SW_RST_1*%
X119690906Y-84160292D02*
X123769292Y-86062073D01*
X120248495Y-80006788D02*
X119614567Y-81366250D01*
X125958722Y-84324577D02*
X126592650Y-82965116D01*
X126516310Y-80171074D02*
X122437925Y-78269291D01*
%TO.C,S_MAT_R23*%
D11*
X201225302Y-72196913D02*
X200966483Y-71230987D01*
X201932409Y-70972168D02*
X200966483Y-71230987D01*
X204331131Y-83788023D02*
X204072312Y-82822097D01*
X204331131Y-83788023D02*
X205297056Y-83529204D01*
X213523519Y-67866339D02*
X212557593Y-68125158D01*
X213523519Y-67866339D02*
X213782338Y-68832265D01*
X215922241Y-80682194D02*
X216888166Y-80423375D01*
X216629347Y-79457449D02*
X216888166Y-80423375D01*
%TO.C,S_MAT_R14*%
X179439810Y-60396508D02*
X179180991Y-59430582D01*
X180146917Y-59171763D02*
X179180991Y-59430582D01*
X182545639Y-71987618D02*
X182286820Y-71021692D01*
X182545639Y-71987618D02*
X183511564Y-71728799D01*
X191738027Y-56065934D02*
X190772101Y-56324753D01*
X191738027Y-56065934D02*
X191996846Y-57031860D01*
X194136749Y-68881789D02*
X195102674Y-68622970D01*
X194843855Y-67657044D02*
X195102674Y-68622970D01*
%TO.C,R_MAT_13*%
D12*
X39272936Y-41090000D02*
X40727064Y-41090000D01*
X39272936Y-42910000D02*
X40727064Y-42910000D01*
%TO.C,S_MAT_L10*%
D11*
X22400000Y-54300000D02*
X22400000Y-53300000D01*
X22400000Y-66300000D02*
X22400000Y-65300000D01*
X22400000Y-66300000D02*
X23400000Y-66300000D01*
X23400000Y-53300000D02*
X22400000Y-53300000D01*
X34400000Y-66300000D02*
X35400000Y-66300000D01*
X35400000Y-53300000D02*
X34400000Y-53300000D01*
X35400000Y-53300000D02*
X35400000Y-54300000D01*
X35400000Y-65300000D02*
X35400000Y-66300000D01*
%TO.C,S_MAT_L32*%
X62424042Y-88040309D02*
X62682861Y-87074383D01*
X62424042Y-88040309D02*
X63389967Y-88299128D01*
X65529870Y-76449199D02*
X65788689Y-75483273D01*
X66754615Y-75742092D02*
X65788689Y-75483273D01*
X74015152Y-91146138D02*
X74981077Y-91404957D01*
X75239896Y-90439031D02*
X74981077Y-91404957D01*
X78345725Y-78847921D02*
X77379799Y-78589102D01*
X78345725Y-78847921D02*
X78086906Y-79813847D01*
%TO.C,S_MAT_R11*%
X237280958Y-45272161D02*
X237107312Y-44287353D01*
X238092120Y-44113705D02*
X237107312Y-44287353D01*
X239364739Y-57089855D02*
X239191090Y-56105046D01*
X239364739Y-57089855D02*
X240349546Y-56916205D01*
X249909813Y-42029926D02*
X248925005Y-42203575D01*
X249909813Y-42029926D02*
X250083461Y-43014734D01*
X251182432Y-55006075D02*
X252167239Y-54832427D01*
X251993591Y-53847620D02*
X252167239Y-54832427D01*
%TO.C,U_MAT_3*%
D12*
X252065000Y-24740000D02*
X252590000Y-24740000D01*
X252065000Y-30260000D02*
X252065000Y-24740000D01*
X252590000Y-30260000D02*
X252065000Y-30260000D01*
X261960000Y-24740000D02*
X262485000Y-24740000D01*
X262485000Y-24740000D02*
X262485000Y-30260000D01*
X262485000Y-30260000D02*
X261960000Y-30260000D01*
X261965000Y-24000000D02*
X262435000Y-23660000D01*
X262435000Y-24340000D01*
X261965000Y-24000000D01*
G36*
X262435000Y-24340000D02*
G01*
X261965000Y-24000000D01*
X262435000Y-23660000D01*
X262435000Y-24340000D01*
G37*
%TO.C,S_MAT_R22*%
D11*
X217487564Y-63427788D02*
X217228745Y-62461862D01*
X218194671Y-62203043D02*
X217228745Y-62461862D01*
X220593393Y-75018898D02*
X220334574Y-74052972D01*
X220593393Y-75018898D02*
X221559318Y-74760079D01*
X229785781Y-59097214D02*
X228819855Y-59356033D01*
X229785781Y-59097214D02*
X230044600Y-60063140D01*
X232184503Y-71913069D02*
X233150428Y-71654250D01*
X232891609Y-70688324D02*
X233150428Y-71654250D01*
%TO.C,R_MAT_33*%
D12*
X260727064Y-37590000D02*
X259272936Y-37590000D01*
X260727064Y-39410000D02*
X259272936Y-39410000D01*
%TO.C,R_MAT_26*%
X259322936Y-53090000D02*
X260777064Y-53090000D01*
X259322936Y-54910000D02*
X260777064Y-54910000D01*
%TO.C,S_MAT_L31*%
D11*
X41974068Y-88325232D02*
X42147716Y-87340425D01*
X41974068Y-88325232D02*
X42958875Y-88498880D01*
X44057846Y-76507539D02*
X44231494Y-75522731D01*
X45216302Y-75696380D02*
X44231494Y-75522731D01*
X53791761Y-90409010D02*
X54776568Y-90582660D01*
X54950217Y-89597851D02*
X54776568Y-90582660D01*
X57033995Y-77780158D02*
X56049187Y-77606510D01*
X57033995Y-77780158D02*
X56860349Y-78764966D01*
%TO.C,S_MAT_L23*%
X83158014Y-80380837D02*
X83416833Y-79414911D01*
X83158014Y-80380837D02*
X84123939Y-80639656D01*
X86263842Y-68789727D02*
X86522661Y-67823801D01*
X87488587Y-68082620D02*
X86522661Y-67823801D01*
X94749124Y-83486666D02*
X95715049Y-83745485D01*
X95973868Y-82779559D02*
X95715049Y-83745485D01*
X99079697Y-71188449D02*
X98113771Y-70929630D01*
X99079697Y-71188449D02*
X98820878Y-72154375D01*
%TO.C,S_MAT_L21*%
X44870037Y-71572536D02*
X45043685Y-70587729D01*
X44870037Y-71572536D02*
X45854844Y-71746184D01*
X46953815Y-59754843D02*
X47127463Y-58770035D01*
X48112271Y-58943684D02*
X47127463Y-58770035D01*
X56687730Y-73656314D02*
X57672537Y-73829964D01*
X57846186Y-72845155D02*
X57672537Y-73829964D01*
X59929964Y-61027462D02*
X58945156Y-60853814D01*
X59929964Y-61027462D02*
X59756318Y-62012270D01*
%TD*%
M02*
