%TF.GenerationSoftware,KiCad,Pcbnew,10.0.2*%
%TF.CreationDate,2026-05-21T15:46:53-05:00*%
%TF.ProjectId,pcb_plate,7063625f-706c-4617-9465-2e6b69636164,rev?*%
%TF.SameCoordinates,Original*%
%TF.FileFunction,Legend,Top*%
%TF.FilePolarity,Positive*%
%FSLAX46Y46*%
G04 Gerber Fmt 4.6, Leading zero omitted, Abs format (unit mm)*
G04 Created by KiCad (PCBNEW 10.0.2) date 2026-05-21 15:46:53*
%MOMM*%
%LPD*%
G01*
G04 APERTURE LIST*
%ADD10C,0.150000*%
%ADD11C,0.140000*%
%ADD12C,0.254000*%
G04 APERTURE END LIST*
D10*
X137220414Y-101444173D02*
X137220414Y-100979887D01*
X137220414Y-100979887D02*
X137506128Y-101229887D01*
X137506128Y-101229887D02*
X137506128Y-101122744D01*
X137506128Y-101122744D02*
X137541842Y-101051316D01*
X137541842Y-101051316D02*
X137577557Y-101015601D01*
X137577557Y-101015601D02*
X137648985Y-100979887D01*
X137648985Y-100979887D02*
X137827557Y-100979887D01*
X137827557Y-100979887D02*
X137898985Y-101015601D01*
X137898985Y-101015601D02*
X137934700Y-101051316D01*
X137934700Y-101051316D02*
X137970414Y-101122744D01*
X137970414Y-101122744D02*
X137970414Y-101337030D01*
X137970414Y-101337030D02*
X137934700Y-101408458D01*
X137934700Y-101408458D02*
X137898985Y-101444173D01*
X137470414Y-100729887D02*
X137970414Y-100551315D01*
X137970414Y-100551315D02*
X137470414Y-100372744D01*
X137220414Y-100158458D02*
X137220414Y-99694172D01*
X137220414Y-99694172D02*
X137506128Y-99944172D01*
X137506128Y-99944172D02*
X137506128Y-99837029D01*
X137506128Y-99837029D02*
X137541842Y-99765601D01*
X137541842Y-99765601D02*
X137577557Y-99729886D01*
X137577557Y-99729886D02*
X137648985Y-99694172D01*
X137648985Y-99694172D02*
X137827557Y-99694172D01*
X137827557Y-99694172D02*
X137898985Y-99729886D01*
X137898985Y-99729886D02*
X137934700Y-99765601D01*
X137934700Y-99765601D02*
X137970414Y-99837029D01*
X137970414Y-99837029D02*
X137970414Y-100051315D01*
X137970414Y-100051315D02*
X137934700Y-100122743D01*
X137934700Y-100122743D02*
X137898985Y-100158458D01*
G36*
X137405819Y-107301599D02*
G01*
X136033891Y-107301599D01*
X136033891Y-106440031D01*
X136145408Y-106440031D01*
X136147483Y-106469221D01*
X136160569Y-106495394D01*
X136182676Y-106514568D01*
X136196102Y-106520562D01*
X136982648Y-106782744D01*
X136196102Y-107044926D01*
X136182676Y-107050920D01*
X136160569Y-107070094D01*
X136147483Y-107096267D01*
X136145408Y-107125457D01*
X136154662Y-107153220D01*
X136173836Y-107175327D01*
X136200009Y-107188413D01*
X136229199Y-107190488D01*
X136243536Y-107187228D01*
X137243536Y-106853895D01*
X137256961Y-106847901D01*
X137261008Y-106844390D01*
X137265802Y-106841994D01*
X137271966Y-106834886D01*
X137279068Y-106828727D01*
X137281463Y-106823935D01*
X137284976Y-106819886D01*
X137287950Y-106810963D01*
X137292155Y-106802554D01*
X137292534Y-106797209D01*
X137294230Y-106792124D01*
X137293563Y-106782744D01*
X137294230Y-106773364D01*
X137292534Y-106768278D01*
X137292155Y-106762934D01*
X137287950Y-106754524D01*
X137284976Y-106745602D01*
X137281463Y-106741552D01*
X137279068Y-106736761D01*
X137271966Y-106730601D01*
X137265802Y-106723494D01*
X137261008Y-106721097D01*
X137256961Y-106717587D01*
X137243536Y-106711593D01*
X136243536Y-106378260D01*
X136229199Y-106375000D01*
X136200009Y-106377075D01*
X136173836Y-106390161D01*
X136154662Y-106412268D01*
X136145408Y-106440031D01*
X136033891Y-106440031D01*
X136033891Y-106101445D01*
X136146260Y-106101445D01*
X136146260Y-106130709D01*
X136157459Y-106157745D01*
X136178151Y-106178437D01*
X136205187Y-106189636D01*
X136219819Y-106191077D01*
X137219819Y-106191077D01*
X137234451Y-106189636D01*
X137261487Y-106178437D01*
X137282179Y-106157745D01*
X137293378Y-106130709D01*
X137293378Y-106101445D01*
X137282179Y-106074409D01*
X137261487Y-106053717D01*
X137234451Y-106042518D01*
X137219819Y-106041077D01*
X136219819Y-106041077D01*
X136205187Y-106042518D01*
X136178151Y-106053717D01*
X136157459Y-106074409D01*
X136146260Y-106101445D01*
X136033891Y-106101445D01*
X136033891Y-105053828D01*
X136146260Y-105053828D01*
X136146260Y-105083090D01*
X136157459Y-105110127D01*
X136166786Y-105121492D01*
X136610181Y-105564887D01*
X136219819Y-105564887D01*
X136205187Y-105566328D01*
X136178151Y-105577527D01*
X136157459Y-105598219D01*
X136146260Y-105625255D01*
X136146260Y-105654519D01*
X136157459Y-105681555D01*
X136178151Y-105702247D01*
X136205187Y-105713446D01*
X136219819Y-105714887D01*
X137219819Y-105714887D01*
X137234451Y-105713446D01*
X137261487Y-105702247D01*
X137282179Y-105681555D01*
X137293378Y-105654519D01*
X137293378Y-105625255D01*
X137282179Y-105598219D01*
X137261487Y-105577527D01*
X137234451Y-105566328D01*
X137219819Y-105564887D01*
X136822313Y-105564887D01*
X136762570Y-105505144D01*
X137264819Y-105128459D01*
X137275660Y-105118527D01*
X137290570Y-105093346D01*
X137294708Y-105064377D01*
X137287446Y-105036029D01*
X137269887Y-105012618D01*
X137244706Y-104997709D01*
X137215738Y-104993570D01*
X137187389Y-105000832D01*
X137174819Y-105008459D01*
X136655427Y-105398001D01*
X136272852Y-105015426D01*
X136261487Y-105006099D01*
X136234450Y-104994900D01*
X136205188Y-104994900D01*
X136178151Y-105006099D01*
X136157459Y-105026791D01*
X136146260Y-105053828D01*
X136033891Y-105053828D01*
X136033891Y-103863350D01*
X136146260Y-103863350D01*
X136146260Y-103892614D01*
X136157459Y-103919650D01*
X136178151Y-103940342D01*
X136205187Y-103951541D01*
X136219819Y-103952982D01*
X137219819Y-103952982D01*
X137234451Y-103951541D01*
X137261487Y-103940342D01*
X137282179Y-103919650D01*
X137293378Y-103892614D01*
X137293378Y-103863350D01*
X137282179Y-103836314D01*
X137261487Y-103815622D01*
X137234451Y-103804423D01*
X137219819Y-103802982D01*
X136219819Y-103802982D01*
X136205187Y-103804423D01*
X136178151Y-103815622D01*
X136157459Y-103836314D01*
X136146260Y-103863350D01*
X136033891Y-103863350D01*
X136033891Y-103396553D01*
X136145002Y-103396553D01*
X136146260Y-103406449D01*
X136146260Y-103416424D01*
X136148089Y-103420839D01*
X136148692Y-103425583D01*
X136153642Y-103434247D01*
X136157459Y-103443460D01*
X136160837Y-103446838D01*
X136163211Y-103450992D01*
X136171100Y-103457101D01*
X136178151Y-103464152D01*
X136182567Y-103465981D01*
X136186348Y-103468909D01*
X136195971Y-103471533D01*
X136205187Y-103475351D01*
X136212669Y-103476087D01*
X136214580Y-103476609D01*
X136216055Y-103476421D01*
X136219819Y-103476792D01*
X137219819Y-103476792D01*
X137234451Y-103475351D01*
X137261487Y-103464152D01*
X137282179Y-103443460D01*
X137293378Y-103416424D01*
X137293378Y-103387160D01*
X137282179Y-103360124D01*
X137261487Y-103339432D01*
X137234451Y-103328233D01*
X137219819Y-103326792D01*
X136502236Y-103326792D01*
X137257030Y-102895482D01*
X137260114Y-102893292D01*
X137261487Y-102892724D01*
X137262884Y-102891326D01*
X137269019Y-102886972D01*
X137275127Y-102879083D01*
X137282179Y-102872032D01*
X137284009Y-102867613D01*
X137286936Y-102863834D01*
X137289560Y-102854212D01*
X137293378Y-102844996D01*
X137293378Y-102840215D01*
X137294636Y-102835603D01*
X137293378Y-102825706D01*
X137293378Y-102815732D01*
X137291548Y-102811316D01*
X137290946Y-102806573D01*
X137285995Y-102797908D01*
X137282179Y-102788696D01*
X137278800Y-102785317D01*
X137276427Y-102781164D01*
X137268537Y-102775054D01*
X137261487Y-102768004D01*
X137257070Y-102766174D01*
X137253290Y-102763247D01*
X137243666Y-102760622D01*
X137234451Y-102756805D01*
X137226968Y-102756068D01*
X137225058Y-102755547D01*
X137223582Y-102755734D01*
X137219819Y-102755364D01*
X136219819Y-102755364D01*
X136205187Y-102756805D01*
X136178151Y-102768004D01*
X136157459Y-102788696D01*
X136146260Y-102815732D01*
X136146260Y-102844996D01*
X136157459Y-102872032D01*
X136178151Y-102892724D01*
X136205187Y-102903923D01*
X136219819Y-102905364D01*
X136937402Y-102905364D01*
X136182609Y-103336674D01*
X136179525Y-103338862D01*
X136178151Y-103339432D01*
X136176751Y-103340831D01*
X136170619Y-103345184D01*
X136164509Y-103353073D01*
X136157459Y-103360124D01*
X136155629Y-103364540D01*
X136152702Y-103368321D01*
X136150077Y-103377944D01*
X136146260Y-103387160D01*
X136146260Y-103391940D01*
X136145002Y-103396553D01*
X136033891Y-103396553D01*
X136033891Y-102644253D01*
X137405819Y-102644253D01*
X137405819Y-107301599D01*
G37*
X162779585Y-108455826D02*
X162779585Y-108920112D01*
X162779585Y-108920112D02*
X162493871Y-108670112D01*
X162493871Y-108670112D02*
X162493871Y-108777255D01*
X162493871Y-108777255D02*
X162458157Y-108848684D01*
X162458157Y-108848684D02*
X162422442Y-108884398D01*
X162422442Y-108884398D02*
X162351014Y-108920112D01*
X162351014Y-108920112D02*
X162172442Y-108920112D01*
X162172442Y-108920112D02*
X162101014Y-108884398D01*
X162101014Y-108884398D02*
X162065300Y-108848684D01*
X162065300Y-108848684D02*
X162029585Y-108777255D01*
X162029585Y-108777255D02*
X162029585Y-108562969D01*
X162029585Y-108562969D02*
X162065300Y-108491541D01*
X162065300Y-108491541D02*
X162101014Y-108455826D01*
X162529585Y-109170112D02*
X162029585Y-109348684D01*
X162029585Y-109348684D02*
X162529585Y-109527255D01*
X162779585Y-109741541D02*
X162779585Y-110205827D01*
X162779585Y-110205827D02*
X162493871Y-109955827D01*
X162493871Y-109955827D02*
X162493871Y-110062970D01*
X162493871Y-110062970D02*
X162458157Y-110134399D01*
X162458157Y-110134399D02*
X162422442Y-110170113D01*
X162422442Y-110170113D02*
X162351014Y-110205827D01*
X162351014Y-110205827D02*
X162172442Y-110205827D01*
X162172442Y-110205827D02*
X162101014Y-110170113D01*
X162101014Y-110170113D02*
X162065300Y-110134399D01*
X162065300Y-110134399D02*
X162029585Y-110062970D01*
X162029585Y-110062970D02*
X162029585Y-109848684D01*
X162029585Y-109848684D02*
X162065300Y-109777256D01*
X162065300Y-109777256D02*
X162101014Y-109741541D01*
G36*
X163966108Y-107255746D02*
G01*
X162594180Y-107255746D01*
X162594180Y-107064396D01*
X162705363Y-107064396D01*
X162706621Y-107074292D01*
X162706621Y-107084267D01*
X162708450Y-107088682D01*
X162709053Y-107093426D01*
X162714003Y-107102090D01*
X162717820Y-107111303D01*
X162721198Y-107114681D01*
X162723572Y-107118835D01*
X162731461Y-107124944D01*
X162738512Y-107131995D01*
X162742928Y-107133824D01*
X162746709Y-107136752D01*
X162756332Y-107139376D01*
X162765548Y-107143194D01*
X162773030Y-107143930D01*
X162774941Y-107144452D01*
X162776416Y-107144264D01*
X162780180Y-107144635D01*
X163780180Y-107144635D01*
X163794812Y-107143194D01*
X163821848Y-107131995D01*
X163842540Y-107111303D01*
X163853739Y-107084267D01*
X163853739Y-107055003D01*
X163842540Y-107027967D01*
X163821848Y-107007275D01*
X163794812Y-106996076D01*
X163780180Y-106994635D01*
X163062597Y-106994635D01*
X163817391Y-106563325D01*
X163820475Y-106561135D01*
X163821848Y-106560567D01*
X163823245Y-106559169D01*
X163829380Y-106554815D01*
X163835488Y-106546926D01*
X163842540Y-106539875D01*
X163844370Y-106535456D01*
X163847297Y-106531677D01*
X163849921Y-106522055D01*
X163853739Y-106512839D01*
X163853739Y-106508058D01*
X163854997Y-106503446D01*
X163853739Y-106493549D01*
X163853739Y-106483575D01*
X163851909Y-106479159D01*
X163851307Y-106474416D01*
X163846356Y-106465751D01*
X163842540Y-106456539D01*
X163839161Y-106453160D01*
X163836788Y-106449007D01*
X163828898Y-106442897D01*
X163821848Y-106435847D01*
X163817431Y-106434017D01*
X163813651Y-106431090D01*
X163804027Y-106428465D01*
X163794812Y-106424648D01*
X163787329Y-106423911D01*
X163785419Y-106423390D01*
X163783943Y-106423577D01*
X163780180Y-106423207D01*
X162780180Y-106423207D01*
X162765548Y-106424648D01*
X162738512Y-106435847D01*
X162717820Y-106456539D01*
X162706621Y-106483575D01*
X162706621Y-106512839D01*
X162717820Y-106539875D01*
X162738512Y-106560567D01*
X162765548Y-106571766D01*
X162780180Y-106573207D01*
X163497763Y-106573207D01*
X162742970Y-107004517D01*
X162739886Y-107006705D01*
X162738512Y-107007275D01*
X162737112Y-107008674D01*
X162730980Y-107013027D01*
X162724870Y-107020916D01*
X162717820Y-107027967D01*
X162715990Y-107032383D01*
X162713063Y-107036164D01*
X162710438Y-107045787D01*
X162706621Y-107055003D01*
X162706621Y-107059783D01*
X162705363Y-107064396D01*
X162594180Y-107064396D01*
X162594180Y-106007385D01*
X162706621Y-106007385D01*
X162706621Y-106036649D01*
X162717820Y-106063685D01*
X162738512Y-106084377D01*
X162765548Y-106095576D01*
X162780180Y-106097017D01*
X163780180Y-106097017D01*
X163794812Y-106095576D01*
X163821848Y-106084377D01*
X163842540Y-106063685D01*
X163853739Y-106036649D01*
X163853739Y-106007385D01*
X163842540Y-105980349D01*
X163821848Y-105959657D01*
X163794812Y-105948458D01*
X163780180Y-105947017D01*
X162780180Y-105947017D01*
X162765548Y-105948458D01*
X162738512Y-105959657D01*
X162717820Y-105980349D01*
X162706621Y-106007385D01*
X162594180Y-106007385D01*
X162594180Y-104835622D01*
X162705291Y-104835622D01*
X162712554Y-104863970D01*
X162730112Y-104887381D01*
X162755293Y-104902290D01*
X162784262Y-104906429D01*
X162812610Y-104899166D01*
X162825180Y-104891540D01*
X163344571Y-104501997D01*
X163727147Y-104884573D01*
X163738512Y-104893900D01*
X163765548Y-104905099D01*
X163794811Y-104905099D01*
X163821848Y-104893900D01*
X163842540Y-104873208D01*
X163853739Y-104846171D01*
X163853739Y-104816908D01*
X163842540Y-104789872D01*
X163833213Y-104778507D01*
X163389818Y-104335112D01*
X163780180Y-104335112D01*
X163794812Y-104333671D01*
X163821848Y-104322472D01*
X163842540Y-104301780D01*
X163853739Y-104274744D01*
X163853739Y-104245480D01*
X163842540Y-104218444D01*
X163821848Y-104197752D01*
X163794812Y-104186553D01*
X163780180Y-104185112D01*
X162780180Y-104185112D01*
X162765548Y-104186553D01*
X162738512Y-104197752D01*
X162717820Y-104218444D01*
X162706621Y-104245480D01*
X162706621Y-104274744D01*
X162717820Y-104301780D01*
X162738512Y-104322472D01*
X162765548Y-104333671D01*
X162780180Y-104335112D01*
X163177686Y-104335112D01*
X163237428Y-104394854D01*
X162735180Y-104771540D01*
X162724339Y-104781472D01*
X162709430Y-104806653D01*
X162705291Y-104835622D01*
X162594180Y-104835622D01*
X162594180Y-103769290D01*
X162706621Y-103769290D01*
X162706621Y-103798554D01*
X162717820Y-103825590D01*
X162738512Y-103846282D01*
X162765548Y-103857481D01*
X162780180Y-103858922D01*
X163780180Y-103858922D01*
X163794812Y-103857481D01*
X163821848Y-103846282D01*
X163842540Y-103825590D01*
X163853739Y-103798554D01*
X163853739Y-103769290D01*
X163842540Y-103742254D01*
X163821848Y-103721562D01*
X163794812Y-103710363D01*
X163780180Y-103708922D01*
X162780180Y-103708922D01*
X162765548Y-103710363D01*
X162738512Y-103721562D01*
X162717820Y-103742254D01*
X162706621Y-103769290D01*
X162594180Y-103769290D01*
X162594180Y-103107875D01*
X162705769Y-103107875D01*
X162706435Y-103117255D01*
X162705769Y-103126635D01*
X162707464Y-103131720D01*
X162707844Y-103137065D01*
X162712048Y-103145474D01*
X162715023Y-103154398D01*
X162718534Y-103158446D01*
X162720930Y-103163238D01*
X162728034Y-103169400D01*
X162734197Y-103176505D01*
X162738988Y-103178900D01*
X162743037Y-103182412D01*
X162756463Y-103188406D01*
X163756463Y-103521739D01*
X163770799Y-103524999D01*
X163799989Y-103522924D01*
X163826163Y-103509838D01*
X163845337Y-103487730D01*
X163854591Y-103459968D01*
X163852516Y-103430778D01*
X163839429Y-103404605D01*
X163817322Y-103385431D01*
X163803897Y-103379437D01*
X163017350Y-103117255D01*
X163803897Y-102855073D01*
X163817322Y-102849079D01*
X163839429Y-102829905D01*
X163852516Y-102803732D01*
X163854591Y-102774542D01*
X163845337Y-102746780D01*
X163826163Y-102724672D01*
X163799989Y-102711586D01*
X163770799Y-102709511D01*
X163756463Y-102712771D01*
X162756463Y-103046104D01*
X162743037Y-103052098D01*
X162738988Y-103055609D01*
X162734197Y-103058005D01*
X162728034Y-103065109D01*
X162720930Y-103071272D01*
X162718534Y-103076063D01*
X162715023Y-103080112D01*
X162712048Y-103089035D01*
X162707844Y-103097445D01*
X162707464Y-103102789D01*
X162705769Y-103107875D01*
X162594180Y-103107875D01*
X162594180Y-102598400D01*
X163966108Y-102598400D01*
X163966108Y-107255746D01*
G37*
%TO.C,S_MAT_L00*%
D11*
X22400000Y-37300000D02*
X22400000Y-36300000D01*
X22400000Y-49300000D02*
X22400000Y-48300000D01*
X22400000Y-49300000D02*
X23400000Y-49300000D01*
X23400000Y-36300000D02*
X22400000Y-36300000D01*
X34400000Y-49300000D02*
X35400000Y-49300000D01*
X35400000Y-36300000D02*
X34400000Y-36300000D01*
X35400000Y-36300000D02*
X35400000Y-37300000D01*
X35400000Y-48300000D02*
X35400000Y-49300000D01*
%TO.C,J_VIK_IN_SW_1*%
D12*
X138570000Y-110450000D02*
X138570000Y-108081000D01*
X140231000Y-110450000D02*
X138570000Y-110450000D01*
X145065000Y-110450000D02*
X142682000Y-110450000D01*
X138570000Y-99450000D02*
X138570000Y-101819000D01*
X140231000Y-99450000D02*
X138570000Y-99450000D01*
X145065000Y-99450000D02*
X145065000Y-110450000D01*
X145065000Y-99450000D02*
X142682000Y-99450000D01*
X138189000Y-108379000D02*
G75*
G02*
X137935000Y-108379000I-127000J0D01*
G01*
X137935000Y-108379000D02*
G75*
G02*
X138189000Y-108379000I127000J0D01*
G01*
%TO.C,S_MAT_L10*%
D11*
X22400000Y-54300000D02*
X22400000Y-53300000D01*
X22400000Y-66300000D02*
X22400000Y-65300000D01*
X22400000Y-66300000D02*
X23400000Y-66300000D01*
X23400000Y-53300000D02*
X22400000Y-53300000D01*
X34400000Y-66300000D02*
X35400000Y-66300000D01*
X35400000Y-53300000D02*
X34400000Y-53300000D01*
X35400000Y-53300000D02*
X35400000Y-54300000D01*
X35400000Y-65300000D02*
X35400000Y-66300000D01*
%TO.C,S_MAT_L02*%
X78772732Y-27191219D02*
X79031551Y-26225293D01*
X75666904Y-38782329D02*
X75925723Y-37816403D01*
X75666904Y-38782329D02*
X76632829Y-39041148D01*
X79997477Y-26484112D02*
X79031551Y-26225293D01*
X87258014Y-41888158D02*
X88223939Y-42146977D01*
X91588587Y-29589941D02*
X90622661Y-29331122D01*
X91588587Y-29589941D02*
X91329768Y-30555867D01*
X88482758Y-41181051D02*
X88223939Y-42146977D01*
%TO.C,S_MAT_L01*%
X52870258Y-26309908D02*
X53043906Y-25325100D01*
X50786480Y-38127601D02*
X50960128Y-37142794D01*
X50786480Y-38127601D02*
X51771287Y-38301249D01*
X54028714Y-25498749D02*
X53043906Y-25325100D01*
X62604173Y-40211379D02*
X63588980Y-40385028D01*
X65846407Y-27582527D02*
X64861599Y-27408879D01*
X65846407Y-27582527D02*
X65672759Y-28567335D01*
X63762629Y-39400220D02*
X63588980Y-40385028D01*
%TO.C,S_MAT_L03*%
X95025639Y-35940011D02*
X95284458Y-34974085D01*
X91919811Y-47531121D02*
X92178630Y-46565195D01*
X91919811Y-47531121D02*
X92885736Y-47789940D01*
X96250384Y-35232904D02*
X95284458Y-34974085D01*
X103510921Y-50636950D02*
X104476846Y-50895769D01*
X107841494Y-38338733D02*
X106875568Y-38079914D01*
X107841494Y-38338733D02*
X107582675Y-39304659D01*
X104735665Y-49929843D02*
X104476846Y-50895769D01*
%TO.C,S_MAT_L04*%
X112432395Y-40581578D02*
X112691214Y-39615652D01*
X109326567Y-52172688D02*
X109585386Y-51206762D01*
X109326567Y-52172688D02*
X110292492Y-52431507D01*
X113657140Y-39874471D02*
X112691214Y-39615652D01*
X120917677Y-55278517D02*
X121883602Y-55537336D01*
X125248250Y-42980300D02*
X124282324Y-42721481D01*
X125248250Y-42980300D02*
X124989431Y-43946226D01*
X122142421Y-54571410D02*
X121883602Y-55537336D01*
%TO.C,S_MAT_L14*%
X108032395Y-57047239D02*
X108291214Y-56081313D01*
X104926567Y-68638349D02*
X105185386Y-67672423D01*
X104926567Y-68638349D02*
X105892492Y-68897168D01*
X109257140Y-56340132D02*
X108291214Y-56081313D01*
X116517677Y-71744178D02*
X117483602Y-72002997D01*
X120848250Y-59445961D02*
X119882324Y-59187142D01*
X120848250Y-59445961D02*
X120589431Y-60411887D01*
X117742421Y-71037071D02*
X117483602Y-72002997D01*
%TO.C,S_MAT_L15*%
X129341650Y-86452074D02*
X129915226Y-85632922D01*
X122458732Y-96281899D02*
X123032309Y-95462747D01*
X122458732Y-96281899D02*
X123277884Y-96855475D01*
X130734378Y-86206498D02*
X129915226Y-85632922D01*
X132288557Y-103164816D02*
X133107709Y-103738392D01*
X140564203Y-93089416D02*
X139745051Y-92515839D01*
X140564203Y-93089416D02*
X139990626Y-93908568D01*
X133681285Y-102919240D02*
X133107709Y-103738392D01*
%TO.C,S_MAT_L12*%
X74377834Y-43628332D02*
X74636653Y-42662406D01*
X71272006Y-55219442D02*
X71530825Y-54253516D01*
X71272006Y-55219442D02*
X72237931Y-55478261D01*
X75602579Y-42921225D02*
X74636653Y-42662406D01*
X82863116Y-58325271D02*
X83829041Y-58584090D01*
X87193689Y-46027054D02*
X86227763Y-45768235D01*
X87193689Y-46027054D02*
X86934870Y-46992980D01*
X84087860Y-57618164D02*
X83829041Y-58584090D01*
%TO.C,S_MAT_L20*%
X22400000Y-71326656D02*
X22400000Y-70326656D01*
X22400000Y-83326656D02*
X22400000Y-82326656D01*
X22400000Y-83326656D02*
X23400000Y-83326656D01*
X23400000Y-70326656D02*
X22400000Y-70326656D01*
X34400000Y-83326656D02*
X35400000Y-83326656D01*
X35400000Y-70326656D02*
X34400000Y-70326656D01*
X35400000Y-70326656D02*
X35400000Y-71326656D01*
X35400000Y-82326656D02*
X35400000Y-83326656D01*
%TO.C,S_MAT_L11*%
X49953815Y-43054843D02*
X50127463Y-42070035D01*
X47870037Y-54872536D02*
X48043685Y-53887729D01*
X47870037Y-54872536D02*
X48854844Y-55046184D01*
X51112271Y-42243684D02*
X50127463Y-42070035D01*
X59687730Y-56956314D02*
X60672537Y-57129963D01*
X62929964Y-44327462D02*
X61945156Y-44153814D01*
X62929964Y-44327462D02*
X62756316Y-45312270D01*
X60846186Y-56145155D02*
X60672537Y-57129963D01*
%TO.C,S_MAT_L13*%
X90645303Y-52401882D02*
X90904122Y-51435956D01*
X87539475Y-63992992D02*
X87798294Y-63027066D01*
X87539475Y-63992992D02*
X88505400Y-64251811D01*
X91870048Y-51694775D02*
X90904122Y-51435956D01*
X99130585Y-67098821D02*
X100096510Y-67357640D01*
X103461158Y-54800604D02*
X102495232Y-54541785D01*
X103461158Y-54800604D02*
X103202339Y-55766530D01*
X100355329Y-66391714D02*
X100096510Y-67357640D01*
%TO.C,S_MAT_L25*%
X119599901Y-100288976D02*
X120173477Y-99469824D01*
X112716983Y-110118801D02*
X113290560Y-109299649D01*
X112716983Y-110118801D02*
X113536135Y-110692377D01*
X120992629Y-100043400D02*
X120173477Y-99469824D01*
X122546808Y-117001718D02*
X123365960Y-117575294D01*
X130822454Y-106926318D02*
X130003302Y-106352741D01*
X130822454Y-106926318D02*
X130248877Y-107745470D01*
X123939536Y-116756142D02*
X123365960Y-117575294D01*
%TO.C,S_MAT_L21*%
X46953815Y-59754843D02*
X47127463Y-58770035D01*
X44870037Y-71572536D02*
X45043685Y-70587729D01*
X44870037Y-71572536D02*
X45854844Y-71746184D01*
X48112271Y-58943684D02*
X47127463Y-58770035D01*
X56687730Y-73656314D02*
X57672537Y-73829963D01*
X59929964Y-61027462D02*
X58945156Y-60853814D01*
X59929964Y-61027462D02*
X59756316Y-62012270D01*
X57846186Y-72845155D02*
X57672537Y-73829963D01*
%TO.C,S_MAT_L24*%
X103612378Y-73450816D02*
X103871197Y-72484890D01*
X100506550Y-85041926D02*
X100765369Y-84076000D01*
X100506550Y-85041926D02*
X101472475Y-85300745D01*
X104837123Y-72743709D02*
X103871197Y-72484890D01*
X112097660Y-88147755D02*
X113063585Y-88406574D01*
X116428233Y-75849538D02*
X115462307Y-75590719D01*
X116428233Y-75849538D02*
X116169414Y-76815464D01*
X113322404Y-87440648D02*
X113063585Y-88406574D01*
%TO.C,S_MAT_L22*%
X69967472Y-60047009D02*
X70226291Y-59081083D01*
X66861644Y-71638119D02*
X67120463Y-70672193D01*
X66861644Y-71638119D02*
X67827569Y-71896938D01*
X71192217Y-59339902D02*
X70226291Y-59081083D01*
X78452754Y-74743948D02*
X79418679Y-75002767D01*
X82783327Y-62445731D02*
X81817401Y-62186912D01*
X82783327Y-62445731D02*
X82524508Y-63411657D01*
X79677498Y-74036841D02*
X79418679Y-75002767D01*
%TO.C,S_MAT_L23*%
X86263842Y-68789727D02*
X86522661Y-67823801D01*
X83158014Y-80380837D02*
X83416833Y-79414911D01*
X83158014Y-80380837D02*
X84123939Y-80639656D01*
X87488587Y-68082620D02*
X86522661Y-67823801D01*
X94749124Y-83486666D02*
X95715049Y-83745485D01*
X99079697Y-71188449D02*
X98113771Y-70929630D01*
X99079697Y-71188449D02*
X98820878Y-72154375D01*
X95973868Y-82779559D02*
X95715049Y-83745485D01*
%TO.C,S_MAT_L31*%
X44057846Y-76507539D02*
X44231494Y-75522731D01*
X41974068Y-88325232D02*
X42147716Y-87340425D01*
X41974068Y-88325232D02*
X42958875Y-88498880D01*
X45216302Y-75696380D02*
X44231494Y-75522731D01*
X53791761Y-90409010D02*
X54776568Y-90582659D01*
X57033995Y-77780158D02*
X56049187Y-77606510D01*
X57033995Y-77780158D02*
X56860347Y-78764966D01*
X54950217Y-89597851D02*
X54776568Y-90582659D01*
%TO.C,S_MAT_L35*%
X135918491Y-112564701D02*
X136625598Y-111857594D01*
X127433210Y-121049982D02*
X128140316Y-120342876D01*
X127433210Y-121049982D02*
X128140316Y-121757089D01*
X137332704Y-112564701D02*
X136625598Y-111857594D01*
X135918491Y-129535264D02*
X136625598Y-130242370D01*
X145817986Y-121049982D02*
X145110879Y-120342876D01*
X145817986Y-121049982D02*
X145110879Y-121757089D01*
X137332704Y-129535264D02*
X136625598Y-130242370D01*
%TO.C,S_MAT_L32*%
X65529870Y-76449199D02*
X65788689Y-75483273D01*
X62424042Y-88040309D02*
X62682861Y-87074383D01*
X62424042Y-88040309D02*
X63389967Y-88299128D01*
X66754615Y-75742092D02*
X65788689Y-75483273D01*
X74015152Y-91146138D02*
X74981077Y-91404957D01*
X78345725Y-78847921D02*
X77379799Y-78589102D01*
X78345725Y-78847921D02*
X78086906Y-79813847D01*
X75239896Y-90439031D02*
X74981077Y-91404957D01*
%TO.C,S_MAT_L34*%
X101359745Y-91178366D02*
X101782364Y-90272058D01*
X96288326Y-102054059D02*
X96710944Y-101147751D01*
X96288326Y-102054059D02*
X97194634Y-102476677D01*
X102688671Y-90694676D02*
X101782364Y-90272058D01*
X107164020Y-107125478D02*
X108070327Y-107548096D01*
X113564365Y-95766095D02*
X112658057Y-95343477D01*
X113564365Y-95766095D02*
X113141746Y-96672403D01*
X108492946Y-106641789D02*
X108070327Y-107548096D01*
%TO.C,S_MAT_L33*%
X81869900Y-85210973D02*
X82128719Y-84245047D01*
X78764072Y-96802083D02*
X79022891Y-95836157D01*
X78764072Y-96802083D02*
X79729997Y-97060902D01*
X83094645Y-84503866D02*
X82128719Y-84245047D01*
X90355182Y-99907912D02*
X91321107Y-100166731D01*
X94685755Y-87609695D02*
X93719829Y-87350876D01*
X94685755Y-87609695D02*
X94426936Y-88575621D01*
X91579926Y-99200805D02*
X91321107Y-100166731D01*
%TO.C,J_VIK_IN_SW_2*%
D12*
X161430000Y-99450000D02*
X161430000Y-101819000D01*
X159769000Y-99450000D02*
X161430000Y-99450000D01*
X154935000Y-99450000D02*
X157318000Y-99450000D01*
X161430000Y-110450000D02*
X161430000Y-108081000D01*
X159769000Y-110450000D02*
X161430000Y-110450000D01*
X154935000Y-110450000D02*
X154935000Y-99450000D01*
X154935000Y-110450000D02*
X157318000Y-110450000D01*
X162065000Y-101521000D02*
G75*
G02*
X161811000Y-101521000I-127000J0D01*
G01*
X161811000Y-101521000D02*
G75*
G02*
X162065000Y-101521000I127000J0D01*
G01*
%TO.C,S_MAT_R02*%
D11*
X208691415Y-30561948D02*
X208432596Y-29596022D01*
X211797244Y-42153058D02*
X211538425Y-41187132D01*
X211797244Y-42153058D02*
X212763169Y-41894239D01*
X209398522Y-29337203D02*
X208432596Y-29596022D01*
X223388354Y-39047229D02*
X224354279Y-38788410D01*
X220989632Y-26231374D02*
X220023706Y-26490193D01*
X220989632Y-26231374D02*
X221248451Y-27197300D01*
X224095460Y-37822484D02*
X224354279Y-38788410D01*
%TO.C,S_MAT_R00*%
X264600000Y-37371319D02*
X264600000Y-36371319D01*
X264600000Y-49371319D02*
X264600000Y-48371319D01*
X264600000Y-49371319D02*
X265600000Y-49371319D01*
X265600000Y-36371319D02*
X264600000Y-36371319D01*
X276600000Y-49371319D02*
X277600000Y-49371319D01*
X277600000Y-36371319D02*
X276600000Y-36371319D01*
X277600000Y-36371319D02*
X277600000Y-37371319D01*
X277600000Y-48371319D02*
X277600000Y-49371319D01*
%TO.C,S_MAT_R01*%
X234335179Y-28606792D02*
X234161531Y-27621984D01*
X236418958Y-40424485D02*
X236245309Y-39439677D01*
X236418958Y-40424485D02*
X237403765Y-40250836D01*
X235146339Y-27448336D02*
X234161531Y-27621984D01*
X248236651Y-38340706D02*
X249221458Y-38167058D01*
X246964032Y-25364557D02*
X245979224Y-25538206D01*
X246964032Y-25364557D02*
X247137680Y-26349365D01*
X249047810Y-37182251D02*
X249221458Y-38167058D01*
%TO.C,S_MAT_R03*%
X192426719Y-39349904D02*
X192167900Y-38383978D01*
X195532548Y-50941014D02*
X195273729Y-49975088D01*
X195532548Y-50941014D02*
X196498473Y-50682195D01*
X193133826Y-38125159D02*
X192167900Y-38383978D01*
X207123658Y-47835185D02*
X208089583Y-47576366D01*
X204724936Y-35019330D02*
X203759010Y-35278149D01*
X204724936Y-35019330D02*
X204983755Y-35985256D01*
X207830764Y-46610440D02*
X208089583Y-47576366D01*
%TO.C,S_MAT_R10*%
X264615196Y-54349968D02*
X264615196Y-53349968D01*
X264615196Y-66349968D02*
X264615196Y-65349968D01*
X264615196Y-66349968D02*
X265615196Y-66349968D01*
X265615196Y-53349968D02*
X264615196Y-53349968D01*
X276615196Y-66349968D02*
X277615196Y-66349968D01*
X277615196Y-53349968D02*
X276615196Y-53349968D01*
X277615196Y-53349968D02*
X277615196Y-54349968D01*
X277615196Y-65349968D02*
X277615196Y-66349968D01*
%TO.C,S_MAT_R04*%
X175021138Y-43982305D02*
X174762319Y-43016379D01*
X178126967Y-55573415D02*
X177868148Y-54607489D01*
X178126967Y-55573415D02*
X179092892Y-55314596D01*
X175728245Y-42757560D02*
X174762319Y-43016379D01*
X189718077Y-52467586D02*
X190684002Y-52208767D01*
X187319355Y-39651731D02*
X186353429Y-39910550D01*
X187319355Y-39651731D02*
X187578174Y-40617657D01*
X190425183Y-51242841D02*
X190684002Y-52208767D01*
%TO.C,S_MAT_R11*%
X237280960Y-45272161D02*
X237107312Y-44287353D01*
X239364739Y-57089854D02*
X239191090Y-56105046D01*
X239364739Y-57089854D02*
X240349546Y-56916205D01*
X238092120Y-44113705D02*
X237107312Y-44287353D01*
X251182432Y-55006075D02*
X252167239Y-54832427D01*
X249909813Y-42029926D02*
X248925005Y-42203575D01*
X249909813Y-42029926D02*
X250083461Y-43014734D01*
X251993591Y-53847620D02*
X252167239Y-54832427D01*
%TO.C,S_MAT_R12*%
X213068892Y-47004284D02*
X212810073Y-46038358D01*
X216174721Y-58595394D02*
X215915902Y-57629468D01*
X216174721Y-58595394D02*
X217140646Y-58336575D01*
X213775999Y-45779539D02*
X212810073Y-46038358D01*
X227765831Y-55489565D02*
X228731756Y-55230746D01*
X225367109Y-42673710D02*
X224401183Y-42932529D01*
X225367109Y-42673710D02*
X225625928Y-43639636D01*
X228472937Y-54264820D02*
X228731756Y-55230746D01*
%TO.C,S_MAT_R13*%
X196809065Y-55706514D02*
X196550246Y-54740588D01*
X199914894Y-67297624D02*
X199656075Y-66331698D01*
X199914894Y-67297624D02*
X200880819Y-67038805D01*
X197516172Y-54481769D02*
X196550246Y-54740588D01*
X211506004Y-64191795D02*
X212471929Y-63932976D01*
X209107282Y-51375940D02*
X208141356Y-51634759D01*
X209107282Y-51375940D02*
X209366101Y-52341866D01*
X212213110Y-62967050D02*
X212471929Y-63932976D01*
%TO.C,S_MAT_R23*%
X201225302Y-72196913D02*
X200966483Y-71230987D01*
X204331131Y-83788023D02*
X204072312Y-82822097D01*
X204331131Y-83788023D02*
X205297056Y-83529204D01*
X201932409Y-70972168D02*
X200966483Y-71230987D01*
X215922241Y-80682194D02*
X216888166Y-80423375D01*
X213523519Y-67866339D02*
X212557593Y-68125158D01*
X213523519Y-67866339D02*
X213782338Y-68832265D01*
X216629347Y-79457449D02*
X216888166Y-80423375D01*
%TO.C,S_MAT_R24*%
X183823492Y-76826564D02*
X183564673Y-75860638D01*
X186929321Y-88417674D02*
X186670502Y-87451748D01*
X186929321Y-88417674D02*
X187895246Y-88158855D01*
X184530599Y-75601819D02*
X183564673Y-75860638D01*
X198520431Y-85311845D02*
X199486356Y-85053026D01*
X196121709Y-72495990D02*
X195155783Y-72754809D01*
X196121709Y-72495990D02*
X196380528Y-73461916D01*
X199227537Y-84087100D02*
X199486356Y-85053026D01*
%TO.C,S_MAT_R14*%
X179439810Y-60396508D02*
X179180991Y-59430582D01*
X182545639Y-71987618D02*
X182286820Y-71021692D01*
X182545639Y-71987618D02*
X183511564Y-71728799D01*
X180146917Y-59171763D02*
X179180991Y-59430582D01*
X194136749Y-68881789D02*
X195102674Y-68622970D01*
X191738027Y-56065934D02*
X190772101Y-56324753D01*
X191738027Y-56065934D02*
X191996846Y-57031860D01*
X194843855Y-67657044D02*
X195102674Y-68622970D01*
%TO.C,S_MAT_R20*%
X264600000Y-71300000D02*
X264600000Y-70300000D01*
X264600000Y-83300000D02*
X264600000Y-82300000D01*
X264600000Y-83300000D02*
X265600000Y-83300000D01*
X265600000Y-70300000D02*
X264600000Y-70300000D01*
X276600000Y-83300000D02*
X277600000Y-83300000D01*
X277600000Y-70300000D02*
X276600000Y-70300000D01*
X277600000Y-70300000D02*
X277600000Y-71300000D01*
X277600000Y-82300000D02*
X277600000Y-83300000D01*
%TO.C,S_MAT_R15*%
X160031384Y-93905964D02*
X159457807Y-93086812D01*
X166914301Y-103735788D02*
X166340725Y-102916636D01*
X166914301Y-103735788D02*
X167733453Y-103162212D01*
X160276959Y-92513235D02*
X159457807Y-93086812D01*
X176744126Y-96852871D02*
X177563278Y-96279295D01*
X170106784Y-85630318D02*
X169287632Y-86203894D01*
X170106784Y-85630318D02*
X170680360Y-86449470D01*
X176989701Y-95460143D02*
X177563278Y-96279295D01*
%TO.C,S_MAT_R22*%
X217487564Y-63427788D02*
X217228745Y-62461862D01*
X220593393Y-75018898D02*
X220334574Y-74052972D01*
X220593393Y-75018898D02*
X221559318Y-74760079D01*
X218194671Y-62203043D02*
X217228745Y-62461862D01*
X232184503Y-71913069D02*
X233150428Y-71654250D01*
X229785781Y-59097214D02*
X228819855Y-59356033D01*
X229785781Y-59097214D02*
X230044600Y-60063140D01*
X232891609Y-70688324D02*
X233150428Y-71654250D01*
%TO.C,S_MAT_R21*%
X240248447Y-62083267D02*
X240074799Y-61098459D01*
X242332226Y-73900960D02*
X242158577Y-72916152D01*
X242332226Y-73900960D02*
X243317033Y-73727311D01*
X241059607Y-60924811D02*
X240074799Y-61098459D01*
X254149919Y-71817181D02*
X255134726Y-71643533D01*
X252877300Y-58841032D02*
X251892492Y-59014681D01*
X252877300Y-58841032D02*
X253050948Y-59825840D01*
X254961078Y-70658726D02*
X255134726Y-71643533D01*
%TO.C,S_MAT_R25*%
X169760214Y-107782144D02*
X169186637Y-106962992D01*
X176643131Y-117611968D02*
X176069555Y-116792816D01*
X176643131Y-117611968D02*
X177462283Y-117038392D01*
X170005789Y-106389415D02*
X169186637Y-106962992D01*
X186472956Y-110729051D02*
X187292108Y-110155475D01*
X179835614Y-99506498D02*
X179016462Y-100080074D01*
X179835614Y-99506498D02*
X180409190Y-100325650D01*
X186718531Y-109336323D02*
X187292108Y-110155475D01*
%TO.C,S_MAT_R34*%
X186872288Y-96660946D02*
X186449669Y-95754638D01*
X191943707Y-107536639D02*
X191521088Y-106630332D01*
X191943707Y-107536639D02*
X192850014Y-107114021D01*
X187355977Y-95332020D02*
X186449669Y-95754638D01*
X202819400Y-102465220D02*
X203725708Y-102042602D01*
X198231670Y-90260601D02*
X197325363Y-90683219D01*
X198231670Y-90260601D02*
X198654289Y-91166909D01*
X203303090Y-101136294D02*
X203725708Y-102042602D01*
%TO.C,S_MAT_R35*%
X154908905Y-121765754D02*
X154201798Y-121058647D01*
X163394186Y-130251035D02*
X162687080Y-129543929D01*
X163394186Y-130251035D02*
X164101293Y-129543929D01*
X154908905Y-120351541D02*
X154201798Y-121058647D01*
X171879468Y-121765754D02*
X172586574Y-121058647D01*
X163394186Y-111866259D02*
X162687080Y-112573366D01*
X163394186Y-111866259D02*
X164101293Y-112573366D01*
X171879468Y-120351541D02*
X172586574Y-121058647D01*
%TO.C,S_MAT_R32*%
X221906235Y-79841990D02*
X221647416Y-78876064D01*
X225012064Y-91433100D02*
X224753245Y-90467174D01*
X225012064Y-91433100D02*
X225977989Y-91174281D01*
X222613342Y-78617245D02*
X221647416Y-78876064D01*
X236603174Y-88327271D02*
X237569099Y-88068452D01*
X234204452Y-75511416D02*
X233238526Y-75770235D01*
X234204452Y-75511416D02*
X234463271Y-76477342D01*
X237310280Y-87102526D02*
X237569099Y-88068452D01*
%TO.C,S_MAT_R31*%
X243177174Y-78798250D02*
X243003526Y-77813442D01*
X245260953Y-90615943D02*
X245087304Y-89631135D01*
X245260953Y-90615943D02*
X246245760Y-90442294D01*
X243988334Y-77639794D02*
X243003526Y-77813442D01*
X257078646Y-88532164D02*
X258063453Y-88358516D01*
X255806027Y-75556015D02*
X254821219Y-75729664D01*
X255806027Y-75556015D02*
X255979675Y-76540823D01*
X257889805Y-87373709D02*
X258063453Y-88358516D01*
%TO.C,S_MAT_R33*%
X205585385Y-88593236D02*
X205326566Y-87627310D01*
X208691214Y-100184346D02*
X208432395Y-99218420D01*
X208691214Y-100184346D02*
X209657139Y-99925527D01*
X206292492Y-87368491D02*
X205326566Y-87627310D01*
X220282324Y-97078517D02*
X221248249Y-96819698D01*
X217883602Y-84262662D02*
X216917676Y-84521481D01*
X217883602Y-84262662D02*
X218142421Y-85228588D01*
X220989430Y-95853772D02*
X221248249Y-96819698D01*
%TD*%
M02*
