%TF.GenerationSoftware,KiCad,Pcbnew,10.0.3-10.0.3~ubuntu26.04.1*%
%TF.CreationDate,2026-05-22T15:11:12-05:00*%
%TF.ProjectId,matrix_plate,6d617472-6978-45f7-906c-6174652e6b69,rev?*%
%TF.SameCoordinates,Original*%
%TF.FileFunction,Paste,Top*%
%TF.FilePolarity,Positive*%
%FSLAX46Y46*%
G04 Gerber Fmt 4.6, Leading zero omitted, Abs format (unit mm)*
G04 Created by KiCad (PCBNEW 10.0.3-10.0.3~ubuntu26.04.1) date 2026-05-22 15:11:12*
%MOMM*%
%LPD*%
G01*
G04 APERTURE LIST*
G04 Aperture macros list*
%AMRoundRect*
0 Rectangle with rounded corners*
0 $1 Rounding radius*
0 $2 $3 $4 $5 $6 $7 $8 $9 X,Y pos of 4 corners*
0 Add a 4 corners polygon primitive as box body*
4,1,4,$2,$3,$4,$5,$6,$7,$8,$9,$2,$3,0*
0 Add four circle primitives for the rounded corners*
1,1,$1+$1,$2,$3*
1,1,$1+$1,$4,$5*
1,1,$1+$1,$6,$7*
1,1,$1+$1,$8,$9*
0 Add four rect primitives between the rounded corners*
20,1,$1+$1,$2,$3,$4,$5,0*
20,1,$1+$1,$4,$5,$6,$7,0*
20,1,$1+$1,$6,$7,$8,$9,0*
20,1,$1+$1,$8,$9,$2,$3,0*%
%AMRotRect*
0 Rectangle, with rotation*
0 The origin of the aperture is its center*
0 $1 length*
0 $2 width*
0 $3 Rotation angle, in degrees counterclockwise*
0 Add horizontal line*
21,1,$1,$2,0,0,$3*%
G04 Aperture macros list end*
%ADD10RoundRect,0.250000X0.098387X0.735490X-0.626660X0.397395X-0.098387X-0.735490X0.626660X-0.397395X0*%
%ADD11RotRect,1.000000X0.900000X205.000000*%
%ADD12RotRect,0.400000X0.800000X205.000000*%
%ADD13RoundRect,0.250000X0.625000X-0.400000X0.625000X0.400000X-0.625000X0.400000X-0.625000X-0.400000X0*%
%ADD14R,1.250000X0.280000*%
%ADD15R,2.000000X1.800000*%
%ADD16RoundRect,0.250000X-0.400000X-0.625000X0.400000X-0.625000X0.400000X0.625000X-0.400000X0.625000X0*%
%ADD17RoundRect,0.150000X0.150000X0.575000X-0.150000X0.575000X-0.150000X-0.575000X0.150000X-0.575000X0*%
%ADD18RoundRect,0.075000X0.075000X0.650000X-0.075000X0.650000X-0.075000X-0.650000X0.075000X-0.650000X0*%
G04 APERTURE END LIST*
D10*
%TO.C,R2*%
X179095223Y-84155058D03*
X181904777Y-82844942D03*
%TD*%
%TO.C,R4*%
X180404777Y-80844942D03*
X177595223Y-82155058D03*
%TD*%
%TO.C,R3*%
X178904777Y-78844942D03*
X176095223Y-80155058D03*
%TD*%
D11*
%TO.C,D2*%
X181859462Y-88866073D03*
X179140538Y-90133927D03*
D12*
X179947299Y-89261209D03*
X180672345Y-88923114D03*
%TD*%
D13*
%TO.C,R_MAT_3*%
X38500000Y-32550000D03*
X38500000Y-29450000D03*
%TD*%
D14*
%TO.C,J_VIK_IN_SW_2*%
X161268000Y-102200000D03*
X161268000Y-102700000D03*
X161268000Y-103200000D03*
X161268000Y-103700000D03*
X161268000Y-104200000D03*
X161268000Y-104700000D03*
X161268000Y-105200000D03*
X161268000Y-105700000D03*
X161268000Y-106200000D03*
X161268000Y-106700000D03*
X161268000Y-107200000D03*
X161268000Y-107700000D03*
D15*
X158544000Y-109500000D03*
X158544000Y-100400000D03*
%TD*%
D13*
%TO.C,R_MAT_15*%
X255000000Y-35050000D03*
X255000000Y-31950000D03*
%TD*%
D16*
%TO.C,R_MAT_14*%
X46450000Y-24000000D03*
X49550000Y-24000000D03*
%TD*%
%TO.C,R_MAT_4*%
X46450000Y-21500000D03*
X49550000Y-21500000D03*
%TD*%
D17*
%TO.C,J_USB_1*%
X164250000Y-43272700D03*
X163450000Y-43272700D03*
D18*
X162250000Y-43272700D03*
X161250000Y-43272700D03*
X160750000Y-43272700D03*
X159750000Y-43272700D03*
D17*
X158550000Y-43272700D03*
X157750000Y-43272700D03*
X157750000Y-43272700D03*
X158550000Y-43272700D03*
D18*
X159250000Y-43272700D03*
X160250000Y-43272700D03*
X161750000Y-43272700D03*
X162750000Y-43272700D03*
D17*
X163450000Y-43272700D03*
X164250000Y-43272700D03*
%TD*%
D16*
%TO.C,R_MAT_24*%
X46450000Y-26500000D03*
X49550000Y-26500000D03*
%TD*%
D14*
%TO.C,J_VIK_IN_SW_1*%
X138732000Y-107700000D03*
X138732000Y-107200000D03*
X138732000Y-106700000D03*
X138732000Y-106200000D03*
X138732000Y-105700000D03*
X138732000Y-105200000D03*
X138732000Y-104700000D03*
X138732000Y-104200000D03*
X138732000Y-103700000D03*
X138732000Y-103200000D03*
X138732000Y-102700000D03*
X138732000Y-102200000D03*
D15*
X141456000Y-100400000D03*
X141456000Y-109500000D03*
%TD*%
D13*
%TO.C,R_MAT_23*%
X43500000Y-32550000D03*
X43500000Y-29450000D03*
%TD*%
%TO.C,R_MAT_5*%
X252500000Y-35050000D03*
X252500000Y-31950000D03*
%TD*%
%TO.C,R_MAT_25*%
X257500000Y-35050000D03*
X257500000Y-31950000D03*
%TD*%
%TO.C,R_MAT_32*%
X46000000Y-32550000D03*
X46000000Y-29450000D03*
%TD*%
%TO.C,R_MAT_6*%
X251000000Y-24050000D03*
X251000000Y-20950000D03*
%TD*%
%TO.C,R_MAT_16*%
X253500000Y-24050000D03*
X253500000Y-20950000D03*
%TD*%
%TO.C,R_MAT_13*%
X41000000Y-32550000D03*
X41000000Y-29450000D03*
%TD*%
%TO.C,R_MAT_33*%
X260000000Y-35050000D03*
X260000000Y-31950000D03*
%TD*%
%TO.C,R_MAT_26*%
X256000000Y-24050000D03*
X256000000Y-20950000D03*
%TD*%
M02*
