M48
; DRILL file KiCad 10.0.4-10.0.4~ubuntu26.04.1 date 2026-07-08T20:28:39
; FORMAT={-:-/ absolute / metric / decimal}
; #@! TF.CreationDate,2026-07-08T20:28:39-05:00
; #@! TF.GenerationSoftware,Kicad,Pcbnew,10.0.4-10.0.4~ubuntu26.04.1
; #@! TF.FileFunction,NonPlated,1,2,NPTH
FMAT,2
METRIC
; #@! TA.AperFunction,NonPlated,NPTH,ComponentDrill
T1C0.500
; #@! TA.AperFunction,NonPlated,NPTH,ComponentDrill
T2C0.650
; #@! TA.AperFunction,NonPlated,NPTH,ComponentDrill
T3C1.702
; #@! TA.AperFunction,NonPlated,NPTH,ComponentDrill
T4C5.250
%
G90
G05
T1
X148.75Y-91.3
X148.75Y-92.15
X148.75Y-93.0
X148.75Y-93.85
X148.75Y-94.7
X148.75Y-109.3
X148.75Y-110.15
X148.75Y-111.0
X148.75Y-111.85
X148.75Y-112.7
X148.75Y-128.8
X148.75Y-129.65
X148.75Y-130.5
X148.75Y-131.35
X148.75Y-132.2
X151.25Y-91.3
X151.25Y-92.15
X151.25Y-93.0
X151.25Y-93.85
X151.25Y-94.7
X151.25Y-109.3
X151.25Y-110.15
X151.25Y-111.0
X151.25Y-111.85
X151.25Y-112.7
X151.25Y-128.8
X151.25Y-129.65
X151.25Y-130.5
X151.25Y-131.35
X151.25Y-132.2
T2
X158.11Y-41.828
X163.89Y-41.828
T3
X23.4Y-42.8
X23.4Y-59.8
X23.4Y-76.827
X34.4Y-42.8
X34.4Y-59.8
X34.4Y-76.827
X44.088Y-82.098
X46.984Y-65.345
X49.984Y-48.645
X52.9Y-31.9
X54.92Y-84.008
X57.816Y-67.255
X60.816Y-50.555
X63.733Y-33.81
X65.072Y-82.021
X69.51Y-65.618
X73.92Y-49.2
X75.697Y-84.868
X78.315Y-32.763
X80.135Y-68.465
X81.412Y-90.782
X84.545Y-52.047
X85.806Y-74.361
X88.94Y-35.61
X90.188Y-57.973
X92.038Y-93.629
X94.568Y-41.511
X96.431Y-77.208
X99.942Y-96.586
X100.813Y-60.82
X103.155Y-79.022
X105.193Y-44.358
X107.575Y-62.619
X109.911Y-101.234
X111.975Y-46.153
X113.78Y-81.869
X117.264Y-105.368
X118.2Y-65.466
X122.6Y-49.0
X126.275Y-111.677
X127.006Y-91.531
X132.737Y-117.161
X136.017Y-97.84
X140.515Y-124.939
X159.505Y-124.948
X164.005Y-97.838
X167.283Y-117.17
X173.016Y-91.528
X173.734Y-111.714
X177.411Y-49.036
X181.829Y-65.45
X182.745Y-105.405
X186.213Y-81.88
X188.036Y-46.189
X190.103Y-101.223
X192.454Y-62.603
X194.816Y-44.404
X196.838Y-79.033
X199.198Y-60.76
X200.072Y-96.574
X203.615Y-77.251
X205.441Y-41.557
X207.975Y-93.647
X209.824Y-57.913
X211.081Y-35.616
X214.24Y-74.404
X215.458Y-52.058
X218.6Y-90.8
X219.877Y-68.482
X221.706Y-32.769
X224.296Y-84.896
X226.084Y-49.211
X230.502Y-65.635
X234.921Y-82.049
X236.275Y-33.85
X239.221Y-50.515
X242.188Y-67.326
X245.117Y-84.041
X247.108Y-31.939
X250.054Y-48.605
X253.021Y-65.416
X255.95Y-82.131
X265.6Y-42.871
X265.6Y-76.8
X265.615Y-59.85
X276.6Y-42.871
X276.6Y-76.8
X276.615Y-59.85
T4
X28.9Y-42.8
X28.9Y-59.8
X28.9Y-76.827
X49.504Y-83.053
X52.4Y-66.3
X55.4Y-49.6
X58.316Y-32.855
X70.385Y-83.444
X74.822Y-67.042
X79.233Y-50.623
X83.628Y-34.186
X86.725Y-92.206
X91.119Y-75.785
X95.5Y-59.397
X99.881Y-42.935
X104.926Y-98.91
X108.467Y-80.446
X112.887Y-64.042
X117.287Y-47.576
X121.77Y-108.523
X131.511Y-94.686
X136.626Y-121.05
X163.394Y-121.059
X168.511Y-94.683
X178.239Y-108.559
X182.723Y-47.613
X187.142Y-64.027
X191.526Y-80.457
X195.088Y-98.899
X200.129Y-42.98
X204.511Y-59.337
X208.927Y-75.827
X213.287Y-92.224
X216.393Y-34.192
X220.771Y-50.635
X225.19Y-67.058
X229.608Y-83.472
X241.691Y-32.895
X244.637Y-49.56
X247.605Y-66.371
X250.533Y-83.086
X271.1Y-42.871
X271.1Y-76.8
X271.115Y-59.85
M30
