M48
; DRILL file KiCad 10.0.3-10.0.3~ubuntu26.04.1 date 2026-05-22T15:11:05
; FORMAT={-:-/ absolute / metric / decimal}
; #@! TF.CreationDate,2026-05-22T15:11:05-05:00
; #@! TF.GenerationSoftware,Kicad,Pcbnew,10.0.3-10.0.3~ubuntu26.04.1
; #@! TF.FileFunction,Plated,1,2,PTH
FMAT,2
METRIC
; #@! TA.AperFunction,Plated,PTH,ViaDrill
T1C0.300
; #@! TA.AperFunction,Plated,PTH,ComponentDrill
T2C0.600
; #@! TA.AperFunction,Plated,PTH,ComponentDrill
T3C1.100
; #@! TA.AperFunction,Plated,PTH,ComponentDrill
T4C3.000
%
G90
G05
T1
X37.0Y-27.0
X38.0Y-27.0
X38.3Y-34.0
X38.95Y-34.6
X39.0Y-27.0
X40.0Y-27.0
X41.0Y-35.0
X41.0Y-38.0
X41.5Y-24.0
X42.47Y-23.964
X43.324Y-23.959
X44.152Y-24.05
X60.0Y-27.5
X69.0Y-27.0
X70.0Y-20.0
X71.0Y-39.0
X84.0Y-72.0
X86.5Y-28.5
X88.5Y-56.0
X93.5Y-39.5
X102.5Y-37.0
X103.0Y-77.0
X107.0Y-43.5
X107.5Y-60.5
X111.0Y-36.0
X111.5Y-44.0
X116.0Y-57.0
X119.5Y-64.0
X123.5Y-82.5
X129.0Y-39.0
X132.5Y-105.0
X137.5Y-98.0
X146.0Y-113.5
X153.5Y-42.0
X155.0Y-97.5
X157.75Y-43.273
X158.5Y-97.0
X158.55Y-43.273
X159.0Y-41.0
X159.486Y-105.224
X162.5Y-41.0
X163.0Y-39.278
X163.0Y-107.2
X163.45Y-43.273
X164.25Y-43.273
X166.0Y-89.0
X167.5Y-115.0
X170.162Y-38.5
X173.5Y-89.5
X174.039Y-79.097
X176.0Y-47.5
X182.5Y-43.0
X183.0Y-95.5
X183.5Y-103.5
X190.0Y-36.0
X191.5Y-44.0
X192.5Y-31.5
X193.5Y-61.0
X198.0Y-59.0
X199.5Y-37.5
X202.5Y-76.0
X214.5Y-72.5
X216.0Y-29.0
X218.5Y-77.0
X232.0Y-33.5
X237.0Y-19.5
X240.0Y-75.5
X252.5Y-25.5
X252.5Y-27.5
X253.224Y-28.376
X253.5Y-25.5
X254.5Y-25.5
X254.5Y-28.5
X254.5Y-64.0
X255.0Y-33.1
X255.5Y-25.5
X256.5Y-25.5
X257.5Y-25.5
X258.5Y-25.5
X259.5Y-22.5
X259.5Y-25.5
X261.5Y-72.5
X261.5Y-77.5
X262.5Y-33.5
X269.5Y-27.5
T3
X119.207Y-82.831
X121.109Y-78.753
X125.098Y-85.578
X127.0Y-81.5
T4
X23.9Y-46.6
X23.9Y-63.6
X23.9Y-80.627
X26.3Y-37.05
X26.3Y-54.05
X26.3Y-71.077
X28.9Y-48.7
X28.9Y-65.7
X28.9Y-82.727
X33.3Y-38.1
X33.3Y-55.1
X33.3Y-72.127
X43.92Y-85.927
X46.816Y-69.174
X47.942Y-76.939
X48.48Y-88.863
X49.816Y-52.474
X50.838Y-60.186
X51.375Y-72.11
X52.733Y-35.729
X53.838Y-43.486
X54.375Y-55.41
X54.653Y-79.188
X56.754Y-26.741
X57.292Y-38.665
X57.549Y-62.435
X60.549Y-45.735
X63.466Y-28.991
X64.572Y-85.821
X68.858Y-89.143
X69.009Y-69.418
X69.362Y-77.217
X73.295Y-72.741
X73.42Y-53.0
X73.799Y-60.815
X75.851Y-80.043
X77.706Y-56.322
X77.815Y-36.563
X78.21Y-44.396
X80.289Y-63.641
X80.912Y-94.582
X82.101Y-39.885
X82.605Y-27.959
X84.699Y-47.222
X85.198Y-97.905
X85.306Y-78.161
X85.702Y-85.979
X89.094Y-30.785
X89.592Y-81.484
X89.687Y-61.773
X90.096Y-69.558
X92.191Y-88.805
X93.973Y-65.096
X94.068Y-45.311
X94.477Y-53.17
X96.585Y-72.384
X98.354Y-48.634
X98.789Y-100.241
X98.857Y-36.708
X100.967Y-55.996
X102.433Y-104.257
X102.654Y-82.822
X105.0Y-92.6
X105.347Y-39.534
X106.94Y-86.145
X107.074Y-66.419
X107.444Y-74.219
X110.9Y-96.51
X111.36Y-69.741
X111.474Y-49.953
X111.864Y-57.815
X113.934Y-77.045
X115.494Y-108.767
X115.76Y-53.275
X116.264Y-41.349
X118.354Y-60.641
X118.386Y-113.356
X122.754Y-44.175
X122.938Y-102.321
X125.236Y-94.931
X128.07Y-107.196
X128.127Y-99.519
X130.403Y-120.201
X132.454Y-125.222
X132.68Y-88.484
X137.812Y-93.359
X138.853Y-115.146
X143.06Y-120.838
X157.49Y-118.831
X162.546Y-127.281
X163.083Y-91.464
X163.182Y-114.624
X166.594Y-100.664
X167.566Y-125.231
X169.419Y-88.309
X171.895Y-99.516
X172.812Y-105.34
X176.323Y-114.54
X178.724Y-42.731
X178.877Y-52.577
X179.148Y-102.185
X181.623Y-113.392
X183.142Y-59.146
X183.296Y-68.991
X184.25Y-53.312
X185.757Y-41.934
X187.526Y-75.576
X187.679Y-85.421
X188.669Y-69.726
X190.175Y-58.348
X190.301Y-94.786
X192.162Y-104.456
X193.053Y-86.156
X194.559Y-74.778
X196.129Y-38.099
X196.283Y-47.945
X197.089Y-92.779
X197.581Y-104.246
X200.511Y-54.456
X200.665Y-64.301
X201.656Y-48.679
X203.162Y-37.302
X204.928Y-70.946
X205.081Y-80.792
X206.038Y-65.036
X207.545Y-53.658
X209.288Y-87.342
X209.441Y-97.188
X210.454Y-81.526
X211.961Y-70.149
X212.394Y-29.311
X212.547Y-39.157
X214.814Y-97.922
X216.321Y-86.545
X216.771Y-45.753
X216.925Y-55.599
X217.92Y-39.891
X219.427Y-28.514
X221.19Y-62.177
X221.343Y-72.023
X222.298Y-56.334
X223.805Y-44.956
X225.609Y-78.591
X225.762Y-88.437
X226.717Y-72.757
X228.223Y-61.379
X231.135Y-89.171
X232.642Y-77.794
X237.427Y-37.505
X238.133Y-27.683
X240.373Y-54.17
X241.078Y-44.349
X242.716Y-38.705
X243.341Y-70.982
X244.046Y-61.16
X245.209Y-27.502
X245.662Y-55.37
X246.269Y-87.696
X246.975Y-77.875
X248.154Y-44.167
X248.629Y-72.181
X251.122Y-60.978
X251.558Y-88.896
X254.05Y-77.693
X266.1Y-46.671
X266.1Y-80.6
X266.115Y-63.65
X268.5Y-37.121
X268.5Y-71.05
X268.515Y-54.1
X271.1Y-48.771
X271.1Y-82.7
X271.115Y-65.75
X275.5Y-38.171
X275.5Y-72.1
X275.515Y-55.15
T2
G00X156.68Y-38.478
M15
G01X156.68Y-37.878
M16
G05
G00X156.68Y-42.908
M15
G01X156.68Y-41.808
M16
G05
G00X165.32Y-38.478
M15
G01X165.32Y-37.878
M16
G05
G00X165.32Y-42.908
M15
G01X165.32Y-41.808
M16
G05
M30
