%TF.GenerationSoftware,KiCad,Pcbnew,10.0.4-10.0.4~ubuntu26.04.1*%
%TF.CreationDate,2026-07-08T20:28:43-05:00*%
%TF.ProjectId,matrix_plate,6d617472-6978-45f7-906c-6174652e6b69,rev?*%
%TF.SameCoordinates,Original*%
%TF.FileFunction,Legend,Bot*%
%TF.FilePolarity,Positive*%
%FSLAX46Y46*%
G04 Gerber Fmt 4.6, Leading zero omitted, Abs format (unit mm)*
G04 Created by KiCad (PCBNEW 10.0.4-10.0.4~ubuntu26.04.1) date 2026-07-08 20:28:43*
%MOMM*%
%LPD*%
G01*
G04 APERTURE LIST*
%ADD10C,0.150000*%
%ADD11C,0.100000*%
%ADD12C,0.120000*%
G04 APERTURE END LIST*
D10*
X161928571Y-40954819D02*
X162261904Y-40478628D01*
X162499999Y-40954819D02*
X162499999Y-39954819D01*
X162499999Y-39954819D02*
X162119047Y-39954819D01*
X162119047Y-39954819D02*
X162023809Y-40002438D01*
X162023809Y-40002438D02*
X161976190Y-40050057D01*
X161976190Y-40050057D02*
X161928571Y-40145295D01*
X161928571Y-40145295D02*
X161928571Y-40288152D01*
X161928571Y-40288152D02*
X161976190Y-40383390D01*
X161976190Y-40383390D02*
X162023809Y-40431009D01*
X162023809Y-40431009D02*
X162119047Y-40478628D01*
X162119047Y-40478628D02*
X162499999Y-40478628D01*
X161738095Y-41050057D02*
X160976190Y-41050057D01*
X160738094Y-39954819D02*
X160738094Y-40764342D01*
X160738094Y-40764342D02*
X160690475Y-40859580D01*
X160690475Y-40859580D02*
X160642856Y-40907200D01*
X160642856Y-40907200D02*
X160547618Y-40954819D01*
X160547618Y-40954819D02*
X160357142Y-40954819D01*
X160357142Y-40954819D02*
X160261904Y-40907200D01*
X160261904Y-40907200D02*
X160214285Y-40859580D01*
X160214285Y-40859580D02*
X160166666Y-40764342D01*
X160166666Y-40764342D02*
X160166666Y-39954819D01*
X159738094Y-40907200D02*
X159595237Y-40954819D01*
X159595237Y-40954819D02*
X159357142Y-40954819D01*
X159357142Y-40954819D02*
X159261904Y-40907200D01*
X159261904Y-40907200D02*
X159214285Y-40859580D01*
X159214285Y-40859580D02*
X159166666Y-40764342D01*
X159166666Y-40764342D02*
X159166666Y-40669104D01*
X159166666Y-40669104D02*
X159214285Y-40573866D01*
X159214285Y-40573866D02*
X159261904Y-40526247D01*
X159261904Y-40526247D02*
X159357142Y-40478628D01*
X159357142Y-40478628D02*
X159547618Y-40431009D01*
X159547618Y-40431009D02*
X159642856Y-40383390D01*
X159642856Y-40383390D02*
X159690475Y-40335771D01*
X159690475Y-40335771D02*
X159738094Y-40240533D01*
X159738094Y-40240533D02*
X159738094Y-40145295D01*
X159738094Y-40145295D02*
X159690475Y-40050057D01*
X159690475Y-40050057D02*
X159642856Y-40002438D01*
X159642856Y-40002438D02*
X159547618Y-39954819D01*
X159547618Y-39954819D02*
X159309523Y-39954819D01*
X159309523Y-39954819D02*
X159166666Y-40002438D01*
X158404761Y-40431009D02*
X158261904Y-40478628D01*
X158261904Y-40478628D02*
X158214285Y-40526247D01*
X158214285Y-40526247D02*
X158166666Y-40621485D01*
X158166666Y-40621485D02*
X158166666Y-40764342D01*
X158166666Y-40764342D02*
X158214285Y-40859580D01*
X158214285Y-40859580D02*
X158261904Y-40907200D01*
X158261904Y-40907200D02*
X158357142Y-40954819D01*
X158357142Y-40954819D02*
X158738094Y-40954819D01*
X158738094Y-40954819D02*
X158738094Y-39954819D01*
X158738094Y-39954819D02*
X158404761Y-39954819D01*
X158404761Y-39954819D02*
X158309523Y-40002438D01*
X158309523Y-40002438D02*
X158261904Y-40050057D01*
X158261904Y-40050057D02*
X158214285Y-40145295D01*
X158214285Y-40145295D02*
X158214285Y-40240533D01*
X158214285Y-40240533D02*
X158261904Y-40335771D01*
X158261904Y-40335771D02*
X158309523Y-40383390D01*
X158309523Y-40383390D02*
X158404761Y-40431009D01*
X158404761Y-40431009D02*
X158738094Y-40431009D01*
X157976190Y-41050057D02*
X157214285Y-41050057D01*
X157023808Y-40050057D02*
X156976189Y-40002438D01*
X156976189Y-40002438D02*
X156880951Y-39954819D01*
X156880951Y-39954819D02*
X156642856Y-39954819D01*
X156642856Y-39954819D02*
X156547618Y-40002438D01*
X156547618Y-40002438D02*
X156499999Y-40050057D01*
X156499999Y-40050057D02*
X156452380Y-40145295D01*
X156452380Y-40145295D02*
X156452380Y-40240533D01*
X156452380Y-40240533D02*
X156499999Y-40383390D01*
X156499999Y-40383390D02*
X157071427Y-40954819D01*
X157071427Y-40954819D02*
X156452380Y-40954819D01*
X171595238Y-41431009D02*
X171928571Y-41431009D01*
X171928571Y-41954819D02*
X171928571Y-40954819D01*
X171928571Y-40954819D02*
X171452381Y-40954819D01*
X171309524Y-42050057D02*
X170547619Y-42050057D01*
X170309523Y-40954819D02*
X170309523Y-41764342D01*
X170309523Y-41764342D02*
X170261904Y-41859580D01*
X170261904Y-41859580D02*
X170214285Y-41907200D01*
X170214285Y-41907200D02*
X170119047Y-41954819D01*
X170119047Y-41954819D02*
X169928571Y-41954819D01*
X169928571Y-41954819D02*
X169833333Y-41907200D01*
X169833333Y-41907200D02*
X169785714Y-41859580D01*
X169785714Y-41859580D02*
X169738095Y-41764342D01*
X169738095Y-41764342D02*
X169738095Y-40954819D01*
X169309523Y-41907200D02*
X169166666Y-41954819D01*
X169166666Y-41954819D02*
X168928571Y-41954819D01*
X168928571Y-41954819D02*
X168833333Y-41907200D01*
X168833333Y-41907200D02*
X168785714Y-41859580D01*
X168785714Y-41859580D02*
X168738095Y-41764342D01*
X168738095Y-41764342D02*
X168738095Y-41669104D01*
X168738095Y-41669104D02*
X168785714Y-41573866D01*
X168785714Y-41573866D02*
X168833333Y-41526247D01*
X168833333Y-41526247D02*
X168928571Y-41478628D01*
X168928571Y-41478628D02*
X169119047Y-41431009D01*
X169119047Y-41431009D02*
X169214285Y-41383390D01*
X169214285Y-41383390D02*
X169261904Y-41335771D01*
X169261904Y-41335771D02*
X169309523Y-41240533D01*
X169309523Y-41240533D02*
X169309523Y-41145295D01*
X169309523Y-41145295D02*
X169261904Y-41050057D01*
X169261904Y-41050057D02*
X169214285Y-41002438D01*
X169214285Y-41002438D02*
X169119047Y-40954819D01*
X169119047Y-40954819D02*
X168880952Y-40954819D01*
X168880952Y-40954819D02*
X168738095Y-41002438D01*
X167976190Y-41431009D02*
X167833333Y-41478628D01*
X167833333Y-41478628D02*
X167785714Y-41526247D01*
X167785714Y-41526247D02*
X167738095Y-41621485D01*
X167738095Y-41621485D02*
X167738095Y-41764342D01*
X167738095Y-41764342D02*
X167785714Y-41859580D01*
X167785714Y-41859580D02*
X167833333Y-41907200D01*
X167833333Y-41907200D02*
X167928571Y-41954819D01*
X167928571Y-41954819D02*
X168309523Y-41954819D01*
X168309523Y-41954819D02*
X168309523Y-40954819D01*
X168309523Y-40954819D02*
X167976190Y-40954819D01*
X167976190Y-40954819D02*
X167880952Y-41002438D01*
X167880952Y-41002438D02*
X167833333Y-41050057D01*
X167833333Y-41050057D02*
X167785714Y-41145295D01*
X167785714Y-41145295D02*
X167785714Y-41240533D01*
X167785714Y-41240533D02*
X167833333Y-41335771D01*
X167833333Y-41335771D02*
X167880952Y-41383390D01*
X167880952Y-41383390D02*
X167976190Y-41431009D01*
X167976190Y-41431009D02*
X168309523Y-41431009D01*
X167547619Y-42050057D02*
X166785714Y-42050057D01*
X166595237Y-41050057D02*
X166547618Y-41002438D01*
X166547618Y-41002438D02*
X166452380Y-40954819D01*
X166452380Y-40954819D02*
X166214285Y-40954819D01*
X166214285Y-40954819D02*
X166119047Y-41002438D01*
X166119047Y-41002438D02*
X166071428Y-41050057D01*
X166071428Y-41050057D02*
X166023809Y-41145295D01*
X166023809Y-41145295D02*
X166023809Y-41240533D01*
X166023809Y-41240533D02*
X166071428Y-41383390D01*
X166071428Y-41383390D02*
X166642856Y-41954819D01*
X166642856Y-41954819D02*
X166023809Y-41954819D01*
X156928571Y-38954819D02*
X157261904Y-38478628D01*
X157499999Y-38954819D02*
X157499999Y-37954819D01*
X157499999Y-37954819D02*
X157119047Y-37954819D01*
X157119047Y-37954819D02*
X157023809Y-38002438D01*
X157023809Y-38002438D02*
X156976190Y-38050057D01*
X156976190Y-38050057D02*
X156928571Y-38145295D01*
X156928571Y-38145295D02*
X156928571Y-38288152D01*
X156928571Y-38288152D02*
X156976190Y-38383390D01*
X156976190Y-38383390D02*
X157023809Y-38431009D01*
X157023809Y-38431009D02*
X157119047Y-38478628D01*
X157119047Y-38478628D02*
X157499999Y-38478628D01*
X156738095Y-39050057D02*
X155976190Y-39050057D01*
X155738094Y-37954819D02*
X155738094Y-38764342D01*
X155738094Y-38764342D02*
X155690475Y-38859580D01*
X155690475Y-38859580D02*
X155642856Y-38907200D01*
X155642856Y-38907200D02*
X155547618Y-38954819D01*
X155547618Y-38954819D02*
X155357142Y-38954819D01*
X155357142Y-38954819D02*
X155261904Y-38907200D01*
X155261904Y-38907200D02*
X155214285Y-38859580D01*
X155214285Y-38859580D02*
X155166666Y-38764342D01*
X155166666Y-38764342D02*
X155166666Y-37954819D01*
X154738094Y-38907200D02*
X154595237Y-38954819D01*
X154595237Y-38954819D02*
X154357142Y-38954819D01*
X154357142Y-38954819D02*
X154261904Y-38907200D01*
X154261904Y-38907200D02*
X154214285Y-38859580D01*
X154214285Y-38859580D02*
X154166666Y-38764342D01*
X154166666Y-38764342D02*
X154166666Y-38669104D01*
X154166666Y-38669104D02*
X154214285Y-38573866D01*
X154214285Y-38573866D02*
X154261904Y-38526247D01*
X154261904Y-38526247D02*
X154357142Y-38478628D01*
X154357142Y-38478628D02*
X154547618Y-38431009D01*
X154547618Y-38431009D02*
X154642856Y-38383390D01*
X154642856Y-38383390D02*
X154690475Y-38335771D01*
X154690475Y-38335771D02*
X154738094Y-38240533D01*
X154738094Y-38240533D02*
X154738094Y-38145295D01*
X154738094Y-38145295D02*
X154690475Y-38050057D01*
X154690475Y-38050057D02*
X154642856Y-38002438D01*
X154642856Y-38002438D02*
X154547618Y-37954819D01*
X154547618Y-37954819D02*
X154309523Y-37954819D01*
X154309523Y-37954819D02*
X154166666Y-38002438D01*
X153404761Y-38431009D02*
X153261904Y-38478628D01*
X153261904Y-38478628D02*
X153214285Y-38526247D01*
X153214285Y-38526247D02*
X153166666Y-38621485D01*
X153166666Y-38621485D02*
X153166666Y-38764342D01*
X153166666Y-38764342D02*
X153214285Y-38859580D01*
X153214285Y-38859580D02*
X153261904Y-38907200D01*
X153261904Y-38907200D02*
X153357142Y-38954819D01*
X153357142Y-38954819D02*
X153738094Y-38954819D01*
X153738094Y-38954819D02*
X153738094Y-37954819D01*
X153738094Y-37954819D02*
X153404761Y-37954819D01*
X153404761Y-37954819D02*
X153309523Y-38002438D01*
X153309523Y-38002438D02*
X153261904Y-38050057D01*
X153261904Y-38050057D02*
X153214285Y-38145295D01*
X153214285Y-38145295D02*
X153214285Y-38240533D01*
X153214285Y-38240533D02*
X153261904Y-38335771D01*
X153261904Y-38335771D02*
X153309523Y-38383390D01*
X153309523Y-38383390D02*
X153404761Y-38431009D01*
X153404761Y-38431009D02*
X153738094Y-38431009D01*
X152976190Y-39050057D02*
X152214285Y-39050057D01*
X151452380Y-38954819D02*
X152023808Y-38954819D01*
X151738094Y-38954819D02*
X151738094Y-37954819D01*
X151738094Y-37954819D02*
X151833332Y-38097676D01*
X151833332Y-38097676D02*
X151928570Y-38192914D01*
X151928570Y-38192914D02*
X152023808Y-38240533D01*
X173595238Y-36431009D02*
X173928571Y-36431009D01*
X173928571Y-36954819D02*
X173928571Y-35954819D01*
X173928571Y-35954819D02*
X173452381Y-35954819D01*
X172738095Y-36431009D02*
X172595238Y-36478628D01*
X172595238Y-36478628D02*
X172547619Y-36526247D01*
X172547619Y-36526247D02*
X172500000Y-36621485D01*
X172500000Y-36621485D02*
X172500000Y-36764342D01*
X172500000Y-36764342D02*
X172547619Y-36859580D01*
X172547619Y-36859580D02*
X172595238Y-36907200D01*
X172595238Y-36907200D02*
X172690476Y-36954819D01*
X172690476Y-36954819D02*
X173071428Y-36954819D01*
X173071428Y-36954819D02*
X173071428Y-35954819D01*
X173071428Y-35954819D02*
X172738095Y-35954819D01*
X172738095Y-35954819D02*
X172642857Y-36002438D01*
X172642857Y-36002438D02*
X172595238Y-36050057D01*
X172595238Y-36050057D02*
X172547619Y-36145295D01*
X172547619Y-36145295D02*
X172547619Y-36240533D01*
X172547619Y-36240533D02*
X172595238Y-36335771D01*
X172595238Y-36335771D02*
X172642857Y-36383390D01*
X172642857Y-36383390D02*
X172738095Y-36431009D01*
X172738095Y-36431009D02*
X173071428Y-36431009D01*
X172309524Y-37050057D02*
X171547619Y-37050057D01*
X171309523Y-35954819D02*
X171309523Y-36764342D01*
X171309523Y-36764342D02*
X171261904Y-36859580D01*
X171261904Y-36859580D02*
X171214285Y-36907200D01*
X171214285Y-36907200D02*
X171119047Y-36954819D01*
X171119047Y-36954819D02*
X170928571Y-36954819D01*
X170928571Y-36954819D02*
X170833333Y-36907200D01*
X170833333Y-36907200D02*
X170785714Y-36859580D01*
X170785714Y-36859580D02*
X170738095Y-36764342D01*
X170738095Y-36764342D02*
X170738095Y-35954819D01*
X170309523Y-36907200D02*
X170166666Y-36954819D01*
X170166666Y-36954819D02*
X169928571Y-36954819D01*
X169928571Y-36954819D02*
X169833333Y-36907200D01*
X169833333Y-36907200D02*
X169785714Y-36859580D01*
X169785714Y-36859580D02*
X169738095Y-36764342D01*
X169738095Y-36764342D02*
X169738095Y-36669104D01*
X169738095Y-36669104D02*
X169785714Y-36573866D01*
X169785714Y-36573866D02*
X169833333Y-36526247D01*
X169833333Y-36526247D02*
X169928571Y-36478628D01*
X169928571Y-36478628D02*
X170119047Y-36431009D01*
X170119047Y-36431009D02*
X170214285Y-36383390D01*
X170214285Y-36383390D02*
X170261904Y-36335771D01*
X170261904Y-36335771D02*
X170309523Y-36240533D01*
X170309523Y-36240533D02*
X170309523Y-36145295D01*
X170309523Y-36145295D02*
X170261904Y-36050057D01*
X170261904Y-36050057D02*
X170214285Y-36002438D01*
X170214285Y-36002438D02*
X170119047Y-35954819D01*
X170119047Y-35954819D02*
X169880952Y-35954819D01*
X169880952Y-35954819D02*
X169738095Y-36002438D01*
X168976190Y-36431009D02*
X168833333Y-36478628D01*
X168833333Y-36478628D02*
X168785714Y-36526247D01*
X168785714Y-36526247D02*
X168738095Y-36621485D01*
X168738095Y-36621485D02*
X168738095Y-36764342D01*
X168738095Y-36764342D02*
X168785714Y-36859580D01*
X168785714Y-36859580D02*
X168833333Y-36907200D01*
X168833333Y-36907200D02*
X168928571Y-36954819D01*
X168928571Y-36954819D02*
X169309523Y-36954819D01*
X169309523Y-36954819D02*
X169309523Y-35954819D01*
X169309523Y-35954819D02*
X168976190Y-35954819D01*
X168976190Y-35954819D02*
X168880952Y-36002438D01*
X168880952Y-36002438D02*
X168833333Y-36050057D01*
X168833333Y-36050057D02*
X168785714Y-36145295D01*
X168785714Y-36145295D02*
X168785714Y-36240533D01*
X168785714Y-36240533D02*
X168833333Y-36335771D01*
X168833333Y-36335771D02*
X168880952Y-36383390D01*
X168880952Y-36383390D02*
X168976190Y-36431009D01*
X168976190Y-36431009D02*
X169309523Y-36431009D01*
X168547619Y-37050057D02*
X167785714Y-37050057D01*
X167023809Y-36954819D02*
X167595237Y-36954819D01*
X167309523Y-36954819D02*
X167309523Y-35954819D01*
X167309523Y-35954819D02*
X167404761Y-36097676D01*
X167404761Y-36097676D02*
X167499999Y-36192914D01*
X167499999Y-36192914D02*
X167595237Y-36240533D01*
%TO.C,S_MAT_L22*%
D11*
X66300695Y-70737239D02*
X67323030Y-66921832D01*
X66565860Y-71196518D02*
X68787301Y-71791752D01*
X67782309Y-66656667D02*
X71138901Y-67556063D01*
X70296561Y-74370237D02*
X69943008Y-73757864D01*
D12*
X70679656Y-62411918D02*
X70925534Y-61494289D01*
X70679656Y-62411918D02*
X72321730Y-62851911D01*
X71896105Y-57872067D02*
X71663168Y-58741400D01*
X71896105Y-57872067D02*
X73538179Y-58312059D01*
D11*
X72623826Y-70128026D02*
X75618196Y-70930366D01*
X74401746Y-75470218D02*
X70296561Y-74370237D01*
X75014119Y-75116664D02*
X74401746Y-75470218D01*
X75971749Y-71542739D02*
X75014119Y-75116664D01*
X75971749Y-71542739D02*
X75618196Y-70930366D01*
D12*
X80899890Y-72604411D02*
X77171417Y-71605370D01*
X81417529Y-70672560D02*
X77689055Y-69673518D01*
X81417529Y-70672560D02*
X80899890Y-72604411D01*
X82192191Y-66583733D02*
X80260339Y-66066095D01*
X82192191Y-66583733D02*
X82438069Y-65666103D01*
X83408640Y-62043881D02*
X81476789Y-61526243D01*
X83408640Y-62043881D02*
X83162762Y-62961511D01*
D11*
X66565860Y-71196518D02*
G75*
G02*
X66300695Y-70737239I97057J362222D01*
G01*
X67323030Y-66921832D02*
G75*
G02*
X67782309Y-66656667I362222J-97057D01*
G01*
X68787301Y-71791752D02*
G75*
G02*
X69943008Y-73757864I-389962J-1551951D01*
G01*
X71138901Y-67556063D02*
G75*
G02*
X71404065Y-68015344I-97057J-362222D01*
G01*
X72623826Y-70128026D02*
G75*
G02*
X71404067Y-68015344I446462J1666221D01*
G01*
%TO.C,S_MAT_R04*%
D12*
X175603912Y-41134433D02*
X175836849Y-42003766D01*
X175603912Y-41134433D02*
X177245986Y-40694440D01*
D11*
X176433560Y-50799018D02*
X179790153Y-49899622D01*
D12*
X176820362Y-45674284D02*
X176574484Y-44756655D01*
X176820362Y-45674284D02*
X178462436Y-45234292D01*
D11*
X177190731Y-55073704D02*
X176168395Y-51258297D01*
X177650010Y-55338869D02*
X179871451Y-54743636D01*
X182362117Y-51384546D02*
X185356487Y-50582207D01*
X182467752Y-56222039D02*
X181855379Y-55868486D01*
X185968859Y-50935760D02*
X185356487Y-50582207D01*
X185968859Y-50935760D02*
X186926490Y-54509686D01*
X186572936Y-55122058D02*
X182467752Y-56222039D01*
X186926490Y-54509686D02*
X186572936Y-55122058D01*
D12*
X187659967Y-38991063D02*
X185728116Y-39508701D01*
X187659967Y-38991063D02*
X187905845Y-39908692D01*
X188876417Y-43530914D02*
X186944565Y-44048552D01*
X188876417Y-43530914D02*
X188630539Y-42613284D01*
X190249953Y-47459273D02*
X186521479Y-48458315D01*
X190249953Y-47459273D02*
X190767591Y-49391125D01*
X190767591Y-49391125D02*
X187039117Y-50390165D01*
D11*
X176168395Y-51258297D02*
G75*
G02*
X176433560Y-50799017I362223J97057D01*
G01*
X177650010Y-55338869D02*
G75*
G02*
X177190731Y-55073704I-97059J362219D01*
G01*
X179790153Y-49899622D02*
G75*
G02*
X180249432Y-50164787I97057J-362222D01*
G01*
X179871451Y-54743636D02*
G75*
G02*
X181855378Y-55868486I438258J-1539010D01*
G01*
X182362117Y-51384546D02*
G75*
G02*
X180249432Y-50164787I-446462J1666223D01*
G01*
%TO.C,S_MAT_R33*%
D12*
X206168159Y-85745364D02*
X206401096Y-86614697D01*
X206168159Y-85745364D02*
X207810233Y-85305371D01*
D11*
X206997807Y-95409949D02*
X210354400Y-94510553D01*
D12*
X207384609Y-90285215D02*
X207138731Y-89367586D01*
X207384609Y-90285215D02*
X209026683Y-89845223D01*
D11*
X207754978Y-99684635D02*
X206732642Y-95869228D01*
X208214257Y-99949800D02*
X210435698Y-99354567D01*
X212926364Y-95995477D02*
X215920734Y-95193138D01*
X213031999Y-100832970D02*
X212419626Y-100479417D01*
X216533106Y-95546691D02*
X215920734Y-95193138D01*
X216533106Y-95546691D02*
X217490737Y-99120617D01*
X217137183Y-99732989D02*
X213031999Y-100832970D01*
X217490737Y-99120617D02*
X217137183Y-99732989D01*
D12*
X218224214Y-83601994D02*
X216292363Y-84119632D01*
X218224214Y-83601994D02*
X218470092Y-84519623D01*
X219440664Y-88141845D02*
X217508812Y-88659483D01*
X219440664Y-88141845D02*
X219194786Y-87224215D01*
X220814200Y-92070204D02*
X217085726Y-93069246D01*
X220814200Y-92070204D02*
X221331838Y-94002056D01*
X221331838Y-94002056D02*
X217603364Y-95001096D01*
D11*
X206732642Y-95869228D02*
G75*
G02*
X206997807Y-95409948I362223J97057D01*
G01*
X208214257Y-99949800D02*
G75*
G02*
X207754978Y-99684635I-97059J362219D01*
G01*
X210354400Y-94510553D02*
G75*
G02*
X210813679Y-94775718I97057J-362222D01*
G01*
X210435698Y-99354567D02*
G75*
G02*
X212419625Y-100479417I438258J-1539010D01*
G01*
X212926364Y-95995477D02*
G75*
G02*
X210813679Y-94775718I-446462J1666223D01*
G01*
%TO.C,S_MAT_R34*%
D12*
X186951680Y-93755142D02*
X187332037Y-94570819D01*
X186951680Y-93755142D02*
X188492403Y-93036691D01*
X188937986Y-98014789D02*
X188536499Y-97153796D01*
X188937986Y-98014789D02*
X190478709Y-97296338D01*
D11*
X189446962Y-103128833D02*
X192596381Y-101660235D01*
X190934920Y-107207096D02*
X189265578Y-103627181D01*
X191433268Y-107388480D02*
X193517599Y-106416540D01*
X195387126Y-102675983D02*
X198196680Y-101365866D01*
X196331178Y-107421640D02*
X195666715Y-107179796D01*
D12*
X198452384Y-89550822D02*
X196639769Y-90396059D01*
X198452384Y-89550822D02*
X198853872Y-90411815D01*
D11*
X198861143Y-101607711D02*
X198196680Y-101365866D01*
X198861143Y-101607711D02*
X200424831Y-104961050D01*
X200182986Y-105625513D02*
X196331178Y-107421640D01*
X200424831Y-104961050D02*
X200182986Y-105625513D01*
D12*
X200438690Y-93810469D02*
X198626076Y-94655705D01*
X200438690Y-93810469D02*
X200037203Y-92949477D01*
X202473512Y-97440636D02*
X198975164Y-99071942D01*
X202473512Y-97440636D02*
X203318748Y-99253251D01*
X203318748Y-99253251D02*
X199820400Y-100884558D01*
D11*
X189265578Y-103627181D02*
G75*
G02*
X189446962Y-103128833I339866J158482D01*
G01*
X191433268Y-107388480D02*
G75*
G02*
X190934920Y-107207096I-158482J339866D01*
G01*
X192596381Y-101660235D02*
G75*
G02*
X193094729Y-101841618I158481J-339870D01*
G01*
X193517599Y-106416540D02*
G75*
G02*
X195666714Y-107179796I698846J-1439526D01*
G01*
X195387126Y-102675983D02*
G75*
G02*
X193094729Y-101841618I-729016J1563380D01*
G01*
%TO.C,S_MAT_L20*%
X21625000Y-82601657D02*
X21625000Y-78651657D01*
X22000000Y-78276657D02*
X25475000Y-78276657D01*
X22000000Y-82976657D02*
X24299805Y-82976657D01*
D12*
X23700000Y-68726656D02*
X23700000Y-69626656D01*
X23700000Y-68726656D02*
X25400000Y-68726656D01*
X23700000Y-73426656D02*
X23700000Y-72476656D01*
X23700000Y-73426656D02*
X25400000Y-73426656D01*
D11*
X26425000Y-85076657D02*
X25925000Y-84576657D01*
X27575000Y-80376657D02*
X30675000Y-80376657D01*
X30675000Y-85076657D02*
X26425000Y-85076657D01*
X31175000Y-80876657D02*
X30675000Y-80376657D01*
X31175000Y-80876657D02*
X31175000Y-84576657D01*
X31175000Y-84576657D02*
X30675000Y-85076657D01*
D12*
X35900000Y-69776656D02*
X33900000Y-69776656D01*
X35900000Y-69776656D02*
X35900000Y-70726656D01*
X35900000Y-74476656D02*
X33900000Y-74476656D01*
X35900000Y-74476656D02*
X35900000Y-73526656D01*
X36210000Y-78626657D02*
X32350000Y-78626657D01*
X36210000Y-78626657D02*
X36210000Y-80626657D01*
X36210000Y-80626657D02*
X32350000Y-80626657D01*
D11*
X21625000Y-78651657D02*
G75*
G02*
X22000000Y-78276657I375000J0D01*
G01*
X22000000Y-82976657D02*
G75*
G02*
X21625000Y-82601657I0J375000D01*
G01*
X24299805Y-82976657D02*
G75*
G02*
X25924999Y-84576657I25000J-1599999D01*
G01*
X25475000Y-78276657D02*
G75*
G02*
X25850000Y-78651657I0J-375000D01*
G01*
X27575000Y-80376657D02*
G75*
G02*
X25850000Y-78651657I1J1725001D01*
G01*
%TO.C,S_MAT_R24*%
D12*
X184406266Y-73978692D02*
X184639203Y-74848025D01*
X184406266Y-73978692D02*
X186048340Y-73538699D01*
D11*
X185235914Y-83643277D02*
X188592507Y-82743881D01*
D12*
X185622716Y-78518543D02*
X185376838Y-77600914D01*
X185622716Y-78518543D02*
X187264790Y-78078551D01*
D11*
X185993085Y-87917963D02*
X184970749Y-84102556D01*
X186452364Y-88183128D02*
X188673805Y-87587895D01*
X191164471Y-84228805D02*
X194158841Y-83426466D01*
X191270106Y-89066298D02*
X190657733Y-88712745D01*
X194771213Y-83780019D02*
X194158841Y-83426466D01*
X194771213Y-83780019D02*
X195728844Y-87353945D01*
X195375290Y-87966317D02*
X191270106Y-89066298D01*
X195728844Y-87353945D02*
X195375290Y-87966317D01*
D12*
X196462321Y-71835322D02*
X194530470Y-72352960D01*
X196462321Y-71835322D02*
X196708199Y-72752951D01*
X197678771Y-76375173D02*
X195746919Y-76892811D01*
X197678771Y-76375173D02*
X197432893Y-75457543D01*
X199052307Y-80303532D02*
X195323833Y-81302574D01*
X199052307Y-80303532D02*
X199569945Y-82235384D01*
X199569945Y-82235384D02*
X195841471Y-83234424D01*
D11*
X184970749Y-84102556D02*
G75*
G02*
X185235914Y-83643276I362223J97057D01*
G01*
X186452364Y-88183128D02*
G75*
G02*
X185993085Y-87917963I-97059J362219D01*
G01*
X188592507Y-82743881D02*
G75*
G02*
X189051786Y-83009046I97057J-362222D01*
G01*
X188673805Y-87587895D02*
G75*
G02*
X190657732Y-88712745I438258J-1539010D01*
G01*
X191164471Y-84228805D02*
G75*
G02*
X189051786Y-83009046I-446462J1666223D01*
G01*
%TO.C,S_MAT_L12*%
X70711057Y-54318562D02*
X71733392Y-50503155D01*
X70976222Y-54777841D02*
X73197663Y-55373075D01*
X72192671Y-50237990D02*
X75549263Y-51137386D01*
X74706923Y-57951560D02*
X74353370Y-57339187D01*
D12*
X75090018Y-45993241D02*
X75335896Y-45075612D01*
X75090018Y-45993241D02*
X76732092Y-46433234D01*
X76306467Y-41453390D02*
X76073530Y-42322723D01*
X76306467Y-41453390D02*
X77948541Y-41893382D01*
D11*
X77034188Y-53709349D02*
X80028558Y-54511689D01*
X78812108Y-59051541D02*
X74706923Y-57951560D01*
X79424481Y-58697987D02*
X78812108Y-59051541D01*
X80382111Y-55124062D02*
X79424481Y-58697987D01*
X80382111Y-55124062D02*
X80028558Y-54511689D01*
D12*
X85310252Y-56185734D02*
X81581779Y-55186693D01*
X85827891Y-54253883D02*
X82099417Y-53254841D01*
X85827891Y-54253883D02*
X85310252Y-56185734D01*
X86602553Y-50165056D02*
X84670701Y-49647418D01*
X86602553Y-50165056D02*
X86848431Y-49247426D01*
X87819002Y-45625204D02*
X85887151Y-45107566D01*
X87819002Y-45625204D02*
X87573124Y-46542834D01*
D11*
X70976222Y-54777841D02*
G75*
G02*
X70711057Y-54318562I97057J362222D01*
G01*
X71733392Y-50503155D02*
G75*
G02*
X72192671Y-50237990I362222J-97057D01*
G01*
X73197663Y-55373075D02*
G75*
G02*
X74353370Y-57339187I-389962J-1551951D01*
G01*
X75549263Y-51137386D02*
G75*
G02*
X75814427Y-51596667I-97057J-362222D01*
G01*
X77034188Y-53709349D02*
G75*
G02*
X75814429Y-51596667I446462J1666221D01*
G01*
%TO.C,S_MAT_L04*%
X108765618Y-51271808D02*
X109787953Y-47456401D01*
X109030783Y-51731087D02*
X111252224Y-52326321D01*
X110247232Y-47191236D02*
X113603824Y-48090632D01*
X112761484Y-54904806D02*
X112407931Y-54292433D01*
D12*
X113144579Y-42946487D02*
X113390457Y-42028858D01*
X113144579Y-42946487D02*
X114786653Y-43386480D01*
X114361028Y-38406636D02*
X114128091Y-39275969D01*
X114361028Y-38406636D02*
X116003102Y-38846628D01*
D11*
X115088749Y-50662595D02*
X118083119Y-51464935D01*
X116866669Y-56004787D02*
X112761484Y-54904806D01*
X117479042Y-55651233D02*
X116866669Y-56004787D01*
X118436672Y-52077308D02*
X117479042Y-55651233D01*
X118436672Y-52077308D02*
X118083119Y-51464935D01*
D12*
X123364813Y-53138980D02*
X119636340Y-52139939D01*
X123882452Y-51207129D02*
X120153978Y-50208087D01*
X123882452Y-51207129D02*
X123364813Y-53138980D01*
X124657114Y-47118302D02*
X122725262Y-46600664D01*
X124657114Y-47118302D02*
X124902992Y-46200672D01*
X125873563Y-42578450D02*
X123941712Y-42060812D01*
X125873563Y-42578450D02*
X125627685Y-43496080D01*
D11*
X109030783Y-51731087D02*
G75*
G02*
X108765618Y-51271808I97057J362222D01*
G01*
X109787953Y-47456401D02*
G75*
G02*
X110247232Y-47191236I362222J-97057D01*
G01*
X111252224Y-52326321D02*
G75*
G02*
X112407931Y-54292433I-389962J-1551951D01*
G01*
X113603824Y-48090632D02*
G75*
G02*
X113868988Y-48549913I-97057J-362222D01*
G01*
X115088749Y-50662595D02*
G75*
G02*
X113868990Y-48549913I446462J1666221D01*
G01*
%TO.C,S_MAT_R00*%
X263825000Y-48646320D02*
X263825000Y-44696320D01*
X264200000Y-44321320D02*
X267675000Y-44321320D01*
X264200000Y-49021320D02*
X266499805Y-49021320D01*
D12*
X265900000Y-34771319D02*
X265900000Y-35671319D01*
X265900000Y-34771319D02*
X267600000Y-34771319D01*
X265900000Y-39471319D02*
X265900000Y-38521319D01*
X265900000Y-39471319D02*
X267600000Y-39471319D01*
D11*
X268625000Y-51121320D02*
X268125000Y-50621320D01*
X269775000Y-46421320D02*
X272875000Y-46421320D01*
X272875000Y-51121320D02*
X268625000Y-51121320D01*
X273375000Y-46921320D02*
X272875000Y-46421320D01*
X273375000Y-46921320D02*
X273375000Y-50621320D01*
X273375000Y-50621320D02*
X272875000Y-51121320D01*
D12*
X278100000Y-35821319D02*
X276100000Y-35821319D01*
X278100000Y-35821319D02*
X278100000Y-36771319D01*
X278100000Y-40521319D02*
X276100000Y-40521319D01*
X278100000Y-40521319D02*
X278100000Y-39571319D01*
X278410000Y-44671320D02*
X274550000Y-44671320D01*
X278410000Y-44671320D02*
X278410000Y-46671320D01*
X278410000Y-46671320D02*
X274550000Y-46671320D01*
D11*
X263825000Y-44696320D02*
G75*
G02*
X264200000Y-44321320I375000J0D01*
G01*
X264200000Y-49021320D02*
G75*
G02*
X263825000Y-48646320I0J375000D01*
G01*
X266499805Y-49021320D02*
G75*
G02*
X268124999Y-50621320I25000J-1599999D01*
G01*
X267675000Y-44321320D02*
G75*
G02*
X268050000Y-44696320I0J-375000D01*
G01*
X269775000Y-46421320D02*
G75*
G02*
X268050000Y-44696320I1J1725001D01*
G01*
%TO.C,S_MAT_R03*%
D12*
X193009493Y-36502032D02*
X193242430Y-37371365D01*
X193009493Y-36502032D02*
X194651567Y-36062039D01*
D11*
X193839141Y-46166617D02*
X197195734Y-45267221D01*
D12*
X194225943Y-41041883D02*
X193980065Y-40124254D01*
X194225943Y-41041883D02*
X195868017Y-40601891D01*
D11*
X194596312Y-50441303D02*
X193573976Y-46625896D01*
X195055591Y-50706468D02*
X197277032Y-50111235D01*
X199767698Y-46752145D02*
X202762068Y-45949806D01*
X199873333Y-51589638D02*
X199260960Y-51236085D01*
X203374440Y-46303359D02*
X202762068Y-45949806D01*
X203374440Y-46303359D02*
X204332071Y-49877285D01*
X203978517Y-50489657D02*
X199873333Y-51589638D01*
X204332071Y-49877285D02*
X203978517Y-50489657D01*
D12*
X205065548Y-34358662D02*
X203133697Y-34876300D01*
X205065548Y-34358662D02*
X205311426Y-35276291D01*
X206281998Y-38898513D02*
X204350146Y-39416151D01*
X206281998Y-38898513D02*
X206036120Y-37980883D01*
X207655534Y-42826872D02*
X203927060Y-43825914D01*
X207655534Y-42826872D02*
X208173172Y-44758724D01*
X208173172Y-44758724D02*
X204444698Y-45757764D01*
D11*
X193573976Y-46625896D02*
G75*
G02*
X193839141Y-46166616I362223J97057D01*
G01*
X195055591Y-50706468D02*
G75*
G02*
X194596312Y-50441303I-97059J362219D01*
G01*
X197195734Y-45267221D02*
G75*
G02*
X197655013Y-45532386I97057J-362222D01*
G01*
X197277032Y-50111235D02*
G75*
G02*
X199260959Y-51236085I438258J-1539010D01*
G01*
X199767698Y-46752145D02*
G75*
G02*
X197655013Y-45532386I-446462J1666223D01*
G01*
%TO.C,S_MAT_R21*%
X241061379Y-68997141D02*
X244483586Y-68393713D01*
D12*
X241077212Y-59297024D02*
X241233496Y-60183351D01*
X241077212Y-59297024D02*
X242751385Y-59001822D01*
D11*
X241443105Y-73321552D02*
X240757195Y-69431562D01*
X241877526Y-73625737D02*
X244142392Y-73226380D01*
D12*
X241893359Y-63925620D02*
X241728393Y-62990053D01*
X241893359Y-63925620D02*
X243567532Y-63630418D01*
D11*
X246599961Y-74925440D02*
X246020733Y-74519860D01*
X246916344Y-70097148D02*
X249969248Y-69558839D01*
X250548476Y-69964419D02*
X249969248Y-69558839D01*
X250548476Y-69964419D02*
X251190974Y-73608207D01*
X250785394Y-74187435D02*
X246599961Y-74925440D01*
X251190974Y-73608207D02*
X250785394Y-74187435D01*
D12*
X253274197Y-58212564D02*
X251304582Y-58559860D01*
X253274197Y-58212564D02*
X253439163Y-59148130D01*
X254090344Y-62841161D02*
X252120728Y-63188457D01*
X254090344Y-62841161D02*
X253925378Y-61905593D01*
X255116274Y-66874283D02*
X251314915Y-67544565D01*
X255116274Y-66874283D02*
X255463571Y-68843898D01*
X255463571Y-68843898D02*
X251662213Y-69514180D01*
D11*
X240757195Y-69431562D02*
G75*
G02*
X241061379Y-68997141I369299J65121D01*
G01*
X241877526Y-73625737D02*
G75*
G02*
X241443105Y-73321552I-65118J369303D01*
G01*
X244142392Y-73226380D02*
G75*
G02*
X246020733Y-74519860I302457J-1571350D01*
G01*
X244483586Y-68393713D02*
G75*
G02*
X244918007Y-68697898I65118J-369303D01*
G01*
X246916344Y-70097148D02*
G75*
G02*
X244918007Y-68697898I-299543J1698794D01*
G01*
%TO.C,S_MAT_L35*%
X127397854Y-119989323D02*
X130190925Y-117196251D01*
X127397854Y-120519653D02*
X129024061Y-122145861D01*
X129041877Y-125133525D02*
X129041877Y-124426418D01*
X130721255Y-117196251D02*
X133178451Y-119653447D01*
X132047081Y-128138728D02*
X129041877Y-125133525D01*
X132754187Y-128138728D02*
X132047081Y-128138728D01*
X133178451Y-122623296D02*
X135370482Y-124815327D01*
D12*
X135352806Y-114968864D02*
X136024557Y-114297113D01*
X135352806Y-114968864D02*
X136554887Y-116170946D01*
D11*
X135370482Y-125522433D02*
X132754187Y-128138728D01*
X135370482Y-125522433D02*
X135370482Y-124815327D01*
D12*
X138676207Y-111645462D02*
X138039811Y-112281858D01*
X138676207Y-111645462D02*
X139878289Y-112847544D01*
X139107542Y-128905939D02*
X136378110Y-126176507D01*
X140521755Y-127491726D02*
X137792323Y-124762294D01*
X140521755Y-127491726D02*
X139107542Y-128905939D01*
X143237046Y-124338029D02*
X141822833Y-122923815D01*
X143237046Y-124338029D02*
X143908798Y-123666277D01*
X146560448Y-121014627D02*
X145146234Y-119600413D01*
X146560448Y-121014627D02*
X145888697Y-121686378D01*
D11*
X127397854Y-120519653D02*
G75*
G02*
X127397854Y-119989323I265165J265165D01*
G01*
X129024061Y-122145861D02*
G75*
G02*
X129041876Y-124426417I-1113692J-1149047D01*
G01*
X130190925Y-117196251D02*
G75*
G02*
X130721255Y-117196251I265165J-265165D01*
G01*
X133178451Y-119653447D02*
G75*
G02*
X133178451Y-120183777I-265165J-265165D01*
G01*
X133178451Y-122623296D02*
G75*
G02*
X133178451Y-120183777I1219762J1219759D01*
G01*
%TO.C,S_MAT_L33*%
X78203123Y-95901203D02*
X79225458Y-92085796D01*
X78468288Y-96360482D02*
X80689729Y-96955716D01*
X79684737Y-91820631D02*
X83041329Y-92720027D01*
X82198989Y-99534201D02*
X81845436Y-98921828D01*
D12*
X82582084Y-87575882D02*
X82827962Y-86658253D01*
X82582084Y-87575882D02*
X84224158Y-88015875D01*
X83798533Y-83036031D02*
X83565596Y-83905364D01*
X83798533Y-83036031D02*
X85440607Y-83476023D01*
D11*
X84526254Y-95291990D02*
X87520624Y-96094330D01*
X86304174Y-100634182D02*
X82198989Y-99534201D01*
X86916547Y-100280628D02*
X86304174Y-100634182D01*
X87874177Y-96706703D02*
X86916547Y-100280628D01*
X87874177Y-96706703D02*
X87520624Y-96094330D01*
D12*
X92802318Y-97768375D02*
X89073845Y-96769334D01*
X93319957Y-95836524D02*
X89591483Y-94837482D01*
X93319957Y-95836524D02*
X92802318Y-97768375D01*
X94094619Y-91747697D02*
X92162767Y-91230059D01*
X94094619Y-91747697D02*
X94340497Y-90830067D01*
X95311068Y-87207845D02*
X93379217Y-86690207D01*
X95311068Y-87207845D02*
X95065190Y-88125475D01*
D11*
X78468288Y-96360482D02*
G75*
G02*
X78203123Y-95901203I97057J362222D01*
G01*
X79225458Y-92085796D02*
G75*
G02*
X79684737Y-91820631I362222J-97057D01*
G01*
X80689729Y-96955716D02*
G75*
G02*
X81845436Y-98921828I-389962J-1551951D01*
G01*
X83041329Y-92720027D02*
G75*
G02*
X83306493Y-93179308I-97057J-362222D01*
G01*
X84526254Y-95291990D02*
G75*
G02*
X83306495Y-93179308I446462J1666221D01*
G01*
%TO.C,S_MAT_R35*%
D12*
X153989666Y-119008038D02*
X154626062Y-119644434D01*
X153989666Y-119008038D02*
X155191748Y-117805956D01*
X157313068Y-122331439D02*
X156641317Y-121659688D01*
X157313068Y-122331439D02*
X158515150Y-121129358D01*
D11*
X159540455Y-126962990D02*
X161997651Y-124505794D01*
X162333527Y-130286391D02*
X159540455Y-127493320D01*
X162863857Y-130286391D02*
X164490065Y-128660184D01*
D12*
X163358831Y-111123797D02*
X161944617Y-112538011D01*
X163358831Y-111123797D02*
X164030582Y-111795548D01*
D11*
X164967500Y-124505794D02*
X167159531Y-122313763D01*
D12*
X166682233Y-114447199D02*
X165268019Y-115861412D01*
X166682233Y-114447199D02*
X166010481Y-113775447D01*
D11*
X167477729Y-128642368D02*
X166770622Y-128642368D01*
X167866637Y-122313763D02*
X167159531Y-122313763D01*
X167866637Y-122313763D02*
X170482932Y-124930058D01*
D12*
X169835930Y-117162490D02*
X167106498Y-119891922D01*
X169835930Y-117162490D02*
X171250143Y-118576703D01*
D11*
X170482932Y-124930058D02*
X170482932Y-125637164D01*
X170482932Y-125637164D02*
X167477729Y-128642368D01*
D12*
X171250143Y-118576703D02*
X168520711Y-121306135D01*
D11*
X159540455Y-127493320D02*
G75*
G02*
X159540455Y-126962990I265165J265165D01*
G01*
X161997651Y-124505794D02*
G75*
G02*
X162527981Y-124505794I265165J-265165D01*
G01*
X162863857Y-130286391D02*
G75*
G02*
X162333527Y-130286391I-265165J265165D01*
G01*
X164490065Y-128660184D02*
G75*
G02*
X166770621Y-128642369I1149047J-1113692D01*
G01*
X164967500Y-124505794D02*
G75*
G02*
X162527981Y-124505794I-1219759J1219762D01*
G01*
%TO.C,S_MAT_R25*%
D12*
X169333813Y-104906699D02*
X169850031Y-105643936D01*
X169333813Y-104906699D02*
X170726371Y-103931619D01*
X172029622Y-108756714D02*
X171484724Y-107978519D01*
X172029622Y-108756714D02*
X173422180Y-107781634D01*
D11*
X173418910Y-113704682D02*
X176265463Y-111711504D01*
X175592446Y-117462606D02*
X173326819Y-114226955D01*
X176114719Y-117554696D02*
X177998609Y-116235583D01*
X179190193Y-112227213D02*
X181729564Y-110449126D01*
D12*
X179929723Y-98769176D02*
X178291419Y-99916329D01*
X179929723Y-98769176D02*
X180474620Y-99547371D01*
D11*
X180943977Y-116736840D02*
X180247613Y-116614052D01*
X182425928Y-110571913D02*
X181729564Y-110449126D01*
X182425928Y-110571913D02*
X184548161Y-113602776D01*
D12*
X182625532Y-102619191D02*
X180987228Y-103766344D01*
X182625532Y-102619191D02*
X182080634Y-101840996D01*
D11*
X184425373Y-114299140D02*
X180943977Y-116736840D01*
X184548161Y-113602776D02*
X184425373Y-114299140D01*
D12*
X185259812Y-105840864D02*
X182097885Y-108054869D01*
X185259812Y-105840864D02*
X186406965Y-107479168D01*
X186406965Y-107479168D02*
X183245038Y-109693173D01*
D11*
X173326819Y-114226955D02*
G75*
G02*
X173418910Y-113704682I307182J215091D01*
G01*
X176114719Y-117554696D02*
G75*
G02*
X175592446Y-117462606I-215091J307182D01*
G01*
X176265463Y-111711504D02*
G75*
G02*
X176787736Y-111803595I215091J-307182D01*
G01*
X177998609Y-116235583D02*
G75*
G02*
X180247612Y-116614053I938200J-1296303D01*
G01*
X179190193Y-112227213D02*
G75*
G02*
X176787736Y-111803595I-989419J1413041D01*
G01*
%TO.C,S_MAT_L15*%
X122239732Y-95243492D02*
X124505359Y-92007842D01*
X122331823Y-95765766D02*
X124215713Y-97084880D01*
X124752060Y-100024061D02*
X124629272Y-99327696D01*
X125027632Y-91915751D02*
X127874185Y-93908929D01*
X128233456Y-102461761D02*
X124752060Y-100024061D01*
X128389894Y-96833659D02*
X130929266Y-98611746D01*
X128929821Y-102338973D02*
X128233456Y-102461761D01*
D12*
X129202037Y-88917943D02*
X129746934Y-88139748D01*
X129202037Y-88917943D02*
X130594595Y-89893023D01*
D11*
X131052053Y-99308110D02*
X128929821Y-102338973D01*
X131052053Y-99308110D02*
X130929266Y-98611746D01*
D12*
X131897846Y-85067928D02*
X131381627Y-85805165D01*
X131897846Y-85067928D02*
X133290405Y-86043008D01*
X135319878Y-101991280D02*
X132157951Y-99777274D01*
X136467031Y-100352975D02*
X133305104Y-98138970D01*
X136467031Y-100352975D02*
X135319878Y-101991280D01*
X138593437Y-96775685D02*
X136955132Y-95628532D01*
X138593437Y-96775685D02*
X139138334Y-95997490D01*
X141289246Y-92925670D02*
X139650942Y-91778517D01*
X141289246Y-92925670D02*
X140744348Y-93703865D01*
D11*
X122331823Y-95765766D02*
G75*
G02*
X122239732Y-95243492I215091J307182D01*
G01*
X124215713Y-97084880D02*
G75*
G02*
X124629271Y-99327695I-897243J-1324981D01*
G01*
X124505359Y-92007842D02*
G75*
G02*
X125027632Y-91915751I307182J-215091D01*
G01*
X127874185Y-93908929D02*
G75*
G02*
X127966276Y-94431202I-215091J-307182D01*
G01*
X128389894Y-96833659D02*
G75*
G02*
X127966276Y-94431202I989421J1413038D01*
G01*
%TO.C,S_MAT_R32*%
D12*
X222489009Y-76994118D02*
X222721946Y-77863451D01*
X222489009Y-76994118D02*
X224131083Y-76554125D01*
D11*
X223318657Y-86658703D02*
X226675250Y-85759307D01*
D12*
X223705459Y-81533969D02*
X223459581Y-80616340D01*
X223705459Y-81533969D02*
X225347533Y-81093977D01*
D11*
X224075828Y-90933389D02*
X223053492Y-87117982D01*
X224535107Y-91198554D02*
X226756548Y-90603321D01*
X229247214Y-87244231D02*
X232241584Y-86441892D01*
X229352849Y-92081724D02*
X228740476Y-91728171D01*
X232853956Y-86795445D02*
X232241584Y-86441892D01*
X232853956Y-86795445D02*
X233811587Y-90369371D01*
X233458033Y-90981743D02*
X229352849Y-92081724D01*
X233811587Y-90369371D02*
X233458033Y-90981743D01*
D12*
X234545064Y-74850748D02*
X232613213Y-75368386D01*
X234545064Y-74850748D02*
X234790942Y-75768377D01*
X235761514Y-79390599D02*
X233829662Y-79908237D01*
X235761514Y-79390599D02*
X235515636Y-78472969D01*
X237135050Y-83318958D02*
X233406576Y-84318000D01*
X237135050Y-83318958D02*
X237652688Y-85250810D01*
X237652688Y-85250810D02*
X233924214Y-86249850D01*
D11*
X223053492Y-87117982D02*
G75*
G02*
X223318657Y-86658702I362223J97057D01*
G01*
X224535107Y-91198554D02*
G75*
G02*
X224075828Y-90933389I-97059J362219D01*
G01*
X226675250Y-85759307D02*
G75*
G02*
X227134529Y-86024472I97057J-362222D01*
G01*
X226756548Y-90603321D02*
G75*
G02*
X228740475Y-91728171I438258J-1539010D01*
G01*
X229247214Y-87244231D02*
G75*
G02*
X227134529Y-86024472I-446462J1666223D01*
G01*
%TO.C,S_MAT_L13*%
X86978526Y-63092112D02*
X88000861Y-59276705D01*
X87243691Y-63551391D02*
X89465132Y-64146625D01*
X88460140Y-59011540D02*
X91816732Y-59910936D01*
X90974392Y-66725110D02*
X90620839Y-66112737D01*
D12*
X91357487Y-54766791D02*
X91603365Y-53849162D01*
X91357487Y-54766791D02*
X92999561Y-55206784D01*
X92573936Y-50226940D02*
X92340999Y-51096273D01*
X92573936Y-50226940D02*
X94216010Y-50666932D01*
D11*
X93301657Y-62482899D02*
X96296027Y-63285239D01*
X95079577Y-67825091D02*
X90974392Y-66725110D01*
X95691950Y-67471537D02*
X95079577Y-67825091D01*
X96649580Y-63897612D02*
X95691950Y-67471537D01*
X96649580Y-63897612D02*
X96296027Y-63285239D01*
D12*
X101577721Y-64959284D02*
X97849248Y-63960243D01*
X102095360Y-63027433D02*
X98366886Y-62028391D01*
X102095360Y-63027433D02*
X101577721Y-64959284D01*
X102870022Y-58938606D02*
X100938170Y-58420968D01*
X102870022Y-58938606D02*
X103115900Y-58020976D01*
X104086471Y-54398754D02*
X102154620Y-53881116D01*
X104086471Y-54398754D02*
X103840593Y-55316384D01*
D11*
X87243691Y-63551391D02*
G75*
G02*
X86978526Y-63092112I97057J362222D01*
G01*
X88000861Y-59276705D02*
G75*
G02*
X88460140Y-59011540I362222J-97057D01*
G01*
X89465132Y-64146625D02*
G75*
G02*
X90620839Y-66112737I-389962J-1551951D01*
G01*
X91816732Y-59910936D02*
G75*
G02*
X92081896Y-60370217I-97057J-362222D01*
G01*
X93301657Y-62482899D02*
G75*
G02*
X92081898Y-60370217I446462J1666221D01*
G01*
%TO.C,S_MAT_L34*%
X95892335Y-101069459D02*
X97561678Y-97489542D01*
X96073719Y-101567805D02*
X98158050Y-102539744D01*
X98060025Y-97308158D02*
X101209444Y-98776757D01*
X99196633Y-105341137D02*
X98954788Y-104676674D01*
D12*
X101650447Y-93631016D02*
X102051934Y-92770023D01*
X101650447Y-93631016D02*
X103191170Y-94349467D01*
D11*
X102225191Y-101567501D02*
X105034746Y-102877618D01*
X103048441Y-107137265D02*
X99196633Y-105341137D01*
D12*
X103636753Y-89371369D02*
X103256396Y-90187046D01*
X103636753Y-89371369D02*
X105177476Y-90089820D01*
D11*
X103712904Y-106895420D02*
X103048441Y-107137265D01*
X105276591Y-103542081D02*
X103712904Y-106895420D01*
X105276591Y-103542081D02*
X105034746Y-102877618D01*
D12*
X109945506Y-105443387D02*
X106447157Y-103812082D01*
X110790742Y-103630772D02*
X107292394Y-101999465D01*
X110790742Y-103630772D02*
X109945506Y-105443387D01*
X112263653Y-99738582D02*
X110451037Y-98893345D01*
X112263653Y-99738582D02*
X112665140Y-98877589D01*
X114249959Y-95478935D02*
X112437343Y-94633699D01*
X114249959Y-95478935D02*
X113848471Y-96339927D01*
D11*
X96073719Y-101567805D02*
G75*
G02*
X95892334Y-101069459I158482J339866D01*
G01*
X97561678Y-97489542D02*
G75*
G02*
X98060025Y-97308159I339865J-158482D01*
G01*
X98158050Y-102539744D02*
G75*
G02*
X98954787Y-104676674I-653531J-1460657D01*
G01*
X101209444Y-98776757D02*
G75*
G02*
X101390828Y-99275104I-158481J-339865D01*
G01*
X102225191Y-101567501D02*
G75*
G02*
X101390828Y-99275104I729019J1563381D01*
G01*
%TO.C,S_MAT_L01*%
X50149148Y-37279039D02*
X50835059Y-33389049D01*
X50453333Y-37713460D02*
X52718199Y-38112817D01*
X51269480Y-33084864D02*
X54691687Y-33688291D01*
D12*
X53785847Y-28603747D02*
X53950812Y-27668180D01*
X53785847Y-28603747D02*
X55460020Y-28898949D01*
D11*
X54446446Y-40549950D02*
X54040867Y-39970722D01*
D12*
X54601993Y-23975151D02*
X54445710Y-24861478D01*
X54601993Y-23975151D02*
X56276166Y-24270353D01*
D11*
X56395122Y-36121049D02*
X59448026Y-36659358D01*
X58631879Y-41287954D02*
X54446446Y-40549950D01*
X59211107Y-40882375D02*
X58631879Y-41287954D01*
X59853606Y-37238586D02*
X59211107Y-40882375D01*
X59853606Y-37238586D02*
X59448026Y-36659358D01*
D12*
X64855525Y-37866703D02*
X61054167Y-37196421D01*
X65202821Y-35897087D02*
X61401463Y-35226805D01*
X65202821Y-35897087D02*
X64855525Y-37866703D01*
X65618171Y-31756303D02*
X63648555Y-31409007D01*
X65618171Y-31756303D02*
X65783136Y-30820736D01*
X66434317Y-27127707D02*
X64464702Y-26780410D01*
X66434317Y-27127707D02*
X66269351Y-28063274D01*
D11*
X50453333Y-37713460D02*
G75*
G02*
X50149148Y-37279039I65118J369303D01*
G01*
X50835059Y-33389049D02*
G75*
G02*
X51269480Y-33084864I369303J-65118D01*
G01*
X52718199Y-38112817D02*
G75*
G02*
X54040866Y-39970722I-253217J-1580033D01*
G01*
X54691687Y-33688291D02*
G75*
G02*
X54995872Y-34122712I-65118J-369303D01*
G01*
X56395122Y-36121049D02*
G75*
G02*
X54995872Y-34122712I299544J1698794D01*
G01*
%TO.C,S_MAT_R20*%
X263825000Y-82575001D02*
X263825000Y-78625001D01*
X264200000Y-78250001D02*
X267675000Y-78250001D01*
X264200000Y-82950001D02*
X266499805Y-82950001D01*
D12*
X265900000Y-68700000D02*
X265900000Y-69600000D01*
X265900000Y-68700000D02*
X267600000Y-68700000D01*
X265900000Y-73400000D02*
X265900000Y-72450000D01*
X265900000Y-73400000D02*
X267600000Y-73400000D01*
D11*
X268625000Y-85050001D02*
X268125000Y-84550001D01*
X269775000Y-80350001D02*
X272875000Y-80350001D01*
X272875000Y-85050001D02*
X268625000Y-85050001D01*
X273375000Y-80850001D02*
X272875000Y-80350001D01*
X273375000Y-80850001D02*
X273375000Y-84550001D01*
X273375000Y-84550001D02*
X272875000Y-85050001D01*
D12*
X278100000Y-69750000D02*
X276100000Y-69750000D01*
X278100000Y-69750000D02*
X278100000Y-70700000D01*
X278100000Y-74450000D02*
X276100000Y-74450000D01*
X278100000Y-74450000D02*
X278100000Y-73500000D01*
X278410000Y-78600001D02*
X274550000Y-78600001D01*
X278410000Y-78600001D02*
X278410000Y-80600001D01*
X278410000Y-80600001D02*
X274550000Y-80600001D01*
D11*
X263825000Y-78625001D02*
G75*
G02*
X264200000Y-78250001I375000J0D01*
G01*
X264200000Y-82950001D02*
G75*
G02*
X263825000Y-82575001I0J375000D01*
G01*
X266499805Y-82950001D02*
G75*
G02*
X268124999Y-84550001I25000J-1599999D01*
G01*
X267675000Y-78250001D02*
G75*
G02*
X268050000Y-78625001I0J-375000D01*
G01*
X269775000Y-80350001D02*
G75*
G02*
X268050000Y-78625001I1J1725001D01*
G01*
%TO.C,S_MAT_R13*%
D12*
X197391839Y-52858642D02*
X197624776Y-53727975D01*
X197391839Y-52858642D02*
X199033913Y-52418649D01*
D11*
X198221487Y-62523227D02*
X201578080Y-61623831D01*
D12*
X198608289Y-57398493D02*
X198362411Y-56480864D01*
X198608289Y-57398493D02*
X200250363Y-56958501D01*
D11*
X198978658Y-66797913D02*
X197956322Y-62982506D01*
X199437937Y-67063078D02*
X201659378Y-66467845D01*
X204150044Y-63108755D02*
X207144414Y-62306416D01*
X204255679Y-67946248D02*
X203643306Y-67592695D01*
X207756786Y-62659969D02*
X207144414Y-62306416D01*
X207756786Y-62659969D02*
X208714417Y-66233895D01*
X208360863Y-66846267D02*
X204255679Y-67946248D01*
X208714417Y-66233895D02*
X208360863Y-66846267D01*
D12*
X209447894Y-50715272D02*
X207516043Y-51232910D01*
X209447894Y-50715272D02*
X209693772Y-51632901D01*
X210664344Y-55255123D02*
X208732492Y-55772761D01*
X210664344Y-55255123D02*
X210418466Y-54337493D01*
X212037880Y-59183482D02*
X208309406Y-60182524D01*
X212037880Y-59183482D02*
X212555518Y-61115334D01*
X212555518Y-61115334D02*
X208827044Y-62114374D01*
D11*
X197956322Y-62982506D02*
G75*
G02*
X198221487Y-62523226I362223J97057D01*
G01*
X199437937Y-67063078D02*
G75*
G02*
X198978658Y-66797913I-97059J362219D01*
G01*
X201578080Y-61623831D02*
G75*
G02*
X202037359Y-61888996I97057J-362222D01*
G01*
X201659378Y-66467845D02*
G75*
G02*
X203643305Y-67592695I438258J-1539010D01*
G01*
X204150044Y-63108755D02*
G75*
G02*
X202037359Y-61888996I-446462J1666223D01*
G01*
%TO.C,S_MAT_R01*%
X235148111Y-35520666D02*
X238570318Y-34917238D01*
D12*
X235163944Y-25820549D02*
X235320228Y-26706876D01*
X235163944Y-25820549D02*
X236838117Y-25525347D01*
D11*
X235529837Y-39845077D02*
X234843927Y-35955087D01*
X235964258Y-40149262D02*
X238229124Y-39749905D01*
D12*
X235980091Y-30449145D02*
X235815125Y-29513578D01*
X235980091Y-30449145D02*
X237654264Y-30153943D01*
D11*
X240686693Y-41448965D02*
X240107465Y-41043385D01*
X241003076Y-36620673D02*
X244055980Y-36082364D01*
X244635208Y-36487944D02*
X244055980Y-36082364D01*
X244635208Y-36487944D02*
X245277706Y-40131732D01*
X244872126Y-40710960D02*
X240686693Y-41448965D01*
X245277706Y-40131732D02*
X244872126Y-40710960D01*
D12*
X247360929Y-24736089D02*
X245391314Y-25083385D01*
X247360929Y-24736089D02*
X247525895Y-25671655D01*
X248177076Y-29364686D02*
X246207460Y-29711982D01*
X248177076Y-29364686D02*
X248012110Y-28429118D01*
X249203006Y-33397808D02*
X245401647Y-34068090D01*
X249203006Y-33397808D02*
X249550303Y-35367423D01*
X249550303Y-35367423D02*
X245748945Y-36037705D01*
D11*
X234843927Y-35955087D02*
G75*
G02*
X235148111Y-35520666I369299J65121D01*
G01*
X235964258Y-40149262D02*
G75*
G02*
X235529837Y-39845077I-65118J369303D01*
G01*
X238229124Y-39749905D02*
G75*
G02*
X240107465Y-41043385I302457J-1571350D01*
G01*
X238570318Y-34917238D02*
G75*
G02*
X239004739Y-35221423I65118J-369303D01*
G01*
X241003076Y-36620673D02*
G75*
G02*
X239004739Y-35221423I-299543J1698794D01*
G01*
%TO.C,S_MAT_L00*%
X21625000Y-48575001D02*
X21625000Y-44625001D01*
X22000000Y-44250001D02*
X25475000Y-44250001D01*
X22000000Y-48950001D02*
X24299805Y-48950001D01*
D12*
X23700000Y-34700000D02*
X23700000Y-35600000D01*
X23700000Y-34700000D02*
X25400000Y-34700000D01*
X23700000Y-39400000D02*
X23700000Y-38450000D01*
X23700000Y-39400000D02*
X25400000Y-39400000D01*
D11*
X26425000Y-51050001D02*
X25925000Y-50550001D01*
X27575000Y-46350001D02*
X30675000Y-46350001D01*
X30675000Y-51050001D02*
X26425000Y-51050001D01*
X31175000Y-46850001D02*
X30675000Y-46350001D01*
X31175000Y-46850001D02*
X31175000Y-50550001D01*
X31175000Y-50550001D02*
X30675000Y-51050001D01*
D12*
X35900000Y-35750000D02*
X33900000Y-35750000D01*
X35900000Y-35750000D02*
X35900000Y-36700000D01*
X35900000Y-40450000D02*
X33900000Y-40450000D01*
X35900000Y-40450000D02*
X35900000Y-39500000D01*
X36210000Y-44600001D02*
X32350000Y-44600001D01*
X36210000Y-44600001D02*
X36210000Y-46600001D01*
X36210000Y-46600001D02*
X32350000Y-46600001D01*
D11*
X21625000Y-44625001D02*
G75*
G02*
X22000000Y-44250001I375000J0D01*
G01*
X22000000Y-48950001D02*
G75*
G02*
X21625000Y-48575001I0J375000D01*
G01*
X24299805Y-48950001D02*
G75*
G02*
X25924999Y-50550001I25000J-1599999D01*
G01*
X25475000Y-44250001D02*
G75*
G02*
X25850000Y-44625001I0J-375000D01*
G01*
X27575000Y-46350001D02*
G75*
G02*
X25850000Y-44625001I1J1725001D01*
G01*
%TO.C,S_MAT_L14*%
X104365618Y-67737469D02*
X105387953Y-63922062D01*
X104630783Y-68196748D02*
X106852224Y-68791982D01*
X105847232Y-63656897D02*
X109203824Y-64556293D01*
X108361484Y-71370467D02*
X108007931Y-70758094D01*
D12*
X108744579Y-59412148D02*
X108990457Y-58494519D01*
X108744579Y-59412148D02*
X110386653Y-59852141D01*
X109961028Y-54872297D02*
X109728091Y-55741630D01*
X109961028Y-54872297D02*
X111603102Y-55312289D01*
D11*
X110688749Y-67128256D02*
X113683119Y-67930596D01*
X112466669Y-72470448D02*
X108361484Y-71370467D01*
X113079042Y-72116894D02*
X112466669Y-72470448D01*
X114036672Y-68542969D02*
X113079042Y-72116894D01*
X114036672Y-68542969D02*
X113683119Y-67930596D01*
D12*
X118964813Y-69604641D02*
X115236340Y-68605600D01*
X119482452Y-67672790D02*
X115753978Y-66673748D01*
X119482452Y-67672790D02*
X118964813Y-69604641D01*
X120257114Y-63583963D02*
X118325262Y-63066325D01*
X120257114Y-63583963D02*
X120502992Y-62666333D01*
X121473563Y-59044111D02*
X119541712Y-58526473D01*
X121473563Y-59044111D02*
X121227685Y-59961741D01*
D11*
X104630783Y-68196748D02*
G75*
G02*
X104365618Y-67737469I97057J362222D01*
G01*
X105387953Y-63922062D02*
G75*
G02*
X105847232Y-63656897I362222J-97057D01*
G01*
X106852224Y-68791982D02*
G75*
G02*
X108007931Y-70758094I-389962J-1551951D01*
G01*
X109203824Y-64556293D02*
G75*
G02*
X109468988Y-65015574I-97057J-362222D01*
G01*
X110688749Y-67128256D02*
G75*
G02*
X109468990Y-65015574I446462J1666221D01*
G01*
%TO.C,S_MAT_L02*%
X75105955Y-37881449D02*
X76128290Y-34066042D01*
X75371120Y-38340728D02*
X77592561Y-38935962D01*
X76587569Y-33800877D02*
X79944161Y-34700273D01*
X79101821Y-41514447D02*
X78748268Y-40902074D01*
D12*
X79484916Y-29556128D02*
X79730794Y-28638499D01*
X79484916Y-29556128D02*
X81126990Y-29996121D01*
X80701365Y-25016277D02*
X80468428Y-25885610D01*
X80701365Y-25016277D02*
X82343439Y-25456269D01*
D11*
X81429086Y-37272236D02*
X84423456Y-38074576D01*
X83207006Y-42614428D02*
X79101821Y-41514447D01*
X83819379Y-42260874D02*
X83207006Y-42614428D01*
X84777009Y-38686949D02*
X83819379Y-42260874D01*
X84777009Y-38686949D02*
X84423456Y-38074576D01*
D12*
X89705150Y-39748621D02*
X85976677Y-38749580D01*
X90222789Y-37816770D02*
X86494315Y-36817728D01*
X90222789Y-37816770D02*
X89705150Y-39748621D01*
X90997451Y-33727943D02*
X89065599Y-33210305D01*
X90997451Y-33727943D02*
X91243329Y-32810313D01*
X92213900Y-29188091D02*
X90282049Y-28670453D01*
X92213900Y-29188091D02*
X91968022Y-30105721D01*
D11*
X75371120Y-38340728D02*
G75*
G02*
X75105955Y-37881449I97057J362222D01*
G01*
X76128290Y-34066042D02*
G75*
G02*
X76587569Y-33800877I362222J-97057D01*
G01*
X77592561Y-38935962D02*
G75*
G02*
X78748268Y-40902074I-389962J-1551951D01*
G01*
X79944161Y-34700273D02*
G75*
G02*
X80209325Y-35159554I-97057J-362222D01*
G01*
X81429086Y-37272236D02*
G75*
G02*
X80209327Y-35159554I446462J1666221D01*
G01*
%TO.C,S_MAT_R12*%
D12*
X213651666Y-44156412D02*
X213884603Y-45025745D01*
X213651666Y-44156412D02*
X215293740Y-43716419D01*
D11*
X214481314Y-53820997D02*
X217837907Y-52921601D01*
D12*
X214868116Y-48696263D02*
X214622238Y-47778634D01*
X214868116Y-48696263D02*
X216510190Y-48256271D01*
D11*
X215238485Y-58095683D02*
X214216149Y-54280276D01*
X215697764Y-58360848D02*
X217919205Y-57765615D01*
X220409871Y-54406525D02*
X223404241Y-53604186D01*
X220515506Y-59244018D02*
X219903133Y-58890465D01*
X224016613Y-53957739D02*
X223404241Y-53604186D01*
X224016613Y-53957739D02*
X224974244Y-57531665D01*
X224620690Y-58144037D02*
X220515506Y-59244018D01*
X224974244Y-57531665D02*
X224620690Y-58144037D01*
D12*
X225707721Y-42013042D02*
X223775870Y-42530680D01*
X225707721Y-42013042D02*
X225953599Y-42930671D01*
X226924171Y-46552893D02*
X224992319Y-47070531D01*
X226924171Y-46552893D02*
X226678293Y-45635263D01*
X228297707Y-50481252D02*
X224569233Y-51480294D01*
X228297707Y-50481252D02*
X228815345Y-52413104D01*
X228815345Y-52413104D02*
X225086871Y-53412144D01*
D11*
X214216149Y-54280276D02*
G75*
G02*
X214481314Y-53820996I362223J97057D01*
G01*
X215697764Y-58360848D02*
G75*
G02*
X215238485Y-58095683I-97059J362219D01*
G01*
X217837907Y-52921601D02*
G75*
G02*
X218297186Y-53186766I97057J-362222D01*
G01*
X217919205Y-57765615D02*
G75*
G02*
X219903132Y-58890465I438258J-1539010D01*
G01*
X220409871Y-54406525D02*
G75*
G02*
X218297186Y-53186766I-446462J1666223D01*
G01*
%TO.C,S_MAT_R10*%
X263840196Y-65624969D02*
X263840196Y-61674969D01*
X264215196Y-61299969D02*
X267690196Y-61299969D01*
X264215196Y-65999969D02*
X266515001Y-65999969D01*
D12*
X265915196Y-51749968D02*
X265915196Y-52649968D01*
X265915196Y-51749968D02*
X267615196Y-51749968D01*
X265915196Y-56449968D02*
X265915196Y-55499968D01*
X265915196Y-56449968D02*
X267615196Y-56449968D01*
D11*
X268640196Y-68099969D02*
X268140196Y-67599969D01*
X269790196Y-63399969D02*
X272890196Y-63399969D01*
X272890196Y-68099969D02*
X268640196Y-68099969D01*
X273390196Y-63899969D02*
X272890196Y-63399969D01*
X273390196Y-63899969D02*
X273390196Y-67599969D01*
X273390196Y-67599969D02*
X272890196Y-68099969D01*
D12*
X278115196Y-52799968D02*
X276115196Y-52799968D01*
X278115196Y-52799968D02*
X278115196Y-53749968D01*
X278115196Y-57499968D02*
X276115196Y-57499968D01*
X278115196Y-57499968D02*
X278115196Y-56549968D01*
X278425196Y-61649969D02*
X274565196Y-61649969D01*
X278425196Y-61649969D02*
X278425196Y-63649969D01*
X278425196Y-63649969D02*
X274565196Y-63649969D01*
D11*
X263840196Y-61674969D02*
G75*
G02*
X264215196Y-61299969I375000J0D01*
G01*
X264215196Y-65999969D02*
G75*
G02*
X263840196Y-65624969I0J375000D01*
G01*
X266515001Y-65999969D02*
G75*
G02*
X268140195Y-67599969I25000J-1599999D01*
G01*
X267690196Y-61299969D02*
G75*
G02*
X268065196Y-61674969I0J-375000D01*
G01*
X269790196Y-63399969D02*
G75*
G02*
X268065196Y-61674969I1J1725001D01*
G01*
%TO.C,S_MAT_R31*%
X243990106Y-85712124D02*
X247412313Y-85108696D01*
D12*
X244005939Y-76012007D02*
X244162223Y-76898334D01*
X244005939Y-76012007D02*
X245680112Y-75716805D01*
D11*
X244371832Y-90036535D02*
X243685922Y-86146545D01*
X244806253Y-90340720D02*
X247071119Y-89941363D01*
D12*
X244822086Y-80640603D02*
X244657120Y-79705036D01*
X244822086Y-80640603D02*
X246496259Y-80345401D01*
D11*
X249528688Y-91640423D02*
X248949460Y-91234843D01*
X249845071Y-86812131D02*
X252897975Y-86273822D01*
X253477203Y-86679402D02*
X252897975Y-86273822D01*
X253477203Y-86679402D02*
X254119701Y-90323190D01*
X253714121Y-90902418D02*
X249528688Y-91640423D01*
X254119701Y-90323190D02*
X253714121Y-90902418D01*
D12*
X256202924Y-74927547D02*
X254233309Y-75274843D01*
X256202924Y-74927547D02*
X256367890Y-75863113D01*
X257019071Y-79556144D02*
X255049455Y-79903440D01*
X257019071Y-79556144D02*
X256854105Y-78620576D01*
X258045001Y-83589266D02*
X254243642Y-84259548D01*
X258045001Y-83589266D02*
X258392298Y-85558881D01*
X258392298Y-85558881D02*
X254590940Y-86229163D01*
D11*
X243685922Y-86146545D02*
G75*
G02*
X243990106Y-85712124I369299J65121D01*
G01*
X244806253Y-90340720D02*
G75*
G02*
X244371832Y-90036535I-65118J369303D01*
G01*
X247071119Y-89941363D02*
G75*
G02*
X248949460Y-91234843I302457J-1571350D01*
G01*
X247412313Y-85108696D02*
G75*
G02*
X247846734Y-85412881I65118J-369303D01*
G01*
X249845071Y-86812131D02*
G75*
G02*
X247846734Y-85412881I-299543J1698794D01*
G01*
%TO.C,S_MAT_R02*%
D12*
X209274189Y-27714076D02*
X209507126Y-28583409D01*
X209274189Y-27714076D02*
X210916263Y-27274083D01*
D11*
X210103837Y-37378661D02*
X213460430Y-36479265D01*
D12*
X210490639Y-32253927D02*
X210244761Y-31336298D01*
X210490639Y-32253927D02*
X212132713Y-31813935D01*
D11*
X210861008Y-41653347D02*
X209838672Y-37837940D01*
X211320287Y-41918512D02*
X213541728Y-41323279D01*
X216032394Y-37964189D02*
X219026764Y-37161850D01*
X216138029Y-42801682D02*
X215525656Y-42448129D01*
X219639136Y-37515403D02*
X219026764Y-37161850D01*
X219639136Y-37515403D02*
X220596767Y-41089329D01*
X220243213Y-41701701D02*
X216138029Y-42801682D01*
X220596767Y-41089329D02*
X220243213Y-41701701D01*
D12*
X221330244Y-25570706D02*
X219398393Y-26088344D01*
X221330244Y-25570706D02*
X221576122Y-26488335D01*
X222546694Y-30110557D02*
X220614842Y-30628195D01*
X222546694Y-30110557D02*
X222300816Y-29192927D01*
X223920230Y-34038916D02*
X220191756Y-35037958D01*
X223920230Y-34038916D02*
X224437868Y-35970768D01*
X224437868Y-35970768D02*
X220709394Y-36969808D01*
D11*
X209838672Y-37837940D02*
G75*
G02*
X210103837Y-37378660I362223J97057D01*
G01*
X211320287Y-41918512D02*
G75*
G02*
X210861008Y-41653347I-97059J362219D01*
G01*
X213460430Y-36479265D02*
G75*
G02*
X213919709Y-36744430I97057J-362222D01*
G01*
X213541728Y-41323279D02*
G75*
G02*
X215525655Y-42448129I438258J-1539010D01*
G01*
X216032394Y-37964189D02*
G75*
G02*
X213919709Y-36744430I-446462J1666223D01*
G01*
%TO.C,S_MAT_L25*%
X112497983Y-109080394D02*
X114763610Y-105844744D01*
X112590074Y-109602668D02*
X114473964Y-110921782D01*
X115010311Y-113860963D02*
X114887523Y-113164598D01*
X115285883Y-105752653D02*
X118132436Y-107745831D01*
X118491707Y-116298663D02*
X115010311Y-113860963D01*
X118648145Y-110670561D02*
X121187517Y-112448648D01*
X119188072Y-116175875D02*
X118491707Y-116298663D01*
D12*
X119460288Y-102754845D02*
X120005185Y-101976650D01*
X119460288Y-102754845D02*
X120852846Y-103729925D01*
D11*
X121310304Y-113145012D02*
X119188072Y-116175875D01*
X121310304Y-113145012D02*
X121187517Y-112448648D01*
D12*
X122156097Y-98904830D02*
X121639878Y-99642067D01*
X122156097Y-98904830D02*
X123548656Y-99879910D01*
X125578129Y-115828182D02*
X122416202Y-113614176D01*
X126725282Y-114189877D02*
X123563355Y-111975872D01*
X126725282Y-114189877D02*
X125578129Y-115828182D01*
X128851688Y-110612587D02*
X127213383Y-109465434D01*
X128851688Y-110612587D02*
X129396585Y-109834392D01*
X131547497Y-106762572D02*
X129909193Y-105615419D01*
X131547497Y-106762572D02*
X131002599Y-107540767D01*
D11*
X112590074Y-109602668D02*
G75*
G02*
X112497983Y-109080394I215091J307182D01*
G01*
X114473964Y-110921782D02*
G75*
G02*
X114887522Y-113164597I-897243J-1324981D01*
G01*
X114763610Y-105844744D02*
G75*
G02*
X115285883Y-105752653I307182J-215091D01*
G01*
X118132436Y-107745831D02*
G75*
G02*
X118224527Y-108268104I-215091J-307182D01*
G01*
X118648145Y-110670561D02*
G75*
G02*
X118224527Y-108268104I989421J1413038D01*
G01*
%TO.C,S_MAT_L03*%
X91358862Y-46630241D02*
X92381197Y-42814834D01*
X91624027Y-47089520D02*
X93845468Y-47684754D01*
X92840476Y-42549669D02*
X96197068Y-43449065D01*
X95354728Y-50263239D02*
X95001175Y-49650866D01*
D12*
X95737823Y-38304920D02*
X95983701Y-37387291D01*
X95737823Y-38304920D02*
X97379897Y-38744913D01*
X96954272Y-33765069D02*
X96721335Y-34634402D01*
X96954272Y-33765069D02*
X98596346Y-34205061D01*
D11*
X97681993Y-46021028D02*
X100676363Y-46823368D01*
X99459913Y-51363220D02*
X95354728Y-50263239D01*
X100072286Y-51009666D02*
X99459913Y-51363220D01*
X101029916Y-47435741D02*
X100072286Y-51009666D01*
X101029916Y-47435741D02*
X100676363Y-46823368D01*
D12*
X105958057Y-48497413D02*
X102229584Y-47498372D01*
X106475696Y-46565562D02*
X102747222Y-45566520D01*
X106475696Y-46565562D02*
X105958057Y-48497413D01*
X107250358Y-42476735D02*
X105318506Y-41959097D01*
X107250358Y-42476735D02*
X107496236Y-41559105D01*
X108466807Y-37936883D02*
X106534956Y-37419245D01*
X108466807Y-37936883D02*
X108220929Y-38854513D01*
D11*
X91624027Y-47089520D02*
G75*
G02*
X91358862Y-46630241I97057J362222D01*
G01*
X92381197Y-42814834D02*
G75*
G02*
X92840476Y-42549669I362222J-97057D01*
G01*
X93845468Y-47684754D02*
G75*
G02*
X95001175Y-49650866I-389962J-1551951D01*
G01*
X96197068Y-43449065D02*
G75*
G02*
X96462232Y-43908346I-97057J-362222D01*
G01*
X97681993Y-46021028D02*
G75*
G02*
X96462234Y-43908346I446462J1666221D01*
G01*
%TO.C,S_MAT_R15*%
D12*
X159604983Y-91030519D02*
X160121201Y-91767756D01*
X159604983Y-91030519D02*
X160997541Y-90055439D01*
X162300792Y-94880534D02*
X161755894Y-94102339D01*
X162300792Y-94880534D02*
X163693350Y-93905454D01*
D11*
X163690080Y-99828502D02*
X166536633Y-97835324D01*
X165863616Y-103586426D02*
X163597989Y-100350775D01*
X166385889Y-103678516D02*
X168269779Y-102359403D01*
X169461363Y-98351033D02*
X172000734Y-96572946D01*
D12*
X170200893Y-84892996D02*
X168562589Y-86040149D01*
X170200893Y-84892996D02*
X170745790Y-85671191D01*
D11*
X171215147Y-102860660D02*
X170518783Y-102737872D01*
X172697098Y-96695733D02*
X172000734Y-96572946D01*
X172697098Y-96695733D02*
X174819331Y-99726596D01*
D12*
X172896702Y-88743011D02*
X171258398Y-89890164D01*
X172896702Y-88743011D02*
X172351804Y-87964816D01*
D11*
X174696543Y-100422960D02*
X171215147Y-102860660D01*
X174819331Y-99726596D02*
X174696543Y-100422960D01*
D12*
X175530982Y-91964684D02*
X172369055Y-94178689D01*
X175530982Y-91964684D02*
X176678135Y-93602988D01*
X176678135Y-93602988D02*
X173516208Y-95816993D01*
D11*
X163597989Y-100350775D02*
G75*
G02*
X163690080Y-99828502I307182J215091D01*
G01*
X166385889Y-103678516D02*
G75*
G02*
X165863616Y-103586426I-215091J307182D01*
G01*
X166536633Y-97835324D02*
G75*
G02*
X167058906Y-97927415I215091J-307182D01*
G01*
X168269779Y-102359403D02*
G75*
G02*
X170518782Y-102737873I938200J-1296303D01*
G01*
X169461363Y-98351033D02*
G75*
G02*
X167058906Y-97927415I-989419J1413041D01*
G01*
%TO.C,S_MAT_L11*%
X47232705Y-54023974D02*
X47918616Y-50133984D01*
X47536890Y-54458395D02*
X49801756Y-54857752D01*
X48353037Y-49829799D02*
X51775244Y-50433226D01*
D12*
X50869404Y-45348682D02*
X51034369Y-44413115D01*
X50869404Y-45348682D02*
X52543577Y-45643884D01*
D11*
X51530003Y-57294885D02*
X51124424Y-56715657D01*
D12*
X51685550Y-40720086D02*
X51529267Y-41606413D01*
X51685550Y-40720086D02*
X53359723Y-41015288D01*
D11*
X53478679Y-52865984D02*
X56531583Y-53404293D01*
X55715436Y-58032889D02*
X51530003Y-57294885D01*
X56294664Y-57627310D02*
X55715436Y-58032889D01*
X56937163Y-53983521D02*
X56294664Y-57627310D01*
X56937163Y-53983521D02*
X56531583Y-53404293D01*
D12*
X61939082Y-54611638D02*
X58137724Y-53941356D01*
X62286378Y-52642022D02*
X58485020Y-51971740D01*
X62286378Y-52642022D02*
X61939082Y-54611638D01*
X62701728Y-48501238D02*
X60732112Y-48153942D01*
X62701728Y-48501238D02*
X62866693Y-47565671D01*
X63517874Y-43872642D02*
X61548259Y-43525345D01*
X63517874Y-43872642D02*
X63352908Y-44808209D01*
D11*
X47536890Y-54458395D02*
G75*
G02*
X47232705Y-54023974I65118J369303D01*
G01*
X47918616Y-50133984D02*
G75*
G02*
X48353037Y-49829799I369303J-65118D01*
G01*
X49801756Y-54857752D02*
G75*
G02*
X51124423Y-56715657I-253217J-1580033D01*
G01*
X51775244Y-50433226D02*
G75*
G02*
X52079429Y-50867647I-65118J-369303D01*
G01*
X53478679Y-52865984D02*
G75*
G02*
X52079429Y-50867647I299544J1698794D01*
G01*
%TO.C,S_MAT_L24*%
X99945601Y-84141046D02*
X100967936Y-80325639D01*
X100210766Y-84600325D02*
X102432207Y-85195559D01*
X101427215Y-80060474D02*
X104783807Y-80959870D01*
X103941467Y-87774044D02*
X103587914Y-87161671D01*
D12*
X104324562Y-75815725D02*
X104570440Y-74898096D01*
X104324562Y-75815725D02*
X105966636Y-76255718D01*
X105541011Y-71275874D02*
X105308074Y-72145207D01*
X105541011Y-71275874D02*
X107183085Y-71715866D01*
D11*
X106268732Y-83531833D02*
X109263102Y-84334173D01*
X108046652Y-88874025D02*
X103941467Y-87774044D01*
X108659025Y-88520471D02*
X108046652Y-88874025D01*
X109616655Y-84946546D02*
X108659025Y-88520471D01*
X109616655Y-84946546D02*
X109263102Y-84334173D01*
D12*
X114544796Y-86008218D02*
X110816323Y-85009177D01*
X115062435Y-84076367D02*
X111333961Y-83077325D01*
X115062435Y-84076367D02*
X114544796Y-86008218D01*
X115837097Y-79987540D02*
X113905245Y-79469902D01*
X115837097Y-79987540D02*
X116082975Y-79069910D01*
X117053546Y-75447688D02*
X115121695Y-74930050D01*
X117053546Y-75447688D02*
X116807668Y-76365318D01*
D11*
X100210766Y-84600325D02*
G75*
G02*
X99945601Y-84141046I97057J362222D01*
G01*
X100967936Y-80325639D02*
G75*
G02*
X101427215Y-80060474I362222J-97057D01*
G01*
X102432207Y-85195559D02*
G75*
G02*
X103587914Y-87161671I-389962J-1551951D01*
G01*
X104783807Y-80959870D02*
G75*
G02*
X105048971Y-81419151I-97057J-362222D01*
G01*
X106268732Y-83531833D02*
G75*
G02*
X105048973Y-81419151I446462J1666221D01*
G01*
%TO.C,S_MAT_R23*%
D12*
X201808076Y-69349041D02*
X202041013Y-70218374D01*
X201808076Y-69349041D02*
X203450150Y-68909048D01*
D11*
X202637724Y-79013626D02*
X205994317Y-78114230D01*
D12*
X203024526Y-73888892D02*
X202778648Y-72971263D01*
X203024526Y-73888892D02*
X204666600Y-73448900D01*
D11*
X203394895Y-83288312D02*
X202372559Y-79472905D01*
X203854174Y-83553477D02*
X206075615Y-82958244D01*
X208566281Y-79599154D02*
X211560651Y-78796815D01*
X208671916Y-84436647D02*
X208059543Y-84083094D01*
X212173023Y-79150368D02*
X211560651Y-78796815D01*
X212173023Y-79150368D02*
X213130654Y-82724294D01*
X212777100Y-83336666D02*
X208671916Y-84436647D01*
X213130654Y-82724294D02*
X212777100Y-83336666D01*
D12*
X213864131Y-67205671D02*
X211932280Y-67723309D01*
X213864131Y-67205671D02*
X214110009Y-68123300D01*
X215080581Y-71745522D02*
X213148729Y-72263160D01*
X215080581Y-71745522D02*
X214834703Y-70827892D01*
X216454117Y-75673881D02*
X212725643Y-76672923D01*
X216454117Y-75673881D02*
X216971755Y-77605733D01*
X216971755Y-77605733D02*
X213243281Y-78604773D01*
D11*
X202372559Y-79472905D02*
G75*
G02*
X202637724Y-79013625I362223J97057D01*
G01*
X203854174Y-83553477D02*
G75*
G02*
X203394895Y-83288312I-97059J362219D01*
G01*
X205994317Y-78114230D02*
G75*
G02*
X206453596Y-78379395I97057J-362222D01*
G01*
X206075615Y-82958244D02*
G75*
G02*
X208059542Y-84083094I438258J-1539010D01*
G01*
X208566281Y-79599154D02*
G75*
G02*
X206453596Y-78379395I-446462J1666223D01*
G01*
%TO.C,S_MAT_R14*%
D12*
X180022584Y-57548636D02*
X180255521Y-58417969D01*
X180022584Y-57548636D02*
X181664658Y-57108643D01*
D11*
X180852232Y-67213221D02*
X184208825Y-66313825D01*
D12*
X181239034Y-62088487D02*
X180993156Y-61170858D01*
X181239034Y-62088487D02*
X182881108Y-61648495D01*
D11*
X181609403Y-71487907D02*
X180587067Y-67672500D01*
X182068682Y-71753072D02*
X184290123Y-71157839D01*
X186780789Y-67798749D02*
X189775159Y-66996410D01*
X186886424Y-72636242D02*
X186274051Y-72282689D01*
X190387531Y-67349963D02*
X189775159Y-66996410D01*
X190387531Y-67349963D02*
X191345162Y-70923889D01*
X190991608Y-71536261D02*
X186886424Y-72636242D01*
X191345162Y-70923889D02*
X190991608Y-71536261D01*
D12*
X192078639Y-55405266D02*
X190146788Y-55922904D01*
X192078639Y-55405266D02*
X192324517Y-56322895D01*
X193295089Y-59945117D02*
X191363237Y-60462755D01*
X193295089Y-59945117D02*
X193049211Y-59027487D01*
X194668625Y-63873476D02*
X190940151Y-64872518D01*
X194668625Y-63873476D02*
X195186263Y-65805328D01*
X195186263Y-65805328D02*
X191457789Y-66804368D01*
D11*
X180587067Y-67672500D02*
G75*
G02*
X180852232Y-67213220I362223J97057D01*
G01*
X182068682Y-71753072D02*
G75*
G02*
X181609403Y-71487907I-97059J362219D01*
G01*
X184208825Y-66313825D02*
G75*
G02*
X184668104Y-66578990I97057J-362222D01*
G01*
X184290123Y-71157839D02*
G75*
G02*
X186274050Y-72282689I438258J-1539010D01*
G01*
X186780789Y-67798749D02*
G75*
G02*
X184668104Y-66578990I-446462J1666223D01*
G01*
%TO.C,S_MAT_L10*%
X21625000Y-65575001D02*
X21625000Y-61625001D01*
X22000000Y-61250001D02*
X25475000Y-61250001D01*
X22000000Y-65950001D02*
X24299805Y-65950001D01*
D12*
X23700000Y-51700000D02*
X23700000Y-52600000D01*
X23700000Y-51700000D02*
X25400000Y-51700000D01*
X23700000Y-56400000D02*
X23700000Y-55450000D01*
X23700000Y-56400000D02*
X25400000Y-56400000D01*
D11*
X26425000Y-68050001D02*
X25925000Y-67550001D01*
X27575000Y-63350001D02*
X30675000Y-63350001D01*
X30675000Y-68050001D02*
X26425000Y-68050001D01*
X31175000Y-63850001D02*
X30675000Y-63350001D01*
X31175000Y-63850001D02*
X31175000Y-67550001D01*
X31175000Y-67550001D02*
X30675000Y-68050001D01*
D12*
X35900000Y-52750000D02*
X33900000Y-52750000D01*
X35900000Y-52750000D02*
X35900000Y-53700000D01*
X35900000Y-57450000D02*
X33900000Y-57450000D01*
X35900000Y-57450000D02*
X35900000Y-56500000D01*
X36210000Y-61600001D02*
X32350000Y-61600001D01*
X36210000Y-61600001D02*
X36210000Y-63600001D01*
X36210000Y-63600001D02*
X32350000Y-63600001D01*
D11*
X21625000Y-61625001D02*
G75*
G02*
X22000000Y-61250001I375000J0D01*
G01*
X22000000Y-65950001D02*
G75*
G02*
X21625000Y-65575001I0J375000D01*
G01*
X24299805Y-65950001D02*
G75*
G02*
X25924999Y-67550001I25000J-1599999D01*
G01*
X25475000Y-61250001D02*
G75*
G02*
X25850000Y-61625001I0J-375000D01*
G01*
X27575000Y-63350001D02*
G75*
G02*
X25850000Y-61625001I1J1725001D01*
G01*
%TO.C,S_MAT_L32*%
X61863093Y-87139429D02*
X62885428Y-83324022D01*
X62128258Y-87598708D02*
X64349699Y-88193942D01*
X63344707Y-83058857D02*
X66701299Y-83958253D01*
X65858959Y-90772427D02*
X65505406Y-90160054D01*
D12*
X66242054Y-78814108D02*
X66487932Y-77896479D01*
X66242054Y-78814108D02*
X67884128Y-79254101D01*
X67458503Y-74274257D02*
X67225566Y-75143590D01*
X67458503Y-74274257D02*
X69100577Y-74714249D01*
D11*
X68186224Y-86530216D02*
X71180594Y-87332556D01*
X69964144Y-91872408D02*
X65858959Y-90772427D01*
X70576517Y-91518854D02*
X69964144Y-91872408D01*
X71534147Y-87944929D02*
X70576517Y-91518854D01*
X71534147Y-87944929D02*
X71180594Y-87332556D01*
D12*
X76462288Y-89006601D02*
X72733815Y-88007560D01*
X76979927Y-87074750D02*
X73251453Y-86075708D01*
X76979927Y-87074750D02*
X76462288Y-89006601D01*
X77754589Y-82985923D02*
X75822737Y-82468285D01*
X77754589Y-82985923D02*
X78000467Y-82068293D01*
X78971038Y-78446071D02*
X77039187Y-77928433D01*
X78971038Y-78446071D02*
X78725160Y-79363701D01*
D11*
X62128258Y-87598708D02*
G75*
G02*
X61863093Y-87139429I97057J362222D01*
G01*
X62885428Y-83324022D02*
G75*
G02*
X63344707Y-83058857I362222J-97057D01*
G01*
X64349699Y-88193942D02*
G75*
G02*
X65505406Y-90160054I-389962J-1551951D01*
G01*
X66701299Y-83958253D02*
G75*
G02*
X66966463Y-84417534I-97057J-362222D01*
G01*
X68186224Y-86530216D02*
G75*
G02*
X66966465Y-84417534I446462J1666221D01*
G01*
%TO.C,S_MAT_R11*%
X238093892Y-52186035D02*
X241516099Y-51582607D01*
D12*
X238109725Y-42485918D02*
X238266009Y-43372245D01*
X238109725Y-42485918D02*
X239783898Y-42190716D01*
D11*
X238475618Y-56510446D02*
X237789708Y-52620456D01*
X238910039Y-56814631D02*
X241174905Y-56415274D01*
D12*
X238925872Y-47114514D02*
X238760906Y-46178947D01*
X238925872Y-47114514D02*
X240600045Y-46819312D01*
D11*
X243632474Y-58114334D02*
X243053246Y-57708754D01*
X243948857Y-53286042D02*
X247001761Y-52747733D01*
X247580989Y-53153313D02*
X247001761Y-52747733D01*
X247580989Y-53153313D02*
X248223487Y-56797101D01*
X247817907Y-57376329D02*
X243632474Y-58114334D01*
X248223487Y-56797101D02*
X247817907Y-57376329D01*
D12*
X250306710Y-41401458D02*
X248337095Y-41748754D01*
X250306710Y-41401458D02*
X250471676Y-42337024D01*
X251122857Y-46030055D02*
X249153241Y-46377351D01*
X251122857Y-46030055D02*
X250957891Y-45094487D01*
X252148787Y-50063177D02*
X248347428Y-50733459D01*
X252148787Y-50063177D02*
X252496084Y-52032792D01*
X252496084Y-52032792D02*
X248694726Y-52703074D01*
D11*
X237789708Y-52620456D02*
G75*
G02*
X238093892Y-52186035I369299J65121D01*
G01*
X238910039Y-56814631D02*
G75*
G02*
X238475618Y-56510446I-65118J369303D01*
G01*
X241174905Y-56415274D02*
G75*
G02*
X243053246Y-57708754I302457J-1571350D01*
G01*
X241516099Y-51582607D02*
G75*
G02*
X241950520Y-51886792I65118J-369303D01*
G01*
X243948857Y-53286042D02*
G75*
G02*
X241950520Y-51886792I-299543J1698794D01*
G01*
%TO.C,S_MAT_R22*%
D12*
X218070338Y-60579916D02*
X218303275Y-61449249D01*
X218070338Y-60579916D02*
X219712412Y-60139923D01*
D11*
X218899986Y-70244501D02*
X222256579Y-69345105D01*
D12*
X219286788Y-65119767D02*
X219040910Y-64202138D01*
X219286788Y-65119767D02*
X220928862Y-64679775D01*
D11*
X219657157Y-74519187D02*
X218634821Y-70703780D01*
X220116436Y-74784352D02*
X222337877Y-74189119D01*
X224828543Y-70830029D02*
X227822913Y-70027690D01*
X224934178Y-75667522D02*
X224321805Y-75313969D01*
X228435285Y-70381243D02*
X227822913Y-70027690D01*
X228435285Y-70381243D02*
X229392916Y-73955169D01*
X229039362Y-74567541D02*
X224934178Y-75667522D01*
X229392916Y-73955169D02*
X229039362Y-74567541D01*
D12*
X230126393Y-58436546D02*
X228194542Y-58954184D01*
X230126393Y-58436546D02*
X230372271Y-59354175D01*
X231342843Y-62976397D02*
X229410991Y-63494035D01*
X231342843Y-62976397D02*
X231096965Y-62058767D01*
X232716379Y-66904756D02*
X228987905Y-67903798D01*
X232716379Y-66904756D02*
X233234017Y-68836608D01*
X233234017Y-68836608D02*
X229505543Y-69835648D01*
D11*
X218634821Y-70703780D02*
G75*
G02*
X218899986Y-70244500I362223J97057D01*
G01*
X220116436Y-74784352D02*
G75*
G02*
X219657157Y-74519187I-97059J362219D01*
G01*
X222256579Y-69345105D02*
G75*
G02*
X222715858Y-69610270I97057J-362222D01*
G01*
X222337877Y-74189119D02*
G75*
G02*
X224321804Y-75313969I438258J-1539010D01*
G01*
X224828543Y-70830029D02*
G75*
G02*
X222715858Y-69610270I-446462J1666223D01*
G01*
%TO.C,S_MAT_L31*%
X41336736Y-87476670D02*
X42022647Y-83586680D01*
X41640921Y-87911091D02*
X43905787Y-88310448D01*
X42457068Y-83282495D02*
X45879275Y-83885922D01*
D12*
X44973435Y-78801378D02*
X45138400Y-77865811D01*
X44973435Y-78801378D02*
X46647608Y-79096580D01*
D11*
X45634034Y-90747581D02*
X45228455Y-90168353D01*
D12*
X45789581Y-74172782D02*
X45633298Y-75059109D01*
X45789581Y-74172782D02*
X47463754Y-74467984D01*
D11*
X47582710Y-86318680D02*
X50635614Y-86856989D01*
X49819467Y-91485585D02*
X45634034Y-90747581D01*
X50398695Y-91080006D02*
X49819467Y-91485585D01*
X51041194Y-87436217D02*
X50398695Y-91080006D01*
X51041194Y-87436217D02*
X50635614Y-86856989D01*
D12*
X56043113Y-88064334D02*
X52241755Y-87394052D01*
X56390409Y-86094718D02*
X52589051Y-85424436D01*
X56390409Y-86094718D02*
X56043113Y-88064334D01*
X56805759Y-81953934D02*
X54836143Y-81606638D01*
X56805759Y-81953934D02*
X56970724Y-81018367D01*
X57621905Y-77325338D02*
X55652290Y-76978041D01*
X57621905Y-77325338D02*
X57456939Y-78260905D01*
D11*
X41640921Y-87911091D02*
G75*
G02*
X41336736Y-87476670I65118J369303D01*
G01*
X42022647Y-83586680D02*
G75*
G02*
X42457068Y-83282495I369303J-65118D01*
G01*
X43905787Y-88310448D02*
G75*
G02*
X45228454Y-90168353I-253217J-1580033D01*
G01*
X45879275Y-83885922D02*
G75*
G02*
X46183460Y-84320343I-65118J-369303D01*
G01*
X47582710Y-86318680D02*
G75*
G02*
X46183460Y-84320343I299544J1698794D01*
G01*
%TO.C,S_MAT_L23*%
X82597065Y-79479957D02*
X83619400Y-75664550D01*
X82862230Y-79939236D02*
X85083671Y-80534470D01*
X84078679Y-75399385D02*
X87435271Y-76298781D01*
X86592931Y-83112955D02*
X86239378Y-82500582D01*
D12*
X86976026Y-71154636D02*
X87221904Y-70237007D01*
X86976026Y-71154636D02*
X88618100Y-71594629D01*
X88192475Y-66614785D02*
X87959538Y-67484118D01*
X88192475Y-66614785D02*
X89834549Y-67054777D01*
D11*
X88920196Y-78870744D02*
X91914566Y-79673084D01*
X90698116Y-84212936D02*
X86592931Y-83112955D01*
X91310489Y-83859382D02*
X90698116Y-84212936D01*
X92268119Y-80285457D02*
X91310489Y-83859382D01*
X92268119Y-80285457D02*
X91914566Y-79673084D01*
D12*
X97196260Y-81347129D02*
X93467787Y-80348088D01*
X97713899Y-79415278D02*
X93985425Y-78416236D01*
X97713899Y-79415278D02*
X97196260Y-81347129D01*
X98488561Y-75326451D02*
X96556709Y-74808813D01*
X98488561Y-75326451D02*
X98734439Y-74408821D01*
X99705010Y-70786599D02*
X97773159Y-70268961D01*
X99705010Y-70786599D02*
X99459132Y-71704229D01*
D11*
X82862230Y-79939236D02*
G75*
G02*
X82597065Y-79479957I97057J362222D01*
G01*
X83619400Y-75664550D02*
G75*
G02*
X84078679Y-75399385I362222J-97057D01*
G01*
X85083671Y-80534470D02*
G75*
G02*
X86239378Y-82500582I-389962J-1551951D01*
G01*
X87435271Y-76298781D02*
G75*
G02*
X87700435Y-76758062I-97057J-362222D01*
G01*
X88920196Y-78870744D02*
G75*
G02*
X87700437Y-76758062I446462J1666221D01*
G01*
%TO.C,S_MAT_L21*%
X44232705Y-70723974D02*
X44918616Y-66833984D01*
X44536890Y-71158395D02*
X46801756Y-71557752D01*
X45353037Y-66529799D02*
X48775244Y-67133226D01*
D12*
X47869404Y-62048682D02*
X48034369Y-61113115D01*
X47869404Y-62048682D02*
X49543577Y-62343884D01*
D11*
X48530003Y-73994885D02*
X48124424Y-73415657D01*
D12*
X48685550Y-57420086D02*
X48529267Y-58306413D01*
X48685550Y-57420086D02*
X50359723Y-57715288D01*
D11*
X50478679Y-69565984D02*
X53531583Y-70104293D01*
X52715436Y-74732889D02*
X48530003Y-73994885D01*
X53294664Y-74327310D02*
X52715436Y-74732889D01*
X53937163Y-70683521D02*
X53294664Y-74327310D01*
X53937163Y-70683521D02*
X53531583Y-70104293D01*
D12*
X58939082Y-71311638D02*
X55137724Y-70641356D01*
X59286378Y-69342022D02*
X55485020Y-68671740D01*
X59286378Y-69342022D02*
X58939082Y-71311638D01*
X59701728Y-65201238D02*
X57732112Y-64853942D01*
X59701728Y-65201238D02*
X59866693Y-64265671D01*
X60517874Y-60572642D02*
X58548259Y-60225345D01*
X60517874Y-60572642D02*
X60352908Y-61508209D01*
D11*
X44536890Y-71158395D02*
G75*
G02*
X44232705Y-70723974I65118J369303D01*
G01*
X44918616Y-66833984D02*
G75*
G02*
X45353037Y-66529799I369303J-65118D01*
G01*
X46801756Y-71557752D02*
G75*
G02*
X48124423Y-73415657I-253217J-1580033D01*
G01*
X48775244Y-67133226D02*
G75*
G02*
X49079429Y-67567647I-65118J-369303D01*
G01*
X50478679Y-69565984D02*
G75*
G02*
X49079429Y-67567647I299544J1698794D01*
G01*
%TO.C,R_USB_2*%
D12*
X154090000Y-41272936D02*
X154090000Y-42727064D01*
X155910000Y-41272936D02*
X155910000Y-42727064D01*
%TO.C,F_USB_2*%
X167897936Y-42490000D02*
X169102064Y-42490000D01*
X167897936Y-44310000D02*
X169102064Y-44310000D01*
%TO.C,R_USB_1*%
X151590000Y-41272936D02*
X151590000Y-42727064D01*
X153410000Y-41272936D02*
X153410000Y-42727064D01*
%TO.C,FB_USB_1*%
X167664758Y-37590000D02*
X169335242Y-37590000D01*
X167664758Y-39410000D02*
X169335242Y-39410000D01*
%TD*%
M02*
