%TF.GenerationSoftware,KiCad,Pcbnew,10.0.3-10.0.3~ubuntu26.04.1*%
%TF.CreationDate,2026-05-22T15:11:24-05:00*%
%TF.ProjectId,matrix_plate,6d617472-6978-45f7-906c-6174652e6b69,rev?*%
%TF.SameCoordinates,Original*%
%TF.FileFunction,Soldermask,Top*%
%TF.FilePolarity,Negative*%
%FSLAX46Y46*%
G04 Gerber Fmt 4.6, Leading zero omitted, Abs format (unit mm)*
G04 Created by KiCad (PCBNEW 10.0.3-10.0.3~ubuntu26.04.1) date 2026-05-22 15:11:24*
%MOMM*%
%LPD*%
G01*
G04 APERTURE LIST*
G04 Aperture macros list*
%AMRoundRect*
0 Rectangle with rounded corners*
0 $1 Rounding radius*
0 $2 $3 $4 $5 $6 $7 $8 $9 X,Y pos of 4 corners*
0 Add a 4 corners polygon primitive as box body*
4,1,4,$2,$3,$4,$5,$6,$7,$8,$9,$2,$3,0*
0 Add four circle primitives for the rounded corners*
1,1,$1+$1,$2,$3*
1,1,$1+$1,$4,$5*
1,1,$1+$1,$6,$7*
1,1,$1+$1,$8,$9*
0 Add four rect primitives between the rounded corners*
20,1,$1+$1,$2,$3,$4,$5,0*
20,1,$1+$1,$4,$5,$6,$7,0*
20,1,$1+$1,$6,$7,$8,$9,0*
20,1,$1+$1,$8,$9,$2,$3,0*%
%AMRotRect*
0 Rectangle, with rotation*
0 The origin of the aperture is its center*
0 $1 length*
0 $2 width*
0 $3 Rotation angle, in degrees counterclockwise*
0 Add horizontal line*
21,1,$1,$2,0,0,$3*%
G04 Aperture macros list end*
%ADD10RoundRect,0.250000X0.098387X0.735490X-0.626660X0.397395X-0.098387X-0.735490X0.626660X-0.397395X0*%
%ADD11RotRect,1.000000X0.900000X205.000000*%
%ADD12RotRect,0.400000X0.800000X205.000000*%
%ADD13C,1.701800*%
%ADD14C,5.250000*%
%ADD15RoundRect,0.250000X0.625000X-0.400000X0.625000X0.400000X-0.625000X0.400000X-0.625000X-0.400000X0*%
%ADD16R,1.250000X0.280000*%
%ADD17R,2.000000X1.800000*%
%ADD18RoundRect,0.250000X-0.400000X-0.625000X0.400000X-0.625000X0.400000X0.625000X-0.400000X0.625000X0*%
%ADD19C,0.650000*%
%ADD20RoundRect,0.150000X0.150000X0.575000X-0.150000X0.575000X-0.150000X-0.575000X0.150000X-0.575000X0*%
%ADD21RoundRect,0.075000X0.075000X0.650000X-0.075000X0.650000X-0.075000X-0.650000X0.075000X-0.650000X0*%
%ADD22O,1.000000X2.100000*%
%ADD23O,1.000000X1.600000*%
%ADD24C,0.500000*%
%ADD25C,2.000000*%
G04 APERTURE END LIST*
D10*
%TO.C,R2*%
X179095223Y-84155058D03*
X181904777Y-82844942D03*
%TD*%
%TO.C,R4*%
X180404777Y-80844942D03*
X177595223Y-82155058D03*
%TD*%
%TO.C,R3*%
X178904777Y-78844942D03*
X176095223Y-80155058D03*
%TD*%
D11*
%TO.C,D2*%
X181859462Y-88866073D03*
X179140538Y-90133927D03*
D12*
X179947299Y-89261209D03*
X180672345Y-88923114D03*
%TD*%
D13*
%TO.C,S_MAT_L22*%
X69509893Y-65618421D03*
D14*
X74822485Y-67041925D03*
D13*
X80135077Y-68465431D03*
%TD*%
%TO.C,S_MAT_R04*%
X177410569Y-49036079D03*
D14*
X182723161Y-47612573D03*
D13*
X188035753Y-46189069D03*
%TD*%
%TO.C,S_MAT_R33*%
X207974816Y-93647010D03*
D14*
X213287408Y-92223504D03*
D13*
X218600000Y-90800000D03*
%TD*%
%TO.C,S_MAT_R34*%
X190102996Y-101223021D03*
D14*
X195087689Y-98898620D03*
D13*
X200072382Y-96574221D03*
%TD*%
%TO.C,S_MAT_L20*%
X23400000Y-76826657D03*
D14*
X28900000Y-76826656D03*
D13*
X34400000Y-76826657D03*
%TD*%
D15*
%TO.C,R_MAT_3*%
X38500000Y-32550000D03*
X38500000Y-29450000D03*
%TD*%
D16*
%TO.C,J_VIK_IN_SW_2*%
X161268000Y-102200000D03*
X161268000Y-102700000D03*
X161268000Y-103200000D03*
X161268000Y-103700000D03*
X161268000Y-104200000D03*
X161268000Y-104700000D03*
X161268000Y-105200000D03*
X161268000Y-105700000D03*
X161268000Y-106200000D03*
X161268000Y-106700000D03*
X161268000Y-107200000D03*
X161268000Y-107700000D03*
D17*
X158544000Y-109500000D03*
X158544000Y-100400000D03*
%TD*%
D13*
%TO.C,S_MAT_R24*%
X186212923Y-81880338D03*
D14*
X191525515Y-80456832D03*
D13*
X196838107Y-79033328D03*
%TD*%
%TO.C,S_MAT_L12*%
X73920255Y-49199744D03*
D14*
X79232847Y-50623248D03*
D13*
X84545439Y-52046754D03*
%TD*%
%TO.C,S_MAT_L04*%
X111974816Y-46152990D03*
D14*
X117287408Y-47576494D03*
D13*
X122600000Y-49000000D03*
%TD*%
%TO.C,S_MAT_R00*%
X265600000Y-42871320D03*
D14*
X271100000Y-42871319D03*
D13*
X276600000Y-42871320D03*
%TD*%
D15*
%TO.C,R_MAT_15*%
X255000000Y-35050000D03*
X255000000Y-31950000D03*
%TD*%
D18*
%TO.C,R_MAT_14*%
X46450000Y-24000000D03*
X49550000Y-24000000D03*
%TD*%
%TO.C,R_MAT_4*%
X46450000Y-21500000D03*
X49550000Y-21500000D03*
%TD*%
D13*
%TO.C,S_MAT_R03*%
X194816150Y-44403678D03*
D14*
X200128742Y-42980172D03*
D13*
X205441334Y-41556668D03*
%TD*%
D19*
%TO.C,J_USB_1*%
X163890000Y-41827700D03*
X158110000Y-41827700D03*
D20*
X164250000Y-43272700D03*
X163450000Y-43272700D03*
D21*
X162250000Y-43272700D03*
X161250000Y-43272700D03*
X160750000Y-43272700D03*
X159750000Y-43272700D03*
D20*
X158550000Y-43272700D03*
X157750000Y-43272700D03*
X157750000Y-43272700D03*
X158550000Y-43272700D03*
D21*
X159250000Y-43272700D03*
X160250000Y-43272700D03*
X161750000Y-43272700D03*
X162750000Y-43272700D03*
D20*
X163450000Y-43272700D03*
X164250000Y-43272700D03*
D22*
X165320000Y-42357700D03*
D23*
X165320000Y-38177700D03*
D22*
X156680000Y-42357700D03*
D23*
X156680000Y-38177700D03*
%TD*%
D13*
%TO.C,S_MAT_R21*%
X242188320Y-67326062D03*
D14*
X247604763Y-66370996D03*
D13*
X253021206Y-65415932D03*
%TD*%
%TO.C,S_MAT_L35*%
X132736510Y-117160896D03*
D14*
X136625598Y-121049982D03*
D13*
X140514684Y-124939070D03*
%TD*%
%TO.C,S_MAT_L33*%
X81412321Y-90782385D03*
D14*
X86724913Y-92205889D03*
D13*
X92037505Y-93629395D03*
%TD*%
%TO.C,S_MAT_R35*%
X159505100Y-124947735D03*
D14*
X163394186Y-121058647D03*
D13*
X167283274Y-117169561D03*
%TD*%
%TO.C,S_MAT_R25*%
X173734037Y-111713904D03*
D14*
X178239372Y-108559233D03*
D13*
X182744709Y-105404564D03*
%TD*%
%TO.C,S_MAT_L15*%
X127006131Y-91530988D03*
D14*
X131511468Y-94685657D03*
D13*
X136016803Y-97840328D03*
%TD*%
%TO.C,S_MAT_R32*%
X224295666Y-84895764D03*
D14*
X229608258Y-83472258D03*
D13*
X234920850Y-82048754D03*
%TD*%
%TO.C,S_MAT_L13*%
X90187724Y-57973294D03*
D14*
X95500316Y-59396798D03*
D13*
X100812908Y-60820304D03*
%TD*%
D18*
%TO.C,R_MAT_24*%
X46450000Y-26500000D03*
X49550000Y-26500000D03*
%TD*%
D13*
%TO.C,S_MAT_L34*%
X99941652Y-96585678D03*
D14*
X104926345Y-98910077D03*
D13*
X109911038Y-101234478D03*
%TD*%
%TO.C,S_MAT_L01*%
X52900000Y-31900000D03*
D14*
X58316443Y-32855064D03*
D13*
X63732886Y-33810130D03*
%TD*%
%TO.C,S_MAT_R20*%
X265600000Y-76800001D03*
D14*
X271100000Y-76800000D03*
D13*
X276600000Y-76800001D03*
%TD*%
%TO.C,S_MAT_R13*%
X199198496Y-60760288D03*
D14*
X204511088Y-59336782D03*
D13*
X209823680Y-57913278D03*
%TD*%
D24*
%TO.C,REF\u002A\u002A*%
X148750000Y-132200000D03*
X151250000Y-132200000D03*
X148750000Y-131350000D03*
X151250000Y-131350000D03*
X148750000Y-130500000D03*
X151250000Y-130500000D03*
X148750000Y-129650000D03*
X151250000Y-129650000D03*
X148750000Y-128800000D03*
X151250000Y-128800000D03*
%TD*%
D13*
%TO.C,S_MAT_R01*%
X236275052Y-33849587D03*
D14*
X241691495Y-32894521D03*
D13*
X247107938Y-31939457D03*
%TD*%
%TO.C,S_MAT_L00*%
X23400000Y-42800001D03*
D14*
X28900000Y-42800000D03*
D13*
X34400000Y-42800001D03*
%TD*%
%TO.C,S_MAT_L14*%
X107574816Y-62618651D03*
D14*
X112887408Y-64042155D03*
D13*
X118200000Y-65465661D03*
%TD*%
%TO.C,S_MAT_L02*%
X78315153Y-32762631D03*
D14*
X83627745Y-34186135D03*
D13*
X88940337Y-35609641D03*
%TD*%
D16*
%TO.C,J_VIK_IN_SW_1*%
X138732000Y-107700000D03*
X138732000Y-107200000D03*
X138732000Y-106700000D03*
X138732000Y-106200000D03*
X138732000Y-105700000D03*
X138732000Y-105200000D03*
X138732000Y-104700000D03*
X138732000Y-104200000D03*
X138732000Y-103700000D03*
X138732000Y-103200000D03*
X138732000Y-102700000D03*
X138732000Y-102200000D03*
D17*
X141456000Y-100400000D03*
X141456000Y-109500000D03*
%TD*%
D24*
%TO.C,REF\u002A\u002A*%
X148750000Y-112700000D03*
X151250000Y-112700000D03*
X148750000Y-111850000D03*
X151250000Y-111850000D03*
X148750000Y-111000000D03*
X151250000Y-111000000D03*
X148750000Y-110150000D03*
X151250000Y-110150000D03*
X148750000Y-109300000D03*
X151250000Y-109300000D03*
%TD*%
D15*
%TO.C,R_MAT_23*%
X43500000Y-32550000D03*
X43500000Y-29450000D03*
%TD*%
D13*
%TO.C,S_MAT_R12*%
X215458323Y-52058058D03*
D14*
X220770915Y-50634552D03*
D13*
X226083507Y-49211048D03*
%TD*%
%TO.C,S_MAT_R10*%
X265615196Y-59849969D03*
D14*
X271115196Y-59849968D03*
D13*
X276615196Y-59849969D03*
%TD*%
D15*
%TO.C,R_MAT_5*%
X252500000Y-35050000D03*
X252500000Y-31950000D03*
%TD*%
%TO.C,R_MAT_25*%
X257500000Y-35050000D03*
X257500000Y-31950000D03*
%TD*%
D13*
%TO.C,S_MAT_R31*%
X245117047Y-84041045D03*
D14*
X250533490Y-83085979D03*
D13*
X255949933Y-82130915D03*
%TD*%
%TO.C,S_MAT_R02*%
X211080846Y-35615722D03*
D14*
X216393438Y-34192216D03*
D13*
X221706030Y-32768712D03*
%TD*%
%TO.C,S_MAT_L25*%
X117264382Y-105367890D03*
D14*
X121769719Y-108522559D03*
D13*
X126275054Y-111677230D03*
%TD*%
D15*
%TO.C,R_MAT_32*%
X46000000Y-32550000D03*
X46000000Y-29450000D03*
%TD*%
D13*
%TO.C,S_MAT_L03*%
X94568060Y-41511423D03*
D14*
X99880652Y-42934927D03*
D13*
X105193244Y-44358433D03*
%TD*%
%TO.C,S_MAT_R15*%
X164005207Y-97837724D03*
D14*
X168510542Y-94683053D03*
D13*
X173015879Y-91528384D03*
%TD*%
%TO.C,S_MAT_L11*%
X49983557Y-48644935D03*
D14*
X55400000Y-49599999D03*
D13*
X60816443Y-50555065D03*
%TD*%
%TO.C,S_MAT_L24*%
X103154799Y-79022228D03*
D14*
X108467391Y-80445732D03*
D13*
X113779983Y-81869238D03*
%TD*%
D15*
%TO.C,R_MAT_6*%
X251000000Y-24050000D03*
X251000000Y-20950000D03*
%TD*%
%TO.C,R_MAT_16*%
X253500000Y-24050000D03*
X253500000Y-20950000D03*
%TD*%
D25*
%TO.C,SW_RST_1*%
X121108999Y-78752981D03*
X127000000Y-81500000D03*
X119207217Y-82831366D03*
X125098218Y-85578385D03*
%TD*%
D13*
%TO.C,S_MAT_R23*%
X203614733Y-77250687D03*
D14*
X208927325Y-75827181D03*
D13*
X214239917Y-74403677D03*
%TD*%
D24*
%TO.C,REF\u002A\u002A*%
X148750000Y-94700000D03*
X151250000Y-94700000D03*
X148750000Y-93850000D03*
X151250000Y-93850000D03*
X148750000Y-93000000D03*
X151250000Y-93000000D03*
X148750000Y-92150000D03*
X151250000Y-92150000D03*
X148750000Y-91300000D03*
X151250000Y-91300000D03*
%TD*%
D13*
%TO.C,S_MAT_R14*%
X181829241Y-65450282D03*
D14*
X187141833Y-64026776D03*
D13*
X192454425Y-62603272D03*
%TD*%
D15*
%TO.C,R_MAT_13*%
X41000000Y-32550000D03*
X41000000Y-29450000D03*
%TD*%
D13*
%TO.C,S_MAT_L10*%
X23400000Y-59800001D03*
D14*
X28900000Y-59800000D03*
D13*
X34400000Y-59800001D03*
%TD*%
%TO.C,S_MAT_L32*%
X65072291Y-82020611D03*
D14*
X70384883Y-83444115D03*
D13*
X75697475Y-84867621D03*
%TD*%
%TO.C,S_MAT_R11*%
X239220833Y-50514956D03*
D14*
X244637276Y-49559890D03*
D13*
X250053719Y-48604826D03*
%TD*%
%TO.C,S_MAT_R22*%
X219876995Y-68481562D03*
D14*
X225189587Y-67058056D03*
D13*
X230502179Y-65634552D03*
%TD*%
D15*
%TO.C,R_MAT_33*%
X260000000Y-35050000D03*
X260000000Y-31950000D03*
%TD*%
%TO.C,R_MAT_26*%
X256000000Y-24050000D03*
X256000000Y-20950000D03*
%TD*%
D13*
%TO.C,S_MAT_L31*%
X44087588Y-82097631D03*
D14*
X49504031Y-83052695D03*
D13*
X54920474Y-84007761D03*
%TD*%
%TO.C,S_MAT_L23*%
X85806263Y-74361139D03*
D14*
X91118855Y-75784643D03*
D13*
X96431447Y-77208149D03*
%TD*%
%TO.C,S_MAT_L21*%
X46983557Y-65344935D03*
D14*
X52400000Y-66299999D03*
D13*
X57816443Y-67255065D03*
%TD*%
M02*
