%TF.GenerationSoftware,KiCad,Pcbnew,10.0.3-10.0.3~ubuntu26.04.1*%
%TF.CreationDate,2026-05-22T15:11:15-05:00*%
%TF.ProjectId,matrix_plate,6d617472-6978-45f7-906c-6174652e6b69,rev?*%
%TF.SameCoordinates,Original*%
%TF.FileFunction,Paste,Bot*%
%TF.FilePolarity,Positive*%
%FSLAX46Y46*%
G04 Gerber Fmt 4.6, Leading zero omitted, Abs format (unit mm)*
G04 Created by KiCad (PCBNEW 10.0.3-10.0.3~ubuntu26.04.1) date 2026-05-22 15:11:15*
%MOMM*%
%LPD*%
G01*
G04 APERTURE LIST*
G04 Aperture macros list*
%AMRoundRect*
0 Rectangle with rounded corners*
0 $1 Rounding radius*
0 $2 $3 $4 $5 $6 $7 $8 $9 X,Y pos of 4 corners*
0 Add a 4 corners polygon primitive as box body*
4,1,4,$2,$3,$4,$5,$6,$7,$8,$9,$2,$3,0*
0 Add four circle primitives for the rounded corners*
1,1,$1+$1,$2,$3*
1,1,$1+$1,$4,$5*
1,1,$1+$1,$6,$7*
1,1,$1+$1,$8,$9*
0 Add four rect primitives between the rounded corners*
20,1,$1+$1,$2,$3,$4,$5,0*
20,1,$1+$1,$4,$5,$6,$7,0*
20,1,$1+$1,$6,$7,$8,$9,0*
20,1,$1+$1,$8,$9,$2,$3,0*%
G04 Aperture macros list end*
%ADD10RoundRect,0.250000X-0.367423X-0.212132X0.212132X-0.367423X0.367423X0.212132X-0.212132X0.367423X0*%
%ADD11RoundRect,0.520000X-0.955301X-0.551543X0.551543X-0.955301X0.955301X0.551543X-0.551543X0.955301X0*%
%ADD12RoundRect,0.500000X0.925029X0.554478X-0.523860X0.942707X-0.925029X-0.554478X0.523860X-0.942707X0*%
%ADD13RoundRect,0.250000X-0.212132X-0.367423X0.367423X-0.212132X0.212132X0.367423X-0.367423X0.212132X0*%
%ADD14RoundRect,0.520000X-0.551543X-0.955301X0.955301X-0.551543X0.551543X0.955301X-0.955301X0.551543X0*%
%ADD15RoundRect,0.500000X0.523860X0.942707X-0.925029X0.554478X-0.523860X-0.942707X0.925029X-0.554478X0*%
%ADD16RoundRect,0.250000X-0.145107X-0.398678X0.398678X-0.145107X0.145107X0.398678X-0.398678X0.145107X0*%
%ADD17RoundRect,0.520000X-0.377278X-1.036562X1.036562X-0.377278X0.377278X1.036562X-1.036562X0.377278X0*%
%ADD18RoundRect,0.500000X0.352202X1.019352X-1.007260X0.385425X-0.352202X-1.019352X1.007260X-0.385425X0*%
%ADD19RoundRect,0.250000X-0.300000X-0.300000X0.300000X-0.300000X0.300000X0.300000X-0.300000X0.300000X0*%
%ADD20RoundRect,0.520000X-0.780000X-0.780000X0.780000X-0.780000X0.780000X0.780000X-0.780000X0.780000X0*%
%ADD21RoundRect,0.500000X0.750000X0.775000X-0.750000X0.775000X-0.750000X-0.775000X0.750000X-0.775000X0*%
%ADD22RoundRect,0.250000X-0.243348X-0.347537X0.347537X-0.243348X0.243348X0.347537X-0.347537X0.243348X0*%
%ADD23RoundRect,0.520000X-0.632704X-0.903596X0.903596X-0.632704X0.632704X0.903596X-0.903596X0.632704X0*%
%ADD24RoundRect,0.500000X0.604028X0.893462X-0.873183X0.632990X-0.604028X-0.893462X0.873183X-0.632990X0*%
%ADD25RoundRect,0.250000X-0.424264X0.000000X0.000000X-0.424264X0.424264X0.000000X0.000000X0.424264X0*%
%ADD26RoundRect,0.520000X-1.103087X0.000000X0.000000X-1.103087X1.103087X0.000000X0.000000X1.103087X0*%
%ADD27RoundRect,0.500000X1.078338X0.017678X0.017678X1.078338X-1.078338X-0.017678X-0.017678X-1.078338X0*%
%ADD28RoundRect,0.250000X0.000000X-0.424264X0.424264X0.000000X0.000000X0.424264X-0.424264X0.000000X0*%
%ADD29RoundRect,0.520000X0.000000X-1.103087X1.103087X0.000000X0.000000X1.103087X-1.103087X0.000000X0*%
%ADD30RoundRect,0.500000X-0.017678X1.078338X-1.078338X0.017678X0.017678X-1.078338X1.078338X-0.017678X0*%
%ADD31RoundRect,0.250000X-0.073673X-0.417819X0.417819X-0.073673X0.073673X0.417819X-0.417819X0.073673X0*%
%ADD32RoundRect,0.520000X-0.191549X-1.086328X1.086328X-0.191549X0.191549X1.086328X-1.086328X0.191549X0*%
%ADD33RoundRect,0.500000X0.169842X1.065025X-1.058886X0.204661X-0.169842X-1.065025X1.058886X-0.204661X0*%
%ADD34RoundRect,0.250000X-0.417819X-0.073673X0.073673X-0.417819X0.417819X0.073673X-0.073673X0.417819X0*%
%ADD35RoundRect,0.520000X-1.086328X-0.191549X0.191549X-1.086328X1.086328X0.191549X-0.191549X1.086328X0*%
%ADD36RoundRect,0.500000X1.058886X0.204661X-0.169842X1.065025X-1.058886X-0.204661X0.169842X-1.065025X0*%
%ADD37RoundRect,0.250000X-0.398678X-0.145107X0.145107X-0.398678X0.398678X0.145107X-0.145107X0.398678X0*%
%ADD38RoundRect,0.520000X-1.036562X-0.377278X0.377278X-1.036562X1.036562X0.377278X-0.377278X1.036562X0*%
%ADD39RoundRect,0.500000X1.007260X0.385425X-0.352202X1.019352X-1.007260X-0.385425X0.352202X-1.019352X0*%
%ADD40RoundRect,0.250000X-0.347537X-0.243348X0.243348X-0.347537X0.347537X0.243348X-0.243348X0.347537X0*%
%ADD41RoundRect,0.520000X-0.903596X-0.632704X0.632704X-0.903596X0.903596X0.632704X-0.632704X0.903596X0*%
%ADD42RoundRect,0.500000X0.873183X0.632990X-0.604028X0.893462X-0.873183X-0.632990X0.604028X-0.893462X0*%
%ADD43RoundRect,0.250000X-0.625000X0.400000X-0.625000X-0.400000X0.625000X-0.400000X0.625000X0.400000X0*%
%ADD44RoundRect,0.250001X-0.462499X-0.624999X0.462499X-0.624999X0.462499X0.624999X-0.462499X0.624999X0*%
%ADD45RoundRect,0.100000X0.100000X-0.850000X0.100000X0.850000X-0.100000X0.850000X-0.100000X-0.850000X0*%
%ADD46RoundRect,0.250000X-0.362500X-0.700000X0.362500X-0.700000X0.362500X0.700000X-0.362500X0.700000X0*%
G04 APERTURE END LIST*
D10*
%TO.C,S_MAT_L22*%
X80376310Y-71428842D03*
D11*
X65435418Y-68460718D03*
D12*
X70249510Y-59863762D03*
D10*
X77671717Y-70704149D03*
D11*
X76869378Y-73698519D03*
D12*
X83838786Y-64592037D03*
%TD*%
D13*
%TO.C,S_MAT_R04*%
X189726372Y-48634843D03*
D14*
X175303119Y-53534818D03*
D15*
X175173767Y-43682589D03*
D13*
X187021780Y-49359536D03*
D14*
X187824119Y-52353906D03*
D15*
X189306562Y-40982758D03*
%TD*%
D13*
%TO.C,S_MAT_R33*%
X220290619Y-93245774D03*
D14*
X205867366Y-98145749D03*
D15*
X205738014Y-88293520D03*
D13*
X217586027Y-93970467D03*
D14*
X218388366Y-96964837D03*
D15*
X219870809Y-85593689D03*
%TD*%
D16*
%TO.C,S_MAT_R34*%
X202162021Y-98689264D03*
D17*
X188808762Y-106019369D03*
D18*
X186970552Y-96339280D03*
D16*
X199624359Y-99872595D03*
D17*
X200934476Y-102682149D03*
D18*
X200419818Y-91226331D03*
%TD*%
D19*
%TO.C,S_MAT_L20*%
X35400000Y-79626657D03*
D20*
X20200000Y-80626657D03*
D21*
X22625000Y-71076656D03*
D19*
X32600000Y-79626657D03*
D20*
X32600000Y-82726657D03*
D21*
X36975000Y-72126656D03*
%TD*%
D13*
%TO.C,S_MAT_R24*%
X198528726Y-81479102D03*
D14*
X184105473Y-86379077D03*
D15*
X183976121Y-76526848D03*
D13*
X195824134Y-82203795D03*
D14*
X196626473Y-85198165D03*
D15*
X198108916Y-73827017D03*
%TD*%
D10*
%TO.C,S_MAT_L12*%
X84786672Y-55010165D03*
D11*
X69845780Y-52042041D03*
D12*
X74659872Y-43445085D03*
D10*
X82082079Y-54285472D03*
D11*
X81279740Y-57279842D03*
D12*
X88249148Y-48173360D03*
%TD*%
D10*
%TO.C,S_MAT_L04*%
X122841233Y-51963411D03*
D11*
X107900341Y-48995287D03*
D12*
X112714433Y-40398331D03*
D10*
X120136640Y-51238718D03*
D11*
X119334301Y-54233088D03*
D12*
X126303709Y-45126606D03*
%TD*%
D19*
%TO.C,S_MAT_R00*%
X277600000Y-45671320D03*
D20*
X262400000Y-46671320D03*
D21*
X264825000Y-37121319D03*
D19*
X274800000Y-45671320D03*
D20*
X274800000Y-48771320D03*
D21*
X279175000Y-38171319D03*
%TD*%
D13*
%TO.C,S_MAT_R03*%
X207131953Y-44002442D03*
D14*
X192708700Y-48902417D03*
D15*
X192579348Y-39050188D03*
D13*
X204427361Y-44727135D03*
D14*
X205229700Y-47721505D03*
D15*
X206712143Y-36350357D03*
%TD*%
D22*
%TO.C,S_MAT_R21*%
X254492228Y-67999746D03*
D23*
X239696799Y-71624006D03*
D24*
X240426617Y-61797994D03*
D22*
X251734767Y-68485960D03*
D23*
X252273076Y-71538864D03*
D24*
X254740939Y-60340191D03*
%TD*%
D25*
%TO.C,S_MAT_L35*%
X139241892Y-127626076D03*
D26*
X127786762Y-117585160D03*
D27*
X136254367Y-112547023D03*
D25*
X137261993Y-125646177D03*
D26*
X135069962Y-127838208D03*
D27*
X145658887Y-123436468D03*
%TD*%
D10*
%TO.C,S_MAT_L33*%
X92278738Y-96592806D03*
D11*
X77337846Y-93624682D03*
D12*
X82151938Y-85027726D03*
D10*
X89574145Y-95868113D03*
D11*
X88771806Y-98862483D03*
D12*
X95741214Y-89756001D03*
%TD*%
D28*
%TO.C,S_MAT_R35*%
X169970280Y-118442353D03*
D29*
X159929364Y-129897483D03*
D30*
X154891227Y-121429878D03*
D28*
X167990381Y-120422252D03*
D29*
X170182412Y-122614283D03*
D30*
X165780672Y-112025358D03*
%TD*%
D31*
%TO.C,S_MAT_R25*%
X185169875Y-107124613D03*
D32*
X173292341Y-116662127D03*
D33*
X169801129Y-107448301D03*
D31*
X182876250Y-108730627D03*
D32*
X184654337Y-111269998D03*
D33*
X182158216Y-100077589D03*
%TD*%
D34*
%TO.C,S_MAT_L15*%
X135229941Y-100707531D03*
D35*
X122205254Y-92808321D03*
D36*
X129669353Y-86376341D03*
D35*
X131158229Y-101640888D03*
D34*
X132936316Y-99101517D03*
D36*
X140821930Y-95467272D03*
%TD*%
D13*
%TO.C,S_MAT_R32*%
X236611469Y-84494528D03*
D14*
X222188216Y-89394503D03*
D15*
X222058864Y-79542274D03*
D13*
X233906877Y-85219221D03*
D14*
X234709216Y-88213591D03*
D15*
X236191659Y-76842443D03*
%TD*%
D10*
%TO.C,S_MAT_L13*%
X101054141Y-63783715D03*
D11*
X86113249Y-60815591D03*
D12*
X90927341Y-52218635D03*
D10*
X98349548Y-63059022D03*
D11*
X97547209Y-66053392D03*
D12*
X104516617Y-56946910D03*
%TD*%
D37*
%TO.C,S_MAT_L34*%
X109634014Y-104194759D03*
D38*
X95435518Y-98677269D03*
D39*
X101669319Y-91046878D03*
D37*
X107096353Y-103011427D03*
D38*
X105786236Y-105820982D03*
D39*
X114231087Y-98063073D03*
%TD*%
D40*
%TO.C,S_MAT_L01*%
X64231478Y-36741240D03*
D41*
X49088751Y-35086595D03*
D42*
X53135252Y-26102777D03*
D40*
X61474017Y-36255025D03*
D41*
X60935707Y-39307929D03*
D42*
X67084912Y-29628677D03*
%TD*%
D19*
%TO.C,S_MAT_R20*%
X277600000Y-79600001D03*
D20*
X262400000Y-80600001D03*
D21*
X264825000Y-71050000D03*
D19*
X274800000Y-79600001D03*
D20*
X274800000Y-82700001D03*
D21*
X279175000Y-72100000D03*
%TD*%
D13*
%TO.C,S_MAT_R13*%
X211514299Y-60359052D03*
D14*
X197091046Y-65259027D03*
D15*
X196961694Y-55406798D03*
D13*
X208809707Y-61083745D03*
D14*
X209612046Y-64078115D03*
D15*
X211094489Y-52706967D03*
%TD*%
D22*
%TO.C,S_MAT_R01*%
X248578960Y-34523271D03*
D23*
X233783531Y-38147531D03*
D24*
X234513349Y-28321519D03*
D22*
X245821499Y-35009485D03*
D23*
X246359808Y-38062389D03*
D24*
X248827671Y-26863716D03*
%TD*%
D19*
%TO.C,S_MAT_L00*%
X35400000Y-45600001D03*
D20*
X20200000Y-46600001D03*
D21*
X22625000Y-37050000D03*
D19*
X32600000Y-45600001D03*
D20*
X32600000Y-48700001D03*
D21*
X36975000Y-38100000D03*
%TD*%
D10*
%TO.C,S_MAT_L14*%
X118441233Y-68429072D03*
D11*
X103500341Y-65460948D03*
D12*
X108314433Y-56863992D03*
D10*
X115736640Y-67704379D03*
D11*
X114934301Y-70698749D03*
D12*
X121903709Y-61592267D03*
%TD*%
D10*
%TO.C,S_MAT_L02*%
X89181570Y-38573052D03*
D11*
X74240678Y-35604928D03*
D12*
X79054770Y-27007972D03*
D10*
X86476977Y-37848359D03*
D11*
X85674638Y-40842729D03*
D12*
X92644046Y-31736247D03*
%TD*%
D13*
%TO.C,S_MAT_R12*%
X227774126Y-51656822D03*
D14*
X213350873Y-56556797D03*
D15*
X213221521Y-46704568D03*
D13*
X225069534Y-52381515D03*
D14*
X225871873Y-55375885D03*
D15*
X227354316Y-44004737D03*
%TD*%
D19*
%TO.C,S_MAT_R10*%
X277615196Y-62649969D03*
D20*
X262415196Y-63649969D03*
D21*
X264840196Y-54099968D03*
D19*
X274815196Y-62649969D03*
D20*
X274815196Y-65749969D03*
D21*
X279190196Y-55149968D03*
%TD*%
D22*
%TO.C,S_MAT_R31*%
X257420955Y-84714729D03*
D23*
X242625526Y-88338989D03*
D24*
X243355344Y-78512977D03*
D22*
X254663494Y-85200943D03*
D23*
X255201803Y-88253847D03*
D24*
X257669666Y-77055174D03*
%TD*%
D13*
%TO.C,S_MAT_R02*%
X223396649Y-35214486D03*
D14*
X208973396Y-40114461D03*
D15*
X208844044Y-30262232D03*
D13*
X220692057Y-35939179D03*
D14*
X221494396Y-38933549D03*
D15*
X222976839Y-27562401D03*
%TD*%
D34*
%TO.C,S_MAT_L25*%
X125488192Y-114544433D03*
D35*
X112463505Y-106645223D03*
D36*
X119927604Y-100213243D03*
D35*
X121416480Y-115477790D03*
D34*
X123194567Y-112938419D03*
D36*
X131080181Y-109304174D03*
%TD*%
D10*
%TO.C,S_MAT_L03*%
X105434477Y-47321844D03*
D11*
X90493585Y-44353720D03*
D12*
X95307677Y-35756764D03*
D10*
X102729884Y-46597151D03*
D11*
X101927545Y-49591521D03*
D12*
X108896953Y-40485039D03*
%TD*%
D31*
%TO.C,S_MAT_R15*%
X175441045Y-93248433D03*
D32*
X163563511Y-102785947D03*
D33*
X160072299Y-93572121D03*
D31*
X173147420Y-94854447D03*
D32*
X174925507Y-97393818D03*
D33*
X172429386Y-86201409D03*
%TD*%
D40*
%TO.C,S_MAT_L11*%
X61315035Y-53486175D03*
D41*
X46172308Y-51831530D03*
D42*
X50218809Y-42847712D03*
D40*
X58557574Y-52999960D03*
D41*
X58019264Y-56052864D03*
D42*
X64168469Y-46373612D03*
%TD*%
D10*
%TO.C,S_MAT_L24*%
X114021216Y-84832649D03*
D11*
X99080324Y-81864525D03*
D12*
X103894416Y-73267569D03*
D10*
X111316623Y-84107956D03*
D11*
X110514284Y-87102326D03*
D12*
X117483692Y-77995844D03*
%TD*%
D13*
%TO.C,S_MAT_R23*%
X215930536Y-76849451D03*
D14*
X201507283Y-81749426D03*
D15*
X201377931Y-71897197D03*
D13*
X213225944Y-77574144D03*
D14*
X214028283Y-80568514D03*
D15*
X215510726Y-69197366D03*
%TD*%
D13*
%TO.C,S_MAT_R14*%
X194145044Y-65049046D03*
D14*
X179721791Y-69949021D03*
D15*
X179592439Y-60096792D03*
D13*
X191440452Y-65773739D03*
D14*
X192242791Y-68768109D03*
D15*
X193725234Y-57396961D03*
%TD*%
D19*
%TO.C,S_MAT_L10*%
X35400000Y-62600001D03*
D20*
X20200000Y-63600001D03*
D21*
X22625000Y-54050000D03*
D19*
X32600000Y-62600001D03*
D20*
X32600000Y-65700001D03*
D21*
X36975000Y-55100000D03*
%TD*%
D10*
%TO.C,S_MAT_L32*%
X75938708Y-87831032D03*
D11*
X60997816Y-84862908D03*
D12*
X65811908Y-76265952D03*
D10*
X73234115Y-87106339D03*
D11*
X72431776Y-90100709D03*
D12*
X79401184Y-80994227D03*
%TD*%
D22*
%TO.C,S_MAT_R11*%
X251524741Y-51188640D03*
D23*
X236729312Y-54812900D03*
D24*
X237459130Y-44986888D03*
D22*
X248767280Y-51674854D03*
D23*
X249305589Y-54727758D03*
D24*
X251773452Y-43529085D03*
%TD*%
D13*
%TO.C,S_MAT_R22*%
X232192798Y-68080326D03*
D14*
X217769545Y-72980301D03*
D15*
X217640193Y-63128072D03*
D13*
X229488206Y-68805019D03*
D14*
X230290545Y-71799389D03*
D15*
X231772988Y-60428241D03*
%TD*%
D40*
%TO.C,S_MAT_L31*%
X55419066Y-86938871D03*
D41*
X40276339Y-85284226D03*
D42*
X44322840Y-76300408D03*
D40*
X52661605Y-86452656D03*
D41*
X52123295Y-89505560D03*
D42*
X58272500Y-79826308D03*
%TD*%
D10*
%TO.C,S_MAT_L23*%
X96672680Y-80171560D03*
D11*
X81731788Y-77203436D03*
D12*
X86545880Y-68606480D03*
D10*
X93968087Y-79446867D03*
D11*
X93165748Y-82441237D03*
D12*
X100135156Y-73334755D03*
%TD*%
D40*
%TO.C,S_MAT_L21*%
X58315035Y-70186175D03*
D41*
X43172308Y-68531530D03*
D42*
X47218809Y-59547712D03*
D40*
X55557574Y-69699960D03*
D41*
X55019264Y-72752864D03*
D42*
X61168469Y-63073612D03*
%TD*%
D43*
%TO.C,R_USB_2*%
X155000000Y-40450000D03*
X155000000Y-43550000D03*
%TD*%
D44*
%TO.C,F_USB_2*%
X167012500Y-43400000D03*
X169987500Y-43400000D03*
%TD*%
D43*
%TO.C,R_USB_1*%
X152500000Y-40450000D03*
X152500000Y-43550000D03*
%TD*%
D45*
%TO.C,U_MAT_2*%
X46100000Y-32500000D03*
X45450000Y-32500000D03*
X44800000Y-32500000D03*
X44150000Y-32500000D03*
X43500000Y-32500000D03*
X42850000Y-32500000D03*
X42200000Y-32500000D03*
X41550000Y-32500000D03*
X40900000Y-32500000D03*
X40250000Y-32500000D03*
X39600000Y-32500000D03*
X38950000Y-32500000D03*
X38300000Y-32500000D03*
X37650000Y-32500000D03*
X37650000Y-25500000D03*
X38300000Y-25500000D03*
X38950000Y-25500000D03*
X39600000Y-25500000D03*
X40250000Y-25500000D03*
X40900000Y-25500000D03*
X41550000Y-25500000D03*
X42200000Y-25500000D03*
X42850000Y-25500000D03*
X43500000Y-25500000D03*
X44150000Y-25500000D03*
X44800000Y-25500000D03*
X45450000Y-25500000D03*
X46100000Y-25500000D03*
%TD*%
D46*
%TO.C,FB_USB_1*%
X166837500Y-38500000D03*
X170162500Y-38500000D03*
%TD*%
D45*
%TO.C,U_MAT_3*%
X261500000Y-31000000D03*
X260850000Y-31000000D03*
X260200000Y-31000000D03*
X259550000Y-31000000D03*
X258900000Y-31000000D03*
X258250000Y-31000000D03*
X257600000Y-31000000D03*
X256950000Y-31000000D03*
X256300000Y-31000000D03*
X255650000Y-31000000D03*
X255000000Y-31000000D03*
X254350000Y-31000000D03*
X253700000Y-31000000D03*
X253050000Y-31000000D03*
X253050000Y-24000000D03*
X253700000Y-24000000D03*
X254350000Y-24000000D03*
X255000000Y-24000000D03*
X255650000Y-24000000D03*
X256300000Y-24000000D03*
X256950000Y-24000000D03*
X257600000Y-24000000D03*
X258250000Y-24000000D03*
X258900000Y-24000000D03*
X259550000Y-24000000D03*
X260200000Y-24000000D03*
X260850000Y-24000000D03*
X261500000Y-24000000D03*
%TD*%
M02*
